# Blender 5.0.0
# www.blender.org
o Walls_-_Second_Floor
v -37.841934 8.193406 25.707085
v 1.778685 8.193406 25.693291
v -37.841934 0.000000 25.707085
v 1.778685 0.000000 25.693291
v -29.874191 0.000000 5.793940
v -29.874191 8.193406 5.793940
v -29.874191 0.000000 6.043940
v -29.874191 8.193406 6.043940
v -37.783615 0.000000 5.945236
v -37.783615 8.193406 5.945236
v -16.079283 0.000000 -17.158279
v -16.079283 8.193406 -17.158279
v -15.849463 0.000000 -17.383377
v -15.849463 8.193406 -17.383377
v -16.091614 0.000000 -10.553066
v -16.091614 8.193406 -10.553066
v -15.841614 0.000000 -10.663940
v -15.841614 8.193406 -10.663940
v -18.924006 0.000000 -24.171494
v -18.924006 8.193406 -24.171494
v -18.674006 0.000000 -24.171494
v -18.674006 8.193406 -24.171494
v -18.892977 0.000000 -17.162212
v -18.892977 8.193406 -17.162212
v -18.672329 0.000000 -17.401314
v -18.672329 8.193406 -17.401314
v -16.031490 0.000000 -10.671940
v -16.031490 8.193406 -10.671940
v -16.051363 0.000000 -10.421940
v -16.051363 8.193406 -10.421940
v -22.989361 0.000000 -10.671947
v -22.989361 8.193406 -10.671947
v -22.989361 0.000000 -10.421947
v -22.989361 8.193406 -10.421947
v -15.846249 0.000000 -9.975864
v -15.846249 8.193406 -9.975864
v -16.096249 0.000000 -9.975864
v -16.096249 8.193406 -9.975864
v -15.846249 -0.000749 -5.809519
v -15.846249 8.193406 -5.809519
v -16.096249 -0.000749 -5.809519
v -16.096249 8.193406 -5.809519
v -15.846249 -0.000749 -6.387749
v -15.846248 8.193406 -6.387749
v -16.096249 -0.000749 -6.387749
v -16.096249 8.193406 -6.387749
v -27.174498 0.000000 -10.671944
v -27.174498 8.193406 -10.671944
v -27.174498 0.000000 -10.421944
v -27.174498 8.193406 -10.421944
v -40.054909 0.000000 -10.671944
v -40.054909 8.193406 -10.671944
v -40.054909 0.000000 -10.421944
v -40.054909 8.193406 -10.421944
v -32.397884 0.000000 -6.843604
v -32.397884 8.193405 -6.843604
v -32.162407 0.000000 -7.078682
v -32.162407 8.193405 -7.078682
v -32.414764 0.000000 5.933819
v -32.414764 8.193406 5.933819
v -32.164764 0.000000 5.933819
v -32.164764 8.193406 5.933819
v -31.924316 0.000000 11.538120
v -31.924316 8.193406 11.538120
v -31.674318 0.000000 11.538120
v -31.674318 8.193406 11.538120
v -31.924318 0.000000 22.538120
v -31.924318 8.193406 22.538120
v -31.674320 0.000000 22.538120
v -31.674320 8.193406 22.538120
v -22.419830 0.000000 16.308493
v -22.419830 8.193406 16.308493
v -22.657320 0.000000 16.531748
v -22.657320 8.193406 16.531748
v -31.847990 0.000000 16.292160
v -31.847990 8.193406 16.292160
v -31.847990 0.000000 16.542160
v -31.847990 8.193406 16.542160
v -22.678896 0.000000 25.852816
v -22.678896 8.193406 25.852816
v -22.428896 0.000000 25.852816
v -22.428896 8.193406 25.852816
v -31.683590 0.000000 7.799715
v -31.683590 8.193406 7.799715
v -31.933590 0.000000 7.799715
v -31.933590 8.193406 7.799715
v -31.683590 0.000000 5.949986
v -31.683590 8.193406 5.949986
v -31.933588 0.000000 5.949986
v -31.933588 8.193406 5.949986
v 1.900160 8.193406 5.909150
v 1.900160 0.000000 5.909150
v -0.045919 8.193406 5.687058
v 0.045919 8.193406 -5.715935
v 1.806032 8.193406 -5.902031
v 1.866611 8.193406 -23.956299
v -0.045919 0.000000 5.687058
v 0.045919 0.000000 -5.715935
v 1.866611 0.000000 -23.956299
v 1.806032 0.000000 -5.902031
v -37.741699 8.193406 17.676350
v -39.993950 8.193406 5.712507
v -39.771774 8.193406 -23.950218
v -37.741699 0.000000 17.676350
v -39.993950 0.000000 5.793082
v -39.771774 0.000000 -23.950218
v -31.674318 8.193406 16.451220
v -31.674318 0.000000 16.451220
v -21.432758 8.193406 -5.909422
v -21.432758 8.193406 -5.659422
v -21.432758 0.000000 -5.659422
v -21.432758 0.000000 -5.909422
v -21.320704 0.000000 -1.110141
v -21.320704 8.193406 -1.110141
v -21.067974 0.000000 -0.860719
v -21.067974 8.193406 -0.860719
v -21.316010 0.000000 5.825819
v -21.316010 8.193406 5.825819
v -21.066010 0.000000 5.825819
v -21.066010 8.193406 5.825819
v -15.504645 0.000000 -1.099364
v -15.504645 0.000000 -0.849364
v -15.504645 8.193406 -1.099364
v -15.504645 8.193406 -0.849364
v -25.504292 8.193406 5.927908
v -25.504292 8.193406 5.677908
v -21.229744 8.193406 5.679446
v -21.229744 0.000000 5.679446
v -25.504292 0.000000 5.927908
v -25.504292 0.000000 5.677908
v -15.957670 8.193406 -5.907681
v -15.957670 0.000000 -5.907681
v -32.217697 0.000000 5.792032
v -32.217697 8.193406 5.792032
v -39.920033 0.000000 -6.987685
v -39.920033 8.193406 -6.987685
v -39.871552 0.000000 -10.537674
v -39.871552 8.193406 -10.537674
v -18.829035 8.193406 -23.953278
v -18.829035 0.000000 -23.953278
v -29.300404 8.193406 -23.951748
v -29.300404 0.000000 -23.951748
v -22.540993 8.193406 25.701757
v -22.540993 0.000000 25.701757
v -10.381155 8.193406 25.697523
v -10.381155 0.000000 25.697523
v -11.802065 0.000000 5.918530
v -11.802065 8.193406 5.918530
v 1.839422 0.000000 15.815659
v 1.839422 8.193406 15.815659
v -34.109035 0.000000 -6.833666
v -34.109035 8.193405 -6.833666
v -34.109035 0.000000 -7.083666
v -34.109035 8.193405 -7.083666
v -37.276039 0.000000 -7.083669
v -37.276039 8.193405 -7.083669
v -37.276039 0.000000 -6.833669
v -37.276039 8.193405 -6.833669
v -40.013393 0.000000 -7.083669
v -40.013393 8.193405 -7.083669
v -40.013393 0.000000 -6.833669
v -40.013393 8.193405 -6.833669
vn -0.0003 -0.0000 -1.0000
vn 1.0000 -0.0000 -0.0000
vn -0.0125 -0.0000 0.9999
vn 0.0008 -0.0000 -1.0000
vn 1.0000 -0.0000 -0.0012
vn -1.0000 -0.0000 -0.0019
vn 1.0000 -0.0000 -0.0002
vn -1.0000 -0.0000 0.0044
vn -0.0014 -0.0000 1.0000
vn 0.0064 -0.0000 -1.0000
vn -0.0000 -0.0000 1.0000
vn -1.0000 -0.0000 -0.0000
vn -0.0000 -0.0000 -1.0000
vn -1.0000 -0.0000 -0.0080
vn 1.0000 -0.0000 0.0067
vn 1.0000 -0.0000 0.0002
vn -1.0000 -0.0000 -0.0013
vn 0.0011 -0.0000 1.0000
vn 0.0017 -0.0000 -1.0000
vn 1.0000 -0.0000 0.0009
vn -1.0000 -0.0000 -0.0023
vn -1.0000 -0.0000 -0.0061
vn -1.0000 -0.0000 -0.0081
vn -1.0000 -0.0000 -0.0034
vn 1.0000 -0.0000 0.0074
vn 1.0000 -0.0000 -0.0036
vn 0.9999 -0.0000 0.0125
vn 0.0001 -0.0000 1.0000
vn 0.0026 -0.0000 1.0000
vn 0.0003 -0.0000 -1.0000
vn 1.0000 -0.0000 -0.0003
vn -1.0000 -0.0000 0.0007
vn -0.0020 -0.0000 1.0000
vn 0.0019 -0.0000 -1.0000
vn 0.0007 -0.0000 1.0000
vn 0.0004 -0.0000 -1.0000
vn 1.0000 -0.0000 0.0058
vn 0.9999 -0.0000 0.0137
vn 0.0050 -0.0049 -1.0000
vn 0.0026 -0.0000 -1.0000
vn 0.0058 -0.0000 1.0000
vt 0.689737 0.003823
vt 0.956104 0.003823
vt 0.956104 0.167300
vt 0.689737 0.167300
vt 0.019893 0.808370
vt 0.019893 0.982390
vt 0.015260 0.982390
vt 0.015260 0.808370
vt 0.988382 0.002526
vt 0.988382 0.179862
vt 0.839005 0.179862
vt 0.839005 0.002526
vt 0.095935 0.808370
vt 0.095935 0.982390
vt 0.159659 0.598695
vt 0.159659 0.788022
vt 0.024186 0.788022
vt 0.024186 0.598695
vt 0.750363 0.409220
vt 0.750363 0.558027
vt 0.645694 0.558027
vt 0.645694 0.409220
vt 0.884784 0.639734
vt 0.987219 0.639734
vt 0.987219 0.736744
vt 0.884784 0.736744
vt 0.158812 0.398038
vt 0.158812 0.579952
vt 0.023027 0.579952
vt 0.023027 0.398038
vt 0.601108 0.558027
vt 0.601108 0.409220
vt 0.987219 0.777193
vt 0.884784 0.777193
vt 0.287278 0.808567
vt 0.287278 0.985416
vt 0.008209 0.985416
vt 0.008209 0.808567
vt 0.003501 0.985416
vt 0.003501 0.808567
vt 0.222174 0.398168
vt 0.222174 0.583519
vt 0.080502 0.583519
vt 0.080502 0.398168
vt 0.309274 0.808913
vt 0.309274 0.981218
vt 0.304687 0.981218
vt 0.304687 0.808913
vt 0.294096 0.981218
vt 0.294096 0.808913
vt 0.010313 0.788022
vt 0.010313 0.598695
vt 0.145731 0.809810
vt 0.145731 0.991558
vt 0.134600 0.991558
vt 0.134599 0.809810
vt 0.129787 0.991558
vt 0.129787 0.809810
vt 0.188077 0.598412
vt 0.188077 0.793431
vt 0.039614 0.793431
vt 0.039614 0.598412
vt 0.372694 0.002281
vt 0.372694 0.180578
vt 0.006730 0.180578
vt 0.006730 0.002281
vt 0.252693 0.808852
vt 0.252693 0.993610
vt 0.247774 0.993610
vt 0.247774 0.808852
vt 0.149400 0.993610
vt 0.149400 0.808852
vt 0.253159 0.399377
vt 0.253159 0.579419
vt 0.031649 0.579419
vt 0.031649 0.399377
vt 0.198398 0.808304
vt 0.198398 0.983051
vt 0.012312 0.983051
vt 0.012312 0.808304
vt 0.498764 0.199464
vt 0.498764 0.388323
vt 0.142523 0.388323
vt 0.142523 0.199464
vt 0.912363 0.000261
vt 0.912363 0.172382
vt 0.781333 0.172382
vt 0.781333 0.000261
vt 0.168967 0.200045
vt 0.168967 0.383492
vt 0.005644 0.383492
vt 0.005644 0.200045
vt 0.912083 0.001012
vt 0.912083 0.173523
vt 0.907490 0.173523
vt 0.907490 0.001012
vt 0.936177 0.001221
vt 0.936177 0.173314
vt 0.734590 0.173314
vt 0.734590 0.001221
vt 0.327206 0.198309
vt 0.327206 0.382671
vt 0.051615 0.382671
vt 0.051615 0.198309
vt 0.399074 0.001658
vt 0.399074 0.181864
vt 0.045969 0.181864
vt 0.045969 0.001658
vt 0.368782 0.001365
vt 0.368782 0.185648
vt 0.020016 0.185648
vt 0.020016 0.001365
vt 0.471776 0.198309
vt 0.471776 0.382671
vt 0.192631 0.382671
vt 0.192631 0.198309
vt 0.916687 0.001012
vt 0.916687 0.173523
vt 0.912094 0.173523
vt 0.912094 0.001012
vt 0.971593 0.003281
vt 0.971593 0.173693
vt 0.938026 0.173693
vt 0.938026 0.003281
vt 0.164097 -0.000037
vt 0.164097 0.181410
vt 0.025966 0.181410
vt 0.025966 -0.000037
vt 0.112892 0.001531
vt 0.485341 0.001531
vt 0.485341 0.170028
vt 0.112892 0.170028
vt 0.758662 0.991134
vt 0.758662 0.889985
vt 0.821602 0.889986
vt 0.821602 0.991134
vt 0.014802 0.599631
vt 0.381235 0.599631
vt 0.381235 0.790224
vt 0.014802 0.790224
vt 0.003942 0.398013
vt 0.269150 0.398014
vt 0.269150 0.583691
vt 0.003942 0.583690
vt 0.755824 0.002801
vt 0.973291 0.002801
vt 0.973291 0.176880
vt 0.755824 0.176880
vt 0.837327 0.002583
vt 0.993528 0.002583
vt 0.993528 0.185220
vt 0.837327 0.185220
vt 0.033871 0.600010
vt 0.446276 0.600010
vt 0.446276 0.787138
vt 0.033871 0.787138
vt 0.759566 0.898918
vt 0.993084 0.898918
vt 0.993084 0.993083
vt 0.759566 0.993083
vt 0.124935 0.809810
vt 0.129748 0.809810
vt 0.129748 0.990583
vt 0.124935 0.990583
vt 0.019538 0.809810
vt 0.019538 0.990583
vt 0.989653 0.840647
vt 0.989653 0.886436
vt 0.965850 0.886436
vt 0.965850 0.840647
vt 0.144609 0.809450
vt 0.144609 0.992227
vt 0.005466 0.992227
vt 0.005466 0.809450
vt 0.774547 0.853520
vt 0.778067 0.853520
vt 0.778067 0.985751
vt 0.774547 0.985751
vt 0.700432 0.889738
vt 0.751895 0.889738
vt 0.751895 0.976606
vt 0.700432 0.976606
vt 0.856553 0.904124
vt 0.891878 0.904124
vt 0.891878 0.961160
vt 0.856553 0.961160
vt 0.006298 0.810625
vt 0.010982 0.810625
vt 0.010982 0.986582
vt 0.006298 0.986582
vt 0.487919 -0.000157
vt 0.487919 0.179314
vt 0.007630 0.179314
vt 0.007630 -0.000157
vt 0.986758 0.864441
vt 0.986758 0.972795
vt 0.950192 0.972795
vt 0.950192 0.864441
vt 0.088800 0.992882
vt 0.000217 0.992882
vt 0.000217 0.809079
vt 0.088800 0.809079
vt 0.007779 0.599620
vt 0.366464 0.599620
vt 0.366464 0.789235
vt 0.007779 0.789235
vt 0.000095 0.199265
vt 0.372856 0.199265
vt 0.372856 0.388564
vt 0.000095 0.388564
vt 0.021128 0.808852
vt 0.149342 0.808852
vt 0.149342 0.993610
vt 0.021128 0.993610
vt 0.027141 0.398804
vt 0.229677 0.398804
vt 0.229677 0.580437
vt 0.027141 0.580437
vt 0.024889 0.398397
vt 0.226824 0.398397
vt 0.226824 0.579490
vt 0.024889 0.579490
vt 0.692160 0.000496
vt 0.976619 0.000496
vt 0.976619 0.170298
vt 0.692160 0.170298
vt 0.718394 -0.000059
vt 0.933738 -0.000059
vt 0.933738 0.166244
vt 0.718394 0.166244
vt 0.513123 0.001070
vt 0.513123 0.178086
vt 0.001174 0.178086
vt 0.001174 0.001070
vt 0.048515 0.001531
vt 0.384213 0.001531
vt 0.384213 0.170028
vt 0.048515 0.170028
vt 0.368791 0.388556
vt 0.160429 0.388556
vt 0.160429 0.197567
vt 0.368791 0.197567
vt 0.209867 0.808962
vt 0.209867 0.981473
vt 0.205274 0.981473
vt 0.205274 0.808962
vt 0.054790 0.811231
vt 0.054790 0.981643
vt 0.021223 0.981643
vt 0.021223 0.811231
vt 0.122367 0.197653
vt 0.122367 0.379100
vt 0.067696 0.379100
vt 0.067696 0.197653
vt 0.097376 0.808962
vt 0.097376 0.981473
vt 0.092783 0.981473
vt 0.092783 0.808962
vt 0.457883 0.196673
vt 0.457883 0.367085
vt 0.424316 0.367085
vt 0.424316 0.196673
vt 0.147223 0.807913
vt 0.147223 0.989360
vt 0.009093 0.989360
vt 0.009093 0.807913
s 0
f 144/1/1 3/2/1 1/3/1 143/4/1
f 5/5/2 6/6/2 8/7/2 7/8/2
f 7/9/3 8/10/3 10/11/3 9/12/3
f 133/13/4 134/14/4 6/6/4 5/5/4
f 13/15/5 14/16/5 18/17/5 17/18/5
f 15/19/6 16/20/6 12/21/6 11/22/6
f 21/23/7 22/24/7 26/25/7 25/26/7
f 23/27/8 24/28/8 20/29/8 19/30/8
f 11/22/9 12/21/9 24/31/9 23/32/9
f 25/26/10 26/25/10 14/33/10 13/34/10
f 29/35/11 30/36/11 34/37/11 33/38/11
f 33/38/12 34/37/12 32/39/12 31/40/12
f 31/41/13 32/42/13 28/43/13 27/44/13
f 35/45/11 36/46/11 38/47/11 37/48/11
f 37/48/14 38/47/14 16/49/14 15/50/14
f 17/18/15 18/17/15 36/51/15 35/52/15
f 41/53/12 42/54/12 46/55/12 45/56/12
f 45/56/13 46/55/13 44/57/13 43/58/13
f 43/59/2 44/60/2 40/61/2 39/62/2
f 65/63/2 66/64/2 107/65/2 108/66/2
f 47/67/2 48/68/2 50/69/2 49/70/2
f 49/70/11 50/69/11 54/71/11 53/72/11
f 51/73/13 52/74/13 48/75/13 47/76/13
f 57/77/16 58/78/16 62/79/16 61/80/16
f 59/81/17 60/82/17 56/83/17 55/84/17
f 63/85/13 64/86/13 66/87/13 65/88/13
f 108/89/2 107/90/2 70/91/2 69/92/2
f 69/93/11 70/94/11 68/95/11 67/96/11
f 67/97/12 68/98/12 64/99/12 63/100/12
f 73/101/18 74/102/18 78/103/18 77/104/18
f 75/105/19 76/106/19 72/107/19 71/108/19
f 71/109/20 72/110/20 82/111/20 81/112/20
f 79/113/21 80/114/21 74/115/21 73/116/21
f 83/117/11 84/118/11 86/119/11 85/120/11
f 85/121/12 86/122/12 90/123/12 89/124/12
f 87/125/2 88/126/2 84/127/2 83/128/2
f 149/129/22 4/130/22 2/131/22 150/132/22
f 98/133/23 97/134/23 93/135/23 94/136/23
f 99/137/24 100/138/24 95/139/24 96/140/24
f 137/141/25 106/142/25 103/143/25 138/144/25
f 104/145/26 9/146/26 10/147/26 101/148/26
f 3/149/27 104/150/27 101/151/27 1/152/27
f 140/153/28 99/154/28 96/155/28 139/156/28
f 94/157/29 110/158/29 111/159/29 98/160/29
f 112/161/12 111/162/12 110/163/12 109/164/12
f 132/165/30 112/161/30 109/164/30 131/166/30
f 115/167/31 116/168/31 120/169/31 119/170/31
f 117/171/32 118/172/32 114/173/32 113/174/32
f 122/175/2 121/176/2 123/177/2 124/178/2
f 115/179/33 122/180/33 124/181/33 116/182/33
f 121/183/34 113/184/34 114/185/34 123/186/34
f 130/187/12 129/188/12 125/189/12 126/190/12
f 147/191/35 148/192/35 125/193/35 129/194/35
f 127/195/36 93/196/36 97/197/36 128/198/36
f 126/199/36 127/200/36 128/201/36 130/202/36
f 100/203/30 132/204/30 131/205/30 95/206/30
f 105/207/37 135/208/37 136/209/37 102/210/37
f 135/211/38 137/212/38 138/213/38 136/214/38
f 142/215/28 140/216/28 139/217/28 141/218/28
f 106/219/28 142/220/28 141/221/28 103/222/28
f 146/223/1 144/224/1 143/225/1 145/226/1
f 4/227/1 146/228/1 145/229/1 2/230/1
f 92/231/35 91/232/35 148/233/35 147/234/35
f 92/235/22 149/236/22 150/237/22 91/238/22
f 102/239/39 134/240/39 133/241/39 105/242/39
f 151/243/12 152/244/12 154/245/12 153/246/12
f 153/247/40 154/248/40 58/249/40 57/250/40
f 55/251/41 56/252/41 152/253/41 151/254/41
f 155/255/2 156/256/2 158/257/2 157/258/2
f 157/259/11 158/260/11 162/261/11 161/262/11
f 159/263/13 160/264/13 156/265/13 155/266/13
