# Blender 5.1.1
# www.blender.org
o Head_Human
v -4.327449 9.929730 -23.081512
v -4.326684 9.878282 -23.397978
v -4.322253 9.736480 -23.574787
v -4.315403 9.532020 -23.692060
v -4.311387 9.415768 -23.722355
v -4.307104 9.295568 -23.732458
v -4.298508 9.062328 -23.689688
v -4.274961 8.397828 -23.313509
v -4.318624 9.935828 -23.186565
v -4.298698 9.918826 -23.291544
v -4.279491 9.878981 -23.392385
v -4.261742 9.817832 -23.485201
v -4.246132 9.737720 -23.566431
v -4.233263 9.641734 -23.632957
v -4.223628 9.533554 -23.682217
v -4.217597 9.417342 -23.712320
v -4.215343 9.297199 -23.722504
v -4.216933 9.177573 -23.712250
v -4.222406 9.063690 -23.681231
v -4.231492 8.959524 -23.630907
v -4.243808 8.868821 -23.562944
v -4.254146 8.743035 -23.582703
v -4.265162 8.395226 -23.709265
v -4.298918 9.935515 -23.180653
v -4.260043 9.918212 -23.279945
v -4.223373 9.878090 -23.375544
v -4.190317 9.816697 -23.463766
v -4.162146 9.736387 -23.541231
v -4.139942 9.640251 -23.604950
v -4.124558 9.531981 -23.652487
v -4.116587 9.415738 -23.682005
v -4.116288 9.295713 -23.692692
v -4.123632 9.176225 -23.684155
v -4.138448 9.062544 -23.655930
v -4.160105 8.958641 -23.609348
v -4.187747 8.868314 -23.545938
v -4.211101 8.736530 -23.564257
v -4.245501 8.395178 -23.704746
v -4.280718 9.934520 -23.171005
v -4.224342 9.916257 -23.261015
v -4.171543 9.875251 -23.348061
v -4.124350 9.813086 -23.428791
v -4.084577 9.732140 -23.500103
v -4.053751 9.635533 -23.559256
v -4.033059 9.526970 -23.603971
v -4.023295 9.410629 -23.632545
v -4.024797 9.290757 -23.644140
v -4.037458 9.171620 -23.638435
v -4.060913 9.058529 -23.614716
v -4.094187 8.955364 -23.574257
v -4.135985 8.865930 -23.518284
v -4.147930 8.746449 -23.545984
v -4.197088 8.394128 -23.689617
v -4.264723 9.932877 -23.157986
v -4.192966 9.913036 -23.235491
v -4.125992 9.870574 -23.310999
v -4.066375 9.807132 -23.381620
v -4.016405 9.725140 -23.444633
v -3.999352 9.626999 -23.497549
v -3.972677 9.518004 -23.538477
v -3.961748 9.401485 -23.565762
v -3.944393 9.282560 -23.578676
v -3.961741 9.164049 -23.576733
v -3.992786 9.051830 -23.559160
v -4.036278 8.949862 -23.526964
v -4.090538 8.861959 -23.481033
v -4.081706 8.740460 -23.489090
v -4.153356 8.387714 -23.661842
v -4.251547 9.930651 -23.142107
v -4.167121 9.908671 -23.204338
v -4.088472 9.864240 -23.265781
v -4.018620 9.799068 -23.324062
v -3.960253 9.715657 -23.376953
v -3.936958 9.616463 -23.422352
v -3.906440 9.506819 -23.458647
v -3.894214 9.390082 -23.484369
v -3.878164 9.271424 -23.498831
v -3.899383 9.153754 -23.501463
v -3.936687 9.042717 -23.491392
v -3.988605 8.942352 -23.469278
v -4.053114 8.856450 -23.435625
v -4.073139 8.728065 -23.412735
v -4.110251 8.384688 -23.627798
v -4.241698 9.927929 -23.123972
v -4.147802 9.903332 -23.168768
v -4.060424 9.856486 -23.214136
v -3.982922 9.789204 -23.258339
v -3.940168 9.703281 -23.299593
v -3.890315 9.603572 -23.336472
v -3.856117 9.493163 -23.367481
v -3.842343 9.376178 -23.391417
v -3.846834 9.257154 -23.407587
v -3.887305 9.139894 -23.415447
v -3.894771 9.031534 -23.414013
v -3.952999 8.933129 -23.403423
v -4.025146 8.849641 -23.383801
v -4.059520 8.729791 -23.373959
v -4.030558 8.383037 -23.547567
v -4.235554 9.924815 -23.104282
v -4.135749 9.897223 -23.130140
v -4.042926 9.847617 -23.158060
v -3.960651 9.777914 -23.186962
v -3.913980 9.690008 -23.215672
v -3.861217 9.588822 -23.243219
v -3.841581 9.476929 -23.268431
v -3.830364 9.359524 -23.290415
v -3.830246 9.241050 -23.308546
v -3.848866 9.125767 -23.322170
v -3.899744 9.017601 -23.329958
v -3.930716 8.920316 -23.318129
v -4.007794 8.841812 -23.327560
v -4.062686 8.736672 -23.345568
v -4.022056 8.375011 -23.442253
v -4.233350 9.921429 -23.083790
v -4.131426 9.890579 -23.089943
v -4.036650 9.837973 -23.099701
v -3.952664 9.765637 -23.112688
v -3.904588 9.675571 -23.128330
v -3.850780 9.572783 -23.146172
v -3.823477 9.460148 -23.165428
v -3.824726 9.341962 -23.185356
v -3.830221 9.223691 -23.205467
v -3.846618 9.109714 -23.224998
v -3.898137 9.003357 -23.242502
v -3.942943 8.908328 -23.245785
v -4.001648 8.833139 -23.269098
v -4.055506 8.736598 -23.310616
v -4.063838 8.368577 -23.342113
v -4.235172 9.917899 -23.063284
v -4.134999 9.883654 -23.049715
v -4.041838 9.827920 -23.041304
v -3.959267 9.752845 -23.038361
v -3.912352 9.660528 -23.040928
v -3.859408 9.556067 -23.049059
v -3.832190 9.442418 -23.062334
v -3.829895 9.324016 -23.080257
v -3.835253 9.206143 -23.102362
v -3.855312 9.093234 -23.127810
v -3.901735 8.988791 -23.154968
v -3.955620 8.897607 -23.183025
v -4.007033 8.823820 -23.210688
v -4.053922 8.734129 -23.265230
v -4.148637 8.355566 -23.321213
v -4.240949 9.914362 -23.043547
v -4.146332 9.876718 -23.011013
v -4.058290 9.817848 -22.985107
v -3.980206 9.740026 -22.966841
v -3.936974 9.645454 -22.956835
v -3.886766 9.539318 -22.955614
v -3.860877 9.424651 -22.963139
v -3.851350 9.306176 -22.979141
v -3.862928 9.188459 -23.003157
v -3.879862 9.076797 -23.034323
v -3.920030 8.974221 -23.070814
v -3.973588 8.885224 -23.111446
v -4.018579 8.814257 -23.154552
v -4.086002 8.743150 -23.225468
v -4.178783 8.378818 -23.298767
v -4.250460 9.910954 -23.025351
v -4.164988 9.870032 -22.975309
v -4.085374 9.808145 -22.933283
v -4.014678 9.727675 -22.900881
v -3.977508 9.630933 -22.879272
v -3.931805 9.523181 -22.869432
v -3.908162 9.407538 -22.871645
v -3.892573 9.288977 -22.885883
v -3.893089 9.171970 -22.911692
v -3.927841 9.060581 -22.948017
v -3.968788 8.959696 -22.993193
v -3.995207 8.873708 -23.045486
v -4.026814 8.805391 -23.102827
v -4.128248 8.805692 -23.179895
v -4.199112 8.413201 -23.322281
v -4.263338 9.907806 -23.009384
v -4.190250 9.863858 -22.943993
v -4.122049 9.799181 -22.887817
v -4.061356 9.716266 -22.843008
v -4.032396 9.617517 -22.811224
v -3.992794 9.508275 -22.793818
v -3.945685 9.392679 -22.791470
v -3.946028 9.273287 -22.804077
v -3.947469 9.156404 -22.831369
v -3.983816 9.045973 -22.868761
v -4.020663 8.946515 -22.925106
v -4.031737 8.861452 -22.979565
v -4.053123 8.783171 -23.059622
v -4.154597 8.831256 -23.143736
v -4.212484 8.427917 -23.304974
v -4.279090 9.905040 -22.996262
v -4.221148 9.858431 -22.918257
v -4.166906 9.791302 -22.850452
v -4.118448 9.706237 -22.795454
v -4.077637 9.606500 -22.755371
v -4.046041 9.495929 -22.731754
v -4.024874 9.378769 -22.725508
v -4.014949 9.259523 -22.736866
v -4.038663 9.141995 -22.765326
v -4.066790 9.029778 -22.794821
v -4.083947 8.931737 -22.849947
v -4.088535 8.845952 -22.898994
v -4.119872 8.744468 -22.983473
v -4.184853 8.806957 -23.120998
v -4.228391 8.426291 -23.291527
v -4.297109 9.902760 -22.986492
v -4.256494 9.853958 -22.899088
v -4.218221 9.784809 -22.822626
v -4.183760 9.697974 -22.760035
v -4.154435 9.596783 -22.713728
v -4.131374 9.485132 -22.685484
v -4.115463 9.367308 -22.676384
v -4.149564 9.255441 -22.740473
v -4.248672 9.126305 -22.715803
v -4.220294 9.015150 -22.740259
v -4.198106 8.989277 -22.796528
v -4.210364 8.854707 -22.810448
v -4.180951 8.717715 -22.884502
v -4.219954 8.795193 -23.103027
v -4.246519 8.424835 -23.281649
v -4.316704 9.901055 -22.980446
v -4.294930 9.850615 -22.887232
v -4.274022 9.779954 -22.805407
v -4.254780 9.691796 -22.738127
v -4.237947 9.589518 -22.687967
v -4.224167 9.477060 -22.656857
v -4.213972 9.358737 -22.645992
v -4.285815 9.240253 -22.678722
v -4.262714 9.120520 -22.684465
v -4.220315 9.002836 -22.667500
v -4.225750 8.976026 -22.763214
v -4.225448 8.852049 -22.797668
v -4.236758 8.712911 -22.867323
v -4.258394 8.791883 -23.091213
v -4.266176 8.423656 -23.275669
v -4.326065 9.900383 -22.978397
v -4.323924 9.848920 -22.883175
v -4.321108 9.777315 -22.799505
v -4.317726 9.688330 -22.730595
v -4.313907 9.585374 -22.679108
v -4.309799 9.472410 -22.647007
v -4.305559 9.353778 -22.635534
v -4.301622 9.238962 -22.674337
v -4.297286 9.116915 -22.670273
v -4.293030 8.997119 -22.648420
v -4.292057 8.957634 -22.756899
v -4.288358 8.847878 -22.785713
v -4.283848 8.710300 -22.861446
v -4.287392 8.790224 -23.087185
v -4.275555 8.423164 -23.273718
v -4.328023 9.935837 -23.188551
v -4.327765 9.918466 -23.295406
v -4.324823 9.816834 -23.492308
v -4.319072 9.640310 -23.642231
v -4.302731 9.176080 -23.721594
v -4.294550 8.958378 -23.638123
v -4.290857 8.867875 -23.568670
v -4.283936 8.728137 -23.598827
v -4.274543 8.394853 -23.706520
v -4.317338 9.640259 -23.123743
v -4.328771 9.968313 -23.068291
v -3.985914 9.856745 -23.090309
v -3.858228 8.756336 -23.217030
v -3.949780 9.481792 -22.702738
v -4.060174 9.809924 -22.779261
v -3.907380 9.561856 -23.546310
v -3.951686 9.840977 -23.373627
v -4.321110 9.694695 -23.675457
v -4.327964 9.910950 -23.434589
v -4.308116 9.429113 -22.602497
v -4.321128 9.785885 -22.714859
v -4.282088 8.570659 -23.911942
v -3.827198 8.573958 -23.407232
v -4.330422 9.995819 -23.270632
v -4.005396 9.874291 -23.257103
v -4.122166 9.903057 -22.944439
v -3.820348 9.280641 -22.937250
v -4.324835 9.879523 -22.831514
v -4.315056 9.598959 -22.878939
v -3.824513 9.647101 -23.127180
v -3.911999 9.756465 -23.425318
v -3.989822 9.680047 -22.771603
v -4.315960 9.646075 -22.649969
v -4.325057 9.817598 -23.554127
v -3.860217 9.705098 -23.298006
v -3.893553 9.726267 -22.953655
v -3.956970 9.757294 -23.064213
v -3.947404 9.729501 -23.039011
v -4.165766 9.869842 -22.974344
v -4.254318 9.910011 -23.020567
v -4.154967 9.862242 -22.970020
v -4.185543 9.947074 -23.250599
v -4.182968 9.914271 -23.396557
v -4.068800 9.542519 -23.671211
v -4.155320 9.941133 -23.074493
v -4.088314 9.812364 -23.502300
v -4.214666 9.177536 -23.711571
v -4.217299 9.169820 -23.710182
v -4.135891 9.046227 -23.788912
v -3.814313 9.044269 -23.636452
v -4.303715 9.193472 -23.782656
v -3.817983 9.164482 -23.460457
v -3.787102 9.406326 -23.168150
v -3.862693 8.996908 -23.047640
v -4.308116 9.429113 -22.602497
v -3.946701 9.393453 -22.717669
v -4.315056 9.598959 -22.878939
v -3.860295 9.315408 -22.912022
v -3.874505 8.628343 -23.685354
v -3.873588 8.627288 -23.679964
v -3.845350 8.822118 -23.604233
v -4.039649 8.621042 -23.774149
v -3.787409 9.057046 -23.194645
v -4.156420 9.132858 -22.735552
v -4.174505 9.019516 -22.756535
v -4.337384 9.935164 -23.186502
v -4.356758 9.916768 -23.291351
v -4.373771 9.875642 -23.392069
v -4.387769 9.813369 -23.484779
v -4.398213 9.732333 -23.565924
v -4.404704 9.635661 -23.632385
v -4.406990 9.527061 -23.681602
v -4.404985 9.410705 -23.711693
v -4.398706 9.290709 -23.721909
v -4.388374 9.171511 -23.711735
v -4.374488 9.058320 -23.680813
v -4.357520 8.955084 -23.630617
v -4.338090 8.865515 -23.562820
v -4.315462 8.741140 -23.582800
v -4.283930 8.394952 -23.709286
v -4.356979 9.933459 -23.180458
v -4.395195 9.913425 -23.279493
v -4.429572 9.870788 -23.374855
v -4.458790 9.807189 -23.462870
v -4.481725 9.725068 -23.540163
v -4.497497 9.627588 -23.603754
v -4.505499 9.518490 -23.651213
v -4.505424 9.401965 -23.680706
v -4.497229 9.282226 -23.691448
v -4.481188 9.163583 -23.683077
v -4.458028 9.051258 -23.655046
v -4.428579 8.949183 -23.608728
v -4.393949 8.861084 -23.545658
v -4.358258 8.731931 -23.564507
v -4.303583 8.394337 -23.704815
v -4.374998 9.931179 -23.170689
v -4.430541 9.908954 -23.260326
v -4.480886 9.864294 -23.347027
v -4.524101 9.798927 -23.427454
v -4.558523 9.715353 -23.498518
v -4.582830 9.616794 -23.557487
v -4.596088 9.507030 -23.602089
v -4.597788 9.390282 -23.630625
v -4.587827 9.270823 -23.642298
v -4.566539 9.152914 -23.636843
v -4.534862 9.041792 -23.613403
v -4.493941 8.941279 -23.573330
v -4.445333 8.855084 -23.517874
v -4.422465 8.737654 -23.546444
v -4.351892 8.391837 -23.689816
v -4.390750 9.928413 -23.157566
v -4.461439 9.903527 -23.234592
v -4.525743 9.856415 -23.309662
v -4.581193 9.788898 -23.379898
v -4.625657 9.703561 -23.442596
v -4.636077 9.604446 -23.495420
v -4.655247 9.493830 -23.536196
v -4.658086 9.376822 -23.563435
v -4.667025 9.256975 -23.576307
v -4.641164 9.140024 -23.574684
v -4.602039 9.030314 -23.557472
v -4.551099 8.931723 -23.525770
v -4.490294 8.847942 -23.480499
v -4.488558 8.727287 -23.489771
v -4.395515 8.384202 -23.662149
v -4.403628 9.925264 -23.141600
v -4.486701 9.897352 -23.203270
v -4.562419 9.847452 -23.264196
v -4.627872 9.777490 -23.322025
v -4.680545 9.690145 -23.374546
v -4.697066 9.589540 -23.419809
v -4.719992 9.478005 -23.455927
v -4.724100 9.360688 -23.481594
v -4.731778 9.241200 -23.496033
v -4.702188 9.125366 -23.499037
v -4.656982 9.017279 -23.489393
v -4.597859 8.920886 -23.467863
v -4.527067 8.839866 -23.434992
v -4.496308 8.714545 -23.413435
v -4.438758 8.380245 -23.628170
v -4.413139 9.921858 -23.123400
v -4.505357 9.890667 -23.167572
v -4.589503 9.837748 -23.212368
v -4.662343 9.765138 -23.256067
v -4.699186 9.676396 -23.297056
v -4.742105 9.573401 -23.333624
v -4.768612 9.460844 -23.364429
v -4.774235 9.343172 -23.388302
v -4.761422 9.224771 -23.404589
v -4.712734 9.110707 -23.412960
v -4.697577 9.003181 -23.411777
v -4.632424 8.909187 -23.401834
v -4.554233 8.831203 -23.383072
v -4.510057 8.715452 -23.374651
v -4.519003 8.378178 -23.547956
v -4.418916 9.918322 -23.103670
v -4.516689 9.883730 -23.128866
v -4.605955 9.827677 -23.156178
v -4.683283 9.752319 -23.184547
v -4.723808 9.661325 -23.212965
v -4.769464 9.556654 -23.240185
v -4.781301 9.443645 -23.265289
v -4.784331 9.325735 -23.287226
v -4.776179 9.207557 -23.305447
v -4.749518 9.093920 -23.319454
v -4.691164 8.989655 -23.327770
v -4.653351 8.894848 -23.316414
v -4.570832 8.822193 -23.326756
v -4.507682 8.722301 -23.346197
v -4.527159 8.368492 -23.442720
v -4.420738 9.914790 -23.083162
v -4.520263 9.876807 -23.088644
v -4.611143 9.817625 -23.097782
v -4.689886 9.739526 -23.110224
v -4.731573 9.646280 -23.125566
v -4.778090 9.539939 -23.143072
v -4.797485 9.425651 -23.162172
v -4.788011 9.307843 -23.182137
v -4.774302 9.190265 -23.202372
v -4.750038 9.077765 -23.222248
v -4.691277 8.975345 -23.240297
v -4.639964 8.883760 -23.244116
v -4.576150 8.813119 -23.268190
v -4.515602 8.721171 -23.311123
v -4.485260 8.362658 -23.342550
v -4.418534 9.911405 -23.062670
v -4.515940 9.870162 -23.048441
v -4.604867 9.807980 -23.039421
v -4.681898 9.727250 -23.035946
v -4.722180 9.631845 -23.038221
v -4.767654 9.523899 -23.046022
v -4.786851 9.408607 -23.059143
v -4.780883 9.290334 -23.077078
v -4.767365 9.173139 -23.099300
v -4.739604 9.061958 -23.125101
v -4.686150 8.961076 -23.152721
v -4.626211 8.873947 -23.181297
v -4.570067 8.804031 -23.209650
v -4.517622 8.718017 -23.265408
v -4.400310 8.352221 -23.321527
v -4.412390 9.908289 -23.042974
v -4.503887 9.864053 -23.009817
v -4.587368 9.799109 -22.983339
v -4.659627 9.715961 -22.964569
v -4.695992 9.618572 -22.954298
v -4.738556 9.509150 -22.952768
v -4.756318 9.392937 -22.960146
v -4.757545 9.274081 -22.976112
v -4.737857 9.157479 -23.000280
v -4.713376 9.047315 -23.031757
v -4.666369 8.947845 -23.068644
v -4.607006 8.862866 -23.109755
v -4.557566 8.795284 -23.153408
v -4.485972 8.729168 -23.225153
v -4.370863 8.376307 -23.299000
v -4.402540 9.905567 -23.024843
v -4.484567 9.858713 -22.974241
v -4.559320 9.791358 -22.931700
v -4.623929 9.706097 -22.898844
v -4.654016 9.606971 -22.877010
v -4.691914 9.496259 -22.866892
v -4.707331 9.379233 -22.868973
v -4.714587 9.259863 -22.883137
v -4.705999 9.143184 -22.909012
v -4.663805 9.034542 -22.945713
v -4.616251 8.936813 -22.991302
v -4.584268 8.852913 -23.043901
v -4.548413 8.787013 -23.101616
v -4.447831 8.794470 -23.179369
v -4.351238 8.410201 -23.322531
v -4.389365 9.903343 -23.008965
v -4.458723 9.854349 -22.943094
v -4.521800 9.785023 -22.886480
v -4.576174 9.698031 -22.841288
v -4.597862 9.597488 -22.809334
v -4.629520 9.485723 -22.791689
v -4.668316 9.367085 -22.789053
v -4.659611 9.248012 -22.801693
v -4.650100 9.131519 -22.829033
v -4.606411 9.023941 -22.866787
v -4.563148 8.927339 -22.923502
v -4.546557 8.843272 -22.978142
v -4.520358 8.766700 -23.058496
v -4.423072 8.821811 -23.143194
v -4.338541 8.425026 -23.305204
v -4.373370 9.901699 -22.995945
v -4.427347 9.851128 -22.917568
v -4.476250 9.780346 -22.849419
v -4.518200 9.692079 -22.794117
v -4.551584 9.589713 -22.753786
v -4.575120 9.477189 -22.729984
v -4.587903 9.358828 -22.723627
v -4.589442 9.239175 -22.734947
v -4.557662 9.123614 -22.763590
v -4.521993 9.013667 -22.793358
v -4.498505 8.917080 -22.848705
v -4.488288 8.831829 -22.897854
v -4.450593 8.732801 -22.982635
v -4.391054 8.799698 -23.120564
v -4.322688 8.423852 -23.291735
v -4.355170 9.900702 -22.986298
v -4.391646 9.849173 -22.898636
v -4.424419 9.777506 -22.821936
v -4.452232 9.688466 -22.759138
v -4.474014 9.585464 -22.712660
v -4.488929 9.472469 -22.684290
v -4.496404 9.353816 -22.675112
v -4.454902 9.244626 -22.739452
v -4.346745 9.122832 -22.715475
v -4.367465 9.009939 -22.739782
v -4.388224 8.982549 -22.795931
v -4.366788 8.849177 -22.809988
v -4.387151 8.710437 -22.883951
v -4.355106 8.790435 -23.102732
v -4.304588 8.423235 -23.281788
v -4.335464 9.900390 -22.980383
v -4.352991 9.848559 -22.887037
v -4.368301 9.776615 -22.805092
v -4.380807 9.687331 -22.737705
v -4.390028 9.584131 -22.687460
v -4.395608 9.470988 -22.656282
v -4.397335 9.352243 -22.645380
v -4.317509 9.239132 -22.678617
v -4.332119 9.118061 -22.684235
v -4.366086 8.997675 -22.667027
v -4.359504 8.971294 -22.762793
v -4.351475 8.847593 -22.797298
v -4.331038 8.709581 -22.867069
v -4.316455 8.789840 -23.091085
v -4.284938 8.423123 -23.275717
v -4.663015 9.832761 -23.088045
v -4.713373 8.726048 -23.214170
v -4.669944 9.456285 -22.700331
v -4.583554 9.791388 -22.777512
v -4.723534 9.532949 -23.543583
v -4.697933 9.814547 -23.371132
v -4.732692 8.541886 -23.404205
v -4.645938 9.851605 -23.254961
v -4.529410 9.888634 -22.943077
v -4.786383 9.246426 -22.934021
v -4.809423 9.612218 -23.123888
v -4.731886 9.727426 -23.422579
v -4.644488 9.656859 -22.769415
v -4.779053 9.672555 -23.294935
v -4.745000 9.696111 -22.950809
v -4.684676 9.731520 -23.061781
v -4.692084 9.703125 -23.036522
v -4.483770 9.858579 -22.973282
v -4.398592 9.904902 -23.020084
v -4.493976 9.850236 -22.968887
v -4.471352 9.936952 -23.249643
v -4.472574 9.904013 -23.395590
v -4.560385 9.525464 -23.669601
v -4.499903 9.928927 -23.073341
v -4.560485 9.795640 -23.500721
v -4.390628 9.171314 -23.711042
v -4.387427 9.163804 -23.709677
v -4.460739 9.034720 -23.787827
v -4.780348 9.010052 -23.633223
v -4.784018 9.130267 -23.457228
v -4.829978 9.369389 -23.164663
v -4.724809 8.966373 -23.044758
v -4.666865 9.367945 -22.715261
v -4.748828 9.283937 -22.909052
v -4.691209 8.599416 -23.682625
v -4.692013 8.598301 -23.677227
v -4.733458 8.790664 -23.601265
v -4.526559 8.603796 -23.772522
v -4.805138 9.021000 -23.191242
v -4.439359 9.122837 -22.734606
v -4.413560 9.011054 -22.755762
vn 0.6607 -0.4217 0.6209
vn 0.6030 0.0704 0.7946
vn 0.2624 -0.8011 0.5379
vn 0.0280 -0.8706 0.4911
vn 0.0106 -0.6660 -0.7459
vn -0.0036 0.2693 -0.9630
vn 0.2876 0.2155 -0.9332
vn 0.2628 -0.5084 -0.8200
vn -0.0092 0.1681 -0.9857
vn -0.0150 0.3351 -0.9421
vn 0.1860 0.3385 -0.9224
vn 0.1949 0.1716 -0.9657
vn -0.0356 0.9972 -0.0655
vn -0.0343 0.9854 0.1666
vn 0.0165 0.9986 -0.0511
vn 0.0155 -0.9282 0.3719
vn -0.0031 -0.0028 -1.0000
vn 0.1986 0.0010 -0.9801
vn -0.0350 0.9620 -0.2708
vn 0.0578 0.9638 -0.2602
vn 0.0034 -0.1792 -0.9838
vn 0.1961 -0.1738 -0.9650
vn -0.0329 0.8860 -0.4625
vn 0.0938 0.8882 -0.4498
vn 0.0100 -0.3560 -0.9344
vn 0.1930 -0.2660 -0.9445
vn 0.1883 -0.3522 -0.9168
vn -0.0296 0.7776 -0.6281
vn 0.1253 0.7801 -0.6130
vn 0.0166 -0.5255 -0.8506
vn 0.1744 -0.5222 -0.8348
vn -0.0254 0.6452 -0.7636
vn 0.1513 0.6480 -0.7465
vn 0.0077 -0.2550 -0.9669
vn 0.2466 -0.2644 -0.9323
vn -0.0205 0.4959 -0.8681
vn 0.1715 0.4990 -0.8494
vn 0.3445 -0.2788 -0.8964
vn 0.3215 0.2289 -0.9188
vn 0.3443 0.4958 -0.7973
vn 0.3676 0.3353 -0.8675
vn 0.2584 -0.5715 -0.7789
vn 0.3800 -0.0021 -0.9250
vn 0.3693 -0.1777 -0.9122
vn 0.2813 -0.1751 -0.9435
vn 0.0523 0.9977 -0.0442
vn 0.3793 0.1683 -0.9098
vn 0.1312 0.9623 -0.2384
vn 0.2020 0.8860 -0.4174
vn 0.3463 -0.3545 -0.8685
vn 0.2617 0.7773 -0.5721
vn 0.3113 -0.5243 -0.7926
vn 0.3091 0.6449 -0.6990
vn 0.2063 0.9579 -0.1996
vn 0.3081 0.8796 -0.3624
vn 0.5333 -0.1864 -0.8251
vn 0.4971 -0.3622 -0.7885
vn 0.3931 0.7693 -0.5036
vn 0.4431 -0.5310 -0.7223
vn 0.4808 0.6232 -0.6168
vn 0.5022 -0.2819 -0.8175
vn 0.5579 0.4705 -0.6837
vn 0.4854 0.1957 -0.8521
vn 0.5984 0.3209 -0.7341
vn 0.3093 -0.5572 -0.7706
vn 0.5960 0.1689 -0.7850
vn 0.0928 0.9954 -0.0246
vn 0.5669 0.0020 -0.8238
vn 0.7001 0.4259 -0.5731
vn 0.7393 0.3031 -0.6013
vn 0.8206 0.0824 -0.5655
vn 0.5155 -0.6770 -0.5253
vn 0.7383 0.1822 -0.6494
vn 0.1287 0.9917 0.0026
vn 0.7189 0.0206 -0.6948
vn 0.2722 0.9509 -0.1474
vn 0.6765 -0.2007 -0.7086
vn 0.4010 0.8695 -0.2885
vn 0.6286 -0.3750 -0.6813
vn 0.5080 0.7566 -0.4117
vn 0.5580 -0.5423 -0.6281
vn 0.6266 0.5773 -0.5236
vn 0.7006 -0.3340 -0.6305
vn 0.8494 -0.2189 -0.4801
vn 0.7723 -0.3674 -0.5182
vn 0.4773 0.8560 -0.1986
vn 0.6285 0.7238 -0.2847
vn 0.6514 -0.5577 -0.5144
vn 0.7603 0.5350 -0.3683
vn 0.7834 -0.4194 -0.4587
vn 0.7928 0.4051 -0.4554
vn 0.8764 0.0520 -0.4787
vn 0.8094 0.2928 -0.5091
vn 0.6447 -0.6630 -0.3805
vn 0.8336 0.1727 -0.5247
vn 0.1585 0.9867 0.0361
vn 0.8698 -0.0198 -0.4929
vn 0.3263 0.9415 -0.0839
vn 0.9613 -0.0505 -0.2709
vn 0.7544 -0.5470 -0.3630
vn 0.9258 0.2431 -0.2895
vn 0.9539 0.1062 -0.2807
vn 0.1808 0.9807 0.0748
vn 0.9563 -0.0861 -0.2794
vn 0.3667 0.9303 -0.0115
vn 0.9329 -0.2233 -0.2825
vn 0.5341 0.8399 -0.0962
vn 0.8902 -0.3415 -0.3015
vn 0.7232 0.6694 -0.1697
vn 0.7563 -0.5581 -0.3414
vn 0.8332 0.5086 -0.2170
vn 0.7997 -0.4963 -0.3380
vn 0.8804 0.3939 -0.2641
vn 0.9202 -0.3724 -0.1209
vn 0.8431 -0.5240 -0.1209
vn 0.7715 0.6337 -0.0565
vn 0.8674 0.4869 -0.1026
vn 0.8226 -0.5398 -0.1786
vn 0.9230 0.3654 -0.1207
vn 0.9809 -0.1937 -0.0195
vn 0.9776 0.1715 -0.1223
vn 0.7403 -0.6721 0.0132
vn 0.9944 0.0431 -0.0966
vn 0.1948 0.9738 0.1170
vn 0.9873 -0.0934 -0.1287
vn 0.3919 0.9176 0.0671
vn 0.9531 -0.2559 -0.1616
vn 0.5694 0.8219 0.0147
vn 0.1998 0.9665 0.1612
vn 0.6391 -0.6969 0.3252
vn 1.0000 -0.0041 -0.0071
vn 0.9954 -0.0958 0.0034
vn 0.4009 0.9040 0.1488
vn 0.9568 -0.2896 -0.0237
vn 0.5821 0.8027 0.1300
vn 0.9082 -0.4180 -0.0205
vn 0.7890 0.6070 0.0950
vn 0.8484 -0.5293 -0.0069
vn 0.8869 0.4568 0.0688
vn 0.8354 -0.5469 -0.0544
vn 0.9404 0.3377 0.0387
vn 0.9299 -0.3012 0.2112
vn 0.9923 0.1239 -0.0045
vn 0.7832 0.5974 0.1724
vn 0.8681 0.4345 0.2401
vn 0.8706 0.4290 0.2409
vn 0.8346 -0.5480 0.0569
vn 0.7887 -0.6051 0.1092
vn 0.9217 0.3139 0.2279
vn 0.7743 -0.4372 0.4574
vn 0.9771 0.1034 0.1858
vn 0.4054 -0.8993 -0.1642
vn 0.9888 -0.0397 0.1436
vn 0.1956 0.9589 0.2054
vn 0.9820 -0.1363 0.1306
vn 0.3934 0.8900 0.2306
vn 0.9469 -0.3057 0.0995
vn 0.5716 0.7830 0.2454
vn 0.8842 -0.4628 0.0631
vn 0.7744 0.5824 0.2473
vn 0.9489 -0.0450 0.3124
vn 0.9409 -0.1897 0.2805
vn 0.1825 0.9515 0.2478
vn 0.3697 0.8761 0.3094
vn 0.8946 -0.3536 0.2731
vn 0.5383 0.7635 0.3568
vn 0.8400 -0.4892 0.2346
vn 0.7282 0.5611 0.3936
vn 0.8235 -0.5470 0.1502
vn 0.8191 0.4046 0.4067
vn 0.5775 -0.7668 0.2802
vn 0.8700 0.2863 0.4014
vn 0.3221 -0.5660 0.7589
vn 0.9235 0.1018 0.3699
vn 0.1131 -0.4493 0.8862
vn 0.8041 -0.5193 0.2894
vn 0.4811 -0.8539 0.1983
vn 0.7346 0.3845 0.5590
vn 0.7927 0.2851 0.5388
vn 0.1915 -0.7871 0.5863
vn 0.8624 0.1140 0.4932
vn 0.1186 -0.1142 0.9864
vn 0.8900 -0.0524 0.4530
vn 0.1608 0.9444 0.2867
vn 0.8736 -0.2413 0.4226
vn 0.3306 0.8629 0.3823
vn 0.8065 -0.4263 0.4097
vn 0.4069 0.8101 0.4221
vn 0.4834 0.7449 0.4597
vn 0.7804 -0.4862 0.3932
vn 0.6525 0.5438 0.5278
vn 0.1431 0.9427 0.3013
vn 0.3027 0.8587 0.4136
vn 0.7378 -0.2928 0.6082
vn 0.7054 -0.4510 0.5469
vn 0.2777 0.8507 0.4463
vn 0.4088 0.7279 0.5504
vn 0.7415 -0.4578 0.4905
vn 0.5595 0.5422 0.6269
vn 0.7697 -0.4898 0.4095
vn 0.6592 0.3880 0.6442
vn 0.4580 -0.8886 0.0260
vn 0.7100 0.2901 0.6416
vn 0.3125 -0.9413 0.1277
vn 0.7680 0.1034 0.6320
vn 0.5079 -0.5340 0.6759
vn 0.7657 -0.1063 0.6343
vn 0.1317 0.9380 0.3206
vn 0.5277 0.3941 0.7525
vn 0.5639 0.2494 0.7873
vn 0.4157 -0.9090 0.0295
vn 0.4333 -0.8845 0.1731
vn 0.5214 -0.0077 0.8533
vn 0.5089 -0.6449 0.5701
vn 0.4453 -0.1922 0.8745
vn 0.0963 0.9325 0.3480
vn 0.4303 -0.2602 0.8644
vn 0.2128 0.8400 0.4990
vn 0.4484 -0.4488 0.7729
vn 0.3173 0.7130 0.6253
vn 0.5402 -0.4176 0.7306
vn 0.4280 0.5540 0.7141
vn 0.6808 -0.4194 0.6005
vn 0.2245 -0.1331 0.9653
vn 0.2874 -0.5720 0.7683
vn 0.1384 0.8312 0.5384
vn 0.2122 0.7006 0.6812
vn 0.5324 -0.5014 0.6820
vn 0.2744 0.5474 0.7906
vn 0.5614 -0.3134 0.7659
vn 0.3237 0.3808 0.8661
vn 0.4026 -0.8506 0.3382
vn 0.3602 0.2079 0.9094
vn 0.2401 -0.9228 0.3012
vn 0.3399 -0.1459 0.9291
vn 0.3524 -0.6479 0.6753
vn 0.2591 -0.2625 0.9295
vn 0.0562 0.9281 0.3681
vn 0.1900 -0.9075 0.3745
vn 0.1423 -0.9328 0.3310
vn 0.1884 0.1933 0.9629
vn 0.2555 -0.1769 0.9505
vn 0.2137 -0.6549 0.7249
vn 0.3359 -0.2161 0.9168
vn 0.0205 0.9266 0.3755
vn 0.3025 -0.1189 0.9457
vn 0.0655 0.8253 0.5609
vn 0.8164 -0.2360 0.5270
vn 0.9292 0.2289 0.2901
vn 0.6915 0.1974 0.6949
vn 0.7088 -0.3239 0.6266
vn 0.1046 0.6917 0.7145
vn 0.6861 -0.4592 0.5643
vn 0.1388 0.5362 0.8326
vn 0.3934 -0.3292 0.8584
vn 0.1668 0.3677 0.9149
vn 0.0196 -0.4745 0.8800
vn 0.0259 -0.6678 0.7439
vn -0.0218 0.6852 0.7281
vn -0.0159 0.5284 0.8488
vn 0.0157 -0.3678 0.9298
vn -0.0096 0.3589 0.9333
vn 0.0335 -0.9167 0.3982
vn -0.0032 0.1837 0.9830
vn 0.0330 -0.9464 0.3213
vn 0.0077 -0.1236 0.9923
vn 0.0201 -0.6566 0.7539
vn 0.0091 -0.1644 0.9863
vn -0.0313 0.9204 0.3896
vn -0.0010 0.1211 0.9926
vn -0.0271 0.8198 0.5720
vn -0.0199 0.4723 -0.8812
vn 0.3500 0.3306 -0.8765
vn 0.3576 0.1509 -0.9216
vn -0.0270 0.6911 -0.7222
vn -0.0321 0.8586 -0.5116
vn 0.2520 0.8708 -0.4221
vn 0.3399 0.6568 -0.6731
vn 0.8334 0.4783 0.2770
vn 0.3395 0.8736 0.3487
vn 0.4198 0.6450 0.6385
vn 0.6198 0.3985 0.6761
vn 0.5973 0.7661 -0.2374
vn 0.2957 0.9498 -0.1020
vn 0.5596 0.8276 -0.0441
vn 0.9094 0.4000 -0.1140
vn 0.6107 0.7837 0.1135
vn 0.9419 0.3329 0.0456
vn -0.0296 0.8803 0.4735
vn -0.0181 0.5869 0.8095
vn 0.0193 -0.6186 -0.7855
vn -0.2009 -0.7113 -0.6735
vn 0.2269 -0.4865 -0.8437
vn 0.2791 -0.9597 0.0330
vn 0.4112 -0.7905 0.4539
vn 0.3119 -0.7148 0.6259
vn 0.0273 -0.7053 0.7084
vn -0.0075 0.3029 0.9530
vn 0.3225 0.9402 0.1094
vn 0.7404 0.5296 -0.4138
vn -0.0342 0.9821 0.1855
vn 0.2426 -0.6145 0.7507
vn 0.0312 -0.8268 0.5616
vn 0.9747 -0.0897 0.2046
vn 0.7272 0.3132 -0.6108
vn 0.8532 0.0053 -0.5215
vn 0.0015 0.0509 0.9987
vn 0.9989 0.0275 -0.0389
vn 0.9968 0.0728 0.0338
vn -0.0355 0.9871 -0.1561
vn 0.7435 -0.0332 -0.6679
vn -0.0106 0.2072 -0.9782
vn 0.0356 -0.9945 0.0981
vn 0.0298 -0.7835 0.6207
vn -0.6251 -0.4673 0.6252
vn 0.0370 -0.8703 0.4911
vn -0.2014 -0.8176 0.5395
vn -0.6011 0.0278 0.7987
vn -0.2473 -0.5199 -0.8176
vn -0.2962 0.1944 -0.9351
vn -0.2130 0.1571 -0.9643
vn -0.2156 0.3243 -0.9211
vn -0.0874 0.9949 -0.0507
vn -0.2045 -0.0133 -0.9788
vn -0.1276 0.9573 -0.2596
vn -0.1892 -0.1875 -0.9639
vn -0.1594 0.8792 -0.4490
vn -0.1680 -0.3648 -0.9158
vn -0.1792 -0.2791 -0.9434
vn -0.1843 0.7691 -0.6120
vn -0.1409 -0.5333 -0.8341
vn -0.2018 0.6355 -0.7453
vn -0.2280 -0.2842 -0.9313
vn -0.2121 0.4855 -0.8481
vn -0.3310 0.2068 -0.9207
vn -0.3245 -0.3039 -0.8958
vn -0.3961 0.3083 -0.8649
vn -0.3838 0.4700 -0.7948
vn -0.2441 -0.5820 -0.7757
vn -0.2740 -0.1947 -0.9418
vn -0.3613 -0.2035 -0.9100
vn -0.3849 -0.0291 -0.9225
vn -0.1231 0.9914 -0.0436
vn -0.3963 0.1408 -0.9072
vn -0.2005 0.9505 -0.2373
vn -0.2670 0.8694 -0.4159
vn -0.3252 -0.3782 -0.8667
vn -0.3198 0.7567 -0.5702
vn -0.2772 -0.5449 -0.7913
vn -0.3586 0.6212 -0.6967
vn -0.3720 0.8555 -0.3602
vn -0.2749 0.9409 -0.1980
vn -0.4746 -0.3964 -0.7859
vn -0.5238 -0.2237 -0.8219
vn -0.4499 0.7395 -0.5008
vn -0.4080 -0.5608 -0.7204
vn -0.5278 0.5874 -0.6135
vn -0.4822 -0.3182 -0.8163
vn -0.5943 0.4297 -0.6798
vn -0.4917 0.1637 -0.8552
vn -0.6245 0.2776 -0.7300
vn -0.2902 -0.5702 -0.7686
vn -0.6116 0.1262 -0.7810
vn -0.1632 0.9863 -0.0237
vn -0.5710 -0.0383 -0.8201
vn -0.7629 0.2499 -0.5963
vn -0.7323 0.3751 -0.5683
vn -0.4892 -0.6984 -0.5224
vn -0.8217 0.0261 -0.5693
vn -0.7536 0.1294 -0.6444
vn -0.1985 0.9801 0.0036
vn -0.7230 -0.0305 -0.6901
vn -0.3397 0.9292 -0.1454
vn -0.6649 -0.2481 -0.7045
vn -0.4634 0.8388 -0.2856
vn -0.6044 -0.4184 -0.6780
vn -0.5630 0.7187 -0.4081
vn -0.5215 -0.5801 -0.6257
vn -0.6693 0.5314 -0.5192
vn -0.6756 -0.3866 -0.6278
vn -0.7473 -0.4210 -0.5140
vn -0.8347 -0.2785 -0.4751
vn -0.6801 0.6774 -0.2804
vn -0.5380 0.8201 -0.1952
vn -0.6131 -0.6023 -0.5113
vn -0.7987 0.4798 -0.3631
vn -0.7505 -0.4784 -0.4559
vn -0.8225 0.3479 -0.4500
vn -0.8755 -0.0044 -0.4831
vn -0.8314 0.2347 -0.5036
vn -0.6218 -0.6898 -0.3710
vn -0.8472 0.1132 -0.5191
vn -0.2276 0.9730 0.0374
vn -0.8695 -0.0815 -0.4872
vn -0.3927 0.9161 -0.0815
vn -0.7373 -0.5669 -0.3673
vn -0.9549 -0.1148 -0.2739
vn -0.9609 0.0384 -0.2743
vn -0.9426 0.1769 -0.2833
vn -0.2492 0.9654 0.0762
vn -0.9496 -0.1537 -0.2733
vn -0.4317 0.9020 -0.0088
vn -0.9165 -0.2888 -0.2768
vn -0.5928 0.8000 -0.0925
vn -0.8656 -0.4035 -0.2966
vn -0.7699 0.6165 -0.1647
vn -0.7165 -0.6104 -0.3377
vn -0.8685 0.4483 -0.2113
vn -0.7606 -0.5561 -0.3350
vn -0.9078 0.3305 -0.2581
vn -0.8042 -0.5827 -0.1169
vn -0.8923 -0.4363 -0.1159
vn -0.9003 0.4243 -0.0967
vn -0.8148 0.5775 -0.0512
vn -0.7799 -0.5997 -0.1795
vn -0.9473 0.2991 -0.1145
vn -0.9651 -0.2606 -0.0253
vn -0.9880 0.1019 -0.1157
vn -0.7096 -0.7046 0.0013
vn -0.9956 -0.0274 -0.0899
vn -0.2625 0.9576 0.1186
vn -0.9790 -0.1630 -0.1223
vn -0.4553 0.8876 0.0699
vn -0.9336 -0.3227 -0.1560
vn -0.6260 0.7796 0.0187
vn -0.2666 0.9500 0.1627
vn -0.6107 -0.7276 0.3125
vn -0.9861 -0.1659 0.0098
vn -0.9972 -0.0748 -0.0004
vn -0.4628 0.8734 0.1517
vn -0.9342 -0.3564 -0.0179
vn -0.6365 0.7595 0.1341
vn -0.8766 -0.4809 -0.0155
vn -0.8293 0.5497 0.1005
vn -0.8089 -0.5879 -0.0033
vn -0.9165 0.3929 0.0748
vn -0.7947 -0.6044 -0.0568
vn -0.9617 0.2704 0.0451
vn -0.9104 -0.3619 0.2005
vn -0.9986 0.0534 0.0022
vn -0.8971 0.3664 0.2468
vn -0.8950 0.3720 0.2460
vn -0.8224 0.5405 0.1778
vn -0.7443 -0.6587 0.1098
vn -0.7938 -0.6051 0.0608
vn -0.9401 0.2480 0.2341
vn -0.7464 -0.4884 0.4520
vn -0.9807 0.0341 0.1923
vn -0.3634 -0.9166 -0.1665
vn -0.9826 -0.1094 0.1502
vn -0.2616 0.9427 0.2069
vn -0.9691 -0.2053 0.1370
vn -0.4538 0.8600 0.2334
vn -0.9224 -0.3715 0.1053
vn -0.6239 0.7406 0.2494
vn -0.8491 -0.5238 0.0682
vn -0.8120 0.5263 0.2526
vn -0.9233 -0.2555 0.2866
vn -0.9412 -0.1119 0.3187
vn -0.4287 0.8479 0.3120
vn -0.2476 0.9362 0.2493
vn -0.8658 -0.4156 0.2787
vn -0.5886 0.7236 0.3605
vn -0.8021 -0.5470 0.2395
vn -0.7634 0.5083 0.3986
vn -0.7825 -0.6031 0.1548
vn -0.8429 0.3457 0.4122
vn -0.5207 -0.8058 0.2819
vn -0.8854 0.2241 0.4072
vn -0.2833 -0.5892 0.7567
vn -0.9259 0.0363 0.3760
vn -0.0923 -0.4591 0.8836
vn -0.4190 -0.8857 0.2001
vn -0.7641 -0.5742 0.2941
vn -0.8073 0.2284 0.5442
vn -0.7562 0.3317 0.5640
vn -0.1353 -0.7998 0.5849
vn -0.8650 0.0528 0.4990
vn -0.1153 -0.1175 0.9864
vn -0.8810 -0.1151 0.4589
vn -0.2253 0.9307 0.2880
vn -0.8516 -0.3022 0.4283
vn -0.3883 0.8374 0.3846
vn -0.7719 -0.4819 0.4147
vn -0.5318 0.7090 0.4631
vn -0.4604 0.7794 0.4250
vn -0.7419 -0.5397 0.3978
vn -0.6858 0.4964 0.5323
vn -0.3600 0.8352 0.4157
vn -0.2075 0.9303 0.3025
vn -0.6683 -0.4993 0.5514
vn -0.7112 -0.3440 0.6131
vn -0.4556 0.6973 0.5533
vn -0.3342 0.8290 0.4483
vn -0.7044 -0.5086 0.4951
vn -0.5922 0.5014 0.6307
vn -0.7310 -0.5423 0.4141
vn -0.6806 0.3405 0.6487
vn -0.3943 -0.9185 0.0285
vn -0.7245 0.2393 0.6464
vn -0.2473 -0.9606 0.1272
vn -0.7692 0.0490 0.6371
vn -0.4789 -0.5674 0.6698
vn -0.7520 -0.1601 0.6394
vn -0.1956 0.9264 0.3217
vn -0.5748 0.2091 0.7911
vn -0.5492 0.3560 0.7561
vn -0.3727 -0.9119 0.1720
vn -0.3505 -0.9360 0.0320
vn -0.5138 -0.0443 0.8567
vn -0.4751 -0.6764 0.5628
vn -0.4247 -0.2230 0.8774
vn -0.1597 0.9235 0.3489
vn -0.4050 -0.2897 0.8672
vn -0.2684 0.8230 0.5006
vn -0.4105 -0.4793 0.7757
vn -0.3628 0.6889 0.6276
vn -0.5051 -0.4543 0.7338
vn -0.4613 0.5225 0.7170
vn -0.6462 -0.4658 0.6046
vn -0.2412 -0.5906 0.7701
vn -0.2082 -0.1484 0.9668
vn -0.2567 0.6840 0.6828
vn -0.1933 0.8195 0.5395
vn -0.4915 -0.5372 0.6855
vn -0.3071 0.5268 0.7925
vn -0.5333 -0.3515 0.7694
vn -0.3441 0.3572 0.8684
vn -0.3398 -0.8767 0.3404
vn -0.3679 0.1821 0.9118
vn -0.1766 -0.9372 0.3007
vn -0.3225 -0.1694 0.9313
vn -0.3158 -0.6685 0.6733
vn -0.2336 -0.2799 0.9312
vn -0.1192 0.9219 0.3686
vn -0.0776 -0.9404 0.3310
vn -0.1235 -0.9185 0.3755
vn -0.2360 -0.1943 0.9521
vn -0.1952 0.1797 0.9642
vn -0.1749 -0.6666 0.7246
vn -0.3137 -0.2391 0.9189
vn -0.0835 0.9229 0.3759
vn -0.2871 -0.1398 0.9477
vn -0.1199 0.8187 0.5615
vn -0.7944 -0.2918 0.5327
vn -0.6801 -0.3728 0.6313
vn -0.6990 0.1484 0.6996
vn -0.9410 0.1632 0.2964
vn -0.1485 0.6828 0.7154
vn -0.6487 -0.5053 0.5691
vn -0.1708 0.5252 0.8337
vn -0.3643 -0.3556 0.8607
vn -0.1863 0.3552 0.9160
vn -0.3734 0.1251 -0.9192
vn -0.3776 0.3050 -0.8743
vn -0.3900 0.6306 -0.6710
vn -0.3157 0.8507 -0.4202
vn -0.8633 0.4182 0.2827
vn -0.6419 0.3538 0.6803
vn -0.4601 0.6139 0.6415
vn -0.3981 0.8475 0.3512
vn -0.6516 0.7218 -0.2333
vn -0.6171 0.7859 -0.0402
vn -0.3628 0.9265 -0.0998
vn -0.9362 0.3346 -0.1078
vn -0.9627 0.2654 0.0520
vn -0.6638 0.7386 0.1178
vn -0.2564 -0.7349 0.6278
vn -0.3512 -0.8175 0.4564
vn -0.2102 -0.9771 0.0347
vn -0.1975 -0.5016 -0.8423
vn 0.2463 -0.6955 -0.6750
vn -0.3875 0.9151 0.1118
vn -0.7786 0.4758 -0.4092
vn -0.1935 -0.6300 0.7521
vn -0.9646 -0.1583 0.2111
vn -0.7511 0.2607 -0.6066
vn -0.8548 -0.0550 -0.5161
vn -0.9992 0.0021 0.0405
vn -0.9985 -0.0432 -0.0322
vn -0.7437 -0.0859 -0.6630
vt 0.376880 0.888890
vt 0.380375 0.896066
vt 0.378497 0.895715
vt 0.376861 0.890219
vt 0.873790 0.671159
vt 0.873790 0.690630
vt 0.864055 0.690630
vt 0.864055 0.671159
vt 0.828036 0.859913
vt 0.828036 0.868027
vt 0.823979 0.868027
vt 0.823979 0.859913
vt 0.820620 0.853974
vt 0.819651 0.857850
vt 0.818682 0.853974
vt 0.868923 0.651688
vt 0.828036 0.851800
vt 0.823979 0.851800
vt 0.820620 0.850098
vt 0.818682 0.850098
vt 0.828036 0.843686
vt 0.823979 0.843686
vt 0.820620 0.846222
vt 0.818682 0.846222
vt 0.874576 0.720795
vt 0.874576 0.741197
vt 0.864376 0.741197
vt 0.864376 0.739813
vt 0.864376 0.720795
vt 0.820620 0.842346
vt 0.818682 0.842346
vt 0.874576 0.700393
vt 0.864376 0.700394
vt 0.820620 0.838470
vt 0.818682 0.838470
vt 0.874576 0.679992
vt 0.864376 0.679992
vt 0.820620 0.834593
vt 0.818682 0.834593
vt 0.873790 0.710101
vt 0.864055 0.710101
vt 0.828036 0.876140
vt 0.823979 0.876140
vt 0.854319 0.710101
vt 0.854319 0.690630
vt 0.819922 0.876140
vt 0.819922 0.868027
vt 0.854319 0.671159
vt 0.819922 0.851800
vt 0.819922 0.843686
vt 0.823880 0.843686
vt 0.817713 0.857850
vt 0.816744 0.853974
vt 0.859187 0.651688
vt 0.819922 0.859913
vt 0.816744 0.850098
vt 0.816744 0.846222
vt 0.864128 0.741197
vt 0.854175 0.741197
vt 0.854175 0.720795
vt 0.816744 0.842346
vt 0.854175 0.700394
vt 0.816744 0.838470
vt 0.854175 0.679992
vt 0.816744 0.834593
vt 0.814806 0.850098
vt 0.814806 0.846222
vt 0.843974 0.741197
vt 0.843974 0.720795
vt 0.814806 0.842346
vt 0.843974 0.700394
vt 0.814806 0.838470
vt 0.843974 0.679992
vt 0.814806 0.834593
vt 0.844584 0.710101
vt 0.844584 0.690630
vt 0.815865 0.876140
vt 0.815865 0.868027
vt 0.844584 0.671159
vt 0.815865 0.859913
vt 0.815775 0.857850
vt 0.814806 0.853974
vt 0.849452 0.651688
vt 0.815865 0.851800
vt 0.815865 0.843686
vt 0.811809 0.876140
vt 0.811809 0.868027
vt 0.834848 0.690630
vt 0.834848 0.671159
vt 0.811809 0.859913
vt 0.813837 0.857850
vt 0.812868 0.853974
vt 0.839716 0.651688
vt 0.811809 0.851800
vt 0.812868 0.850098
vt 0.811809 0.843686
vt 0.812868 0.846222
vt 0.833773 0.741197
vt 0.833773 0.720795
vt 0.812868 0.842346
vt 0.833773 0.700394
vt 0.812868 0.838470
vt 0.833773 0.679992
vt 0.812868 0.834593
vt 0.834848 0.710101
vt 0.823573 0.741197
vt 0.823573 0.720795
vt 0.810930 0.846222
vt 0.810930 0.842346
vt 0.823573 0.700394
vt 0.810930 0.838470
vt 0.823573 0.679992
vt 0.810930 0.834593
vt 0.825113 0.710101
vt 0.825113 0.690630
vt 0.807752 0.876140
vt 0.807752 0.868027
vt 0.825113 0.671159
vt 0.807752 0.859913
vt 0.811899 0.857850
vt 0.810930 0.853974
vt 0.829981 0.651688
vt 0.807752 0.851800
vt 0.810930 0.850098
vt 0.807752 0.843686
vt 0.815377 0.690630
vt 0.815377 0.671159
vt 0.803695 0.868027
vt 0.803695 0.859913
vt 0.809961 0.857850
vt 0.808992 0.853974
vt 0.820245 0.651688
vt 0.803695 0.851800
vt 0.808992 0.850098
vt 0.803695 0.843686
vt 0.808992 0.846222
vt 0.813372 0.741197
vt 0.813372 0.720795
vt 0.808992 0.842346
vt 0.813372 0.700394
vt 0.808992 0.838470
vt 0.813372 0.679992
vt 0.808992 0.834593
vt 0.815377 0.710101
vt 0.803695 0.876140
vt 0.803171 0.720795
vt 0.803171 0.700394
vt 0.807054 0.842346
vt 0.807054 0.838470
vt 0.803171 0.679992
vt 0.807054 0.834593
vt 0.805642 0.710101
vt 0.805642 0.690630
vt 0.799638 0.876140
vt 0.799638 0.868027
vt 0.805642 0.671159
vt 0.799638 0.859913
vt 0.808023 0.857850
vt 0.807054 0.853974
vt 0.810510 0.651688
vt 0.799638 0.851800
vt 0.807054 0.850098
vt 0.799638 0.843686
vt 0.807054 0.846222
vt 0.803171 0.741197
vt 0.509744 0.756342
vt 0.507471 0.765431
vt 0.505307 0.756342
vt 0.785262 0.666614
vt 0.793771 0.700651
vt 0.776753 0.700651
vt 0.813160 0.877948
vt 0.813160 0.908040
vt 0.798472 0.908040
vt 0.798472 0.877948
vt 0.509744 0.747253
vt 0.505307 0.747253
vt 0.813160 0.847856
vt 0.798472 0.847856
vt 0.509744 0.738165
vt 0.505307 0.738165
vt 0.824551 0.847040
vt 0.824551 0.862842
vt 0.803779 0.862842
vt 0.803779 0.847040
vt 0.509744 0.729076
vt 0.505307 0.729076
vt 0.824551 0.805497
vt 0.803779 0.805497
vt 0.509744 0.719987
vt 0.505307 0.719987
vt 0.824551 0.763954
vt 0.803779 0.763954
vt 0.509744 0.710898
vt 0.505307 0.710898
vt 0.793771 0.734689
vt 0.793771 0.768726
vt 0.776753 0.768726
vt 0.776753 0.734689
vt 0.813160 0.938132
vt 0.813160 0.968224
vt 0.798472 0.968224
vt 0.798472 0.938132
vt 0.663697 0.736584
vt 0.663697 0.742141
vt 0.661819 0.742141
vt 0.660852 0.740736
vt 0.660852 0.736584
vt 0.783008 0.805497
vt 0.783008 0.763954
vt 0.663697 0.731027
vt 0.660852 0.731027
vt 0.759734 0.768726
vt 0.759734 0.734689
vt 0.817830 0.938477
vt 0.815488 0.976007
vt 0.807883 0.974640
vt 0.808564 0.937426
vt 0.759734 0.700651
vt 0.818411 0.899759
vt 0.808280 0.899833
vt 0.663697 0.758814
vt 0.662241 0.764372
vt 0.660852 0.758814
vt 0.768243 0.666614
vt 0.817488 0.860884
vt 0.808098 0.861894
vt 0.663697 0.753257
vt 0.660852 0.753257
vt 0.815639 0.851154
vt 0.807817 0.852182
vt 0.663697 0.747699
vt 0.660852 0.747699
vt 0.783008 0.862842
vt 0.783008 0.847040
vt 0.660852 0.742141
vt 0.796716 0.899678
vt 0.796177 0.862167
vt 0.658073 0.758814
vt 0.658073 0.753257
vt 0.797101 0.852561
vt 0.658073 0.747699
vt 0.762236 0.862842
vt 0.762236 0.847040
vt 0.658073 0.742141
vt 0.762236 0.805497
vt 0.658073 0.736584
vt 0.762236 0.763954
vt 0.658073 0.731027
vt 0.742715 0.768726
vt 0.742715 0.734689
vt 0.797146 0.973963
vt 0.796924 0.936736
vt 0.742715 0.700651
vt 0.659463 0.764372
vt 0.751225 0.666614
vt 0.741465 0.805497
vt 0.741465 0.763954
vt 0.655295 0.736584
vt 0.655295 0.731027
vt 0.725697 0.768726
vt 0.725697 0.734689
vt 0.794090 0.973610
vt 0.793283 0.936394
vt 0.725697 0.700651
vt 0.793830 0.899518
vt 0.656684 0.764372
vt 0.655295 0.758814
vt 0.734206 0.666614
vt 0.794752 0.863120
vt 0.655295 0.753257
vt 0.793406 0.852188
vt 0.655295 0.752557
vt 0.655295 0.747699
vt 0.741465 0.862842
vt 0.741465 0.847040
vt 0.655295 0.742141
vt 0.654462 0.758814
vt 0.655209 0.753257
vt 0.787971 0.863002
vt 0.784504 0.852406
vt 0.652516 0.753257
vt 0.652516 0.747699
vt 0.720693 0.862842
vt 0.720693 0.847040
vt 0.652516 0.742141
vt 0.720693 0.805497
vt 0.652516 0.736584
vt 0.720693 0.763954
vt 0.652516 0.731027
vt 0.708678 0.768726
vt 0.708678 0.734689
vt 0.785636 0.973459
vt 0.789333 0.934836
vt 0.708678 0.700651
vt 0.787006 0.899297
vt 0.653905 0.764372
vt 0.652516 0.758814
vt 0.717187 0.666614
vt 0.649737 0.736584
vt 0.649737 0.731027
vt 0.691659 0.768726
vt 0.691659 0.734689
vt 0.749519 0.972490
vt 0.748673 0.935240
vt 0.691659 0.700651
vt 0.748411 0.899020
vt 0.651127 0.764372
vt 0.649737 0.758814
vt 0.700169 0.666614
vt 0.743397 0.861413
vt 0.649737 0.753257
vt 0.732967 0.851076
vt 0.649737 0.747699
vt 0.699921 0.862842
vt 0.699921 0.847040
vt 0.649737 0.742141
vt 0.699921 0.805497
vt 0.699921 0.763954
vt 0.698989 0.858267
vt 0.694539 0.847222
vt 0.646958 0.753257
vt 0.646958 0.747699
vt 0.679150 0.847040
vt 0.646958 0.742141
vt 0.679150 0.805497
vt 0.646958 0.736584
vt 0.679150 0.763954
vt 0.646958 0.731027
vt 0.674641 0.768726
vt 0.674641 0.734689
vt 0.712452 0.973273
vt 0.711329 0.935560
vt 0.674641 0.700651
vt 0.702719 0.895967
vt 0.648348 0.764372
vt 0.646958 0.758814
vt 0.683150 0.666614
vt 0.657622 0.768726
vt 0.657622 0.734689
vt 0.680957 0.974458
vt 0.679135 0.936494
vt 0.657622 0.700651
vt 0.655476 0.897084
vt 0.645569 0.764372
vt 0.644180 0.758814
vt 0.666131 0.666614
vt 0.668217 0.857383
vt 0.644180 0.753257
vt 0.677270 0.845582
vt 0.657074 0.856443
vt 0.656647 0.848221
vt 0.644180 0.747699
vt 0.692965 0.828502
vt 0.678051 0.829019
vt 0.644180 0.742141
vt 0.658379 0.847040
vt 0.658379 0.805497
vt 0.644180 0.736584
vt 0.658378 0.763954
vt 0.644180 0.731027
vt 0.634651 0.845749
vt 0.657958 0.839182
vt 0.641401 0.747699
vt 0.641401 0.742141
vt 0.637607 0.847040
vt 0.637607 0.805497
vt 0.641401 0.736584
vt 0.637607 0.763954
vt 0.641401 0.731027
vt 0.640604 0.768726
vt 0.640604 0.734689
vt 0.652851 0.974644
vt 0.649901 0.937284
vt 0.640604 0.700651
vt 0.650040 0.897408
vt 0.642790 0.764372
vt 0.641401 0.758814
vt 0.649113 0.666614
vt 0.644649 0.857472
vt 0.641401 0.753257
vt 0.395223 0.869571
vt 0.387302 0.874449
vt 0.376662 0.869692
vt 0.398950 0.874823
vt 0.400984 0.879981
vt 0.396738 0.882311
vt 0.392868 0.879437
vt 0.386374 0.891282
vt 0.392460 0.894046
vt 0.388326 0.896409
vt 0.385068 0.895683
vt 0.390871 0.883205
vt 0.396954 0.886635
vt 0.391976 0.885877
vt 0.387478 0.884246
vt 0.390557 0.889442
vt 0.385390 0.887316
vt 0.394692 0.900640
vt 0.390439 0.903258
vt 0.364187 0.868252
vt 0.369237 0.873922
vt 0.371468 0.875830
vt 0.371465 0.875907
vt 0.372472 0.878090
vt 0.371987 0.880416
vt 0.364187 0.899224
vt 0.385841 0.904872
vt 0.394926 0.891217
vt 0.389182 0.881932
vt 0.400020 0.893522
vt 0.373682 0.884334
vt 0.370406 0.902571
vt 0.375737 0.882481
vt 0.385993 0.878696
vt 0.377242 0.876020
vt 0.379061 0.904997
vt 0.378534 0.879304
vt 0.381022 0.885317
vt 0.401997 0.886515
vt 0.374357 0.876243
vt 0.380793 0.865928
vt 0.370419 0.902578
vt 0.379051 0.904996
s 1
f 275/1/1 262/2/2 304/3/3 306/4/4
f 257/5/5 256/6/6 22/7/7 23/8/8
f 5/9/9 4/10/10 15/11/11 16/12/12
f 249/13/13 1/14/14 9/15/15
f 8/16/16 257/5/5 23/8/8
f 6/17/17 5/9/9 16/12/12 17/18/18
f 250/19/19 249/13/13 9/15/15 10/20/20
f 253/21/21 6/17/17 17/18/18 18/22/22
f 2/23/23 250/19/19 10/20/20 11/24/24
f 7/25/25 253/26/21 18/27/22 296/28/26 19/29/27
f 251/30/28 2/23/23 11/24/24 12/31/29
f 254/32/30 7/25/25 19/29/27 20/33/31
f 3/34/32 251/30/28 12/31/29 13/35/33
f 255/36/34 254/32/30 20/33/31 21/37/35
f 252/38/36 3/34/32 13/35/33 14/39/37
f 256/6/6 255/40/34 21/41/35 22/7/7
f 4/10/10 252/42/36 14/43/37 15/11/11
f 22/7/7 21/41/35 36/44/38 37/45/39
f 15/11/11 14/43/37 29/46/40 30/47/41
f 23/8/8 22/7/7 37/45/39 38/48/42
f 17/18/18 32/49/43 33/50/44 295/51/45 18/22/22
f 9/15/15 1/52/14 24/53/46
f 8/54/16 23/8/8 38/48/42
f 30/47/41 31/55/47 16/12/12 15/11/11
f 10/20/20 9/15/15 24/53/46 25/56/48
f 11/24/24 10/20/20 25/56/48 26/57/49
f 19/29/27 296/28/26 295/58/45 33/59/44 34/60/50
f 12/31/29 11/24/24 26/57/49 27/61/51
f 20/33/31 19/29/27 34/60/50 35/62/52
f 13/35/33 12/31/29 27/61/51 28/63/53
f 21/37/35 20/33/31 35/62/52 36/64/38
f 14/39/37 13/35/33 28/63/53 29/65/40
f 26/57/49 25/56/48 40/66/54 41/67/55
f 34/60/50 33/59/44 48/68/56 49/69/57
f 27/61/51 26/57/49 41/67/55 42/70/58
f 35/62/52 34/60/50 49/69/57 50/71/59
f 28/63/53 27/61/51 42/70/58 43/72/60
f 36/64/38 35/62/52 50/71/59 51/73/61
f 29/65/40 28/63/53 43/72/60 44/74/62
f 37/45/39 36/44/38 51/75/61 52/76/63
f 30/47/41 29/46/40 44/77/62 45/78/64
f 38/48/42 37/45/39 52/76/63 53/79/65
f 31/55/47 30/47/41 45/78/64 46/80/66
f 24/53/46 1/81/14 39/82/67
f 8/83/16 38/48/42 53/79/65
f 32/49/43 31/55/47 46/80/66 47/84/68
f 25/56/48 24/53/46 39/82/67 40/66/54
f 33/50/44 32/49/43 47/84/68 48/85/56
f 45/78/64 44/77/62 59/86/69 60/87/70
f 53/79/65 52/76/63 67/88/71 68/89/72
f 46/80/66 45/78/64 60/87/70 61/90/73
f 39/82/67 1/91/14 54/92/74
f 8/93/16 53/79/65 68/89/72
f 47/84/68 46/80/66 61/90/73 62/94/75
f 40/66/54 39/82/67 54/92/74 55/95/76
f 48/85/56 47/84/68 62/94/75 63/96/77
f 41/67/55 40/66/54 55/95/76 56/97/78
f 49/69/57 48/68/56 63/98/77 64/99/79
f 42/70/58 41/67/55 56/97/78 57/100/80
f 50/71/59 49/69/57 64/99/79 65/101/81
f 43/72/60 42/70/58 57/100/80 58/102/82
f 51/73/61 50/71/59 65/101/81 66/103/83
f 44/74/62 43/72/60 58/102/82 59/104/69
f 52/76/63 51/75/61 66/105/83 67/88/71
f 64/99/79 63/98/77 78/106/84 79/107/85
f 57/100/80 56/97/78 71/108/86 72/109/87
f 65/101/81 64/99/79 79/107/85 80/110/88
f 58/102/82 57/100/80 72/109/87 73/111/89
f 66/103/83 65/101/81 80/110/88 81/112/90
f 59/104/69 58/102/82 73/111/89 74/113/91
f 67/88/71 66/105/83 81/114/90 82/115/92
f 60/87/70 59/86/69 74/116/91 75/117/93
f 68/89/72 67/88/71 82/115/92 83/118/94
f 61/90/73 60/87/70 75/117/93 76/119/95
f 54/92/74 1/120/14 69/121/96
f 8/122/16 68/89/72 83/118/94
f 62/94/75 61/90/73 76/119/95 77/123/97
f 55/95/76 54/92/74 69/121/96 70/124/98
f 63/96/77 62/94/75 77/123/97 78/125/84
f 56/97/78 55/95/76 70/124/98 71/108/86
f 83/118/94 82/115/92 97/126/99 98/127/100
f 76/119/95 75/117/93 90/128/101 91/129/102
f 69/121/96 1/130/14 84/131/103
f 8/132/16 83/118/94 98/127/100
f 77/123/97 76/119/95 91/129/102 92/133/104
f 70/124/98 69/121/96 84/131/103 85/134/105
f 78/125/84 77/123/97 92/133/104 93/135/106
f 71/108/86 70/124/98 85/134/105 86/136/107
f 79/107/85 78/106/84 93/137/106 94/138/108
f 72/109/87 71/108/86 86/136/107 87/139/109
f 80/110/88 79/107/85 94/138/108 95/140/110
f 73/111/89 72/109/87 87/139/109 88/141/111
f 81/112/90 80/110/88 95/140/110 96/142/112
f 74/113/91 73/111/89 88/141/111 89/143/113
f 82/115/92 81/114/90 96/144/112 97/126/99
f 75/117/93 74/116/91 89/145/113 90/128/101
f 95/140/110 94/138/108 109/146/114 110/147/115
f 88/141/111 87/139/109 102/148/116 103/149/117
f 96/142/112 95/140/110 110/147/115 111/150/118
f 89/143/113 88/141/111 103/149/117 104/151/119
f 97/126/99 96/144/112 111/152/118 112/153/120
f 90/128/101 89/145/113 104/154/119 105/155/121
f 98/127/100 97/126/99 112/153/120 113/156/122
f 91/129/102 90/128/101 105/155/121 106/157/123
f 84/131/103 1/158/14 99/159/124
f 8/160/16 98/127/100 113/156/122
f 92/133/104 91/129/102 106/157/123 107/161/125
f 85/134/105 84/131/103 99/159/124 100/162/126
f 93/135/106 92/133/104 107/161/125 108/163/127
f 86/136/107 85/134/105 100/162/126 101/164/128
f 94/138/108 93/137/106 108/165/127 109/146/114
f 87/139/109 86/136/107 101/164/128 102/148/116
f 99/166/124 1/167/14 114/168/129
f 8/169/16 113/170/122 128/171/130
f 107/172/125 106/173/123 121/174/131 122/175/132
f 100/176/126 99/166/124 114/168/129 115/177/133
f 108/178/127 107/172/125 122/175/132 123/179/134
f 101/180/128 100/176/126 115/177/133 116/181/135
f 109/182/114 108/183/127 123/184/134 124/185/136
f 102/186/116 101/180/128 116/181/135 117/187/137
f 110/188/115 109/182/114 124/185/136 125/189/138
f 103/190/117 102/186/116 117/187/137 118/191/139
f 111/192/118 110/188/115 125/189/138 126/193/140
f 104/194/119 103/190/117 118/191/139 119/195/141
f 112/196/120 111/197/118 126/198/140 127/199/142
f 105/200/121 104/201/119 119/202/141 120/203/143
f 113/170/122 112/196/120 127/199/142 128/171/130
f 106/173/123 105/200/121 120/203/143 121/174/131
f 118/204/139 117/205/137 285/206/144 286/207/145 133/208/146
f 126/193/140 125/189/138 140/209/147 141/210/148
f 119/211/141 118/204/139 133/208/146 134/212/149
f 127/199/142 126/198/140 141/213/148 142/214/150
f 120/215/143 119/216/141 134/217/149 135/218/151
f 128/171/130 127/199/142 142/214/150 143/219/152
f 121/220/131 120/215/143 135/218/151 136/221/153
f 114/222/129 1/223/14 129/224/154
f 8/225/16 128/171/130 143/219/152
f 122/226/132 121/220/131 136/221/153 137/227/155
f 115/228/133 114/222/129 129/224/154 130/229/156
f 123/230/134 122/226/132 137/227/155 138/231/157
f 116/232/135 115/228/133 130/229/156 131/233/158
f 124/185/136 123/184/134 138/234/157 139/235/159
f 117/205/137 116/232/135 131/233/158 132/236/160 285/206/144
f 125/189/138 124/185/136 139/235/159 140/209/147
f 137/227/155 136/221/153 151/237/161 152/238/162
f 130/229/156 129/224/154 144/239/163 145/240/164
f 138/231/157 137/227/155 152/238/162 153/241/165
f 131/233/158 130/229/156 145/240/164 146/242/166
f 139/235/159 138/234/157 153/243/165 154/244/167
f 132/236/160 131/233/158 146/242/166 147/245/168
f 140/209/147 139/235/159 154/244/167 155/246/169
f 133/208/146 286/207/145 132/236/160 147/245/168 148/247/170
f 141/210/148 140/209/147 155/246/169 156/248/171
f 134/212/149 133/208/146 148/247/170 149/249/172
f 142/214/150 141/213/148 156/250/171 157/251/173
f 135/218/151 134/217/149 149/252/172 150/253/174
f 143/219/152 142/214/150 157/251/173 158/254/175
f 136/221/153 135/218/151 150/253/174 151/237/161
f 129/224/154 1/255/14 144/239/163
f 8/256/16 143/219/152 158/254/175
f 156/248/171 155/246/169 170/257/176 171/258/177
f 149/249/172 148/247/170 163/259/178 164/260/179
f 157/251/173 156/250/171 171/261/177 172/262/180
f 150/253/174 149/252/172 164/263/179 165/264/181
f 158/254/175 157/251/173 172/262/180 173/265/182
f 151/237/161 150/253/174 165/264/181 166/266/183
f 144/239/163 1/267/14 159/268/184
f 8/269/16 158/254/175 173/265/182
f 152/238/162 151/237/161 166/266/183 167/270/185
f 145/240/164 144/239/163 159/268/184 160/271/186
f 153/241/165 152/238/162 167/270/185 168/272/187
f 146/242/166 145/240/164 160/271/186 289/273/188 161/274/189
f 154/244/167 153/243/165 168/275/187 169/276/190
f 147/245/168 146/242/166 161/274/189 162/277/191
f 155/246/169 154/244/167 169/276/190 170/257/176
f 148/247/170 147/245/168 162/277/191 163/259/178
f 160/271/186 159/268/184 288/278/192 287/279/193
f 168/272/187 167/270/185 182/280/194 183/281/195
f 161/274/189 289/273/188 287/279/193 175/282/196 176/283/197
f 169/276/190 168/275/187 183/284/195 184/285/198
f 162/277/191 161/274/189 176/283/197 177/286/199
f 170/257/176 169/276/190 184/285/198 185/287/200
f 163/259/178 162/277/191 177/286/199 178/288/201
f 171/258/177 170/257/176 185/287/200 186/289/202
f 164/260/179 163/259/178 178/288/201 179/290/203
f 172/262/180 171/261/177 186/291/202 187/292/204
f 165/264/181 164/263/179 179/293/203 180/294/205
f 173/265/182 172/262/180 187/292/204 188/295/206
f 166/266/183 165/264/181 180/294/205 181/296/207
f 159/268/184 1/297/14 174/298/208 288/278/192
f 8/299/16 173/265/182 188/295/206
f 167/270/185 166/266/183 181/296/207 182/280/194
f 179/290/203 178/288/201 193/300/209 194/301/210
f 187/292/204 186/291/202 201/302/211 202/303/212
f 180/294/205 179/293/203 194/304/210 195/305/213
f 188/295/206 187/292/204 202/303/212 203/306/214
f 181/296/207 180/294/205 195/305/213 196/307/215
f 174/298/208 1/308/14 189/309/216
f 8/310/16 188/295/206 203/306/214
f 182/280/194 181/296/207 196/307/215 197/311/217
f 175/282/196 174/298/208 189/309/216 190/312/218
f 183/281/195 182/280/194 197/311/217 198/313/219
f 176/283/197 175/282/196 190/312/218 191/314/220
f 184/285/198 183/284/195 198/315/219 199/316/221
f 177/286/199 176/283/197 191/314/220 192/317/222
f 185/287/200 184/285/198 199/316/221 200/318/223
f 178/288/201 177/286/199 192/317/222 193/300/209
f 186/289/202 185/287/200 200/318/223 201/319/211
f 198/313/219 197/311/217 312/320/224 313/321/225
f 191/314/220 190/312/218 205/322/226 206/323/227
f 199/316/221 198/315/219 214/324/228
f 192/317/222 191/314/220 206/323/227 207/325/229
f 200/318/223 199/316/221 214/324/228 215/326/230
f 193/300/209 192/317/222 207/325/229 208/327/231
f 201/319/211 200/318/223 215/326/230 216/328/232
f 194/301/210 193/300/209 208/327/231 209/329/233
f 202/303/212 201/302/211 216/330/232 217/331/234
f 195/305/213 194/304/210 209/332/233 210/333/235
f 203/306/214 202/303/212 217/331/234 218/334/236
f 196/307/215 195/305/213 210/333/235 211/335/237
f 189/309/216 1/336/14 204/337/238
f 8/338/16 203/306/214 218/334/236
f 197/311/217 196/307/215 211/335/237 312/320/224
f 190/312/218 189/309/216 204/337/238 205/322/226
f 217/331/234 216/330/232 231/339/239 232/340/240
f 210/333/235 209/332/233 224/341/241 225/342/242
f 218/334/236 217/331/234 232/340/240 233/343/243
f 211/335/237 210/333/235 225/342/242 226/344/244
f 204/337/238 1/345/14 219/346/245
f 8/347/16 218/334/236 233/343/243
f 212/348/246 211/335/237 226/344/244
f 205/322/226 204/337/238 219/346/245 220/349/247
f 213/350/248 212/348/249 227/351/250 228/352/251
f 206/323/227 205/322/226 220/349/247 221/353/252
f 214/354/228 213/350/248 228/352/251 229/355/253
f 207/325/229 206/323/227 221/353/252 222/356/254
f 215/326/230 214/324/228 229/357/253 230/358/255
f 208/327/231 207/325/229 222/356/254 223/359/256
f 216/328/232 215/326/230 230/358/255 231/360/239
f 209/329/233 208/327/231 223/359/256 224/361/241
f 229/355/253 228/352/251 243/362/257 244/363/258
f 222/356/254 221/353/252 236/364/259 237/365/260
f 230/358/255 229/357/253 244/366/258 245/367/261
f 223/359/256 222/356/254 237/365/260 238/368/262
f 231/360/239 230/358/255 245/367/261 246/369/263
f 224/361/241 223/359/256 238/368/262 239/370/264
f 232/340/240 231/339/239 246/371/263 247/372/265
f 225/342/242 224/341/241 239/373/264 240/374/266
f 233/343/243 232/340/240 247/372/265 248/375/267
f 226/344/244 225/342/242 240/374/266 241/376/268
f 219/346/245 1/377/14 234/378/269
f 8/379/16 233/343/243 248/375/267
f 227/351/250 226/344/244 241/376/268 242/380/270
f 220/349/247 219/346/245 234/378/269 235/381/271
f 228/352/251 227/351/250 242/380/270 243/362/257
f 221/353/252 220/349/247 235/381/271 236/364/259
f 266/382/272 292/383/273 297/384/274
f 282/385/275 267/386/276 291/387/277 294/388/278
f 284/389/279 274/390/280 263/391/281 280/392/282
f 265/393/283 291/387/277 290/394/284 273/395/285
f 283/396/286 273/395/285 260/397/287 278/398/288
f 274/390/280 276/399/289 269/400/290 263/391/281
f 270/401/291 310/402/292 307/403/293 308/404/294 271/405/295 261/406/296 258/407/297
f 280/392/282 263/391/281 269/400/290 281/408/298
f 273/395/285 290/394/284 293/409/299 260/397/287
f 279/410/300 265/393/283 273/395/285 283/396/286
f 260/397/287 293/409/299 259/411/301 274/390/280
f 258/407/297 261/406/296 302/412/302 275/1/1 277/413/303
f 278/398/288 260/397/287 284/389/279
f 261/406/296 311/414/304 302/412/302
f 264/415/305 279/410/300 283/396/286 298/416/306
f 262/2/2 280/392/282 281/408/298 268/417/307
f 271/405/295 300/418/308 301/419/309 311/414/304 261/406/296
f 275/1/1 284/389/279 280/392/282 262/2/2
f 266/382/272 282/385/275 294/388/278 292/383/273
f 284/389/279 260/397/287 274/390/280
f 286/207/145 285/206/144 132/236/160
f 274/390/280 259/411/301 276/399/289
f 287/279/193 289/273/188 160/271/186
f 287/279/193 288/278/192 174/298/208 175/282/196
f 293/409/299 290/394/284 272/420/310 259/411/301
f 292/383/273 294/388/278 279/410/300 264/415/305
f 290/394/284 291/387/277 267/386/276 272/420/310
f 294/388/278 291/387/277 265/393/283 279/410/300
f 270/401/291 297/384/274 310/402/292
f 295/58/45 296/28/26 18/27/22
f 271/405/295 309/421/311 297/384/274 298/416/306
f 297/384/274 270/401/291 299/422/312
f 299/422/312 266/382/272 297/384/274
f 298/416/306 297/384/274 292/383/273 264/415/305
f 298/416/306 300/418/308 271/405/295
f 300/418/308 298/416/306 283/396/286
f 301/419/309 300/418/308 283/396/286 278/398/288
f 275/1/1 301/419/309 278/398/288 284/389/279
f 302/412/302 301/419/309 275/1/1
f 305/423/313 306/4/4 304/3/3 303/424/314
f 277/413/303 275/1/1 306/4/4 305/423/313
f 262/2/2 268/417/307 303/424/314 304/3/3
f 307/403/293 297/384/274 309/421/311 308/404/294
f 308/404/294 309/421/311 271/405/295
f 310/402/292 297/384/274 307/403/293
f 302/412/302 311/414/304 301/419/309
f 214/354/228 313/321/225 213/350/248
f 313/321/225 312/320/224 212/348/246 213/350/248
f 312/320/224 211/335/237 212/348/246
f 313/321/225 214/354/228 198/313/219
f 226/344/244 227/351/250 212/348/249
f 16/12/12 31/55/47 32/49/43 17/18/18
f 548/1/315 572/4/316 571/3/317 541/2/318
f 257/5/5 328/8/319 327/7/320 256/6/6
f 5/9/9 321/12/321 320/11/322 4/10/10
f 249/13/13 314/15/323 1/14/14
f 8/16/16 328/8/319 257/5/5
f 6/17/17 322/18/324 321/12/321 5/9/9
f 250/19/19 315/20/325 314/15/323 249/13/13
f 253/21/21 323/22/326 322/18/324 6/17/17
f 2/23/23 316/24/327 315/20/325 250/19/19
f 7/25/25 324/29/328 565/28/329 323/27/326 253/26/21
f 251/30/28 317/31/330 316/24/327 2/23/23
f 254/32/30 325/33/331 324/29/328 7/25/25
f 3/34/32 318/35/332 317/31/330 251/30/28
f 255/36/34 326/37/333 325/33/331 254/32/30
f 252/38/36 319/39/334 318/35/332 3/34/32
f 256/6/6 327/7/320 326/41/333 255/40/34
f 4/10/10 320/11/322 319/43/334 252/42/36
f 327/7/320 342/45/335 341/44/336 326/41/333
f 320/11/322 335/47/337 334/46/338 319/43/334
f 328/8/319 343/48/339 342/45/335 327/7/320
f 322/18/324 323/22/326 564/51/340 338/50/341 337/49/342
f 314/15/323 329/53/343 1/52/14
f 8/54/16 343/48/339 328/8/319
f 335/47/337 320/11/322 321/12/321 336/55/344
f 315/20/325 330/56/345 329/53/343 314/15/323
f 316/24/327 331/57/346 330/56/345 315/20/325
f 324/29/328 339/60/347 338/59/341 564/58/340 565/28/329
f 317/31/330 332/61/348 331/57/346 316/24/327
f 325/33/331 340/62/349 339/60/347 324/29/328
f 318/35/332 333/63/350 332/61/348 317/31/330
f 326/37/333 341/64/336 340/62/349 325/33/331
f 319/39/334 334/65/338 333/63/350 318/35/332
f 331/57/346 346/67/351 345/66/352 330/56/345
f 339/60/347 354/69/353 353/68/354 338/59/341
f 332/61/348 347/70/355 346/67/351 331/57/346
f 340/62/349 355/71/356 354/69/353 339/60/347
f 333/63/350 348/72/357 347/70/355 332/61/348
f 341/64/336 356/73/358 355/71/356 340/62/349
f 334/65/338 349/74/359 348/72/357 333/63/350
f 342/45/335 357/76/360 356/75/358 341/44/336
f 335/47/337 350/78/361 349/77/359 334/46/338
f 343/48/339 358/79/362 357/76/360 342/45/335
f 336/55/344 351/80/363 350/78/361 335/47/337
f 329/53/343 344/82/364 1/81/14
f 8/83/16 358/79/362 343/48/339
f 337/49/342 352/84/365 351/80/363 336/55/344
f 330/56/345 345/66/352 344/82/364 329/53/343
f 338/50/341 353/85/354 352/84/365 337/49/342
f 350/78/361 365/87/366 364/86/367 349/77/359
f 358/79/362 373/89/368 372/88/369 357/76/360
f 351/80/363 366/90/370 365/87/366 350/78/361
f 344/82/364 359/92/371 1/91/14
f 8/93/16 373/89/368 358/79/362
f 352/84/365 367/94/372 366/90/370 351/80/363
f 345/66/352 360/95/373 359/92/371 344/82/364
f 353/85/354 368/96/374 367/94/372 352/84/365
f 346/67/351 361/97/375 360/95/373 345/66/352
f 354/69/353 369/99/376 368/98/374 353/68/354
f 347/70/355 362/100/377 361/97/375 346/67/351
f 355/71/356 370/101/378 369/99/376 354/69/353
f 348/72/357 363/102/379 362/100/377 347/70/355
f 356/73/358 371/103/380 370/101/378 355/71/356
f 349/74/359 364/104/367 363/102/379 348/72/357
f 357/76/360 372/88/369 371/105/380 356/75/358
f 369/99/376 384/107/381 383/106/382 368/98/374
f 362/100/377 377/109/383 376/108/384 361/97/375
f 370/101/378 385/110/385 384/107/381 369/99/376
f 363/102/379 378/111/386 377/109/383 362/100/377
f 371/103/380 386/112/387 385/110/385 370/101/378
f 364/104/367 379/113/388 378/111/386 363/102/379
f 372/88/369 387/115/389 386/114/387 371/105/380
f 365/87/366 380/117/390 379/116/388 364/86/367
f 373/89/368 388/118/391 387/115/389 372/88/369
f 366/90/370 381/119/392 380/117/390 365/87/366
f 359/92/371 374/121/393 1/120/14
f 8/122/16 388/118/391 373/89/368
f 367/94/372 382/123/394 381/119/392 366/90/370
f 360/95/373 375/124/395 374/121/393 359/92/371
f 368/96/374 383/125/382 382/123/394 367/94/372
f 361/97/375 376/108/384 375/124/395 360/95/373
f 388/118/391 403/127/396 402/126/397 387/115/389
f 381/119/392 396/129/398 395/128/399 380/117/390
f 374/121/393 389/131/400 1/130/14
f 8/132/16 403/127/396 388/118/391
f 382/123/394 397/133/401 396/129/398 381/119/392
f 375/124/395 390/134/402 389/131/400 374/121/393
f 383/125/382 398/135/403 397/133/401 382/123/394
f 376/108/384 391/136/404 390/134/402 375/124/395
f 384/107/381 399/138/405 398/137/403 383/106/382
f 377/109/383 392/139/406 391/136/404 376/108/384
f 385/110/385 400/140/407 399/138/405 384/107/381
f 378/111/386 393/141/408 392/139/406 377/109/383
f 386/112/387 401/142/409 400/140/407 385/110/385
f 379/113/388 394/143/410 393/141/408 378/111/386
f 387/115/389 402/126/397 401/144/409 386/114/387
f 380/117/390 395/128/399 394/145/410 379/116/388
f 400/140/407 415/147/411 414/146/412 399/138/405
f 393/141/408 408/149/413 407/148/414 392/139/406
f 401/142/409 416/150/415 415/147/411 400/140/407
f 394/143/410 409/151/416 408/149/413 393/141/408
f 402/126/397 417/153/417 416/152/415 401/144/409
f 395/128/399 410/155/418 409/154/416 394/145/410
f 403/127/396 418/156/419 417/153/417 402/126/397
f 396/129/398 411/157/420 410/155/418 395/128/399
f 389/131/400 404/159/421 1/158/14
f 8/160/16 418/156/419 403/127/396
f 397/133/401 412/161/422 411/157/420 396/129/398
f 390/134/402 405/162/423 404/159/421 389/131/400
f 398/135/403 413/163/424 412/161/422 397/133/401
f 391/136/404 406/164/425 405/162/423 390/134/402
f 399/138/405 414/146/412 413/165/424 398/137/403
f 392/139/406 407/148/414 406/164/425 391/136/404
f 404/166/421 419/168/426 1/167/14
f 8/169/16 433/171/427 418/170/419
f 412/172/422 427/175/428 426/174/429 411/173/420
f 405/176/423 420/177/430 419/168/426 404/166/421
f 413/178/424 428/179/431 427/175/428 412/172/422
f 406/180/425 421/181/432 420/177/430 405/176/423
f 414/182/412 429/185/433 428/184/431 413/183/424
f 407/186/414 422/187/434 421/181/432 406/180/425
f 415/188/411 430/189/435 429/185/433 414/182/412
f 408/190/413 423/191/436 422/187/434 407/186/414
f 416/192/415 431/193/437 430/189/435 415/188/411
f 409/194/416 424/195/438 423/191/436 408/190/413
f 417/196/417 432/199/439 431/198/437 416/197/415
f 410/200/418 425/203/440 424/202/438 409/201/416
f 418/170/419 433/171/427 432/199/439 417/196/417
f 411/173/420 426/174/429 425/203/440 410/200/418
f 423/204/436 438/208/441 555/207/442 554/206/443 422/205/434
f 431/193/437 446/210/444 445/209/445 430/189/435
f 424/211/438 439/212/446 438/208/441 423/204/436
f 432/199/439 447/214/447 446/213/444 431/198/437
f 425/215/440 440/218/448 439/217/446 424/216/438
f 433/171/427 448/219/449 447/214/447 432/199/439
f 426/220/429 441/221/450 440/218/448 425/215/440
f 419/222/426 434/224/451 1/223/14
f 8/225/16 448/219/449 433/171/427
f 427/226/428 442/227/452 441/221/450 426/220/429
f 420/228/430 435/229/453 434/224/451 419/222/426
f 428/230/431 443/231/454 442/227/452 427/226/428
f 421/232/432 436/233/455 435/229/453 420/228/430
f 429/185/433 444/235/456 443/234/454 428/184/431
f 422/205/434 554/206/443 437/236/457 436/233/455 421/232/432
f 430/189/435 445/209/445 444/235/456 429/185/433
f 442/227/452 457/238/458 456/237/459 441/221/450
f 435/229/453 450/240/460 449/239/461 434/224/451
f 443/231/454 458/241/462 457/238/458 442/227/452
f 436/233/455 451/242/463 450/240/460 435/229/453
f 444/235/456 459/244/464 458/243/462 443/234/454
f 437/236/457 452/245/465 451/242/463 436/233/455
f 445/209/445 460/246/466 459/244/464 444/235/456
f 438/208/441 453/247/467 452/245/465 437/236/457 555/207/442
f 446/210/444 461/248/468 460/246/466 445/209/445
f 439/212/446 454/249/469 453/247/467 438/208/441
f 447/214/447 462/251/470 461/250/468 446/213/444
f 440/218/448 455/253/471 454/252/469 439/217/446
f 448/219/449 463/254/472 462/251/470 447/214/447
f 441/221/450 456/237/459 455/253/471 440/218/448
f 434/224/451 449/239/461 1/255/14
f 8/256/16 463/254/472 448/219/449
f 461/248/468 476/258/473 475/257/474 460/246/466
f 454/249/469 469/260/475 468/259/476 453/247/467
f 462/251/470 477/262/477 476/261/473 461/250/468
f 455/253/471 470/264/478 469/263/475 454/252/469
f 463/254/472 478/265/479 477/262/477 462/251/470
f 456/237/459 471/266/480 470/264/478 455/253/471
f 449/239/461 464/268/481 1/267/14
f 8/269/16 478/265/479 463/254/472
f 457/238/458 472/270/482 471/266/480 456/237/459
f 450/240/460 465/271/483 464/268/481 449/239/461
f 458/241/462 473/272/484 472/270/482 457/238/458
f 451/242/463 466/274/485 558/273/486 465/271/483 450/240/460
f 459/244/464 474/276/487 473/275/484 458/243/462
f 452/245/465 467/277/488 466/274/485 451/242/463
f 460/246/466 475/257/474 474/276/487 459/244/464
f 453/247/467 468/259/476 467/277/488 452/245/465
f 465/271/483 556/279/489 557/278/490 464/268/481
f 473/272/484 488/281/491 487/280/492 472/270/482
f 466/274/485 481/283/493 480/282/494 556/279/489 558/273/486
f 474/276/487 489/285/495 488/284/491 473/275/484
f 467/277/488 482/286/496 481/283/493 466/274/485
f 475/257/474 490/287/497 489/285/495 474/276/487
f 468/259/476 483/288/498 482/286/496 467/277/488
f 476/258/473 491/289/499 490/287/497 475/257/474
f 469/260/475 484/290/500 483/288/498 468/259/476
f 477/262/477 492/292/501 491/291/499 476/261/473
f 470/264/478 485/294/502 484/293/500 469/263/475
f 478/265/479 493/295/503 492/292/501 477/262/477
f 471/266/480 486/296/504 485/294/502 470/264/478
f 464/268/481 557/278/490 479/298/505 1/297/14
f 8/299/16 493/295/503 478/265/479
f 472/270/482 487/280/492 486/296/504 471/266/480
f 484/290/500 499/301/506 498/300/507 483/288/498
f 492/292/501 507/303/508 506/302/509 491/291/499
f 485/294/502 500/305/510 499/304/506 484/293/500
f 493/295/503 508/306/511 507/303/508 492/292/501
f 486/296/504 501/307/512 500/305/510 485/294/502
f 479/298/505 494/309/513 1/308/14
f 8/310/16 508/306/511 493/295/503
f 487/280/492 502/311/514 501/307/512 486/296/504
f 480/282/494 495/312/515 494/309/513 479/298/505
f 488/281/491 503/313/516 502/311/514 487/280/492
f 481/283/493 496/314/517 495/312/515 480/282/494
f 489/285/495 504/316/518 503/315/516 488/284/491
f 482/286/496 497/317/519 496/314/517 481/283/493
f 490/287/497 505/318/520 504/316/518 489/285/495
f 483/288/498 498/300/507 497/317/519 482/286/496
f 491/289/499 506/319/509 505/318/520 490/287/497
f 503/313/516 579/321/521 578/320/522 502/311/514
f 496/314/517 511/323/523 510/322/524 495/312/515
f 504/316/518 519/324/525 503/315/516
f 497/317/519 512/325/526 511/323/523 496/314/517
f 505/318/520 520/326/527 519/324/525 504/316/518
f 498/300/507 513/327/528 512/325/526 497/317/519
f 506/319/509 521/328/529 520/326/527 505/318/520
f 499/301/506 514/329/530 513/327/528 498/300/507
f 507/303/508 522/331/531 521/330/529 506/302/509
f 500/305/510 515/333/532 514/332/530 499/304/506
f 508/306/511 523/334/533 522/331/531 507/303/508
f 501/307/512 516/335/534 515/333/532 500/305/510
f 494/309/513 509/337/535 1/336/14
f 8/338/16 523/334/533 508/306/511
f 502/311/514 578/320/522 516/335/534 501/307/512
f 495/312/515 510/322/524 509/337/535 494/309/513
f 522/331/531 537/340/536 536/339/537 521/330/529
f 515/333/532 530/342/538 529/341/539 514/332/530
f 523/334/533 538/343/540 537/340/536 522/331/531
f 516/335/534 531/344/541 530/342/538 515/333/532
f 509/337/535 524/346/542 1/345/14
f 8/347/16 538/343/540 523/334/533
f 517/348/543 531/344/541 516/335/534
f 510/322/524 525/349/544 524/346/542 509/337/535
f 518/350/545 533/352/546 532/351/547 517/348/548
f 511/323/523 526/353/549 525/349/544 510/322/524
f 519/354/525 534/355/550 533/352/546 518/350/545
f 512/325/526 527/356/551 526/353/549 511/323/523
f 520/326/527 535/358/552 534/357/550 519/324/525
f 513/327/528 528/359/553 527/356/551 512/325/526
f 521/328/529 536/360/537 535/358/552 520/326/527
f 514/329/530 529/361/539 528/359/553 513/327/528
f 534/355/550 244/363/258 243/362/257 533/352/546
f 527/356/551 237/365/260 236/364/259 526/353/549
f 535/358/552 245/367/261 244/366/258 534/357/550
f 528/359/553 238/368/262 237/365/260 527/356/551
f 536/360/537 246/369/263 245/367/261 535/358/552
f 529/361/539 239/370/264 238/368/262 528/359/553
f 537/340/536 247/372/265 246/371/263 536/339/537
f 530/342/538 240/374/266 239/373/264 529/341/539
f 538/343/540 248/375/267 247/372/265 537/340/536
f 531/344/541 241/376/268 240/374/266 530/342/538
f 524/346/542 234/378/269 1/377/14
f 8/379/16 248/375/267 538/343/540
f 532/351/547 242/380/270 241/376/268 531/344/541
f 525/349/544 235/381/271 234/378/269 524/346/542
f 533/352/546 243/362/257 242/380/270 532/351/547
f 526/353/549 236/364/259 235/381/271 525/349/544
f 266/382/272 566/384/554 561/383/555
f 282/385/275 563/388/556 560/387/557 267/386/276
f 553/389/558 551/392/559 542/391/560 547/390/561
f 544/393/562 546/395/563 559/394/564 560/387/557
f 552/396/565 549/398/566 539/397/567 546/395/563
f 547/390/561 542/391/560 269/400/290 276/399/289
f 270/401/291 258/407/297 540/406/568 545/405/569 574/404/570 573/403/571 576/402/572
f 551/392/559 281/408/298 269/400/290 542/391/560
f 546/395/563 539/397/567 562/409/573 559/394/564
f 550/410/574 552/396/565 546/395/563 544/393/562
f 539/397/567 547/390/561 259/411/301 562/409/573
f 258/407/297 277/413/303 548/1/315 570/412/575 540/406/568
f 549/398/566 553/389/558 539/397/567
f 540/406/568 570/412/575 577/414/576
f 543/415/577 567/416/578 552/396/565 550/410/574
f 541/2/318 268/417/307 281/408/298 551/392/559
f 545/405/569 540/406/568 577/414/576 569/419/579 568/418/580
f 548/1/315 541/2/318 551/392/559 553/389/558
f 266/382/272 561/383/555 563/388/556 282/385/275
f 553/389/558 547/390/561 539/397/567
f 555/207/442 437/236/457 554/206/443
f 547/390/561 276/399/289 259/411/301
f 556/279/489 465/271/483 558/273/486
f 556/279/489 480/282/494 479/298/505 557/278/490
f 562/409/573 259/411/301 272/420/310 559/394/564
f 561/383/555 543/415/577 550/410/574 563/388/556
f 559/394/564 272/420/310 267/386/276 560/387/557
f 563/388/556 550/410/574 544/393/562 560/387/557
f 270/401/291 576/402/572 566/384/554
f 564/58/340 323/27/326 565/28/329
f 545/405/569 567/416/578 566/384/554 575/421/581
f 566/384/554 299/422/312 270/401/291
f 299/422/312 566/384/554 266/382/272
f 567/416/578 543/415/577 561/383/555 566/384/554
f 567/416/578 545/405/569 568/418/580
f 568/418/580 552/396/565 567/416/578
f 569/419/579 549/398/566 552/396/565 568/418/580
f 548/1/315 553/389/558 549/398/566 569/419/579
f 570/412/575 548/1/315 569/419/579
f 305/423/313 303/424/314 571/3/317 572/4/316
f 277/413/303 305/423/313 572/4/316 548/1/315
f 541/2/318 571/3/317 303/424/314 268/417/307
f 573/403/571 574/404/570 575/421/581 566/384/554
f 574/404/570 545/405/569 575/421/581
f 576/402/572 573/403/571 566/384/554
f 570/412/575 569/419/579 577/414/576
f 519/354/525 518/350/545 579/321/521
f 579/321/521 518/350/545 517/348/543 578/320/522
f 578/320/522 517/348/543 516/335/534
f 579/321/521 503/313/516 519/354/525
f 531/344/541 517/348/548 532/351/547
f 321/12/321 322/18/324 337/49/342 336/55/344
