# Blender 5.0.1
# www.blender.org
o Apple
v -0.038432 -1.649059 -0.042627
v 0.685175 -1.236690 0.483098
v -0.314820 -1.236691 0.808022
v -0.932858 -1.236687 -0.042627
v -0.314820 -1.236691 -0.893276
v 0.685175 -1.236690 -0.568352
v 0.232641 0.001390 0.791662
v -0.748123 0.001390 0.472987
v -0.748123 0.001390 -0.558242
v 0.232641 0.001390 -0.876916
v 0.838793 0.001386 -0.042627
v -0.038432 -0.004926 -0.042627
v -0.200887 -1.640125 0.457368
v 0.386891 -1.640125 0.266384
v 0.224437 -1.315209 0.766385
v 0.812216 -1.315207 -0.042627
v 0.386891 -1.640125 -0.351638
v -0.564162 -1.640123 -0.042627
v -0.726621 -1.315207 0.457370
v -0.200887 -1.640125 -0.542622
v -0.726621 -1.315207 -0.542624
v 0.224437 -1.315209 -0.851639
v 0.963262 -0.639363 0.282838
v 0.963262 -0.639363 -0.368092
v -0.038432 -0.639364 1.010614
v 0.580648 -0.639365 0.809463
v -1.040125 -0.639364 0.282838
v -0.657512 -0.639365 0.809463
v -0.657512 -0.639365 -0.894717
v -1.040125 -0.639364 -0.368092
v 0.580648 -0.639365 -0.894717
v -0.038432 -0.639364 -1.095868
v 0.636522 0.039152 0.447754
v -0.296245 0.039153 0.750826
v -0.872720 0.039152 -0.042627
v -0.296245 0.039153 -0.836080
v 0.636522 0.039152 -0.533008
v 0.124024 0.219487 0.457368
v 0.487298 0.219487 -0.042627
v -0.463755 0.219487 0.266384
v -0.463755 0.219487 -0.351638
v 0.124024 0.219487 -0.542622
v 0.032229 0.552199 0.008611
v 0.023346 0.552554 0.005798
v -0.038432 -0.058698 -0.080344
v 0.025179 0.618760 -0.008470
v 0.044708 0.455501 -0.017217
v 0.055979 0.455501 -0.008899
v -0.021238 -0.058698 -0.077363
v 0.037618 0.618255 -0.004336
v 0.063510 0.455501 0.003551
v 0.066155 0.455501 0.018236
v -0.006662 -0.058698 -0.068875
v 0.048163 0.617511 0.007464
v 0.063510 0.455501 0.032921
v 0.055979 0.455501 0.045371
v 0.003078 -0.058698 -0.056172
v 0.055209 0.616642 0.025133
v 0.044708 0.455501 0.053689
v 0.031413 0.455501 0.056610
v 0.006498 -0.058698 -0.041187
v 0.057683 0.615779 0.045981
v 0.018118 0.455501 0.053689
v 0.006847 0.455501 0.045371
v 0.003078 -0.058698 -0.026203
v 0.055209 0.615054 0.066834
v -0.000684 0.455501 0.032921
v -0.003328 0.455501 0.018236
v -0.006662 -0.058698 -0.013500
v 0.048163 0.614577 0.084518
v -0.000684 0.455501 0.003551
v 0.006847 0.455501 -0.008899
v -0.021238 -0.058698 -0.005012
v 0.037618 0.614422 0.096341
v 0.018118 0.455501 -0.017217
v 0.031413 0.455501 -0.020138
v -0.038432 -0.058698 -0.002031
v 0.025179 0.614612 0.100502
v 0.046773 0.167093 0.015220
v 0.036089 0.167093 0.022431
v -0.055626 -0.058698 -0.005012
v 0.012740 0.615116 0.096367
v 0.028950 0.167093 0.033223
v 0.026443 0.167093 0.045953
v -0.070202 -0.058698 -0.013500
v 0.002195 0.615861 0.084567
v 0.028950 0.167093 0.058683
v 0.036089 0.167093 0.069475
v -0.079941 -0.058698 -0.026203
v -0.004851 0.616730 0.066898
v 0.046773 0.167093 0.076686
v 0.059377 0.167093 0.079218
v -0.083362 -0.058698 -0.041187
v -0.007325 0.617593 0.046050
v 0.071980 0.167093 0.076686
v 0.082664 0.167093 0.069475
v -0.079941 -0.058698 -0.056172
v -0.004851 0.618318 0.025197
v 0.089803 0.167093 0.058683
v 0.092310 0.167093 0.045953
v -0.070202 -0.058698 -0.068875
v 0.002195 0.618794 0.007512
v 0.089803 0.167093 0.033223
v 0.082664 0.167093 0.022431
v -0.055626 -0.058698 -0.077363
v 0.012740 0.618949 -0.004310
v 0.071980 0.167093 0.015220
v 0.059377 0.167093 0.012688
v 0.039759 0.551683 0.016641
v 0.044791 0.551084 0.028666
v 0.046558 0.550495 0.042855
v 0.044791 0.550004 0.057047
v 0.039759 0.549686 0.069082
v 0.032229 0.549590 0.077129
v 0.023346 0.549731 0.079961
v 0.014464 0.550086 0.077148
v 0.006934 0.550602 0.069117
v 0.001902 0.551201 0.057093
v 0.000135 0.551790 0.042904
v 0.001902 0.552281 0.028712
v 0.006934 0.552599 0.016676
v 0.014464 0.552695 0.008630
vn -0.0000 -1.0000 -0.0000
vn 0.3676 -0.8908 0.2671
vn -0.1404 -0.8908 0.4321
vn 0.7172 -0.4627 0.5211
vn 0.8456 -0.5338 -0.0000
vn -0.4544 -0.8908 -0.0000
vn -0.1404 -0.8908 -0.4321
vn 0.3676 -0.8908 -0.2671
vn 0.9506 0.0071 0.3102
vn -0.2740 -0.4627 0.8432
vn 0.2613 -0.5338 0.8042
vn -0.0013 0.0071 1.0000
vn -0.8865 -0.4626 -0.0000
vn -0.6841 -0.5338 0.4971
vn -0.9514 0.0071 0.3078
vn -0.2740 -0.4627 -0.8432
vn -0.6841 -0.5338 -0.4971
vn -0.5867 0.0071 -0.8098
vn 0.7172 -0.4627 -0.5211
vn 0.2613 -0.5338 -0.8042
vn 0.5888 0.0071 -0.8082
vn 0.5888 0.0071 0.8082
vn -0.5867 0.0071 0.8098
vn -0.9514 0.0071 -0.3078
vn -0.0013 0.0071 -1.0000
vn 0.9506 0.0071 -0.3102
vn 0.2537 0.5712 0.7807
vn 0.6277 0.6309 0.4560
vn 0.0596 0.9812 0.1834
vn -0.6641 0.5712 0.4825
vn -0.2398 0.6309 0.7379
vn -0.1560 0.9812 0.1134
vn -0.6641 0.5712 -0.4825
vn -0.7758 0.6309 -0.0000
vn -0.1560 0.9812 -0.1134
vn 0.2537 0.5712 -0.7807
vn -0.2398 0.6309 -0.7379
vn 0.0596 0.9812 -0.1834
vn 0.8208 0.5711 -0.0000
vn 0.6277 0.6309 -0.4560
vn 0.1929 0.9812 -0.0000
vn -0.0000 1.0000 -0.0000
vn 0.7200 -0.1874 -0.6682
vn 0.5233 0.1313 -0.8420
vn 0.9104 -0.1670 -0.3785
vn -0.2426 0.2362 -0.9409
vn 0.9789 -0.1616 -0.1252
vn 0.8094 -0.0829 -0.5814
vn 0.9785 -0.1729 0.1124
vn 0.5771 -0.0362 -0.8159
vn 0.9091 -0.2024 0.3641
vn 0.9387 -0.2802 -0.2008
vn 0.7178 -0.2499 0.6499
vn 0.8454 0.0212 -0.5336
vn 0.2937 -0.2950 0.9093
vn 0.8907 -0.4129 0.1905
vn -0.3077 -0.2782 0.9099
vn 0.9803 0.0708 -0.1842
vn -0.7292 -0.2095 0.6514
vn 0.7166 -0.4707 0.5148
vn -0.9182 -0.1514 0.3660
vn 0.9773 0.1059 0.1836
vn -0.9864 -0.1180 0.1145
vn 0.4677 -0.4635 0.7526
vn -0.9866 -0.1067 -0.1231
vn 0.8392 0.1229 0.5297
vn -0.9191 -0.1160 -0.3766
vn 0.1670 -0.3964 0.9028
vn -0.7307 -0.1469 -0.6667
vn 0.5733 0.1198 0.8105
vn 0.2954 -0.2080 -0.9324
vn -0.1755 -0.2644 0.9483
vn 0.6333 0.2858 -0.7192
vn 0.2051 0.0966 0.9740
vn 0.8590 0.2712 -0.4343
vn -0.5267 -0.0656 0.8475
vn 0.9626 0.2307 -0.1424
vn -0.2057 0.0570 0.9769
vn 0.9757 0.1583 0.1517
vn -0.8007 0.1677 0.5752
vn 0.8884 0.0488 0.4565
vn -0.5774 0.0087 0.8164
vn 0.6542 -0.0884 0.7511
vn -0.9098 0.3665 0.1946
vn 0.2443 -0.2086 0.9470
vn -0.8450 -0.0401 0.5333
vn -0.2463 -0.2476 0.9370
vn -0.8549 0.4855 -0.1828
vn -0.6465 -0.1957 0.7374
vn -0.9793 -0.0838 0.1840
vn -0.8861 -0.1012 0.4523
vn -0.6901 0.5272 -0.4958
vn -0.9885 -0.0072 0.1509
vn -0.9758 -0.1187 -0.1834
vn -0.9863 0.0695 -0.1495
vn -0.4547 0.5080 -0.7316
vn -0.8828 0.1303 -0.4513
vn -0.8371 -0.1413 -0.5284
vn -0.6458 0.1842 -0.7409
vn -0.1637 0.4363 -0.8848
vn 0.2448 0.2744 -0.9299
vn -0.5712 -0.1466 -0.8076
vn 0.0279 0.9989 0.0380
vn 0.1729 0.3110 -0.9346
vn 0.2052 -0.0906 -0.9745
vn -0.3086 -0.1911 -0.9318
vn -0.2043 -0.1298 -0.9703
vt 0.748443 0.880233
vt 0.749532 0.882119
vt 0.747354 0.882119
vt 0.750621 0.884006
vt 0.751710 0.882119
vt 0.752800 0.884006
vt 0.765868 0.880233
vt 0.766957 0.882119
vt 0.764779 0.882119
vt 0.761512 0.880233
vt 0.762601 0.882119
vt 0.760423 0.882119
vt 0.757156 0.880233
vt 0.758245 0.882119
vt 0.756067 0.882119
vt 0.751710 0.885892
vt 0.746265 0.884006
vt 0.748443 0.884006
vt 0.747354 0.885892
vt 0.763690 0.884006
vt 0.765868 0.884006
vt 0.764779 0.885892
vt 0.759334 0.884006
vt 0.761512 0.884006
vt 0.760423 0.885892
vt 0.754978 0.884006
vt 0.757156 0.884006
vt 0.756067 0.885892
vt 0.749532 0.885892
vt 0.745176 0.885892
vt 0.762601 0.885892
vt 0.758245 0.885892
vt 0.753889 0.885892
vt 0.748443 0.887778
vt 0.750621 0.887778
vt 0.749532 0.889665
vt 0.744087 0.887778
vt 0.746265 0.887778
vt 0.745176 0.889665
vt 0.761512 0.887778
vt 0.763690 0.887778
vt 0.762601 0.889665
vt 0.757156 0.887778
vt 0.759334 0.887778
vt 0.758245 0.889665
vt 0.752800 0.887778
vt 0.754978 0.887778
vt 0.753889 0.889665
vt 0.756067 0.889665
vt 0.754978 0.891551
vt 0.760423 0.889665
vt 0.759334 0.891551
vt 0.764779 0.889665
vt 0.763690 0.891551
vt 0.765868 0.887778
vt 0.747354 0.889665
vt 0.746265 0.891551
vt 0.751710 0.889665
vt 0.750621 0.891551
vt 0.766957 0.885892
vt 0.768046 0.884006
vt 0.753889 0.882119
vt 0.752800 0.880233
vt 0.072407 0.859028
vt 0.074914 0.855467
vt 0.079631 0.855303
vt 0.076597 0.855935
vt 0.056146 0.911018
vt 0.056913 0.913502
vt 0.056708 0.834020
vt 0.055922 0.830839
vt 0.077243 0.851891
vt 0.082303 0.853412
vt 0.062812 0.841845
vt 0.062973 0.842206
vt 0.062984 0.868239
vt 0.060142 0.864243
vt 0.079421 0.847991
vt 0.084253 0.850504
vt 0.057336 0.916376
vt 0.057094 0.837027
vt 0.081090 0.843983
vt 0.085350 0.847198
vt 0.051030 0.962725
vt 0.051646 0.962727
vt 0.048857 0.841489
vt 0.049337 0.842444
vt 0.082529 0.839816
vt 0.085221 0.843932
vt 0.057294 0.919325
vt 0.057025 0.839648
vt 0.083858 0.835482
vt 0.083859 0.841136
vt 0.052006 0.963294
vt 0.048516 0.840198
vt 0.085350 0.830839
vt 0.081358 0.839082
vt 0.056768 0.922104
vt 0.056570 0.841496
vt 0.082524 0.835064
vt 0.078212 0.838380
vt 0.052101 0.964568
vt 0.048389 0.838615
vt 0.080014 0.838635
vt 0.075175 0.839014
vt 0.055870 0.924543
vt 0.055671 0.842485
vt 0.077692 0.842206
vt 0.072510 0.840903
vt 0.052008 0.966657
vt 0.048526 0.836829
vt 0.075513 0.846090
vt 0.070572 0.843799
vt 0.054773 0.926535
vt 0.054484 0.842610
vt 0.073833 0.850107
vt 0.069474 0.847123
vt 0.051817 0.969623
vt 0.048964 0.834939
vt 0.072394 0.854283
vt 0.069606 0.850396
vt 0.053651 0.928215
vt 0.053273 0.841895
vt 0.071071 0.858607
vt 0.070968 0.853188
vt 0.051541 0.973471
vt 0.049557 0.832927
vt 0.069580 0.863252
vt 0.073462 0.855234
vt 0.052599 0.929770
vt 0.052427 0.840399
vt 0.063074 0.842148
vt 0.063530 0.841486
vt 0.067981 0.860874
vt 0.065917 0.864668
vt 0.051067 0.978223
vt 0.050426 0.830839
vt 0.063998 0.840398
vt 0.069175 0.856981
vt 0.052130 0.924114
vt 0.052119 0.838584
vt 0.064331 0.838930
vt 0.069456 0.853232
vt 0.050522 0.974707
vt 0.051332 0.833650
vt 0.064423 0.837225
vt 0.068854 0.849907
vt 0.052119 0.918971
vt 0.052309 0.836739
vt 0.064259 0.835340
vt 0.067507 0.847257
vt 0.050103 0.971837
vt 0.051894 0.836161
vt 0.063835 0.833293
vt 0.065649 0.845470
vt 0.052386 0.914658
vt 0.052795 0.835083
vt 0.063193 0.830839
vt 0.063580 0.844691
vt 0.049690 0.969502
vt 0.052101 0.838377
vt 0.062512 0.833072
vt 0.061585 0.845046
vt 0.052846 0.911408
vt 0.053225 0.833771
vt 0.062107 0.835123
vt 0.059676 0.846432
vt 0.049320 0.967607
vt 0.051974 0.840275
vt 0.061949 0.836974
vt 0.058185 0.848819
vt 0.053480 0.909367
vt 0.053650 0.832786
vt 0.061996 0.838633
vt 0.057354 0.852040
vt 0.049116 0.966072
vt 0.051593 0.841755
vt 0.062214 0.840030
vt 0.057354 0.855866
vt 0.054279 0.908674
vt 0.054184 0.832019
vt 0.062526 0.841117
vt 0.058273 0.860028
vt 0.049198 0.964833
vt 0.051055 0.842749
vt 0.055201 0.909261
vt 0.054959 0.831423
vt 0.049613 0.963865
vt 0.050484 0.843134
vt 0.050284 0.963142
vt 0.049898 0.843010
s 1
f 1/1/1 14/2/2 13/3/3
f 2/4/4 14/5/2 16/6/5
f 1/7/1 13/8/3 18/9/6
f 1/10/1 18/11/6 20/12/7
f 1/13/1 20/14/7 17/15/8
f 2/4/4 16/6/5 23/16/9
f 3/17/10 15/18/11 25/19/12
f 4/20/13 19/21/14 27/22/15
f 5/23/16 21/24/17 29/25/18
f 6/26/19 22/27/20 31/28/21
f 2/4/4 23/16/9 26/29/22
f 3/17/10 25/19/12 28/30/23
f 4/20/13 27/22/15 30/31/24
f 5/23/16 29/25/18 32/32/25
f 6/26/19 31/28/21 24/33/26
f 7/34/27 33/35/28 38/36/29
f 8/37/30 34/38/31 40/39/32
f 9/40/33 35/41/34 41/42/35
f 10/43/36 36/44/37 42/45/38
f 11/46/39 37/47/40 39/48/41
f 39/48/41 42/49/38 12/50/42
f 39/48/41 37/47/40 42/49/38
f 37/47/40 10/43/36 42/49/38
f 42/45/38 41/51/35 12/52/42
f 42/45/38 36/44/37 41/51/35
f 36/44/37 9/40/33 41/51/35
f 41/42/35 40/53/32 12/54/42
f 41/42/35 35/41/34 40/53/32
f 35/41/34 8/55/30 40/53/32
f 40/39/32 38/56/29 12/57/42
f 40/39/32 34/38/31 38/56/29
f 34/38/31 7/34/27 38/56/29
f 38/36/29 39/58/41 12/59/42
f 38/36/29 33/35/28 39/58/41
f 33/35/28 11/46/39 39/58/41
f 24/33/26 37/47/40 11/46/39
f 24/33/26 31/28/21 37/47/40
f 31/28/21 10/43/36 37/47/40
f 32/32/25 36/44/37 10/43/36
f 32/32/25 29/25/18 36/44/37
f 29/25/18 9/40/33 36/44/37
f 30/31/24 35/41/34 9/40/33
f 30/31/24 27/22/15 35/41/34
f 27/22/15 8/55/30 35/41/34
f 28/30/23 34/38/31 8/37/30
f 28/30/23 25/19/12 34/38/31
f 25/19/12 7/34/27 34/38/31
f 26/29/22 33/35/28 7/34/27
f 26/29/22 23/16/9 33/35/28
f 23/16/9 11/46/39 33/35/28
f 31/28/21 32/32/25 10/43/36
f 31/28/21 22/27/20 32/32/25
f 22/27/20 5/23/16 32/32/25
f 29/25/18 30/31/24 9/40/33
f 29/25/18 21/24/17 30/31/24
f 21/24/17 4/20/13 30/31/24
f 27/22/15 28/60/23 8/55/30
f 27/22/15 19/21/14 28/60/23
f 19/21/14 3/61/10 28/60/23
f 25/19/12 26/29/22 7/34/27
f 25/19/12 15/18/11 26/29/22
f 15/18/11 2/4/4 26/29/22
f 23/16/9 24/33/26 11/46/39
f 23/16/9 16/6/5 24/33/26
f 16/6/5 6/26/19 24/33/26
f 17/15/8 22/27/20 6/26/19
f 17/15/8 20/14/7 22/27/20
f 20/14/7 5/23/16 22/27/20
f 20/12/7 21/24/17 5/23/16
f 20/12/7 18/11/6 21/24/17
f 18/11/6 4/20/13 21/24/17
f 18/9/6 19/21/14 4/20/13
f 18/9/6 13/8/3 19/21/14
f 13/8/3 3/61/10 19/21/14
f 16/6/5 17/62/8 6/26/19
f 16/6/5 14/5/2 17/62/8
f 14/5/2 1/63/1 17/62/8
f 13/3/3 15/18/11 3/17/10
f 13/3/3 14/2/2 15/18/11
f 14/2/2 2/4/4 15/18/11
s 0
f 50/64/43 54/65/43 109/66/43 43/67/43
f 107/68/44 104/69/44 53/70/44 49/71/44
f 54/65/45 58/72/45 110/73/45 109/66/45
f 122/74/46 44/75/46 76/76/46 75/77/46
f 58/72/47 62/78/47 111/79/47 110/73/47
f 104/69/48 103/80/48 57/81/48 53/70/48
f 62/78/49 66/82/49 112/83/49 111/79/49
f 47/84/50 48/85/50 104/86/50 107/87/50
f 66/82/51 70/88/51 113/89/51 112/83/51
f 103/80/52 100/90/52 61/91/52 57/81/52
f 70/88/53 74/92/53 114/93/53 113/89/53
f 48/85/54 51/94/54 103/95/54 104/86/54
f 74/92/55 78/96/55 115/97/55 114/93/55
f 100/90/56 99/98/56 65/99/56 61/91/56
f 78/96/57 82/100/57 116/101/57 115/97/57
f 51/94/58 52/102/58 100/103/58 103/95/58
f 82/100/59 86/104/59 117/105/59 116/101/59
f 99/98/60 96/106/60 69/107/60 65/99/60
f 86/104/61 90/108/61 118/109/61 117/105/61
f 52/102/62 55/110/62 99/111/62 100/103/62
f 90/108/63 94/112/63 119/113/63 118/109/63
f 96/106/64 95/114/64 73/115/64 69/107/64
f 94/112/65 98/116/65 120/117/65 119/113/65
f 55/110/66 56/118/66 96/119/66 99/111/66
f 98/116/67 102/120/67 121/121/67 120/117/67
f 95/114/68 92/122/68 77/123/68 73/115/68
f 102/120/69 106/124/69 122/125/69 121/121/69
f 56/118/70 59/126/70 95/127/70 96/119/70
f 46/128/71 50/64/71 43/67/71 44/129/71
f 92/122/72 91/130/72 81/131/72 77/123/72
f 43/132/73 109/133/73 48/134/73 47/135/73
f 59/126/74 60/136/74 92/137/74 95/127/74
f 109/133/75 110/138/75 51/139/75 48/134/75
f 91/130/76 88/140/76 85/141/76 81/131/76
f 110/138/77 111/142/77 52/143/77 51/139/77
f 60/136/78 63/144/78 91/145/78 92/137/78
f 111/142/79 112/146/79 55/147/79 52/143/79
f 88/140/80 87/148/80 89/149/80 85/141/80
f 112/146/81 113/150/81 56/151/81 55/147/81
f 63/144/82 64/152/82 88/153/82 91/145/82
f 113/150/83 114/154/83 59/155/83 56/151/83
f 87/148/84 84/156/84 93/157/84 89/149/84
f 114/154/85 115/158/85 60/159/85 59/155/85
f 64/152/86 67/160/86 87/161/86 88/153/86
f 115/158/87 116/162/87 63/163/87 60/159/87
f 84/156/88 83/164/88 97/165/88 93/157/88
f 116/162/89 117/166/89 64/167/89 63/163/89
f 67/160/90 68/168/90 84/169/90 87/161/90
f 117/166/91 118/170/91 67/171/91 64/167/91
f 83/164/92 80/172/92 101/173/92 97/165/92
f 118/170/93 119/174/93 68/175/93 67/171/93
f 68/168/94 71/176/94 83/177/94 84/169/94
f 119/174/95 120/178/95 71/179/95 68/175/95
f 80/172/96 79/180/96 105/181/96 101/173/96
f 120/178/97 121/182/97 72/183/97 71/179/97
f 71/176/98 72/184/98 80/185/98 83/177/98
f 121/182/99 122/74/99 75/77/99 72/183/99
f 79/180/100 108/186/100 45/187/100 105/181/100
f 44/75/101 43/132/101 47/135/101 76/76/101
f 72/184/102 75/188/102 79/189/102 80/185/102
f 46/128/103 106/124/103 102/120/103 98/116/103 94/112/103 90/108/103 86/104/103 82/100/103 78/96/103 74/92/103 70/88/103 66/82/103 62/78/103 58/72/103 54/65/103 50/64/103
f 108/186/104 107/68/104 49/71/104 45/187/104
f 76/190/105 47/84/105 107/87/105 108/191/105
f 106/124/106 46/128/106 44/129/106 122/125/106
f 75/188/107 76/190/107 108/191/107 79/189/107
f 45/187/1 49/71/1 53/70/1 57/81/1 61/91/1 65/99/1 69/107/1 73/115/1 77/123/1 81/131/1 85/141/1 89/149/1 93/157/1 97/165/1 101/173/1 105/181/1
