# Blender 5.1.1
# www.blender.org
o Baby_Gate
v -2.214522 2.597877 0.091883
v -2.214522 2.856053 0.091883
v -2.214522 2.597877 -0.091883
v -2.214522 2.856053 -0.091883
v 2.181314 2.597877 0.091883
v 2.181314 2.856053 0.091883
v 2.181314 2.597877 -0.091883
v 2.181314 2.856053 -0.091883
v -1.966189 2.597877 -0.091883
v -1.966189 2.856053 -0.091883
v -1.966189 2.597877 0.091883
v -1.966189 2.856053 0.091883
v 1.894111 2.856053 -0.091883
v 1.894111 2.597877 0.091883
v 1.894111 2.597877 -0.091883
v 1.894111 2.856053 0.091883
v 2.181314 0.001876 0.091883
v 2.181314 0.001876 -0.091883
v 1.894111 0.001876 0.091883
v 1.894111 0.001876 -0.091883
v -2.214522 -0.001947 -0.091883
v -2.214522 -0.001947 0.091883
v -1.966189 -0.001947 -0.091883
v -1.966189 -0.001947 0.091883
v -1.966189 0.231462 0.091883
v -1.966189 0.231462 -0.091883
v -2.214522 0.231462 -0.091883
v -2.214522 0.231462 0.091883
v 1.894111 0.237796 -0.091883
v 1.894111 0.237796 0.091883
v 2.181314 0.237796 -0.091883
v 2.181314 0.237796 0.091883
v -1.893471 2.597877 -0.091883
v -1.893471 2.856053 0.091883
v -1.893472 2.856053 -0.091883
v -1.893472 2.597877 0.091883
v -1.894111 0.231581 0.091883
v -1.894111 -0.001876 0.091883
v -1.894111 -0.001876 -0.091883
v -1.894111 0.231581 -0.091883
v -1.804660 0.224883 -0.080346
v -1.804660 2.633630 -0.080346
v -1.774415 0.224883 -0.074330
v -1.774415 2.633630 -0.074330
v -1.748774 0.224883 -0.057197
v -1.748774 2.633630 -0.057197
v -1.731641 0.224883 -0.031556
v -1.731641 2.633630 -0.031556
v -1.725625 0.224883 -0.001310
v -1.725625 2.633630 -0.001310
v -1.731641 0.224883 0.028935
v -1.731641 2.633630 0.028935
v -1.748774 0.224883 0.054576
v -1.748774 2.633630 0.054576
v -1.774415 0.224883 0.071709
v -1.774415 2.633630 0.071709
v -1.804660 0.224883 0.077725
v -1.804660 2.633630 0.077725
v -1.834906 0.224883 0.071709
v -1.834906 2.633630 0.071709
v -1.860547 0.224883 0.054576
v -1.860547 2.633630 0.054576
v -1.877679 0.224883 0.028935
v -1.877679 2.633630 0.028935
v -1.883696 0.224883 -0.001310
v -1.883696 2.633630 -0.001310
v -1.877679 0.224883 -0.031556
v -1.877679 2.633630 -0.031556
v -1.860547 0.224883 -0.057197
v -1.860547 2.633630 -0.057197
v -1.834906 0.224883 -0.074330
v -1.834906 2.633630 -0.074330
v -1.477106 0.195460 -0.053778
v -1.477106 2.633630 -0.053778
v -1.457028 0.195460 -0.049784
v -1.457028 2.633630 -0.049784
v -1.440006 0.195460 -0.038411
v -1.440006 2.633630 -0.038411
v -1.428632 0.195460 -0.021389
v -1.428632 2.633630 -0.021389
v -1.424638 0.195460 -0.001310
v -1.424638 2.633630 -0.001310
v -1.428632 0.195460 0.018768
v -1.428632 2.633630 0.018768
v -1.440006 0.195460 0.035790
v -1.440006 2.633630 0.035790
v -1.457028 0.195460 0.047163
v -1.457028 2.633630 0.047163
v -1.477106 0.195460 0.051157
v -1.477106 2.633630 0.051157
v -1.497185 0.195460 0.047163
v -1.497185 2.633630 0.047163
v -1.514206 0.195460 0.035790
v -1.514206 2.633630 0.035790
v -1.525580 0.195460 0.018768
v -1.525580 2.633630 0.018768
v -1.529574 0.195460 -0.001310
v -1.529574 2.633630 -0.001310
v -1.525580 0.195460 -0.021389
v -1.525580 2.633630 -0.021389
v -1.514206 0.195460 -0.038411
v -1.514206 2.633630 -0.038411
v -1.497185 0.195460 -0.049784
v -1.497185 2.633630 -0.049784
v -1.150804 0.195460 -0.053778
v -1.150804 2.633630 -0.053778
v -1.130726 0.195460 -0.049784
v -1.130726 2.633630 -0.049784
v -1.113704 0.195460 -0.038411
v -1.113704 2.633630 -0.038411
v -1.102330 0.195460 -0.021389
v -1.102330 2.633630 -0.021389
v -1.098336 0.195460 -0.001310
v -1.098336 2.633630 -0.001310
v -1.102330 0.195460 0.018768
v -1.102330 2.633630 0.018768
v -1.113704 0.195460 0.035790
v -1.113704 2.633630 0.035790
v -1.130726 0.195460 0.047163
v -1.130726 2.633630 0.047163
v -1.150804 0.195460 0.051157
v -1.150804 2.633630 0.051157
v -1.170883 0.195460 0.047163
v -1.170883 2.633630 0.047163
v -1.187904 0.195460 0.035790
v -1.187904 2.633630 0.035790
v -1.199278 0.195460 0.018768
v -1.199278 2.633630 0.018768
v -1.203272 0.195460 -0.001310
v -1.203272 2.633630 -0.001310
v -1.199278 0.195460 -0.021389
v -1.199278 2.633630 -0.021389
v -1.187904 0.195460 -0.038411
v -1.187904 2.633630 -0.038411
v -1.170883 0.195460 -0.049784
v -1.170883 2.633630 -0.049784
v -0.799807 0.195460 -0.053778
v -0.799807 2.633630 -0.053778
v -0.779729 0.195460 -0.049784
v -0.779729 2.633630 -0.049784
v -0.762707 0.195460 -0.038411
v -0.762707 2.633630 -0.038411
v -0.751334 0.195460 -0.021389
v -0.751334 2.633630 -0.021389
v -0.747340 0.195460 -0.001310
v -0.747340 2.633630 -0.001310
v -0.751334 0.195460 0.018768
v -0.751334 2.633630 0.018768
v -0.762707 0.195460 0.035790
v -0.762707 2.633630 0.035790
v -0.779729 0.195460 0.047163
v -0.779729 2.633630 0.047163
v -0.799807 0.195460 0.051157
v -0.799807 2.633630 0.051157
v -0.819886 0.195460 0.047163
v -0.819886 2.633630 0.047163
v -0.836908 0.195460 0.035790
v -0.836908 2.633630 0.035790
v -0.848281 0.195460 0.018768
v -0.848281 2.633630 0.018768
v -0.852275 0.195460 -0.001310
v -0.852275 2.633630 -0.001310
v -0.848281 0.195460 -0.021389
v -0.848281 2.633630 -0.021389
v -0.836908 0.195460 -0.038411
v -0.836908 2.633630 -0.038411
v -0.819886 0.195460 -0.049784
v -0.819886 2.633630 -0.049784
v -0.473276 0.195460 -0.053778
v -0.473276 2.633630 -0.053778
v -0.453198 0.195460 -0.049784
v -0.453198 2.633630 -0.049784
v -0.436176 0.195460 -0.038411
v -0.436176 2.633630 -0.038411
v -0.424802 0.195460 -0.021389
v -0.424802 2.633630 -0.021389
v -0.420808 0.195460 -0.001310
v -0.420808 2.633630 -0.001310
v -0.424802 0.195460 0.018768
v -0.424802 2.633630 0.018768
v -0.436176 0.195460 0.035790
v -0.436176 2.633630 0.035790
v -0.453198 0.195460 0.047163
v -0.453198 2.633630 0.047163
v -0.473276 0.195460 0.051157
v -0.473276 2.633630 0.051157
v -0.493355 0.195460 0.047163
v -0.493355 2.633630 0.047163
v -0.510376 0.195460 0.035790
v -0.510376 2.633630 0.035790
v -0.521750 0.195460 0.018768
v -0.521750 2.633630 0.018768
v -0.525744 0.195460 -0.001310
v -0.525744 2.633630 -0.001310
v -0.521750 0.195460 -0.021389
v -0.521750 2.633630 -0.021389
v -0.510376 0.195460 -0.038411
v -0.510376 2.633630 -0.038411
v -0.493355 0.195460 -0.049784
v -0.493355 2.633630 -0.049784
v -0.146974 0.195460 -0.053778
v -0.146974 2.633630 -0.053778
v -0.126896 0.195460 -0.049784
v -0.126896 2.633630 -0.049784
v -0.109874 0.195460 -0.038411
v -0.109874 2.633630 -0.038411
v -0.098500 0.195460 -0.021389
v -0.098500 2.633630 -0.021389
v -0.094507 0.195460 -0.001310
v -0.094507 2.633630 -0.001310
v -0.098500 0.195460 0.018768
v -0.098500 2.633630 0.018768
v -0.109874 0.195460 0.035790
v -0.109874 2.633630 0.035790
v -0.126896 0.195460 0.047163
v -0.126896 2.633630 0.047163
v -0.146974 0.195460 0.051157
v -0.146974 2.633630 0.051157
v -0.167053 0.195460 0.047163
v -0.167053 2.633630 0.047163
v -0.184075 0.195460 0.035790
v -0.184075 2.633630 0.035790
v -0.195448 0.195460 0.018768
v -0.195448 2.633630 0.018768
v -0.199442 0.195460 -0.001310
v -0.199442 2.633630 -0.001310
v -0.195448 0.195460 -0.021389
v -0.195448 2.633630 -0.021389
v -0.184075 0.195460 -0.038411
v -0.184075 2.633630 -0.038411
v -0.167053 0.195460 -0.049784
v -0.167053 2.633630 -0.049784
v 0.204022 0.195460 -0.053778
v 0.204022 2.633630 -0.053778
v 0.224101 0.195460 -0.049784
v 0.224101 2.633630 -0.049784
v 0.241123 0.195460 -0.038411
v 0.241123 2.633630 -0.038411
v 0.252496 0.195460 -0.021389
v 0.252496 2.633630 -0.021389
v 0.256490 0.195460 -0.001310
v 0.256490 2.633630 -0.001310
v 0.252496 0.195460 0.018768
v 0.252496 2.633630 0.018768
v 0.241123 0.195460 0.035790
v 0.241123 2.633630 0.035790
v 0.224101 0.195460 0.047163
v 0.224101 2.633630 0.047163
v 0.204022 0.195460 0.051157
v 0.204022 2.633630 0.051157
v 0.183944 0.195460 0.047163
v 0.183944 2.633630 0.047163
v 0.166922 0.195460 0.035790
v 0.166922 2.633630 0.035790
v 0.155549 0.195460 0.018768
v 0.155549 2.633630 0.018768
v 0.151555 0.195460 -0.001310
v 0.151555 2.633630 -0.001310
v 0.155549 0.195460 -0.021389
v 0.155549 2.633630 -0.021389
v 0.166922 0.195460 -0.038411
v 0.166922 2.633630 -0.038411
v 0.183944 0.195460 -0.049784
v 0.183944 2.633630 -0.049784
v 0.544942 0.195460 -0.053778
v 0.544942 2.633630 -0.053778
v 0.565020 0.195460 -0.049784
v 0.565020 2.633630 -0.049784
v 0.582042 0.195460 -0.038411
v 0.582042 2.633630 -0.038411
v 0.593416 0.195460 -0.021389
v 0.593416 2.633630 -0.021389
v 0.597409 0.195460 -0.001310
v 0.597409 2.633630 -0.001310
v 0.593416 0.195460 0.018768
v 0.593416 2.633630 0.018768
v 0.582042 0.195460 0.035790
v 0.582042 2.633630 0.035790
v 0.565020 0.195460 0.047163
v 0.565020 2.633630 0.047163
v 0.544942 0.195460 0.051157
v 0.544942 2.633630 0.051157
v 0.524863 0.195460 0.047163
v 0.524863 2.633630 0.047163
v 0.507841 0.195460 0.035790
v 0.507841 2.633630 0.035790
v 0.496468 0.195460 0.018768
v 0.496468 2.633630 0.018768
v 0.492474 0.195460 -0.001310
v 0.492474 2.633630 -0.001310
v 0.496468 0.195460 -0.021389
v 0.496468 2.633630 -0.021389
v 0.507841 0.195460 -0.038411
v 0.507841 2.633630 -0.038411
v 0.524863 0.195460 -0.049784
v 0.524863 2.633630 -0.049784
v 0.871243 0.195460 -0.053778
v 0.871243 2.633630 -0.053778
v 0.891322 0.195460 -0.049784
v 0.891322 2.633630 -0.049784
v 0.908344 0.195460 -0.038411
v 0.908344 2.633630 -0.038411
v 0.919717 0.195460 -0.021389
v 0.919717 2.633630 -0.021389
v 0.923711 0.195460 -0.001310
v 0.923711 2.633630 -0.001310
v 0.919717 0.195460 0.018768
v 0.919717 2.633630 0.018768
v 0.908344 0.195460 0.035790
v 0.908344 2.633630 0.035790
v 0.891322 0.195460 0.047163
v 0.891322 2.633630 0.047163
v 0.871243 0.195460 0.051157
v 0.871243 2.633630 0.051157
v 0.851165 0.195460 0.047163
v 0.851165 2.633630 0.047163
v 0.834143 0.195460 0.035790
v 0.834143 2.633630 0.035790
v 0.822770 0.195460 0.018768
v 0.822770 2.633630 0.018768
v 0.818776 0.195460 -0.001310
v 0.818776 2.633630 -0.001310
v 0.822770 0.195460 -0.021389
v 0.822770 2.633630 -0.021389
v 0.834143 0.195460 -0.038411
v 0.834143 2.633630 -0.038411
v 0.851165 0.195460 -0.049784
v 0.851165 2.633630 -0.049784
v 1.222240 0.195460 -0.053778
v 1.222240 2.633630 -0.053778
v 1.242319 0.195460 -0.049784
v 1.242319 2.633630 -0.049784
v 1.259341 0.195460 -0.038411
v 1.259341 2.633630 -0.038411
v 1.270714 0.195460 -0.021389
v 1.270714 2.633630 -0.021389
v 1.274708 0.195460 -0.001310
v 1.274708 2.633630 -0.001310
v 1.270714 0.195460 0.018768
v 1.270714 2.633630 0.018768
v 1.259341 0.195460 0.035790
v 1.259341 2.633630 0.035790
v 1.242319 0.195460 0.047163
v 1.242319 2.633630 0.047163
v 1.222240 0.195460 0.051157
v 1.222240 2.633630 0.051157
v 1.202162 0.195460 0.047163
v 1.202162 2.633630 0.047163
v 1.185140 0.195460 0.035790
v 1.185140 2.633630 0.035790
v 1.173767 0.195460 0.018768
v 1.173767 2.633630 0.018768
v 1.169773 0.195460 -0.001310
v 1.169773 2.633630 -0.001310
v 1.173767 0.195460 -0.021389
v 1.173767 2.633630 -0.021389
v 1.185140 0.195460 -0.038411
v 1.185140 2.633630 -0.038411
v 1.202162 0.195460 -0.049784
v 1.202162 2.633630 -0.049784
v 1.563113 0.195460 -0.053778
v 1.563113 2.633630 -0.053778
v 1.583191 0.195460 -0.049784
v 1.583191 2.633630 -0.049784
v 1.600213 0.195460 -0.038411
v 1.600213 2.633630 -0.038411
v 1.611587 0.195460 -0.021389
v 1.611587 2.633630 -0.021389
v 1.615581 0.195460 -0.001310
v 1.615581 2.633630 -0.001310
v 1.611587 0.195460 0.018768
v 1.611587 2.633630 0.018768
v 1.600213 0.195460 0.035790
v 1.600213 2.633630 0.035790
v 1.583191 0.195460 0.047163
v 1.583191 2.633630 0.047163
v 1.563113 0.195460 0.051157
v 1.563113 2.633630 0.051157
v 1.543034 0.195460 0.047163
v 1.543034 2.633630 0.047163
v 1.526012 0.195460 0.035790
v 1.526012 2.633630 0.035790
v 1.514639 0.195460 0.018768
v 1.514639 2.633630 0.018768
v 1.510645 0.195460 -0.001310
v 1.510645 2.633630 -0.001310
v 1.514639 0.195460 -0.021389
v 1.514639 2.633630 -0.021389
v 1.526012 0.195460 -0.038411
v 1.526012 2.633630 -0.038411
v 1.543034 0.195460 -0.049784
v 1.543034 2.633630 -0.049784
v -2.003396 2.302384 0.060667
v -2.003396 2.526542 0.060667
v -2.003396 2.302384 -0.027876
v -2.003396 2.526542 -0.027876
v -1.848221 2.302384 0.060667
v -1.848221 2.526542 0.060667
v -1.848221 2.302384 -0.027876
v -1.848221 2.526542 -0.027876
v -2.003396 0.319071 0.060667
v -2.003396 0.543230 0.060667
v -2.003396 0.319071 -0.027876
v -2.003396 0.543230 -0.027876
v -1.848221 0.319071 0.060667
v -1.848221 0.543230 0.060667
v -1.848221 0.319071 -0.027876
v -1.848221 0.543230 -0.027876
vn -0.0016 1.0000 -0.0000
vn -0.0000 -0.0000 1.0000
vn -1.0000 -0.0000 -0.0000
vn -0.0000 -0.0000 -1.0000
vn 1.0000 -0.0000 -0.0000
vn -0.0000 1.0000 -0.0000
vn 0.5556 -0.0000 -0.8315
vn 0.0010 -1.0000 -0.0000
vn -0.0000 -1.0000 -0.0000
vn 0.8315 -0.0000 -0.5556
vn 0.9808 -0.0000 -0.1951
vn -0.8315 -0.0000 0.5556
vn 0.8315 -0.0000 0.5556
vn 0.5556 -0.0000 0.8315
vn 0.1951 -0.0000 0.9808
vn -0.1951 -0.0000 0.9808
vn -0.5556 -0.0000 0.8315
vn 0.1951 -0.0000 -0.9808
vn -0.9808 -0.0000 0.1951
vn -0.9808 -0.0000 -0.1951
vn -0.8315 -0.0000 -0.5556
vn -0.5556 -0.0000 -0.8315
vn -0.1951 -0.0000 -0.9808
vn 0.9808 -0.0000 0.1951
vt 0.845122 0.202076
vt 0.855779 0.202076
vt 0.856587 0.188901
vt 0.845137 0.189694
vt 0.821287 0.201986
vt 0.821273 0.201970
vt 0.821273 0.190492
vt 0.822023 0.191354
vt 0.765602 0.178355
vt 0.785228 0.172183
vt 0.791401 0.191809
vt 0.771774 0.197982
vt 0.862545 0.162716
vt 0.871290 0.171461
vt 0.870718 0.172032
vt 0.861974 0.163288
vt 0.861974 0.180777
vt 0.853229 0.172032
vt 0.811183 0.231581
vt 0.831758 0.231581
vt 0.831758 0.232744
vt 0.811183 0.232744
vt 0.870081 0.155180
vt 0.831779 0.172183
vt 0.832941 0.172183
vt 0.832941 0.192757
vt 0.831779 0.192757
vt 0.377979 0.847468
vt 0.367586 0.847468
vt 0.367586 0.764321
vt 0.377979 0.764321
vt 0.856605 0.202076
vt 0.856620 0.189694
vt 0.868070 0.188901
vt 0.867262 0.202076
vt 0.791750 0.192918
vt 0.772123 0.199091
vt 0.861402 0.181348
vt 0.852657 0.172604
vt 0.871290 0.172604
vt 0.862545 0.181348
vt 0.821273 0.190474
vt 0.821273 0.179819
vt 0.833640 0.179819
vt 0.833640 0.190474
vt 0.870080 0.155182
vt 0.878824 0.163926
vt 0.861402 0.162716
vt 0.852657 0.171461
vt 0.831779 0.192778
vt 0.832941 0.192778
vt 0.832941 0.213353
vt 0.831779 0.213353
vt 0.831779 0.213374
vt 0.831779 0.233948
vt 0.853868 0.188883
vt 0.845123 0.180138
vt 0.878824 0.180138
vt 0.870080 0.188883
vt 0.845104 0.166644
vt 0.821273 0.155180
vt 0.845122 0.180118
vt 0.845122 0.163925
vt 0.791771 0.191595
vt 0.831758 0.172183
vt 0.765602 0.243059
vt 0.789944 0.255753
vt 0.357192 0.847468
vt 0.357192 0.764321
vt 0.346799 0.847468
vt 0.346799 0.764321
vt 0.284439 0.847468
vt 0.274046 0.847468
vt 0.274046 0.764321
vt 0.284439 0.764321
vt 0.336406 0.847468
vt 0.326012 0.847468
vt 0.326012 0.764321
vt 0.336406 0.764321
vt 0.315619 0.847468
vt 0.315619 0.764321
vt 0.305226 0.847468
vt 0.305226 0.764321
vt 0.294833 0.847468
vt 0.294833 0.764321
vt 0.388372 0.847468
vt 0.388372 0.764321
vt 0.263653 0.847468
vt 0.263653 0.764321
vt 0.253259 0.847468
vt 0.253259 0.764321
vt 0.242866 0.847468
vt 0.242866 0.764321
vt 0.232473 0.847468
vt 0.232473 0.764321
vt 0.222079 0.847468
vt 0.222079 0.764321
vt 0.263653 0.762658
vt 0.248380 0.759621
vt 0.235432 0.750969
vt 0.226780 0.738021
vt 0.223742 0.722748
vt 0.226780 0.707475
vt 0.235432 0.694527
vt 0.248380 0.685876
vt 0.263653 0.682838
vt 0.278926 0.685876
vt 0.291873 0.694527
vt 0.300525 0.707475
vt 0.303563 0.722748
vt 0.300525 0.738021
vt 0.291873 0.750969
vt 0.278926 0.759621
vt 0.346799 0.762658
vt 0.362072 0.759621
vt 0.375020 0.750969
vt 0.383671 0.738021
vt 0.386709 0.722748
vt 0.383671 0.707475
vt 0.375020 0.694527
vt 0.362072 0.685876
vt 0.346799 0.682838
vt 0.331526 0.685876
vt 0.318578 0.694527
vt 0.309927 0.707475
vt 0.306889 0.722748
vt 0.309927 0.738021
vt 0.318578 0.750969
vt 0.331526 0.759621
vt 0.270611 0.610346
vt 0.265049 0.610346
vt 0.265049 0.565848
vt 0.270611 0.565848
vt 0.259486 0.610346
vt 0.259486 0.565848
vt 0.253924 0.610346
vt 0.253924 0.565848
vt 0.220550 0.610346
vt 0.214988 0.610346
vt 0.214988 0.565848
vt 0.220550 0.565848
vt 0.248362 0.610346
vt 0.242799 0.610346
vt 0.242799 0.565848
vt 0.248362 0.565848
vt 0.237237 0.610346
vt 0.237237 0.565848
vt 0.231675 0.610346
vt 0.231675 0.565848
vt 0.226112 0.610346
vt 0.226112 0.565848
vt 0.276173 0.610346
vt 0.276173 0.565848
vt 0.209426 0.610346
vt 0.209426 0.565848
vt 0.203863 0.610346
vt 0.203863 0.565848
vt 0.198301 0.610346
vt 0.198301 0.565848
vt 0.192739 0.610346
vt 0.192739 0.565848
vt 0.187176 0.610346
vt 0.187176 0.565848
vt 0.209426 0.564958
vt 0.201252 0.563332
vt 0.194322 0.558702
vt 0.189692 0.551772
vt 0.188066 0.543598
vt 0.189692 0.535425
vt 0.194322 0.528495
vt 0.201252 0.523865
vt 0.209426 0.522239
vt 0.217599 0.523865
vt 0.224529 0.528495
vt 0.229159 0.535425
vt 0.230785 0.543598
vt 0.229159 0.551772
vt 0.224529 0.558702
vt 0.217599 0.563332
vt 0.253924 0.564958
vt 0.262098 0.563332
vt 0.269027 0.558702
vt 0.273657 0.551772
vt 0.275283 0.543598
vt 0.273657 0.535425
vt 0.269027 0.528495
vt 0.262098 0.523865
vt 0.253924 0.522239
vt 0.245750 0.523865
vt 0.238821 0.528495
vt 0.234191 0.535425
vt 0.232565 0.543598
vt 0.234191 0.551772
vt 0.238821 0.558702
vt 0.245750 0.563332
vt 0.509871 0.431882
vt 0.517370 0.431882
vt 0.517370 0.439381
vt 0.509871 0.439381
vt 0.517370 0.446880
vt 0.509871 0.446880
vt 0.517370 0.454379
vt 0.509871 0.454379
vt 0.517370 0.461877
vt 0.509871 0.461877
vt 0.502372 0.446880
vt 0.502372 0.454379
vt 0.524869 0.446880
vt 0.524869 0.454379
vt 0.603506 0.619818
vt 0.611699 0.619818
vt 0.611699 0.628012
vt 0.603506 0.628012
vt 0.611699 0.636206
vt 0.603506 0.636206
vt 0.611699 0.644399
vt 0.603506 0.644399
vt 0.611699 0.652593
vt 0.603506 0.652593
vt 0.595312 0.636206
vt 0.595312 0.644399
vt 0.619893 0.636206
vt 0.619893 0.644399
s 0
f 37/1/1 30/2/1 29/3/1 40/4/1
f 37/5/2 38/6/2 19/7/2 30/8/2
f 1/9/3 2/10/3 4/11/3 3/12/3
f 15/13/4 13/14/4 8/15/4 7/16/4
f 7/16/5 8/15/5 6/17/5 5/18/5
f 11/19/2 12/20/2 2/21/2 1/22/2
f 39/23/4 40/23/4 29/13/4 20/13/4
f 10/24/6 4/25/6 2/26/6 12/27/6
f 44/28/7 46/29/7 45/30/7 43/31/7
f 38/32/8 39/33/8 20/34/8 19/35/8
f 3/12/4 4/11/4 10/36/4 9/37/4
f 5/18/2 6/17/2 16/38/2 14/39/2
f 8/15/6 13/40/6 16/41/6 6/17/6
f 33/42/9 15/43/9 14/44/9 36/45/9
f 33/46/4 35/47/4 13/14/4 15/13/4
f 20/48/9 18/16/9 17/18/9 19/49/9
f 29/13/4 31/16/4 18/16/4 20/13/4
f 31/16/5 32/18/5 17/18/5 18/16/5
f 32/18/2 30/39/2 19/39/2 17/18/2
f 21/50/9 23/51/9 24/52/9 22/53/9
f 27/12/4 26/37/4 23/37/4 21/12/4
f 28/9/3 27/12/3 21/12/3 22/9/3
f 25/19/2 28/22/2 22/22/2 24/19/2
f 11/19/2 1/22/2 28/22/2 25/19/2
f 1/9/3 3/12/3 27/12/3 28/9/3
f 3/12/4 9/37/4 26/37/4 27/12/4
f 9/54/5 11/55/5 25/55/5 26/54/5
f 5/18/2 14/39/2 30/39/2 32/18/2
f 7/16/5 5/18/5 32/18/5 31/16/5
f 15/13/4 7/16/4 31/16/4 29/13/4
f 14/44/3 15/43/3 29/43/3 30/44/3
f 14/39/2 16/38/2 34/56/2 36/57/2
f 13/40/6 35/58/6 34/59/6 16/41/6
f 33/42/3 36/45/3 34/60/3 35/61/3
f 39/23/3 38/62/3 37/63/3 40/23/3
f 12/20/5 11/19/5 9/64/5 10/65/5
f 23/37/5 26/37/5 25/66/5 24/67/5
f 46/29/10 48/68/10 47/69/10 45/30/10
f 48/68/11 50/70/11 49/71/11 47/69/11
f 62/72/12 64/73/12 63/74/12 61/75/12
f 52/76/13 54/77/13 53/78/13 51/79/13
f 54/77/14 56/80/14 55/81/14 53/78/14
f 56/80/15 58/82/15 57/83/15 55/81/15
f 58/82/16 60/84/16 59/85/16 57/83/16
f 60/84/17 62/72/17 61/75/17 59/85/17
f 42/86/18 44/28/18 43/31/18 41/87/18
f 64/73/19 66/88/19 65/89/19 63/74/19
f 66/88/20 68/90/20 67/91/20 65/89/20
f 68/90/21 70/92/21 69/93/21 67/91/21
f 70/92/22 72/94/22 71/95/22 69/93/22
f 72/94/23 42/96/23 41/97/23 71/95/23
f 42/98/6 72/99/6 70/100/6 68/101/6 66/102/6 64/103/6 62/104/6 60/105/6 58/106/6 56/107/6 54/108/6 52/109/6 50/110/6 48/111/6 46/112/6 44/113/6
f 41/114/9 43/115/9 45/116/9 47/117/9 49/118/9 51/119/9 53/120/9 55/121/9 57/122/9 59/123/9 61/124/9 63/125/9 65/126/9 67/127/9 69/128/9 71/129/9
f 50/70/24 52/76/24 51/79/24 49/71/24
f 76/130/7 78/131/7 77/132/7 75/133/7
f 78/131/10 80/134/10 79/135/10 77/132/10
f 80/134/11 82/136/11 81/137/11 79/135/11
f 94/138/12 96/139/12 95/140/12 93/141/12
f 84/142/13 86/143/13 85/144/13 83/145/13
f 86/143/14 88/146/14 87/147/14 85/144/14
f 88/146/15 90/148/15 89/149/15 87/147/15
f 90/148/16 92/150/16 91/151/16 89/149/16
f 92/150/17 94/138/17 93/141/17 91/151/17
f 74/152/18 76/130/18 75/133/18 73/153/18
f 96/139/19 98/154/19 97/155/19 95/140/19
f 98/154/20 100/156/20 99/157/20 97/155/20
f 100/156/21 102/158/21 101/159/21 99/157/21
f 102/158/22 104/160/22 103/161/22 101/159/22
f 104/160/23 74/162/23 73/163/23 103/161/23
f 74/164/6 104/165/6 102/166/6 100/167/6 98/168/6 96/169/6 94/170/6 92/171/6 90/172/6 88/173/6 86/174/6 84/175/6 82/176/6 80/177/6 78/178/6 76/179/6
f 73/180/9 75/181/9 77/182/9 79/183/9 81/184/9 83/185/9 85/186/9 87/187/9 89/188/9 91/189/9 93/190/9 95/191/9 97/192/9 99/193/9 101/194/9 103/195/9
f 82/136/24 84/142/24 83/145/24 81/137/24
f 108/130/7 110/131/7 109/132/7 107/133/7
f 110/131/10 112/134/10 111/135/10 109/132/10
f 112/134/11 114/136/11 113/137/11 111/135/11
f 126/138/12 128/139/12 127/140/12 125/141/12
f 116/142/13 118/143/13 117/144/13 115/145/13
f 118/143/14 120/146/14 119/147/14 117/144/14
f 120/146/15 122/148/15 121/149/15 119/147/15
f 122/148/16 124/150/16 123/151/16 121/149/16
f 124/150/17 126/138/17 125/141/17 123/151/17
f 106/152/18 108/130/18 107/133/18 105/153/18
f 128/139/19 130/154/19 129/155/19 127/140/19
f 130/154/20 132/156/20 131/157/20 129/155/20
f 132/156/21 134/158/21 133/159/21 131/157/21
f 134/158/22 136/160/22 135/161/22 133/159/22
f 136/160/23 106/162/23 105/163/23 135/161/23
f 106/164/6 136/165/6 134/166/6 132/167/6 130/168/6 128/169/6 126/170/6 124/171/6 122/172/6 120/173/6 118/174/6 116/175/6 114/176/6 112/177/6 110/178/6 108/179/6
f 105/180/9 107/181/9 109/182/9 111/183/9 113/184/9 115/185/9 117/186/9 119/187/9 121/188/9 123/189/9 125/190/9 127/191/9 129/192/9 131/193/9 133/194/9 135/195/9
f 114/136/24 116/142/24 115/145/24 113/137/24
f 140/130/7 142/131/7 141/132/7 139/133/7
f 142/131/10 144/134/10 143/135/10 141/132/10
f 144/134/11 146/136/11 145/137/11 143/135/11
f 158/138/12 160/139/12 159/140/12 157/141/12
f 148/142/13 150/143/13 149/144/13 147/145/13
f 150/143/14 152/146/14 151/147/14 149/144/14
f 152/146/15 154/148/15 153/149/15 151/147/15
f 154/148/16 156/150/16 155/151/16 153/149/16
f 156/150/17 158/138/17 157/141/17 155/151/17
f 138/152/18 140/130/18 139/133/18 137/153/18
f 160/139/19 162/154/19 161/155/19 159/140/19
f 162/154/20 164/156/20 163/157/20 161/155/20
f 164/156/21 166/158/21 165/159/21 163/157/21
f 166/158/22 168/160/22 167/161/22 165/159/22
f 168/160/23 138/162/23 137/163/23 167/161/23
f 138/164/6 168/165/6 166/166/6 164/167/6 162/168/6 160/169/6 158/170/6 156/171/6 154/172/6 152/173/6 150/174/6 148/175/6 146/176/6 144/177/6 142/178/6 140/179/6
f 137/180/9 139/181/9 141/182/9 143/183/9 145/184/9 147/185/9 149/186/9 151/187/9 153/188/9 155/189/9 157/190/9 159/191/9 161/192/9 163/193/9 165/194/9 167/195/9
f 146/136/24 148/142/24 147/145/24 145/137/24
f 172/130/7 174/131/7 173/132/7 171/133/7
f 174/131/10 176/134/10 175/135/10 173/132/10
f 176/134/11 178/136/11 177/137/11 175/135/11
f 190/138/12 192/139/12 191/140/12 189/141/12
f 180/142/13 182/143/13 181/144/13 179/145/13
f 182/143/14 184/146/14 183/147/14 181/144/14
f 184/146/15 186/148/15 185/149/15 183/147/15
f 186/148/16 188/150/16 187/151/16 185/149/16
f 188/150/17 190/138/17 189/141/17 187/151/17
f 170/152/18 172/130/18 171/133/18 169/153/18
f 192/139/19 194/154/19 193/155/19 191/140/19
f 194/154/20 196/156/20 195/157/20 193/155/20
f 196/156/21 198/158/21 197/159/21 195/157/21
f 198/158/22 200/160/22 199/161/22 197/159/22
f 200/160/23 170/162/23 169/163/23 199/161/23
f 170/164/6 200/165/6 198/166/6 196/167/6 194/168/6 192/169/6 190/170/6 188/171/6 186/172/6 184/173/6 182/174/6 180/175/6 178/176/6 176/177/6 174/178/6 172/179/6
f 169/180/9 171/181/9 173/182/9 175/183/9 177/184/9 179/185/9 181/186/9 183/187/9 185/188/9 187/189/9 189/190/9 191/191/9 193/192/9 195/193/9 197/194/9 199/195/9
f 178/136/24 180/142/24 179/145/24 177/137/24
f 204/130/7 206/131/7 205/132/7 203/133/7
f 206/131/10 208/134/10 207/135/10 205/132/10
f 208/134/11 210/136/11 209/137/11 207/135/11
f 222/138/12 224/139/12 223/140/12 221/141/12
f 212/142/13 214/143/13 213/144/13 211/145/13
f 214/143/14 216/146/14 215/147/14 213/144/14
f 216/146/15 218/148/15 217/149/15 215/147/15
f 218/148/16 220/150/16 219/151/16 217/149/16
f 220/150/17 222/138/17 221/141/17 219/151/17
f 202/152/18 204/130/18 203/133/18 201/153/18
f 224/139/19 226/154/19 225/155/19 223/140/19
f 226/154/20 228/156/20 227/157/20 225/155/20
f 228/156/21 230/158/21 229/159/21 227/157/21
f 230/158/22 232/160/22 231/161/22 229/159/22
f 232/160/23 202/162/23 201/163/23 231/161/23
f 202/164/6 232/165/6 230/166/6 228/167/6 226/168/6 224/169/6 222/170/6 220/171/6 218/172/6 216/173/6 214/174/6 212/175/6 210/176/6 208/177/6 206/178/6 204/179/6
f 201/180/9 203/181/9 205/182/9 207/183/9 209/184/9 211/185/9 213/186/9 215/187/9 217/188/9 219/189/9 221/190/9 223/191/9 225/192/9 227/193/9 229/194/9 231/195/9
f 210/136/24 212/142/24 211/145/24 209/137/24
f 236/130/7 238/131/7 237/132/7 235/133/7
f 238/131/10 240/134/10 239/135/10 237/132/10
f 240/134/11 242/136/11 241/137/11 239/135/11
f 254/138/12 256/139/12 255/140/12 253/141/12
f 244/142/13 246/143/13 245/144/13 243/145/13
f 246/143/14 248/146/14 247/147/14 245/144/14
f 248/146/15 250/148/15 249/149/15 247/147/15
f 250/148/16 252/150/16 251/151/16 249/149/16
f 252/150/17 254/138/17 253/141/17 251/151/17
f 234/152/18 236/130/18 235/133/18 233/153/18
f 256/139/19 258/154/19 257/155/19 255/140/19
f 258/154/20 260/156/20 259/157/20 257/155/20
f 260/156/21 262/158/21 261/159/21 259/157/21
f 262/158/22 264/160/22 263/161/22 261/159/22
f 264/160/23 234/162/23 233/163/23 263/161/23
f 234/164/6 264/165/6 262/166/6 260/167/6 258/168/6 256/169/6 254/170/6 252/171/6 250/172/6 248/173/6 246/174/6 244/175/6 242/176/6 240/177/6 238/178/6 236/179/6
f 233/180/9 235/181/9 237/182/9 239/183/9 241/184/9 243/185/9 245/186/9 247/187/9 249/188/9 251/189/9 253/190/9 255/191/9 257/192/9 259/193/9 261/194/9 263/195/9
f 242/136/24 244/142/24 243/145/24 241/137/24
f 268/130/7 270/131/7 269/132/7 267/133/7
f 270/131/10 272/134/10 271/135/10 269/132/10
f 272/134/11 274/136/11 273/137/11 271/135/11
f 286/138/12 288/139/12 287/140/12 285/141/12
f 276/142/13 278/143/13 277/144/13 275/145/13
f 278/143/14 280/146/14 279/147/14 277/144/14
f 280/146/15 282/148/15 281/149/15 279/147/15
f 282/148/16 284/150/16 283/151/16 281/149/16
f 284/150/17 286/138/17 285/141/17 283/151/17
f 266/152/18 268/130/18 267/133/18 265/153/18
f 288/139/19 290/154/19 289/155/19 287/140/19
f 290/154/20 292/156/20 291/157/20 289/155/20
f 292/156/21 294/158/21 293/159/21 291/157/21
f 294/158/22 296/160/22 295/161/22 293/159/22
f 296/160/23 266/162/23 265/163/23 295/161/23
f 266/164/6 296/165/6 294/166/6 292/167/6 290/168/6 288/169/6 286/170/6 284/171/6 282/172/6 280/173/6 278/174/6 276/175/6 274/176/6 272/177/6 270/178/6 268/179/6
f 265/180/9 267/181/9 269/182/9 271/183/9 273/184/9 275/185/9 277/186/9 279/187/9 281/188/9 283/189/9 285/190/9 287/191/9 289/192/9 291/193/9 293/194/9 295/195/9
f 274/136/24 276/142/24 275/145/24 273/137/24
f 300/130/7 302/131/7 301/132/7 299/133/7
f 302/131/10 304/134/10 303/135/10 301/132/10
f 304/134/11 306/136/11 305/137/11 303/135/11
f 318/138/12 320/139/12 319/140/12 317/141/12
f 308/142/13 310/143/13 309/144/13 307/145/13
f 310/143/14 312/146/14 311/147/14 309/144/14
f 312/146/15 314/148/15 313/149/15 311/147/15
f 314/148/16 316/150/16 315/151/16 313/149/16
f 316/150/17 318/138/17 317/141/17 315/151/17
f 298/152/18 300/130/18 299/133/18 297/153/18
f 320/139/19 322/154/19 321/155/19 319/140/19
f 322/154/20 324/156/20 323/157/20 321/155/20
f 324/156/21 326/158/21 325/159/21 323/157/21
f 326/158/22 328/160/22 327/161/22 325/159/22
f 328/160/23 298/162/23 297/163/23 327/161/23
f 298/164/6 328/165/6 326/166/6 324/167/6 322/168/6 320/169/6 318/170/6 316/171/6 314/172/6 312/173/6 310/174/6 308/175/6 306/176/6 304/177/6 302/178/6 300/179/6
f 297/180/9 299/181/9 301/182/9 303/183/9 305/184/9 307/185/9 309/186/9 311/187/9 313/188/9 315/189/9 317/190/9 319/191/9 321/192/9 323/193/9 325/194/9 327/195/9
f 306/136/24 308/142/24 307/145/24 305/137/24
f 332/130/7 334/131/7 333/132/7 331/133/7
f 334/131/10 336/134/10 335/135/10 333/132/10
f 336/134/11 338/136/11 337/137/11 335/135/11
f 350/138/12 352/139/12 351/140/12 349/141/12
f 340/142/13 342/143/13 341/144/13 339/145/13
f 342/143/14 344/146/14 343/147/14 341/144/14
f 344/146/15 346/148/15 345/149/15 343/147/15
f 346/148/16 348/150/16 347/151/16 345/149/16
f 348/150/17 350/138/17 349/141/17 347/151/17
f 330/152/18 332/130/18 331/133/18 329/153/18
f 352/139/19 354/154/19 353/155/19 351/140/19
f 354/154/20 356/156/20 355/157/20 353/155/20
f 356/156/21 358/158/21 357/159/21 355/157/21
f 358/158/22 360/160/22 359/161/22 357/159/22
f 360/160/23 330/162/23 329/163/23 359/161/23
f 330/164/6 360/165/6 358/166/6 356/167/6 354/168/6 352/169/6 350/170/6 348/171/6 346/172/6 344/173/6 342/174/6 340/175/6 338/176/6 336/177/6 334/178/6 332/179/6
f 329/180/9 331/181/9 333/182/9 335/183/9 337/184/9 339/185/9 341/186/9 343/187/9 345/188/9 347/189/9 349/190/9 351/191/9 353/192/9 355/193/9 357/194/9 359/195/9
f 338/136/24 340/142/24 339/145/24 337/137/24
f 364/130/7 366/131/7 365/132/7 363/133/7
f 366/131/10 368/134/10 367/135/10 365/132/10
f 368/134/11 370/136/11 369/137/11 367/135/11
f 382/138/12 384/139/12 383/140/12 381/141/12
f 372/142/13 374/143/13 373/144/13 371/145/13
f 374/143/14 376/146/14 375/147/14 373/144/14
f 376/146/15 378/148/15 377/149/15 375/147/15
f 378/148/16 380/150/16 379/151/16 377/149/16
f 380/150/17 382/138/17 381/141/17 379/151/17
f 362/152/18 364/130/18 363/133/18 361/153/18
f 384/139/19 386/154/19 385/155/19 383/140/19
f 386/154/20 388/156/20 387/157/20 385/155/20
f 388/156/21 390/158/21 389/159/21 387/157/21
f 390/158/22 392/160/22 391/161/22 389/159/22
f 392/160/23 362/162/23 361/163/23 391/161/23
f 362/164/6 392/165/6 390/166/6 388/167/6 386/168/6 384/169/6 382/170/6 380/171/6 378/172/6 376/173/6 374/174/6 372/175/6 370/176/6 368/177/6 366/178/6 364/179/6
f 361/180/9 363/181/9 365/182/9 367/183/9 369/184/9 371/185/9 373/186/9 375/187/9 377/188/9 379/189/9 381/190/9 383/191/9 385/192/9 387/193/9 389/194/9 391/195/9
f 370/136/24 372/142/24 371/145/24 369/137/24
f 393/196/3 394/197/3 396/198/3 395/199/3
f 395/199/4 396/198/4 400/200/4 399/201/4
f 399/201/5 400/200/5 398/202/5 397/203/5
f 397/203/2 398/202/2 394/204/2 393/205/2
f 395/206/9 399/201/9 397/203/9 393/207/9
f 400/200/6 396/208/6 394/209/6 398/202/6
f 401/210/3 402/211/3 404/212/3 403/213/3
f 403/213/4 404/212/4 408/214/4 407/215/4
f 407/215/5 408/214/5 406/216/5 405/217/5
f 405/217/2 406/216/2 402/218/2 401/219/2
f 403/220/9 407/215/9 405/217/9 401/221/9
f 408/214/6 404/222/6 402/223/6 406/216/6
