# Blender 5.0.1
# www.blender.org
o Banana
v -4.465348 2.849500 -0.168472
v -4.235904 2.874216 -0.093066
v 1.000000 0.295980 -0.193076
v 1.000000 0.495475 -0.230982
v -4.485876 2.859949 0.000000
v -4.199293 2.874846 0.000000
v 1.000000 0.200043 0.000000
v 1.000000 0.495475 0.000000
v -4.019024 2.234840 -0.099165
v -3.939311 2.353212 -0.117701
v -3.833743 2.407332 0.000000
v -4.032470 2.254556 0.000000
v -0.273320 0.335638 -0.608057
v -0.273320 0.597821 0.000000
v -0.543038 -0.087807 -0.611493
v -0.543038 -0.412178 0.000000
v -3.703026 1.339007 -0.384245
v -3.949084 1.385071 0.000000
v -3.168911 1.592408 -0.499058
v -2.932259 1.888995 0.000000
v -1.211495 0.427552 -0.630873
v -1.211495 0.808992 0.000000
v -1.664123 0.040946 -0.634246
v -1.664123 -0.457787 0.000000
v -2.688959 0.483989 -0.686156
v -2.688959 0.074559 0.000000
v -2.117265 0.808577 -0.652460
v -2.117265 1.143216 0.000000
v 0.363340 0.415556 -0.419520
v 0.363340 0.546648 0.000000
v 0.228481 0.036596 -0.402284
v 0.228481 -0.269360 0.000000
v -4.074571 2.047517 -0.287818
v -4.109246 2.019848 0.000000
v -3.666231 2.202082 -0.350072
v -3.505245 2.375079 0.000000
v -4.321594 2.705387 -0.123381
v -4.340462 2.718009 0.000000
v -4.208262 2.765292 -0.076504
v -4.155483 2.790053 0.000000
v -4.465348 2.849500 0.168472
v -4.235904 2.874216 0.093066
v 1.000000 0.295980 0.193076
v 1.000000 0.495475 0.230982
v -4.019024 2.234840 0.099165
v -3.939311 2.353212 0.117701
v -0.273320 0.335638 0.608057
v -0.543038 -0.087807 0.611493
v -3.703026 1.339007 0.384245
v -3.168911 1.592408 0.499058
v -1.211495 0.427552 0.630873
v -1.664123 0.040946 0.634246
v -2.688959 0.483989 0.686156
v -2.117265 0.808577 0.652460
v 0.363340 0.415556 0.419520
v 0.228481 0.036596 0.402284
v -4.074571 2.047517 0.287818
v -3.666231 2.202082 0.350072
v -4.321594 2.705387 0.123381
v -4.208262 2.765292 0.076504
vn -0.6551 0.2380 -0.7171
vn 0.4030 0.6760 -0.6169
vn 0.7588 -0.3355 -0.5583
vn 0.6145 0.5232 -0.5904
vn -0.9353 0.3537 -0.0000
vn 0.6358 0.7718 -0.0000
vn 0.8103 -0.5860 -0.0000
vn 0.7166 0.6975 -0.0000
vn -0.7923 0.2643 -0.5499
vn 0.0784 0.5556 -0.8278
vn 0.3620 0.9322 -0.0000
vn -0.9848 -0.1738 -0.0000
vn 0.1893 0.4365 -0.8796
vn 0.1009 0.9949 -0.0000
vn 0.1056 -0.5141 -0.8512
vn 0.1077 -0.9942 -0.0000
vn -0.5718 -0.3137 -0.7581
vn -0.8727 -0.4883 -0.0000
vn 0.1889 0.4059 -0.8942
vn 0.6350 0.7725 -0.0000
vn 0.1431 0.4598 -0.8764
vn 0.2800 0.9600 -0.0000
vn -0.1112 -0.4965 -0.8609
vn -0.2112 -0.9774 -0.0000
vn -0.3698 -0.3904 -0.8431
vn -0.5517 -0.8340 -0.0000
vn 0.2083 0.4371 -0.8750
vn 0.5094 0.8605 -0.0000
vn 0.2138 0.5273 -0.8223
vn 0.0205 0.9998 -0.0000
vn 0.3310 -0.5320 -0.7794
vn 0.3558 -0.9346 -0.0000
vn -0.7248 0.1293 -0.6767
vn -0.9999 -0.0116 -0.0000
vn 0.0548 0.5536 -0.8310
vn 0.4266 0.9044 -0.0000
vn -0.4114 -0.4568 -0.7887
vn -0.7653 -0.6437 -0.0000
vn 0.4915 0.2108 -0.8450
vn 0.8832 0.4689 -0.0000
vn -0.6551 0.2380 0.7171
vn 0.4030 0.6760 0.6169
vn 0.7588 -0.3355 0.5583
vn 0.6145 0.5232 0.5904
vn -0.7923 0.2643 0.5499
vn 0.0784 0.5556 0.8278
vn 0.1893 0.4365 0.8796
vn 0.1056 -0.5141 0.8512
vn -0.5718 -0.3137 0.7581
vn 0.1889 0.4059 0.8942
vn 0.1431 0.4598 0.8764
vn -0.1112 -0.4965 0.8609
vn -0.3698 -0.3904 0.8431
vn 0.2083 0.4371 0.8750
vn 0.2138 0.5273 0.8223
vn 0.3310 -0.5320 0.7794
vn -0.7248 0.1293 0.6767
vn 0.0548 0.5536 0.8310
vn -0.4114 -0.4568 0.7887
vn 0.4915 0.2108 0.8450
vt 0.673116 0.064888
vt 0.673116 0.015076
vt 0.686316 0.025955
vt 0.692403 0.044824
vt 0.134189 0.135181
vt 0.071359 0.128783
vt 0.037385 0.027843
vt 0.068845 0.019521
vt 0.699884 0.012570
vt 0.685112 0.000135
vt 0.097446 0.000135
vt 0.204424 0.098362
vt 0.703004 0.146059
vt 0.708872 0.176941
vt 0.673116 0.176941
vt 0.673116 0.131208
vt 0.038587 0.985870
vt 0.093528 0.900917
vt 0.104051 0.917564
vt 0.055035 0.999865
vt 0.071487 0.831456
vt 0.066118 0.896178
vt 0.036680 0.888738
vt 0.008778 0.841308
vt 0.021329 0.973706
vt 0.106079 0.224705
vt 0.004078 0.234551
vt 0.001375 0.131295
vt 0.210712 0.413857
vt 0.174996 0.247677
vt 0.271648 0.204171
vt 0.336355 0.376302
vt 0.128594 0.367522
vt 0.119584 0.863074
vt 0.098782 0.720557
vt 0.174452 0.770282
vt 0.216935 0.829812
vt 0.141787 0.896552
vt 0.125693 0.522466
vt 0.000135 0.722241
vt 0.013259 0.545001
vt 0.011974 0.387930
vt 0.204121 0.578189
vt 0.328324 0.568389
vt 0.000135 0.028291
vt 0.719185 0.034023
vt 0.722389 0.065401
vt 0.008378 0.966063
vt 0.673116 0.066184
vt 0.692403 0.086248
vt 0.686316 0.105118
vt 0.673116 0.115997
vt 0.470680 0.864819
vt 0.405335 0.980479
vt 0.373876 0.972157
vt 0.407849 0.871217
vt 0.699884 0.118502
vt 0.685112 0.130937
vt 0.540914 0.901638
vt 0.433936 0.999864
vt 0.678984 0.192063
vt 0.708872 0.177212
vt 0.708872 0.222944
vt 0.673116 0.222944
vt 0.375077 0.014130
vt 0.391525 0.000135
vt 0.440542 0.082436
vt 0.430018 0.099083
vt 0.407977 0.168544
vt 0.345269 0.158692
vt 0.373170 0.111262
vt 0.402608 0.103822
vt 0.357819 0.026294
vt 0.337866 0.868705
vt 0.340568 0.765449
vt 0.442569 0.775295
vt 0.547202 0.586143
vt 0.672845 0.623698
vt 0.608138 0.795829
vt 0.511486 0.752322
vt 0.465085 0.632478
vt 0.456074 0.136926
vt 0.510942 0.229718
vt 0.435272 0.279443
vt 0.478278 0.103448
vt 0.553425 0.170188
vt 0.462183 0.477534
vt 0.349749 0.454999
vt 0.336626 0.277759
vt 0.348465 0.612070
vt 0.540611 0.421810
vt 0.664814 0.431610
vt 0.336626 0.971709
vt 0.719185 0.097049
vt 0.722389 0.065672
vt 0.344868 0.033937
s 1
f 5/1/5 6/2/6 2/3/2 1/4/1
f 31/5/31 29/6/29 4/7/4 3/8/3
f 39/9/39 2/3/2 6/2/6 40/10/40
f 31/5/31 3/8/3 7/11/7 32/12/32
f 3/13/3 4/14/4 8/15/8 7/16/7
f 37/17/37 9/18/9 12/19/12 38/20/38
f 35/21/35 10/22/10 11/23/11 36/24/36
f 37/17/37 39/25/39 10/22/10 9/18/9
f 29/6/29 13/26/13 14/27/14 30/28/30
f 23/29/23 15/30/15 16/31/16 24/32/24
f 23/29/23 21/33/21 13/26/13 15/30/15
f 33/34/33 35/21/35 19/35/19 17/36/17
f 33/34/33 17/36/17 18/37/18 34/38/34
f 27/39/27 19/35/19 20/40/20 28/41/28
f 13/26/13 21/33/21 22/42/22 14/27/14
f 25/43/25 27/39/27 21/33/21 23/29/23
f 25/43/25 23/29/23 24/32/24 26/44/26
f 17/36/17 25/43/25 26/44/26 18/37/18
f 17/36/17 19/35/19 27/39/27 25/43/25
f 21/33/21 27/39/27 28/41/28 22/42/22
f 4/7/4 29/6/29 30/28/30 8/45/8
f 15/30/15 31/5/31 32/12/32 16/31/16
f 15/30/15 13/26/13 29/6/29 31/5/31
f 9/18/9 33/34/33 34/38/34 12/19/12
f 9/18/9 10/22/10 35/21/35 33/34/33
f 19/35/19 35/21/35 36/24/36 20/40/20
f 1/4/1 2/3/2 39/9/39 37/46/37
f 1/4/1 37/46/37 38/47/38 5/1/5
f 10/22/10 39/25/39 40/48/40 11/23/11
f 5/49/5 41/50/41 42/51/42 6/52/6
f 56/53/56 43/54/43 44/55/44 55/56/55
f 60/57/60 40/58/40 6/52/6 42/51/42
f 56/53/56 32/59/32 7/60/7 43/54/43
f 43/61/43 7/62/7 8/63/8 44/64/44
f 59/65/59 38/66/38 12/67/12 45/68/45
f 58/69/58 36/70/36 11/71/11 46/72/46
f 59/65/59 45/68/45 46/72/46 60/73/60
f 55/56/55 30/74/30 14/75/14 47/76/47
f 52/77/52 24/78/24 16/79/16 48/80/48
f 52/77/52 48/80/48 47/76/47 51/81/51
f 57/82/57 49/83/49 50/84/50 58/69/58
f 57/82/57 34/85/34 18/86/18 49/83/49
f 54/87/54 28/88/28 20/89/20 50/84/50
f 47/76/47 14/75/14 22/90/22 51/81/51
f 53/91/53 52/77/52 51/81/51 54/87/54
f 53/91/53 26/92/26 24/78/24 52/77/52
f 49/83/49 18/86/18 26/92/26 53/91/53
f 49/83/49 53/91/53 54/87/54 50/84/50
f 51/81/51 22/90/22 28/88/28 54/87/54
f 44/55/44 8/93/8 30/74/30 55/56/55
f 48/80/48 16/79/16 32/59/32 56/53/56
f 48/80/48 56/53/56 55/56/55 47/76/47
f 45/68/45 12/67/12 34/85/34 57/82/57
f 45/68/45 57/82/57 58/69/58 46/72/46
f 50/84/50 20/89/20 36/70/36 58/69/58
f 41/50/41 59/94/59 60/57/60 42/51/42
f 41/50/41 5/49/5 38/95/38 59/94/59
f 46/72/46 11/71/11 40/96/40 60/73/60
