# Blender 5.0.0
# www.blender.org
o Cube.001
v -0.398149 0.000000 0.551743
v -0.398149 3.002498 0.551743
v -0.456461 0.000000 -0.035875
v -0.456461 3.002498 -0.035875
v -0.106023 0.000000 -0.183914
v -0.106023 3.002498 -0.183914
v -0.106023 0.000000 0.551743
v -0.106023 3.002498 0.551743
v -0.299427 0.000000 -0.183914
v -0.336712 3.002498 0.551743
v -0.299427 3.002498 -0.183914
v -0.336712 0.000000 0.551743
v -0.483143 0.000000 0.183914
v -0.483143 3.002498 0.183914
v -0.106023 0.000000 0.183914
v -0.336712 0.000000 0.183914
v -0.228981 1.501249 0.551743
v -0.317821 1.501249 0.111868
v -0.030757 1.501249 0.551743
v -0.106023 1.501249 -0.036172
v -0.224161 1.501249 -0.036172
v -0.174124 1.501249 0.551743
v -0.315140 1.501249 0.263309
v -0.331914 2.251873 0.551743
v -0.390226 2.251873 0.041880
v -0.039788 2.251873 0.551743
v -0.106023 2.251873 -0.106160
v -0.233192 2.251873 -0.106160
v -0.270478 2.251873 0.551743
v -0.416908 2.251873 0.183914
v -0.357342 0.750624 0.070033
v -0.056258 0.750624 0.551743
v -0.106023 0.750624 -0.086963
v -0.225801 0.750624 -0.051526
v -0.286948 0.750624 0.551743
v -0.407885 0.750624 0.183914
v -0.348384 0.750624 0.551743
v -1.021524 3.041263 0.800167
v -1.086525 3.460876 0.332844
v -0.838274 3.002078 -0.517720
v -0.995816 3.460876 -0.878085
v -0.106023 3.283355 -1.156256
v -0.106023 3.279982 0.800167
v -0.988659 3.283355 -0.849513
v -1.050354 3.279982 0.800167
v -0.106023 3.002078 -0.702293
v -0.106023 3.460876 -1.184828
v -0.106023 2.918035 0.800167
v -0.106023 3.460876 0.332844
v -1.050354 3.460956 0.800167
v -0.106023 3.460956 -1.199833
v -0.106023 3.460956 0.800167
v -1.019230 3.460956 -0.893090
v -0.913495 3.099009 -0.667250
v -1.050354 3.099009 0.800167
v -0.106023 3.099009 0.800167
v -0.106023 3.099009 -0.973993
v -0.609940 3.002078 -0.702293
v -0.609940 3.279982 0.800167
v -0.652581 3.283355 -1.059962
v -0.586525 3.460876 0.332844
v -0.586525 3.460876 -1.088533
v -0.609940 3.013480 0.800167
v -0.609940 3.460956 -1.103538
v -0.609940 3.460956 0.800167
v -0.609940 3.099009 -0.877698
v -0.609940 3.099009 0.800167
v -0.878582 2.991792 0.192949
v -1.086525 3.460876 0.192949
v -1.036728 3.279982 0.192949
v -0.106023 3.043127 0.192949
v -0.106023 2.918035 0.192949
v -1.109940 3.460956 0.192949
v -1.004205 3.099009 0.192949
v -0.609940 2.918035 0.192949
v -0.609940 3.043127 0.192949
v -1.086525 3.460876 -0.503442
v -1.036728 3.279982 -0.503442
v -1.109940 3.460956 -0.503442
v -1.004205 3.099009 -0.503442
v -0.878582 2.991792 -0.503442
v -0.106023 3.043127 -0.503442
v -0.106023 2.918035 -0.503442
v -0.609940 2.918035 -0.503442
v -0.609940 3.043127 -0.503442
v -0.994261 3.002636 0.496558
v -0.106023 3.318138 0.290487
v -0.106023 2.918035 0.496558
v -0.609940 2.965757 0.496558
v -0.609940 3.318138 0.290487
v -1.086525 3.460876 0.290487
v -1.073334 3.279982 0.496558
v -1.109940 3.460956 0.496558
v -1.057072 3.099009 0.496558
v -0.790350 3.002078 -0.556460
v -1.004997 3.279982 0.800167
v -0.981582 3.460876 0.332844
v -1.004997 3.460956 0.800167
v -1.004997 3.099009 0.800167
v -0.918121 3.283355 -0.893684
v -0.909911 3.460876 -0.922255
v -1.004997 3.013480 0.800167
v -0.933326 3.460956 -0.937260
v -0.849783 3.099009 -0.711420
v -0.822198 2.976312 0.192949
v -1.004997 3.318138 0.192949
v -1.004997 3.318138 -0.503442
v -0.822198 2.976312 -0.503442
v -0.913597 2.994896 0.496558
v -1.004997 3.318138 0.290487
v -1.012164 3.460876 -0.822867
v -0.997322 3.282747 -0.787144
v -1.035578 3.460956 -0.822867
v -0.929843 3.099009 -0.637728
v -0.845538 3.000225 -0.515147
v -0.106023 3.318138 -1.074328
v -0.106023 2.986932 -0.666456
v -0.609940 2.986932 -0.666456
v -0.609940 3.318138 -0.995388
v -0.796090 2.997435 -0.546905
v -0.946243 3.318138 -0.859077
v -0.506656 3.441031 0.594900
v -0.484407 3.729584 0.556538
v -0.510319 3.441031 0.487787
v -0.486618 3.729584 0.526456
v -0.395896 3.441031 0.597469
v -0.417554 3.729584 0.574875
v -0.394769 3.441031 0.484658
v -0.416873 3.729584 0.506783
v -0.449150 3.441031 0.459276
v -0.449697 3.729584 0.491462
v -0.449150 3.441031 0.619726
v -0.449697 3.729584 0.588309
v -0.529375 3.441031 0.539501
v -0.498121 3.729584 0.539886
v -0.368925 3.441031 0.539501
v -0.401274 3.729584 0.539886
v -0.449150 3.441031 0.539501
v -0.524700 3.556452 0.612437
v -0.529541 3.556452 0.470887
v -0.376842 3.556452 0.466752
v -0.378332 3.556452 0.615832
v -0.448707 3.556452 0.645245
v -0.448707 3.556452 0.433210
v -0.342689 3.556452 0.539227
v -0.554724 3.556452 0.539227
v -0.496029 3.627448 0.584571
v -0.498998 3.627448 0.497740
v -0.405327 3.627448 0.495203
v -0.406241 3.627448 0.586654
v -0.449411 3.627448 0.604697
v -0.449411 3.627448 0.474627
v -0.384377 3.627448 0.539662
v -0.514446 3.627448 0.539662
v -0.496628 3.678516 0.562016
v -0.499636 3.678516 0.521694
v -0.404732 3.678516 0.494609
v -0.405658 3.678516 0.587264
v -0.449397 3.678516 0.605544
v -0.449397 3.678516 0.473762
v -0.383505 3.678516 0.539653
v -0.515288 3.678516 0.539653
v -0.710104 3.674998 0.589011
v -0.710703 3.726066 0.582883
v -0.729606 3.726066 0.543501
v -0.713751 3.726066 0.510118
v -0.713112 3.674998 0.501036
v -0.728764 3.674998 0.543510
v -0.666778 3.727825 0.541572
v -0.647876 3.727825 0.564527
v -0.650285 3.676757 0.523623
v -0.650923 3.727825 0.523061
v -0.647276 3.676757 0.563945
v -0.665937 3.676757 0.541581
v -0.496927 3.704051 0.562307
v -0.499955 3.704051 0.521414
v -0.404434 3.704051 0.494311
v -0.405366 3.704051 0.587569
v -0.449389 3.704051 0.605968
v -0.449389 3.704051 0.473329
v -0.383070 3.704051 0.539648
v -0.710404 3.700532 0.582592
v -0.713432 3.700532 0.510398
v -0.729185 3.700532 0.543505
v -0.647576 3.702291 0.564236
v -0.650604 3.702291 0.523342
v -0.516130 3.775272 0.539644
v -0.500275 3.775272 0.521133
v -0.449382 3.775272 0.472896
v -0.404136 3.775272 0.494014
v -0.382634 3.775272 0.539644
v -0.405075 3.775272 0.587874
v -0.449382 3.775272 0.606392
v -0.497227 3.775272 0.562598
v -0.449150 3.775273 0.539501
v 0.186102 0.000000 0.551743
v 0.186102 3.002498 0.551743
v 0.244414 0.000000 -0.035875
v 0.244414 3.002498 -0.035875
v 0.087380 0.000000 -0.183914
v 0.124666 3.002498 0.551743
v 0.087380 3.002498 -0.183914
v 0.124666 0.000000 0.551743
v 0.271096 0.000000 0.183914
v 0.271096 3.002498 0.183914
v 0.124666 0.000000 0.183914
v 0.016935 1.501249 0.551743
v 0.105774 1.501249 0.111868
v -0.181289 1.501249 0.551743
v 0.012114 1.501249 -0.036172
v -0.037922 1.501249 0.551743
v 0.103093 1.501249 0.263309
v 0.119868 2.251873 0.551743
v 0.178179 2.251873 0.041880
v -0.172258 2.251873 0.551743
v 0.021146 2.251873 -0.106160
v 0.058431 2.251873 0.551743
v 0.204862 2.251873 0.183914
v 0.145295 0.750624 0.070033
v -0.155788 0.750624 0.551743
v 0.013754 0.750624 -0.051526
v 0.074901 0.750624 0.551743
v 0.195839 0.750624 0.183914
v 0.136338 0.750624 0.551743
v 0.815530 3.047296 0.800167
v 0.874479 3.460876 0.332844
v 0.626228 3.002078 -0.517720
v 0.783769 3.460876 -0.878085
v 0.776613 3.283355 -0.849513
v 0.838307 3.279982 0.800167
v 0.838307 3.460956 0.800167
v 0.807184 3.460956 -0.893090
v 0.701449 3.099009 -0.667250
v 0.838307 3.099009 0.800167
v 0.397893 3.002078 -0.702293
v 0.397893 3.279982 0.800167
v 0.440534 3.283355 -1.059962
v 0.374479 3.460876 0.332844
v 0.374479 3.460876 -1.088533
v 0.397893 3.013480 0.800167
v 0.397893 3.460956 -1.103538
v 0.397893 3.460956 0.800167
v 0.397893 3.099009 -0.877698
v 0.397893 3.099009 0.800167
v 0.666536 2.991792 0.192949
v 0.874479 3.460876 0.192949
v 0.824682 3.279982 0.192949
v 0.897893 3.460956 0.192949
v 0.792158 3.099009 0.192949
v 0.397893 2.918035 0.192949
v 0.397893 3.043127 0.192949
v 0.874479 3.460876 -0.503442
v 0.824682 3.279982 -0.503442
v 0.897893 3.460956 -0.503442
v 0.792158 3.099009 -0.503442
v 0.666536 2.991792 -0.503442
v 0.397893 2.918035 -0.503442
v 0.397893 3.043127 -0.503442
v 0.782215 3.002636 0.496558
v 0.397893 2.965757 0.496558
v 0.397893 3.318138 0.290487
v 0.874479 3.460876 0.290487
v 0.861288 3.279982 0.496558
v 0.897893 3.460956 0.496558
v 0.845026 3.099009 0.496558
v 0.578303 3.002078 -0.556460
v 0.792950 3.279982 0.800167
v 0.769536 3.460876 0.332844
v 0.792950 3.460956 0.800167
v 0.792950 3.099009 0.800167
v 0.706074 3.283355 -0.893684
v 0.697865 3.460876 -0.922255
v 0.792950 3.013480 0.800167
v 0.721280 3.460956 -0.937260
v 0.637737 3.099009 -0.711420
v 0.610151 2.976312 0.192949
v 0.792950 3.318138 0.192949
v 0.792950 3.318138 -0.503442
v 0.610151 2.976312 -0.503442
v 0.701551 2.994896 0.496558
v 0.792950 3.318138 0.290487
v 0.800117 3.460876 -0.822867
v 0.785276 3.282747 -0.787144
v 0.823532 3.460956 -0.822867
v 0.717797 3.099009 -0.637728
v 0.633492 3.000225 -0.515147
v 0.397893 2.986932 -0.666456
v 0.397893 3.318138 -0.995388
v 0.584043 2.997435 -0.546905
v 0.734196 3.318138 -0.859077
v 0.294609 3.441031 0.594900
v 0.272361 3.729584 0.556538
v 0.298272 3.441031 0.487787
v 0.274572 3.729584 0.526456
v 0.183850 3.441031 0.597469
v 0.205507 3.729584 0.574875
v 0.182722 3.441031 0.484658
v 0.204826 3.729584 0.506783
v 0.237104 3.441031 0.459276
v 0.237651 3.729584 0.491462
v 0.237104 3.441031 0.619726
v 0.237651 3.729584 0.588309
v 0.317329 3.441031 0.539501
v 0.286074 3.729584 0.539886
v 0.156878 3.441031 0.539501
v 0.189227 3.729584 0.539886
v 0.237104 3.441031 0.539501
v 0.312654 3.556452 0.612437
v 0.317494 3.556452 0.470887
v 0.164795 3.556452 0.466752
v 0.166285 3.556452 0.615832
v 0.236660 3.556452 0.645245
v 0.236660 3.556452 0.433210
v 0.130643 3.556452 0.539227
v 0.342678 3.556452 0.539227
v 0.283982 3.627448 0.584571
v 0.286951 3.627448 0.497740
v 0.193281 3.627448 0.495203
v 0.194195 3.627448 0.586654
v 0.237365 3.627448 0.604697
v 0.237365 3.627448 0.474627
v 0.172330 3.627448 0.539662
v 0.302400 3.627448 0.539662
v 0.284581 3.678516 0.562016
v 0.287590 3.678516 0.521694
v 0.192685 3.678516 0.494609
v 0.193611 3.678516 0.587264
v 0.237350 3.678516 0.605544
v 0.237350 3.678516 0.473762
v 0.171459 3.678516 0.539653
v 0.303242 3.678516 0.539653
v 0.498057 3.674998 0.589011
v 0.498657 3.726066 0.582883
v 0.517559 3.726066 0.543501
v 0.501704 3.726066 0.510118
v 0.501066 3.674998 0.501036
v 0.516718 3.674998 0.543510
v 0.454732 3.727825 0.541572
v 0.435829 3.727825 0.564527
v 0.438238 3.676757 0.523623
v 0.438877 3.727825 0.523061
v 0.435230 3.676757 0.563945
v 0.453890 3.676757 0.541581
v 0.284881 3.704051 0.562307
v 0.287909 3.704051 0.521414
v 0.192387 3.704051 0.494311
v 0.193320 3.704051 0.587569
v 0.237343 3.704051 0.605968
v 0.237343 3.704051 0.473329
v 0.171023 3.704051 0.539648
v 0.498357 3.700532 0.582592
v 0.501385 3.700532 0.510398
v 0.517139 3.700532 0.543505
v 0.435529 3.702291 0.564236
v 0.438558 3.702291 0.523342
v 0.304083 3.775272 0.539644
v 0.288228 3.775272 0.521133
v 0.237336 3.775272 0.472896
v 0.192090 3.775272 0.494014
v 0.170588 3.775272 0.539644
v 0.193028 3.775272 0.587874
v 0.237336 3.775272 0.606392
v 0.285181 3.775272 0.562598
v 0.237104 3.775273 0.539501
v -0.085284 3.015552 -0.068511
v -0.085284 3.058604 -0.068511
v -0.062054 3.015552 -0.058888
v -0.062054 3.058604 -0.058888
v -0.044274 3.015552 -0.041108
v -0.044274 3.058604 -0.041108
v -0.034651 3.015552 -0.017878
v -0.034651 3.058604 -0.017878
v -0.034651 3.015552 0.007267
v -0.034651 3.058604 0.007267
v -0.044274 3.015552 0.030497
v -0.044274 3.058604 0.030497
v -0.062054 3.015552 0.048277
v -0.062054 3.058604 0.048277
v -0.085284 3.015552 0.057899
v -0.085284 3.058604 0.057899
v -0.110429 3.015552 0.057899
v -0.110429 3.058604 0.057899
v -0.133659 3.015552 0.048277
v -0.133659 3.058604 0.048277
v -0.151439 3.015552 0.030497
v -0.151439 3.058604 0.030497
v -0.161061 3.015552 0.007267
v -0.161061 3.058604 0.007267
v -0.161061 3.015552 -0.017878
v -0.161061 3.058604 -0.017878
v -0.151439 3.015552 -0.041108
v -0.151439 3.058604 -0.041108
v -0.133659 3.015552 -0.058888
v -0.133659 3.058604 -0.058888
v -0.110429 3.015552 -0.068511
v -0.110429 3.058604 -0.068511
v -0.201547 3.451318 0.631643
v -0.162759 3.987963 0.598530
v -0.196263 3.451318 0.468822
v -0.159633 3.987963 0.502240
v -0.020056 3.451318 0.639664
v -0.055426 3.987963 0.603275
v -0.013940 3.451318 0.469104
v -0.051809 3.987963 0.502406
v -0.105284 3.451318 0.426457
v -0.105829 3.987963 0.477185
v -0.105284 3.451318 0.671350
v -0.105829 3.987963 0.622013
v -0.227731 3.451318 0.548904
v -0.178243 3.987963 0.549599
v 0.017163 3.451318 0.548904
v -0.033415 3.987963 0.549599
v -0.105180 4.008923 0.548771
v -0.105180 3.430358 0.548771
v -0.149043 3.606558 0.586822
v -0.146682 3.606558 0.514056
v -0.065199 3.606558 0.514182
v -0.067932 3.606558 0.590407
v -0.106022 3.606558 0.604568
v -0.106022 3.606558 0.495122
v -0.051299 3.606558 0.549845
v -0.160745 3.606558 0.549845
v -0.148251 3.863911 0.586146
v -0.145934 3.863911 0.514738
v -0.065972 3.863911 0.514862
v -0.068655 3.863911 0.589664
v -0.106033 3.863911 0.603561
v -0.106033 3.863911 0.496158
v -0.052332 3.863911 0.549859
v -0.159734 3.863911 0.549859
v -0.203266 3.510870 0.462434
v -0.006701 3.510870 0.462737
v -0.013295 3.510870 0.646621
v -0.105180 3.510870 0.680782
v -0.105180 3.510870 0.416760
v 0.026831 3.510870 0.548771
v -0.237191 3.510870 0.548771
v -0.208963 3.510870 0.637973
v -0.194026 3.936417 0.625222
v -0.189160 3.936417 0.475303
v -0.021284 3.936417 0.475562
v -0.026915 3.936417 0.632608
v -0.105390 3.936417 0.661783
v -0.105390 3.936417 0.436294
v 0.007355 3.936417 0.549039
v -0.218134 3.936417 0.549039
v -0.150107 3.846927 0.518944
v -0.132834 3.793159 0.026888
v -0.147686 3.772336 0.518944
v -0.131375 3.785098 0.071125
v -0.066962 3.850602 0.518944
v -0.082712 3.793557 0.024709
v -0.064160 3.772465 0.518944
v -0.081023 3.785112 0.071049
v -0.106007 3.752928 0.518944
v -0.106250 3.783000 0.082635
v -0.106007 3.865119 0.518944
v -0.106250 3.795126 0.016099
v -0.162102 3.809023 0.518944
v -0.140065 3.789063 0.049368
v -0.049911 3.809023 0.518944
v -0.072434 3.789063 0.049368
v -0.105180 3.807967 0.049707
v -0.105180 3.807968 0.539904
v -0.134397 3.894297 0.363704
v -0.132851 3.846651 0.363704
v -0.079498 3.846733 0.363704
v -0.081287 3.896644 0.363704
v -0.106228 3.905916 0.363704
v -0.106228 3.834253 0.363704
v -0.070396 3.870085 0.363704
v -0.142059 3.870085 0.363704
v -0.131700 3.894931 0.131971
v -0.130304 3.855295 0.148697
v -0.082130 3.855363 0.148668
v -0.083746 3.896884 0.131147
v -0.106266 3.904598 0.127892
v -0.106266 3.844982 0.153049
v -0.073912 3.874789 0.140471
v -0.138619 3.874789 0.140471
v -0.134362 3.796157 0.459392
v -0.077935 3.796244 0.459392
v -0.079828 3.849030 0.459392
v -0.106205 3.858836 0.459392
v -0.106205 3.783045 0.459392
v -0.068310 3.820940 0.459392
v -0.144101 3.820940 0.459392
v -0.135997 3.846547 0.459392
v -0.130653 3.826130 0.042235
v -0.129315 3.799632 0.073814
v -0.083153 3.799678 0.073760
v -0.084702 3.827435 0.040679
v -0.106280 3.832592 0.034534
v -0.106280 3.792737 0.082031
v -0.075279 3.812665 0.058282
v -0.137282 3.812665 0.058282
v -0.132752 3.880839 0.235027
v -0.079600 3.880921 0.235027
v -0.081383 3.930643 0.235027
v -0.106229 3.939880 0.235027
v -0.106229 3.868489 0.235027
v -0.070533 3.904185 0.235027
v -0.141925 3.904185 0.235027
v -0.134292 3.928305 0.235027
vn -0.5331 -0.5736 0.6219
vn -0.6419 -0.0566 0.7647
vn -0.7089 -0.5670 -0.4194
vn -0.8753 -0.1219 -0.4680
vn -0.0000 -0.6522 -0.7580
vn -0.0000 -0.1030 -0.9947
vn -0.0000 -0.6924 0.7215
vn -0.0000 -0.0000 1.0000
vn -0.3517 -0.5543 -0.7544
vn -0.3750 -0.1282 -0.9181
vn -0.0000 -0.7071 0.7071
vn -0.7743 -0.6327 -0.0131
vn -0.9950 -0.0916 0.0397
vn -0.0000 -1.0000 -0.0000
vn -0.5796 0.0022 0.8149
vn -0.9185 -0.0207 -0.3949
vn -0.0000 -0.0248 -0.9997
vn -0.4598 -0.0294 -0.8875
vn -0.9977 -0.0032 0.0675
vn -0.6197 -0.0654 0.7821
vn -0.9002 -0.1190 -0.4188
vn -0.0000 -0.0979 -0.9952
vn -0.3833 -0.1175 -0.9161
vn -0.9926 -0.1067 0.0573
vn -0.8815 0.1213 -0.4564
vn -0.0000 0.1016 -0.9948
vn -0.4496 0.1169 -0.8856
vn -0.9938 0.1109 -0.0049
vn -0.6380 0.0680 0.7670
vn -0.4587 -0.5155 0.7237
vn 0.0980 0.9656 -0.2410
vn -0.4921 -0.6258 -0.6051
vn 0.2983 0.9039 0.3066
vn -0.0000 -0.4710 -0.8821
vn -0.7116 -0.4655 -0.5263
vn -0.6717 -0.0489 0.7392
vn -0.0000 -0.9193 -0.3936
vn -0.0000 0.9094 0.4158
vn -0.0000 -0.7174 0.6966
vn -0.0000 0.8013 -0.5982
vn -0.5422 0.5630 0.6237
vn -0.0000 0.5856 -0.8106
vn -0.0000 0.7072 0.7070
vn -0.6828 0.5205 -0.5127
vn -0.5353 -0.7456 -0.3969
vn -0.7106 -0.2133 0.6705
vn -0.0000 -0.8180 -0.5752
vn -0.1723 -0.8929 -0.4159
vn -0.3254 -0.4587 -0.8269
vn 0.1309 0.8840 0.4489
vn -0.0592 -0.6484 0.7590
vn -0.2489 0.6006 -0.7598
vn -0.2182 -0.8051 -0.5515
vn -0.4396 -0.8972 -0.0423
vn 0.5035 0.8640 -0.0000
vn -0.9683 -0.2444 -0.0511
vn -0.0000 0.8168 -0.5769
vn -0.0000 -0.9992 0.0392
vn -0.8144 0.5797 -0.0250
vn -0.8799 -0.4665 -0.0901
vn -0.1200 -0.9920 0.0401
vn 0.2333 0.8422 -0.4861
vn 0.4861 0.8727 0.0466
vn -0.9462 -0.3050 -0.1076
vn -0.8327 0.5483 -0.0772
vn -0.8334 -0.5285 -0.1618
vn -0.4831 -0.8440 -0.2331
vn -0.0000 0.9716 0.2364
vn -0.0000 -0.9801 -0.1986
vn -0.1366 -0.9695 -0.2034
vn 0.2553 0.9466 0.1971
vn -0.5739 -0.8172 -0.0538
vn -0.0000 0.3095 -0.9509
vn -0.0000 -0.9969 0.0784
vn -0.0995 -0.9914 0.0852
vn 0.0500 0.3724 -0.9267
vn 0.3690 0.8941 -0.2538
vn -0.9896 -0.1436 -0.0045
vn -0.7889 0.6138 0.0300
vn -0.9345 -0.3485 -0.0718
vn -0.3444 -0.8213 -0.4548
vn 0.0927 0.8286 -0.5521
vn -0.4510 -0.4866 -0.7482
vn 0.2986 0.8266 0.4770
vn -0.1751 -0.7778 0.6037
vn -0.3833 0.6267 -0.6785
vn -0.3525 -0.7858 -0.5082
vn -0.2162 -0.9761 0.0226
vn 0.7064 0.6710 -0.2254
vn 0.7215 0.6813 0.1235
vn -0.3009 -0.9018 -0.3101
vn -0.1665 -0.9848 0.0490
vn 0.4316 0.5380 -0.7241
vn 0.4791 0.8485 0.2247
vn -0.9038 -0.3738 -0.2084
vn -0.7795 0.6087 -0.1479
vn -0.6954 -0.6411 -0.3248
vn -0.4132 -0.7220 -0.5549
vn -0.0000 0.7407 0.6718
vn -0.0000 -0.9211 -0.3893
vn -0.1550 -0.9006 -0.4060
vn 0.2527 0.7024 0.6654
vn -0.4254 -0.6589 -0.6203
vn 0.5992 0.6257 0.4995
vn -0.5025 -0.7098 0.4936
vn -0.5869 0.1684 0.7920
vn -0.5172 -0.7105 -0.4772
vn -0.5966 0.1606 -0.7863
vn 0.4857 -0.7133 0.5052
vn 0.6873 0.1281 0.7150
vn 0.4921 -0.7168 -0.4940
vn 0.7000 0.1272 -0.7027
vn -0.0006 -0.7048 -0.7094
vn -0.1992 0.1378 -0.9702
vn -0.0051 -0.7086 0.7056
vn -0.2098 0.1335 0.9686
vn -0.7012 -0.7129 0.0137
vn -0.6115 0.7912 -0.0057
vn 0.7091 -0.7051 -0.0014
vn 0.9909 0.1342 -0.0007
vn -0.7071 0.1374 0.6937
vn -0.7299 0.1388 -0.6694
vn 0.6991 0.1390 -0.7014
vn 0.6861 0.1387 0.7141
vn -0.0041 0.1383 0.9904
vn 0.0016 0.1394 -0.9902
vn 0.9902 0.1399 -0.0031
vn -0.9902 0.1384 0.0159
vn -0.6694 0.3357 0.6627
vn -0.6839 0.3422 -0.6443
vn 0.6811 0.2619 -0.6838
vn 0.6686 0.2636 0.6954
vn -0.0491 0.3180 0.9468
vn -0.0409 0.3271 -0.9441
vn 0.9617 0.2742 -0.0017
vn -0.9460 0.3236 0.0164
vn -0.5851 -0.0916 0.8058
vn -0.6043 -0.0822 -0.7925
vn 0.7057 -0.0165 -0.7083
vn 0.6929 -0.0165 0.7209
vn -0.1341 0.0361 0.9903
vn -0.1234 0.0389 -0.9916
vn 0.9999 -0.0171 -0.0024
vn -0.5334 -0.8459 0.0071
vn -0.2921 -0.5567 0.7777
vn -0.3399 0.5706 0.7476
vn -0.7944 0.6074 0.0015
vn -0.3702 0.5745 -0.7300
vn -0.3096 -0.5412 -0.7819
vn -0.7832 -0.6217 0.0092
vn -0.0217 0.9998 -0.0005
vn 0.0918 0.7480 0.6573
vn 0.1019 -0.7267 -0.6794
vn 0.0575 0.7404 -0.6698
vn 0.1291 -0.7358 0.6647
vn 0.0216 -0.9998 -0.0000
vn -0.3034 0.1304 0.9439
vn -0.3215 0.1267 -0.9384
vn 0.6791 0.2727 -0.6815
vn 0.6669 0.2715 0.6939
vn -0.1549 0.2612 0.9528
vn -0.1438 0.2653 -0.9534
vn 0.9614 0.2751 -0.0029
vn -0.4245 0.0457 0.9043
vn -0.4722 0.0694 -0.8788
vn -0.9998 0.0175 0.0068
vn 0.1632 0.0496 0.9853
vn 0.1152 0.0614 -0.9914
vn -0.8949 0.4462 -0.0091
vn -0.5896 0.5855 -0.5564
vn -0.1251 0.4549 -0.8817
vn 0.6144 0.4922 -0.6166
vn 0.8807 0.4737 -0.0030
vn 0.6046 0.4887 0.6291
vn -0.1347 0.4621 0.8765
vn -0.5921 0.5821 0.5573
vn -0.0000 1.0000 -0.0000
vn 0.5331 -0.5736 0.6219
vn 0.6419 -0.0566 0.7647
vn 0.7089 -0.5670 -0.4194
vn 0.8753 -0.1219 -0.4680
vn 0.3517 -0.5543 -0.7544
vn 0.3750 -0.1282 -0.9181
vn 0.7743 -0.6327 -0.0131
vn 0.9950 -0.0916 0.0397
vn 0.5796 0.0022 0.8149
vn 0.9185 -0.0207 -0.3949
vn 0.4598 -0.0294 -0.8875
vn 0.9977 -0.0032 0.0675
vn 0.6197 -0.0654 0.7821
vn 0.9002 -0.1190 -0.4188
vn 0.3833 -0.1175 -0.9161
vn 0.9926 -0.1067 0.0573
vn 0.8815 0.1213 -0.4564
vn 0.4496 0.1169 -0.8856
vn 0.9938 0.1109 -0.0049
vn 0.6380 0.0680 0.7670
vn 0.4820 -0.5132 0.7101
vn -0.0980 0.9656 -0.2410
vn 0.4921 -0.6258 -0.6051
vn -0.2983 0.9039 0.3066
vn 0.7116 -0.4655 -0.5263
vn 0.6717 -0.0489 0.7392
vn 0.5422 0.5630 0.6237
vn 0.6828 0.5205 -0.5127
vn 0.5353 -0.7456 -0.3969
vn 0.7076 -0.2076 0.6754
vn 0.1723 -0.8929 -0.4159
vn 0.3254 -0.4587 -0.8269
vn -0.1309 0.8840 0.4489
vn 0.0592 -0.6484 0.7590
vn 0.2489 0.6006 -0.7598
vn 0.2182 -0.8051 -0.5515
vn 0.4396 -0.8972 -0.0423
vn -0.5035 0.8640 -0.0000
vn 0.9683 -0.2444 -0.0511
vn 0.8144 0.5797 -0.0250
vn 0.8799 -0.4665 -0.0901
vn 0.1200 -0.9920 0.0401
vn -0.2333 0.8422 -0.4861
vn -0.4861 0.8727 0.0466
vn 0.9462 -0.3050 -0.1076
vn 0.8327 0.5483 -0.0772
vn 0.8334 -0.5285 -0.1618
vn 0.4831 -0.8440 -0.2331
vn 0.1366 -0.9695 -0.2034
vn -0.2553 0.9466 0.1971
vn 0.5813 -0.8118 -0.0553
vn 0.0995 -0.9914 0.0852
vn -0.0500 0.3724 -0.9267
vn -0.3690 0.8941 -0.2538
vn 0.9896 -0.1436 -0.0045
vn 0.7889 0.6138 0.0300
vn 0.9356 -0.3455 -0.0730
vn 0.3444 -0.8213 -0.4548
vn -0.0927 0.8286 -0.5521
vn 0.4510 -0.4866 -0.7482
vn -0.2986 0.8266 0.4770
vn 0.1887 -0.7684 0.6115
vn 0.3833 0.6267 -0.6785
vn 0.3525 -0.7858 -0.5082
vn 0.2162 -0.9761 0.0226
vn -0.7064 0.6710 -0.2254
vn -0.7215 0.6813 0.1235
vn 0.3009 -0.9018 -0.3101
vn 0.1728 -0.9837 0.0488
vn -0.4316 0.5380 -0.7241
vn -0.4791 0.8485 0.2247
vn 0.9038 -0.3738 -0.2084
vn 0.7795 0.6087 -0.1479
vn 0.6954 -0.6411 -0.3248
vn 0.4132 -0.7220 -0.5549
vn 0.1550 -0.9006 -0.4060
vn -0.2527 0.7024 0.6654
vn 0.4254 -0.6589 -0.6203
vn -0.5992 0.6257 0.4995
vn 0.5025 -0.7098 0.4936
vn 0.5869 0.1684 0.7920
vn 0.5172 -0.7105 -0.4772
vn 0.5966 0.1606 -0.7863
vn -0.4857 -0.7133 0.5052
vn -0.6873 0.1281 0.7150
vn -0.4921 -0.7168 -0.4940
vn -0.7000 0.1272 -0.7027
vn 0.0006 -0.7048 -0.7094
vn 0.1992 0.1378 -0.9702
vn 0.0051 -0.7086 0.7056
vn 0.2098 0.1335 0.9686
vn 0.7012 -0.7129 0.0137
vn 0.6115 0.7912 -0.0057
vn -0.7091 -0.7051 -0.0014
vn -0.9909 0.1342 -0.0007
vn 0.7071 0.1374 0.6937
vn 0.7299 0.1388 -0.6694
vn -0.6991 0.1390 -0.7014
vn -0.6861 0.1387 0.7141
vn 0.0041 0.1383 0.9904
vn -0.0016 0.1394 -0.9902
vn -0.9902 0.1399 -0.0031
vn 0.9902 0.1384 0.0159
vn 0.6694 0.3357 0.6627
vn 0.6839 0.3422 -0.6443
vn -0.6811 0.2619 -0.6838
vn -0.6686 0.2636 0.6954
vn 0.0491 0.3180 0.9468
vn 0.0409 0.3271 -0.9441
vn -0.9617 0.2742 -0.0017
vn 0.9460 0.3236 0.0164
vn 0.5851 -0.0916 0.8058
vn 0.6043 -0.0822 -0.7925
vn -0.7057 -0.0165 -0.7083
vn -0.6929 -0.0165 0.7209
vn 0.1341 0.0361 0.9903
vn 0.1234 0.0389 -0.9916
vn -0.9999 -0.0171 -0.0024
vn 0.5334 -0.8459 0.0071
vn 0.2921 -0.5567 0.7777
vn 0.3399 0.5706 0.7476
vn 0.7944 0.6074 0.0015
vn 0.3702 0.5745 -0.7300
vn 0.3096 -0.5412 -0.7819
vn 0.7832 -0.6217 0.0092
vn 0.0217 0.9998 -0.0005
vn -0.0918 0.7480 0.6573
vn -0.1019 -0.7267 -0.6794
vn -0.0575 0.7404 -0.6698
vn -0.1291 -0.7358 0.6647
vn -0.0216 -0.9998 -0.0000
vn 0.3034 0.1304 0.9439
vn 0.3215 0.1267 -0.9384
vn -0.6791 0.2727 -0.6815
vn -0.6669 0.2715 0.6939
vn 0.1549 0.2612 0.9528
vn 0.1438 0.2653 -0.9534
vn -0.9614 0.2751 -0.0029
vn 0.4245 0.0457 0.9043
vn 0.4722 0.0694 -0.8788
vn 0.9998 0.0175 0.0068
vn -0.1632 0.0496 0.9853
vn -0.1152 0.0614 -0.9914
vn 0.8949 0.4462 -0.0091
vn 0.5896 0.5855 -0.5564
vn 0.1251 0.4549 -0.8817
vn -0.6144 0.4922 -0.6166
vn -0.8807 0.4737 -0.0030
vn -0.6046 0.4887 0.6291
vn 0.1347 0.4621 0.8765
vn 0.5921 0.5821 0.5573
vn 0.1456 -0.6657 -0.7319
vn 0.1456 0.6657 -0.7319
vn 0.4146 -0.6657 -0.6204
vn 0.4146 0.6657 -0.6204
vn 0.6204 -0.6657 -0.4146
vn 0.6204 0.6657 -0.4146
vn 0.7319 -0.6657 -0.1456
vn 0.7319 0.6657 -0.1456
vn 0.7319 -0.6657 0.1456
vn 0.7319 0.6657 0.1456
vn 0.6204 -0.6657 0.4146
vn 0.6204 0.6657 0.4146
vn 0.4146 -0.6657 0.6204
vn 0.4146 0.6657 0.6204
vn 0.1456 -0.6657 0.7319
vn 0.1456 0.6657 0.7319
vn -0.1456 -0.6657 0.7319
vn -0.1456 0.6657 0.7319
vn -0.4146 -0.6657 0.6204
vn -0.4146 0.6657 0.6204
vn -0.6204 -0.6657 0.4146
vn -0.6204 0.6657 0.4146
vn -0.7319 -0.6657 0.1456
vn -0.7319 0.6657 0.1456
vn -0.7319 -0.6657 -0.1456
vn -0.7319 0.6657 -0.1456
vn -0.6204 -0.6657 -0.4146
vn -0.6204 0.6657 -0.4146
vn -0.4146 -0.6657 -0.6204
vn -0.4146 0.6657 -0.6204
vn -0.1456 -0.6657 -0.7319
vn -0.1456 0.6657 -0.7319
vn -0.5657 -0.6349 0.5262
vn -0.4402 0.7956 0.4163
vn -0.5583 -0.6388 -0.5294
vn -0.4413 0.7919 -0.4220
vn 0.5369 -0.6370 0.5531
vn 0.4229 0.7951 0.4348
vn 0.5583 -0.6396 -0.5284
vn 0.4392 0.7937 -0.4208
vn -0.0000 -0.6470 -0.7625
vn -0.0011 0.8090 -0.5878
vn -0.0115 -0.6557 0.7549
vn -0.0096 0.8124 0.5830
vn -0.7506 -0.6603 -0.0234
vn -0.5788 0.8153 -0.0177
vn 0.7554 -0.6553 0.0053
vn 0.5807 0.8141 0.0048
vn 0.0030 1.0000 -0.0063
vn 0.0006 -1.0000 -0.0023
vn -0.6810 0.3722 0.6307
vn -0.6787 0.3603 -0.6400
vn 0.6776 0.3648 -0.6386
vn 0.6460 0.3692 0.6681
vn -0.0188 0.3583 0.9334
vn -0.0006 0.3709 -0.9287
vn 0.9307 0.3656 0.0101
vn -0.9336 0.3567 -0.0332
vn -0.6814 -0.3707 0.6311
vn -0.6791 -0.3588 -0.6404
vn 0.6780 -0.3633 -0.6390
vn 0.6464 -0.3677 0.6686
vn -0.0189 -0.3569 0.9340
vn -0.0006 -0.3695 -0.9292
vn 0.9313 -0.3641 0.0101
vn -0.9342 -0.3552 -0.0332
vn -0.7088 0.2348 -0.6652
vn 0.7105 0.2370 -0.6626
vn 0.6757 0.2364 0.6983
vn -0.0152 0.2344 0.9720
vn 0.0013 0.2353 -0.9719
vn 0.9714 0.2375 0.0069
vn -0.9711 0.2364 -0.0317
vn -0.7176 0.2359 0.6553
vn -0.7397 -0.0085 0.6728
vn -0.7297 -0.0085 -0.6837
vn 0.7324 -0.0086 -0.6809
vn 0.6955 -0.0085 0.7185
vn -0.0142 -0.0086 0.9999
vn 0.0019 -0.0084 -1.0000
vn 0.9999 -0.0086 0.0060
vn -0.9995 -0.0086 -0.0318
vn -0.6761 0.5961 0.4331
vn -0.5347 -0.5718 -0.6222
vn -0.6697 -0.6651 0.3304
vn -0.5013 -0.7976 0.3355
vn 0.6440 0.6287 0.4359
vn 0.4754 -0.5711 -0.6692
vn 0.6722 -0.6649 0.3257
vn 0.5015 -0.7993 0.3310
vn 0.0002 -0.9413 0.3375
vn 0.0028 -0.7961 0.6052
vn -0.0090 0.8637 0.5040
vn -0.0243 -0.4770 -0.8785
vn -0.9059 -0.0495 0.4207
vn -0.7264 -0.6794 -0.1037
vn 0.9102 -0.0266 0.4133
vn 0.7317 -0.6629 -0.1587
vn -0.0137 -0.9886 -0.1503
vn 0.0054 -0.0099 0.9999
vn -0.7086 0.6614 0.2459
vn -0.7213 -0.6425 -0.2589
vn 0.7226 -0.6411 -0.2586
vn 0.6667 0.6988 0.2590
vn -0.0165 0.9393 0.3427
vn 0.0005 -0.9258 -0.3780
vn 0.9993 0.0339 0.0126
vn -0.9999 -0.0106 -0.0057
vn -0.7092 0.6189 -0.3377
vn -0.7470 -0.6008 0.2846
vn 0.7483 -0.5997 0.2835
vn 0.6690 0.6533 -0.3545
vn -0.0168 0.8844 -0.4663
vn 0.0005 -0.8968 0.4425
vn 0.9983 0.0360 -0.0466
vn -0.9997 -0.0058 -0.0246
vn -0.6636 -0.6414 -0.3851
vn 0.6637 -0.6400 -0.3872
vn 0.7138 0.6964 0.0747
vn -0.0190 0.9821 0.1874
vn -0.0000 -0.8878 -0.4603
vn 0.9825 -0.0191 -0.1851
vn -0.9792 -0.0597 -0.1938
vn -0.7557 0.6524 0.0571
vn -0.6972 0.4617 -0.5484
vn -0.7767 -0.2866 0.5609
vn 0.7778 -0.2846 0.5604
vn 0.6585 0.4834 -0.5768
vn -0.0168 0.6337 -0.7734
vn 0.0001 -0.4476 0.8942
vn 0.9949 0.0920 -0.0421
vn -0.9981 0.0619 -0.0027
vn -0.7642 -0.6449 -0.0025
vn 0.7656 -0.6433 -0.0028
vn 0.6656 0.7458 -0.0271
vn -0.0167 0.9994 -0.0288
vn 0.0006 -1.0000 0.0090
vn 0.9973 0.0709 -0.0190
vn -0.9996 0.0224 -0.0178
vn -0.7047 0.7090 -0.0268
vt 0.936140 0.748232
vt 0.936322 0.772315
vt 0.929696 0.772281
vt 0.931780 0.748149
vt 0.949455 0.747848
vt 0.949540 0.771905
vt 0.947688 0.772082
vt 0.947614 0.748034
vt 0.932525 0.692119
vt 0.930519 0.690945
vt 0.933281 0.673900
vt 0.936379 0.688794
vt 0.925256 0.747496
vt 0.923281 0.771710
vt 0.917599 0.770653
vt 0.921464 0.746807
vt 0.933549 0.693256
vt 0.936148 0.690103
vt 0.956465 0.747177
vt 0.956465 0.771258
vt 0.932165 0.694151
vt 0.931058 0.694247
vt 0.930010 0.694079
vt 0.944730 0.700394
vt 0.948510 0.723004
vt 0.938481 0.723731
vt 0.936082 0.703835
vt 0.953216 0.696754
vt 0.954747 0.722606
vt 0.950176 0.722897
vt 0.946081 0.699923
vt 0.933845 0.704148
vt 0.933972 0.723716
vt 0.928707 0.723415
vt 0.930483 0.704231
vt 0.925340 0.722895
vt 0.928425 0.703861
vt 0.083909 0.725316
vt 0.096783 0.725316
vt 0.096783 0.728548
vt 0.083909 0.728548
vt 0.145644 0.702801
vt 0.145644 0.689927
vt 0.148346 0.689927
vt 0.148346 0.702801
vt 0.071036 0.741421
vt 0.083909 0.741421
vt 0.083909 0.754295
vt 0.071036 0.754295
vt 0.145644 0.677054
vt 0.148346 0.677054
vt 0.058162 0.725316
vt 0.071036 0.725316
vt 0.071036 0.728548
vt 0.058162 0.728548
vt 0.119862 0.772259
vt 0.122564 0.772259
vt 0.122564 0.780076
vt 0.119862 0.780076
vt 0.145644 0.715674
vt 0.148346 0.715674
vt 0.109691 0.720731
vt 0.122564 0.720731
vt 0.122564 0.728548
vt 0.109691 0.728548
vt 0.058162 0.741421
vt 0.058162 0.754295
vt 0.096783 0.741421
vt 0.096783 0.754295
vt 0.045289 0.741421
vt 0.045289 0.754295
vt 0.145644 0.728548
vt 0.148346 0.728548
vt 0.045289 0.725316
vt 0.045289 0.728548
vt 0.122599 0.728548
vt 0.122599 0.715674
vt 0.135472 0.715674
vt 0.135472 0.728548
vt 0.045289 0.731250
vt 0.058162 0.731250
vt 0.083909 0.731250
vt 0.096783 0.731250
vt 0.071036 0.731250
vt 0.099519 0.720731
vt 0.099519 0.728548
vt 0.122599 0.702801
vt 0.135472 0.702801
vt 0.096817 0.772259
vt 0.109691 0.772259
vt 0.109691 0.780076
vt 0.096817 0.780076
vt 0.122599 0.689927
vt 0.122599 0.677054
vt 0.135472 0.677054
vt 0.135472 0.689927
vt 0.096817 0.746512
vt 0.109691 0.746512
vt 0.109691 0.764442
vt 0.096817 0.764442
vt 0.099519 0.694984
vt 0.109691 0.694984
vt 0.109691 0.712914
vt 0.099519 0.712914
vt 0.045289 0.684871
vt 0.058162 0.684871
vt 0.058162 0.692688
vt 0.045289 0.692688
vt 0.071036 0.684871
vt 0.083909 0.684871
vt 0.083909 0.692688
vt 0.071036 0.692688
vt 0.122564 0.694984
vt 0.122564 0.712914
vt 0.119862 0.746512
vt 0.122564 0.746512
vt 0.122564 0.764442
vt 0.119862 0.764442
vt 0.096783 0.684871
vt 0.096783 0.692688
vt 0.119862 0.731814
vt 0.122564 0.731814
vt 0.109691 0.680285
vt 0.122564 0.680285
vt 0.099519 0.680285
vt 0.096817 0.731814
vt 0.109691 0.731814
vt 0.058162 0.710618
vt 0.045289 0.710618
vt 0.083909 0.710618
vt 0.071036 0.710618
vt 0.096783 0.710618
vt 0.083909 0.677054
vt 0.096783 0.677054
vt 0.058162 0.677054
vt 0.071036 0.677054
vt 0.045289 0.677054
vt 0.096817 0.712914
vt 0.096817 0.720731
vt 0.097190 0.683652
vt 0.096817 0.694984
vt 0.096817 0.728548
vt 0.109691 0.728582
vt 0.119862 0.728582
vt 0.096817 0.677054
vt 0.099519 0.677054
vt 0.096817 0.728582
vt 0.109691 0.677054
vt 0.122564 0.677054
vt 0.122564 0.728582
vt 0.934734 0.541121
vt 0.934310 0.541121
vt 0.934734 0.544891
vt 0.935158 0.544891
vt 0.935158 0.548660
vt 0.934734 0.548660
vt 0.934734 0.552429
vt 0.935158 0.552429
vt 0.935158 0.556199
vt 0.934734 0.556199
vt 0.934734 0.559968
vt 0.935158 0.559968
vt 0.935158 0.563737
vt 0.934734 0.563737
vt 0.923850 0.552429
vt 0.927619 0.552429
vt 0.927619 0.556199
vt 0.923850 0.556199
vt 0.942696 0.552429
vt 0.942696 0.556199
vt 0.920080 0.552429
vt 0.920080 0.556199
vt 0.935158 0.541121
vt 0.920080 0.548660
vt 0.923850 0.548660
vt 0.927619 0.548660
vt 0.927619 0.533583
vt 0.930634 0.533583
vt 0.930634 0.537352
vt 0.927619 0.537352
vt 0.930634 0.548660
vt 0.930634 0.552429
vt 0.927619 0.541121
vt 0.930634 0.541121
vt 0.930634 0.544891
vt 0.927619 0.544891
vt 0.930634 0.556199
vt 0.930634 0.559968
vt 0.927619 0.559968
vt 0.930634 0.563737
vt 0.927619 0.563737
vt 0.933461 0.533583
vt 0.933461 0.537352
vt 0.933461 0.548660
vt 0.933461 0.552429
vt 0.933461 0.541121
vt 0.933461 0.544891
vt 0.933461 0.556199
vt 0.933461 0.559968
vt 0.933461 0.563737
vt 0.934310 0.533583
vt 0.934310 0.537352
vt 0.934310 0.548660
vt 0.934310 0.552429
vt 0.934310 0.544891
vt 0.934310 0.556199
vt 0.934310 0.559968
vt 0.934310 0.563737
vt 0.934734 0.537352
vt 0.935158 0.537352
vt 0.934734 0.533583
vt 0.935158 0.533583
vt 0.934310 0.537352
vt 0.942696 0.548660
vt 0.938927 0.552429
vt 0.938927 0.556199
vt 0.938927 0.548660
vt 0.907181 0.742955
vt 0.911318 0.744421
vt 0.905684 0.767906
vt 0.899427 0.765593
vt 0.894751 0.737881
vt 0.896428 0.738708
vt 0.888786 0.761351
vt 0.887096 0.760528
vt 0.928257 0.691341
vt 0.925671 0.686843
vt 0.917673 0.746114
vt 0.911911 0.769638
vt 0.926935 0.692051
vt 0.925477 0.688159
vt 0.888355 0.734768
vt 0.880773 0.757468
vt 0.927957 0.693385
vt 0.928970 0.693866
vt 0.914147 0.694822
vt 0.921215 0.701126
vt 0.912689 0.719032
vt 0.903465 0.714797
vt 0.907294 0.688387
vt 0.913022 0.693900
vt 0.901928 0.714106
vt 0.897711 0.712214
vt 0.923226 0.702213
vt 0.926368 0.703481
vt 0.922002 0.722194
vt 0.916944 0.720614
vt 0.119418 0.549502
vt 0.118195 0.549502
vt 0.119418 0.560373
vt 0.119418 0.571244
vt 0.120641 0.571244
vt 0.120641 0.560373
vt 0.119418 0.582116
vt 0.119418 0.592987
vt 0.120641 0.592987
vt 0.120641 0.582116
vt 0.119418 0.603858
vt 0.119418 0.614729
vt 0.120641 0.614729
vt 0.120641 0.603858
vt 0.088028 0.582116
vt 0.088028 0.592987
vt 0.098899 0.592987
vt 0.098899 0.582116
vt 0.142383 0.582116
vt 0.142383 0.592987
vt 0.077156 0.582116
vt 0.077156 0.592987
vt 0.120641 0.549502
vt 0.077156 0.571244
vt 0.088028 0.571244
vt 0.098899 0.571244
vt 0.098899 0.527760
vt 0.098899 0.538631
vt 0.107595 0.538631
vt 0.107595 0.527760
vt 0.107595 0.582116
vt 0.107595 0.571244
vt 0.098899 0.549502
vt 0.098899 0.560373
vt 0.107595 0.560373
vt 0.107595 0.549502
vt 0.098899 0.603858
vt 0.107595 0.603858
vt 0.107595 0.592987
vt 0.098899 0.614729
vt 0.107595 0.614729
vt 0.115749 0.538631
vt 0.115749 0.527760
vt 0.115749 0.582116
vt 0.115749 0.571244
vt 0.115749 0.560373
vt 0.115749 0.549502
vt 0.115749 0.603858
vt 0.115749 0.592987
vt 0.115749 0.614729
vt 0.118195 0.538631
vt 0.118195 0.527760
vt 0.118195 0.582116
vt 0.118195 0.571244
vt 0.118195 0.560373
vt 0.118195 0.603858
vt 0.118195 0.592987
vt 0.118195 0.614729
vt 0.119418 0.538631
vt 0.120641 0.538631
vt 0.119418 0.527760
vt 0.120641 0.527760
vt 0.142383 0.571244
vt 0.131512 0.582116
vt 0.131512 0.592987
vt 0.131512 0.571244
vt 0.074577 0.564277
vt 0.074577 0.566456
vt 0.059070 0.566456
vt 0.059070 0.564277
vt 0.074577 0.568635
vt 0.059070 0.568635
vt 0.074577 0.570814
vt 0.059070 0.570814
vt 0.074577 0.572993
vt 0.059070 0.572993
vt 0.074577 0.575172
vt 0.059070 0.575172
vt 0.074577 0.577350
vt 0.059070 0.577350
vt 0.074577 0.579529
vt 0.059070 0.579529
vt 0.074577 0.581708
vt 0.059070 0.581708
vt 0.074577 0.583887
vt 0.059070 0.583887
vt 0.074577 0.586066
vt 0.059070 0.586066
vt 0.074577 0.588245
vt 0.059070 0.588245
vt 0.074577 0.590423
vt 0.059070 0.590423
vt 0.074577 0.592602
vt 0.059070 0.592602
vt 0.074577 0.594781
vt 0.059070 0.594781
vt 0.074577 0.596960
vt 0.059070 0.596960
vt 0.080787 0.579769
vt 0.083866 0.579769
vt 0.086711 0.580947
vt 0.088888 0.583124
vt 0.090067 0.585969
vt 0.090067 0.589048
vt 0.088888 0.591893
vt 0.086711 0.594070
vt 0.083866 0.595248
vt 0.080787 0.595248
vt 0.077943 0.594070
vt 0.075765 0.591893
vt 0.074587 0.589048
vt 0.074587 0.585969
vt 0.075765 0.583124
vt 0.077943 0.580947
vt 0.080787 0.564278
vt 0.077943 0.565456
vt 0.075765 0.567633
vt 0.074587 0.570478
vt 0.074587 0.573557
vt 0.075765 0.576402
vt 0.077943 0.578579
vt 0.080787 0.579757
vt 0.083866 0.579757
vt 0.086711 0.578579
vt 0.088888 0.576402
vt 0.090067 0.573557
vt 0.090067 0.570478
vt 0.088888 0.567633
vt 0.086711 0.565456
vt 0.083866 0.564278
vt 0.956847 0.537352
vt 0.957789 0.537352
vt 0.957789 0.541121
vt 0.956847 0.541121
vt 0.956847 0.544891
vt 0.957789 0.544891
vt 0.957789 0.548660
vt 0.956847 0.548660
vt 0.956847 0.552429
vt 0.957789 0.552429
vt 0.957789 0.556199
vt 0.956847 0.556199
vt 0.956847 0.559968
vt 0.957789 0.559968
vt 0.957789 0.563737
vt 0.956847 0.563737
vt 0.946481 0.552429
vt 0.950250 0.552429
vt 0.950250 0.556199
vt 0.946481 0.556199
vt 0.961558 0.552429
vt 0.965328 0.552429
vt 0.965328 0.556199
vt 0.961558 0.556199
vt 0.942712 0.552429
vt 0.942712 0.556199
vt 0.942712 0.548660
vt 0.946481 0.548660
vt 0.961558 0.548660
vt 0.965328 0.548660
vt 0.950250 0.548660
vt 0.956847 0.533583
vt 0.957789 0.533583
vt 0.952135 0.533583
vt 0.954020 0.533583
vt 0.954020 0.537352
vt 0.952135 0.537352
vt 0.952135 0.548660
vt 0.954020 0.548660
vt 0.954020 0.552429
vt 0.952135 0.552429
vt 0.952135 0.541121
vt 0.954020 0.541121
vt 0.954020 0.544891
vt 0.952135 0.544891
vt 0.952135 0.556199
vt 0.954020 0.556199
vt 0.954020 0.559968
vt 0.952135 0.559968
vt 0.954020 0.563737
vt 0.952135 0.563737
vt 0.955904 0.533583
vt 0.955904 0.537352
vt 0.955904 0.548660
vt 0.955904 0.552429
vt 0.955904 0.541121
vt 0.955904 0.544891
vt 0.955904 0.556199
vt 0.955904 0.559968
vt 0.955904 0.563737
vt 0.950250 0.537352
vt 0.950250 0.541121
vt 0.950250 0.544891
vt 0.950250 0.559968
vt 0.950250 0.563737
vt 0.950250 0.533583
vt 0.934215 0.567522
vt 0.935158 0.567522
vt 0.935158 0.571291
vt 0.934215 0.571291
vt 0.934215 0.575061
vt 0.935158 0.575061
vt 0.935158 0.578830
vt 0.934215 0.578830
vt 0.934215 0.582599
vt 0.935158 0.582599
vt 0.935158 0.586369
vt 0.934215 0.586369
vt 0.934215 0.590138
vt 0.935158 0.590138
vt 0.935158 0.593907
vt 0.934215 0.593907
vt 0.923850 0.582599
vt 0.927619 0.582599
vt 0.927619 0.586369
vt 0.923850 0.586369
vt 0.938927 0.582599
vt 0.942696 0.582599
vt 0.942696 0.586369
vt 0.938927 0.586369
vt 0.920080 0.582599
vt 0.920080 0.586369
vt 0.920080 0.578830
vt 0.923850 0.578830
vt 0.938927 0.578830
vt 0.942696 0.578830
vt 0.927619 0.578830
vt 0.934215 0.563753
vt 0.935158 0.563753
vt 0.929504 0.563753
vt 0.931388 0.563753
vt 0.931388 0.567522
vt 0.929504 0.567522
vt 0.929504 0.578830
vt 0.931388 0.578830
vt 0.931388 0.582599
vt 0.929504 0.582599
vt 0.929504 0.571291
vt 0.931388 0.571291
vt 0.931388 0.575061
vt 0.929504 0.575061
vt 0.929504 0.586369
vt 0.931388 0.586369
vt 0.931388 0.590138
vt 0.929504 0.590138
vt 0.931388 0.593907
vt 0.929504 0.593907
vt 0.932331 0.563753
vt 0.933273 0.563753
vt 0.933273 0.567522
vt 0.932331 0.567522
vt 0.932331 0.578830
vt 0.933273 0.578830
vt 0.933273 0.582599
vt 0.932331 0.582599
vt 0.932331 0.571291
vt 0.933273 0.571291
vt 0.933273 0.575061
vt 0.932331 0.575061
vt 0.932331 0.586369
vt 0.933273 0.586369
vt 0.933273 0.590138
vt 0.932331 0.590138
vt 0.933273 0.593907
vt 0.932331 0.593907
vt 0.927619 0.567522
vt 0.927619 0.571291
vt 0.927619 0.575061
vt 0.927619 0.590138
vt 0.927619 0.593907
vt 0.927619 0.563753
s 1
f 30/1/24 14/2/13 4/3/4 25/4/21
f 29/5/8 10/6/8 2/7/2 24/8/20
f 16/9/14 15/10/14 7/11/7 12/12/11
f 28/13/23 11/14/10 6/15/6 27/16/22
f 25/4/21 4/3/4 11/14/10 28/13/23
f 13/17/12 16/9/14 12/12/11 1/18/1
f 26/19/8 8/20/8 10/6/8 29/5/8
f 3/21/3 9/22/9 16/9/14 13/17/12
f 9/22/9 5/23/5 15/10/14 16/9/14
f 24/8/20 2/7/2 14/2/13 30/1/24
f 37/24/29 17/25/15 23/26/19 36/27/28
f 32/28/8 19/29/8 22/30/8 35/31/8
f 31/32/25 18/33/16 21/34/18 34/35/27
f 34/35/27 21/34/18 20/36/17 33/37/26
f 35/31/8 22/30/8 17/25/15 37/24/29
f 36/27/28 23/26/19 18/33/16 31/32/25
f 17/25/15 24/8/20 30/1/24 23/26/19
f 19/29/8 26/19/8 29/5/8 22/30/8
f 18/33/16 25/4/21 28/13/23 21/34/18
f 21/34/18 28/13/23 27/16/22 20/36/17
f 22/30/8 29/5/8 24/8/20 17/25/15
f 23/26/19 30/1/24 25/4/21 18/33/16
f 13/17/12 36/27/28 31/32/25 3/21/3
f 12/12/11 35/31/8 37/24/29 1/18/1
f 9/22/9 34/35/27 33/37/26 5/23/5
f 3/21/3 31/32/25 34/35/27 9/22/9
f 7/11/7 32/28/8 35/31/8 12/12/11
f 1/18/1 37/24/29 36/27/28 13/17/12
f 113/38/96 111/39/94 41/40/33 53/41/44
f 96/42/8 98/43/43 50/44/41 45/45/36
f 60/46/49 64/47/52 51/48/42 42/49/34
f 98/43/43 97/50/82 39/51/31 50/44/41
f 114/52/97 112/53/95 44/54/35 54/55/45
f 110/56/93 91/57/77 39/58/31 97/59/82
f 99/60/8 96/42/8 45/45/36 55/61/46
f 89/62/75 88/63/74 48/64/39 63/65/51
f 66/66/53 60/46/49 42/49/34 57/67/47
f 64/47/52 62/68/50 47/69/38 51/48/42
f 112/53/95 113/38/96 53/41/44 44/54/35
f 58/70/48 66/66/53 57/67/47 46/71/37
f 102/72/85 99/60/8 55/61/46 38/73/30
f 115/74/98 114/52/97 54/55/45 40/75/32
f 48/76/39 56/77/8 67/78/8 63/79/51
f 95/80/81 104/81/87 66/66/53 58/70/48
f 103/82/86 101/83/84 62/68/50 64/47/52
f 104/81/87 100/84/83 60/46/49 66/66/53
f 109/85/92 89/62/75 63/65/51 102/86/85
f 56/77/8 43/87/8 59/88/8 67/78/8
f 87/89/73 90/90/76 61/91/40 49/92/40
f 52/93/43 49/94/40 61/95/40 65/96/43
f 100/84/83 103/82/86 64/47/52 60/46/49
f 43/87/8 52/93/43 65/96/43 59/88/8
f 82/97/68 85/98/71 76/99/62 71/100/57
f 108/101/91 84/102/70 75/103/61 105/104/88
f 86/105/72 94/106/80 74/107/60 68/108/54
f 92/109/78 93/110/79 73/111/59 70/112/56
f 84/102/70 83/113/69 72/114/58 75/103/61
f 107/115/90 77/116/63 69/117/55 106/118/89
f 94/106/80 92/109/78 70/112/56 74/107/60
f 93/110/79 91/119/77 69/120/55 73/111/59
f 121/121/104 111/122/94 77/116/63 107/115/90
f 118/123/101 117/124/100 83/113/69 84/102/70
f 120/125/103 118/123/101 84/102/70 108/101/91
f 116/126/99 119/127/102 85/98/71 82/97/68
f 68/108/54 74/107/60 80/128/66 81/129/67
f 70/112/56 73/111/59 79/130/65 78/131/64
f 74/107/60 70/112/56 78/131/64 80/128/66
f 73/111/59 69/120/55 77/132/63 79/130/65
f 50/133/41 39/134/31 91/119/77 93/110/79
f 55/135/46 45/136/36 92/109/78 94/106/80
f 45/136/36 50/133/41 93/110/79 92/109/78
f 38/137/30 55/135/46 94/106/80 86/105/72
f 71/100/57 76/99/62 90/90/76 87/89/73
f 105/104/88 75/103/61 89/62/75 109/85/92
f 75/103/61 72/114/58 88/63/74 89/62/75
f 106/118/89 69/117/55 91/57/77 110/56/93
f 76/99/62 106/118/89 110/56/93 90/90/76
f 68/138/54 105/104/88 109/85/92 86/139/72
f 115/140/98 120/125/103 108/101/91 81/141/67
f 119/127/102 121/121/104 107/115/90 85/98/71
f 85/98/71 107/115/90 106/118/89 76/99/62
f 81/141/67 108/101/91 105/104/88 68/138/54
f 44/54/35 53/41/44 103/82/86 100/84/83
f 86/139/72 109/85/92 102/86/85 38/142/30
f 54/55/45 44/54/35 100/84/83 104/81/87
f 53/41/44 41/40/33 101/83/84 103/82/86
f 40/75/32 54/55/45 104/81/87 95/80/81
f 63/79/51 67/78/8 99/60/8 102/72/85
f 67/78/8 59/88/8 96/42/8 99/60/8
f 90/90/76 110/56/93 97/59/82 61/91/40
f 65/96/43 61/95/40 97/50/82 98/43/43
f 59/88/8 65/96/43 98/43/43 96/42/8
f 62/143/50 101/144/84 121/121/104 119/127/102
f 40/145/32 95/146/81 120/125/103 115/140/98
f 47/147/38 62/143/50 119/127/102 116/126/99
f 95/146/81 58/148/48 118/123/101 120/125/103
f 58/148/48 46/149/37 117/124/100 118/123/101
f 101/144/84 41/150/33 111/122/94 121/121/104
f 81/129/67 80/128/66 114/52/97 115/74/98
f 78/131/64 79/130/65 113/38/96 112/53/95
f 80/128/66 78/131/64 112/53/95 114/52/97
f 79/130/65 77/132/63 111/39/94 113/38/96
f 186/151/168 171/152/153 167/152/149 183/151/165
f 180/153/162 131/154/114 129/155/112 177/156/159
f 181/157/163 137/158/120 127/159/110 178/160/160
f 179/161/161 133/162/116 123/163/106 175/164/157
f 138/165/14 136/166/119 126/167/109 132/168/115
f 127/159/110 137/158/120 191/158/173 192/159/174
f 135/169/118 123/170/106 194/170/176 187/169/169
f 134/171/117 138/165/14 132/168/115 122/172/105
f 178/160/160 127/159/110 133/162/116 179/161/161
f 176/151/158 125/173/108 131/154/114 180/153/162
f 124/174/107 130/175/113 138/165/14 134/171/117
f 137/158/120 129/155/112 190/155/172 191/158/173
f 129/155/112 131/154/114 189/154/171 190/155/172
f 130/175/113 128/176/111 136/166/119 138/165/14
f 177/156/159 129/155/112 137/158/120 181/157/163
f 170/170/152 169/169/151 165/169/147 164/170/146
f 122/177/105 139/178/121 146/179/128 134/180/117
f 128/176/111 141/181/123 145/182/127 136/166/119
f 124/183/107 140/184/122 144/185/126 130/186/113
f 126/167/109 142/187/124 143/188/125 132/189/115
f 132/189/115 143/188/125 139/190/121 122/191/105
f 136/166/119 145/182/127 142/187/124 126/167/109
f 130/186/113 144/185/126 141/181/123 128/176/111
f 134/180/117 146/179/128 140/184/122 124/183/107
f 139/178/121 147/192/129 154/193/136 146/179/128
f 141/181/123 149/194/131 153/195/135 145/182/127
f 140/184/122 148/196/130 152/197/134 144/185/126
f 142/187/124 150/198/132 151/199/133 143/188/125
f 143/188/125 151/199/133 147/200/129 139/190/121
f 145/182/127 153/195/135 150/198/132 142/187/124
f 144/185/126 152/197/134 149/194/131 141/181/123
f 146/179/128 154/193/136 148/196/130 140/184/122
f 147/192/129 155/201/137 162/202/144 154/193/136
f 149/194/131 157/203/139 161/204/143 153/195/135
f 148/196/130 156/152/138 160/205/142 152/197/134
f 150/198/132 158/206/140 159/207/141 151/199/133
f 151/199/133 159/207/141 155/208/137 147/200/129
f 153/195/135 161/204/143 158/206/140 150/198/132
f 152/197/134 160/205/142 157/203/139 149/194/131
f 154/193/136 162/202/144 156/152/138 148/196/130
f 184/209/166 165/210/147 166/173/148 183/151/165
f 182/211/164 164/212/146 165/210/147 184/209/166
f 174/213/156 173/201/155 163/201/145 168/202/150
f 171/152/153 174/213/156 168/202/150 167/152/149
f 169/169/151 172/214/154 166/214/148 165/169/147
f 185/164/167 170/163/152 164/163/146 182/164/164
f 175/164/157 123/163/106 170/163/152 185/164/167
f 135/169/118 125/214/108 172/214/154 169/169/151
f 156/152/138 162/202/144 174/213/156 171/152/153
f 162/202/144 155/201/137 173/201/155 174/213/156
f 123/170/106 135/169/118 169/169/151 170/170/152
f 176/151/158 156/152/138 171/152/153 186/151/168
f 125/173/108 176/151/158 186/151/168 172/173/154
f 155/208/137 175/164/157 185/164/167 173/208/155
f 173/208/155 185/164/167 182/164/164 163/208/145
f 163/201/145 182/211/164 184/209/166 168/202/150
f 168/202/150 184/209/166 183/151/165 167/152/149
f 157/203/139 177/156/159 181/157/163 161/204/143
f 156/152/138 176/151/158 180/153/162 160/205/142
f 158/206/140 178/160/160 179/161/161 159/207/141
f 159/207/141 179/161/161 175/164/157 155/208/137
f 161/204/143 181/157/163 178/160/160 158/206/140
f 160/205/142 180/153/162 177/156/159 157/203/139
f 172/173/154 186/151/168 183/151/165 166/173/148
f 195/215/177 187/169/169 194/170/176 193/216/175
f 191/158/173 195/215/177 193/216/175 192/159/174
f 190/155/172 189/217/171 195/215/177 191/158/173
f 189/217/171 188/214/170 187/169/169 195/215/177
f 133/162/116 127/159/110 192/159/174 193/162/175
f 131/154/114 125/173/108 188/173/170 189/154/171
f 125/214/108 135/169/118 187/169/169 188/214/170
f 123/163/106 133/162/116 193/162/175 194/163/176
f 218/218/193 214/219/191 199/220/181 205/221/185
f 217/222/8 213/223/190 197/224/179 201/225/8
f 206/226/14 203/227/11 7/11/7 15/10/14
f 216/228/192 27/16/22 6/15/6 202/229/183
f 214/219/191 216/228/192 202/229/183 199/220/181
f 204/230/184 196/231/178 203/227/11 206/226/14
f 215/232/8 217/222/8 201/225/8 8/233/8
f 198/234/180 204/230/184 206/226/14 200/235/182
f 200/235/182 206/226/14 15/10/14 5/23/5
f 213/223/190 218/218/193 205/221/185 197/224/179
f 224/236/197 223/237/196 212/238/189 207/239/186
f 220/240/8 222/241/8 211/242/8 209/243/8
f 219/244/194 221/245/195 210/246/188 208/247/187
f 221/245/195 33/37/26 20/36/17 210/246/188
f 222/241/8 224/236/197 207/239/186 211/242/8
f 223/237/196 219/244/194 208/247/187 212/238/189
f 207/239/186 212/238/189 218/218/193 213/223/190
f 209/243/8 211/242/8 217/222/8 215/232/8
f 208/247/187 210/246/188 216/228/192 214/219/191
f 210/246/188 20/36/17 27/16/22 216/228/192
f 211/242/8 207/239/186 213/223/190 217/222/8
f 212/238/189 208/247/187 214/219/191 218/218/193
f 204/230/184 198/234/180 219/244/194 223/237/196
f 203/227/11 196/231/178 224/236/197 222/241/8
f 200/235/182 5/23/5 33/37/26 221/245/195
f 198/234/180 200/235/182 221/245/195 219/244/194
f 7/11/7 203/227/11 222/241/8 220/240/8
f 196/231/178 204/230/184 223/237/196 224/236/197
f 284/38/250 232/41/205 228/40/201 282/39/248
f 267/42/8 230/45/203 231/44/204 269/43/43
f 237/46/209 42/49/34 51/48/42 241/47/212
f 269/43/43 231/44/204 226/51/199 268/50/236
f 285/52/251 233/55/206 229/54/202 283/53/249
f 281/56/247 268/59/236 226/58/199 262/57/231
f 270/60/8 234/61/207 230/45/203 267/42/8
f 260/62/229 240/65/211 48/64/39 88/63/74
f 243/66/213 57/67/47 42/49/34 237/46/209
f 241/47/212 51/48/42 47/69/38 239/68/210
f 283/53/249 229/54/202 232/41/205 284/38/250
f 235/70/208 46/71/37 57/67/47 243/66/213
f 273/72/239 225/73/198 234/61/207 270/60/8
f 286/74/252 227/75/200 233/55/206 285/52/251
f 48/76/39 240/79/211 244/78/8 56/77/8
f 266/80/235 235/70/208 243/66/213 275/81/241
f 274/82/240 241/47/212 239/68/210 272/83/238
f 275/81/241 243/66/213 237/46/209 271/84/237
f 280/85/246 273/86/239 240/65/211 260/62/229
f 56/77/8 244/78/8 236/88/8 43/87/8
f 87/89/73 49/92/40 238/91/40 261/90/230
f 52/93/43 242/96/43 238/95/40 49/94/40
f 271/84/237 237/46/209 241/47/212 274/82/240
f 43/87/8 236/88/8 242/96/43 52/93/43
f 82/97/68 71/100/57 251/99/220 258/98/227
f 279/101/245 276/104/242 250/103/219 257/102/226
f 259/105/228 245/108/214 249/107/218 265/106/234
f 263/109/232 247/112/216 248/111/217 264/110/233
f 257/102/226 250/103/219 72/114/58 83/113/69
f 278/115/244 277/118/243 246/117/215 252/116/221
f 265/106/234 249/107/218 247/112/216 263/109/232
f 264/110/233 248/111/217 246/120/215 262/119/231
f 290/121/256 278/115/244 252/116/221 282/122/248
f 287/123/253 257/102/226 83/113/69 117/124/100
f 289/125/255 279/101/245 257/102/226 287/123/253
f 116/126/99 82/97/68 258/98/227 288/127/254
f 245/108/214 256/129/225 255/128/224 249/107/218
f 247/112/216 253/131/222 254/130/223 248/111/217
f 249/107/218 255/128/224 253/131/222 247/112/216
f 248/111/217 254/130/223 252/132/221 246/120/215
f 231/133/204 264/110/233 262/119/231 226/134/199
f 234/135/207 265/106/234 263/109/232 230/136/203
f 230/136/203 263/109/232 264/110/233 231/133/204
f 225/137/198 259/105/228 265/106/234 234/135/207
f 71/100/57 87/89/73 261/90/230 251/99/220
f 276/104/242 280/85/246 260/62/229 250/103/219
f 250/103/219 260/62/229 88/63/74 72/114/58
f 277/118/243 281/56/247 262/57/231 246/117/215
f 251/99/220 261/90/230 281/56/247 277/118/243
f 245/138/214 259/139/228 280/85/246 276/104/242
f 286/140/252 256/141/225 279/101/245 289/125/255
f 288/127/254 258/98/227 278/115/244 290/121/256
f 258/98/227 251/99/220 277/118/243 278/115/244
f 256/141/225 245/138/214 276/104/242 279/101/245
f 229/54/202 271/84/237 274/82/240 232/41/205
f 259/139/228 225/142/198 273/86/239 280/85/246
f 233/55/206 275/81/241 271/84/237 229/54/202
f 232/41/205 274/82/240 272/83/238 228/40/201
f 227/75/200 266/80/235 275/81/241 233/55/206
f 240/79/211 273/72/239 270/60/8 244/78/8
f 244/78/8 270/60/8 267/42/8 236/88/8
f 261/90/230 238/91/40 268/59/236 281/56/247
f 242/96/43 269/43/43 268/50/236 238/95/40
f 236/88/8 267/42/8 269/43/43 242/96/43
f 239/143/210 288/127/254 290/121/256 272/144/238
f 227/145/200 286/140/252 289/125/255 266/146/235
f 47/147/38 116/126/99 288/127/254 239/143/210
f 266/146/235 289/125/255 287/123/253 235/148/208
f 235/148/208 287/123/253 117/124/100 46/149/37
f 272/144/238 290/121/256 282/122/248 228/150/201
f 256/129/225 286/74/252 285/52/251 255/128/224
f 253/131/222 283/53/249 284/38/250 254/130/223
f 255/128/224 285/52/251 283/53/249 253/131/222
f 254/130/223 284/38/250 282/39/248 252/132/221
f 355/248/320 352/248/317 336/249/301 340/249/305
f 349/250/314 346/251/311 298/252/264 300/253/266
f 350/254/315 347/255/312 296/256/262 306/257/272
f 348/258/313 344/259/309 292/260/258 302/261/268
f 307/262/14 301/263/267 295/264/261 305/265/271
f 296/256/262 361/256/326 360/257/325 306/257/272
f 304/266/270 356/266/321 363/267/328 292/267/258
f 303/268/269 291/269/257 301/263/267 307/262/14
f 347/255/312 348/258/313 302/261/268 296/256/262
f 345/248/310 349/250/314 300/253/266 294/270/260
f 293/271/259 303/268/269 307/262/14 299/272/265
f 306/257/272 360/257/325 359/252/324 298/252/264
f 298/252/264 359/252/324 358/253/323 300/253/266
f 299/272/265 307/262/14 305/265/271 297/273/263
f 346/251/311 350/254/315 306/257/272 298/252/264
f 339/267/304 333/267/298 334/266/299 338/266/303
f 291/274/257 303/275/269 315/276/280 308/277/273
f 297/273/263 305/265/271 314/278/279 310/279/275
f 293/280/259 299/281/265 313/282/278 309/283/274
f 295/264/261 301/284/267 312/285/277 311/286/276
f 301/284/267 291/287/257 308/288/273 312/285/277
f 305/265/271 295/264/261 311/286/276 314/278/279
f 299/281/265 297/273/263 310/279/275 313/282/278
f 303/275/269 293/280/259 309/283/274 315/276/280
f 308/277/273 315/276/280 323/289/288 316/290/281
f 310/279/275 314/278/279 322/291/287 318/292/283
f 309/283/274 313/282/278 321/293/286 317/294/282
f 311/286/276 312/285/277 320/295/285 319/296/284
f 312/285/277 308/288/273 316/297/281 320/295/285
f 314/278/279 311/286/276 319/296/284 322/291/287
f 313/282/278 310/279/275 318/292/283 321/293/286
f 315/276/280 309/283/274 317/294/282 323/289/288
f 316/290/281 323/289/288 331/298/296 324/299/289
f 318/292/283 322/291/287 330/300/295 326/301/291
f 317/294/282 321/293/286 329/302/294 325/249/290
f 319/296/284 320/295/285 328/303/293 327/304/292
f 320/295/285 316/297/281 324/305/289 328/303/293
f 322/291/287 319/296/284 327/304/292 330/300/295
f 321/293/286 318/292/283 326/301/291 329/302/294
f 323/289/288 317/294/282 325/249/290 331/298/296
f 353/306/318 352/248/317 335/270/300 334/307/299
f 351/308/316 353/306/318 334/307/299 333/309/298
f 343/298/308 337/298/302 332/299/297 342/299/307
f 340/249/305 336/249/301 337/298/302 343/298/308
f 338/266/303 334/266/299 335/310/300 341/310/306
f 354/259/319 351/259/316 333/260/298 339/260/304
f 344/259/309 354/259/319 339/260/304 292/260/258
f 304/266/270 338/266/303 341/310/306 294/310/260
f 325/249/290 340/249/305 343/298/308 331/298/296
f 331/298/296 343/298/308 342/299/307 324/299/289
f 292/267/258 339/267/304 338/266/303 304/266/270
f 345/248/310 355/248/320 340/249/305 325/249/290
f 294/270/260 341/270/306 355/248/320 345/248/310
f 324/305/289 342/305/307 354/259/319 344/259/309
f 342/305/307 332/305/297 351/259/316 354/259/319
f 332/299/297 337/298/302 353/306/318 351/308/316
f 337/298/302 336/249/301 352/248/317 353/306/318
f 326/301/291 330/300/295 350/254/315 346/251/311
f 325/249/290 329/302/294 349/250/314 345/248/310
f 327/304/292 328/303/293 348/258/313 347/255/312
f 328/303/293 324/305/289 344/259/309 348/258/313
f 330/300/295 327/304/292 347/255/312 350/254/315
f 329/302/294 326/301/291 346/251/311 349/250/314
f 341/270/306 335/270/300 352/248/317 355/248/320
f 364/311/177 362/312/327 363/267/328 356/266/321
f 360/257/325 361/256/326 362/312/327 364/311/177
f 359/252/324 360/257/325 364/311/177 358/313/323
f 358/313/323 364/311/177 356/266/321 357/310/322
f 302/261/268 362/261/327 361/256/326 296/256/262
f 300/253/266 358/253/323 357/270/322 294/270/260
f 294/310/260 357/310/322 356/266/321 304/266/270
f 292/260/258 363/260/328 362/261/327 302/261/268
f 366/314/330 368/315/332 367/316/331 365/317/329
f 368/315/332 370/318/334 369/319/333 367/316/331
f 370/318/334 372/320/336 371/321/335 369/319/333
f 372/320/336 374/322/338 373/323/337 371/321/335
f 374/322/338 376/324/340 375/325/339 373/323/337
f 376/324/340 378/326/342 377/327/341 375/325/339
f 378/326/342 380/328/344 379/329/343 377/327/341
f 380/328/344 382/330/346 381/331/345 379/329/343
f 382/330/346 384/332/348 383/333/347 381/331/345
f 384/332/348 386/334/350 385/335/349 383/333/347
f 386/334/350 388/336/352 387/337/351 385/335/349
f 388/336/352 390/338/354 389/339/353 387/337/351
f 390/338/354 392/340/356 391/341/355 389/339/353
f 392/340/356 394/342/358 393/343/357 391/341/355
f 394/342/358 396/344/360 395/345/359 393/343/357
f 366/346/330 396/347/360 394/348/358 392/349/356 390/350/354 388/351/352 386/352/350 384/353/348 382/354/346 380/355/344 378/356/342 376/357/340 374/358/338 372/359/336 370/360/334 368/361/332
f 395/345/359 396/344/360 366/314/330 365/317/329
f 365/362/329 367/363/331 369/364/333 371/365/335 373/366/337 375/367/339 377/368/341 379/369/343 381/370/345 383/371/347 385/372/349 387/373/351 389/374/353 391/375/355 393/376/357 395/377/359
f 446/378/410 410/379/374 400/380/364 440/381/404
f 444/382/408 406/383/370 404/384/368 441/385/405
f 445/386/409 412/387/376 402/388/366 442/389/406
f 443/390/407 408/391/372 398/392/362 439/393/403
f 414/394/378 411/395/375 401/396/365 407/397/371
f 413/398/377 410/399/374 398/400/362 408/401/372
f 412/387/376 413/398/377 408/401/372 402/388/366
f 409/402/373 414/394/378 407/397/371 397/403/361
f 442/389/406 402/388/366 408/391/372 443/390/407
f 440/381/404 400/380/364 406/383/370 444/382/408
f 399/404/363 405/405/369 414/394/378 409/402/373
f 404/384/368 406/406/370 413/398/377 412/387/376
f 406/406/370 400/407/364 410/399/374 413/398/377
f 405/405/369 403/408/367 411/395/375 414/394/378
f 441/385/405 404/384/368 412/387/376 445/386/409
f 439/409/403 398/410/362 410/379/374 446/378/410
f 438/411/402 415/412/379 422/413/386 437/414/401
f 432/415/396 417/416/381 421/417/385 436/418/400
f 431/419/395 416/420/380 420/421/384 435/422/399
f 433/423/397 418/424/382 419/425/383 434/426/398
f 434/426/398 419/425/383 415/427/379 438/428/402
f 436/418/400 421/417/385 418/424/382 433/423/397
f 435/422/399 420/421/384 417/416/381 432/415/396
f 437/414/401 422/413/386 416/420/380 431/419/395
f 415/412/379 423/429/387 430/430/394 422/413/386
f 417/416/381 425/431/389 429/432/393 421/417/385
f 416/420/380 424/433/388 428/434/392 420/421/384
f 418/424/382 426/435/390 427/436/391 419/425/383
f 419/425/383 427/436/391 423/437/387 415/427/379
f 421/417/385 429/432/393 426/435/390 418/424/382
f 420/421/384 428/434/392 425/431/389 417/416/381
f 422/413/386 430/430/394 424/433/388 416/420/380
f 409/438/373 437/414/401 431/419/395 399/439/363
f 405/440/369 435/422/399 432/415/396 403/408/367
f 411/395/375 436/418/400 433/423/397 401/396/365
f 407/441/371 434/426/398 438/428/402 397/442/361
f 401/396/365 433/423/397 434/426/398 407/441/371
f 399/439/363 431/419/395 435/422/399 405/440/369
f 403/408/367 432/415/396 436/418/400 411/395/375
f 397/443/361 438/411/402 437/414/401 409/438/373
f 423/429/387 439/409/403 446/378/410 430/430/394
f 425/431/389 441/385/405 445/386/409 429/432/393
f 424/433/388 440/381/404 444/382/408 428/434/392
f 426/435/390 442/389/406 443/390/407 427/436/391
f 427/436/391 443/390/407 439/393/403 423/437/387
f 429/432/393 445/386/409 442/389/406 426/435/390
f 428/434/392 444/382/408 441/385/405 425/431/389
f 430/430/394 446/378/410 440/381/404 424/433/388
f 496/444/460 460/445/424 450/446/414 490/447/454
f 494/448/458 456/449/420 454/450/418 491/451/455
f 495/452/459 462/453/426 452/454/416 492/455/456
f 493/456/457 458/457/422 448/458/412 489/459/453
f 464/460/428 461/461/425 451/462/415 457/463/421
f 463/464/427 460/465/424 448/466/412 458/467/422
f 462/453/426 463/464/427 458/467/422 452/454/416
f 459/468/423 464/460/428 457/463/421 447/469/411
f 492/455/456 452/454/416 458/457/422 493/456/457
f 490/447/454 450/446/414 456/449/420 494/448/458
f 449/470/413 455/471/419 464/460/428 459/468/423
f 454/450/418 456/472/420 463/464/427 462/453/426
f 456/472/420 450/473/414 460/465/424 463/464/427
f 455/471/419 453/474/417 461/461/425 464/460/428
f 491/451/455 454/450/418 462/453/426 495/452/459
f 489/475/453 448/476/412 460/445/424 496/444/460
f 488/477/452 465/478/429 472/479/436 487/480/451
f 482/481/446 467/482/431 471/483/435 486/484/450
f 481/485/445 466/486/430 470/487/434 485/488/449
f 483/489/447 468/490/432 469/491/433 484/492/448
f 484/492/448 469/491/433 465/493/429 488/494/452
f 486/484/450 471/483/435 468/490/432 483/489/447
f 485/488/449 470/487/434 467/482/431 482/481/446
f 487/480/451 472/479/436 466/486/430 481/485/445
f 504/495/468 473/496/437 480/497/444 503/498/467
f 498/499/462 475/500/439 479/501/443 502/502/466
f 497/503/461 474/504/438 478/505/442 501/506/465
f 499/507/463 476/508/440 477/509/441 500/510/464
f 500/510/464 477/509/441 473/511/437 504/512/468
f 502/502/466 479/501/443 476/508/440 499/507/463
f 501/506/465 478/505/442 475/500/439 498/499/462
f 503/498/467 480/497/444 474/504/438 497/503/461
f 459/513/423 487/480/451 481/485/445 449/514/413
f 455/515/419 485/488/449 482/481/446 453/474/417
f 461/461/425 486/484/450 483/489/447 451/462/415
f 457/516/421 484/492/448 488/494/452 447/517/411
f 451/462/415 483/489/447 484/492/448 457/516/421
f 449/514/413 481/485/445 485/488/449 455/515/419
f 453/474/417 482/481/446 486/484/450 461/461/425
f 447/518/411 488/477/452 487/480/451 459/513/423
f 473/496/437 489/475/453 496/444/460 480/497/444
f 475/500/439 491/451/455 495/452/459 479/501/443
f 474/504/438 490/447/454 494/448/458 478/505/442
f 476/508/440 492/455/456 493/456/457 477/509/441
f 477/509/441 493/456/457 489/459/453 473/511/437
f 479/501/443 495/452/459 492/455/456 476/508/440
f 478/505/442 494/448/458 491/451/455 475/500/439
f 480/497/444 496/444/460 490/447/454 474/504/438
f 472/479/436 503/498/467 497/503/461 466/486/430
f 470/487/434 501/506/465 498/499/462 467/482/431
f 471/483/435 502/502/466 499/507/463 468/490/432
f 469/491/433 500/510/464 504/512/468 465/493/429
f 468/490/432 499/507/463 500/510/464 469/491/433
f 466/486/430 497/503/461 501/506/465 470/487/434
f 467/482/431 498/499/462 502/502/466 471/483/435
f 465/478/429 504/495/468 503/498/467 472/479/436
