# Blender 5.1.2
# www.blender.org
o Cylinder
v -0.146169 0.000000 -0.000000
v 0.146169 0.351049 0.000000
v -0.146169 0.075748 0.611355
v 0.146169 0.416296 0.526604
v -0.146169 0.300081 1.199217
v 0.146169 0.611387 1.037835
v -0.146169 0.664378 1.740993
v 0.146169 0.933058 1.516218
v -0.146169 1.154639 2.215863
v 0.146169 1.373002 1.942352
v -0.146169 1.752024 2.605579
v 0.146170 1.916594 2.296975
v -0.146169 2.433575 2.895165
v 0.146169 2.543274 2.563246
v -0.146169 3.173102 3.073491
v 0.146170 3.227875 2.728328
v -0.146169 3.942183 3.133704
v 0.146170 3.942183 2.784252
v -0.146169 4.711266 3.073491
v 0.146170 4.656492 2.728328
v -0.146168 5.450792 2.895165
v 0.146170 5.341093 2.563246
v -0.146169 6.132343 2.605579
v 0.146170 5.967773 2.296975
v -0.146169 6.729728 2.215863
v 0.146170 6.511364 1.942352
v -0.146169 7.219989 1.740993
v 0.146170 6.951309 1.516218
v -0.146169 7.584286 1.199217
v 0.146170 7.272980 1.037835
v -0.146169 7.808619 0.611355
v 0.146170 7.468070 0.526604
v -0.146169 7.884367 -0.000000
v 0.146170 7.533318 0.000000
v -0.146169 7.808619 -0.611355
v 0.146170 7.468070 -0.526604
v -0.146169 7.584286 -1.199217
v 0.146170 7.272980 -1.037835
v -0.146169 7.219989 -1.740993
v 0.146170 6.951309 -1.516218
v -0.146169 6.729728 -2.215863
v 0.146170 6.511364 -1.942352
v -0.146169 6.132343 -2.605579
v 0.146170 5.967773 -2.296975
v -0.146169 5.450792 -2.895164
v 0.146170 5.341093 -2.563246
v -0.146169 4.711266 -3.073491
v 0.146170 4.656492 -2.728328
v -0.146169 3.942183 -3.133704
v 0.146170 3.942183 -2.784253
v -0.146169 3.173102 -3.073491
v 0.146170 3.227875 -2.728328
v -0.146169 2.433575 -2.895164
v 0.146170 2.543274 -2.563246
v -0.146168 1.752024 -2.605580
v 0.146170 1.916594 -2.296975
v -0.146169 1.154639 -2.215863
v 0.146170 1.373003 -1.942352
v -0.146169 0.664378 -1.740993
v 0.146170 0.933058 -1.516218
v -0.146169 0.300081 -1.199217
v 0.146169 0.611387 -1.037835
v -0.146169 0.075748 -0.611355
v 0.146169 0.416296 -0.526604
v 0.146169 0.075748 0.611355
v 0.146169 0.000000 0.000000
v 0.146169 0.300081 1.199217
v 0.146169 0.664378 1.740993
v 0.146169 1.154639 2.215863
v 0.146170 1.752024 2.605579
v 0.146169 2.433575 2.895165
v 0.146170 3.173102 3.073491
v 0.146170 3.942183 3.133704
v 0.146170 4.711266 3.073491
v 0.146170 5.450792 2.895165
v 0.146170 6.132343 2.605579
v 0.146170 6.729728 2.215863
v 0.146170 7.219989 1.740993
v 0.146170 7.584286 1.199217
v 0.146170 7.808619 0.611355
v 0.146170 7.884367 0.000000
v 0.146170 7.808619 -0.611355
v 0.146170 7.584286 -1.199217
v 0.146170 7.219989 -1.740993
v 0.146170 6.729728 -2.215863
v 0.146170 6.132343 -2.605579
v 0.146170 5.450792 -2.895164
v 0.146170 4.711266 -3.073491
v 0.146170 3.942183 -3.133704
v 0.146170 3.173102 -3.073491
v 0.146170 2.433575 -2.895164
v 0.146170 1.752024 -2.605579
v 0.146170 1.154639 -2.215863
v 0.146170 0.664378 -1.740993
v 0.146169 0.300081 -1.199217
v 0.146169 0.075748 -0.611355
v -0.072126 0.416296 0.526604
v -0.072126 0.351049 -0.000000
v -0.072126 0.611387 1.037835
v -0.072126 0.933058 1.516218
v -0.072126 1.373002 1.942352
v -0.072126 1.916594 2.296975
v -0.072126 2.543274 2.563246
v -0.072126 3.227875 2.728328
v -0.072126 3.942183 2.784252
v -0.072126 4.656492 2.728328
v -0.072126 5.341093 2.563246
v -0.072126 5.967773 2.296975
v -0.072126 6.511364 1.942352
v -0.072126 6.951309 1.516218
v -0.072126 7.272980 1.037835
v -0.072126 7.468070 0.526604
v -0.072126 7.533318 -0.000000
v -0.072126 7.468070 -0.526604
v -0.072126 7.272980 -1.037835
v -0.072125 6.951309 -1.516218
v -0.072125 6.511364 -1.942352
v -0.072126 5.967773 -2.296975
v -0.072125 5.341093 -2.563246
v -0.072126 4.656492 -2.728328
v -0.072126 3.942183 -2.784253
v -0.072126 3.227875 -2.728328
v -0.072126 2.543274 -2.563246
v -0.072126 1.916594 -2.296975
v -0.072126 1.373003 -1.942352
v -0.072126 0.933058 -1.516218
v -0.072126 0.611387 -1.037835
v -0.072126 0.416296 -0.526604
vn -0.6805 -0.7328 -0.0000
vn 0.7359 0.6771 -0.0000
vn -0.6810 -0.7106 0.1768
vn 0.7352 0.6578 -0.1637
vn -0.6824 -0.6489 0.3364
vn 0.7336 0.6034 -0.3128
vn -0.6843 -0.5593 0.4679
vn 0.7314 0.5231 -0.4376
vn -0.6862 -0.4538 0.5684
vn 0.7293 0.4269 -0.5347
vn -0.6878 -0.3416 0.6405
vn 0.7275 0.3229 -0.6054
vn -0.6890 -0.2274 0.6881
vn 0.7261 0.2158 -0.6528
vn -0.6897 -0.1135 0.7151
vn 0.7254 0.1079 -0.6799
vn -0.6900 -0.0000 0.7238
vn 0.7251 -0.0000 -0.6886
vn -0.6897 0.1135 0.7151
vn 0.7254 -0.1079 -0.6799
vn -0.6890 0.2274 0.6881
vn 0.7261 -0.2158 -0.6528
vn -0.6878 0.3416 0.6405
vn 0.7275 -0.3229 -0.6054
vn -0.6862 0.4538 0.5684
vn 0.7293 -0.4269 -0.5347
vn -0.6843 0.5593 0.4679
vn 0.7314 -0.5231 -0.4376
vn -0.6824 0.6489 0.3364
vn 0.7336 -0.6034 -0.3128
vn -0.6810 0.7106 0.1768
vn 0.7352 -0.6578 -0.1637
vn -0.6805 0.7328 -0.0000
vn 0.7359 -0.6771 -0.0000
vn -0.6810 0.7106 -0.1768
vn 0.7352 -0.6578 0.1637
vn -0.6824 0.6489 -0.3364
vn 0.7336 -0.6034 0.3128
vn -0.6843 0.5593 -0.4679
vn 0.7314 -0.5231 0.4376
vn -0.6862 0.4538 -0.5684
vn 0.7293 -0.4269 0.5347
vn -0.6878 0.3416 -0.6405
vn 0.7275 -0.3229 0.6054
vn -0.6890 0.2274 -0.6881
vn 0.7261 -0.2158 0.6528
vn -0.6897 0.1135 -0.7151
vn 0.7254 -0.1079 0.6799
vn -0.6900 -0.0000 -0.7238
vn 0.7251 -0.0000 0.6886
vn -0.6897 -0.1135 -0.7151
vn 0.7254 0.1079 0.6799
vn -0.6890 -0.2274 -0.6881
vn 0.7261 0.2158 0.6528
vn -0.6878 -0.3416 -0.6405
vn 0.7275 0.3229 0.6054
vn -0.6862 -0.4538 -0.5684
vn 0.7293 0.4269 0.5347
vn -0.6843 -0.5593 -0.4679
vn 0.7314 0.5231 0.4376
vn -0.6824 -0.6489 -0.3364
vn 0.7336 0.6034 0.3128
vn -0.6810 -0.7106 -0.1768
vn 0.7352 0.6578 0.1637
vn 0.6810 -0.7106 0.1768
vn 0.6805 -0.7328 -0.0000
vn 0.6824 -0.6489 0.3364
vn 0.6843 -0.5593 0.4679
vn 0.6862 -0.4538 0.5684
vn 0.6878 -0.3416 0.6405
vn 0.6890 -0.2274 0.6881
vn 0.6897 -0.1135 0.7151
vn 0.6900 -0.0000 0.7238
vn 0.6897 0.1135 0.7151
vn 0.6890 0.2274 0.6881
vn 0.6878 0.3416 0.6405
vn 0.6862 0.4538 0.5684
vn 0.6843 0.5593 0.4679
vn 0.6824 0.6489 0.3364
vn 0.6810 0.7106 0.1768
vn 0.6805 0.7328 -0.0000
vn 0.6810 0.7106 -0.1768
vn 0.6824 0.6489 -0.3364
vn 0.6843 0.5593 -0.4679
vn 0.6862 0.4538 -0.5684
vn 0.6878 0.3416 -0.6405
vn 0.6890 0.2274 -0.6881
vn 0.6897 0.1135 -0.7151
vn 0.6900 -0.0000 -0.7238
vn 0.6897 -0.1135 -0.7151
vn 0.6890 -0.2274 -0.6881
vn 0.6878 -0.3416 -0.6405
vn 0.6862 -0.4538 -0.5684
vn 0.6843 -0.5593 -0.4679
vn 0.6824 -0.6489 -0.3364
vn 0.6810 -0.7106 -0.1768
vt 0.925613 0.712526
vt 0.925794 0.710358
vt 0.930229 0.711262
vt 0.929546 0.713341
vt 0.934389 0.713337
vt 0.933269 0.715203
vt 0.938158 0.716453
vt 0.936684 0.718049
vt 0.941417 0.720484
vt 0.939682 0.721759
vt 0.944013 0.725280
vt 0.942113 0.726206
vt 0.945813 0.730686
vt 0.943756 0.731261
vt 0.946773 0.736463
vt 0.944703 0.736675
vt 0.946884 0.742363
vt 0.944769 0.742217
vt 0.946054 0.748193
vt 0.944033 0.747696
vt 0.944374 0.753786
vt 0.942403 0.752913
vt 0.941882 0.758913
vt 0.940099 0.757692
vt 0.938712 0.763333
vt 0.937176 0.761801
vt 0.935012 0.766862
vt 0.933794 0.765083
vt 0.930905 0.769403
vt 0.930038 0.767387
vt 0.926506 0.770889
vt 0.926117 0.768698
vt 0.921997 0.771141
vt 0.922125 0.768976
vt 0.917549 0.770293
vt 0.918199 0.768171
vt 0.913361 0.768211
vt 0.914473 0.766330
vt 0.909587 0.765107
vt 0.911025 0.763496
vt 0.906317 0.761085
vt 0.908037 0.759767
vt 0.903693 0.756244
vt 0.905645 0.755288
vt 0.901856 0.750792
vt 0.903910 0.750230
vt 0.900899 0.744998
vt 0.902991 0.744805
vt 0.900791 0.739091
vt 0.902884 0.739255
vt 0.901625 0.733261
vt 0.903657 0.733781
vt 0.903291 0.727677
vt 0.905230 0.728547
vt 0.905756 0.722582
vt 0.907528 0.723774
vt 0.908930 0.718166
vt 0.910500 0.719684
vt 0.912687 0.714590
vt 0.913943 0.716428
vt 0.916863 0.712047
vt 0.917676 0.714102
vt 0.946955 0.754927
vt 0.948724 0.748846
vt 0.950558 0.749278
vt 0.948734 0.755693
vt 0.921276 0.710606
vt 0.921612 0.712787
vt 0.926019 0.706887
vt 0.931169 0.708147
vt 0.935928 0.710619
vt 0.940159 0.714185
vt 0.943752 0.718704
vt 0.946581 0.724017
vt 0.948505 0.729929
vt 0.949499 0.736187
vt 0.949508 0.742544
vt 0.944274 0.760531
vt 0.940812 0.765411
vt 0.936710 0.769383
vt 0.932086 0.772321
vt 0.927052 0.774109
vt 0.921791 0.774621
vt 0.916622 0.773408
vt 0.911834 0.770947
vt 0.907587 0.767390
vt 0.903964 0.762872
vt 0.901116 0.757521
vt 0.899143 0.751563
vt 0.898166 0.745272
vt 0.898166 0.738906
vt 0.898959 0.732611
vt 0.900715 0.726550
vt 0.903364 0.720963
vt 0.906822 0.716061
vt 0.910982 0.712043
vt 0.915685 0.709106
vt 0.920752 0.707363
vt 0.969177 0.570603
vt 0.972090 0.570463
vt 0.974946 0.571081
vt 0.977664 0.572447
vt 0.980146 0.574533
vt 0.982292 0.577282
vt 0.984002 0.580601
vt 0.985192 0.584362
vt 0.985802 0.588413
vt 0.985802 0.592587
vt 0.985190 0.596711
vt 0.983992 0.600612
vt 0.982264 0.604131
vt 0.980088 0.607127
vt 0.977565 0.609488
vt 0.974806 0.611139
vt 0.971922 0.612040
vt 0.969009 0.612179
vt 0.966152 0.611561
vt 0.963435 0.610195
vt 0.960952 0.608110
vt 0.958807 0.605360
vt 0.957097 0.602042
vt 0.955907 0.598281
vt 0.955296 0.594229
vt 0.955296 0.590055
vt 0.955909 0.585932
vt 0.957107 0.582030
vt 0.958835 0.578512
vt 0.961011 0.575516
vt 0.963534 0.573154
vt 0.966292 0.571503
vt 0.896292 0.745431
vt 0.896307 0.738766
vt 0.945940 0.761636
vt 0.897130 0.732180
vt 0.942300 0.766851
vt 0.898941 0.725791
vt 0.937947 0.771154
vt 0.901695 0.719865
vt 0.932983 0.774405
vt 0.926190 0.704485
vt 0.931930 0.705906
vt 0.905321 0.714611
vt 0.927497 0.776445
vt 0.937097 0.708696
vt 0.909737 0.710245
vt 0.921638 0.777027
vt 0.941620 0.712617
vt 0.914796 0.706997
vt 0.915873 0.775661
vt 0.945413 0.717500
vt 0.920325 0.705016
vt 0.910669 0.772881
vt 0.948370 0.723166
vt 0.906128 0.768969
vt 0.950360 0.729434
vt 0.902298 0.764099
vt 0.951367 0.736027
vt 0.899317 0.758378
vt 0.951367 0.742680
vt 0.897274 0.752068
s 1
f 1/1/1 66/2/66 65/3/65 3/4/3
f 3/4/3 65/3/65 67/5/67 5/6/5
f 5/6/5 67/5/67 68/7/68 7/8/7
f 7/8/7 68/7/68 69/9/69 9/10/9
f 9/10/9 69/9/69 70/11/70 11/12/11
f 11/12/11 70/11/70 71/13/71 13/14/13
f 13/14/13 71/13/71 72/15/72 15/16/15
f 15/16/15 72/15/72 73/17/73 17/18/17
f 17/18/17 73/17/73 74/19/74 19/20/19
f 19/20/19 74/19/74 75/21/75 21/22/21
f 21/22/21 75/21/75 76/23/76 23/24/23
f 23/24/23 76/23/76 77/25/77 25/26/25
f 25/26/25 77/25/77 78/27/78 27/28/27
f 27/28/27 78/27/78 79/29/79 29/30/29
f 29/30/29 79/29/79 80/31/80 31/32/31
f 31/32/31 80/31/80 81/33/81 33/34/33
f 33/34/33 81/33/81 82/35/82 35/36/35
f 35/36/35 82/35/82 83/37/83 37/38/37
f 37/38/37 83/37/83 84/39/84 39/40/39
f 39/40/39 84/39/84 85/41/85 41/42/41
f 41/42/41 85/41/85 86/43/86 43/44/43
f 43/44/43 86/43/86 87/45/87 45/46/45
f 45/46/45 87/45/87 88/47/88 47/48/47
f 47/48/47 88/47/88 89/49/89 49/50/49
f 49/50/49 89/49/89 90/51/90 51/52/51
f 51/52/51 90/51/90 91/53/91 53/54/53
f 53/54/53 91/53/91 92/55/92 55/56/55
f 55/56/55 92/55/92 93/57/93 57/58/57
f 57/58/57 93/57/93 94/59/94 59/60/59
f 59/60/59 94/59/94 95/61/95 61/62/61
f 22/63/22 20/64/20 106/65/90 107/66/91
f 61/62/61 95/61/95 96/67/96 63/68/63
f 63/68/63 96/67/96 66/2/66 1/1/1
f 1/1/1 3/4/3 5/6/5 7/8/7 9/10/9 11/12/11 13/14/13 15/16/15 17/18/17 19/20/19 21/22/21 23/24/23 25/26/25 27/28/27 29/30/29 31/32/31 33/34/33 35/36/35 37/38/37 39/40/39 41/42/41 43/44/43 45/46/45 47/48/47 49/50/49 51/52/51 53/54/53 55/56/55 57/58/57 59/60/59 61/62/61 63/68/63
f 2/69/2 4/70/4 65/3/65 66/2/66
f 4/70/4 6/71/6 67/5/67 65/3/65
f 6/71/6 8/72/8 68/7/68 67/5/67
f 8/72/8 10/73/10 69/9/69 68/7/68
f 10/73/10 12/74/12 70/11/70 69/9/69
f 12/74/12 14/75/14 71/13/71 70/11/70
f 14/75/14 16/76/16 72/15/72 71/13/71
f 16/76/16 18/77/18 73/17/73 72/15/72
f 18/77/18 20/64/20 74/19/74 73/17/73
f 20/64/20 22/63/22 75/21/75 74/19/74
f 22/63/22 24/78/24 76/23/76 75/21/75
f 24/78/24 26/79/26 77/25/77 76/23/76
f 26/79/26 28/80/28 78/27/78 77/25/77
f 28/80/28 30/81/30 79/29/79 78/27/78
f 30/81/30 32/82/32 80/31/80 79/29/79
f 32/82/32 34/83/34 81/33/81 80/31/80
f 34/83/34 36/84/36 82/35/82 81/33/81
f 36/84/36 38/85/38 83/37/83 82/35/82
f 38/85/38 40/86/40 84/39/84 83/37/83
f 40/86/40 42/87/42 85/41/85 84/39/84
f 42/87/42 44/88/44 86/43/86 85/41/85
f 44/88/44 46/89/46 87/45/87 86/43/86
f 46/89/46 48/90/48 88/47/88 87/45/87
f 48/90/48 50/91/50 89/49/89 88/47/88
f 50/91/50 52/92/52 90/51/90 89/49/89
f 52/92/52 54/93/54 91/53/91 90/51/90
f 54/93/54 56/94/56 92/55/92 91/53/91
f 56/94/56 58/95/58 93/57/93 92/55/92
f 58/95/58 60/96/60 94/59/94 93/57/93
f 60/96/60 62/97/62 95/61/95 94/59/94
f 62/97/62 64/98/64 96/67/96 95/61/95
f 64/98/64 2/69/2 66/2/66 96/67/96
f 97/99/82 98/100/81 128/101/80 127/102/79 126/103/78 125/104/77 124/105/76 123/106/75 122/107/74 121/108/73 120/109/72 119/110/71 118/111/70 117/112/69 116/113/68 115/114/67 114/115/65 113/116/66 112/117/96 111/118/95 110/119/94 109/120/93 108/121/92 107/122/91 106/123/90 105/124/89 104/125/88 103/126/87 102/127/86 101/128/85 100/129/84 99/130/83
f 50/91/50 48/90/48 120/131/72 121/132/73
f 24/78/24 22/63/22 107/66/91 108/133/92
f 52/92/52 50/91/50 121/132/73 122/134/74
f 26/79/26 24/78/24 108/133/92 109/135/93
f 54/93/54 52/92/52 122/134/74 123/136/75
f 28/80/28 26/79/26 109/135/93 110/137/94
f 56/94/56 54/93/54 123/136/75 124/138/76
f 30/81/30 28/80/28 110/137/94 111/139/95
f 4/70/4 2/69/2 98/140/81 97/141/82
f 58/95/58 56/94/56 124/138/76 125/142/77
f 32/82/32 30/81/30 111/139/95 112/143/96
f 6/71/6 4/70/4 97/141/82 99/144/83
f 60/96/60 58/95/58 125/142/77 126/145/78
f 34/83/34 32/82/32 112/143/96 113/146/66
f 8/72/8 6/71/6 99/144/83 100/147/84
f 62/97/62 60/96/60 126/145/78 127/148/79
f 36/84/36 34/83/34 113/146/66 114/149/65
f 10/73/10 8/72/8 100/147/84 101/150/85
f 64/98/64 62/97/62 127/148/79 128/151/80
f 38/85/38 36/84/36 114/149/65 115/152/67
f 12/74/12 10/73/10 101/150/85 102/153/86
f 2/69/2 64/98/64 128/151/80 98/140/81
f 40/86/40 38/85/38 115/152/67 116/154/68
f 14/75/14 12/74/12 102/153/86 103/155/87
f 42/87/42 40/86/40 116/154/68 117/156/69
f 16/76/16 14/75/14 103/155/87 104/157/88
f 44/88/44 42/87/42 117/156/69 118/158/70
f 18/77/18 16/76/16 104/157/88 105/159/89
f 46/89/46 44/88/44 118/158/70 119/160/71
f 20/64/20 18/77/18 105/159/89 106/65/90
f 48/90/48 46/89/46 119/160/71 120/131/72
