# Blender 5.1.2
# www.blender.org
o Bathroom_Cabinet
v -0.668075 0.000000 0.668075
v -0.737733 3.280496 0.737733
v -0.668075 0.000000 -0.668075
v -0.737733 3.280496 -0.737733
v 0.668075 0.129488 0.538587
v 0.737733 3.280496 0.737733
v 0.668075 0.129488 -0.538587
v 0.737733 3.280496 -0.737733
v -0.668075 3.197655 0.668075
v -0.668075 3.197655 -0.668075
v 0.668075 3.076451 -0.546871
v 0.668075 3.076451 0.546871
v -0.668075 2.321859 -0.668075
v 0.668075 2.443063 -0.546871
v 0.668075 2.443063 0.546871
v -0.668075 2.321859 0.668075
v -0.668075 1.160929 -0.668075
v 0.668075 1.286029 -0.542976
v 0.668075 1.286029 0.542976
v -0.668075 1.160929 0.668075
v 0.668075 3.197655 -0.668075
v 0.668075 3.197655 0.668075
v 0.668075 2.196759 -0.542976
v 0.668075 2.196759 0.542976
v 0.668075 2.321859 -0.668075
v 0.668075 2.321859 0.668075
v 0.668075 1.031441 -0.538587
v 0.668075 1.031441 0.538587
v 0.668075 1.160929 -0.668075
v 0.668075 0.000000 -0.668075
v 0.668075 0.000000 0.668075
v 0.668075 1.160929 0.668075
v 0.630927 3.076451 -0.546871
v 0.630927 3.076451 0.546871
v 0.630927 2.443063 -0.546871
v 0.630927 2.443063 0.546871
v 0.630927 2.196759 -0.542976
v 0.630927 2.196759 0.542976
v 0.630927 1.286029 -0.542976
v 0.630927 1.286029 0.542976
v 0.630927 1.031441 -0.538587
v 0.630927 0.129488 -0.538587
v 0.630927 0.129488 0.538587
v 0.630927 1.031441 0.538587
v 0.624939 2.955016 0.136009
v 0.624939 2.981345 0.136009
v 0.624939 2.955016 -0.155453
v 0.624939 2.981345 -0.155453
v 0.763732 2.981345 0.136009
v 0.763732 2.981345 -0.155453
v 0.719123 2.955016 -0.155453
v 0.674237 2.981345 -0.155453
v 0.719123 2.955016 0.136009
v 0.674237 2.981345 0.136009
v 0.749516 0.831985 0.136009
v 0.759923 0.835027 0.136009
v 0.763732 0.855464 -0.155453
v 0.735299 0.847152 -0.155453
v 0.759923 0.835027 -0.155453
v 0.749516 0.831985 -0.155453
v 0.749516 2.004188 -0.155453
v 0.759923 2.007230 -0.155453
v 0.735299 2.019355 -0.155453
v 0.763732 2.027666 -0.155453
v 0.759923 2.007230 0.136009
v 0.749516 2.004188 0.136009
v 0.763732 2.027666 0.136009
v 0.735299 2.019355 0.136009
v 0.674237 2.084171 0.136009
v 0.719123 2.057841 0.136009
v 0.674237 2.084171 -0.155453
v 0.719123 2.057841 -0.155453
v 0.763732 2.084171 -0.155453
v 0.763732 2.084171 0.136009
v 0.624939 2.084171 -0.155453
v 0.624939 2.057841 -0.155453
v 0.624939 2.084171 0.136009
v 0.624939 2.057841 0.136009
v 0.735299 2.916529 0.136009
v 0.763732 2.924840 0.136009
v 0.749516 2.901362 0.136009
v 0.759923 2.904404 0.136009
v 0.763732 2.924840 -0.155453
v 0.735299 2.916529 -0.155453
v 0.759923 2.904404 -0.155453
v 0.749516 2.901362 -0.155453
v 0.763732 0.855464 0.136009
v 0.735299 0.847152 0.136009
v 0.674237 0.911968 0.136009
v 0.719123 0.885639 0.136009
v 0.674237 0.911968 -0.155453
v 0.719123 0.885639 -0.155453
v 0.763732 0.911968 -0.155453
v 0.763732 0.911968 0.136009
v 0.624939 0.911968 -0.155453
v 0.624939 0.885639 -0.155453
v 0.624939 0.911968 0.136009
v 0.624939 0.885639 0.136009
vn -0.7654 -0.6436 -0.0000
vn -0.0000 -0.6436 -0.7654
vn 0.7654 -0.6436 -0.0000
vn -0.0000 -0.6436 0.7654
vn -0.0000 -1.0000 -0.0000
vn -0.0000 1.0000 -0.0000
vn -0.0000 -0.0000 1.0000
vn -0.0000 -0.0000 -1.0000
vn -1.0000 -0.0000 -0.0000
vn 1.0000 -0.0000 -0.0000
vn -0.7296 -0.6839 -0.0000
vn 0.2806 -0.9598 -0.0000
vn 0.9831 -0.1832 -0.0000
vn -0.9219 -0.3875 -0.0000
vt 0.329966 0.852955
vt 0.339846 0.868307
vt 0.130567 0.868307
vt 0.140447 0.852955
vt 0.361494 0.850772
vt 0.375377 0.872344
vt 0.081308 0.872344
vt 0.095191 0.850772
vt 0.105564 0.716226
vt 0.073869 0.736624
vt 0.073869 0.304562
vt 0.105564 0.324960
vt 0.391946 0.764919
vt 0.406678 0.787810
vt 0.094625 0.787810
vt 0.109357 0.764919
vt 0.025675 0.700782
vt 0.160184 0.700782
vt 0.160184 0.835291
vt 0.025675 0.835291
vt 0.387780 0.706972
vt 0.063073 0.706972
vt 0.063073 0.382264
vt 0.387780 0.382264
vt 0.391946 0.579693
vt 0.109357 0.579693
vt 0.361474 0.370850
vt 0.352033 0.700139
vt 0.339001 0.690274
vt 0.351161 0.385143
vt 0.361494 0.676221
vt 0.095191 0.676221
vt 0.329966 0.728733
vt 0.140447 0.728733
vt 0.329966 0.564067
vt 0.140447 0.564067
vt 0.361494 0.444840
vt 0.095191 0.444840
vt 0.346089 0.687975
vt 0.141642 0.679623
vt 0.151288 0.666385
vt 0.333021 0.677333
vt 0.391946 0.334162
vt 0.109357 0.334162
vt 0.391946 0.088632
vt 0.109357 0.088632
vt 0.086355 0.312037
vt 0.373818 0.323565
vt 0.363592 0.337008
vt 0.100105 0.322845
vt 0.361494 0.213460
vt 0.095191 0.213460
vt 0.329966 0.399402
vt 0.140447 0.399402
vt 0.137543 0.361263
vt 0.375444 0.718478
vt 0.342629 0.368126
vt 0.376829 0.336847
vt 0.398358 0.335772
vt 0.384409 0.735505
vt 0.072615 0.382835
vt 0.034610 0.344987
vt 0.065465 0.711580
vt 0.034610 0.743168
vt 0.089333 0.645546
vt 0.376797 0.657073
vt 0.411832 0.696383
vt 0.051319 0.679583
vt 0.411832 0.289527
vt 0.051319 0.272728
vt 0.150584 0.371823
vt 0.332929 0.381500
vt 0.085728 0.392731
vt 0.075653 0.697424
vt 0.363047 0.646266
vt 0.099560 0.632102
vt 0.611394 0.824268
vt 0.646610 0.824268
vt 0.646610 0.859484
vt 0.611394 0.859484
vt 0.611394 0.947523
vt 0.646610 0.947523
vt 0.646610 0.965130
vt 0.611394 0.965130
vt 0.664218 0.894699
vt 0.681826 0.894699
vt 0.681826 0.929915
vt 0.664218 0.929915
vt 0.646610 0.894699
vt 0.646610 0.929915
vt 0.576179 0.894699
vt 0.593786 0.894699
vt 0.593786 0.929915
vt 0.576179 0.929915
vt 0.646610 0.877092
vt 0.611394 0.877092
vt 0.603912 0.933656
vt 0.603912 0.890958
vt 0.607661 0.892865
vt 0.607661 0.931749
vt 0.621272 0.894235
vt 0.621272 0.930380
vt 0.628404 0.894699
vt 0.628404 0.929915
s 0
f 9/1/1 2/2/1 4/3/1 10/4/1
f 10/5/2 4/6/2 8/7/2 21/8/2
f 21/9/3 8/10/3 6/11/3 22/12/3
f 22/13/4 6/14/4 2/15/4 9/16/4
f 3/17/5 30/18/5 31/19/5 1/20/5
f 8/21/6 4/22/6 2/23/6 6/24/6
f 26/25/7 22/13/7 9/16/7 16/26/7
f 23/27/5 24/28/5 38/29/5 37/30/5
f 13/31/8 10/5/8 21/8/8 25/32/8
f 16/33/9 9/1/9 10/4/9 13/34/9
f 20/35/9 16/33/9 13/34/9 17/36/9
f 17/37/8 13/31/8 25/32/8 29/38/8
f 14/39/7 11/40/7 33/41/7 35/42/7
f 32/43/7 26/25/7 16/26/7 20/44/7
f 31/45/7 32/43/7 20/44/7 1/46/7
f 28/47/8 5/48/8 43/49/8 44/50/8
f 3/51/8 17/37/8 29/38/8 30/52/8
f 1/53/9 20/35/9 17/36/9 3/54/9
f 12/55/10 11/40/10 21/9/10 22/12/10
f 11/40/10 14/39/10 25/56/10 21/9/10
f 15/57/10 12/55/10 22/12/10 26/58/10
f 14/39/10 15/57/10 26/58/10 25/56/10
f 24/28/10 23/27/10 25/59/10 26/60/10
f 23/27/10 18/61/10 29/62/10 25/59/10
f 19/63/10 24/28/10 26/60/10 32/64/10
f 18/61/10 19/63/10 32/64/10 29/62/10
f 27/65/10 7/66/10 30/67/10 29/68/10
f 7/66/10 5/48/10 31/69/10 30/67/10
f 5/48/10 28/47/10 32/70/10 31/69/10
f 28/47/10 27/65/10 29/68/10 32/70/10
f 35/42/10 33/41/10 34/71/10 36/72/10
f 39/73/10 37/30/10 38/29/10 40/74/10
f 42/75/10 41/76/10 44/50/10 43/49/10
f 27/65/5 28/47/5 44/50/5 41/76/5
f 12/55/8 15/57/8 36/72/8 34/71/8
f 18/61/7 23/27/7 37/30/7 39/73/7
f 7/66/7 27/65/7 41/76/7 42/75/7
f 15/57/6 14/39/6 35/42/6 36/72/6
f 24/28/8 19/63/8 40/74/8 38/29/8
f 5/48/6 7/66/6 42/75/6 43/49/6
f 11/40/5 12/55/5 34/71/5 33/41/5
f 19/63/6 18/61/6 39/73/6 40/74/6
f 45/77/9 46/78/9 48/79/9 47/80/9
f 53/81/7 54/82/7 46/83/7 45/84/7
f 52/85/6 48/86/6 46/87/6 54/88/6
f 50/89/6 52/85/6 54/88/6 49/90/6
f 47/91/5 51/92/5 53/93/5 45/94/5
f 47/80/8 48/79/8 52/95/8 51/96/8
f 96/80/8 95/79/8 91/95/8 92/96/8
f 88/97/11 58/98/11 60/99/11 55/100/11
f 55/100/12 60/99/12 59/101/12 56/102/12
f 56/102/13 59/101/13 57/103/13 87/104/13
f 57/103/10 93/89/10 94/90/10 87/104/10
f 88/97/7 55/100/7 56/102/7 87/104/7 94/90/7 89/82/7 90/81/7
f 92/96/8 91/95/8 93/89/8 57/103/8 59/101/8 60/99/8 58/98/8
f 72/96/8 71/95/8 73/89/8 64/103/8 62/101/8 61/99/8 63/98/8
f 68/97/7 66/100/7 65/102/7 67/104/7 74/90/7 69/82/7 70/81/7
f 64/103/10 73/89/10 74/90/10 67/104/10
f 65/102/13 62/101/13 64/103/13 67/104/13
f 66/100/12 61/99/12 62/101/12 65/102/12
f 68/97/11 63/98/11 61/99/11 66/100/11
f 76/80/8 75/79/8 71/95/8 72/96/8
f 76/91/5 72/92/5 70/93/5 78/94/5
f 73/89/6 71/85/6 69/88/6 74/90/6
f 72/92/14 63/98/14 68/97/14 70/93/14
f 71/85/6 75/86/6 77/87/6 69/88/6
f 70/81/7 69/82/7 77/83/7 78/84/7
f 78/77/9 77/78/9 75/79/9 76/80/9
f 79/97/11 84/98/11 86/99/11 81/100/11
f 81/100/12 86/99/12 85/101/12 82/102/12
f 82/102/13 85/101/13 83/103/13 80/104/13
f 51/92/14 84/98/14 79/97/14 53/93/14
f 83/103/10 50/89/10 49/90/10 80/104/10
f 79/97/7 81/100/7 82/102/7 80/104/7 49/90/7 54/82/7 53/81/7
f 51/96/8 52/95/8 50/89/8 83/103/8 85/101/8 86/99/8 84/98/8
f 96/91/5 92/92/5 90/93/5 98/94/5
f 93/89/6 91/85/6 89/88/6 94/90/6
f 92/92/14 58/98/14 88/97/14 90/93/14
f 91/85/6 95/86/6 97/87/6 89/88/6
f 90/81/7 89/82/7 97/83/7 98/84/7
f 98/77/9 97/78/9 95/79/9 96/80/9
