# Blender 5.0.0
# www.blender.org
o Couch_Table.002
v -0.001540 1.219407 1.451325
v -0.067107 1.497776 1.402146
v -0.001540 1.219407 -0.035030
v -0.067107 1.497776 0.014148
v 8.699633 1.219407 1.451325
v 8.765200 1.497776 1.402146
v 8.699633 1.219407 -0.035030
v 8.765200 1.497776 0.014148
v -0.137206 1.159204 -0.055950
v -0.137206 1.159204 1.472245
v 8.835299 1.159204 -0.055950
v 8.835299 1.159204 1.472245
v 0.134022 0.000000 1.389369
v 0.134022 1.358675 1.389369
v 0.134022 0.000000 1.469065
v 0.134022 1.358675 1.469065
v -0.124389 0.000000 1.389369
v -0.124389 1.358675 1.389369
v -0.124389 0.000000 1.469065
v -0.124389 1.358675 1.469065
v 0.129206 0.000000 -0.039848
v 0.129206 1.358675 -0.039848
v 0.129206 0.000000 0.039848
v 0.129206 1.358675 0.039848
v -0.129205 0.000000 -0.039848
v -0.129205 1.358675 -0.039848
v -0.129205 0.000000 0.039848
v -0.129205 1.358675 0.039848
v 8.822769 0.000000 1.389369
v 8.822769 1.358675 1.389369
v 8.822769 0.000000 1.469064
v 8.822769 1.358675 1.469064
v 8.564360 0.000000 1.389369
v 8.564360 1.358675 1.389369
v 8.564360 0.000000 1.469064
v 8.564360 1.358675 1.469064
v 8.817953 0.000000 -0.039849
v 8.817953 1.358675 -0.039849
v 8.817953 0.000000 0.039847
v 8.817953 1.358675 0.039847
v 8.559544 0.000000 -0.039849
v 8.559544 1.358675 -0.039849
v 8.559544 0.000000 0.039847
v 8.559544 1.358675 0.039847
v -0.137206 1.471263 1.472245
v -0.137206 1.471263 -0.055950
v 8.835299 1.471263 -0.055950
v 8.835299 1.471263 1.472245
v -0.003065 0.353132 0.039118
v -0.003065 0.353132 1.393844
v 8.701159 0.353132 0.039118
v 8.701159 0.353132 1.393844
v -0.003065 0.437129 1.393844
v -0.003065 0.437129 0.039118
v 8.701159 0.437129 0.039118
v 8.701159 0.437129 1.393844
v 2.167686 1.663542 0.320196
v 2.167686 1.677231 0.320196
v 4.326460 1.501939 0.030897
v 4.326460 1.721463 0.030897
v 4.326460 1.501939 1.318908
v 4.326460 1.721463 1.318908
v 2.166891 1.501939 0.030897
v 2.166891 1.721463 1.318908
v 2.166891 1.721463 0.030897
v 2.166891 1.501939 1.318908
v 6.486030 1.721463 0.030897
v 6.486030 1.501939 1.318908
v 6.486029 1.501939 0.030897
v 6.486029 1.721463 1.318908
v 0.007322 1.721463 0.674902
v 0.007322 1.501939 0.674902
v 8.645597 1.501939 0.674902
v 8.645597 1.721463 0.674902
v 4.326460 1.721463 0.674902
v 4.326460 1.501939 0.674902
v 2.166891 1.501939 0.674902
v 2.166891 1.721463 0.674902
v 6.486030 1.721463 0.674902
v 6.486030 1.501939 0.674902
v 0.007322 1.721463 0.352900
v 8.645597 1.501939 0.352900
v 0.007322 1.501939 0.352900
v 8.645597 1.721463 0.352900
v 4.326460 1.661448 0.352900
v 4.326460 1.501939 0.352900
v 2.166891 1.501939 0.352900
v 2.166891 1.661448 0.352900
v 6.486030 1.661448 0.352900
v 6.486030 1.501939 0.352900
v 0.007322 1.501939 0.996905
v 8.645597 1.721463 0.996905
v 4.326460 1.661448 0.996905
v 4.326460 1.501939 0.996905
v 2.166891 1.501939 0.996905
v 2.166891 1.661448 0.996905
v 6.486030 1.661448 0.996905
v 6.486030 1.501939 0.996905
v 0.007322 1.721463 0.996905
v 8.645597 1.501939 0.996905
v 7.565814 1.721463 0.030897
v 7.565814 1.501939 1.318908
v 7.565814 1.501939 0.030897
v 7.565814 1.721463 1.318908
v 7.565814 1.721463 0.674902
v 7.565814 1.501939 0.674902
v 7.565814 1.501939 0.352900
v 7.565814 1.661448 0.352900
v 7.565814 1.661448 0.996905
v 7.565814 1.501939 0.996905
v 1.087106 1.501939 0.030897
v 1.087106 1.721463 1.318908
v 1.087106 1.721463 0.030897
v 1.087106 1.501939 1.318908
v 1.087106 1.501939 0.674902
v 1.087106 1.721463 0.674902
v 1.087106 1.662989 0.352900
v 1.087106 1.501939 0.352900
v 1.087106 1.501939 0.996905
v 1.087106 1.680790 0.996905
v 3.246676 1.721463 0.030897
v 3.246676 1.501939 1.318908
v 3.246675 1.501939 0.030897
v 3.246675 1.721463 1.318908
v 3.246675 1.721463 0.674902
v 3.246675 1.501939 0.674902
v 3.246675 1.501939 0.352900
v 3.246675 1.661448 0.352900
v 3.246675 1.661448 0.996905
v 3.246675 1.501939 0.996905
v 5.406244 1.501939 0.030897
v 5.406244 1.721463 1.318908
v 5.406245 1.721463 0.030897
v 5.406245 1.501939 1.318908
v 5.406245 1.501939 0.674902
v 5.406245 1.721463 0.674902
v 5.406245 1.661448 0.352900
v 5.406245 1.501939 0.352900
v 5.406245 1.501939 0.996905
v 5.406245 1.661448 0.996905
v 0.853851 1.501939 0.030897
v 0.853851 1.721463 1.318908
v 0.853851 1.501939 0.674902
v 0.853851 1.501939 0.352900
v 0.853851 1.501939 0.996905
v 0.853851 1.721463 0.030897
v 0.853851 1.501939 1.318908
v 0.853851 1.721463 0.674902
v 0.853851 1.721463 0.352900
v 0.853851 1.721463 0.996905
v 1.336830 1.721463 0.030897
v 1.336830 1.501939 1.318908
v 1.336830 1.721463 0.674902
v 1.336830 1.721463 0.352900
v 1.336830 1.721463 0.996905
v 1.336830 1.501939 0.030897
v 1.336830 1.721463 1.318908
v 1.336830 1.501939 0.674902
v 1.336830 1.501939 0.352900
v 1.336830 1.501939 0.996905
v 1.907002 1.721463 0.030897
v 1.907002 1.501939 1.318908
v 1.907002 1.721463 0.674902
v 1.907002 1.721463 0.352900
v 1.907002 1.721463 0.996905
v 1.907001 1.501939 0.030897
v 1.907001 1.721463 1.318908
v 1.907002 1.501939 0.674902
v 1.907002 1.501939 0.352900
v 1.907002 1.501939 0.996905
v 2.490947 1.501939 0.030897
v 2.490947 1.721463 1.318908
v 2.490947 1.501939 0.674902
v 2.490947 1.501939 0.352900
v 2.490947 1.501939 0.996905
v 2.490947 1.721463 0.030897
v 2.490947 1.501939 1.318908
v 2.490947 1.721463 0.674902
v 2.490947 1.721463 0.352900
v 2.490947 1.721463 0.996905
v 3.034741 1.721463 0.030897
v 3.034741 1.501939 1.318908
v 3.034741 1.721463 0.674902
v 3.034741 1.721463 0.352900
v 3.034741 1.721463 0.996905
v 3.034741 1.501939 0.030897
v 3.034741 1.721463 1.318908
v 3.034741 1.501939 0.674902
v 3.034741 1.501939 0.352900
v 3.034741 1.501939 0.996905
v 3.479240 1.721463 0.030897
v 3.479240 1.501939 1.318908
v 3.479240 1.721463 0.674902
v 3.479240 1.721463 0.352900
v 3.479240 1.721463 0.996905
v 3.479240 1.501939 0.030897
v 3.479240 1.721463 1.318908
v 3.479240 1.501939 0.674902
v 3.479240 1.501939 0.352900
v 3.479240 1.501939 0.996905
v 4.095901 1.721463 0.030897
v 4.095901 1.501939 1.318908
v 4.095900 1.721463 0.674902
v 4.095900 1.721463 0.352900
v 4.095900 1.721463 0.996905
v 4.095900 1.501939 0.030897
v 4.095900 1.721463 1.318908
v 4.095900 1.501939 0.674902
v 4.095900 1.501939 0.352900
v 4.095900 1.501939 0.996905
v 4.566600 1.501939 0.030897
v 4.566600 1.721463 1.318908
v 4.566600 1.501939 0.674902
v 4.566600 1.501939 0.352900
v 4.566600 1.501939 0.996905
v 4.566601 1.721463 0.030897
v 4.566601 1.501939 1.318908
v 4.566600 1.721463 0.674902
v 4.566600 1.721463 0.352900
v 4.566600 1.721463 0.996905
v 5.183142 1.721463 0.030897
v 5.183142 1.501939 1.318908
v 5.183141 1.721463 0.674902
v 5.183141 1.721463 0.352900
v 5.183141 1.721463 0.996905
v 5.183141 1.501939 0.030897
v 5.183141 1.721463 1.318908
v 5.183141 1.501939 0.674902
v 5.183141 1.501939 0.352900
v 5.183141 1.501939 0.996905
v 5.714708 1.721463 0.030897
v 5.714708 1.501939 1.318908
v 5.714708 1.721463 0.674902
v 5.714708 1.721463 0.352900
v 5.714708 1.721463 0.996905
v 5.714707 1.501939 0.030897
v 5.714707 1.721463 1.318908
v 5.714708 1.501939 0.674902
v 5.714708 1.501939 0.352900
v 5.714708 1.501939 0.996905
v 6.307886 1.721463 0.030897
v 6.307886 1.501939 1.318908
v 6.307886 1.721463 0.674902
v 6.307886 1.721463 0.352900
v 6.307886 1.721463 0.996905
v 6.307885 1.501939 0.030897
v 6.307885 1.721463 1.318908
v 6.307886 1.501939 0.674902
v 6.307886 1.501939 0.352900
v 6.307886 1.501939 0.996905
v 6.741545 1.501939 0.030897
v 6.741545 1.721463 1.318908
v 6.741545 1.501939 0.674902
v 6.741545 1.501939 0.352900
v 6.741545 1.501939 0.996905
v 6.741545 1.721463 0.030897
v 6.741545 1.501939 1.318908
v 6.741545 1.721463 0.674902
v 6.741545 1.721463 0.352900
v 6.741545 1.721463 0.996905
v 7.246631 1.721463 0.030897
v 7.246631 1.501939 1.318908
v 7.246631 1.721463 0.674902
v 7.246631 1.721463 0.352900
v 7.246631 1.721463 0.996905
v 7.246631 1.501939 0.030897
v 7.246631 1.721463 1.318908
v 7.246631 1.501939 0.674902
v 7.246631 1.501939 0.352900
v 7.246631 1.501939 0.996905
v 7.855446 1.721463 0.030897
v 7.855446 1.501939 1.318908
v 7.855446 1.721463 0.674902
v 7.855446 1.721463 0.352900
v 7.855446 1.721463 0.996905
v 7.855446 1.501939 0.030897
v 7.855446 1.721463 1.318908
v 7.855446 1.501939 0.674902
v 7.855446 1.501939 0.352900
v 7.855446 1.501939 0.996905
v 0.007322 1.721463 1.083988
v 0.242242 1.721463 1.318908
v 0.038795 1.721463 1.201448
v 0.124782 1.721463 1.287434
v 0.242242 1.501939 1.318908
v 0.007322 1.501939 1.083988
v 0.124782 1.501939 1.287434
v 0.038795 1.501939 1.201448
v 0.256629 1.721463 0.030897
v 0.007322 1.721463 0.280205
v 0.131976 1.721463 0.064298
v 0.040723 1.721463 0.155551
v 0.007322 1.501939 0.280205
v 0.256629 1.501939 0.030897
v 0.040723 1.501939 0.155551
v 0.131976 1.501939 0.064298
v 8.645597 1.501939 1.041354
v 8.368044 1.501939 1.318908
v 8.608414 1.501939 1.180131
v 8.506821 1.501939 1.281723
v 8.368044 1.721463 1.318908
v 8.645597 1.721463 1.041354
v 8.506821 1.721463 1.281723
v 8.608414 1.721463 1.180131
v 8.412659 1.501939 0.030897
v 8.645597 1.501939 0.263836
v 8.529129 1.501939 0.062105
v 8.614389 1.501939 0.147366
v 8.645597 1.721463 0.263836
v 8.412659 1.721463 0.030897
v 8.614389 1.721463 0.147366
v 8.529129 1.721463 0.062105
v 1.087665 1.666989 0.320196
v 1.087665 1.680678 0.320196
v 1.074678 1.693141 0.965678
v 1.074678 1.679453 0.965678
v 1.100652 1.666989 0.322779
v 1.100652 1.680678 0.322779
v 1.063668 1.693141 0.973035
v 1.063668 1.679453 0.973035
v 1.111661 1.666989 0.330136
v 1.111661 1.680678 0.330136
v 1.056311 1.693141 0.984045
v 1.056311 1.679453 0.984045
v 1.119018 1.666989 0.341146
v 1.119018 1.680678 0.341146
v 1.053728 1.693141 0.997032
v 1.053728 1.679453 0.997032
v 1.121601 1.666989 0.354133
v 1.121601 1.680678 0.354133
v 1.056311 1.693141 1.010019
v 1.056311 1.679453 1.010019
v 1.119018 1.666989 0.367120
v 1.119018 1.680678 0.367120
v 1.063668 1.693141 1.021029
v 1.063668 1.679453 1.021029
v 1.111661 1.666989 0.378129
v 1.111661 1.680678 0.378129
v 1.074678 1.693141 1.028385
v 1.074678 1.679453 1.028385
v 1.100652 1.666989 0.385486
v 1.100652 1.680678 0.385486
v 1.087665 1.693141 1.030968
v 1.087665 1.679453 1.030968
v 1.087665 1.666989 0.388069
v 1.087665 1.680678 0.388069
v 1.100652 1.693141 1.028385
v 1.100652 1.679453 1.028385
v 1.074678 1.666989 0.385486
v 1.074678 1.680678 0.385486
v 1.111661 1.693141 1.021029
v 1.111661 1.679453 1.021029
v 1.063668 1.666989 0.378129
v 1.063668 1.680678 0.378129
v 1.119018 1.693141 1.010019
v 1.119018 1.679453 1.010019
v 1.056311 1.666989 0.367120
v 1.056311 1.680678 0.367120
v 1.121601 1.693141 0.997032
v 1.121601 1.679453 0.997032
v 1.053728 1.666989 0.354133
v 1.053728 1.680678 0.354133
v 1.119018 1.693141 0.984045
v 1.119018 1.679453 0.984045
v 1.056311 1.666989 0.341146
v 1.056311 1.680678 0.341146
v 1.111661 1.693141 0.973035
v 1.111661 1.679453 0.973035
v 1.063668 1.666989 0.330136
v 1.063668 1.680678 0.330136
v 1.100652 1.693141 0.965678
v 1.100652 1.679453 0.965678
v 1.074678 1.666989 0.322779
v 1.074678 1.680678 0.322779
v 1.087665 1.693141 0.963095
v 1.087665 1.679453 0.963095
v 2.154700 1.679587 0.965678
v 2.154700 1.665898 0.965678
v 2.180674 1.663542 0.322779
v 2.180674 1.677231 0.322779
v 2.143690 1.679587 0.973035
v 2.143690 1.665898 0.973035
v 2.191683 1.663542 0.330136
v 2.191683 1.677231 0.330136
v 2.136333 1.679587 0.984045
v 2.136333 1.665898 0.984045
v 2.199040 1.663542 0.341146
v 2.199040 1.677231 0.341146
v 2.133750 1.679587 0.997032
v 2.133750 1.665898 0.997032
v 2.201623 1.663542 0.354133
v 2.201623 1.677231 0.354133
v 2.136333 1.679587 1.010019
v 2.136333 1.665898 1.010019
v 2.199040 1.663542 0.367120
v 2.199040 1.677231 0.367120
v 2.143690 1.679587 1.021029
v 2.143690 1.665898 1.021029
v 2.191683 1.663542 0.378129
v 2.191683 1.677231 0.378129
v 2.154700 1.679587 1.028385
v 2.154700 1.665898 1.028385
v 2.180674 1.663542 0.385486
v 2.180674 1.677231 0.385486
v 2.167686 1.679587 1.030968
v 2.167686 1.665898 1.030968
v 2.167686 1.663542 0.388069
v 2.167686 1.677231 0.388069
v 2.180674 1.679587 1.028385
v 2.180674 1.665898 1.028385
v 2.154700 1.663542 0.385486
v 2.154700 1.677231 0.385486
v 2.191683 1.679587 1.021029
v 2.191683 1.665898 1.021029
v 2.143690 1.663542 0.378129
v 2.143690 1.677231 0.378129
v 2.199040 1.679587 1.010019
v 2.199040 1.665898 1.010019
v 2.136333 1.663542 0.367120
v 2.136333 1.677231 0.367120
v 2.201623 1.679587 0.997032
v 2.201623 1.665898 0.997032
v 2.133750 1.663542 0.354133
v 2.133750 1.677231 0.354133
v 2.199040 1.679587 0.984045
v 2.199040 1.665898 0.984045
v 2.136333 1.663542 0.341146
v 2.136333 1.677231 0.341146
v 2.191683 1.679587 0.973035
v 2.191683 1.665898 0.973035
v 2.143690 1.663542 0.330136
v 2.143690 1.677231 0.330136
v 2.180674 1.679587 0.965678
v 2.180674 1.665898 0.965678
v 2.154700 1.663542 0.322779
v 2.154700 1.677231 0.322779
v 2.167686 1.679587 0.963095
v 2.167686 1.665898 0.963095
v 3.236200 1.663542 0.320196
v 3.236200 1.677231 0.320196
v 3.223213 1.679587 0.965678
v 3.223213 1.665898 0.965678
v 3.249187 1.663542 0.322779
v 3.249187 1.677231 0.322779
v 3.212203 1.679587 0.973035
v 3.212203 1.665898 0.973035
v 3.260196 1.663542 0.330136
v 3.260196 1.677231 0.330136
v 3.204847 1.679587 0.984045
v 3.204847 1.665898 0.984045
v 3.267553 1.663542 0.341146
v 3.267553 1.677231 0.341146
v 3.202263 1.679587 0.997032
v 3.202263 1.665898 0.997032
v 3.270136 1.663542 0.354133
v 3.270136 1.677231 0.354133
v 3.204847 1.679587 1.010019
v 3.204847 1.665898 1.010019
v 3.267553 1.663542 0.367120
v 3.267553 1.677231 0.367120
v 3.212203 1.679587 1.021029
v 3.212203 1.665898 1.021029
v 3.260196 1.663542 0.378129
v 3.260196 1.677231 0.378129
v 3.223213 1.679587 1.028385
v 3.223213 1.665898 1.028385
v 3.249187 1.663542 0.385486
v 3.249187 1.677231 0.385486
v 3.236200 1.679587 1.030968
v 3.236200 1.665898 1.030968
v 3.236200 1.663542 0.388069
v 3.236200 1.677231 0.388069
v 3.249187 1.679587 1.028385
v 3.249187 1.665898 1.028385
v 3.223213 1.663542 0.385486
v 3.223213 1.677231 0.385486
v 3.260196 1.679587 1.021029
v 3.260196 1.665898 1.021029
v 3.212203 1.663542 0.378129
v 3.212203 1.677231 0.378129
v 3.267553 1.679587 1.010019
v 3.267553 1.665898 1.010019
v 3.204847 1.663542 0.367120
v 3.204847 1.677231 0.367120
v 3.270136 1.679587 0.997032
v 3.270136 1.665898 0.997032
v 3.202263 1.663542 0.354133
v 3.202263 1.677231 0.354133
v 3.267553 1.679587 0.984045
v 3.267553 1.665898 0.984045
v 3.204847 1.663542 0.341146
v 3.204847 1.677231 0.341146
v 3.260196 1.679587 0.973035
v 3.260196 1.665898 0.973035
v 3.212203 1.663542 0.330136
v 3.212203 1.677231 0.330136
v 3.249187 1.679587 0.965678
v 3.249187 1.665898 0.965678
v 3.223213 1.663542 0.322779
v 3.223213 1.677231 0.322779
v 3.236200 1.679587 0.963095
v 3.236200 1.665898 0.963095
v 4.331276 1.663542 0.320196
v 4.331276 1.677231 0.320196
v 4.318289 1.679587 0.965678
v 4.318289 1.665898 0.965678
v 4.344263 1.663542 0.322779
v 4.344263 1.677231 0.322779
v 4.307280 1.679587 0.973035
v 4.307280 1.665898 0.973035
v 4.355273 1.663542 0.330136
v 4.355273 1.677231 0.330136
v 4.299923 1.679587 0.984045
v 4.299923 1.665898 0.984045
v 4.362629 1.663542 0.341146
v 4.362629 1.677231 0.341146
v 4.297339 1.679587 0.997032
v 4.297339 1.665898 0.997032
v 4.365212 1.663542 0.354133
v 4.365212 1.677231 0.354133
v 4.299923 1.679587 1.010019
v 4.299923 1.665898 1.010019
v 4.362629 1.663542 0.367120
v 4.362629 1.677231 0.367120
v 4.307280 1.679587 1.021029
v 4.307280 1.665898 1.021029
v 4.355273 1.663542 0.378129
v 4.355273 1.677231 0.378129
v 4.318289 1.679587 1.028385
v 4.318289 1.665898 1.028385
v 4.344263 1.663542 0.385486
v 4.344263 1.677231 0.385486
v 4.331276 1.679587 1.030968
v 4.331276 1.665898 1.030968
v 4.331276 1.663542 0.388069
v 4.331276 1.677231 0.388069
v 4.344263 1.679587 1.028385
v 4.344263 1.665898 1.028385
v 4.318289 1.663542 0.385486
v 4.318289 1.677231 0.385486
v 4.355273 1.679587 1.021029
v 4.355273 1.665898 1.021029
v 4.307280 1.663542 0.378129
v 4.307280 1.677231 0.378129
v 4.362629 1.679587 1.010019
v 4.362629 1.665898 1.010019
v 4.299923 1.663542 0.367120
v 4.299923 1.677231 0.367120
v 4.365212 1.679587 0.997032
v 4.365212 1.665898 0.997032
v 4.297339 1.663542 0.354133
v 4.297339 1.677231 0.354133
v 4.362629 1.679587 0.984045
v 4.362629 1.665898 0.984045
v 4.299923 1.663542 0.341146
v 4.299923 1.677231 0.341146
v 4.355273 1.679587 0.973035
v 4.355273 1.665898 0.973035
v 4.307280 1.663542 0.330136
v 4.307280 1.677231 0.330136
v 4.344263 1.679587 0.965678
v 4.344263 1.665898 0.965678
v 4.318289 1.663542 0.322779
v 4.318289 1.677231 0.322779
v 4.331276 1.679587 0.963095
v 4.331276 1.665898 0.963095
v 5.406740 1.663542 0.320196
v 5.406740 1.677231 0.320196
v 5.393753 1.679587 0.965678
v 5.393753 1.665898 0.965678
v 5.419727 1.663542 0.322779
v 5.419727 1.677231 0.322779
v 5.382743 1.679587 0.973035
v 5.382743 1.665898 0.973035
v 5.430737 1.663542 0.330136
v 5.430737 1.677231 0.330136
v 5.375387 1.679587 0.984045
v 5.375387 1.665898 0.984045
v 5.438093 1.663542 0.341146
v 5.438093 1.677231 0.341146
v 5.372803 1.679587 0.997032
v 5.372803 1.665898 0.997032
v 5.440676 1.663542 0.354133
v 5.440676 1.677231 0.354133
v 5.375387 1.679587 1.010019
v 5.375387 1.665898 1.010019
v 5.438093 1.663542 0.367120
v 5.438093 1.677231 0.367120
v 5.382743 1.679587 1.021029
v 5.382743 1.665898 1.021029
v 5.430737 1.663542 0.378129
v 5.430737 1.677231 0.378129
v 5.393753 1.679587 1.028385
v 5.393753 1.665898 1.028385
v 5.419727 1.663542 0.385486
v 5.419727 1.677231 0.385486
v 5.406740 1.679587 1.030968
v 5.406740 1.665898 1.030968
v 5.406740 1.663542 0.388069
v 5.406740 1.677231 0.388069
v 5.419727 1.679587 1.028385
v 5.419727 1.665898 1.028385
v 5.393753 1.663542 0.385486
v 5.393753 1.677231 0.385486
v 5.430737 1.679587 1.021029
v 5.430737 1.665898 1.021029
v 5.382743 1.663542 0.378129
v 5.382743 1.677231 0.378129
v 5.438093 1.679587 1.010019
v 5.438093 1.665898 1.010019
v 5.375387 1.663542 0.367120
v 5.375387 1.677231 0.367120
v 5.440676 1.679587 0.997032
v 5.440676 1.665898 0.997032
v 5.372803 1.663542 0.354133
v 5.372803 1.677231 0.354133
v 5.438093 1.679587 0.984045
v 5.438093 1.665898 0.984045
v 5.375387 1.663542 0.341146
v 5.375387 1.677231 0.341146
v 5.430737 1.679587 0.973035
v 5.430737 1.665898 0.973035
v 5.382743 1.663542 0.330136
v 5.382743 1.677231 0.330136
v 5.419727 1.679587 0.965678
v 5.419727 1.665898 0.965678
v 5.393753 1.663542 0.322779
v 5.393753 1.677231 0.322779
v 5.406740 1.679587 0.963095
v 5.406740 1.665898 0.963095
v 6.488580 1.663542 0.320196
v 6.488580 1.677231 0.320196
v 6.475593 1.679587 0.965678
v 6.475593 1.665898 0.965678
v 6.501567 1.663542 0.322779
v 6.501567 1.677231 0.322779
v 6.464583 1.679587 0.973035
v 6.464583 1.665898 0.973035
v 6.512577 1.663542 0.330136
v 6.512577 1.677231 0.330136
v 6.457227 1.679587 0.984045
v 6.457227 1.665898 0.984045
v 6.519933 1.663542 0.341146
v 6.519933 1.677231 0.341146
v 6.454643 1.679587 0.997032
v 6.454643 1.665898 0.997032
v 6.522516 1.663542 0.354133
v 6.522516 1.677231 0.354133
v 6.457227 1.679587 1.010019
v 6.457227 1.665898 1.010019
v 6.519933 1.663542 0.367120
v 6.519933 1.677231 0.367120
v 6.464583 1.679587 1.021029
v 6.464583 1.665898 1.021029
v 6.512577 1.663542 0.378129
v 6.512577 1.677231 0.378129
v 6.475593 1.679587 1.028385
v 6.475593 1.665898 1.028385
v 6.501567 1.663542 0.385486
v 6.501567 1.677231 0.385486
v 6.488580 1.679587 1.030968
v 6.488580 1.665898 1.030968
v 6.488580 1.663542 0.388069
v 6.488580 1.677231 0.388069
v 6.501567 1.679587 1.028385
v 6.501567 1.665898 1.028385
v 6.475593 1.663542 0.385486
v 6.475593 1.677231 0.385486
v 6.512577 1.679587 1.021029
v 6.512577 1.665898 1.021029
v 6.464583 1.663542 0.378129
v 6.464583 1.677231 0.378129
v 6.519933 1.679587 1.010019
v 6.519933 1.665898 1.010019
v 6.457227 1.663542 0.367120
v 6.457227 1.677231 0.367120
v 6.522516 1.679587 0.997032
v 6.522516 1.665898 0.997032
v 6.454643 1.663542 0.354133
v 6.454643 1.677231 0.354133
v 6.519933 1.679587 0.984045
v 6.519933 1.665898 0.984045
v 6.457227 1.663542 0.341146
v 6.457227 1.677231 0.341146
v 6.512577 1.679587 0.973035
v 6.512577 1.665898 0.973035
v 6.464583 1.663542 0.330136
v 6.464583 1.677231 0.330136
v 6.501567 1.679587 0.965678
v 6.501567 1.665898 0.965678
v 6.475593 1.663542 0.322779
v 6.475593 1.677231 0.322779
v 6.488580 1.679587 0.963095
v 6.488580 1.665898 0.963095
v 7.561968 1.663542 0.320196
v 7.561968 1.677231 0.320196
v 7.548982 1.679587 0.965678
v 7.548982 1.665898 0.965678
v 7.574955 1.663542 0.322779
v 7.574955 1.677231 0.322779
v 7.537972 1.679587 0.973035
v 7.537972 1.665898 0.973035
v 7.585965 1.663542 0.330136
v 7.585965 1.677231 0.330136
v 7.530615 1.679587 0.984045
v 7.530615 1.665898 0.984045
v 7.593322 1.663542 0.341146
v 7.593322 1.677231 0.341146
v 7.528032 1.679587 0.997032
v 7.528032 1.665898 0.997032
v 7.595905 1.663542 0.354133
v 7.595905 1.677231 0.354133
v 7.530615 1.679587 1.010019
v 7.530615 1.665898 1.010019
v 7.593322 1.663542 0.367120
v 7.593322 1.677231 0.367120
v 7.537972 1.679587 1.021029
v 7.537972 1.665898 1.021029
v 7.585965 1.663542 0.378129
v 7.585965 1.677231 0.378129
v 7.548982 1.679587 1.028385
v 7.548982 1.665898 1.028385
v 7.574955 1.663542 0.385486
v 7.574955 1.677231 0.385486
v 7.561968 1.679587 1.030968
v 7.561968 1.665898 1.030968
v 7.561968 1.663542 0.388069
v 7.561968 1.677231 0.388069
v 7.574955 1.679587 1.028385
v 7.574955 1.665898 1.028385
v 7.548982 1.663542 0.385486
v 7.548982 1.677231 0.385486
v 7.585965 1.679587 1.021029
v 7.585965 1.665898 1.021029
v 7.537972 1.663542 0.378129
v 7.537972 1.677231 0.378129
v 7.593322 1.679587 1.010019
v 7.593322 1.665898 1.010019
v 7.530615 1.663542 0.367120
v 7.530615 1.677231 0.367120
v 7.595905 1.679587 0.997032
v 7.595905 1.665898 0.997032
v 7.528032 1.663542 0.354133
v 7.528032 1.677231 0.354133
v 7.593322 1.679587 0.984045
v 7.593322 1.665898 0.984045
v 7.530615 1.663542 0.341146
v 7.530615 1.677231 0.341146
v 7.585965 1.679587 0.973035
v 7.585965 1.665898 0.973035
v 7.537972 1.663542 0.330136
v 7.537972 1.677231 0.330136
v 7.574955 1.679587 0.965678
v 7.574955 1.665898 0.965678
v 7.548982 1.663542 0.322779
v 7.548982 1.677231 0.322779
v 7.561968 1.679587 0.963095
v 7.561968 1.665898 0.963095
vn -1.0000 -0.0000 -0.0000
vn -0.0000 -0.0000 -1.0000
vn 1.0000 -0.0000 -0.0000
vn -0.0000 -0.0000 1.0000
vn -0.0000 -1.0000 -0.0000
vn -0.0000 1.0000 -0.0000
vn 0.4056 -0.9140 -0.0000
vn -0.0000 -0.3282 0.9446
vn -0.4056 -0.9140 -0.0000
vn -0.0000 -0.3282 -0.9446
vn -0.3538 0.9353 -0.0000
vn -0.0000 0.9353 -0.3538
vn 0.3538 0.9353 -0.0000
vn -0.0000 0.9353 0.3538
vn 0.5556 -0.0000 -0.8315
vn -0.0620 0.9981 -0.0000
vn 0.0025 1.0000 -0.0000
vn 0.0019 0.7362 0.6767
vn -0.0448 0.7208 0.6917
vn -0.0000 -0.7071 0.7071
vn -0.0000 -0.7071 -0.7071
vn 0.0466 0.7206 -0.6918
vn 0.0019 0.7362 -0.6767
vn 0.0414 0.7211 -0.6916
vn 0.0083 0.7372 -0.6757
vn -0.0461 0.9989 -0.0000
vn 0.0110 0.9999 -0.0000
vn 0.0083 0.7372 0.6757
vn -0.0333 0.7218 0.6914
vn -0.0421 0.7210 0.6916
vn 0.0184 0.7352 0.6776
vn -0.0583 0.9983 -0.0000
vn 0.0242 0.9997 -0.0000
vn 0.0600 0.7190 -0.6924
vn 0.0184 0.7352 -0.6776
vn 0.0250 0.9997 -0.0000
vn 0.0113 0.9999 -0.0000
vn 0.0026 1.0000 -0.0000
vn 0.0622 0.9981 -0.0000
vn -0.7071 0.7071 -0.0000
vn 0.0528 0.9986 -0.0068
vn 0.7071 -0.7071 -0.0000
vn 0.7071 0.7071 -0.0000
vn -0.7071 -0.7071 -0.0000
vn -0.1951 -0.0000 -0.9808
vn -0.0448 0.7208 -0.6917
vn -0.0333 0.7218 -0.6914
vn -0.0421 0.7210 -0.6916
vn 0.0434 0.9991 -0.0000
vn -0.0515 0.9987 -0.0000
vn -0.0048 1.0000 -0.0000
vn -0.0046 1.0000 -0.0000
vn -0.0372 0.7215 -0.6915
vn -0.0035 0.7374 -0.6755
vn -0.0035 0.7374 0.6755
vn -0.0372 0.7215 0.6915
vn 0.0338 0.7217 -0.6914
vn -0.0493 0.9988 -0.0068
vn 0.0035 0.9999 -0.0136
vn 0.0028 1.0000 -0.0000
vn -0.0406 0.9992 -0.0000
vn -0.0420 0.7207 -0.6920
vn 0.0030 0.7357 -0.6773
vn 0.0040 1.0000 -0.0000
vn -0.0581 0.9983 -0.0000
vn 0.0449 0.7204 -0.6921
vn 0.0021 0.7278 0.6858
vn -0.0291 0.7171 0.6964
vn -0.0640 0.9980 -0.0000
vn 0.0062 1.0000 -0.0000
vn 0.0060 1.0000 -0.0000
vn -0.0462 0.7206 -0.6918
vn 0.0045 0.7358 -0.6771
vn -0.0462 0.7206 0.6918
vn 0.0045 0.7358 0.6771
vn 0.0506 0.7202 -0.6919
vn -0.0484 0.9988 -0.0000
vn 0.0184 0.9998 -0.0000
vn 0.0179 0.9998 -0.0000
vn -0.0349 0.7216 -0.6914
vn 0.0135 0.7366 -0.6762
vn 0.0481 0.7204 -0.6918
vn -0.0349 0.7216 0.6914
vn 0.0135 0.7366 0.6762
vn 0.0312 0.7169 0.6964
vn 0.0414 0.7211 0.6916
vn 0.0573 0.9984 -0.0000
vn 0.0701 0.9975 -0.0000
vn 0.0506 0.7202 0.6919
vn 0.0645 0.9979 -0.0000
vn 0.0466 0.7206 0.6918
vn 0.0667 0.9978 -0.0000
vn 0.0481 0.7204 0.6918
vn 0.0832 0.9965 -0.0000
vn 0.0600 0.7190 0.6924
vn 0.0468 0.9989 -0.0000
vn 0.0338 0.7217 0.6914
vn -0.0958 -0.6789 0.7280
vn -0.0958 0.6789 0.7280
vn -0.3786 0.6532 0.6557
vn -0.3786 -0.6532 0.6557
vn -0.6557 0.6532 0.3786
vn -0.6557 -0.6532 0.3786
vn -0.7280 0.6789 0.0958
vn -0.7280 -0.6789 0.0958
vn -0.0958 0.6789 -0.7280
vn -0.0958 -0.6789 -0.7280
vn -0.3786 -0.6532 -0.6557
vn -0.3786 0.6532 -0.6557
vn -0.6557 -0.6532 -0.3786
vn -0.6557 0.6532 -0.3786
vn -0.7280 -0.6789 -0.0958
vn -0.7280 0.6789 -0.0958
vn 0.0958 0.6789 0.7280
vn 0.0958 -0.6789 0.7280
vn 0.3786 -0.6532 0.6557
vn 0.3786 0.6532 0.6557
vn 0.6557 -0.6532 0.3786
vn 0.6557 0.6532 0.3786
vn 0.7280 -0.6789 0.0958
vn 0.7280 0.6789 0.0958
vn 0.7280 0.6789 -0.0958
vn 0.7280 -0.6789 -0.0958
vn 0.6557 -0.6532 -0.3786
vn 0.6557 0.6532 -0.3786
vn 0.3786 -0.6532 -0.6557
vn 0.3786 0.6532 -0.6557
vn 0.0958 -0.6789 -0.7280
vn 0.0958 0.6789 -0.7280
vn 0.9808 -0.0000 0.1951
vn 0.1951 -0.0000 -0.9808
vn -0.5556 -0.0000 -0.8315
vn 0.8315 -0.0000 -0.5556
vn 0.8315 -0.0000 0.5556
vn -0.8315 -0.0000 -0.5556
vn 0.9808 -0.0000 -0.1951
vn 0.5556 -0.0000 0.8315
vn -0.9808 -0.0000 -0.1951
vn 0.1951 -0.0000 0.9808
vn -0.9808 -0.0000 0.1951
vn -0.1951 -0.0000 0.9808
vn -0.8315 -0.0000 0.5556
vn -0.5556 -0.0000 0.8315
vt 0.165807 0.335017
vt 0.287361 0.335017
vt 0.287361 0.456571
vt 0.165807 0.456571
vt 0.287361 0.578125
vt 0.165807 0.578125
vt 0.287361 0.699679
vt 0.165807 0.699679
vt 0.287361 0.821233
vt 0.165807 0.821233
vt 0.046091 0.579963
vt 0.163969 0.579963
vt 0.163969 0.697841
vt 0.046091 0.697841
vt 0.288311 0.584283
vt 0.407966 0.584283
vt 0.407966 0.693521
vt 0.288311 0.693521
vt 0.044253 0.699679
vt 0.044253 0.578125
vt 0.176674 0.425448
vt 0.288169 0.425448
vt 0.288169 0.536943
vt 0.176674 0.536943
vt 0.288169 0.648438
vt 0.176674 0.648438
vt 0.288169 0.759932
vt 0.176674 0.759932
vt 0.288169 0.871427
vt 0.176674 0.871427
vt 0.065179 0.648438
vt 0.065179 0.759932
vt 0.399664 0.648438
vt 0.399664 0.759932
vt 0.201055 0.349140
vt 0.283321 0.349140
vt 0.283321 0.431406
vt 0.201055 0.431406
vt 0.283321 0.513672
vt 0.201055 0.513672
vt 0.201055 0.595938
vt 0.283321 0.595938
vt 0.283321 0.678204
vt 0.201055 0.678204
vt 0.118789 0.513672
vt 0.118789 0.595938
vt 0.365586 0.513672
vt 0.365586 0.595938
vt 0.200814 0.355989
vt 0.283561 0.355989
vt 0.283561 0.438736
vt 0.200814 0.438736
vt 0.283561 0.521484
vt 0.200814 0.521484
vt 0.283561 0.604232
vt 0.200814 0.604232
vt 0.283561 0.686980
vt 0.200814 0.686980
vt 0.118066 0.521484
vt 0.118066 0.604232
vt 0.366309 0.521484
vt 0.366309 0.604232
vt 0.161258 0.387220
vt 0.229367 0.387220
vt 0.229367 0.455329
vt 0.161258 0.455329
vt 0.229367 0.523438
vt 0.161258 0.523438
vt 0.229367 0.591546
vt 0.161258 0.591546
vt 0.229367 0.659655
vt 0.161258 0.659655
vt 0.093149 0.523438
vt 0.093149 0.591546
vt 0.297476 0.523438
vt 0.297476 0.591546
vt 0.408915 0.578125
vt 0.408915 0.699679
vt 0.211462 0.345763
vt 0.296394 0.345763
vt 0.296394 0.430694
vt 0.211462 0.430694
vt 0.296394 0.515625
vt 0.211462 0.515625
vt 0.296394 0.600556
vt 0.211462 0.600556
vt 0.296394 0.685487
vt 0.211462 0.685487
vt 0.126531 0.600556
vt 0.126531 0.515625
vt 0.381325 0.600556
vt 0.381325 0.515625
vt 0.547605 0.043011
vt 0.547605 0.044721
vt 0.533924 0.044721
vt 0.533924 0.043011
vt 0.633909 0.906410
vt 0.635001 0.906410
vt 0.635001 0.916230
vt 0.633909 0.916230
vt 0.555400 0.906410
vt 0.556448 0.906410
vt 0.556448 0.916230
vt 0.555400 0.916230
vt 0.576087 0.934776
vt 0.615363 0.934776
vt 0.615363 0.935868
vt 0.576087 0.935868
vt 0.576087 0.856266
vt 0.615363 0.856266
vt 0.615363 0.857315
vt 0.576087 0.857315
vt 0.576087 0.846314
vt 0.615363 0.846314
vt 0.615363 0.847496
vt 0.576087 0.847496
vt 0.545447 0.906410
vt 0.546629 0.906410
vt 0.546629 0.916230
vt 0.545447 0.916230
vt 0.643347 0.906410
vt 0.644820 0.906411
vt 0.644820 0.916230
vt 0.643347 0.916230
vt 0.576087 0.944214
vt 0.615363 0.944214
vt 0.615363 0.945687
vt 0.576087 0.945687
vt 0.576087 0.924887
vt 0.615363 0.924887
vt 0.615363 0.926049
vt 0.576087 0.926049
vt 0.624020 0.906410
vt 0.625182 0.906410
vt 0.625182 0.916230
vt 0.624020 0.916230
vt 0.565457 0.906410
vt 0.566267 0.906410
vt 0.566267 0.916230
vt 0.565457 0.916230
vt 0.576087 0.866324
vt 0.615363 0.866324
vt 0.615363 0.867134
vt 0.576087 0.867134
vt 0.565457 0.886772
vt 0.566267 0.886772
vt 0.566267 0.896591
vt 0.565457 0.896591
vt 0.624020 0.886772
vt 0.625182 0.886772
vt 0.625182 0.896591
vt 0.624020 0.896591
vt 0.643347 0.886772
vt 0.644820 0.886772
vt 0.644820 0.896591
vt 0.643347 0.896591
vt 0.545447 0.886772
vt 0.546629 0.886772
vt 0.546629 0.896591
vt 0.545447 0.896591
vt 0.555400 0.886772
vt 0.556448 0.886772
vt 0.556448 0.896591
vt 0.555400 0.896591
vt 0.633909 0.886772
vt 0.635001 0.886772
vt 0.635001 0.896591
vt 0.633909 0.896591
vt 0.650791 0.886772
vt 0.654640 0.886772
vt 0.654640 0.896591
vt 0.650791 0.896591
vt 0.572494 0.886772
vt 0.576087 0.886772
vt 0.576087 0.896591
vt 0.572494 0.896591
vt 0.615363 0.886772
vt 0.615363 0.896591
vt 0.576087 0.808219
vt 0.615363 0.808219
vt 0.615363 0.818038
vt 0.576087 0.818038
vt 0.591946 0.108178
vt 0.594313 0.109158
vt 0.596875 0.109158
vt 0.599242 0.108178
vt 0.601054 0.106366
vt 0.602035 0.103999
vt 0.602035 0.101436
vt 0.601054 0.099069
vt 0.599242 0.097257
vt 0.596875 0.096277
vt 0.594313 0.096277
vt 0.591946 0.097257
vt 0.590134 0.099069
vt 0.589153 0.101436
vt 0.589153 0.103999
vt 0.590134 0.106366
vt 0.561412 0.066952
vt 0.561412 0.068662
vt 0.547731 0.068662
vt 0.547731 0.066952
vt 0.633909 0.876953
vt 0.635001 0.876953
vt 0.555400 0.876953
vt 0.556448 0.876953
vt 0.545447 0.876953
vt 0.546629 0.876953
vt 0.643347 0.876953
vt 0.644820 0.876953
vt 0.624020 0.876953
vt 0.625182 0.876953
vt 0.565457 0.876953
vt 0.566267 0.876953
vt 0.615363 0.827857
vt 0.576087 0.827857
vt 0.654640 0.906410
vt 0.650791 0.906410
vt 0.576087 0.906410
vt 0.572494 0.906410
vt 0.615363 0.906410
vt 0.569726 0.896591
vt 0.571177 0.896591
vt 0.571177 0.906410
vt 0.569726 0.906410
vt 0.618956 0.896591
vt 0.620273 0.896591
vt 0.620273 0.906410
vt 0.618956 0.906410
vt 0.618956 0.876953
vt 0.620273 0.876953
vt 0.620273 0.886772
vt 0.618956 0.886772
vt 0.569726 0.876953
vt 0.571177 0.876953
vt 0.571177 0.886772
vt 0.569726 0.886772
vt 0.620273 0.916230
vt 0.618956 0.916230
vt 0.576087 0.919822
vt 0.615363 0.919822
vt 0.615363 0.921139
vt 0.576087 0.921139
vt 0.571177 0.916230
vt 0.569726 0.916230
vt 0.576087 0.870592
vt 0.615363 0.870592
vt 0.615363 0.872043
vt 0.576087 0.872043
vt 0.648595 0.896591
vt 0.649730 0.896591
vt 0.649730 0.906411
vt 0.648595 0.906411
vt 0.540659 0.896591
vt 0.541719 0.896591
vt 0.541719 0.906410
vt 0.540659 0.906410
vt 0.540659 0.876953
vt 0.541719 0.876953
vt 0.541719 0.886772
vt 0.540659 0.886772
vt 0.648595 0.876953
vt 0.649730 0.876953
vt 0.649730 0.886772
vt 0.648595 0.886772
vt 0.541719 0.916230
vt 0.540659 0.916230
vt 0.576087 0.841526
vt 0.615363 0.841526
vt 0.615363 0.842586
vt 0.576087 0.842586
vt 0.649730 0.916230
vt 0.648595 0.916230
vt 0.576087 0.949461
vt 0.615363 0.949461
vt 0.615363 0.950597
vt 0.576087 0.950597
vt 0.550575 0.896591
vt 0.551539 0.896591
vt 0.551539 0.906411
vt 0.550575 0.906410
vt 0.638853 0.896591
vt 0.639911 0.896591
vt 0.639911 0.906410
vt 0.638853 0.906410
vt 0.638853 0.876953
vt 0.639911 0.876953
vt 0.639911 0.886772
vt 0.638853 0.886772
vt 0.550575 0.876953
vt 0.551539 0.876953
vt 0.551539 0.886772
vt 0.550575 0.886772
vt 0.576087 0.939720
vt 0.615363 0.939720
vt 0.615363 0.940778
vt 0.576087 0.940778
vt 0.639911 0.916230
vt 0.638853 0.916230
vt 0.576087 0.851442
vt 0.615363 0.851442
vt 0.615363 0.852405
vt 0.576087 0.852405
vt 0.551539 0.916230
vt 0.550575 0.916230
vt 0.628689 0.896591
vt 0.630092 0.896591
vt 0.630092 0.906410
vt 0.628689 0.906410
vt 0.560343 0.896591
vt 0.561358 0.896591
vt 0.561358 0.906410
vt 0.560343 0.906410
vt 0.560343 0.876953
vt 0.561358 0.876953
vt 0.561358 0.886772
vt 0.560343 0.886772
vt 0.628689 0.876953
vt 0.630092 0.876953
vt 0.630092 0.886772
vt 0.628689 0.886772
vt 0.576087 0.861210
vt 0.615363 0.861210
vt 0.615363 0.862224
vt 0.576087 0.862224
vt 0.561358 0.916230
vt 0.560343 0.916230
vt 0.576087 0.929556
vt 0.615363 0.929556
vt 0.615363 0.930958
vt 0.576087 0.930958
vt 0.630092 0.916230
vt 0.628689 0.916230
vt 0.536810 0.886772
vt 0.536810 0.896591
vt 0.536810 0.906410
vt 0.650791 0.876953
vt 0.650791 0.916230
vt 0.615363 0.951657
vt 0.576087 0.951657
vt 0.576087 0.946869
vt 0.615363 0.946869
vt 0.646002 0.906411
vt 0.646002 0.916230
vt 0.646002 0.886772
vt 0.646002 0.896591
vt 0.646002 0.876953
vt 0.542855 0.896591
vt 0.542855 0.906410
vt 0.542855 0.876953
vt 0.542855 0.886772
vt 0.542855 0.916230
vt 0.615363 0.843722
vt 0.576087 0.843722
vt 0.548102 0.906410
vt 0.548102 0.916230
vt 0.615363 0.848969
vt 0.576087 0.848969
vt 0.548102 0.886772
vt 0.548102 0.896591
vt 0.548102 0.876953
vt 0.640875 0.896591
vt 0.640875 0.906410
vt 0.640875 0.876953
vt 0.640875 0.886772
vt 0.576087 0.941741
vt 0.615363 0.941741
vt 0.640875 0.916230
vt 0.636050 0.906410
vt 0.636050 0.916230
vt 0.576087 0.936916
vt 0.615363 0.936916
vt 0.636050 0.886772
vt 0.636050 0.896591
vt 0.636050 0.876953
vt 0.552596 0.896591
vt 0.552596 0.906410
vt 0.552596 0.876953
vt 0.552596 0.886772
vt 0.615363 0.853463
vt 0.576087 0.853463
vt 0.552596 0.916230
vt 0.557540 0.906410
vt 0.557540 0.916230
vt 0.615363 0.858407
vt 0.576087 0.858407
vt 0.557540 0.886772
vt 0.557540 0.896591
vt 0.557540 0.876953
vt 0.631106 0.896591
vt 0.631106 0.906410
vt 0.631106 0.876953
vt 0.631106 0.886772
vt 0.576087 0.931973
vt 0.615363 0.931973
vt 0.631106 0.916230
vt 0.625992 0.906410
vt 0.625992 0.916230
vt 0.576087 0.926859
vt 0.615363 0.926859
vt 0.625992 0.886772
vt 0.625992 0.896591
vt 0.625992 0.876953
vt 0.562760 0.896591
vt 0.562760 0.906410
vt 0.562760 0.876953
vt 0.562760 0.886772
vt 0.615363 0.863627
vt 0.576087 0.863627
vt 0.562760 0.916230
vt 0.615363 0.868296
vt 0.576087 0.868296
vt 0.567429 0.906410
vt 0.567429 0.916230
vt 0.567429 0.886772
vt 0.567429 0.896591
vt 0.567429 0.876953
vt 0.621724 0.896591
vt 0.621724 0.906410
vt 0.621724 0.876953
vt 0.621724 0.886772
vt 0.621724 0.916230
vt 0.576087 0.922590
vt 0.615363 0.922590
vt 0.575220 0.066952
vt 0.575220 0.068662
vt 0.561539 0.068662
vt 0.561539 0.066952
vt 0.572494 0.876953
vt 0.572494 0.916230
vt 0.615363 0.873360
vt 0.576087 0.873360
vt 0.576087 0.954438
vt 0.615363 0.954438
vt 0.615363 0.955506
vt 0.576087 0.955506
vt 0.576087 0.798400
vt 0.615363 0.798400
vt 0.615363 0.801982
vt 0.576087 0.801982
vt 0.615363 0.805564
vt 0.576087 0.805564
vt 0.654496 0.912648
vt 0.654106 0.915270
vt 0.653571 0.916230
vt 0.536953 0.912648
vt 0.536810 0.909066
vt 0.537878 0.916230
vt 0.615363 0.838810
vt 0.576087 0.838810
vt 0.576087 0.838243
vt 0.615363 0.838243
vt 0.576087 0.833875
vt 0.615363 0.833875
vt 0.576087 0.830074
vt 0.615363 0.830074
vt 0.653506 0.876953
vt 0.537943 0.876953
vt 0.615784 0.917071
vt 0.575666 0.917071
vt 0.575876 0.916272
vt 0.615573 0.916272
vt 0.576030 0.911998
vt 0.615419 0.911998
vt 0.576087 0.907766
vt 0.615363 0.907766
vt 0.615363 0.884056
vt 0.576087 0.884056
vt 0.576039 0.880505
vt 0.615410 0.880505
vt 0.575910 0.876917
vt 0.615540 0.876917
vt 0.575733 0.876247
vt 0.615716 0.876247
vt 0.547605 0.075629
vt 0.547605 0.077339
vt 0.533924 0.077339
vt 0.533924 0.075629
vt 0.561412 0.068789
vt 0.561412 0.070499
vt 0.547731 0.070499
vt 0.547731 0.068789
vt 0.561412 0.065242
vt 0.547731 0.065242
vt 0.575220 0.065242
vt 0.561539 0.065242
vt 0.547605 0.046431
vt 0.533924 0.046431
vt 0.575220 0.077339
vt 0.575220 0.079049
vt 0.561539 0.079049
vt 0.561539 0.077339
vt 0.547605 0.079049
vt 0.533924 0.079049
vt 0.626057 0.066209
vt 0.623690 0.067189
vt 0.621128 0.067189
vt 0.618760 0.066209
vt 0.616949 0.064397
vt 0.615968 0.062030
vt 0.615968 0.059468
vt 0.616949 0.057100
vt 0.618760 0.055289
vt 0.621128 0.054308
vt 0.623690 0.054308
vt 0.626057 0.055289
vt 0.627869 0.057100
vt 0.628849 0.059468
vt 0.628849 0.062030
vt 0.627869 0.064397
vt 0.561412 0.063532
vt 0.547731 0.063532
vt 0.575220 0.063532
vt 0.561539 0.063532
vt 0.547605 0.048141
vt 0.533924 0.048141
vt 0.575220 0.080759
vt 0.561539 0.080759
vt 0.547605 0.080759
vt 0.533924 0.080759
vt 0.561412 0.094440
vt 0.561412 0.096150
vt 0.547731 0.096150
vt 0.547731 0.094440
vt 0.561412 0.061822
vt 0.547731 0.061822
vt 0.575220 0.061822
vt 0.561539 0.061822
vt 0.547605 0.049851
vt 0.533924 0.049851
vt 0.575220 0.082470
vt 0.561539 0.082470
vt 0.547605 0.082470
vt 0.533924 0.082470
vt 0.561412 0.092730
vt 0.547731 0.092730
vt 0.561412 0.060112
vt 0.547731 0.060112
vt 0.575220 0.060112
vt 0.561539 0.060112
vt 0.547605 0.051561
vt 0.533924 0.051561
vt 0.575220 0.084180
vt 0.561539 0.084180
vt 0.547605 0.084180
vt 0.533924 0.084180
vt 0.561412 0.091020
vt 0.547731 0.091020
vt 0.561412 0.058402
vt 0.547731 0.058402
vt 0.575220 0.058402
vt 0.561539 0.058402
vt 0.547605 0.053271
vt 0.533924 0.053271
vt 0.575220 0.085890
vt 0.561539 0.085890
vt 0.547605 0.085890
vt 0.533924 0.085890
vt 0.561412 0.089310
vt 0.547731 0.089310
vt 0.561412 0.056691
vt 0.547731 0.056691
vt 0.575220 0.056691
vt 0.561539 0.056691
vt 0.547605 0.054981
vt 0.533924 0.054981
vt 0.575220 0.087600
vt 0.561539 0.087600
vt 0.547605 0.087600
vt 0.533924 0.087600
vt 0.561412 0.087600
vt 0.547731 0.087600
vt 0.561412 0.054981
vt 0.547731 0.054981
vt 0.575220 0.054981
vt 0.561539 0.054981
vt 0.547605 0.056691
vt 0.533924 0.056691
vt 0.575220 0.089310
vt 0.561539 0.089310
vt 0.547605 0.089310
vt 0.533924 0.089310
vt 0.561412 0.085890
vt 0.547731 0.085890
vt 0.561412 0.053271
vt 0.547731 0.053271
vt 0.575220 0.053271
vt 0.561539 0.053271
vt 0.547605 0.058402
vt 0.533924 0.058402
vt 0.575220 0.091020
vt 0.561539 0.091020
vt 0.547605 0.091020
vt 0.533924 0.091020
vt 0.561412 0.084180
vt 0.547731 0.084180
vt 0.561412 0.051561
vt 0.547731 0.051561
vt 0.575220 0.051561
vt 0.561539 0.051561
vt 0.547605 0.060112
vt 0.533924 0.060112
vt 0.575220 0.092730
vt 0.561539 0.092730
vt 0.547605 0.092730
vt 0.533924 0.092730
vt 0.561412 0.082470
vt 0.547731 0.082470
vt 0.561412 0.049851
vt 0.547731 0.049851
vt 0.575220 0.049851
vt 0.561539 0.049851
vt 0.547605 0.061822
vt 0.533924 0.061822
vt 0.575220 0.094440
vt 0.561539 0.094440
vt 0.547605 0.094440
vt 0.533924 0.094440
vt 0.561412 0.080759
vt 0.547731 0.080759
vt 0.561412 0.048141
vt 0.547731 0.048141
vt 0.575220 0.048141
vt 0.561539 0.048141
vt 0.547605 0.063532
vt 0.533924 0.063532
vt 0.575220 0.096150
vt 0.561539 0.096150
vt 0.547605 0.096150
vt 0.533924 0.096150
vt 0.561412 0.079049
vt 0.547731 0.079049
vt 0.591946 0.121185
vt 0.594313 0.122166
vt 0.596875 0.122166
vt 0.599242 0.121185
vt 0.601054 0.119373
vt 0.602035 0.117006
vt 0.602035 0.114444
vt 0.601054 0.112077
vt 0.599242 0.110265
vt 0.596875 0.109284
vt 0.594313 0.109284
vt 0.591946 0.110265
vt 0.590134 0.112077
vt 0.589153 0.114444
vt 0.589153 0.117006
vt 0.590134 0.119373
vt 0.575220 0.046431
vt 0.561539 0.046431
vt 0.547605 0.065242
vt 0.533924 0.065242
vt 0.547605 0.072209
vt 0.547605 0.073919
vt 0.533924 0.073919
vt 0.533924 0.072209
vt 0.626057 0.079217
vt 0.623690 0.080197
vt 0.621128 0.080197
vt 0.618760 0.079217
vt 0.616949 0.077405
vt 0.615968 0.075038
vt 0.615968 0.072475
vt 0.616949 0.070108
vt 0.618760 0.068296
vt 0.621128 0.067316
vt 0.623690 0.067316
vt 0.626057 0.068296
vt 0.627869 0.070108
vt 0.628849 0.072475
vt 0.628849 0.075038
vt 0.627869 0.077405
vt 0.561412 0.077339
vt 0.547731 0.077339
vt 0.547605 0.070499
vt 0.533924 0.070499
vt 0.575220 0.044721
vt 0.561539 0.044721
vt 0.547605 0.066952
vt 0.533924 0.066952
vt 0.575220 0.041300
vt 0.575220 0.043011
vt 0.561539 0.043011
vt 0.561539 0.041300
vt 0.547605 0.068789
vt 0.533924 0.068789
vt 0.561412 0.075629
vt 0.547731 0.075629
vt 0.626057 0.092224
vt 0.623690 0.093205
vt 0.621128 0.093205
vt 0.618760 0.092224
vt 0.616949 0.090412
vt 0.615968 0.088045
vt 0.615968 0.085483
vt 0.616949 0.083116
vt 0.618760 0.081304
vt 0.621128 0.080323
vt 0.623690 0.080323
vt 0.626057 0.081304
vt 0.627869 0.083116
vt 0.628849 0.085483
vt 0.628849 0.088045
vt 0.627869 0.090412
vt 0.547605 0.068662
vt 0.533924 0.068662
vt 0.604953 0.108178
vt 0.607320 0.109158
vt 0.609883 0.109158
vt 0.612250 0.108178
vt 0.614062 0.106366
vt 0.615042 0.103999
vt 0.615042 0.101436
vt 0.614062 0.099069
vt 0.612250 0.097257
vt 0.609883 0.096277
vt 0.607320 0.096277
vt 0.604953 0.097257
vt 0.603141 0.099069
vt 0.602161 0.101436
vt 0.602161 0.103999
vt 0.603141 0.106366
vt 0.561412 0.073919
vt 0.547731 0.073919
vt 0.544013 0.135666
vt 0.541646 0.136646
vt 0.539084 0.136646
vt 0.536717 0.135666
vt 0.534905 0.133854
vt 0.533924 0.131487
vt 0.533924 0.128925
vt 0.534905 0.126557
vt 0.536717 0.124746
vt 0.539084 0.123765
vt 0.541646 0.123765
vt 0.544013 0.124746
vt 0.545825 0.126557
vt 0.546806 0.128925
vt 0.546806 0.131487
vt 0.545825 0.133854
vt 0.547605 0.041300
vt 0.533924 0.041300
vt 0.561412 0.072209
vt 0.547731 0.072209
vt 0.575220 0.075629
vt 0.561539 0.075629
vt 0.604953 0.121185
vt 0.607320 0.122166
vt 0.609883 0.122166
vt 0.612250 0.121185
vt 0.614062 0.119373
vt 0.615042 0.117006
vt 0.615042 0.114444
vt 0.614062 0.112077
vt 0.612250 0.110265
vt 0.609883 0.109284
vt 0.607320 0.109284
vt 0.604953 0.110265
vt 0.603141 0.112077
vt 0.602161 0.114444
vt 0.602161 0.117006
vt 0.603141 0.119373
vt 0.605753 0.053201
vt 0.608120 0.054182
vt 0.610682 0.054182
vt 0.613049 0.053201
vt 0.614861 0.051389
vt 0.615842 0.049022
vt 0.615842 0.046460
vt 0.614861 0.044093
vt 0.613049 0.042281
vt 0.610682 0.041300
vt 0.608120 0.041300
vt 0.605753 0.042281
vt 0.603941 0.044093
vt 0.602960 0.046460
vt 0.602960 0.049022
vt 0.603941 0.051389
vt 0.575220 0.073919
vt 0.561539 0.073919
vt 0.561412 0.044721
vt 0.561412 0.046431
vt 0.547731 0.046431
vt 0.547731 0.044721
vt 0.557021 0.135666
vt 0.554654 0.136646
vt 0.552091 0.136646
vt 0.549724 0.135666
vt 0.547912 0.133854
vt 0.546932 0.131487
vt 0.546932 0.128925
vt 0.547912 0.126557
vt 0.549724 0.124746
vt 0.552091 0.123765
vt 0.554654 0.123765
vt 0.557021 0.124746
vt 0.558833 0.126557
vt 0.559813 0.128925
vt 0.559813 0.131487
vt 0.558833 0.133854
vt 0.561412 0.043011
vt 0.547731 0.043011
vt 0.575220 0.072209
vt 0.561539 0.072209
vt 0.575220 0.068789
vt 0.575220 0.070499
vt 0.561539 0.070499
vt 0.561539 0.068789
vt 0.561412 0.041300
vt 0.547731 0.041300
vt 0.570028 0.135666
vt 0.567661 0.136646
vt 0.565099 0.136646
vt 0.562732 0.135666
vt 0.560920 0.133854
vt 0.559939 0.131487
vt 0.559939 0.128925
vt 0.560920 0.126557
vt 0.562732 0.124746
vt 0.565099 0.123765
vt 0.567661 0.123765
vt 0.570028 0.124746
vt 0.571840 0.126557
vt 0.572821 0.128925
vt 0.572821 0.131487
vt 0.571840 0.133854
vt 0.605753 0.066209
vt 0.608120 0.067189
vt 0.610682 0.067189
vt 0.613049 0.066209
vt 0.614861 0.064397
vt 0.615842 0.062030
vt 0.615842 0.059468
vt 0.614861 0.057100
vt 0.613049 0.055289
vt 0.610682 0.054308
vt 0.608120 0.054308
vt 0.605753 0.055289
vt 0.603941 0.057100
vt 0.602960 0.059468
vt 0.602960 0.062030
vt 0.603941 0.064397
vt 0.605753 0.079217
vt 0.608120 0.080197
vt 0.610682 0.080197
vt 0.613049 0.079217
vt 0.614861 0.077405
vt 0.615842 0.075038
vt 0.615842 0.072475
vt 0.614861 0.070108
vt 0.613049 0.068296
vt 0.610682 0.067316
vt 0.608120 0.067316
vt 0.605753 0.068296
vt 0.603941 0.070108
vt 0.602960 0.072475
vt 0.602960 0.075038
vt 0.603941 0.077405
vt 0.589027 0.066952
vt 0.589027 0.068662
vt 0.575346 0.068662
vt 0.575346 0.066952
vt 0.589027 0.065242
vt 0.575346 0.065242
vt 0.589027 0.077339
vt 0.589027 0.079049
vt 0.575346 0.079049
vt 0.575346 0.077339
vt 0.589027 0.063532
vt 0.575346 0.063532
vt 0.589027 0.080759
vt 0.575346 0.080759
vt 0.589027 0.061822
vt 0.575346 0.061822
vt 0.589027 0.082470
vt 0.575346 0.082470
vt 0.589027 0.060112
vt 0.575346 0.060112
vt 0.589027 0.084180
vt 0.575346 0.084180
vt 0.589027 0.058402
vt 0.575346 0.058402
vt 0.589027 0.085890
vt 0.575346 0.085890
vt 0.589027 0.056691
vt 0.575346 0.056691
vt 0.589027 0.087600
vt 0.575346 0.087600
vt 0.589027 0.054981
vt 0.575346 0.054981
vt 0.589027 0.089310
vt 0.575346 0.089310
vt 0.589027 0.053271
vt 0.575346 0.053271
vt 0.589027 0.091020
vt 0.575346 0.091020
vt 0.589027 0.051561
vt 0.575346 0.051561
vt 0.589027 0.092730
vt 0.575346 0.092730
vt 0.589027 0.049851
vt 0.575346 0.049851
vt 0.589027 0.094440
vt 0.575346 0.094440
vt 0.589027 0.048141
vt 0.575346 0.048141
vt 0.589027 0.096150
vt 0.575346 0.096150
vt 0.589027 0.075629
vt 0.575346 0.075629
vt 0.589027 0.073919
vt 0.575346 0.073919
vt 0.589027 0.044721
vt 0.589027 0.046431
vt 0.575346 0.046431
vt 0.575346 0.044721
vt 0.583036 0.135666
vt 0.580669 0.136646
vt 0.578107 0.136646
vt 0.575739 0.135666
vt 0.573928 0.133854
vt 0.572947 0.131487
vt 0.572947 0.128925
vt 0.573928 0.126557
vt 0.575739 0.124746
vt 0.578107 0.123765
vt 0.580669 0.123765
vt 0.583036 0.124746
vt 0.584848 0.126557
vt 0.585828 0.128925
vt 0.585828 0.131487
vt 0.584848 0.133854
vt 0.589027 0.043011
vt 0.575346 0.043011
vt 0.589027 0.072209
vt 0.575346 0.072209
vt 0.589027 0.068789
vt 0.589027 0.070499
vt 0.575346 0.070499
vt 0.575346 0.068789
vt 0.589027 0.041300
vt 0.575346 0.041300
vt 0.599242 0.147201
vt 0.596875 0.148181
vt 0.594313 0.148181
vt 0.591946 0.147201
vt 0.590134 0.145389
vt 0.589153 0.143022
vt 0.589153 0.140459
vt 0.590134 0.138092
vt 0.591945 0.136280
vt 0.594313 0.135300
vt 0.596875 0.135300
vt 0.599242 0.136280
vt 0.601054 0.138092
vt 0.602035 0.140459
vt 0.602035 0.143022
vt 0.601054 0.145389
vt 0.605753 0.092224
vt 0.608120 0.093205
vt 0.610682 0.093205
vt 0.613049 0.092224
vt 0.614861 0.090412
vt 0.615842 0.088045
vt 0.615842 0.085483
vt 0.614861 0.083116
vt 0.613049 0.081304
vt 0.610682 0.080323
vt 0.608120 0.080323
vt 0.605753 0.081304
vt 0.603941 0.083116
vt 0.602960 0.085483
vt 0.602960 0.088045
vt 0.603941 0.090412
vt 0.591946 0.134193
vt 0.594313 0.135173
vt 0.596875 0.135173
vt 0.599242 0.134193
vt 0.601054 0.132381
vt 0.602035 0.130014
vt 0.602035 0.127452
vt 0.601054 0.125084
vt 0.599242 0.123273
vt 0.596875 0.122292
vt 0.594313 0.122292
vt 0.591946 0.123273
vt 0.590134 0.125084
vt 0.589153 0.127452
vt 0.589153 0.130014
vt 0.590134 0.132381
vt 0.602834 0.066952
vt 0.602834 0.068662
vt 0.589153 0.068662
vt 0.589153 0.066952
vt 0.602834 0.065242
vt 0.589153 0.065242
vt 0.602834 0.077339
vt 0.602834 0.079049
vt 0.589153 0.079049
vt 0.589153 0.077339
vt 0.602834 0.063532
vt 0.589153 0.063532
vt 0.602834 0.080759
vt 0.589153 0.080759
vt 0.602834 0.061822
vt 0.589153 0.061822
vt 0.602834 0.082470
vt 0.589153 0.082470
vt 0.602834 0.060112
vt 0.589153 0.060112
vt 0.602834 0.084180
vt 0.589153 0.084180
vt 0.602834 0.058402
vt 0.589153 0.058402
vt 0.602834 0.085890
vt 0.589153 0.085890
vt 0.602834 0.056691
vt 0.589153 0.056691
vt 0.602834 0.087600
vt 0.589153 0.087600
vt 0.602834 0.054981
vt 0.589153 0.054981
vt 0.602834 0.089310
vt 0.589153 0.089310
vt 0.602834 0.053271
vt 0.589153 0.053271
vt 0.602834 0.091020
vt 0.589153 0.091020
vt 0.602834 0.051561
vt 0.589153 0.051561
vt 0.602834 0.092730
vt 0.589153 0.092730
vt 0.602834 0.049851
vt 0.589153 0.049851
vt 0.602834 0.094440
vt 0.589153 0.094440
vt 0.602834 0.048141
vt 0.589153 0.048141
vt 0.602834 0.096150
vt 0.589153 0.096150
vt 0.602834 0.075629
vt 0.589153 0.075629
vt 0.602834 0.073919
vt 0.589153 0.073919
vt 0.602834 0.044721
vt 0.602834 0.046431
vt 0.589153 0.046431
vt 0.589153 0.044721
vt 0.625257 0.147201
vt 0.622890 0.148181
vt 0.620328 0.148181
vt 0.617961 0.147201
vt 0.616149 0.145389
vt 0.615168 0.143022
vt 0.615168 0.140459
vt 0.616149 0.138092
vt 0.617961 0.136280
vt 0.620328 0.135300
vt 0.622890 0.135300
vt 0.625257 0.136280
vt 0.627069 0.138092
vt 0.628050 0.140459
vt 0.628050 0.143022
vt 0.627069 0.145389
vt 0.602834 0.043011
vt 0.589153 0.043011
vt 0.602834 0.072209
vt 0.589153 0.072209
vt 0.602834 0.068789
vt 0.602834 0.070499
vt 0.589153 0.070499
vt 0.589153 0.068789
vt 0.602834 0.041300
vt 0.589153 0.041300
vt 0.638265 0.108178
vt 0.635898 0.109158
vt 0.633336 0.109158
vt 0.630968 0.108178
vt 0.629157 0.106366
vt 0.628176 0.103999
vt 0.628176 0.101436
vt 0.629157 0.099069
vt 0.630968 0.097257
vt 0.633336 0.096277
vt 0.635898 0.096277
vt 0.638265 0.097257
vt 0.640077 0.099069
vt 0.641057 0.101436
vt 0.641057 0.103999
vt 0.640077 0.106366
vt 0.604953 0.134193
vt 0.607320 0.135173
vt 0.609883 0.135173
vt 0.612250 0.134193
vt 0.614062 0.132381
vt 0.615042 0.130014
vt 0.615042 0.127452
vt 0.614062 0.125084
vt 0.612250 0.123273
vt 0.609883 0.122292
vt 0.607320 0.122292
vt 0.604953 0.123273
vt 0.603141 0.125084
vt 0.602161 0.127452
vt 0.602161 0.130014
vt 0.603141 0.132381
vt 0.617961 0.108178
vt 0.620328 0.109158
vt 0.622890 0.109158
vt 0.625257 0.108178
vt 0.627069 0.106366
vt 0.628050 0.103999
vt 0.628050 0.101436
vt 0.627069 0.099069
vt 0.625257 0.097257
vt 0.622890 0.096277
vt 0.620328 0.096277
vt 0.617961 0.097257
vt 0.616149 0.099069
vt 0.615168 0.101436
vt 0.615168 0.103999
vt 0.616149 0.106366
vt 0.547605 0.121929
vt 0.547605 0.123639
vt 0.533924 0.123639
vt 0.533924 0.121929
vt 0.547605 0.120218
vt 0.533924 0.120218
vt 0.561412 0.104827
vt 0.561412 0.106537
vt 0.547731 0.106537
vt 0.547731 0.104827
vt 0.547605 0.118508
vt 0.533924 0.118508
vt 0.561412 0.108248
vt 0.547731 0.108248
vt 0.547605 0.116798
vt 0.533924 0.116798
vt 0.561412 0.109958
vt 0.547731 0.109958
vt 0.547605 0.115088
vt 0.533924 0.115088
vt 0.561412 0.111668
vt 0.547731 0.111668
vt 0.547605 0.113378
vt 0.533924 0.113378
vt 0.561412 0.113378
vt 0.547731 0.113378
vt 0.547605 0.111668
vt 0.533924 0.111668
vt 0.561412 0.115088
vt 0.547731 0.115088
vt 0.547605 0.109958
vt 0.533924 0.109958
vt 0.561412 0.116798
vt 0.547731 0.116798
vt 0.547605 0.108248
vt 0.533924 0.108248
vt 0.561412 0.118508
vt 0.547731 0.118508
vt 0.547605 0.106537
vt 0.533924 0.106537
vt 0.561412 0.120218
vt 0.547731 0.120218
vt 0.547605 0.104827
vt 0.533924 0.104827
vt 0.561412 0.121929
vt 0.547731 0.121929
vt 0.547605 0.103117
vt 0.533924 0.103117
vt 0.561412 0.123639
vt 0.547731 0.123639
vt 0.561412 0.103117
vt 0.547731 0.103117
vt 0.561412 0.101407
vt 0.547731 0.101407
vt 0.547605 0.099697
vt 0.547605 0.101407
vt 0.533924 0.101407
vt 0.533924 0.099697
vt 0.638265 0.121185
vt 0.635898 0.122166
vt 0.633336 0.122166
vt 0.630968 0.121185
vt 0.629157 0.119373
vt 0.628176 0.117006
vt 0.628176 0.114444
vt 0.629157 0.112077
vt 0.630968 0.110265
vt 0.633336 0.109284
vt 0.635898 0.109284
vt 0.638265 0.110265
vt 0.640077 0.112077
vt 0.641057 0.114444
vt 0.641057 0.117006
vt 0.640077 0.119373
vt 0.547605 0.097987
vt 0.533924 0.097987
vt 0.561412 0.099697
vt 0.547731 0.099697
vt 0.561412 0.096277
vt 0.561412 0.097987
vt 0.547731 0.097987
vt 0.547731 0.096277
vt 0.547605 0.096277
vt 0.533924 0.096277
vt 0.638265 0.134193
vt 0.635898 0.135173
vt 0.633336 0.135173
vt 0.630968 0.134193
vt 0.629157 0.132381
vt 0.628176 0.130014
vt 0.628176 0.127452
vt 0.629157 0.125084
vt 0.630968 0.123273
vt 0.633336 0.122292
vt 0.635898 0.122292
vt 0.638265 0.123273
vt 0.640077 0.125084
vt 0.641057 0.127452
vt 0.641057 0.130014
vt 0.640077 0.132381
vt 0.617961 0.121185
vt 0.620328 0.122166
vt 0.622890 0.122166
vt 0.625257 0.121185
vt 0.627069 0.119373
vt 0.628050 0.117006
vt 0.628050 0.114444
vt 0.627069 0.112077
vt 0.625257 0.110265
vt 0.622890 0.109284
vt 0.620328 0.109284
vt 0.617961 0.110265
vt 0.616149 0.112077
vt 0.615168 0.114444
vt 0.615168 0.117006
vt 0.616149 0.119373
vt 0.617961 0.134193
vt 0.620328 0.135173
vt 0.622890 0.135173
vt 0.625257 0.134193
vt 0.627069 0.132381
vt 0.628050 0.130014
vt 0.628050 0.127452
vt 0.627069 0.125084
vt 0.625257 0.123273
vt 0.622890 0.122292
vt 0.620328 0.122292
vt 0.617961 0.123273
vt 0.616149 0.125084
vt 0.615168 0.127452
vt 0.615168 0.130014
vt 0.616149 0.132381
vt 0.575220 0.121929
vt 0.575220 0.123639
vt 0.561539 0.123639
vt 0.561539 0.121929
vt 0.575220 0.120218
vt 0.561539 0.120218
vt 0.589027 0.104827
vt 0.589027 0.106537
vt 0.575346 0.106537
vt 0.575346 0.104827
vt 0.575220 0.118508
vt 0.561539 0.118508
vt 0.589027 0.108248
vt 0.575346 0.108248
vt 0.575220 0.116798
vt 0.561539 0.116798
vt 0.589027 0.109958
vt 0.575346 0.109958
vt 0.575220 0.115088
vt 0.561539 0.115088
vt 0.589027 0.111668
vt 0.575346 0.111668
vt 0.575220 0.113378
vt 0.561539 0.113378
vt 0.589027 0.113378
vt 0.575346 0.113378
vt 0.575220 0.111668
vt 0.561539 0.111668
vt 0.589027 0.115088
vt 0.575346 0.115088
vt 0.575220 0.109958
vt 0.561539 0.109958
vt 0.589027 0.116798
vt 0.575346 0.116798
vt 0.575220 0.108248
vt 0.561539 0.108248
vt 0.589027 0.118508
vt 0.575346 0.118508
vt 0.575220 0.106537
vt 0.561539 0.106537
vt 0.589027 0.120218
vt 0.575346 0.120218
vt 0.575220 0.104827
vt 0.561539 0.104827
vt 0.589027 0.121929
vt 0.575346 0.121929
vt 0.575220 0.103117
vt 0.561539 0.103117
vt 0.589027 0.123639
vt 0.575346 0.123639
vt 0.589027 0.103117
vt 0.575346 0.103117
vt 0.589027 0.101407
vt 0.575346 0.101407
vt 0.575220 0.099697
vt 0.575220 0.101407
vt 0.561539 0.101407
vt 0.561539 0.099697
vt 0.639065 0.053201
vt 0.636698 0.054182
vt 0.634135 0.054182
vt 0.631768 0.053201
vt 0.629956 0.051389
vt 0.628976 0.049022
vt 0.628976 0.046460
vt 0.629956 0.044093
vt 0.631768 0.042281
vt 0.634135 0.041300
vt 0.636698 0.041300
vt 0.639065 0.042281
vt 0.640877 0.044093
vt 0.641857 0.046460
vt 0.641857 0.049022
vt 0.640877 0.051389
vt 0.575220 0.097987
vt 0.561539 0.097987
vt 0.589027 0.099697
vt 0.575346 0.099697
vt 0.589027 0.096277
vt 0.589027 0.097987
vt 0.575346 0.097987
vt 0.575346 0.096277
vt 0.575220 0.096277
vt 0.561539 0.096277
vt 0.639065 0.066209
vt 0.636698 0.067189
vt 0.634135 0.067189
vt 0.631768 0.066209
vt 0.629956 0.064397
vt 0.628976 0.062030
vt 0.628976 0.059468
vt 0.629956 0.057100
vt 0.631768 0.055289
vt 0.634135 0.054308
vt 0.636698 0.054308
vt 0.639065 0.055289
vt 0.640877 0.057100
vt 0.641857 0.059468
vt 0.641857 0.062030
vt 0.640877 0.064397
vt 0.618760 0.053201
vt 0.621128 0.054182
vt 0.623690 0.054182
vt 0.626057 0.053201
vt 0.627869 0.051389
vt 0.628849 0.049022
vt 0.628849 0.046460
vt 0.627869 0.044093
vt 0.626057 0.042281
vt 0.623690 0.041300
vt 0.621128 0.041300
vt 0.618760 0.042281
vt 0.616949 0.044093
vt 0.615968 0.046460
vt 0.615968 0.049022
vt 0.616949 0.051389
vt 0.654073 0.877972
vt 0.654488 0.880754
vt 0.654640 0.884555
vt 0.654640 0.909066
vt 0.537344 0.915270
vt 0.536810 0.884555
vt 0.536962 0.880754
vt 0.537377 0.877972
s 0
f 10/1/1 45/2/1 46/3/1 9/4/1
f 9/4/2 46/3/2 47/5/2 11/6/2
f 11/6/3 47/5/3 48/7/3 12/8/3
f 12/8/4 48/7/4 45/9/4 10/10/4
f 3/11/5 7/12/5 5/13/5 1/14/5
f 8/15/6 4/16/6 2/17/6 6/18/6
f 3/11/7 1/14/7 10/19/7 9/20/7
f 7/12/8 3/11/8 9/20/8 11/6/8
f 5/13/9 7/12/9 11/6/9 12/8/9
f 1/14/10 5/13/10 12/8/10 10/19/10
f 13/21/3 14/22/3 16/23/3 15/24/3
f 15/24/4 16/23/4 20/25/4 19/26/4
f 19/26/1 20/25/1 18/27/1 17/28/1
f 17/28/2 18/27/2 14/29/2 13/30/2
f 15/31/5 19/26/5 17/28/5 13/32/5
f 20/25/6 16/33/6 14/34/6 18/27/6
f 21/35/3 22/36/3 24/37/3 23/38/3
f 23/38/4 24/37/4 28/39/4 27/40/4
f 25/41/2 26/42/2 22/43/2 21/44/2
f 23/45/5 27/40/5 25/41/5 21/46/5
f 28/39/6 24/47/6 22/48/6 26/42/6
f 27/40/1 28/39/1 26/42/1 25/41/1
f 29/49/3 30/50/3 32/51/3 31/52/3
f 31/52/4 32/51/4 36/53/4 35/54/4
f 35/54/1 36/53/1 34/55/1 33/56/1
f 33/56/2 34/55/2 30/57/2 29/58/2
f 31/59/5 35/54/5 33/56/5 29/60/5
f 36/53/6 32/61/6 30/62/6 34/55/6
f 37/63/3 38/64/3 40/65/3 39/66/3
f 39/66/4 40/65/4 44/67/4 43/68/4
f 43/68/1 44/67/1 42/69/1 41/70/1
f 41/70/2 42/69/2 38/71/2 37/72/2
f 39/73/5 43/68/5 41/70/5 37/74/5
f 44/67/6 40/75/6 38/76/6 42/69/6
f 2/17/11 4/16/11 46/77/11 45/78/11
f 4/16/12 8/15/12 47/5/12 46/77/12
f 8/15/13 6/18/13 48/7/13 47/5/13
f 6/18/14 2/17/14 45/78/14 48/7/14
f 50/79/1 53/80/1 54/81/1 49/82/1
f 49/82/2 54/81/2 55/83/2 51/84/2
f 51/84/3 55/83/3 56/85/3 52/86/3
f 52/86/4 56/85/4 53/87/4 50/88/4
f 50/89/5 49/90/5 51/84/5 52/86/5
f 53/91/6 56/85/6 55/83/6 54/92/6
f 318/93/15 322/94/15 321/95/15 317/96/15
s 1
f 220/97/16 93/98/17 62/99/18 212/100/19
f 210/101/5 94/102/5 61/103/20 202/104/20
f 217/105/20 212/106/19 62/107/18 61/108/20
f 206/109/21 201/110/22 60/111/23 59/112/21
f 166/113/21 161/114/24 65/115/25 63/116/21
f 170/117/5 95/118/5 66/119/20 162/120/20
f 180/121/26 96/122/27 64/123/28 172/124/29
f 177/125/20 172/126/29 64/127/28 66/128/20
f 257/129/20 252/130/30 70/131/31 68/132/20
f 260/133/32 97/134/33 70/135/31 252/136/30
f 250/137/5 98/138/5 68/139/20 242/140/20
f 246/141/21 241/142/34 67/143/35 69/144/21
f 249/145/5 90/146/5 80/147/5 248/148/5
f 259/149/32 89/150/33 79/151/36 258/152/32
f 179/153/26 88/154/27 78/155/37 178/156/26
f 169/157/5 87/158/5 77/159/5 168/160/5
f 209/161/5 86/162/5 76/163/5 208/164/5
f 219/165/16 85/166/17 75/167/38 218/168/16
f 149/169/39 81/170/40 71/171/40 148/172/41
f 279/173/5 82/174/42 73/175/42 278/176/5
f 82/174/42 84/177/43 74/178/43 73/175/42
f 91/179/44 99/180/40 71/181/40 72/182/44
s 0
f 439/183/5 443/184/5 447/185/5 451/186/5 455/187/5 459/188/5 463/189/5 467/190/5 471/191/5 475/192/5 479/193/5 483/194/5 487/195/5 491/196/5 495/197/5 499/198/5
f 441/199/45 501/200/45 502/201/45 442/202/45
s 1
f 216/203/46 60/204/23 85/166/17 219/165/16
f 206/205/21 59/206/21 86/162/5 209/161/5
f 166/207/21 63/208/21 87/158/5 169/157/5
f 176/209/47 65/210/25 88/154/27 179/153/26
f 256/211/48 67/212/35 89/150/33 259/149/32
f 246/213/21 69/214/21 90/146/5 249/145/5
f 72/182/44 71/181/40 81/215/40 83/216/44
f 248/148/5 80/147/5 98/138/5 250/137/5
f 258/152/32 79/151/36 97/134/33 260/133/32
f 178/156/26 78/155/37 96/122/27 180/121/26
f 168/160/5 77/159/5 95/118/5 170/117/5
f 208/164/5 76/163/5 94/102/5 210/101/5
f 218/168/16 75/167/38 93/98/17 220/97/16
f 148/172/41 71/171/40 99/217/40 150/218/49
f 278/176/5 73/175/42 100/219/42 280/220/5
f 73/175/42 74/178/43 92/221/43 100/219/42
f 268/222/5 106/223/5 110/224/5 270/225/5
f 273/226/50 105/227/51 109/228/52 275/229/50
f 271/230/53 101/231/54 108/232/52 274/233/50
f 266/234/21 103/235/21 107/236/5 269/237/5
f 269/237/5 107/236/5 106/223/5 268/222/5
f 274/233/50 108/232/52 105/227/51 273/226/50
f 275/229/50 109/228/52 104/238/55 277/239/56
f 272/240/20 277/241/56 104/242/55 102/243/20
f 270/225/5 110/224/5 102/244/20 262/245/20
f 266/246/21 261/247/57 101/248/54 103/249/21
f 153/250/58 116/251/59 120/252/60 155/253/61
f 143/254/5 115/255/5 119/256/5 145/257/5
f 141/258/21 111/259/21 118/260/5 144/261/5
f 151/262/62 113/263/63 117/264/64 154/265/65
f 154/265/65 117/264/64 116/251/59 153/250/58
f 144/261/5 118/260/5 115/255/5 143/254/5
f 145/257/5 119/256/5 114/266/20 147/267/20
f 141/268/21 146/269/66 113/270/63 111/271/21
f 155/253/61 120/252/60 112/272/67 157/273/68
f 152/274/20 157/275/68 112/276/67 114/277/20
f 188/278/5 126/279/5 130/280/5 190/281/5
f 193/282/69 125/283/70 129/284/71 195/285/69
f 191/286/72 121/287/73 128/288/71 194/289/69
f 186/290/21 123/291/21 127/292/5 189/293/5
f 189/293/5 127/292/5 126/279/5 188/278/5
f 194/289/69 128/288/71 125/283/70 193/282/69
f 192/294/20 197/295/74 124/296/75 122/297/20
f 195/285/69 129/284/71 124/298/75 197/299/74
f 186/300/21 181/301/76 121/302/73 123/303/21
f 190/281/5 130/280/5 122/304/20 182/305/20
f 233/306/77 136/307/78 140/308/79 235/309/77
f 228/310/5 135/311/5 139/312/5 230/313/5
f 226/314/21 131/315/21 138/316/5 229/317/5
f 231/318/80 133/319/81 137/320/79 234/321/77
f 234/321/77 137/320/79 136/307/78 233/306/77
f 229/317/5 138/316/5 135/311/5 228/310/5
f 226/322/21 221/323/82 133/324/81 131/325/21
f 230/313/5 139/312/5 134/326/20 222/327/20
f 232/328/20 237/329/83 132/330/84 134/331/20
f 235/309/77 140/308/79 132/332/84 237/333/83
f 83/334/44 144/261/5 143/254/5 72/335/44
f 72/335/44 143/254/5 145/257/5 91/336/44
f 116/251/59 148/172/41 150/218/49 120/252/60
f 113/263/63 146/337/66 149/169/39 117/264/64
f 117/264/64 149/169/39 148/172/41 116/251/59
f 120/252/60 150/218/49 142/338/85 112/272/67
f 114/277/20 112/276/67 142/339/85 147/340/20
f 162/341/20 167/342/86 157/275/68 152/274/20
f 165/343/87 155/253/61 157/273/68 167/344/86
f 164/345/87 154/265/65 153/250/58 163/346/87
f 161/347/24 151/262/62 154/265/65 164/345/87
f 163/346/87 153/250/58 155/253/61 165/343/87
f 115/255/5 158/348/5 160/349/5 119/256/5
f 111/259/21 156/350/21 159/351/5 118/260/5
f 118/260/5 159/351/5 158/348/5 115/255/5
f 119/256/5 160/349/5 152/352/20 114/266/20
f 111/271/21 113/270/63 151/353/62 156/354/21
f 78/155/37 163/346/87 165/343/87 96/122/27
f 65/210/25 161/347/24 164/345/87 88/154/27
f 88/154/27 164/345/87 163/346/87 78/155/37
f 96/122/27 165/343/87 167/344/86 64/123/28
f 66/128/20 64/127/28 167/342/86 162/341/20
f 158/348/5 168/160/5 170/117/5 160/349/5
f 156/350/21 166/207/21 169/157/5 159/351/5
f 159/351/5 169/157/5 168/160/5 158/348/5
f 160/349/5 170/117/5 162/120/20 152/352/20
f 156/354/21 151/353/62 161/114/24 166/113/21
f 95/118/5 175/355/5 177/356/20 66/119/20
f 63/116/21 65/115/25 176/357/47 171/358/21
f 87/158/5 174/359/5 173/360/5 77/159/5
f 63/208/21 171/361/21 174/359/5 87/158/5
f 77/159/5 173/360/5 175/355/5 95/118/5
f 183/362/88 178/156/26 180/121/26 185/363/88
f 181/364/76 176/209/47 179/153/26 184/365/88
f 184/365/88 179/153/26 178/156/26 183/362/88
f 182/366/20 187/367/89 172/126/29 177/125/20
f 185/363/88 180/121/26 172/124/29 187/368/89
f 129/284/71 185/363/88 187/368/89 124/298/75
f 122/297/20 124/296/75 187/367/89 182/366/20
f 128/288/71 184/365/88 183/362/88 125/283/70
f 121/287/73 181/364/76 184/365/88 128/288/71
f 125/283/70 183/362/88 185/363/88 129/284/71
f 175/355/5 190/281/5 182/305/20 177/356/20
f 171/358/21 176/357/47 181/301/76 186/300/21
f 174/359/5 189/293/5 188/278/5 173/360/5
f 171/361/21 186/290/21 189/293/5 174/359/5
f 173/360/5 188/278/5 190/281/5 175/355/5
f 205/369/90 195/285/69 197/299/74 207/370/91
f 202/371/20 207/372/91 197/295/74 192/294/20
f 204/373/90 194/289/69 193/282/69 203/374/90
f 201/375/22 191/286/72 194/289/69 204/373/90
f 203/374/90 193/282/69 195/285/69 205/369/90
f 126/279/5 198/376/5 200/377/5 130/280/5
f 123/291/21 196/378/21 199/379/5 127/292/5
f 127/292/5 199/379/5 198/376/5 126/279/5
f 123/303/21 121/302/73 191/380/72 196/381/21
f 130/280/5 200/377/5 192/382/20 122/304/20
f 75/167/38 203/374/90 205/369/90 93/98/17
f 60/204/23 201/375/22 204/373/90 85/166/17
f 85/166/17 204/373/90 203/374/90 75/167/38
f 61/108/20 62/107/18 207/372/91 202/371/20
f 93/98/17 205/369/90 207/370/91 62/99/18
f 198/376/5 208/164/5 210/101/5 200/377/5
f 196/378/21 206/205/21 209/161/5 199/379/5
f 199/379/5 209/161/5 208/164/5 198/376/5
f 196/381/21 191/380/72 201/110/22 206/109/21
f 200/377/5 210/101/5 202/104/20 192/382/20
f 94/102/5 215/383/5 217/384/20 61/103/20
f 59/112/21 60/111/23 216/385/46 211/386/21
f 86/162/5 214/387/5 213/388/5 76/163/5
f 59/206/21 211/389/21 214/387/5 86/162/5
f 76/163/5 213/388/5 215/383/5 94/102/5
f 223/390/92 218/168/16 220/97/16 225/391/92
f 221/392/82 216/203/46 219/165/16 224/393/92
f 224/393/92 219/165/16 218/168/16 223/390/92
f 222/394/20 227/395/93 212/106/19 217/105/20
f 225/391/92 220/97/16 212/100/19 227/396/93
f 140/308/79 225/391/92 227/396/93 132/332/84
f 134/331/20 132/330/84 227/395/93 222/394/20
f 137/320/79 224/393/92 223/390/92 136/307/78
f 133/319/81 221/392/82 224/393/92 137/320/79
f 136/307/78 223/390/92 225/391/92 140/308/79
f 215/383/5 230/313/5 222/327/20 217/384/20
f 211/386/21 216/385/46 221/323/82 226/322/21
f 214/387/5 229/317/5 228/310/5 213/388/5
f 211/389/21 226/314/21 229/317/5 214/387/5
f 213/388/5 228/310/5 230/313/5 215/383/5
f 245/397/94 235/309/77 237/333/83 247/398/95
f 242/399/20 247/400/95 237/329/83 232/328/20
f 244/401/94 234/321/77 233/306/77 243/402/94
f 241/403/34 231/318/80 234/321/77 244/401/94
f 243/402/94 233/306/77 235/309/77 245/397/94
f 135/311/5 238/404/5 240/405/5 139/312/5
f 131/315/21 236/406/21 239/407/5 138/316/5
f 138/316/5 239/407/5 238/404/5 135/311/5
f 131/325/21 133/324/81 231/408/80 236/409/21
f 139/312/5 240/405/5 232/410/20 134/326/20
f 79/151/36 243/402/94 245/397/94 97/134/33
f 67/212/35 241/403/34 244/401/94 89/150/33
f 89/150/33 244/401/94 243/402/94 79/151/36
f 68/132/20 70/131/31 247/400/95 242/399/20
f 97/134/33 245/397/94 247/398/95 70/135/31
f 238/404/5 248/148/5 250/137/5 240/405/5
f 236/406/21 246/213/21 249/145/5 239/407/5
f 239/407/5 249/145/5 248/148/5 238/404/5
f 236/409/21 231/408/80 241/142/34 246/141/21
f 240/405/5 250/137/5 242/140/20 232/410/20
f 69/144/21 67/143/35 256/411/48 251/412/21
f 98/138/5 255/413/5 257/414/20 68/139/20
f 90/146/5 254/415/5 253/416/5 80/147/5
f 69/214/21 251/417/21 254/415/5 90/146/5
f 80/147/5 253/416/5 255/413/5 98/138/5
f 263/418/96 258/152/32 260/133/32 265/419/96
f 261/420/57 256/211/48 259/149/32 264/421/96
f 264/421/96 259/149/32 258/152/32 263/418/96
f 265/419/96 260/133/32 252/136/30 267/422/97
f 262/423/20 267/424/97 252/130/30 257/129/20
f 102/243/20 104/242/55 267/424/97 262/423/20
f 109/228/52 265/419/96 267/422/97 104/238/55
f 108/232/52 264/421/96 263/418/96 105/227/51
f 101/231/54 261/420/57 264/421/96 108/232/52
f 105/227/51 263/418/96 265/419/96 109/228/52
f 251/412/21 256/411/48 261/247/57 266/246/21
f 255/413/5 270/225/5 262/245/20 257/414/20
f 254/415/5 269/237/5 268/222/5 253/416/5
f 251/417/21 266/234/21 269/237/5 254/415/5
f 253/416/5 268/222/5 270/225/5 255/413/5
f 84/177/43 274/233/50 273/226/50 74/178/43
s 0
f 436/425/45 58/426/45 57/427/45 435/428/45
s 1
f 74/178/43 273/226/50 275/229/50 92/221/43
f 106/223/5 278/176/5 280/220/5 110/224/5
f 103/235/21 276/429/21 279/173/5 107/236/5
f 107/236/5 279/173/5 278/176/5 106/223/5
f 110/224/5 280/220/5 272/430/20 102/244/20
f 103/249/21 101/248/54 271/431/53 276/432/21
f 285/433/98 282/434/99 284/435/100 287/436/101
f 287/437/101 284/438/100 283/439/102 288/440/103
f 288/440/103 283/439/102 281/441/104 286/442/105
f 286/442/105 281/441/104 99/180/40 91/179/44
f 147/340/20 142/339/85 282/434/99 285/433/98
f 283/443/102 284/444/100 282/445/99
f 288/446/103 286/447/105 285/448/98
f 289/449/106 294/450/107 296/451/108 291/452/109
f 291/452/109 296/451/108 295/453/110 292/454/111
f 292/454/111 295/453/110 293/455/112 290/456/113
f 294/450/107 289/449/106 146/269/66 141/268/21
f 83/216/44 81/215/40 290/456/113 293/455/112
f 81/170/40 149/169/39 289/457/106
f 144/261/5 83/334/44 294/458/107
f 301/459/114 298/460/115 300/461/116 303/462/117
f 303/462/117 300/461/116 299/463/118 304/464/119
f 304/464/119 299/463/118 297/465/120 302/466/121
f 298/460/115 301/459/114 277/241/56 272/240/20
f 299/463/118 300/461/116 298/460/115
f 100/219/42 92/221/43 302/466/121 297/465/120
f 304/464/119 302/466/121 301/459/114
f 309/467/122 306/468/123 308/469/124 311/470/125
f 311/470/125 308/469/124 307/471/126 312/472/127
f 312/472/127 307/471/126 305/473/128 310/474/129
f 306/468/123 309/467/122 84/177/43 82/174/42
f 82/174/42 279/173/5 305/473/128
f 276/432/21 271/431/53 310/474/129 305/473/128
f 274/233/50 84/177/43 310/474/129
s 0
f 421/475/130 417/476/130 418/477/130 422/478/130
f 375/479/131 371/480/131 372/481/131 376/482/131
f 445/483/132 441/199/132 442/202/132 446/484/132
f 432/485/132 436/425/132 435/428/132 431/486/132
f 322/94/133 326/487/133 325/488/133 321/95/133
f 460/489/134 464/490/134 463/491/134 459/492/134
f 417/476/134 413/493/134 414/494/134 418/477/134
f 375/495/6 315/496/6 319/497/6 323/498/6 327/499/6 331/500/6 335/501/6 339/502/6 343/503/6 347/504/6 351/505/6 355/506/6 359/507/6 363/508/6 367/509/6 371/510/6
f 449/511/135 445/483/135 446/484/135 450/512/135
f 428/513/135 432/485/135 431/486/135 427/514/135
f 326/487/136 330/515/136 329/516/136 325/488/136
f 464/490/137 468/517/137 467/518/137 463/491/137
f 413/493/137 409/519/137 410/520/137 414/494/137
f 315/521/45 375/522/45 376/523/45 316/524/45
f 453/525/138 449/511/138 450/512/138 454/526/138
f 424/527/138 428/513/138 427/514/138 423/528/138
f 330/515/130 334/529/130 333/530/130 329/516/130
f 468/517/139 472/531/139 471/532/139 467/518/139
f 409/519/139 405/533/139 406/534/139 410/520/139
f 319/535/132 315/521/132 316/524/132 320/536/132
f 457/537/140 453/525/140 454/526/140 458/538/140
f 420/539/140 424/527/140 423/528/140 419/540/140
f 334/529/134 338/541/134 337/542/134 333/530/134
f 472/531/141 476/543/141 475/544/141 471/532/141
f 405/533/141 401/545/141 402/546/141 406/534/141
f 323/547/135 319/535/135 320/536/135 324/548/135
f 461/549/142 457/537/142 458/538/142 462/550/142
f 416/551/142 420/539/142 419/540/142 415/552/142
f 338/541/137 342/553/137 341/554/137 337/542/137
f 476/543/143 480/555/143 479/556/143 475/544/143
f 401/545/143 397/557/143 398/558/143 402/546/143
f 327/559/138 323/547/138 324/548/138 328/560/138
f 465/561/143 461/549/143 462/550/143 466/562/143
f 412/563/143 416/551/143 415/552/143 411/564/143
f 342/553/139 346/565/139 345/566/139 341/554/139
f 480/555/142 484/567/142 483/568/142 479/556/142
f 397/557/142 393/569/142 394/570/142 398/558/142
f 331/571/140 327/559/140 328/560/140 332/572/140
f 469/573/141 465/561/141 466/562/141 470/574/141
f 408/575/141 412/563/141 411/564/141 407/576/141
f 346/565/141 350/577/141 349/578/141 345/566/141
f 484/567/140 488/579/140 487/580/140 483/568/140
f 393/569/140 389/581/140 390/582/140 394/570/140
f 335/583/142 331/571/142 332/572/142 336/584/142
f 473/585/139 469/573/139 470/574/139 474/586/139
f 404/587/139 408/575/139 407/576/139 403/588/139
f 350/577/143 354/589/143 353/590/143 349/578/143
f 488/579/138 492/591/138 491/592/138 487/580/138
f 389/581/138 385/593/138 386/594/138 390/582/138
f 339/595/143 335/583/143 336/584/143 340/596/143
f 477/597/137 473/585/137 474/586/137 478/598/137
f 400/599/137 404/587/137 403/588/137 399/600/137
f 354/589/142 358/601/142 357/602/142 353/590/142
f 492/591/135 496/603/135 495/604/135 491/592/135
f 385/593/135 381/605/135 382/606/135 386/594/135
f 343/607/141 339/595/141 340/596/141 344/608/141
f 481/609/134 477/597/134 478/598/134 482/610/134
f 396/611/134 400/599/134 399/600/134 395/612/134
f 358/601/140 362/613/140 361/614/140 357/602/140
f 496/603/132 500/615/132 499/616/132 495/604/132
f 381/605/132 377/617/132 378/618/132 382/606/132
f 347/619/139 343/607/139 344/608/139 348/620/139
f 485/621/130 481/609/130 482/610/130 486/622/130
f 392/623/130 396/611/130 395/612/130 391/624/130
f 362/613/138 366/625/138 365/626/138 361/614/138
f 500/615/45 440/627/45 439/628/45 499/616/45
f 377/617/45 437/629/45 438/630/45 378/618/45
f 351/631/137 347/619/137 348/620/137 352/632/137
f 57/633/5 379/634/5 383/635/5 387/636/5 391/637/5 395/638/5 399/639/5 403/640/5 407/641/5 411/642/5 415/643/5 419/644/5 423/645/5 427/646/5 431/647/5 435/648/5
f 388/649/136 392/623/136 391/624/136 387/650/136
f 366/625/135 370/651/135 369/652/135 365/626/135
f 429/653/133 425/654/133 426/655/133 430/656/133
f 437/657/6 377/658/6 381/659/6 385/660/6 389/661/6 393/662/6 397/663/6 401/664/6 405/665/6 409/666/6 413/667/6 417/668/6 421/669/6 425/670/6 429/671/6 433/672/6
f 355/673/134 351/631/134 352/632/134 356/674/134
f 433/675/15 429/653/15 430/656/15 434/676/15
f 384/677/133 388/649/133 387/650/133 383/678/133
f 370/651/132 374/679/132 373/680/132 369/652/132
f 58/681/131 380/682/131 379/683/131 57/684/131
f 437/685/131 433/675/131 434/676/131 438/686/131
f 359/687/130 355/673/130 356/674/130 360/688/130
f 58/689/6 436/690/6 432/691/6 428/692/6 424/693/6 420/694/6 416/695/6 412/696/6 408/697/6 404/698/6 400/699/6 396/700/6 392/701/6 388/702/6 384/703/6 380/704/6
f 380/682/15 384/677/15 383/678/15 379/683/15
f 374/679/45 314/705/45 313/706/45 373/680/45
f 425/654/136 421/475/136 422/478/136 426/655/136
f 376/707/5 372/708/5 368/709/5 364/710/5 360/711/5 356/712/5 352/713/5 348/714/5 344/715/5 340/716/5 336/717/5 332/718/5 328/719/5 324/720/5 320/721/5 316/722/5
f 363/723/136 359/687/136 360/688/136 364/724/136
f 314/725/6 374/726/6 370/727/6 366/728/6 362/729/6 358/730/6 354/731/6 350/732/6 346/733/6 342/734/6 338/735/6 334/736/6 330/737/6 326/738/6 322/739/6 318/740/6
f 314/741/131 318/93/131 317/96/131 313/742/131
f 371/480/15 367/743/15 368/744/15 372/481/15
f 456/745/130 460/489/130 459/492/130 455/746/130
f 438/747/5 434/748/5 430/749/5 426/750/5 422/751/5 418/752/5 414/753/5 410/754/5 406/755/5 402/756/5 398/757/5 394/758/5 390/759/5 386/760/5 382/761/5 378/762/5
f 367/743/133 363/723/133 364/724/133 368/744/133
f 313/763/5 317/764/5 321/765/5 325/766/5 329/767/5 333/768/5 337/769/5 341/770/5 345/771/5 349/772/5 353/773/5 357/774/5 361/775/5 365/776/5 369/777/5 373/778/5
f 452/779/136 456/745/136 455/746/136 451/780/136
f 493/781/133 489/782/133 490/783/133 494/784/133
f 501/785/6 441/786/6 445/787/6 449/788/6 453/789/6 457/790/6 461/791/6 465/792/6 469/793/6 473/794/6 477/795/6 481/796/6 485/797/6 489/798/6 493/799/6 497/800/6
f 497/801/15 493/781/15 494/784/15 498/802/15
f 448/803/133 452/779/133 451/780/133 447/804/133
f 440/805/131 444/806/131 443/807/131 439/808/131
f 501/809/131 497/801/131 498/802/131 502/810/131
f 440/811/6 500/812/6 496/813/6 492/814/6 488/815/6 484/816/6 480/817/6 476/818/6 472/819/6 468/820/6 464/821/6 460/822/6 456/823/6 452/824/6 448/825/6 444/826/6
f 444/806/15 448/803/15 447/804/15 443/807/15
f 489/782/136 485/621/136 486/622/136 490/783/136
f 502/827/5 498/828/5 494/829/5 490/830/5 486/831/5 482/832/5 478/833/5 474/834/5 470/835/5 466/836/5 462/837/5 458/838/5 454/839/5 450/840/5 446/841/5 442/842/5
f 503/843/5 507/844/5 511/845/5 515/846/5 519/847/5 523/848/5 527/849/5 531/850/5 535/851/5 539/852/5 543/853/5 547/854/5 551/855/5 555/856/5 559/857/5 563/858/5
f 505/859/45 565/860/45 566/861/45 506/862/45
f 509/863/132 505/859/132 506/862/132 510/864/132
f 524/865/134 528/866/134 527/867/134 523/868/134
f 513/869/135 509/863/135 510/864/135 514/870/135
f 528/866/137 532/871/137 531/872/137 527/867/137
f 517/873/138 513/869/138 514/870/138 518/874/138
f 532/871/139 536/875/139 535/876/139 531/872/139
f 521/877/140 517/873/140 518/874/140 522/878/140
f 536/875/141 540/879/141 539/880/141 535/876/141
f 525/881/142 521/877/142 522/878/142 526/882/142
f 540/879/143 544/883/143 543/884/143 539/880/143
f 529/885/143 525/881/143 526/882/143 530/886/143
f 544/883/142 548/887/142 547/888/142 543/884/142
f 533/889/141 529/885/141 530/886/141 534/890/141
f 548/887/140 552/891/140 551/892/140 547/888/140
f 537/893/139 533/889/139 534/890/139 538/894/139
f 552/891/138 556/895/138 555/896/138 551/892/138
f 541/897/137 537/893/137 538/894/137 542/898/137
f 556/895/135 560/899/135 559/900/135 555/896/135
f 545/901/134 541/897/134 542/898/134 546/902/134
f 560/899/132 564/903/132 563/904/132 559/900/132
f 549/905/130 545/901/130 546/902/130 550/906/130
f 564/903/45 504/907/45 503/908/45 563/904/45
f 520/909/130 524/865/130 523/868/130 519/910/130
f 516/911/136 520/909/136 519/910/136 515/912/136
f 557/913/133 553/914/133 554/915/133 558/916/133
f 565/917/6 505/918/6 509/919/6 513/920/6 517/921/6 521/922/6 525/923/6 529/924/6 533/925/6 537/926/6 541/927/6 545/928/6 549/929/6 553/930/6 557/931/6 561/932/6
f 561/933/15 557/913/15 558/916/15 562/934/15
f 512/935/133 516/911/133 515/912/133 511/936/133
f 504/937/131 508/938/131 507/939/131 503/940/131
f 565/941/131 561/933/131 562/934/131 566/942/131
f 504/943/6 564/944/6 560/945/6 556/946/6 552/947/6 548/948/6 544/949/6 540/950/6 536/951/6 532/952/6 528/953/6 524/954/6 520/955/6 516/956/6 512/957/6 508/958/6
f 508/938/15 512/935/15 511/936/15 507/939/15
f 553/914/136 549/905/136 550/906/136 554/915/136
f 566/959/5 562/960/5 558/961/5 554/962/5 550/963/5 546/964/5 542/965/5 538/966/5 534/967/5 530/968/5 526/969/5 522/970/5 518/971/5 514/972/5 510/973/5 506/974/5
f 567/975/5 571/976/5 575/977/5 579/978/5 583/979/5 587/980/5 591/981/5 595/982/5 599/983/5 603/984/5 607/985/5 611/986/5 615/987/5 619/988/5 623/989/5 627/990/5
f 569/991/45 629/992/45 630/993/45 570/994/45
f 573/995/132 569/991/132 570/994/132 574/996/132
f 588/997/134 592/998/134 591/999/134 587/1000/134
f 577/1001/135 573/995/135 574/996/135 578/1002/135
f 592/998/137 596/1003/137 595/1004/137 591/999/137
f 581/1005/138 577/1001/138 578/1002/138 582/1006/138
f 596/1003/139 600/1007/139 599/1008/139 595/1004/139
f 585/1009/140 581/1005/140 582/1006/140 586/1010/140
f 600/1007/141 604/1011/141 603/1012/141 599/1008/141
f 589/1013/142 585/1009/142 586/1010/142 590/1014/142
f 604/1011/143 608/1015/143 607/1016/143 603/1012/143
f 593/1017/143 589/1013/143 590/1014/143 594/1018/143
f 608/1015/142 612/1019/142 611/1020/142 607/1016/142
f 597/1021/141 593/1017/141 594/1018/141 598/1022/141
f 612/1019/140 616/1023/140 615/1024/140 611/1020/140
f 601/1025/139 597/1021/139 598/1022/139 602/1026/139
f 616/1023/138 620/1027/138 619/1028/138 615/1024/138
f 605/1029/137 601/1025/137 602/1026/137 606/1030/137
f 620/1027/135 624/1031/135 623/1032/135 619/1028/135
f 609/1033/134 605/1029/134 606/1030/134 610/1034/134
f 624/1031/132 628/1035/132 627/1036/132 623/1032/132
f 613/1037/130 609/1033/130 610/1034/130 614/1038/130
f 628/1035/45 568/1039/45 567/1040/45 627/1036/45
f 584/1041/130 588/997/130 587/1000/130 583/1042/130
f 580/1043/136 584/1041/136 583/1042/136 579/1044/136
f 621/1045/133 617/1046/133 618/1047/133 622/1048/133
f 629/1049/6 569/1050/6 573/1051/6 577/1052/6 581/1053/6 585/1054/6 589/1055/6 593/1056/6 597/1057/6 601/1058/6 605/1059/6 609/1060/6 613/1061/6 617/1062/6 621/1063/6 625/1064/6
f 625/1065/15 621/1045/15 622/1048/15 626/1066/15
f 576/1067/133 580/1043/133 579/1044/133 575/1068/133
f 568/1069/131 572/1070/131 571/1071/131 567/1072/131
f 629/1073/131 625/1065/131 626/1066/131 630/1074/131
f 568/1075/6 628/1076/6 624/1077/6 620/1078/6 616/1079/6 612/1080/6 608/1081/6 604/1082/6 600/1083/6 596/1084/6 592/1085/6 588/1086/6 584/1087/6 580/1088/6 576/1089/6 572/1090/6
f 572/1070/15 576/1067/15 575/1068/15 571/1071/15
f 617/1046/136 613/1037/136 614/1038/136 618/1047/136
f 630/1091/5 626/1092/5 622/1093/5 618/1094/5 614/1095/5 610/1096/5 606/1097/5 602/1098/5 598/1099/5 594/1100/5 590/1101/5 586/1102/5 582/1103/5 578/1104/5 574/1105/5 570/1106/5
f 631/1107/5 635/1108/5 639/1109/5 643/1110/5 647/1111/5 651/1112/5 655/1113/5 659/1114/5 663/1115/5 667/1116/5 671/1117/5 675/1118/5 679/1119/5 683/1120/5 687/1121/5 691/1122/5
f 633/1123/45 693/1124/45 694/1125/45 634/1126/45
f 637/1127/132 633/1123/132 634/1126/132 638/1128/132
f 652/1129/134 656/1130/134 655/1131/134 651/1132/134
f 641/1133/135 637/1127/135 638/1128/135 642/1134/135
f 656/1130/137 660/1135/137 659/1136/137 655/1131/137
f 645/1137/138 641/1133/138 642/1134/138 646/1138/138
f 660/1135/139 664/1139/139 663/1140/139 659/1136/139
f 649/1141/140 645/1137/140 646/1138/140 650/1142/140
f 664/1139/141 668/1143/141 667/1144/141 663/1140/141
f 653/1145/142 649/1141/142 650/1142/142 654/1146/142
f 668/1143/143 672/1147/143 671/1148/143 667/1144/143
f 657/1149/143 653/1145/143 654/1146/143 658/1150/143
f 672/1147/142 676/1151/142 675/1152/142 671/1148/142
f 661/1153/141 657/1149/141 658/1150/141 662/1154/141
f 676/1151/140 680/1155/140 679/1156/140 675/1152/140
f 665/1157/139 661/1153/139 662/1154/139 666/1158/139
f 680/1155/138 684/1159/138 683/1160/138 679/1156/138
f 669/1161/137 665/1157/137 666/1158/137 670/1162/137
f 684/1159/135 688/1163/135 687/1164/135 683/1160/135
f 673/1165/134 669/1161/134 670/1162/134 674/1166/134
f 688/1163/132 692/1167/132 691/1168/132 687/1164/132
f 677/1169/130 673/1165/130 674/1166/130 678/1170/130
f 692/1167/45 632/1171/45 631/1172/45 691/1168/45
f 648/1173/130 652/1129/130 651/1132/130 647/1174/130
f 644/1175/136 648/1173/136 647/1174/136 643/1176/136
f 685/1177/133 681/1178/133 682/1179/133 686/1180/133
f 693/1181/6 633/1182/6 637/1183/6 641/1184/6 645/1185/6 649/1186/6 653/1187/6 657/1188/6 661/1189/6 665/1190/6 669/1191/6 673/1192/6 677/1193/6 681/1194/6 685/1195/6 689/1196/6
f 689/1197/15 685/1177/15 686/1180/15 690/1198/15
f 640/1199/133 644/1175/133 643/1176/133 639/1200/133
f 632/1201/131 636/1202/131 635/1203/131 631/1204/131
f 693/1205/131 689/1197/131 690/1198/131 694/1206/131
f 632/1207/6 692/1208/6 688/1209/6 684/1210/6 680/1211/6 676/1212/6 672/1213/6 668/1214/6 664/1215/6 660/1216/6 656/1217/6 652/1218/6 648/1219/6 644/1220/6 640/1221/6 636/1222/6
f 636/1202/15 640/1199/15 639/1200/15 635/1203/15
f 681/1178/136 677/1169/136 678/1170/136 682/1179/136
f 694/1223/5 690/1224/5 686/1225/5 682/1226/5 678/1227/5 674/1228/5 670/1229/5 666/1230/5 662/1231/5 658/1232/5 654/1233/5 650/1234/5 646/1235/5 642/1236/5 638/1237/5 634/1238/5
f 695/1239/5 699/1240/5 703/1241/5 707/1242/5 711/1243/5 715/1244/5 719/1245/5 723/1246/5 727/1247/5 731/1248/5 735/1249/5 739/1250/5 743/1251/5 747/1252/5 751/1253/5 755/1254/5
f 697/1255/45 757/1256/45 758/1257/45 698/1258/45
f 701/1259/132 697/1255/132 698/1258/132 702/1260/132
f 716/1261/134 720/1262/134 719/1263/134 715/1264/134
f 705/1265/135 701/1259/135 702/1260/135 706/1266/135
f 720/1262/137 724/1267/137 723/1268/137 719/1263/137
f 709/1269/138 705/1265/138 706/1266/138 710/1270/138
f 724/1267/139 728/1271/139 727/1272/139 723/1268/139
f 713/1273/140 709/1269/140 710/1270/140 714/1274/140
f 728/1271/141 732/1275/141 731/1276/141 727/1272/141
f 717/1277/142 713/1273/142 714/1274/142 718/1278/142
f 732/1275/143 736/1279/143 735/1280/143 731/1276/143
f 721/1281/143 717/1277/143 718/1278/143 722/1282/143
f 736/1279/142 740/1283/142 739/1284/142 735/1280/142
f 725/1285/141 721/1281/141 722/1282/141 726/1286/141
f 740/1283/140 744/1287/140 743/1288/140 739/1284/140
f 729/1289/139 725/1285/139 726/1286/139 730/1290/139
f 744/1287/138 748/1291/138 747/1292/138 743/1288/138
f 733/1293/137 729/1289/137 730/1290/137 734/1294/137
f 748/1291/135 752/1295/135 751/1296/135 747/1292/135
f 737/1297/134 733/1293/134 734/1294/134 738/1298/134
f 752/1295/132 756/1299/132 755/1300/132 751/1296/132
f 741/1301/130 737/1297/130 738/1298/130 742/1302/130
f 756/1299/45 696/1303/45 695/1304/45 755/1300/45
f 712/1305/130 716/1261/130 715/1264/130 711/1306/130
f 708/1307/136 712/1305/136 711/1306/136 707/1308/136
f 749/1309/133 745/1310/133 746/1311/133 750/1312/133
f 757/1313/6 697/1314/6 701/1315/6 705/1316/6 709/1317/6 713/1318/6 717/1319/6 721/1320/6 725/1321/6 729/1322/6 733/1323/6 737/1324/6 741/1325/6 745/1326/6 749/1327/6 753/1328/6
f 753/1329/15 749/1309/15 750/1312/15 754/1330/15
f 704/1331/133 708/1307/133 707/1308/133 703/1332/133
f 696/1333/131 700/1334/131 699/1335/131 695/1336/131
f 757/1337/131 753/1329/131 754/1330/131 758/1338/131
f 696/1339/6 756/1340/6 752/1341/6 748/1342/6 744/1343/6 740/1344/6 736/1345/6 732/1346/6 728/1347/6 724/1348/6 720/1349/6 716/1350/6 712/1351/6 708/1352/6 704/1353/6 700/1354/6
f 700/1334/15 704/1331/15 703/1332/15 699/1335/15
f 745/1310/136 741/1301/136 742/1302/136 746/1311/136
f 758/1355/5 754/1356/5 750/1357/5 746/1358/5 742/1359/5 738/1360/5 734/1361/5 730/1362/5 726/1363/5 722/1364/5 718/1365/5 714/1366/5 710/1367/5 706/1368/5 702/1369/5 698/1370/5
s 1
f 84/177/43 309/467/122 310/474/129
f 309/467/122 311/470/125 310/474/129
f 311/470/125 312/472/127 310/474/129
f 310/474/129 271/230/53 274/233/50
f 302/466/121 92/221/43 301/459/114
f 92/221/43 275/229/50 301/459/114
f 275/229/50 277/239/56 301/459/114
f 301/459/114 303/462/117 304/464/119
f 149/169/39 146/337/66 289/457/106
f 289/457/106 291/1371/109 292/1372/111
f 292/1372/111 290/1373/113 289/457/106
f 290/1373/113 81/170/40 289/457/106
f 142/338/85 150/218/49 282/445/99
f 150/218/49 99/217/40 282/445/99
f 99/217/40 281/1374/104 282/445/99
f 281/1374/104 283/443/102 282/445/99
f 286/447/105 91/336/44 285/448/98
f 91/336/44 145/257/5 285/448/98
f 145/257/5 147/267/20 285/448/98
f 285/448/98 287/1375/101 288/446/103
f 83/334/44 293/1376/112 294/458/107
f 293/1376/112 295/1377/110 294/458/107
f 295/1377/110 296/1378/108 294/458/107
f 294/458/107 141/258/21 144/261/5
f 272/430/20 280/220/5 298/460/115
f 280/220/5 100/219/42 298/460/115
f 100/219/42 297/465/120 298/460/115
f 297/465/120 299/463/118 298/460/115
f 279/173/5 276/429/21 305/473/128
f 305/473/128 307/471/126 308/469/124
f 308/469/124 306/468/123 305/473/128
f 306/468/123 82/174/42 305/473/128
