# Blender 4.5.4 LTS
# www.blender.org
o Bookshelf_-_Short_2
v 2.856118 0.114686 1.000000
v 2.856118 1.863204 1.000000
v 2.970804 0.000000 -1.000000
v 2.970804 1.977890 -1.000000
v 2.970804 1.977890 1.000000
v 2.970804 0.000000 1.000000
v 2.856118 1.863204 -0.749552
v 2.856118 0.114686 -0.749552
v -0.087491 1.132263 -0.852491
v -0.087491 1.203672 -0.852491
v 2.949442 1.132263 0.941193
v 2.949442 1.203672 0.941193
v 2.949442 1.132263 -0.852491
v 2.949442 1.203672 -0.852491
v -2.856118 0.114686 1.000000
v -2.856118 1.863204 1.000000
v -2.970805 0.000000 -1.000000
v -2.970805 1.977890 -1.000000
v -2.970805 1.977890 1.000000
v -2.970805 0.000000 1.000000
v -2.856118 1.863204 -0.749552
v -2.856118 0.114686 -0.749552
v -0.273910 1.132263 -0.852491
v -0.273910 1.203672 -0.852491
v -2.949442 1.132263 0.941193
v -2.949442 1.203672 0.941193
v -2.949442 1.132263 -0.852491
v -2.949442 1.203672 -0.852491
v 1.316550 0.665311 -0.323531
v 1.315930 0.661995 -0.254500
v 1.321758 0.661999 0.760025
v 1.316662 0.661609 0.688903
v 1.317625 0.839959 -0.328357
v 1.317880 0.661600 -0.327488
v 2.683219 0.662448 0.682145
v 1.269871 0.483606 0.761082
v 1.269617 0.661966 0.760214
v 2.681221 0.662849 0.755103
v 2.681476 0.484489 0.755972
v 2.737956 0.840842 0.681078
v 2.704432 0.662461 -0.332478
v 2.681221 0.662311 -0.259440
v 2.738210 0.662482 0.681947
v 1.317880 0.661600 0.687058
v 1.317625 0.839959 0.686189
v 2.681476 0.484489 -0.258574
v 1.269617 0.661966 -0.254332
v 1.269871 0.483606 -0.253463
v 2.681221 0.662849 -0.259443
v 2.680341 0.662848 -0.259440
v 2.738211 0.662482 -0.332599
v 2.737956 0.840842 -0.333468
v 2.827529 0.460494 -0.333468
v 2.827784 0.282135 -0.332599
v -2.664034 0.099423 0.720312
v -1.243704 0.100306 0.715201
v -1.232762 0.635385 -0.301951
v -2.664034 0.099423 -0.294234
v 2.769915 0.282501 -0.259440
v -1.232507 0.457025 0.713464
v -2.652838 0.456142 0.718575
v -1.349218 0.456555 -0.394879
v -1.348963 0.278196 -0.394010
v 2.770794 0.282501 -0.259443
v 1.359445 0.103259 -0.253463
v 1.359190 0.281619 -0.254332
v 2.771049 0.104141 -0.258574
v 1.407199 0.459612 0.686189
v 1.407453 0.281252 0.687058
v -1.243959 0.278666 0.714332
v -2.664289 0.277783 0.719443
v -2.653093 0.634502 0.717706
v -1.232762 0.635385 0.712595
v 2.827784 0.282135 0.681947
v 2.770795 0.281964 -0.259440
v 2.794006 0.282114 -0.332478
v 2.827529 0.460494 0.681078
v 2.771049 0.104141 0.755972
v 2.770795 0.282501 0.755103
v 1.359190 0.281619 0.760214
v 1.359445 0.103259 0.761082
v -1.348963 0.278196 0.620535
v -1.349218 0.456555 0.619667
v -2.769548 0.455673 0.624778
v -2.769293 0.277313 0.625646
v -2.653093 0.634502 -0.296840
v -2.664289 0.277783 -0.295102
v -1.288404 0.635350 0.712795
v 2.772792 0.282101 0.682145
v -1.243959 0.278666 -0.300213
v 1.407454 0.281252 -0.327488
v -2.769293 0.277313 -0.388899
v -2.769548 0.455673 -0.389768
v 1.407199 0.459612 -0.328357
v -2.652838 0.456142 -0.295971
v -1.232507 0.457025 -0.301082
v -1.243704 0.100306 -0.299345
v 1.406236 0.281261 0.688903
v 1.411331 0.281651 0.760025
v 1.405503 0.281647 -0.254500
v 1.406124 0.284963 -0.323531
vn 1.0000 -0.0000 -0.0000
vn -0.0000 -0.0000 1.0000
vn -1.0000 -0.0000 -0.0000
vn -0.0000 1.0000 -0.0000
vn -0.0000 -1.0000 -0.0000
vn -0.0000 -0.0000 -1.0000
vn 0.0006 -1.0000 -0.0000
vn 0.0007 1.0000 -0.0054
vn -0.0006 1.0000 -0.0055
vn 1.0000 0.0014 -0.0000
vn 0.0036 0.0049 1.0000
vn -0.0006 1.0000 -0.0000
vn 0.0038 0.0049 1.0000
vn -1.0000 -0.0014 -0.0000
vn 0.0038 0.0050 1.0000
vt 0.036781 0.001108
vt 0.408020 0.001108
vt 0.408020 0.995791
vt 0.036781 0.995792
vt 0.176933 0.892653
vt 0.176933 0.096384
vt 0.311052 0.005205
vt 0.311052 0.973460
vt 0.408908 0.997782
vt 0.039811 0.997782
vt 0.039811 -0.001910
vt 0.408908 -0.001910
vt 0.007630 0.001108
vt 0.136217 0.001108
vt 0.136218 0.995791
vt 0.007630 0.995791
vt 0.220737 0.328212
vt 0.000047 0.328212
vt 0.000047 0.000047
vt 0.100145 0.000047
vt 0.107119 0.000047
vt 0.220737 0.000047
vt 0.263047 0.347178
vt 0.263047 0.716221
vt 0.171868 0.833842
vt 0.171868 0.213060
vt 0.371084 0.001108
vt 0.371084 0.995792
vt -0.000155 0.995792
vt -0.000155 0.001108
vt 0.083572 0.044713
vt 0.398685 0.044713
vt 0.398685 0.954460
vt 0.083572 0.954460
vt 0.278969 0.995792
vt 0.278969 0.001108
vt 0.150381 0.001108
vt 0.150381 0.995792
vt 0.203430 0.002396
vt 0.331226 0.002396
vt 0.331226 1.002088
vt 0.203430 1.002088
vt 0.134062 0.898513
vt 0.016442 0.979320
vt 0.016441 0.011064
vt 0.134062 0.102244
vt 0.253955 0.304307
vt 0.253955 0.925088
vt 0.173148 0.807468
vt 0.173148 0.438425
vt 0.359708 0.989800
vt 0.021279 0.989800
vt 0.021279 0.012358
vt 0.359708 0.012358
vt 0.276539 0.995429
vt 0.148743 0.995429
vt 0.148743 -0.004263
vt 0.276539 -0.004263
vt 0.043717 0.998581
vt 0.043717 -0.001110
vt 0.412814 -0.001110
vt 0.412814 0.998581
vt 0.107119 0.999953
vt 0.100145 0.999953
vt 0.000047 0.999953
vt 0.000047 0.693272
vt 0.220737 0.693272
vt 0.220737 0.999953
vt 0.807956 0.017118
vt 0.774363 0.000233
vt 0.761083 0.418706
vt 0.812530 0.428092
vt 0.763214 0.430529
vt 0.802984 0.449702
vt 0.767579 0.472532
vt 0.790294 0.456699
vt 0.773463 0.451670
vt 0.772177 0.774097
vt 0.941897 0.771305
vt 0.942841 0.703985
vt 0.772387 0.706761
vt 0.772217 0.708463
vt 0.529329 0.917941
vt 0.597217 0.918108
vt 0.597217 0.722551
vt 0.529329 0.722384
vt 0.753672 0.425782
vt 0.821708 0.437788
vt 0.792266 0.456443
vt 0.753689 0.472764
vt 0.753672 0.474962
vt 0.973332 0.575440
vt 0.739784 0.575440
vt 0.738552 0.611339
vt 0.983819 0.611339
vt 0.967614 0.572998
vt 0.965136 0.572998
vt 0.737973 0.572998
vt 0.775330 0.716934
vt 0.765667 0.774204
vt 0.781112 0.716839
vt 0.812739 0.454848
vt 0.562794 0.920569
vt 0.630682 0.920402
vt 0.630682 0.724845
vt 0.562794 0.725012
vt 0.766611 0.837849
vt 0.942841 0.834950
vt 0.971963 0.537098
vt 0.738698 0.537098
vt 0.683626 0.993162
vt 0.683830 0.797605
vt 0.615942 0.797438
vt 0.615942 0.992995
vt 0.547781 0.966094
vt 0.615669 0.965926
vt 0.615669 0.770369
vt 0.547781 0.770537
vt 0.733804 0.085386
vt 0.732554 0.090406
vt 0.864323 0.090753
vt 0.865573 0.085733
vt 0.860411 0.085720
vt 0.774518 0.544540
vt 0.830530 0.542182
vt 0.848506 0.533645
vt 0.753672 0.532997
vt 0.022931 0.551757
vt 0.003101 0.547506
vt 0.026640 0.561248
vt 0.003909 0.577941
vt 0.547044 0.775383
vt 0.614932 0.775215
vt 0.614932 0.579658
vt 0.547044 0.579826
vt 0.802967 0.403367
vt 0.804361 0.407205
vt 0.970359 0.406938
vt 0.968965 0.403100
vt 0.804361 0.346900
vt 0.802775 0.343062
vt 0.968773 0.342795
vt 0.970359 0.346632
vt 0.582970 0.771767
vt 0.582970 0.967324
vt 0.650858 0.967157
vt 0.650858 0.771600
vt 0.570886 0.963633
vt 0.570886 0.768076
vt 0.502998 0.767908
vt 0.502998 0.963465
vt 0.615421 0.797605
vt 0.547533 0.797438
vt 0.547533 0.992995
vt 0.615421 0.993162
vt 0.779654 0.754771
vt 0.838283 0.753262
vt 0.864737 0.778279
vt 0.753672 0.795952
vt 0.479124 0.992995
vt 0.547012 0.993162
vt 0.547012 0.797605
vt 0.479124 0.797438
vt 0.556149 0.750850
vt 0.556149 0.946407
vt 0.624037 0.946240
vt 0.624037 0.750683
vt 0.779654 0.634703
vt 0.838283 0.634153
vt 0.733804 0.164267
vt 0.865573 0.164614
vt 0.997459 0.159247
vt 0.997459 0.085386
vt 0.865696 0.085758
vt 0.865696 0.159619
s 0
f 3/1/1 4/2/1 5/3/1 6/4/1
f 2/5/2 1/6/2 6/7/2 5/8/2
f 1/9/3 2/10/3 7/11/3 8/12/3
f 4/13/4 18/14/4 19/15/4 5/16/4
f 11/17/5 25/18/5 27/19/5 23/20/5 9/21/5 13/22/5
f 1/23/2 15/24/2 20/25/2 6/26/2
f 17/27/3 20/28/3 19/29/3 18/30/3
f 3/31/6 17/32/6 18/33/6 4/34/6
f 6/35/4 3/36/4 17/37/4 20/38/4
f 8/39/4 22/40/4 15/41/4 1/42/4
f 16/43/2 19/44/2 20/45/2 15/46/2
f 5/47/2 19/48/2 16/49/2 2/50/2
f 7/51/2 21/52/2 22/53/2 8/54/2
f 2/55/5 16/56/5 21/57/5 7/58/5
f 15/59/1 22/60/1 21/61/1 16/62/1
f 10/63/4 24/64/4 28/65/4 26/66/4 12/67/4 14/68/4
f 12/67/2 26/66/2 25/18/2 11/17/2
f 39/69/7 36/70/7 48/71/7 46/72/7
f 30/73/8 50/74/8 41/75/8 34/76/8 29/77/8
f 31/78/9 38/79/9 35/80/9 44/81/9 32/82/9
f 40/83/10 43/84/10 51/85/10 52/86/10
f 47/87/11 48/71/11 46/72/11 42/88/11 50/74/11 30/73/11
f 33/89/11 34/76/11 41/75/11 51/90/11 52/91/11
f 45/92/12 40/93/12 52/94/12 33/95/12
f 45/92/11 44/96/11 35/97/11 43/98/11 40/93/11
f 47/99/12 37/100/12 31/78/12 30/101/12
f 42/88/13 49/102/13 50/74/13
f 36/103/14 37/104/14 47/105/14 48/106/14
f 37/100/11 36/107/11 39/108/11 38/79/11 31/78/11
f 43/98/7 35/97/7 41/109/7 51/110/7
f 42/111/10 38/112/10 39/113/10 46/114/10
f 44/115/14 45/116/14 33/117/14 34/118/14
f 72/119/11 61/120/11 60/121/11 73/122/11 88/123/11
f 69/115/14 68/116/14 94/117/14 91/118/14
f 75/111/10 79/112/10 78/113/10 67/114/10
f 70/124/11 71/125/11 55/126/11 56/127/11
f 86/128/11 95/129/11 96/130/11 57/131/11
f 74/98/7 89/97/7 76/109/7 54/110/7
f 80/100/11 81/107/11 78/108/11 79/79/11 99/78/11
f 61/132/14 72/133/14 86/134/14 95/135/14
f 81/103/14 80/104/14 66/105/14 65/106/14
f 75/88/15 64/102/15 59/74/15
f 66/99/12 80/100/12 99/78/12 100/101/12
f 84/136/11 85/137/11 82/138/11 83/139/11
f 68/92/11 69/96/11 89/97/11 74/98/11 77/93/11
f 68/92/12 77/93/12 53/94/12 94/95/12
f 94/89/11 91/76/11 76/75/11 54/90/11 53/91/11
f 93/140/11 92/141/11 63/142/11 62/143/11
f 63/144/14 82/145/14 83/146/14 62/147/14
f 93/148/10 84/149/10 85/150/10 92/151/10
f 73/152/10 60/153/10 96/154/10 57/155/10
f 66/87/11 65/71/11 67/72/11 75/88/11 59/74/11 100/73/11
f 90/156/11 87/157/11 58/158/11 97/159/11
f 70/160/10 56/161/10 97/162/10 90/163/10
f 77/83/10 74/84/10 54/85/10 53/86/10
f 58/164/14 55/165/14 71/166/14 87/167/14
f 99/78/9 79/79/9 89/80/9 69/81/9 98/82/9
f 100/73/8 59/74/8 76/75/8 91/76/8 101/77/8
f 62/143/7 83/139/7 84/136/7 93/140/7
f 90/168/12 87/169/12 71/125/12 70/124/12
f 60/121/7 61/120/7 95/170/7 96/171/7
f 78/69/7 81/70/7 65/71/7 67/72/7
f 86/172/12 72/173/12 73/174/12 57/175/12
