# Blender 5.0.0
# www.blender.org
o Cylinder
v 0.128624 -0.000000 -0.646636
v 0.131991 0.140688 -0.663564
v 0.366290 -0.000000 -0.548191
v 0.375879 0.140688 -0.562542
v 0.548191 -0.000000 -0.366290
v 0.562542 0.140688 -0.375879
v 0.646636 -0.000000 -0.128624
v 0.663564 0.140688 -0.131991
v 0.646636 -0.000000 0.128624
v 0.663564 0.140688 0.131991
v 0.548191 -0.000000 0.366290
v 0.562542 0.140688 0.375879
v 0.366290 -0.000000 0.548191
v 0.375879 0.140688 0.562542
v 0.128624 -0.000000 0.646636
v 0.131991 0.140688 0.663564
v -0.128624 -0.000000 0.646636
v -0.131991 0.140688 0.663564
v -0.366290 -0.000000 0.548191
v -0.375879 0.140688 0.562542
v -0.548191 -0.000000 0.366290
v -0.562542 0.140688 0.375879
v -0.646636 -0.000000 0.128624
v -0.663564 0.140688 0.131991
v -0.646636 -0.000000 -0.128624
v -0.663564 0.140688 -0.131991
v -0.548191 -0.000000 -0.366290
v -0.562542 0.140688 -0.375879
v -0.366290 -0.000000 -0.548191
v -0.375879 0.140688 -0.562542
v -0.128624 -0.000000 -0.646636
v -0.131991 0.140688 -0.663564
v 0.555570 0.556377 -0.831470
v 0.195090 0.556377 -0.980785
v 0.831470 0.556377 -0.555570
v 0.980785 0.556377 -0.195090
v 0.980785 0.556377 0.195090
v 0.831470 0.556377 0.555570
v 0.555570 0.556377 0.831470
v 0.195090 0.556377 0.980785
v -0.195090 0.556377 0.980785
v -0.555570 0.556377 0.831470
v -0.831470 0.556377 0.555570
v -0.980785 0.556377 0.195090
v -0.980785 0.556377 -0.195090
v -0.831470 0.556377 -0.555570
v -0.555570 0.556377 -0.831470
v -0.195090 0.556377 -0.980785
v 0.195090 0.278188 -0.980785
v 0.555570 0.278188 -0.831470
v 0.831470 0.278188 -0.555570
v 0.980785 0.278188 -0.195090
v 0.980785 0.278188 0.195090
v 0.831470 0.278188 0.555570
v 0.555570 0.278188 0.831470
v 0.195090 0.278188 0.980785
v -0.195090 0.278188 0.980785
v -0.555570 0.278188 0.831470
v -0.831470 0.278188 0.555570
v -0.980785 0.278188 0.195090
v -0.980785 0.278188 -0.195090
v -0.831470 0.278188 -0.555570
v -0.555570 0.278188 -0.831470
v -0.195090 0.278188 -0.980785
v 0.473332 0.323132 -0.708391
v 0.166212 0.323132 -0.835604
v 0.708391 0.323132 -0.473332
v 0.835604 0.323132 -0.166212
v 0.835604 0.323132 0.166212
v 0.708391 0.323132 0.473332
v 0.473332 0.323132 0.708391
v 0.166212 0.323132 0.835604
v -0.166212 0.323132 0.835604
v -0.473332 0.323132 0.708391
v -0.708391 0.323132 0.473332
v -0.835604 0.323132 0.166212
v -0.835604 0.323132 -0.166212
v -0.708391 0.323132 -0.473332
v -0.473332 0.323132 -0.708391
v -0.166212 0.323132 -0.835604
vn 0.0725 -0.9283 -0.3647
vn -0.0842 0.9021 0.4233
vn 0.2066 -0.9283 -0.3092
vn -0.2398 0.9021 0.3588
vn 0.3092 -0.9283 -0.2066
vn -0.3588 0.9021 0.2398
vn 0.3647 -0.9283 -0.0725
vn -0.4233 0.9021 0.0842
vn 0.3647 -0.9283 0.0725
vn -0.4233 0.9021 -0.0842
vn 0.3092 -0.9283 0.2066
vn -0.3588 0.9021 -0.2398
vn 0.2066 -0.9283 0.3092
vn -0.2398 0.9021 -0.3588
vn 0.0725 -0.9283 0.3647
vn -0.0842 0.9021 -0.4233
vn -0.0725 -0.9283 0.3647
vn 0.0842 0.9021 -0.4233
vn -0.2066 -0.9283 0.3092
vn 0.2398 0.9021 -0.3588
vn -0.3092 -0.9283 0.2066
vn 0.3588 0.9021 -0.2398
vn -0.3647 -0.9283 0.0725
vn 0.4233 0.9021 -0.0842
vn -0.3647 -0.9283 -0.0725
vn 0.4233 0.9021 0.0842
vn -0.3092 -0.9283 -0.2066
vn 0.3588 0.9021 0.2398
vn -0.2066 -0.9283 -0.3092
vn 0.2398 0.9021 0.3588
vn -0.0725 -0.9283 -0.3647
vn 0.0842 0.9021 0.4233
vn 0.2120 0.9243 -0.3173
vn 0.0744 0.9243 -0.3743
vn 0.3173 0.9243 -0.2120
vn 0.3743 0.9243 -0.0744
vn 0.3743 0.9243 0.0744
vn 0.3173 0.9243 0.2120
vn 0.2120 0.9243 0.3173
vn 0.0744 0.9243 0.3743
vn -0.0744 0.9243 0.3743
vn -0.2120 0.9243 0.3173
vn -0.3173 0.9243 0.2120
vn -0.3743 0.9243 0.0744
vn -0.3743 0.9243 -0.0744
vn -0.3173 0.9243 -0.2120
vn -0.2120 0.9243 -0.3173
vn -0.0744 0.9243 -0.3743
vn 0.1780 -0.4093 -0.8949
vn 0.5069 -0.4093 -0.7586
vn 0.7586 -0.4093 -0.5069
vn 0.8949 -0.4093 -0.1780
vn 0.8949 -0.4093 0.1780
vn 0.7586 -0.4093 0.5069
vn 0.5069 -0.4093 0.7586
vn 0.1780 -0.4093 0.8949
vn -0.1780 -0.4093 0.8949
vn -0.5069 -0.4093 0.7586
vn -0.7586 -0.4093 0.5069
vn -0.8949 -0.4093 0.1780
vn -0.8949 -0.4093 -0.1780
vn -0.7586 -0.4093 -0.5069
vn -0.5069 -0.4093 -0.7586
vn -0.1780 -0.4093 -0.8949
vn -0.4396 0.6116 0.6578
vn -0.1544 0.6116 0.7760
vn -0.6578 0.6116 0.4396
vn -0.7760 0.6116 0.1544
vn -0.7760 0.6116 -0.1544
vn -0.6578 0.6116 -0.4396
vn -0.4396 0.6116 -0.6578
vn -0.1544 0.6116 -0.7760
vn 0.1544 0.6116 -0.7760
vn 0.4396 0.6116 -0.6578
vn 0.6578 0.6116 -0.4396
vn 0.7760 0.6116 -0.1544
vn 0.7760 0.6116 0.1544
vn 0.6578 0.6116 0.4396
vn 0.4396 0.6116 0.6578
vn 0.1544 0.6116 0.7760
vt 0.494529 0.456485
vt 0.494529 0.456958
vt 0.492641 0.456958
vt 0.492641 0.456485
vt 0.494529 0.457430
vt 0.492641 0.457430
vt 0.494529 0.457902
vt 0.492641 0.457902
vt 0.494529 0.458374
vt 0.492641 0.458374
vt 0.494529 0.458846
vt 0.492641 0.458846
vt 0.494529 0.459319
vt 0.492641 0.459319
vt 0.494529 0.459791
vt 0.492641 0.459791
vt 0.494529 0.460263
vt 0.492641 0.460263
vt 0.494529 0.460735
vt 0.492641 0.460735
vt 0.494529 0.461207
vt 0.492641 0.461207
vt 0.494529 0.461679
vt 0.492641 0.461679
vt 0.494529 0.462152
vt 0.492641 0.462152
vt 0.494529 0.462624
vt 0.492641 0.462624
vt 0.494529 0.463096
vt 0.492641 0.463096
vt 0.494529 0.463568
vt 0.492641 0.463568
vt 0.461227 0.468232
vt 0.461256 0.468163
vt 0.461310 0.468111
vt 0.461379 0.468084
vt 0.461454 0.468083
vt 0.461523 0.468113
vt 0.461576 0.468166
vt 0.461603 0.468236
vt 0.461603 0.468311
vt 0.461574 0.468380
vt 0.461521 0.468432
vt 0.461451 0.468459
vt 0.461376 0.468459
vt 0.461307 0.468430
vt 0.461255 0.468377
vt 0.461228 0.468307
vt 0.499977 0.458618
vt 0.499977 0.457910
vt 0.499706 0.457256
vt 0.499206 0.456756
vt 0.498552 0.456485
vt 0.497845 0.456485
vt 0.497191 0.456756
vt 0.496691 0.457256
vt 0.496420 0.457910
vt 0.496420 0.458618
vt 0.496691 0.459271
vt 0.497191 0.459771
vt 0.497845 0.460042
vt 0.498552 0.460042
vt 0.499206 0.459771
vt 0.499706 0.459271
vt 0.496418 0.463568
vt 0.496418 0.456485
vt 0.461153 0.468217
vt 0.461153 0.468322
vt 0.461062 0.468341
vt 0.461062 0.468201
vt 0.461192 0.468419
vt 0.461114 0.468470
vt 0.461266 0.468493
vt 0.461212 0.468572
vt 0.461361 0.468534
vt 0.461344 0.468627
vt 0.461466 0.468534
vt 0.461486 0.468627
vt 0.461563 0.468495
vt 0.461617 0.468572
vt 0.461637 0.468421
vt 0.461716 0.468471
vt 0.461677 0.468325
vt 0.461769 0.468342
vt 0.461678 0.468221
vt 0.461769 0.468202
vt 0.461639 0.468123
vt 0.461716 0.468073
vt 0.461565 0.468050
vt 0.461618 0.467971
vt 0.461469 0.468009
vt 0.461487 0.467916
vt 0.461364 0.468008
vt 0.461344 0.467916
vt 0.461267 0.468048
vt 0.461213 0.467971
vt 0.461193 0.468122
vt 0.461114 0.468071
vt 0.496418 0.463096
vt 0.496418 0.462624
vt 0.496418 0.462152
vt 0.496418 0.461679
vt 0.496418 0.461207
vt 0.496418 0.460735
vt 0.496418 0.460263
vt 0.496418 0.459791
vt 0.496418 0.459319
vt 0.496418 0.458846
vt 0.496418 0.458374
vt 0.496418 0.457902
vt 0.496418 0.457430
vt 0.496418 0.456958
s 1
f 49/1/49 50/2/50 3/3/3 1/4/1
f 50/2/50 51/5/51 5/6/5 3/3/3
f 51/5/51 52/7/52 7/8/7 5/6/5
f 52/7/52 53/9/53 9/10/9 7/8/7
f 53/9/53 54/11/54 11/12/11 9/10/9
f 54/11/54 55/13/55 13/14/13 11/12/11
f 55/13/55 56/15/56 15/16/15 13/14/13
f 56/15/56 57/17/57 17/18/17 15/16/15
f 57/17/57 58/19/58 19/20/19 17/18/17
f 58/19/58 59/21/59 21/22/21 19/20/19
f 59/21/59 60/23/60 23/24/23 21/22/21
f 60/23/60 61/25/61 25/26/25 23/24/23
f 61/25/61 62/27/62 27/28/27 25/26/25
f 62/27/62 63/29/63 29/30/29 27/28/27
f 63/29/63 64/31/64 31/32/31 29/30/29
f 2/33/2 32/34/32 30/35/30 28/36/28 26/37/26 24/38/24 22/39/22 20/40/20 18/41/18 16/42/16 14/43/14 12/44/12 10/45/10 8/46/8 6/47/6 4/48/4
f 1/49/1 3/50/3 5/51/5 7/52/7 9/53/9 11/54/11 13/55/13 15/56/15 17/57/17 19/58/19 21/59/21 23/60/23 25/61/25 27/62/27 29/63/29 31/64/31
f 64/31/64 48/65/48 34/66/34 49/1/49
f 66/67/66 65/68/65 33/69/33 34/70/34
f 65/68/65 67/71/67 35/72/35 33/69/33
f 67/71/67 68/73/68 36/74/36 35/72/35
f 68/73/68 69/75/69 37/76/37 36/74/36
f 69/75/69 70/77/70 38/78/38 37/76/37
f 70/77/70 71/79/71 39/80/39 38/78/38
f 71/79/71 72/81/72 40/82/40 39/80/39
f 72/81/72 73/83/73 41/84/41 40/82/40
f 73/83/73 74/85/74 42/86/42 41/84/41
f 74/85/74 75/87/75 43/88/43 42/86/42
f 75/87/75 76/89/76 44/90/44 43/88/43
f 76/89/76 77/91/77 45/92/45 44/90/44
f 77/91/77 78/93/78 46/94/46 45/92/45
f 78/93/78 79/95/79 47/96/47 46/94/46
f 79/95/79 80/97/80 48/98/48 47/96/47
f 80/97/80 66/67/66 34/70/34 48/98/48
f 31/32/31 64/31/64 49/1/49 1/4/1
f 47/99/47 48/65/48 64/31/64 63/29/63
f 46/100/46 47/99/47 63/29/63 62/27/62
f 45/101/45 46/100/46 62/27/62 61/25/61
f 44/102/44 45/101/45 61/25/61 60/23/60
f 43/103/43 44/102/44 60/23/60 59/21/59
f 42/104/42 43/103/43 59/21/59 58/19/58
f 41/105/41 42/104/42 58/19/58 57/17/57
f 40/106/40 41/105/41 57/17/57 56/15/56
f 39/107/39 40/106/40 56/15/56 55/13/55
f 38/108/38 39/107/39 55/13/55 54/11/54
f 37/109/37 38/108/38 54/11/54 53/9/53
f 36/110/36 37/109/37 53/9/53 52/7/52
f 35/111/35 36/110/36 52/7/52 51/5/51
f 33/112/33 35/111/35 51/5/51 50/2/50
f 34/66/34 33/112/33 50/2/50 49/1/49
f 2/33/2 4/48/4 65/68/65 66/67/66
f 4/48/4 6/47/6 67/71/67 65/68/65
f 6/47/6 8/46/8 68/73/68 67/71/67
f 8/46/8 10/45/10 69/75/69 68/73/68
f 10/45/10 12/44/12 70/77/70 69/75/69
f 12/44/12 14/43/14 71/79/71 70/77/70
f 14/43/14 16/42/16 72/81/72 71/79/71
f 16/42/16 18/41/18 73/83/73 72/81/72
f 18/41/18 20/40/20 74/85/74 73/83/73
f 20/40/20 22/39/22 75/87/75 74/85/74
f 22/39/22 24/38/24 76/89/76 75/87/75
f 24/38/24 26/37/26 77/91/77 76/89/76
f 26/37/26 28/36/28 78/93/78 77/91/77
f 28/36/28 30/35/30 79/95/79 78/93/78
f 30/35/30 32/34/32 80/97/80 79/95/79
f 32/34/32 2/33/2 66/67/66 80/97/80
