# Blender 5.0.0
# www.blender.org
o Cabinets
v 2.379274 2.398896 0.787194
v 2.379274 -0.000000 0.787194
v 2.193972 2.248473 -0.817829
v 2.193971 0.150422 -0.817829
v -1.427564 2.398896 0.787194
v -1.427564 0.000000 0.787194
v -1.246080 2.250819 -0.817829
v -1.246080 0.148077 -0.817829
v 0.381904 2.250819 -0.817829
v 0.381904 0.148077 -0.817829
v 0.571294 0.150423 -0.817829
v -1.427564 0.000000 -0.787194
v -1.427564 2.398896 -0.787194
v 0.571294 2.248473 -0.817829
v 2.379274 -0.000000 -0.787194
v 2.379274 2.398896 -0.787194
v 0.475855 2.398896 -0.787194
v 0.475855 -0.000000 -0.787194
v 0.475855 -0.000000 -0.783657
v -1.427564 0.000000 -0.783657
v 2.379274 -0.000000 -0.783657
v 0.235209 0.555641 -0.879617
v 0.235209 0.206228 -0.879617
v 0.235209 0.555641 -0.845112
v 0.235209 0.555641 -0.837704
v 0.245928 0.555641 -0.866196
v 0.297836 0.206228 -0.866196
v 0.245928 0.206228 -0.866196
v 0.297836 0.555641 -0.866196
v 0.235209 0.206228 -0.845112
v 0.235209 0.206228 -0.837704
v 0.297836 0.555641 -0.879617
v 0.297836 0.206228 -0.879617
v 0.297836 0.555641 -0.817724
v 0.297836 0.206228 -0.817724
v 0.245928 0.206228 -0.879617
v 0.245928 0.555641 -0.879617
v 0.245928 0.206228 -0.837704
v 0.245928 0.555641 -0.837704
v 0.344286 0.206228 -0.879617
v 0.344286 0.555641 -0.879617
v 0.344286 0.206228 -0.817724
v 0.344286 0.555641 -0.817724
v 0.722977 0.206227 -0.879617
v 0.722977 0.555640 -0.879617
v 0.722977 0.206227 -0.845112
v 0.722977 0.206227 -0.837704
v 0.712258 0.206227 -0.866196
v 0.660350 0.555640 -0.866196
v 0.712258 0.555640 -0.866196
v 0.660350 0.206227 -0.866196
v 0.722977 0.555640 -0.845112
v 0.722977 0.555640 -0.837704
v 0.660350 0.206227 -0.879617
v 0.660350 0.555640 -0.879617
v 0.660350 0.206227 -0.817724
v 0.660350 0.555640 -0.817724
v 0.712258 0.555640 -0.879617
v 0.712258 0.206227 -0.879617
v 0.712258 0.555640 -0.837704
v 0.712258 0.206227 -0.837704
v 0.613900 0.555640 -0.879617
v 0.613899 0.206227 -0.879617
v 0.613900 0.555640 -0.817724
v 0.613899 0.206227 -0.817724
v -5.939351 2.398896 -1.401510
v -5.939351 0.000000 -1.401511
v -4.334327 2.248473 -1.522314
v -4.334326 0.150423 -1.522314
v -5.939352 2.398896 -3.883281
v -5.939351 0.000000 -3.883281
v -4.334327 2.250820 -3.764967
v -4.334327 0.148077 -3.764968
v -4.334327 2.250819 -2.703645
v -4.334326 0.148077 -2.703645
v -4.334326 0.150423 -2.580177
v -4.364962 0.000000 -3.883282
v -4.364962 2.398896 -3.883281
v -4.334327 2.248473 -2.580177
v -4.364962 0.000000 -1.401511
v -4.364962 2.398896 -1.401511
v -4.364962 2.398896 -2.642396
v -4.364962 0.000000 -2.642396
v -4.368499 0.000000 -2.642396
v -4.368499 0.000000 -3.883282
v -4.368499 0.000000 -1.401511
v -4.272538 0.555641 -2.799279
v -4.272538 0.206228 -2.799279
v -4.307045 0.555641 -2.799279
v -4.314452 0.555641 -2.799279
v -4.285960 0.555641 -2.792291
v -4.285960 0.206228 -2.758451
v -4.285960 0.206228 -2.792291
v -4.285960 0.555641 -2.758451
v -4.307045 0.206228 -2.799279
v -4.314452 0.206228 -2.799279
v -4.272538 0.555641 -2.758451
v -4.272538 0.206228 -2.758451
v -4.334432 0.555641 -2.758451
v -4.334432 0.206228 -2.758451
v -4.272538 0.206228 -2.792291
v -4.272538 0.555641 -2.792291
v -4.314452 0.206228 -2.792291
v -4.314452 0.555641 -2.792291
v -4.272538 0.206228 -2.728169
v -4.272538 0.555641 -2.728169
v -4.334432 0.206228 -2.728169
v -4.334432 0.555641 -2.728169
v -4.272538 0.206227 -2.481291
v -4.272538 0.555640 -2.481291
v -4.307045 0.206227 -2.481291
v -4.314452 0.206227 -2.481291
v -4.285960 0.206227 -2.488279
v -4.285960 0.555640 -2.522120
v -4.285960 0.555640 -2.488279
v -4.285960 0.206227 -2.522120
v -4.307045 0.555640 -2.481291
v -4.314452 0.555640 -2.481291
v -4.272538 0.206227 -2.522120
v -4.272538 0.555640 -2.522120
v -4.334432 0.206227 -2.522120
v -4.334432 0.555640 -2.522120
v -4.272538 0.555640 -2.488279
v -4.272538 0.206227 -2.488279
v -4.314452 0.555640 -2.488279
v -4.314452 0.206227 -2.488279
v -4.272538 0.555640 -2.552402
v -4.272538 0.206227 -2.552402
v -4.334432 0.555640 -2.552401
v -4.334432 0.206227 -2.552402
v -3.736150 2.398894 0.672512
v -3.736153 -0.000001 0.672511
v -3.123943 2.248472 -0.868734
v -3.123945 0.150421 -0.868735
v -5.075552 2.398896 0.000723
v -5.075554 0.000000 0.000722
v -4.186057 0.150423 -1.384673
v -4.355584 0.000000 -1.434741
v -4.355582 2.398896 -1.434740
v -4.186055 2.248473 -1.384671
v -3.016182 -0.000001 -0.762952
v -3.016180 2.398894 -0.762951
v -4.347776 2.398896 -1.430825
v -4.347778 0.000000 -1.430827
v -3.166602 -0.000001 -0.834361
v -4.026824 0.206227 -1.375316
v -4.026824 0.555640 -1.375316
v -4.042603 0.206227 -1.343855
v -4.045991 0.206227 -1.337101
v -4.039521 0.206227 -1.366369
v -4.071286 0.555640 -1.382300
v -4.039521 0.555640 -1.366369
v -4.071286 0.206227 -1.382301
v -4.042603 0.555640 -1.343855
v -4.045991 0.555640 -1.337100
v -4.065148 0.206227 -1.394538
v -4.065148 0.555640 -1.394538
v -4.093452 0.206227 -1.338106
v -4.093452 0.555640 -1.338106
v -4.033383 0.555640 -1.378605
v -4.033383 0.206227 -1.378606
v -4.052550 0.555640 -1.340390
v -4.052551 0.206227 -1.340391
v -4.093574 0.555640 -1.408794
v -4.093574 0.206227 -1.408794
v -4.121877 0.555640 -1.352363
v -4.121877 0.206227 -1.352363
v -1.409857 2.398896 0.786137
v -1.409857 -0.000000 0.786137
v -1.490185 2.248473 -0.818886
v -1.490186 0.150422 -0.818886
v -3.054770 2.398896 0.786137
v -3.054771 0.000000 0.786137
v -2.965058 0.150423 -0.818886
v -3.054771 0.000000 -0.788251
v -3.054770 2.398896 -0.788251
v -2.965057 2.248473 -0.818886
v -1.409857 -0.000000 -0.788251
v -1.409857 2.398896 -0.788251
v -3.046454 2.398896 -0.788251
v -3.046455 0.000000 -0.788251
v -1.786391 -0.000000 -0.784714
v -2.866172 0.206228 -0.880674
v -2.866172 0.555640 -0.880674
v -2.866172 0.206228 -0.846169
v -2.866172 0.206228 -0.838761
v -2.873160 0.206228 -0.867253
v -2.907000 0.555640 -0.867253
v -2.873160 0.555640 -0.867253
v -2.907000 0.206228 -0.867253
v -2.866172 0.555640 -0.846169
v -2.866172 0.555640 -0.838761
v -2.907000 0.206228 -0.880674
v -2.907000 0.555640 -0.880674
v -2.907000 0.206228 -0.818781
v -2.907000 0.555640 -0.818781
v -2.873160 0.555640 -0.880674
v -2.873160 0.206228 -0.880674
v -2.873160 0.555640 -0.838761
v -2.873160 0.206228 -0.838761
v -2.937282 0.555640 -0.880674
v -2.937282 0.206228 -0.880674
v -2.937282 0.555640 -0.818781
v -2.937282 0.206228 -0.818781
v -5.936335 2.398895 -7.040761
v -5.936335 -0.000000 -7.040762
v -4.331311 2.248473 -7.142639
v -4.331310 0.150422 -7.142640
v -5.936336 2.398896 -9.126940
v -5.936335 0.000000 -9.126941
v -4.331311 0.150423 -9.013162
v -4.361946 0.000000 -9.126941
v -4.361947 2.398896 -9.126940
v -4.331311 2.248473 -9.013161
v -4.361946 -0.000000 -7.040762
v -4.361946 2.398896 -7.040762
v -4.361947 2.398896 -9.116394
v -4.361946 0.000000 -9.116395
v -4.365483 -0.000000 -7.518305
v -4.269523 0.206227 -8.887750
v -4.269523 0.555640 -8.887749
v -4.304029 0.206227 -8.887750
v -4.311436 0.206227 -8.887750
v -4.282944 0.206227 -8.896612
v -4.282944 0.555640 -8.939529
v -4.282944 0.555640 -8.896611
v -4.282944 0.206227 -8.939529
v -4.304029 0.555640 -8.887749
v -4.311437 0.555640 -8.887749
v -4.269523 0.206227 -8.939529
v -4.269523 0.555640 -8.939529
v -4.331416 0.206227 -8.939529
v -4.331416 0.555640 -8.939529
v -4.269523 0.555640 -8.896611
v -4.269523 0.206227 -8.896612
v -4.311437 0.555640 -8.896611
v -4.311436 0.206227 -8.896612
v -4.269523 0.555640 -8.977935
v -4.269523 0.206227 -8.977935
v -4.331416 0.555640 -8.977935
v -4.331416 0.206227 -8.977935
v -5.939351 2.398896 -3.931284
v -5.939351 1.511766 -3.931284
v -4.334327 2.343268 -4.079847
v -4.334326 1.567393 -4.079847
v -5.939352 2.398896 -6.983341
v -5.939352 1.511766 -6.983341
v -4.334327 2.344136 -6.837839
v -4.334327 1.566526 -6.837840
v -4.334327 2.344136 -5.532635
v -4.334327 1.566526 -5.532635
v -4.334327 1.567393 -5.380796
v -4.364962 1.511766 -6.983341
v -4.364962 2.398896 -6.983341
v -4.334327 2.343268 -5.380796
v -4.364962 1.511766 -3.931285
v -4.364962 2.398896 -3.931285
v -4.364962 2.398896 -5.457313
v -4.364962 1.511766 -5.457313
v -4.368499 1.511766 -5.457313
v -4.368500 1.511766 -6.983341
v -4.368499 1.511766 -3.931285
v -4.272539 1.717246 -5.650246
v -4.272539 1.588030 -5.650246
v -4.307045 1.717246 -5.650246
v -4.314452 1.717246 -5.650246
v -4.285960 1.717246 -5.641652
v -4.285960 1.588030 -5.600036
v -4.285960 1.588030 -5.641652
v -4.285960 1.717246 -5.600036
v -4.307045 1.588030 -5.650246
v -4.314452 1.588030 -5.650246
v -4.272539 1.717246 -5.600036
v -4.272539 1.588030 -5.600036
v -4.334432 1.717246 -5.600036
v -4.334432 1.588030 -5.600036
v -4.272539 1.588030 -5.641652
v -4.272539 1.717246 -5.641652
v -4.314452 1.588030 -5.641652
v -4.314452 1.717246 -5.641652
v -4.272539 1.588030 -5.562795
v -4.272539 1.717246 -5.562795
v -4.334432 1.588030 -5.562795
v -4.334432 1.717246 -5.562795
v -4.272539 1.588030 -5.259188
v -4.272539 1.717246 -5.259188
v -4.307045 1.588030 -5.259188
v -4.314452 1.588030 -5.259188
v -4.285960 1.588030 -5.267782
v -4.285960 1.717246 -5.309397
v -4.285960 1.717246 -5.267782
v -4.285960 1.588030 -5.309397
v -4.307045 1.717246 -5.259188
v -4.314452 1.717246 -5.259188
v -4.272539 1.588030 -5.309397
v -4.272539 1.717246 -5.309397
v -4.334432 1.588030 -5.309397
v -4.334432 1.717246 -5.309397
v -4.272539 1.717246 -5.267782
v -4.272539 1.588030 -5.267782
v -4.314452 1.717246 -5.267782
v -4.314452 1.588030 -5.267782
v -4.272539 1.717246 -5.346638
v -4.272539 1.588030 -5.346638
v -4.334432 1.717246 -5.346638
v -4.334432 1.588030 -5.346638
vn 1.0000 -0.0000 -0.0000
vn -0.0000 -0.0000 -1.0000
vn -1.0000 -0.0000 -0.0000
vn -0.0000 -0.0000 1.0000
vn -0.0000 -0.2026 -0.9793
vn -0.1665 -0.0000 -0.9860
vn -0.0000 0.2026 -0.9793
vn 0.3100 -0.0000 -0.9507
vn 0.1631 -0.0000 -0.9866
vn -0.0000 0.1996 -0.9799
vn -0.0000 -0.1996 -0.9799
vn -0.3056 -0.0000 -0.9521
vn -0.0000 -1.0000 -0.0000
vn -0.0000 1.0000 -0.0000
vn 0.9793 -0.2026 -0.0000
vn 0.9681 -0.0000 -0.2507
vn 0.9793 0.2026 -0.0000
vn 0.8944 -0.0000 0.4473
vn 0.9693 -0.0000 0.2458
vn 0.9799 0.1996 -0.0000
vn 0.9799 -0.1996 -0.0000
vn 0.8971 -0.0000 -0.4417
vn 0.8939 -0.0000 0.4483
vn -0.8939 -0.0000 -0.4483
vn -0.4483 -0.0000 0.8939
vn 0.4369 -0.0000 -0.8995
vn 0.2838 -0.0000 -0.9589
vn 0.7005 -0.0000 -0.7136
vn 0.4293 0.2491 -0.8681
vn 0.4293 -0.2491 -0.8681
vn 0.4483 -0.0000 -0.8939
vn -0.3214 -0.0000 -0.9470
vn 0.3563 -0.0000 -0.9344
vn 0.9660 -0.0000 -0.2585
vn 0.9576 -0.0000 0.2880
vn 0.8727 -0.4882 -0.0000
vn 0.9785 -0.0000 -0.2060
vn 0.8727 0.4882 -0.0000
vn 0.9263 -0.0000 0.3768
vn 0.9794 -0.0000 0.2020
vn 0.8759 0.4824 -0.0000
vn 0.8759 -0.4824 -0.0000
vn 0.9284 -0.0000 -0.3717
vt 0.201928 0.591105
vt 0.002065 0.591105
vt 0.002065 0.455648
vt 0.201928 0.455648
vt 0.224824 0.697214
vt 0.398284 0.698035
vt 0.399713 0.911351
vt 0.223458 0.910811
vt 0.201928 0.997477
vt 0.002065 0.997477
vt 0.002065 0.862020
vt 0.201928 0.862020
vt 0.223659 0.457850
vt 0.399493 0.458394
vt 0.398137 0.671294
vt 0.225038 0.670476
vt 0.411549 0.684732
vt 0.413170 0.935803
vt 0.209965 0.935403
vt 0.211592 0.683958
vt 0.210023 0.432906
vt 0.413170 0.433314
vt 0.745933 0.027182
vt 0.746859 0.253994
vt 0.746138 0.253992
vt 0.745194 0.028328
vt 0.744021 0.482003
vt 0.743298 0.481028
vt 0.469972 0.999955
vt 0.339147 0.999955
vt 0.208322 0.999955
vt 0.208322 0.851719
vt 0.469972 0.851719
vt 0.233512 0.046371
vt 0.205676 0.054335
vt 0.103094 0.046613
vt 0.075510 0.037741
vt 0.027302 0.020961
vt 0.038689 0.054866
vt 0.053151 0.068817
vt 0.107417 0.057842
vt 0.203756 0.062627
vt 0.224937 0.075114
vt 0.085923 0.066296
vt 0.265844 0.082441
vt 0.236296 0.058208
vt 0.076552 0.047999
vt 0.269517 0.020961
vt 0.298190 0.057051
vt 0.116444 0.064807
vt 0.115536 0.051624
vt 0.119769 0.049866
vt 0.194669 0.055170
vt 0.194318 0.068781
vt 0.190750 0.053343
vt 0.095621 0.114255
vt 0.074890 0.112265
vt 0.261309 0.115777
vt 0.260083 0.103547
vt 0.257961 0.090685
vt 0.259683 0.101689
vt 0.259142 0.114463
vt 0.301702 0.119980
vt 0.086000 0.138789
vt 0.095820 0.139298
vt 0.271751 0.123082
vt 0.099434 0.128391
vt 0.097251 0.111584
vt 0.264981 0.094159
vt 0.098966 0.103786
vt 0.098045 0.115853
vt 0.269640 0.139298
vt 0.249258 0.097303
vt 0.247200 0.098495
vt 0.018947 0.118131
vt 0.083603 0.134155
vt 0.055310 0.094160
vt 0.146757 0.739649
vt 0.146757 0.973441
vt 0.029860 0.973441
vt 0.029860 0.856545
vt 0.146814 0.826893
vt 0.234440 0.739649
vt 0.234440 0.904687
vt 0.151921 0.821982
vt 0.081995 0.927608
vt 0.081995 0.844390
vt 0.123605 0.844390
vt 0.123605 0.885999
vt 0.081975 0.896554
vt 0.050784 0.927608
vt 0.050784 0.868863
vt 0.080157 0.898301
vt 0.106785 0.878882
vt 0.106785 0.955123
vt 0.040483 0.955123
vt 0.040483 0.954679
vt 0.040632 0.887352
vt 0.040483 0.878882
vt 0.091647 0.879402
vt 0.091647 0.948403
vt 0.039595 0.948403
vt 0.039595 0.948054
vt 0.039712 0.895197
vt 0.039595 0.879402
vt 0.145995 0.801339
vt 0.145995 0.899349
vt 0.072058 0.899349
vt 0.072058 0.898854
vt 0.072224 0.823775
vt 0.072058 0.801339
vt 0.118214 0.809884
vt 0.118214 0.959013
vt 0.043650 0.959013
vt 0.043650 0.884449
vt 0.118251 0.865535
vt 0.174145 0.809884
vt 0.174145 0.915157
vt 0.121508 0.862402
vt 0.107138 0.944957
vt 0.037991 0.957422
vt 0.037991 0.768070
vt 0.044269 0.891323
vt 0.083053 0.945870
vt 0.042047 0.956738
vt 0.059636 0.919720
vt 0.042047 0.781156
vt 0.149580 0.937650
vt 0.084034 0.955023
vt 0.112148 0.895851
vt 0.084034 0.674356
vt 0.110045 0.933852
vt 0.031984 0.947923
vt 0.031984 0.734163
vt 0.039071 0.873305
s 0
f 1/1/1 2/2/1 15/3/1 16/4/1
f 9/5/2 10/6/2 8/7/2 7/8/2
f 13/9/3 12/10/3 6/11/3 5/12/3
f 5/12/4 6/11/4 2/2/4 1/1/4
f 3/13/2 4/14/2 11/15/2 14/16/2
f 8/7/5 10/6/5 18/17/5 12/18/5
f 7/8/6 8/7/6 12/18/6 13/19/6
f 9/5/7 7/8/7 13/19/7 17/20/7
f 10/6/8 9/5/8 17/20/8 18/17/8
f 4/14/9 3/13/9 16/21/9 15/22/9
f 3/13/10 14/16/10 17/20/10 16/21/10
f 11/15/11 4/14/11 15/22/11 18/17/11
f 14/16/12 11/15/12 18/17/12 17/20/12
f 12/23/13 18/24/13 19/25/13 20/26/13
f 18/24/13 15/27/13 21/28/13 19/25/13
f 16/29/14 17/30/14 13/31/14 5/32/14 1/33/14
f 28/34/4 27/35/4 29/36/4 26/37/4
f 26/37/13 39/38/13 25/39/13 24/40/13
f 32/41/2 33/42/2 36/43/2 37/44/2
f 30/45/14 28/34/14 36/43/14 23/46/14
f 26/37/13 24/40/13 22/47/13 37/44/13
f 39/38/2 38/48/2 31/49/2 25/39/2
f 41/50/14 32/41/14 34/51/14 43/52/14
f 35/53/3 34/51/3 29/36/3 27/35/3
f 41/50/2 40/54/2 33/42/2 32/41/2
f 33/42/13 40/54/13 42/55/13 35/53/13
f 29/36/14 32/41/14 37/44/14 26/37/14
f 34/51/4 35/53/4 42/55/4 43/52/4
f 38/48/14 28/34/14 30/45/14 31/49/14
f 28/34/13 36/43/13 33/42/13 27/35/13
f 43/52/1 42/55/1 40/54/1 41/50/1
f 37/44/2 36/43/2 23/46/2 22/47/2
f 28/34/3 38/48/3 39/38/3 26/37/3
f 31/49/1 30/45/1 24/40/1 25/39/1
f 23/46/3 30/45/3 24/40/3 22/47/3
f 50/56/4 49/57/4 51/58/4 48/59/4
f 48/59/14 61/60/14 47/61/14 46/62/14
f 54/63/2 55/64/2 58/65/2 59/66/2
f 52/67/13 50/56/13 58/65/13 45/68/13
f 48/59/14 46/62/14 44/69/14 59/66/14
f 61/60/2 60/70/2 53/71/2 47/61/2
f 63/72/13 54/63/13 56/73/13 65/74/13
f 57/75/1 56/73/1 51/58/1 49/57/1
f 63/72/2 62/76/2 55/64/2 54/63/2
f 55/64/14 62/76/14 64/77/14 57/75/14
f 51/58/13 54/63/13 59/66/13 48/59/13
f 56/73/4 57/75/4 64/77/4 65/74/4
f 60/70/13 50/56/13 52/67/13 53/71/13
f 50/56/14 58/65/14 55/64/14 49/57/14
f 65/74/3 64/77/3 62/76/3 63/72/3
f 59/66/2 58/65/2 45/68/2 44/69/2
f 50/56/1 60/70/1 61/60/1 48/59/1
f 53/71/3 52/67/3 46/62/3 47/61/3
f 45/68/1 52/67/1 46/62/1 44/69/1
f 2/78/13 6/79/13 12/80/13 18/81/13
f 15/82/13 2/83/13 19/84/13 21/85/13
f 66/1/4 67/2/4 80/3/4 81/4/4
f 74/5/1 75/6/1 73/7/1 72/8/1
f 78/9/2 77/10/2 71/11/2 70/12/2
f 70/12/3 71/11/3 67/2/3 66/1/3
f 68/13/1 69/14/1 76/15/1 79/16/1
f 73/7/15 75/6/15 83/17/15 77/18/15
f 72/8/16 73/7/16 77/18/16 78/19/16
f 74/5/17 72/8/17 78/19/17 82/20/17
f 75/6/18 74/5/18 82/20/18 83/17/18
f 69/14/19 68/13/19 81/21/19 80/22/19
f 68/13/20 79/16/20 82/20/20 81/21/20
f 76/15/21 69/14/21 80/22/21 83/17/21
f 79/16/22 76/15/22 83/17/22 82/20/22
f 77/23/13 83/24/13 84/25/13 85/26/13
f 83/24/13 80/27/13 86/28/13 84/25/13
f 81/29/14 82/30/14 78/31/14 70/32/14 66/33/14
f 93/34/3 92/35/3 94/36/3 91/37/3
f 91/37/13 104/38/13 90/39/13 89/40/13
f 97/41/1 98/42/1 101/43/1 102/44/1
f 95/45/14 93/34/14 101/43/14 88/46/14
f 91/37/13 89/40/13 87/47/13 102/44/13
f 104/38/1 103/48/1 96/49/1 90/39/1
f 106/50/14 97/41/14 99/51/14 108/52/14
f 100/53/2 99/51/2 94/36/2 92/35/2
f 106/50/1 105/54/1 98/42/1 97/41/1
f 98/42/13 105/54/13 107/55/13 100/53/13
f 94/36/14 97/41/14 102/44/14 91/37/14
f 99/51/3 100/53/3 107/55/3 108/52/3
f 103/48/14 93/34/14 95/45/14 96/49/14
f 93/34/13 101/43/13 98/42/13 92/35/13
f 108/52/4 107/55/4 105/54/4 106/50/4
f 102/44/1 101/43/1 88/46/1 87/47/1
f 93/34/2 103/48/2 104/38/2 91/37/2
f 96/49/4 95/45/4 89/40/4 90/39/4
f 88/46/2 95/45/2 89/40/2 87/47/2
f 115/56/3 114/57/3 116/58/3 113/59/3
f 113/59/14 126/60/14 112/61/14 111/62/14
f 119/63/1 120/64/1 123/65/1 124/66/1
f 117/67/13 115/56/13 123/65/13 110/68/13
f 113/59/14 111/62/14 109/69/14 124/66/14
f 126/60/1 125/70/1 118/71/1 112/61/1
f 128/72/13 119/63/13 121/73/13 130/74/13
f 122/75/4 121/73/4 116/58/4 114/57/4
f 128/72/1 127/76/1 120/64/1 119/63/1
f 120/64/14 127/76/14 129/77/14 122/75/14
f 116/58/13 119/63/13 124/66/13 113/59/13
f 121/73/3 122/75/3 129/77/3 130/74/3
f 125/70/13 115/56/13 117/67/13 118/71/13
f 115/56/14 123/65/14 120/64/14 114/57/14
f 130/74/2 129/77/2 127/76/2 128/72/2
f 124/66/1 123/65/1 110/68/1 109/69/1
f 115/56/4 125/70/4 126/60/4 113/59/4
f 118/71/2 117/67/2 111/62/2 112/61/2
f 110/68/4 117/67/4 111/62/4 109/69/4
f 67/86/13 71/87/13 77/88/13 83/89/13
f 80/90/13 67/91/13 84/92/13 86/93/13
f 131/1/23 132/2/23 141/3/23 142/4/23
f 139/9/24 138/10/24 136/11/24 135/12/24
f 135/12/25 136/11/25 132/2/25 131/1/25
f 133/13/26 134/14/26 137/15/26 140/16/26
f 138/10/27 139/9/27 143/20/27 140/16/27 137/15/27 144/17/27
f 134/14/28 133/13/28 142/21/28 141/22/28
f 133/13/29 140/16/29 143/20/29 142/21/29
f 137/15/30 134/14/30 141/22/30 144/17/30
f 144/24/13 141/27/13 145/28/13
f 142/29/14 143/30/14 139/31/14 135/32/14 131/33/14
f 152/56/25 151/57/25 153/58/25 150/59/25
f 150/59/14 163/60/14 149/61/14 148/62/14
f 156/63/31 157/64/31 160/65/31 161/66/31
f 154/67/13 152/56/13 160/65/13 147/68/13
f 150/59/14 148/62/14 146/69/14 161/66/14
f 163/60/31 162/70/31 155/71/31 149/61/31
f 165/72/13 156/63/13 158/73/13 167/74/13
f 159/75/23 158/73/23 153/58/23 151/57/23
f 165/72/31 164/76/31 157/64/31 156/63/31
f 157/64/14 164/76/14 166/77/14 159/75/14
f 153/58/13 156/63/13 161/66/13 150/59/13
f 158/73/25 159/75/25 166/77/25 167/74/25
f 162/70/13 152/56/13 154/67/13 155/71/13
f 152/56/14 160/65/14 157/64/14 151/57/14
f 167/74/24 166/77/24 164/76/24 165/72/24
f 161/66/31 160/65/31 147/68/31 146/69/31
f 152/56/23 162/70/23 163/60/23 150/59/23
f 155/71/24 154/67/24 148/62/24 149/61/24
f 147/68/23 154/67/23 148/62/23 146/69/23
f 132/94/13 136/95/13 138/96/13 144/97/13
f 132/94/13 144/97/13 145/98/13 141/99/13
f 168/1/1 169/2/1 178/3/1 179/4/1
f 176/9/3 175/10/3 173/11/3 172/12/3
f 172/12/4 173/11/4 169/2/4 168/1/4
f 170/13/2 171/14/2 174/15/2 177/16/2
f 175/10/32 176/9/32 180/20/32 177/16/32 174/15/32 181/17/32
f 171/14/33 170/13/33 179/21/33 178/22/33
f 170/13/10 177/16/10 180/20/10 179/21/10
f 174/15/11 171/14/11 178/22/11 181/17/11
f 181/24/13 178/27/13 182/28/13
f 179/29/14 180/30/14 176/31/14 172/32/14 168/33/14
f 189/56/4 188/57/4 190/58/4 187/59/4
f 187/59/14 200/60/14 186/61/14 185/62/14
f 193/63/2 194/64/2 197/65/2 198/66/2
f 191/67/13 189/56/13 197/65/13 184/68/13
f 187/59/14 185/62/14 183/69/14 198/66/14
f 200/60/2 199/70/2 192/71/2 186/61/2
f 202/72/13 193/63/13 195/73/13 204/74/13
f 196/75/1 195/73/1 190/58/1 188/57/1
f 202/72/2 201/76/2 194/64/2 193/63/2
f 194/64/14 201/76/14 203/77/14 196/75/14
f 190/58/13 193/63/13 198/66/13 187/59/13
f 195/73/4 196/75/4 203/77/4 204/74/4
f 199/70/13 189/56/13 191/67/13 192/71/13
f 189/56/14 197/65/14 194/64/14 188/57/14
f 204/74/3 203/77/3 201/76/3 202/72/3
f 198/66/2 197/65/2 184/68/2 183/69/2
f 189/56/1 199/70/1 200/60/1 187/59/1
f 192/71/3 191/67/3 185/62/3 186/61/3
f 184/68/1 191/67/1 185/62/1 183/69/1
f 169/100/13 173/101/13 175/102/13 181/103/13
f 169/100/13 181/103/13 182/104/13 178/105/13
f 205/1/4 206/2/4 215/3/4 216/4/4
f 213/9/2 212/10/2 210/11/2 209/12/2
f 209/12/3 210/11/3 206/2/3 205/1/3
f 207/13/1 208/14/1 211/15/1 214/16/1
f 212/10/34 213/9/34 217/20/34 214/16/34 211/15/34 218/17/34
f 208/14/35 207/13/35 216/21/35 215/22/35
f 207/13/20 214/16/20 217/20/20 216/21/20
f 211/15/21 208/14/21 215/22/21 218/17/21
f 218/24/13 215/27/13 219/28/13
f 216/29/14 217/30/14 213/31/14 209/32/14 205/33/14
f 226/56/3 225/57/3 227/58/3 224/59/3
f 224/59/14 237/60/14 223/61/14 222/62/14
f 230/63/1 231/64/1 234/65/1 235/66/1
f 228/67/13 226/56/13 234/65/13 221/68/13
f 224/59/14 222/62/14 220/69/14 235/66/14
f 237/60/1 236/70/1 229/71/1 223/61/1
f 239/72/13 230/63/13 232/73/13 241/74/13
f 233/75/4 232/73/4 227/58/4 225/57/4
f 239/72/1 238/76/1 231/64/1 230/63/1
f 231/64/14 238/76/14 240/77/14 233/75/14
f 227/58/13 230/63/13 235/66/13 224/59/13
f 232/73/3 233/75/3 240/77/3 241/74/3
f 236/70/13 226/56/13 228/67/13 229/71/13
f 226/56/14 234/65/14 231/64/14 225/57/14
f 241/74/2 240/77/2 238/76/2 239/72/2
f 235/66/1 234/65/1 221/68/1 220/69/1
f 226/56/4 236/70/4 237/60/4 224/59/4
f 229/71/2 228/67/2 222/62/2 223/61/2
f 221/68/4 228/67/4 222/62/4 220/69/4
f 206/106/13 210/107/13 212/108/13 218/109/13
f 206/106/13 218/109/13 219/110/13 215/111/13
f 242/1/4 243/2/4 256/3/4 257/4/4
f 250/5/1 251/6/1 249/7/1 248/8/1
f 254/9/2 253/10/2 247/11/2 246/12/2
f 246/12/3 247/11/3 243/2/3 242/1/3
f 244/13/1 245/14/1 252/15/1 255/16/1
f 249/7/36 251/6/36 259/17/36 253/18/36
f 248/8/37 249/7/37 253/18/37 254/19/37
f 250/5/38 248/8/38 254/19/38 258/20/38
f 251/6/39 250/5/39 258/20/39 259/17/39
f 245/14/40 244/13/40 257/21/40 256/22/40
f 244/13/41 255/16/41 258/20/41 257/21/41
f 252/15/42 245/14/42 256/22/42 259/17/42
f 255/16/43 252/15/43 259/17/43 258/20/43
f 253/23/13 259/24/13 260/25/13 261/26/13
f 259/24/13 256/27/13 262/28/13 260/25/13
f 257/29/14 258/30/14 254/31/14 246/32/14 242/33/14
f 269/34/3 268/35/3 270/36/3 267/37/3
f 267/37/13 280/38/13 266/39/13 265/40/13
f 273/41/1 274/42/1 277/43/1 278/44/1
f 271/45/14 269/34/14 277/43/14 264/46/14
f 267/37/13 265/40/13 263/47/13 278/44/13
f 280/38/1 279/48/1 272/49/1 266/39/1
f 282/50/14 273/41/14 275/51/14 284/52/14
f 276/53/2 275/51/2 270/36/2 268/35/2
f 282/50/1 281/54/1 274/42/1 273/41/1
f 274/42/13 281/54/13 283/55/13 276/53/13
f 270/36/14 273/41/14 278/44/14 267/37/14
f 275/51/3 276/53/3 283/55/3 284/52/3
f 279/48/14 269/34/14 271/45/14 272/49/14
f 269/34/13 277/43/13 274/42/13 268/35/13
f 284/52/4 283/55/4 281/54/4 282/50/4
f 278/44/1 277/43/1 264/46/1 263/47/1
f 269/34/2 279/48/2 280/38/2 267/37/2
f 272/49/4 271/45/4 265/40/4 266/39/4
f 264/46/2 271/45/2 265/40/2 263/47/2
f 291/56/3 290/57/3 292/58/3 289/59/3
f 289/59/14 302/60/14 288/61/14 287/62/14
f 295/63/1 296/64/1 299/65/1 300/66/1
f 293/67/13 291/56/13 299/65/13 286/68/13
f 289/59/14 287/62/14 285/69/14 300/66/14
f 302/60/1 301/70/1 294/71/1 288/61/1
f 304/72/13 295/63/13 297/73/13 306/74/13
f 298/75/4 297/73/4 292/58/4 290/57/4
f 304/72/1 303/76/1 296/64/1 295/63/1
f 296/64/14 303/76/14 305/77/14 298/75/14
f 292/58/13 295/63/13 300/66/13 289/59/13
f 297/73/3 298/75/3 305/77/3 306/74/3
f 301/70/13 291/56/13 293/67/13 294/71/13
f 291/56/14 299/65/14 296/64/14 290/57/14
f 306/74/2 305/77/2 303/76/2 304/72/2
f 300/66/1 299/65/1 286/68/1 285/69/1
f 291/56/4 301/70/4 302/60/4 289/59/4
f 294/71/2 293/67/2 287/62/2 288/61/2
f 286/68/4 293/67/4 287/62/4 285/69/4
f 243/112/13 247/113/13 253/114/13 259/115/13
f 256/116/13 243/117/13 260/118/13 262/119/13
f 131/120/14 172/121/14 142/122/14 176/123/14
f 66/124/14 135/125/14 81/126/14 139/127/14
f 67/128/14 136/129/14 80/130/14 138/131/14
f 132/132/14 173/133/14 141/134/14 175/135/14
