# Blender 5.0.0
# www.blender.org
o Cube.001
v -0.451669 0.000000 0.459234
v -0.289305 3.928270 0.287884
v -0.452852 0.000000 0.056215
v -0.289669 3.928270 0.202011
v -0.069742 0.000000 0.419848
v -0.209911 3.928270 0.275782
v 0.010187 0.000000 -0.003242
v -0.185525 3.928270 0.183875
v -0.985793 0.000000 0.246680
v -0.403165 3.928270 0.242573
v 0.487803 0.000000 0.246680
v -0.084390 3.928270 0.236796
v -0.357813 0.368214 0.359495
v -0.358459 0.368214 0.139200
v -0.105356 0.368214 0.106700
v -0.149047 0.368214 0.337967
v 0.155715 0.368214 0.243311
v -0.649772 0.368214 0.243311
v -0.248995 0.000000 -0.490118
v -0.242773 3.928270 0.076333
v -0.248995 0.000000 0.983478
v -0.247857 3.928270 0.395096
v -0.250261 3.928270 0.248850
v -0.248995 0.000000 0.246680
v -0.247029 0.368214 0.646054
v -0.247029 0.368214 -0.159432
v -0.460155 3.988643 0.241562
v -0.305258 3.988643 0.186204
v -0.246008 3.988643 0.027414
v -0.170678 3.988643 0.168923
v -0.031860 3.988643 0.241562
v -0.193909 3.988643 0.291892
v -0.246008 3.988643 0.455709
v -0.304914 3.988643 0.303340
v -0.240773 8.179729 0.217603
v -0.218479 3.951181 0.163781
v -0.248473 8.179729 0.216072
v -0.248473 3.951181 0.157815
v -0.193052 3.951181 0.180771
v -0.234246 8.179729 0.221965
v -0.176063 3.951181 0.206198
v -0.229885 8.179729 0.228492
v -0.170097 3.951181 0.236192
v -0.228353 8.179729 0.236191
v -0.176063 3.951181 0.266185
v -0.229885 8.179729 0.243891
v -0.193052 3.951181 0.291612
v -0.234246 8.179729 0.250418
v -0.218479 3.951181 0.308602
v -0.240773 8.179729 0.254779
v -0.248473 3.951181 0.314568
v -0.248473 8.179729 0.256311
v -0.278466 3.951181 0.308602
v -0.256172 8.179729 0.254779
v -0.303893 3.951181 0.291612
v -0.262699 8.179729 0.250418
v -0.320883 3.951181 0.266185
v -0.267061 8.179729 0.243891
v -0.326849 3.951181 0.236192
v -0.268592 8.179729 0.236191
v -0.320883 3.951181 0.206198
v -0.267061 8.179729 0.228492
v -0.303893 3.951181 0.180771
v -0.262699 8.179729 0.221965
v -0.278466 3.951181 0.163781
v -0.256172 8.179729 0.217603
v -0.248473 4.866803 0.157046
v -0.218185 4.866803 0.163070
v -0.192508 4.866803 0.180227
v -0.175351 4.866803 0.205904
v -0.169327 4.866803 0.236192
v -0.175351 4.866803 0.266480
v -0.192508 4.866803 0.292156
v -0.218185 4.866803 0.309313
v -0.248473 4.866803 0.315338
v -0.278761 4.866803 0.309313
v -0.304437 4.866803 0.292156
v -0.321594 4.866803 0.266480
v -0.327619 4.866803 0.236192
v -0.321594 4.866803 0.205904
v -0.304437 4.866803 0.180227
v -0.278761 4.866803 0.163070
v -0.248473 6.586905 0.193110
v -0.231986 6.586905 0.196389
v -0.218009 6.586905 0.205728
v -0.208670 6.586905 0.219705
v -0.205391 6.586905 0.236191
v -0.208670 6.586905 0.252678
v -0.218009 6.586905 0.266655
v -0.231986 6.586905 0.275994
v -0.248473 6.586905 0.279273
v -0.264959 6.586905 0.275994
v -0.278936 6.586905 0.266655
v -0.288275 6.586905 0.252678
v -0.291555 6.586905 0.236191
v -0.288275 6.586905 0.219705
v -0.278936 6.586905 0.205728
v -0.264959 6.586905 0.196389
vn -0.3365 0.0172 -0.9415
vn 0.8825 0.0240 -0.4698
vn 0.2966 0.0158 0.9549
vn -0.9326 0.0192 0.3605
vn -0.0000 -1.0000 -0.0000
vn -0.0000 1.0000 -0.0000
vn 0.4635 0.0236 -0.8858
vn -0.3697 0.0198 0.9290
vn -0.3494 0.3269 0.8781
vn 0.4290 0.3794 -0.8198
vn -0.8843 0.3180 0.3419
vn 0.2859 0.2663 0.9205
vn 0.8146 0.3851 -0.4337
vn -0.3225 0.2860 -0.9023
vn -0.8926 0.3039 -0.3331
vn 0.9194 0.2630 0.2924
vn 0.9528 0.0157 0.3030
vn -0.9367 0.0183 -0.3495
vn 0.3193 0.3163 0.8933
vn -0.8374 0.3163 0.4458
vn -0.2814 0.3163 -0.9060
vn 0.8848 0.3163 -0.3421
vn 0.3508 0.3163 -0.8814
vn -0.4398 0.3163 0.8405
vn 0.8888 0.3163 0.3316
vn -0.9040 0.3163 -0.2875
vn 0.5556 -0.0008 -0.8315
vn 0.8315 -0.0008 -0.5556
vn 0.9808 -0.0008 -0.1951
vn 0.9808 -0.0008 0.1951
vn 0.8315 -0.0008 0.5556
vn 0.5556 -0.0008 0.8315
vn 0.1951 -0.0008 0.9808
vn -0.1951 -0.0008 0.9808
vn -0.5556 -0.0008 0.8315
vn -0.8315 -0.0008 0.5556
vn -0.9808 -0.0008 0.1951
vn -0.9808 -0.0008 -0.1951
vn -0.8315 -0.0008 -0.5556
vn -0.5556 -0.0008 -0.8315
vn -0.1951 -0.0008 -0.9808
vn 0.1951 0.0141 -0.9807
vn 0.1951 -0.0008 -0.9808
vn -0.1950 0.0206 -0.9806
vn -0.5555 0.0206 -0.8313
vn -0.8313 0.0206 -0.5555
vn -0.9806 0.0206 -0.1950
vn -0.9806 0.0206 0.1950
vn -0.8313 0.0206 0.5555
vn -0.5555 0.0206 0.8313
vn -0.1950 0.0206 0.9806
vn 0.1950 0.0206 0.9806
vn 0.5555 0.0206 0.8313
vn 0.8313 0.0206 0.5555
vn 0.9806 0.0206 0.1950
vn 0.9806 0.0206 -0.1950
vn 0.8313 0.0206 -0.5555
vn 0.5555 0.0206 -0.8313
vn 0.5555 0.0141 -0.8314
vn 0.8314 0.0141 -0.5555
vn 0.9807 0.0141 -0.1951
vn 0.9807 0.0141 0.1951
vn 0.8314 0.0141 0.5555
vn 0.5555 0.0141 0.8314
vn 0.1951 0.0141 0.9807
vn -0.1951 0.0141 0.9807
vn -0.5555 0.0141 0.8314
vn -0.8314 0.0141 0.5555
vn -0.9807 0.0141 0.1951
vn -0.9807 0.0141 -0.1951
vn -0.8314 0.0141 -0.5555
vn -0.5555 0.0141 -0.8314
vn -0.1951 0.0141 -0.9807
vn 0.1950 0.0206 -0.9806
vt 0.470992 0.884061
vt 0.482416 0.884061
vt 0.482416 0.895485
vt 0.470992 0.895485
vt 0.470992 0.906909
vt 0.482416 0.906909
vt 0.482416 0.918333
vt 0.470992 0.918333
vt 0.470992 0.929757
vt 0.482416 0.929757
vt 0.482416 0.941181
vt 0.470992 0.941181
vt 0.470992 0.952605
vt 0.482416 0.952605
vt 0.482416 0.964029
vt 0.470992 0.964029
vt 0.448144 0.929757
vt 0.459568 0.929757
vt 0.459568 0.941181
vt 0.448144 0.941181
vt 0.493840 0.929757
vt 0.502034 0.929578
vt 0.499108 0.935058
vt 0.493953 0.937747
vt 0.493071 0.921387
vt 0.499147 0.924326
vt 0.448144 0.918333
vt 0.459568 0.918333
vt 0.470992 0.872638
vt 0.482416 0.872638
vt 0.459568 0.872638
vt 0.459568 0.884061
vt 0.459568 0.952605
vt 0.459568 0.964029
vt 0.459568 0.906909
vt 0.459568 0.895485
vt 0.436721 0.918333
vt 0.436721 0.929757
vt 0.486806 0.922755
vt 0.484632 0.928876
vt 0.489185 0.934019
vt 0.436721 0.941181
vt 0.505264 0.918333
vt 0.505264 0.929757
vt 0.493840 0.918333
vt 0.505264 0.941181
vt 0.493840 0.941181
vt 0.668127 0.891962
vt 0.663138 0.891962
vt 0.663138 0.883561
vt 0.668127 0.883561
vt 0.658149 0.891962
vt 0.658149 0.883561
vt 0.653160 0.891962
vt 0.653160 0.883561
vt 0.648171 0.891962
vt 0.648171 0.883561
vt 0.643181 0.891962
vt 0.643181 0.883561
vt 0.638192 0.891962
vt 0.638192 0.883561
vt 0.633203 0.891962
vt 0.633203 0.883561
vt 0.628214 0.891962
vt 0.628214 0.883561
vt 0.623225 0.891962
vt 0.623225 0.883561
vt 0.618235 0.891962
vt 0.618235 0.883561
vt 0.613246 0.891962
vt 0.613246 0.883561
vt 0.608257 0.891962
vt 0.608257 0.883561
vt 0.603268 0.891962
vt 0.603268 0.883561
vt 0.598279 0.891962
vt 0.598279 0.883561
vt 0.593289 0.891962
vt 0.593289 0.883561
vt 0.660491 0.881305
vt 0.666707 0.877152
vt 0.670860 0.870936
vt 0.672318 0.863605
vt 0.670860 0.856273
vt 0.666707 0.850058
vt 0.660491 0.845905
vt 0.653160 0.844446
vt 0.645828 0.845905
vt 0.639613 0.850058
vt 0.635460 0.856273
vt 0.634001 0.863605
vt 0.635460 0.870936
vt 0.639613 0.877152
vt 0.645828 0.881305
vt 0.653160 0.882763
vt 0.620578 0.881305
vt 0.613246 0.882763
vt 0.605915 0.881305
vt 0.599699 0.877152
vt 0.595546 0.870936
vt 0.594088 0.863605
vt 0.595546 0.856273
vt 0.599699 0.850058
vt 0.605915 0.845905
vt 0.613246 0.844446
vt 0.620578 0.845905
vt 0.626793 0.850058
vt 0.630946 0.856273
vt 0.632405 0.863605
vt 0.630946 0.870936
vt 0.626793 0.877152
vt 0.670622 0.907743
vt 0.670622 0.923475
vt 0.670622 0.883561
vt 0.670622 0.891962
vt 0.598279 0.907743
vt 0.593289 0.907743
vt 0.603268 0.907743
vt 0.608257 0.907743
vt 0.613246 0.907743
vt 0.618235 0.907743
vt 0.623225 0.907743
vt 0.628214 0.907743
vt 0.633203 0.907743
vt 0.638192 0.907743
vt 0.643181 0.907743
vt 0.648171 0.907743
vt 0.653160 0.907743
vt 0.658149 0.907743
vt 0.663138 0.907743
vt 0.668127 0.907743
vt 0.668127 0.923475
vt 0.663138 0.923475
vt 0.658149 0.923475
vt 0.653160 0.923475
vt 0.648171 0.923475
vt 0.643181 0.923475
vt 0.638192 0.923475
vt 0.633203 0.923475
vt 0.628214 0.923475
vt 0.623225 0.923475
vt 0.618235 0.923475
vt 0.613246 0.923475
vt 0.608257 0.923475
vt 0.603268 0.923475
vt 0.598279 0.923475
vt 0.593289 0.923475
s 0
f 18/1/1 27/2/1 28/3/1 14/4/1
f 26/5/2 29/6/2 30/7/2 15/8/2
f 17/9/3 31/10/3 32/11/3 16/12/3
f 25/13/4 33/14/4 34/15/4 13/16/4
f 24/17/5 11/18/5 5/19/5 21/20/5
f 23/21/6 10/22/6 2/23/6 22/24/6
f 20/25/6 4/26/6 10/22/6 23/21/6
f 19/27/5 7/28/5 11/18/5 24/17/5
f 15/8/7 30/7/7 31/10/7 17/9/7
f 13/29/8 34/30/8 27/2/8 18/1/8
f 1/31/9 13/29/9 18/1/9 9/32/9
f 7/28/10 15/8/10 17/9/10 11/18/10
f 21/33/11 25/13/11 13/16/11 1/34/11
f 11/18/12 17/9/12 16/12/12 5/19/12
f 19/35/13 26/5/13 15/8/13 7/28/13
f 9/32/14 18/1/14 14/4/14 3/36/14
f 3/36/15 14/4/15 26/5/15 19/35/15
f 5/19/16 16/12/16 25/13/16 21/33/16
f 3/37/5 19/27/5 24/17/5 9/38/5
f 8/39/6 20/25/6 23/21/6 12/40/6
f 12/40/6 23/21/6 22/24/6 6/41/6
f 9/38/5 24/17/5 21/20/5 1/42/5
f 16/12/17 32/11/17 33/14/17 25/13/17
f 14/4/18 28/3/18 29/6/18 26/5/18
f 10/22/19 4/26/19 28/43/19 27/44/19
f 20/25/20 8/39/20 30/7/20 29/45/20
f 12/40/21 6/41/21 32/11/21 31/10/21
f 22/24/22 2/23/22 34/46/22 33/47/22
f 2/23/23 10/22/23 27/44/23 34/46/23
f 8/39/24 12/40/24 31/10/24 30/7/24
f 4/26/25 20/25/25 29/45/25 28/43/25
f 6/41/26 22/24/26 33/47/26 32/11/26
f 68/48/27 69/49/27 39/50/27 36/51/27
f 69/49/28 70/52/28 41/53/28 39/50/28
f 70/52/29 71/54/29 43/55/29 41/53/29
f 71/54/30 72/56/30 45/57/30 43/55/30
f 72/56/31 73/58/31 47/59/31 45/57/31
f 73/58/32 74/60/32 49/61/32 47/59/32
f 74/60/33 75/62/33 51/63/33 49/61/33
f 75/62/34 76/64/34 53/65/34 51/63/34
f 76/64/35 77/66/35 55/67/35 53/65/35
f 77/66/36 78/68/36 57/69/36 55/67/36
f 78/68/37 79/70/37 59/71/37 57/69/37
f 79/70/38 80/72/38 61/73/38 59/71/38
f 80/72/39 81/74/39 63/75/39 61/73/39
f 81/74/40 82/76/40 65/77/40 63/75/40
f 82/76/41 67/78/41 38/79/41 65/77/41
f 36/80/5 39/81/5 41/82/5 43/83/5 45/84/5 47/85/5 49/86/5 51/87/5 53/88/5 55/89/5 57/90/5 59/91/5 61/92/5 63/93/5 65/94/5 38/95/5
f 35/96/6 37/97/6 66/98/6 64/99/6 62/100/6 60/101/6 58/102/6 56/103/6 54/104/6 52/105/6 50/106/6 48/107/6 46/108/6 44/109/6 42/110/6 40/111/6
f 83/112/42 37/113/42 35/113/42 84/112/42
f 38/114/43 67/115/43 68/115/43 36/114/43
f 98/116/44 83/117/44 67/78/44 82/76/44
f 97/118/45 98/116/45 82/76/45 81/74/45
f 96/119/46 97/118/46 81/74/46 80/72/46
f 95/120/47 96/119/47 80/72/47 79/70/47
f 94/121/48 95/120/48 79/70/48 78/68/48
f 93/122/49 94/121/49 78/68/49 77/66/49
f 92/123/50 93/122/50 77/66/50 76/64/50
f 91/124/51 92/123/51 76/64/51 75/62/51
f 90/125/52 91/124/52 75/62/52 74/60/52
f 89/126/53 90/125/53 74/60/53 73/58/53
f 88/127/54 89/126/54 73/58/54 72/56/54
f 87/128/55 88/127/55 72/56/55 71/54/55
f 86/129/56 87/128/56 71/54/56 70/52/56
f 85/130/57 86/129/57 70/52/57 69/49/57
f 84/131/58 85/130/58 69/49/58 68/48/58
f 35/132/59 40/133/59 85/130/59 84/131/59
f 40/133/60 42/134/60 86/129/60 85/130/60
f 42/134/61 44/135/61 87/128/61 86/129/61
f 44/135/62 46/136/62 88/127/62 87/128/62
f 46/136/63 48/137/63 89/126/63 88/127/63
f 48/137/64 50/138/64 90/125/64 89/126/64
f 50/138/65 52/139/65 91/124/65 90/125/65
f 52/139/66 54/140/66 92/123/66 91/124/66
f 54/140/67 56/141/67 93/122/67 92/123/67
f 56/141/68 58/142/68 94/121/68 93/122/68
f 58/142/69 60/143/69 95/120/69 94/121/69
f 60/143/70 62/144/70 96/119/70 95/120/70
f 62/144/71 64/145/71 97/118/71 96/119/71
f 64/145/72 66/146/72 98/116/72 97/118/72
f 66/146/73 37/147/73 83/117/73 98/116/73
f 67/115/74 83/112/74 84/112/74 68/115/74
