# Blender 4.5.4 LTS
# www.blender.org
o Coffee_Table
v -1.211886 0.898641 -1.393868
v -1.211886 0.971765 -1.393868
v -0.819387 0.898641 -1.334123
v -0.819387 0.971765 -1.334123
v -0.441971 0.898641 -1.157182
v -0.441971 0.971765 -1.157182
v -0.094143 0.898641 -0.869847
v -0.094143 0.971765 -0.869847
v 0.210731 0.898641 -0.483158
v 0.210731 0.971765 -0.483158
v 0.460935 0.898641 -0.011977
v 0.460935 0.971765 -0.011977
v 0.646853 0.898641 0.525590
v 0.646853 0.971765 0.525590
v 0.761340 0.898641 1.108884
v 0.761340 0.971765 1.108884
v 0.799998 0.898641 1.715490
v 0.799998 0.971765 1.715490
v 0.761340 0.898641 2.322096
v 0.761340 0.971765 2.322096
v 0.646853 0.898641 2.905390
v 0.646853 0.971765 2.905390
v 0.460935 0.898641 3.442957
v 0.460935 0.971765 3.442957
v 0.210731 0.898641 3.914139
v 0.210731 0.971765 3.914139
v -0.094143 0.898641 4.300828
v -0.094143 0.971765 4.300828
v -0.441971 0.898641 4.588163
v -0.441971 0.971765 4.588163
v -0.819387 0.898641 4.765103
v -0.819387 0.971765 4.765103
v -1.211886 0.898641 4.824849
v -1.211886 0.971765 4.824849
v -1.604385 0.898641 4.765103
v -1.604385 0.971765 4.765103
v -1.981800 0.898641 4.588163
v -1.981800 0.971765 4.588163
v -2.329628 0.898641 4.300828
v -2.329628 0.971765 4.300828
v -2.634502 0.898641 3.914139
v -2.634502 0.971765 3.914139
v -2.884706 0.898641 3.442957
v -2.884706 0.971765 3.442957
v -3.070624 0.898641 2.905390
v -3.070624 0.971765 2.905390
v -3.185112 0.898641 2.322096
v -3.185112 0.971765 2.322096
v -3.223770 0.898641 1.715490
v -3.223770 0.971765 1.715490
v -3.185112 0.898641 1.108884
v -3.185112 0.971765 1.108884
v -3.070624 0.898641 0.525590
v -3.070624 0.971765 0.525590
v -2.884706 0.898641 -0.011977
v -2.884706 0.971765 -0.011977
v -2.634502 0.898641 -0.483158
v -2.634502 0.971765 -0.483158
v -2.329628 0.898641 -0.869847
v -2.329628 0.971765 -0.869847
v -1.981800 0.898641 -1.157182
v -1.981800 0.971765 -1.157182
v -1.604385 0.898641 -1.334123
v -1.604385 0.971765 -1.334123
v -0.082713 -0.000000 0.082713
v -0.082713 0.911361 0.082713
v -0.082713 -0.000000 -0.082713
v -0.082713 0.911361 -0.082713
v 0.082713 -0.000000 0.082713
v 0.082713 0.911361 0.082713
v 0.082713 -0.000000 -0.082713
v 0.082713 0.911361 -0.082713
v -2.521799 -0.000000 0.082713
v -2.521799 0.911361 0.082713
v -2.521799 -0.000000 -0.082713
v -2.521799 0.911361 -0.082713
v -2.356374 -0.000000 0.082713
v -2.356374 0.911361 0.082713
v -2.356374 -0.000000 -0.082713
v -2.356374 0.911361 -0.082713
v -0.153316 -0.000000 3.815132
v -0.153316 0.911361 3.815132
v -0.153316 -0.000000 3.649706
v -0.153316 0.911361 3.649706
v 0.012109 -0.000000 3.815132
v 0.012109 0.911361 3.815132
v 0.012109 -0.000000 3.649706
v 0.012109 0.911361 3.649706
v -2.415892 -0.000000 3.815132
v -2.415892 0.911361 3.815132
v -2.415892 -0.000000 3.649706
v -2.415892 0.911361 3.649706
v -2.250466 -0.000000 3.815132
v -2.250466 0.911361 3.815132
v -2.250466 -0.000000 3.649706
v -2.250466 0.911361 3.649706
vn 0.1505 -0.0000 -0.9886
vn 0.4245 -0.0000 -0.9054
vn 0.6369 -0.0000 -0.7710
vn 0.7853 -0.0000 -0.6191
vn 0.8832 -0.0000 -0.4690
vn 0.9451 -0.0000 -0.3269
vn 0.9813 -0.0000 -0.1926
vn 0.9980 -0.0000 -0.0636
vn 0.9980 -0.0000 0.0636
vn 0.9813 -0.0000 0.1926
vn 0.9451 -0.0000 0.3269
vn 0.8832 -0.0000 0.4690
vn 0.7853 -0.0000 0.6191
vn 0.6369 -0.0000 0.7710
vn 0.4245 -0.0000 0.9054
vn 0.1505 -0.0000 0.9886
vn -0.1505 -0.0000 0.9886
vn -0.4245 -0.0000 0.9054
vn -0.6369 -0.0000 0.7710
vn -0.7853 -0.0000 0.6191
vn -0.8832 -0.0000 0.4690
vn -0.9451 -0.0000 0.3269
vn -0.9813 -0.0000 0.1926
vn -0.9980 -0.0000 0.0636
vn -0.9980 -0.0000 -0.0636
vn -0.9813 -0.0000 -0.1926
vn -0.9451 -0.0000 -0.3269
vn -0.8832 -0.0000 -0.4690
vn -0.7853 -0.0000 -0.6191
vn -0.6369 -0.0000 -0.7710
vn -0.0000 1.0000 -0.0000
vn -0.4245 -0.0000 -0.9054
vn -0.1505 -0.0000 -0.9886
vn -0.0000 -1.0000 -0.0000
vn -1.0000 -0.0000 -0.0000
vn -0.0000 -0.0000 -1.0000
vn 1.0000 -0.0000 -0.0000
vn -0.0000 -0.0000 1.0000
vt 0.139548 0.164621
vt 0.272325 0.164621
vt 0.272325 0.189134
vt 0.139548 0.189134
vt 0.272325 0.213647
vt 0.139548 0.213647
vt 0.272325 0.238160
vt 0.139548 0.238160
vt 0.272325 0.262673
vt 0.139548 0.262673
vt 0.272325 0.287186
vt 0.139548 0.287186
vt 0.272325 0.311699
vt 0.139548 0.311699
vt 0.272325 0.336212
vt 0.139548 0.336212
vt 0.272325 0.360725
vt 0.139548 0.360725
vt 0.272325 0.385238
vt 0.139548 0.385238
vt 0.272325 0.409751
vt 0.139548 0.409751
vt 0.272325 0.434264
vt 0.139548 0.434264
vt 0.272325 0.458777
vt 0.139548 0.458777
vt 0.272325 0.483290
vt 0.139548 0.483290
vt 0.272325 0.507803
vt 0.139548 0.507803
vt 0.272325 0.532316
vt 0.139548 0.532316
vt 0.272325 0.556829
vt 0.139548 0.556829
vt 0.272325 0.581342
vt 0.139548 0.581342
vt 0.272325 0.605855
vt 0.139548 0.605855
vt 0.272325 0.630368
vt 0.139548 0.630368
vt 0.272325 0.654880
vt 0.139548 0.654880
vt 0.272325 0.679393
vt 0.139548 0.679393
vt 0.272325 0.703906
vt 0.139548 0.703906
vt 0.272325 0.728419
vt 0.139548 0.728419
vt 0.272325 0.752932
vt 0.139548 0.752932
vt 0.272325 0.777445
vt 0.139548 0.777445
vt 0.272325 0.801958
vt 0.139548 0.801958
vt 0.272325 0.826471
vt 0.139548 0.826471
vt 0.272325 0.850984
vt 0.139548 0.850984
vt 0.272325 0.875497
vt 0.139548 0.875497
vt 0.272325 0.900010
vt 0.139548 0.900010
vt 0.231444 0.785604
vt 0.199554 0.790215
vt 0.167664 0.785604
vt 0.136999 0.771947
vt 0.108738 0.749768
vt 0.083967 0.719921
vt 0.063638 0.683552
vt 0.048533 0.642060
vt 0.039230 0.597037
vt 0.036090 0.550215
vt 0.039230 0.503394
vt 0.048533 0.458371
vt 0.063638 0.416879
vt 0.083967 0.380510
vt 0.108738 0.350663
vt 0.136999 0.328484
vt 0.167664 0.314827
vt 0.199554 0.310216
vt 0.231444 0.314827
vt 0.262109 0.328484
vt 0.290370 0.350663
vt 0.315141 0.380510
vt 0.335470 0.416879
vt 0.350575 0.458371
vt 0.359877 0.503394
vt 0.363018 0.550215
vt 0.359877 0.597037
vt 0.350575 0.642060
vt 0.335470 0.683552
vt 0.315141 0.719921
vt 0.290370 0.749768
vt 0.262109 0.771947
vt 0.272325 0.924523
vt 0.139548 0.924523
vt 0.272325 0.949036
vt 0.139548 0.949036
vt 0.207397 0.717622
vt 0.242159 0.713011
vt 0.275584 0.699353
vt 0.306390 0.677175
vt 0.333391 0.647328
vt 0.355550 0.610959
vt 0.372015 0.569466
vt 0.382155 0.524444
vt 0.385579 0.477622
vt 0.382155 0.430801
vt 0.372015 0.385778
vt 0.355550 0.344286
vt 0.333391 0.307917
vt 0.306390 0.278070
vt 0.275584 0.255891
vt 0.242159 0.242234
vt 0.207397 0.237622
vt 0.172636 0.242234
vt 0.139210 0.255891
vt 0.108405 0.278070
vt 0.081404 0.307917
vt 0.059245 0.344286
vt 0.042779 0.385778
vt 0.032640 0.430801
vt 0.029216 0.477622
vt 0.032640 0.524444
vt 0.042779 0.569466
vt 0.059245 0.610959
vt 0.081404 0.647328
vt 0.108405 0.677175
vt 0.139210 0.699353
vt 0.172636 0.713011
vt 0.156615 0.292871
vt 0.302013 0.292871
vt 0.302013 0.438269
vt 0.156615 0.438269
vt 0.302013 0.583667
vt 0.156615 0.583667
vt 0.302013 0.729064
vt 0.156615 0.729064
vt 0.302013 0.874462
vt 0.156615 0.874462
vt 0.011217 0.583667
vt 0.011217 0.729064
vt 0.447410 0.583667
vt 0.447410 0.729064
vt 0.173115 0.388399
vt 0.300278 0.388399
vt 0.300278 0.515562
vt 0.173115 0.515562
vt 0.300278 0.642725
vt 0.173115 0.642725
vt 0.300278 0.769889
vt 0.173115 0.769889
vt 0.300278 0.897052
vt 0.173115 0.897052
vt 0.045951 0.642725
vt 0.045951 0.769889
vt 0.427441 0.642725
vt 0.427441 0.769889
vt 0.166975 0.313394
vt 0.299035 0.313394
vt 0.299035 0.445454
vt 0.166975 0.445454
vt 0.299035 0.577515
vt 0.166975 0.577515
vt 0.299035 0.709575
vt 0.166975 0.709575
vt 0.299035 0.841635
vt 0.166975 0.841635
vt 0.034915 0.577515
vt 0.034915 0.709575
vt 0.431095 0.577515
vt 0.431095 0.709575
vt 0.153295 0.305429
vt 0.297950 0.305429
vt 0.297950 0.450085
vt 0.153295 0.450085
vt 0.297950 0.594740
vt 0.153295 0.594740
vt 0.297950 0.739396
vt 0.153295 0.739396
vt 0.297950 0.884051
vt 0.153295 0.884051
vt 0.008639 0.594740
vt 0.008639 0.739396
vt 0.442606 0.594740
vt 0.442606 0.739396
s 0
f 1/1/1 2/2/1 4/3/1 3/4/1
f 3/4/2 4/3/2 6/5/2 5/6/2
f 5/6/3 6/5/3 8/7/3 7/8/3
f 7/8/4 8/7/4 10/9/4 9/10/4
f 9/10/5 10/9/5 12/11/5 11/12/5
f 11/12/6 12/11/6 14/13/6 13/14/6
f 13/14/7 14/13/7 16/15/7 15/16/7
f 15/16/8 16/15/8 18/17/8 17/18/8
f 17/18/9 18/17/9 20/19/9 19/20/9
f 19/20/10 20/19/10 22/21/10 21/22/10
f 21/22/11 22/21/11 24/23/11 23/24/11
f 23/24/12 24/23/12 26/25/12 25/26/12
f 25/26/13 26/25/13 28/27/13 27/28/13
f 27/28/14 28/27/14 30/29/14 29/30/14
f 29/30/15 30/29/15 32/31/15 31/32/15
f 31/32/16 32/31/16 34/33/16 33/34/16
f 33/34/17 34/33/17 36/35/17 35/36/17
f 35/36/18 36/35/18 38/37/18 37/38/18
f 37/38/19 38/37/19 40/39/19 39/40/19
f 39/40/20 40/39/20 42/41/20 41/42/20
f 41/42/21 42/41/21 44/43/21 43/44/21
f 43/44/22 44/43/22 46/45/22 45/46/22
f 45/46/23 46/45/23 48/47/23 47/48/23
f 47/48/24 48/47/24 50/49/24 49/50/24
f 49/50/25 50/49/25 52/51/25 51/52/25
f 51/52/26 52/51/26 54/53/26 53/54/26
f 53/54/27 54/53/27 56/55/27 55/56/27
f 55/56/28 56/55/28 58/57/28 57/58/28
f 57/58/29 58/57/29 60/59/29 59/60/29
f 59/60/30 60/59/30 62/61/30 61/62/30
f 4/63/31 2/64/31 64/65/31 62/66/31 60/67/31 58/68/31 56/69/31 54/70/31 52/71/31 50/72/31 48/73/31 46/74/31 44/75/31 42/76/31 40/77/31 38/78/31 36/79/31 34/80/31 32/81/31 30/82/31 28/83/31 26/84/31 24/85/31 22/86/31 20/87/31 18/88/31 16/89/31 14/90/31 12/91/31 10/92/31 8/93/31 6/94/31
f 61/62/32 62/61/32 64/95/32 63/96/32
f 63/96/33 64/95/33 2/97/33 1/98/33
f 1/99/34 3/100/34 5/101/34 7/102/34 9/103/34 11/104/34 13/105/34 15/106/34 17/107/34 19/108/34 21/109/34 23/110/34 25/111/34 27/112/34 29/113/34 31/114/34 33/115/34 35/116/34 37/117/34 39/118/34 41/119/34 43/120/34 45/121/34 47/122/34 49/123/34 51/124/34 53/125/34 55/126/34 57/127/34 59/128/34 61/129/34 63/130/34
f 65/131/35 66/132/35 68/133/35 67/134/35
f 67/134/36 68/133/36 72/135/36 71/136/36
f 71/136/37 72/135/37 70/137/37 69/138/37
f 69/138/38 70/137/38 66/139/38 65/140/38
f 67/141/34 71/136/34 69/138/34 65/142/34
f 72/135/31 68/143/31 66/144/31 70/137/31
f 73/145/35 74/146/35 76/147/35 75/148/35
f 75/148/36 76/147/36 80/149/36 79/150/36
f 79/150/37 80/149/37 78/151/37 77/152/37
f 77/152/38 78/151/38 74/153/38 73/154/38
f 75/155/34 79/150/34 77/152/34 73/156/34
f 80/149/31 76/157/31 74/158/31 78/151/31
f 81/159/35 82/160/35 84/161/35 83/162/35
f 83/162/36 84/161/36 88/163/36 87/164/36
f 87/164/37 88/163/37 86/165/37 85/166/37
f 85/166/38 86/165/38 82/167/38 81/168/38
f 83/169/34 87/164/34 85/166/34 81/170/34
f 88/163/31 84/171/31 82/172/31 86/165/31
f 89/173/35 90/174/35 92/175/35 91/176/35
f 91/176/36 92/175/36 96/177/36 95/178/36
f 95/178/37 96/177/37 94/179/37 93/180/37
f 93/180/38 94/179/38 90/181/38 89/182/38
f 91/183/34 95/178/34 93/180/34 89/184/34
f 96/177/31 92/185/31 90/186/31 94/179/31
