# Blender 5.0.0
# www.blender.org
o Bookshelf_-_Short_1.002
v 0.905560 0.308486 -0.213284
v 0.905422 0.179215 -0.212391
v 0.705547 0.178801 -0.510700
v -0.705803 -0.000441 -0.504719
v -0.706059 0.177918 -0.505589
v 0.705803 0.000441 -0.509830
v -0.920315 0.307604 0.063461
v -0.920448 0.178333 0.064358
v 0.478336 0.179215 0.707886
v 0.705547 0.178263 -0.510696
v 0.478474 0.308486 0.706989
v 0.705803 0.000441 0.504715
v 0.705547 0.178801 0.503845
v -0.706059 0.177918 0.508957
v -0.705803 -0.000441 0.509827
v -0.493359 0.178333 -0.855915
v -0.493225 0.307604 -0.856808
vn -0.9071 -0.0020 -0.4210
vn 1.0000 0.0014 -0.0000
vn 0.0036 0.0049 1.0000
vn -1.0000 -0.0014 -0.0000
vn 0.0005 -1.0000 0.0002
vn -0.0005 1.0000 -0.0002
vn 0.4179 -0.0067 -0.9084
vn 0.9071 0.0019 0.4210
vn 0.0006 -1.0000 -0.0000
vn -0.0036 -0.0049 -1.0000
vn -0.0004 1.0000 -0.0003
vn -0.4179 0.0067 0.9084
vt 0.737902 0.639096
vt 0.738352 0.639096
vt 0.738375 0.642630
vt 0.737925 0.642630
vt 0.737333 0.645631
vt 0.737319 0.648779
vt 0.736766 0.648779
vt 0.736781 0.645631
vt 0.143607 0.890075
vt 0.020058 0.890075
vt 0.020070 0.874456
vt 0.143619 0.874457
vt 0.736769 0.638102
vt 0.737323 0.638102
vt 0.737338 0.641250
vt 0.736785 0.641250
vt 0.914409 0.510937
vt 0.939597 0.511020
vt 0.939597 0.549264
vt 0.914409 0.549181
vt 0.002861 0.554070
vt 0.002861 0.268022
vt 0.197864 0.267397
vt 0.197864 0.553443
vt 0.738368 0.647992
vt 0.737918 0.647992
vt 0.738344 0.651526
vt 0.737894 0.651526
vt 0.143285 0.978913
vt 0.019736 0.978912
vt 0.019749 0.785619
vt 0.143298 0.785619
vt 0.942806 0.511025
vt 0.942806 0.549269
s 0
f 8/1/1 7/2/1 17/3/1 16/4/1
f 10/5/2 13/6/2 12/7/2 6/8/2
f 15/9/3 12/10/3 13/11/3 14/12/3
f 15/13/4 14/14/4 5/15/4 4/16/4
f 2/17/5 9/18/5 8/19/5 16/20/5
f 7/21/6 11/22/6 1/23/6 17/24/6
f 16/4/7 17/3/7 1/25/7 2/26/7
f 11/27/8 9/28/8 2/26/8 1/25/8
f 12/10/9 15/9/9 4/29/9 6/30/9
f 5/15/10 10/5/10 6/8/10 4/16/10
f 10/31/11 5/32/11 14/12/11 13/11/11
f 11/33/12 7/34/12 8/19/12 9/18/12
l 3 10
