# Blender 5.1.2
# www.blender.org
o Comfy_Chair
v 1.014031 4.968259 4.819834
v 1.973795 5.135077 4.817303
v 1.973795 5.135077 4.817303
v 1.993346 5.135077 1.129551
v 1.993346 5.135077 1.129551
v 1.014984 4.967832 4.819831
v -9.678467 4.968259 4.819834
v -10.638232 5.135077 4.817303
v -10.638232 5.135077 4.817303
v -10.657783 5.135077 1.129551
v -10.657783 5.135077 1.129551
v -9.679420 4.967832 4.819831
v 4.956313 5.065815 4.925417
v 5.915850 5.232633 4.946348
v 5.915850 5.232633 4.946348
v 6.025543 5.232633 1.260177
v 6.025543 5.232633 1.260177
v 4.957265 5.065388 4.925437
v -5.732966 5.065815 4.664037
v -6.692380 5.232633 4.638044
v -6.692380 5.232633 4.638044
v -6.621776 5.232633 0.950917
v -6.621776 5.232633 0.950917
v -5.733918 5.065388 4.664010
v 0.443760 0.277552 -2.053351
v 0.441937 1.354139 -1.958474
v 0.289480 0.381125 0.738401
v 0.289480 1.296747 0.738401
v -2.035496 0.277552 -2.100960
v -2.035898 1.345517 -2.080034
v -2.086221 0.277552 0.540577
v -2.086221 1.296747 0.540577
v -0.401487 1.354139 -1.974670
v -0.344372 0.381471 0.732512
v -0.399665 0.277552 -2.069547
v -0.312463 1.295424 0.662075
v -0.348022 3.082621 -2.281868
v 0.446033 3.096447 -2.171714
v 0.360935 2.997348 0.739773
v -0.310837 3.000355 0.726873
v -0.388874 1.269142 -2.631486
v 0.454551 1.269142 -2.615290
v 0.455048 0.277552 -2.641197
v -0.388377 0.277552 -2.657393
v -2.024208 0.277552 -2.688806
v -2.024705 1.269142 -2.662899
v -2.029420 3.920953 -2.417381
v -2.018227 3.844577 -3.000246
v -0.312572 2.461366 0.662550
v -0.397705 2.448513 -2.171611
v 0.445615 2.414583 -2.149966
v 0.289480 2.493616 0.738401
v 0.607233 3.023339 -2.050212
v 0.465336 2.950657 0.741778
v 0.623836 2.493366 -2.049893
v 0.477822 2.567302 0.742017
v -0.346317 2.772910 0.731926
v 0.445772 2.776864 -2.158161
v -0.396906 2.776864 -2.213230
v 0.393034 2.776864 0.740389
v 0.657558 2.769245 -2.049245
v 0.502034 2.765370 0.742482
v 0.020224 1.354139 -1.966572
v -0.028639 0.381125 0.730160
v 0.022046 0.277552 -2.061449
v -0.028680 1.296747 0.732291
v 0.028414 3.184639 -2.393045
v -0.025484 3.078158 0.732352
v 0.032837 1.269142 -2.623388
v 0.033334 0.277552 -2.649295
v -0.096602 3.789381 -2.363025
v -0.085409 3.713005 -2.945889
v 0.024006 2.448513 -2.163513
v -0.028680 2.457279 0.732291
v 0.026817 2.776864 -2.309942
v -0.028680 2.776864 0.732291
v -0.399863 0.000000 -0.083522
v -0.399863 0.308562 -0.083522
v 0.122935 0.000000 -0.098850
v 0.122935 0.308562 -0.098850
v -0.397944 0.000000 0.362695
v -0.397944 0.308562 0.362695
v 0.124153 0.000000 0.380924
v 0.124153 0.308562 0.380924
v -0.136199 0.000000 -0.166999
v -0.399863 0.154281 -0.083522
v -0.136199 0.308562 -0.166999
v 0.122935 0.154281 -0.098850
v 0.155168 0.000000 0.135777
v 0.155168 0.308562 0.135777
v 0.124153 0.154281 0.380924
v -0.147608 0.000000 0.427143
v -0.147608 0.308562 0.427143
v -0.397944 0.154281 0.362695
v -0.438974 0.000000 0.124367
v -0.438974 0.308562 0.124367
v -0.141903 0.308562 0.130072
v -0.141903 0.000000 0.130072
v -0.438974 0.154281 0.124367
v -0.147608 0.154281 0.427143
v 0.155168 0.154281 0.135777
v -0.136199 0.154281 -0.166999
v -0.091656 0.154281 -2.486600
v 0.199711 0.154281 -2.183825
v -0.103065 0.154281 -1.892458
v -0.394431 0.154281 -2.195234
v -0.097360 0.000000 -2.189529
v -0.097360 0.308562 -2.189529
v -0.394431 0.308562 -2.195234
v -0.394431 0.000000 -2.195234
v -0.353401 0.154281 -1.956906
v -0.103065 0.308562 -1.892458
v -0.103065 0.000000 -1.892458
v 0.168696 0.154281 -1.938677
v 0.199711 0.308562 -2.183825
v 0.199711 0.000000 -2.183825
v 0.167479 0.154281 -2.418452
v -0.091656 0.308562 -2.486600
v -0.355320 0.154281 -2.403123
v -0.091656 0.000000 -2.486600
v 0.168696 0.308562 -1.938677
v 0.168696 0.000000 -1.938677
v -0.353401 0.308562 -1.956906
v -0.353401 0.000000 -1.956906
v 0.167479 0.308562 -2.418452
v 0.167479 0.000000 -2.418452
v -0.355320 0.308562 -2.403123
v -0.355320 0.000000 -2.403123
v 0.219155 3.478806 -2.310429
v 0.034109 3.731472 -2.352927
v 0.187494 3.578176 -2.326976
v 0.119762 3.670659 -2.342531
v 0.045302 3.655097 -2.935792
v 0.230468 3.401680 -2.899029
v 0.130972 3.594182 -2.926165
v 0.198747 3.501425 -2.912709
v -0.190721 3.831077 -2.370296
v -0.615989 3.920953 -2.390239
v -0.394265 3.701316 -2.350774
v -0.399310 3.894629 -2.382628
v -0.604796 3.844577 -2.973104
v -0.179528 3.754701 -2.953161
v -0.382951 3.624022 -2.939943
v -0.388117 3.818253 -2.965493
v -4.798084 0.277552 -2.154010
v -4.799906 1.354139 -2.059133
v -4.741006 0.385375 0.641800
v -4.741006 1.296747 0.641800
v -3.956481 1.354139 -2.042937
v -4.116006 0.385736 0.660343
v -3.954660 0.277552 -2.137814
v -4.145046 1.295370 0.589125
v -3.998115 3.082621 -2.351960
v -4.795812 3.096447 -2.272373
v -4.815393 2.993280 0.640372
v -4.148716 2.996979 0.653174
v -3.943869 1.269142 -2.699752
v -4.787293 1.269142 -2.715949
v -4.786796 0.277552 -2.741855
v -3.943371 0.277552 -2.725659
v -4.144952 2.461534 0.589624
v -3.952700 2.448513 -2.239878
v -4.796229 2.414583 -2.250625
v -4.741006 2.496518 0.641800
v -4.961558 3.023339 -2.157149
v -4.917371 2.947674 0.638414
v -4.978161 2.493366 -2.157468
v -4.929688 2.570336 0.638177
v -4.113959 2.772748 0.659811
v -4.796072 2.776864 -2.258819
v -3.951900 2.776864 -2.281497
v -4.848810 2.776864 0.639730
v -5.011885 2.769245 -2.158116
v -4.953510 2.765211 0.637720
v -4.378194 1.354139 -2.051035
v -4.427055 0.385375 0.645610
v -4.376372 0.277552 -2.145912
v -4.427097 1.296747 0.647828
v -4.370005 3.184639 -2.477508
v -4.430424 3.073788 0.647765
v -4.365581 1.269142 -2.707850
v -4.365084 0.277552 -2.733757
v -4.246233 3.789381 -2.442710
v -4.235041 3.713005 -3.025575
v -4.374412 2.448513 -2.247976
v -4.427097 2.457279 0.647828
v -4.371600 2.776864 -2.394405
v -4.427097 2.776864 0.647828
v -4.030710 0.000000 -0.153245
v -4.030710 0.308562 -0.153245
v -4.552534 0.000000 -0.188633
v -4.552534 0.308562 -0.188633
v -4.049759 0.000000 0.292570
v -4.049759 0.308562 0.292570
v -4.572170 0.000000 0.290741
v -4.572170 0.308562 0.290741
v -4.290975 0.000000 -0.246783
v -4.030710 0.154281 -0.153245
v -4.290975 0.308562 -0.246783
v -4.552534 0.154281 -0.188633
v -4.593750 0.000000 0.044583
v -4.593750 0.308562 0.044583
v -4.572170 0.154281 0.290741
v -4.302384 0.000000 0.347359
v -4.302384 0.308562 0.347359
v -4.049759 0.154281 0.292570
v -3.999608 0.000000 0.055993
v -3.999608 0.308562 0.055993
v -4.296679 0.308562 0.050288
v -4.296679 0.000000 0.050288
v -3.999608 0.154281 0.055993
v -4.302384 0.154281 0.347359
v -4.593750 0.154281 0.044583
v -4.290975 0.154281 -0.246783
v -4.246431 0.154281 -2.566384
v -4.549207 0.154281 -2.275018
v -4.257841 0.154281 -1.972242
v -3.955065 0.154281 -2.263609
v -4.252136 0.000000 -2.269313
v -4.252136 0.308562 -2.269313
v -3.955065 0.308562 -2.263609
v -3.955065 0.000000 -2.263609
v -4.005216 0.154281 -2.027031
v -4.257841 0.308562 -1.972242
v -4.257841 0.000000 -1.972242
v -4.527627 0.154281 -2.028860
v -4.549207 0.308562 -2.275018
v -4.549207 0.000000 -2.275018
v -4.507991 0.154281 -2.508235
v -4.246431 0.308562 -2.566384
v -3.986166 0.154281 -2.472847
v -4.246431 0.000000 -2.566384
v -4.527627 0.308562 -2.028860
v -4.527627 0.000000 -2.028860
v -4.005216 0.308562 -2.027031
v -4.005216 0.000000 -2.027031
v -4.507991 0.308562 -2.508235
v -4.507991 0.000000 -2.508235
v -3.986166 0.308562 -2.472847
v -3.986166 0.000000 -2.472847
v -4.563777 3.478806 -2.402276
v -4.377235 3.731472 -2.437638
v -4.531504 3.578176 -2.417595
v -4.463224 3.670659 -2.430538
v -4.366043 3.655097 -3.020503
v -4.552484 3.401680 -2.990876
v -4.452019 3.594182 -3.014172
v -4.520261 3.501425 -3.003328
v -4.151906 3.831077 -2.446362
v -3.726185 3.920953 -2.449964
v -3.949259 3.701316 -2.419041
v -3.942996 3.894629 -2.450678
v -3.714992 3.844577 -3.032829
v -4.140713 3.754701 -3.029227
v -3.937945 3.624022 -3.008209
v -3.931803 3.818253 -3.033543
v 0.393034 1.296747 0.588186
v 0.393034 0.277552 0.588186
v -0.028680 0.277552 0.580088
v -0.414653 1.296747 0.492150
v -0.450391 0.277552 0.571989
v -0.028680 3.184639 0.580088
v -0.402843 3.082621 0.572902
v -0.450391 2.776864 0.571989
v 0.393034 2.422915 0.588186
v -0.414653 2.457279 0.492150
v 0.606833 2.769245 0.592291
v 0.573110 2.493366 0.591644
v 0.556507 3.023339 0.591325
v 0.393034 3.096447 0.588186
v -4.848810 1.296747 0.487527
v -4.848810 0.277552 0.487527
v -4.427097 0.277552 0.495625
v -4.038033 1.296747 0.422571
v -4.005385 0.277552 0.503723
v -4.427097 3.184639 0.495625
v -4.052935 3.082621 0.502810
v -4.005385 2.776864 0.503723
v -4.848810 2.422915 0.487527
v -4.038033 2.457279 0.422571
v -5.062610 2.769245 0.483421
v -5.028886 2.493366 0.484069
v -5.012283 3.023339 0.484388
v -4.848810 3.096447 0.487527
vn 0.9998 -0.0000 0.0192
vn 0.9998 0.0189 -0.0001
vn 0.9519 -0.0000 0.3064
vn 0.8478 -0.3087 0.4311
vn -0.7572 0.3202 0.5693
vn -0.6046 0.6028 0.5206
vn -0.0006 0.9998 0.0209
vn -0.0000 -1.0000 -0.0000
vn -0.3167 -0.2420 0.9171
vn -0.0174 0.0391 0.9991
vn -0.0676 0.0189 0.9975
vn -0.0989 0.0094 0.9951
vn -0.5687 0.0304 0.8220
vn -0.4287 -0.3414 0.8365
vn -0.7816 -0.1053 -0.6148
vn -0.9577 0.0015 0.2878
vn -0.7162 0.6348 0.2900
vn -0.6649 0.4746 -0.5767
vn -0.0351 0.9570 0.2881
vn 0.0392 0.6260 -0.7788
vn 0.4009 -0.0879 -0.9119
vn 0.4964 0.6234 -0.6041
vn 0.7731 0.5107 -0.3763
vn 0.8830 0.0185 -0.4691
vn -0.0410 -0.0259 0.9988
vn -0.0192 -0.0000 0.9998
vn 0.1355 0.4683 0.8731
vn -0.0285 0.5144 0.8571
vn 0.0656 -0.2038 -0.9768
vn 0.0192 0.0261 -0.9995
vn 0.0192 -0.0520 -0.9985
vn 0.7468 0.0036 -0.6650
vn 0.7147 0.0186 -0.6992
vn -0.9998 -0.0000 -0.0192
vn 0.2783 -0.9460 0.1664
vn -0.7110 -0.1760 -0.6808
vn 0.0314 -0.2127 -0.9766
vn 0.4557 -0.0003 0.8901
vn 0.2128 -0.1587 0.9641
vn -0.0990 -0.0286 0.9947
vn 0.5210 -0.3256 -0.7890
vn 0.7608 -0.5169 0.3924
vn -0.9668 -0.0644 0.2472
vn 0.9528 0.0355 0.3014
vn 0.7417 0.5968 0.3061
vn 0.4151 -0.3316 0.8472
vn 0.4892 0.0187 0.8720
vn 0.7679 -0.4958 -0.4056
vn 0.7519 -0.5819 0.3099
vn 0.2891 0.9111 0.2939
vn 0.4088 0.3361 0.8485
vn -0.5649 -0.0946 0.8197
vn -0.5175 -0.0481 0.8543
vn -0.4140 0.3653 0.8337
vn 0.3613 -0.3720 0.8550
vn -1.0000 -0.0000 -0.0077
vn -0.7430 0.6693 -0.0057
vn -0.5944 0.6078 -0.5266
vn -0.7485 -0.0000 -0.6632
vn -0.0000 1.0000 -0.0000
vn -0.5867 0.6029 0.5407
vn -0.0313 0.6630 0.7480
vn 0.7343 0.6788 -0.0039
vn 0.5982 0.6009 -0.5301
vn -0.0188 0.6495 -0.7601
vn 0.7220 -0.0000 0.6919
vn 1.0000 -0.0000 -0.0053
vn 0.5806 0.5944 0.5564
vn -0.7430 -0.6693 -0.0057
vn -0.5867 -0.6029 0.5407
vn -0.7353 -0.0000 0.6777
vn 0.7484 -0.0000 -0.6632
vn -0.0247 -0.0000 -0.9997
vn -0.0417 -0.0000 0.9991
vn -0.0312 -0.6630 0.7480
vn 0.5806 -0.5944 0.5564
vn 0.7343 -0.6788 -0.0039
vn 0.5982 -0.6009 -0.5301
vn -0.5944 -0.6078 -0.5266
vn -0.0188 -0.6495 -0.7601
vn -0.0312 0.6630 0.7480
vn 0.7006 0.2559 0.6661
vn 0.7261 0.0594 -0.6850
vn 0.6737 0.2436 -0.6977
vn 0.6475 0.4340 0.6265
vn 0.5352 0.4332 -0.7252
vn 0.5084 0.6208 0.5968
vn 0.3768 0.5376 -0.7544
vn 0.3500 0.7265 0.5913
vn 0.2761 0.7423 0.6106
vn 0.3032 0.5484 -0.7793
vn 0.2423 0.7680 0.5929
vn 0.1421 0.8023 0.5798
vn -0.0236 0.1544 0.9877
vn 0.0205 0.8086 0.5880
vn 0.0589 0.6228 -0.7802
vn 0.1660 0.6146 -0.7712
vn 0.0190 -0.1299 -0.9913
vn 0.2678 0.5786 -0.7704
vn -0.0419 0.1440 0.9887
vn -0.0276 0.7973 0.6030
vn 0.0152 0.6093 -0.7928
vn -0.8608 -0.2971 0.4133
vn -0.9567 -0.0000 0.2911
vn -0.9991 0.0189 -0.0385
vn 0.7384 0.3190 0.5941
vn 0.5836 0.6021 0.5448
vn 0.0292 0.0189 0.9994
vn 0.4001 -0.3330 0.8538
vn 0.5407 0.0303 0.8407
vn 0.0609 0.0094 0.9981
vn 0.8047 -0.1053 -0.5843
vn 0.6866 0.4746 -0.5508
vn 0.7030 0.6360 0.3183
vn 0.9472 0.0022 0.3208
vn 0.0221 0.9545 0.2972
vn -0.0092 0.6260 -0.7798
vn -0.3656 -0.0879 -0.9266
vn -0.8643 0.0185 -0.5026
vn -0.7580 0.5107 -0.4057
vn -0.4728 0.6234 -0.6227
vn 0.0025 -0.0256 0.9997
vn -0.0022 0.5060 0.8625
vn -0.1643 0.4571 0.8741
vn -0.0281 -0.2038 -0.9786
vn -0.6873 0.0186 -0.7261
vn -0.7208 0.0036 -0.6932
vn -0.2845 -0.9460 0.1556
vn 0.0061 -0.2127 -0.9771
vn 0.7366 -0.1760 -0.6530
vn 0.0610 -0.0284 0.9977
vn -0.2401 -0.1506 0.9590
vn -0.4699 -0.0003 0.8827
vn -0.7653 -0.5149 0.3862
vn -0.4903 -0.3256 -0.8084
vn 0.9578 -0.0640 0.2803
vn -0.9579 0.0352 0.2849
vn -0.7504 0.5925 0.2929
vn -0.5022 0.0180 0.8646
vn -0.4303 -0.3240 0.8425
vn -0.7609 -0.5775 0.2958
vn -0.7517 -0.4958 -0.4348
vn -0.3000 0.9072 0.2949
vn -0.4246 0.3279 0.8439
vn 0.5369 -0.0943 0.8384
vn 0.4875 -0.0474 0.8719
vn 0.3843 0.3607 0.8498
vn -0.3755 -0.3657 0.8516
vn 0.9995 -0.0000 0.0307
vn 0.7734 -0.0000 -0.6340
vn 0.6141 0.6078 -0.5034
vn 0.7426 0.6693 0.0228
vn 0.0025 0.6630 0.7486
vn 0.5655 0.6029 0.5628
vn 0.0480 0.6495 -0.7588
vn -0.5774 0.6009 -0.5527
vn -0.7336 0.6788 -0.0321
vn -0.7480 -0.0000 0.6637
vn -0.6015 0.5944 0.5337
vn -0.9990 -0.0000 -0.0437
vn 0.7088 -0.0000 0.7054
vn 0.5655 -0.6029 0.5628
vn 0.7426 -0.6693 0.0228
vn -0.7224 -0.0000 -0.6914
vn 0.0631 -0.0000 -0.9980
vn 0.0034 -0.0000 1.0000
vn -0.6015 -0.5944 0.5337
vn 0.0025 -0.6630 0.7486
vn -0.5774 -0.6009 -0.5527
vn -0.7336 -0.6788 -0.0321
vn 0.0480 -0.6495 -0.7588
vn 0.6141 -0.6078 -0.5034
vn -0.7256 0.2559 0.6387
vn -0.6710 0.4340 0.6012
vn -0.6464 0.2436 -0.7231
vn -0.6993 0.0594 -0.7123
vn -0.5309 0.6208 0.5768
vn -0.5069 0.4332 -0.7452
vn -0.3724 0.7265 0.5774
vn -0.3475 0.5376 -0.7683
vn -0.2993 0.7423 0.5995
vn -0.2730 0.5484 -0.7904
vn -0.2649 0.7680 0.5831
vn -0.0156 0.1544 0.9879
vn -0.1642 0.8023 0.5739
vn -0.0449 0.8086 0.5867
vn -0.0289 0.6228 -0.7819
vn -0.1363 0.6146 -0.7770
vn -0.2380 0.5786 -0.7801
vn 0.0005 0.1440 0.9896
vn 0.0021 0.7973 0.6036
vn 0.2793 -0.2418 0.9293
vn -0.0086 -0.8279 0.5608
vn -0.0086 -0.8280 0.5607
vn -0.0135 -0.8173 0.5760
vn -0.0134 -0.8173 0.5761
vt 0.102031 0.989649
vt 0.090643 0.988645
vt 0.091250 0.961701
vt 0.102031 0.961701
vt 0.170723 0.919324
vt 0.171676 0.893261
vt 0.188983 0.892874
vt 0.188354 0.920575
vt 0.174745 0.982880
vt 0.174745 0.954931
vt 0.192053 0.954931
vt 0.192053 0.982880
vt 0.143314 0.961339
vt 0.132500 0.961721
vt 0.132533 0.944032
vt 0.143314 0.944032
vt 0.072494 0.962831
vt 0.072501 0.972513
vt 0.069411 0.972500
vt 0.069165 0.962806
vt 0.170283 0.982880
vt 0.170283 0.954931
vt 0.095777 0.879037
vt 0.068237 0.880495
vt 0.068110 0.877341
vt 0.095718 0.876200
vt 0.192053 0.989099
vt 0.174745 0.989099
vt 0.068036 0.872723
vt 0.098359 0.872758
vt 0.105393 0.876858
vt 0.104662 0.872798
vt 0.107364 0.873340
vt 0.108415 0.876495
vt 0.072508 0.988184
vt 0.076983 0.988164
vt 0.076658 0.990495
vt 0.072579 0.991378
vt 0.100066 0.877650
vt 0.120357 0.923347
vt 0.120441 0.934082
vt 0.115824 0.934157
vt 0.115762 0.923356
vt 0.105742 0.923638
vt 0.105742 0.934131
vt 0.088434 0.934131
vt 0.088434 0.923638
vt 0.131203 0.923347
vt 0.132407 0.934582
vt 0.126193 0.934314
vt 0.125007 0.923888
vt 0.170283 0.989099
vt 0.108646 0.935293
vt 0.109376 0.923530
vt 0.131221 0.962033
vt 0.125007 0.961765
vt 0.100709 0.894412
vt 0.095915 0.894314
vt 0.096063 0.882297
vt 0.100843 0.881815
vt 0.075867 0.972511
vt 0.075877 0.985172
vt 0.072505 0.984792
vt 0.079425 0.990672
vt 0.079337 0.961701
vt 0.069735 0.896064
vt 0.069199 0.883735
vt 0.068046 0.863861
vt 0.094987 0.863892
vt 0.094984 0.866533
vt 0.068043 0.866502
vt 0.077872 0.985943
vt 0.078135 0.988037
vt 0.068052 0.859054
vt 0.095978 0.859054
vt 0.094991 0.861058
vt 0.068049 0.861027
vt 0.096189 0.868361
vt 0.068041 0.868328
vt 0.077758 0.989996
vt 0.106147 0.881384
vt 0.108553 0.880019
vt 0.069421 0.984824
vt 0.069147 0.988215
vt 0.105492 0.894478
vt 0.105623 0.882255
vt 0.165821 0.982880
vt 0.165821 0.989099
vt 0.124914 0.923347
vt 0.124914 0.934065
vt 0.069551 0.990604
vt 0.165821 0.954931
vt 0.075861 0.962828
vt 0.107384 0.556049
vt 0.122971 0.545657
vt 0.108423 0.496817
vt 0.108423 0.564362
vt 0.109186 0.135558
vt 0.109186 0.155347
vt 0.105229 0.147431
vt 0.101271 0.139516
vt 0.123032 0.598243
vt 0.137819 0.586742
vt 0.146035 0.585099
vt 0.124675 0.606458
vt 0.089398 0.135558
vt 0.085440 0.127643
vt 0.105229 0.127643
vt 0.097313 0.131601
vt 0.109020 0.594397
vt 0.090286 0.594397
vt 0.097779 0.590650
vt 0.105273 0.586904
vt 0.144392 0.576883
vt 0.152607 0.575240
vt 0.101526 0.579410
vt 0.094033 0.583157
vt 0.090286 0.575663
vt 0.097779 0.571917
vt 0.172156 0.135942
vt 0.154456 0.127092
vt 0.173926 0.123552
vt 0.179235 0.130632
vt 0.097313 0.151389
vt 0.093356 0.143474
vt 0.181800 0.538706
vt 0.190178 0.555462
vt 0.190178 0.496817
vt 0.173422 0.538706
vt 0.139788 0.555462
vt 0.148166 0.555462
vt 0.148166 0.496817
vt 0.123032 0.547084
vt 0.176126 0.572279
vt 0.159370 0.563901
vt 0.177802 0.560550
vt 0.182829 0.567253
vt 0.148227 0.496817
vt 0.148227 0.555462
vt 0.173361 0.538706
vt 0.156605 0.496817
vt 0.086539 0.541501
vt 0.106283 0.564362
vt 0.106283 0.496817
vt 0.107322 0.505130
vt 0.123032 0.555524
vt 0.150964 0.567025
vt 0.099543 0.118797
vt 0.116008 0.107820
vt 0.100641 0.056231
vt 0.100641 0.127578
vt 0.152668 0.568928
vt 0.184504 0.555524
vt 0.181153 0.578982
vt 0.184504 0.597413
vt 0.094033 0.564423
vt 0.112766 0.564423
vt 0.105273 0.568170
vt 0.116072 0.163367
vt 0.131692 0.151218
vt 0.140370 0.149482
vt 0.117808 0.172044
vt 0.086539 0.568170
vt 0.086539 0.586904
vt 0.109020 0.575663
vt 0.138634 0.140804
vt 0.116072 0.118242
vt 0.145577 0.130391
vt 0.147312 0.139069
vt 0.085440 0.147431
vt 0.081483 0.139516
vt 0.116513 0.590650
vt 0.112766 0.583157
vt 0.177465 0.143021
vt 0.181005 0.162490
vt 0.077525 0.131601
vt 0.195912 0.091629
vt 0.187063 0.056231
vt 0.187063 0.118178
vt 0.195912 0.100479
vt 0.178149 0.100479
vt 0.186998 0.118178
vt 0.186998 0.056231
vt 0.169299 0.100479
vt 0.116513 0.571917
vt 0.116072 0.056231
vt 0.116072 0.118178
vt 0.142621 0.100479
vt 0.124922 0.056231
vt 0.147377 0.132402
vt 0.181005 0.118242
vt 0.198617 0.530329
vt 0.190239 0.496817
vt 0.190239 0.555462
vt 0.198617 0.538706
vt 0.089398 0.155347
vt 0.101271 0.159304
vt 0.077525 0.151389
vt 0.081483 0.159304
vt 0.160385 0.118178
vt 0.169234 0.118178
vt 0.169234 0.056231
vt 0.142686 0.109328
vt 0.077525 0.103430
vt 0.098381 0.127578
vt 0.098381 0.056231
vt 0.099478 0.065012
vt 0.113118 0.958782
vt 0.118576 0.955521
vt 0.118843 0.956554
vt 0.113804 0.959821
vt 0.119382 0.957438
vt 0.114611 0.960951
vt 0.120133 0.958066
vt 0.115390 0.961934
vt 0.116533 0.963200
vt 0.121455 0.958860
vt 0.102476 0.918891
vt 0.102094 0.920029
vt 0.101303 0.921079
vt 0.100316 0.921760
vt 0.098817 0.922398
vt 0.097739 0.922858
vt 0.095355 0.923545
vt 0.095457 0.921321
vt 0.171211 0.866011
vt 0.173500 0.865753
vt 0.171163 0.868140
vt 0.090787 0.961608
vt 0.088494 0.961327
vt 0.088434 0.959255
vt 0.124120 0.961139
vt 0.122236 0.959593
vt 0.124790 0.958859
vt 0.173083 0.859566
vt 0.170723 0.859737
vt 0.119143 0.965941
vt 0.117360 0.964093
vt 0.188403 0.865426
vt 0.188226 0.859054
vt 0.105742 0.961608
vt 0.147702 0.963149
vt 0.147702 0.991097
vt 0.136920 0.991097
vt 0.136313 0.964152
vt 0.149472 0.860298
vt 0.170103 0.859054
vt 0.170630 0.886759
vt 0.150329 0.886365
vt 0.174745 0.926890
vt 0.195051 0.926890
vt 0.195051 0.954838
vt 0.174745 0.954838
vt 0.195826 0.860229
vt 0.199108 0.860204
vt 0.198865 0.869853
vt 0.195819 0.869866
vt 0.170283 0.926890
vt 0.170283 0.954838
vt 0.136474 0.903182
vt 0.136415 0.906040
vt 0.108725 0.904875
vt 0.108856 0.901712
vt 0.174745 0.920670
vt 0.195051 0.920670
vt 0.108646 0.909507
vt 0.139071 0.909507
vt 0.146178 0.905398
vt 0.149226 0.905776
vt 0.148154 0.908954
vt 0.145425 0.909491
vt 0.195812 0.885537
vt 0.195740 0.888686
vt 0.191676 0.887806
vt 0.191337 0.885517
vt 0.140805 0.904583
vt 0.154018 0.920670
vt 0.158574 0.920673
vt 0.158554 0.931459
vt 0.153939 0.931378
vt 0.068036 0.923638
vt 0.088341 0.923638
vt 0.088341 0.934131
vt 0.068036 0.934131
vt 0.170283 0.920670
vt 0.165728 0.932576
vt 0.164957 0.920822
vt 0.141327 0.887875
vt 0.141604 0.900376
vt 0.136752 0.899899
vt 0.136585 0.887980
vt 0.195815 0.882146
vt 0.192488 0.882556
vt 0.192498 0.869864
vt 0.125007 0.991097
vt 0.125095 0.962126
vt 0.109825 0.898464
vt 0.110406 0.886134
vt 0.108646 0.918399
vt 0.108646 0.915748
vt 0.135678 0.915748
vt 0.135678 0.918399
vt 0.190230 0.885389
vt 0.190490 0.883329
vt 0.108646 0.923221
vt 0.108646 0.921242
vt 0.135678 0.921242
vt 0.136667 0.923254
vt 0.136889 0.913916
vt 0.108646 0.913916
vt 0.190601 0.887318
vt 0.146956 0.900833
vt 0.149379 0.902220
vt 0.198854 0.882179
vt 0.199128 0.885566
vt 0.146069 0.887770
vt 0.146337 0.899885
vt 0.165821 0.926890
vt 0.165821 0.920670
vt 0.149472 0.920670
vt 0.149472 0.931362
vt 0.198729 0.887921
vt 0.165821 0.954838
vt 0.192503 0.860227
vt 0.089552 0.935424
vt 0.090933 0.945096
vt 0.089552 0.866341
vt 0.107513 0.922989
vt 0.115359 0.717561
vt 0.110341 0.720070
vt 0.112850 0.725087
vt 0.115359 0.730105
vt 0.107584 0.984618
vt 0.109500 0.994198
vt 0.134409 0.969289
vt 0.124829 0.971205
vt 0.102814 0.717561
vt 0.107832 0.715052
vt 0.112850 0.712543
vt 0.100305 0.712543
vt 0.065992 0.971382
vt 0.074731 0.967013
vt 0.070361 0.958274
vt 0.065992 0.949536
vt 0.132493 0.959709
vt 0.142073 0.957793
vt 0.083469 0.962644
vt 0.092207 0.958274
vt 0.087838 0.949536
vt 0.079100 0.953905
vt 0.155277 0.717804
vt 0.159765 0.714438
vt 0.156399 0.709949
vt 0.144057 0.712193
vt 0.107832 0.727596
vt 0.105323 0.722578
vt 0.176116 0.915190
vt 0.166346 0.915190
vt 0.185886 0.866341
vt 0.185886 0.934730
vt 0.127124 0.934730
vt 0.107584 0.924960
vt 0.136894 0.866341
vt 0.136894 0.934730
vt 0.157472 0.957793
vt 0.167052 0.959709
vt 0.168968 0.950129
vt 0.151724 0.936717
vt 0.136965 0.866341
vt 0.146735 0.866341
vt 0.166275 0.915190
vt 0.136965 0.934730
vt 0.065992 0.918844
vt 0.089481 0.876012
vt 0.088099 0.866341
vt 0.089481 0.945096
vt 0.140157 0.948213
vt 0.107584 0.934801
vt 0.109245 0.706935
vt 0.109941 0.712502
vt 0.109941 0.667272
vt 0.119683 0.699977
vt 0.142144 0.934801
vt 0.178549 0.952045
vt 0.155556 0.967373
vt 0.142144 0.984618
vt 0.096577 0.967013
vt 0.100946 0.975751
vt 0.100946 0.953905
vt 0.119724 0.735189
vt 0.120824 0.740691
vt 0.135127 0.726388
vt 0.129626 0.727488
vt 0.096577 0.945167
vt 0.074731 0.945167
vt 0.087838 0.971382
vt 0.134027 0.720886
vt 0.139528 0.719786
vt 0.138428 0.714285
vt 0.119724 0.706583
vt 0.097796 0.720070
vt 0.100305 0.725087
vt 0.070361 0.980121
vt 0.079100 0.975751
vt 0.158643 0.722292
vt 0.160887 0.734634
vt 0.095287 0.715052
vt 0.170338 0.689712
vt 0.170338 0.695322
vt 0.164728 0.706542
vt 0.164728 0.667272
vt 0.159076 0.695322
vt 0.153466 0.695322
vt 0.164687 0.667272
vt 0.164687 0.706542
vt 0.092207 0.980121
vt 0.119724 0.667272
vt 0.125334 0.667272
vt 0.136554 0.695322
vt 0.119724 0.706542
vt 0.139569 0.715560
vt 0.160887 0.706583
vt 0.195727 0.905420
vt 0.195727 0.915190
vt 0.185957 0.934730
vt 0.185957 0.866341
vt 0.102814 0.730105
vt 0.110341 0.732614
vt 0.095287 0.727596
vt 0.097796 0.732614
vt 0.147815 0.706542
vt 0.136595 0.700932
vt 0.153425 0.667272
vt 0.153425 0.706542
vt 0.095287 0.697193
vt 0.109204 0.672839
vt 0.108508 0.667272
vt 0.108508 0.712502
vt 0.161289 0.956065
vt 0.160607 0.957110
vt 0.155546 0.953851
vt 0.155798 0.952819
vt 0.159803 0.958250
vt 0.154987 0.954734
vt 0.159025 0.959242
vt 0.154236 0.955374
vt 0.157885 0.960521
vt 0.152907 0.956176
vt 0.139314 0.860172
vt 0.140800 0.860795
vt 0.141781 0.861465
vt 0.142569 0.862500
vt 0.142953 0.863623
vt 0.138244 0.859723
vt 0.135993 0.861255
vt 0.135881 0.859054
vt 0.149938 0.913620
vt 0.149883 0.911488
vt 0.152229 0.913870
vt 0.085988 0.961608
vt 0.088341 0.959255
vt 0.088281 0.961327
vt 0.150233 0.958398
vt 0.149591 0.956141
vt 0.152119 0.956897
vt 0.151834 0.920061
vt 0.149472 0.919899
vt 0.157077 0.961415
vt 0.155256 0.963327
vt 0.170126 0.914210
vt 0.169977 0.920577
vt 0.068036 0.961608
vt 0.132500 0.923347
vt 0.143314 0.923726
vt 0.076956 0.961732
vt 0.076962 0.972510
vt 0.072496 0.961735
vt 0.068315 0.972515
vt 0.068036 0.961701
vt 0.072559 0.992508
vt 0.068593 0.991488
vt 0.068036 0.988271
vt 0.076969 0.984419
vt 0.068320 0.984786
vt 0.078876 0.985157
vt 0.079244 0.988072
vt 0.078726 0.990758
vt 0.077004 0.991540
vt 0.191358 0.869864
vt 0.191364 0.859086
vt 0.195824 0.859088
vt 0.200284 0.859054
vt 0.200005 0.869868
vt 0.199727 0.888842
vt 0.195761 0.889861
vt 0.200284 0.885624
vt 0.191351 0.881773
vt 0.200000 0.882139
vt 0.189076 0.885426
vt 0.189444 0.882511
vt 0.191316 0.888893
vt 0.189594 0.888112
s 1
f 25/1/1 26/2/2 257/3/3 258/4/4
f 260/5/5 33/6/6 30/7/7 32/8/7
f 35/9/8 261/10/8 31/11/8 29/12/8
f 261/13/9 260/14/5 32/15/10 31/16/10
f 64/17/11 66/18/12 36/19/13 34/20/14
f 65/21/8 259/22/8 261/10/8 35/9/8
f 59/23/15 264/24/16 263/25/17 37/26/18
f 35/9/8 29/12/8 45/27/8 44/28/8
f 262/29/19 67/30/20 37/26/18 263/25/17
f 58/31/21 38/32/22 53/33/23 61/34/24
f 76/35/25 60/36/26 39/37/27 68/38/28
f 75/39/29 59/23/15 37/26/18 67/30/20
f 70/40/30 69/41/31 42/42/32 43/43/33
f 45/44/30 46/45/31 41/46/31 44/47/30
f 29/48/34 30/49/34 46/50/34 45/51/34
f 65/21/8 35/9/8 44/28/8 70/52/8
f 26/53/2 25/54/1 43/43/33 42/42/32
f 46/50/34 30/49/34 47/55/34 48/56/34
f 63/57/35 33/58/6 50/59/36 73/60/37
f 66/18/12 28/61/38 52/62/39 74/63/40
f 257/3/3 26/2/2 51/64/41 265/65/42
f 33/58/6 260/66/5 266/67/43 50/59/36
f 267/68/44 61/69/24 53/70/23 269/71/45
f 60/36/26 52/62/39 56/72/46 62/73/47
f 265/74/42 51/75/41 55/76/48 268/77/49
f 38/78/22 270/79/50 269/71/45 53/70/23
f 39/37/27 60/36/26 62/73/47 54/80/51
f 268/77/49 55/76/48 61/69/24 267/68/44
f 73/60/37 50/59/36 59/23/15 75/39/29
f 74/63/40 52/62/39 60/36/26 76/35/25
f 51/81/41 58/31/21 61/34/24 55/82/48
f 50/59/36 266/67/43 264/24/16 59/23/15
f 49/83/52 74/63/40 76/35/25 57/84/53
f 51/81/41 73/60/37 75/39/29 58/31/21
f 36/19/13 66/18/12 74/63/40 49/83/52
f 26/85/2 63/57/35 73/60/37 51/86/41
f 25/87/8 65/21/8 70/52/8 43/88/8
f 44/89/30 41/90/31 69/41/31 70/40/30
f 58/31/21 75/39/29 67/30/20 38/32/22
f 57/84/53 76/35/25 68/38/28 40/91/54
f 270/79/50 38/78/22 67/30/20 262/29/19
f 25/87/8 258/92/8 259/22/8 65/21/8
f 27/93/55 28/61/38 66/18/12 64/17/11
f 99/94/56 96/95/57 78/96/58 86/97/59
f 108/98/60 109/99/57 123/100/61 112/101/62
f 97/102/60 90/103/63 80/104/64 87/105/65
f 114/106/66 104/107/67 115/108/63 121/109/68
f 99/110/56 95/111/69 81/112/70 94/113/71
f 88/114/72 102/115/73 87/105/65 80/104/64
f 100/116/74 92/117/75 83/118/76 91/119/66
f 104/120/67 116/121/77 126/122/78 117/123/72
f 111/124/71 105/125/74 112/101/62 123/100/61
f 98/126/8 95/127/69 77/128/79 85/129/80
f 95/130/69 99/131/56 86/132/59 77/133/79
f 101/134/67 89/135/77 79/136/78 88/137/72
f 102/138/73 86/139/59 78/140/58 87/141/65
f 85/142/80 77/143/79 86/144/59 102/145/73
f 88/114/72 79/146/78 85/147/80 102/115/73
f 106/148/56 109/149/57 127/150/58 119/151/59
f 98/152/8 85/153/80 79/136/78 89/135/77
f 90/154/63 101/134/67 88/137/72 80/155/64
f 91/119/66 101/156/67 90/157/63 84/158/68
f 108/159/60 115/160/63 125/161/64 118/162/65
f 91/119/66 83/118/76 89/163/77 101/156/67
f 98/164/8 89/163/77 83/118/76 92/117/75
f 93/165/81 100/116/74 91/119/66 84/158/68
f 117/166/72 126/167/78 120/168/80 103/169/73
f 105/125/74 113/170/75 122/171/76 114/106/66
f 94/113/71 81/112/70 92/117/75 100/116/74
f 98/164/8 92/117/75 81/112/70 95/111/69
f 96/172/57 99/110/56 94/113/71 82/173/61
f 115/174/63 104/120/67 117/123/72 125/175/64
f 112/101/62 105/125/74 114/106/66 121/109/68
f 114/106/66 122/171/76 116/176/77 104/107/67
f 108/177/60 118/178/65 127/179/58 109/180/57
f 94/113/71 100/116/74 93/165/81 82/173/61
f 107/181/8 110/182/69 128/183/79 120/184/80
f 97/185/60 93/165/81 84/158/68 90/157/63
f 103/186/73 119/187/59 127/188/58 118/189/65
f 97/185/60 96/172/57 82/173/61 93/165/81
f 107/190/8 120/191/80 126/122/78 116/121/77
f 97/192/60 87/193/65 78/194/58 96/195/57
f 111/124/71 124/196/70 113/170/75 105/125/74
f 108/98/60 112/101/62 121/109/68 115/108/63
f 109/99/57 106/197/56 111/124/71 123/100/61
f 107/198/8 116/176/77 122/171/76 113/170/75
f 117/166/72 103/169/73 118/162/65 125/161/64
f 107/198/8 113/170/75 124/196/70 110/199/69
f 106/197/56 110/199/69 124/196/70 111/124/71
f 110/200/69 106/201/56 119/202/59 128/203/79
f 120/204/80 128/205/79 119/206/59 103/207/73
f 129/208/82 134/209/83 136/210/84 131/211/85
f 131/211/85 136/210/84 135/212/86 132/213/87
f 132/213/87 135/212/86 133/214/88 130/215/89
f 71/216/90 130/215/89 133/214/88 72/217/91
f 26/53/2 42/42/32 134/209/83 129/208/82
f 63/57/35 26/85/2 129/218/82 131/219/85 132/220/87 130/221/89 71/222/90
f 42/42/32 69/41/31 72/217/91 133/214/88 135/212/86 136/210/84 134/209/83
f 137/223/92 140/224/93 139/225/94
f 140/226/93 138/227/95 139/228/94
f 141/229/96 144/230/97 143/231/98
f 144/232/97 142/233/99 143/234/98
f 141/235/96 138/227/95 140/226/93 144/236/97
f 144/232/97 140/237/93 137/238/92 142/233/99
f 30/7/100 33/6/6 139/228/94 138/227/95 47/239/101
f 47/239/101 138/227/95 141/235/96 48/240/102
f 33/58/6 63/57/35 71/222/90 137/223/92 139/225/94
f 137/238/92 71/216/90 72/217/91 142/233/99
f 41/46/31 46/45/31 48/241/102 141/229/96 143/231/98
f 69/41/31 41/90/31 143/234/98 142/233/99 72/217/91
f 145/242/34 272/243/103 271/244/104 146/245/105
f 274/246/106 32/247/7 30/248/7 149/249/107
f 151/250/8 29/251/8 31/252/8 275/253/8
f 176/254/108 150/255/109 152/256/110 178/257/111
f 177/258/8 151/250/8 275/253/8 273/259/8
f 171/260/112 153/261/113 277/262/114 278/263/115
f 151/250/8 160/264/8 45/265/8 29/251/8
f 276/266/116 277/262/114 153/261/113 179/267/117
f 170/268/118 173/269/119 165/270/120 154/271/121
f 188/272/122 180/273/123 155/274/124 172/275/26
f 187/276/125 179/267/117 153/261/113 171/260/112
f 182/277/30 159/278/126 158/279/127 181/280/31
f 45/281/30 160/282/30 157/283/31 46/284/31
f 177/258/8 182/285/8 160/264/8 151/250/8
f 146/286/105 158/279/127 159/278/126 145/287/34
f 175/288/128 185/289/129 162/290/130 149/291/107
f 178/257/111 186/292/131 164/293/132 148/294/133
f 271/244/104 279/295/134 163/296/135 146/245/105
f 149/291/107 162/290/130 280/297/136 274/298/106
f 281/299/137 283/300/138 165/301/120 173/302/119
f 172/275/26 174/303/139 168/304/140 164/293/132
f 279/305/134 282/306/141 167/307/142 163/308/135
f 154/309/121 165/301/120 283/300/138 284/310/143
f 155/274/124 166/311/144 174/303/139 172/275/26
f 282/306/141 281/299/137 173/302/119 167/307/142
f 185/289/129 187/276/125 171/260/112 162/290/130
f 186/292/131 188/272/122 172/275/26 164/293/132
f 163/312/135 167/313/142 173/269/119 170/268/118
f 162/290/130 171/260/112 278/263/115 280/297/136
f 161/314/145 169/315/146 188/272/122 186/292/131
f 163/312/135 170/268/118 187/276/125 185/289/129
f 152/256/110 161/314/145 186/292/131 178/257/111
f 146/316/105 163/317/135 185/289/129 175/288/128
f 145/318/8 159/319/8 182/285/8 177/258/8
f 160/320/30 182/277/30 181/280/31 157/321/31
f 170/268/118 154/271/121 179/267/117 187/276/125
f 169/315/146 156/322/147 180/273/123 188/272/122
f 284/310/143 276/266/116 179/267/117 154/309/121
f 145/318/8 177/258/8 273/259/8 272/323/8
f 147/324/148 176/254/108 178/257/111 148/294/133
f 211/325/149 198/326/150 190/327/151 208/328/152
f 220/329/60 224/330/153 235/331/154 221/332/152
f 209/333/60 199/334/155 192/335/156 202/336/157
f 226/337/158 233/338/159 227/339/157 216/340/160
f 211/341/149 206/342/161 193/343/162 207/344/163
f 200/345/164 192/335/156 199/334/155 214/346/165
f 212/347/166 203/348/158 195/349/167 204/350/168
f 216/351/160 229/352/164 238/353/169 228/354/170
f 223/355/161 235/331/154 224/330/153 217/356/166
f 210/357/8 197/358/171 189/359/172 207/360/163
f 207/361/163 189/362/172 198/363/150 211/364/149
f 213/365/160 200/366/164 191/367/169 201/368/170
f 214/369/165 199/370/155 190/371/151 198/372/150
f 197/373/171 214/374/165 198/375/150 189/376/172
f 200/345/164 214/346/165 197/377/171 191/378/169
f 218/379/149 231/380/150 239/381/151 221/382/152
f 210/383/8 201/368/170 191/367/169 197/384/171
f 202/385/157 192/386/156 200/366/164 213/365/160
f 203/348/158 196/387/159 202/388/157 213/389/160
f 220/390/60 230/391/155 237/392/156 227/393/157
f 203/348/158 213/389/160 201/394/170 195/349/167
f 210/395/8 204/350/168 195/349/167 201/394/170
f 205/396/153 196/387/159 203/348/158 212/347/166
f 229/397/164 215/398/165 232/399/171 238/400/169
f 217/356/166 226/337/158 234/401/167 225/402/168
f 206/342/161 212/347/166 204/350/168 193/343/162
f 210/395/8 207/344/163 193/343/162 204/350/168
f 208/403/152 194/404/154 206/342/161 211/341/149
f 227/405/157 237/406/156 229/352/164 216/351/160
f 224/330/153 233/338/159 226/337/158 217/356/166
f 226/337/158 216/340/160 228/407/170 234/401/167
f 220/408/60 221/409/152 239/410/151 230/411/155
f 206/342/161 194/404/154 205/396/153 212/347/166
f 219/412/8 232/413/171 240/414/172 222/415/163
f 209/416/60 202/388/157 196/387/159 205/396/153
f 215/417/165 230/418/155 239/419/151 231/420/150
f 209/416/60 205/396/153 194/404/154 208/403/152
f 219/421/8 228/354/170 238/353/169 232/422/171
f 209/423/60 208/424/152 190/425/151 199/426/155
f 223/355/161 217/356/166 225/402/168 236/427/162
f 220/329/60 227/339/157 233/338/159 224/330/153
f 221/332/152 235/331/154 223/355/161 218/428/149
f 219/429/8 225/402/168 234/401/167 228/407/170
f 229/397/164 237/392/156 230/391/155 215/398/165
f 219/429/8 222/430/163 236/427/162 225/402/168
f 218/428/149 223/355/161 236/427/162 222/430/163
f 222/431/163 240/432/172 231/433/150 218/434/149
f 232/435/171 215/436/165 231/437/150 240/438/172
f 241/439/173 243/440/174 248/441/175 246/442/176
f 243/440/174 244/443/177 247/444/178 248/441/175
f 244/443/177 242/445/179 245/446/180 247/444/178
f 183/447/181 184/448/182 245/446/180 242/445/179
f 146/286/105 241/439/173 246/442/176 158/279/127
f 175/288/128 183/449/181 242/450/179 244/451/177 243/452/174 241/453/173 146/316/105
f 158/279/127 246/442/176 248/441/175 247/444/178 245/446/180 184/448/182 181/280/31
f 249/454/183 251/455/184 252/456/185
f 252/457/185 251/458/184 250/459/186
f 253/460/187 255/461/98 256/462/188
f 256/463/188 255/464/98 254/465/189
f 253/466/187 256/467/188 252/457/185 250/459/186
f 256/463/188 254/465/189 249/468/183 252/469/185
f 30/248/190 47/470/191 250/459/186 251/458/184 149/249/107
f 47/470/191 48/471/102 253/466/187 250/459/186
f 149/291/107 251/455/184 249/454/183 183/449/181 175/288/128
f 249/468/183 254/465/189 184/448/182 183/447/181
f 157/283/31 255/461/98 253/460/187 48/472/102 46/284/31
f 181/280/31 184/448/182 254/465/189 255/464/98 157/321/31
f 31/16/10 32/15/10 274/473/106 275/474/192
f 28/61/38 27/93/55 258/475/4 257/476/3
f 27/93/55 64/17/193 259/477/194 258/475/4
f 34/20/14 36/19/13 260/478/5 261/479/9
f 40/91/54 68/38/28 262/480/19 263/481/17
f 57/84/53 40/91/54 263/481/17 264/482/16
f 52/62/39 28/61/38 257/476/3 265/483/42
f 36/19/13 49/83/52 266/484/43 260/478/5
f 62/73/47 56/72/46 268/485/49 267/486/44
f 56/72/46 52/62/39 265/483/42 268/485/49
f 39/37/27 54/80/51 269/487/45 270/488/50
f 49/83/52 57/84/53 264/482/16 266/484/43
f 54/80/51 62/73/47 267/486/44 269/487/45
f 64/17/193 34/20/14 261/479/9 259/477/194
f 68/38/28 39/37/27 270/488/50 262/480/19
f 147/324/148 148/294/133 271/489/104 272/490/103
f 176/254/195 147/324/148 272/490/103 273/491/196
f 152/256/110 150/255/109 275/492/192 274/493/106
f 180/273/123 156/322/147 277/494/114 276/495/116
f 156/322/147 169/315/146 278/496/115 277/494/114
f 148/294/133 164/293/132 279/497/134 271/489/104
f 161/314/145 152/256/110 274/493/106 280/498/136
f 168/304/140 174/303/139 281/499/137 282/500/141
f 164/293/132 168/304/140 282/500/141 279/497/134
f 166/311/144 155/274/124 284/501/143 283/502/138
f 169/315/146 161/314/145 280/498/136 278/496/115
f 174/303/139 166/311/144 283/502/138 281/499/137
f 150/255/109 176/254/195 273/491/196 275/492/192
f 155/274/124 180/273/123 276/495/116 284/501/143
l 2 3
l 4 5
l 6 1
l 8 9
l 10 11
l 12 7
l 14 15
l 16 17
l 18 13
l 20 21
l 22 23
l 24 19
