# Blender 5.1.2
# www.blender.org
o Couch_1.002
v 8.896233 0.277552 -2.157516
v 8.894410 1.354139 -2.062639
v 8.751100 0.368942 0.640241
v 8.751100 1.296747 0.640241
v 4.130127 0.277552 -2.249038
v 4.129725 1.345517 -2.228113
v 4.079402 0.277552 0.392499
v 4.079402 1.296747 0.392499
v 8.050985 1.354139 -2.078834
v 8.092596 0.369247 0.633140
v 8.052808 0.277552 -2.173711
v 8.124955 1.295580 0.561597
v 8.104450 3.082621 -2.386032
v 8.898505 3.096447 -2.275878
v 8.814150 3.009004 0.641451
v 8.127780 3.010031 0.628272
v 8.063599 1.269142 -2.735651
v 8.907023 1.269142 -2.719455
v 8.907520 0.277552 -2.745361
v 8.064095 0.277552 -2.761558
v 4.141416 0.277552 -2.836885
v 4.140918 1.269142 -2.810977
v 4.147396 3.844577 -3.148324
v 8.124860 2.460885 0.562016
v 8.054768 2.448513 -2.275775
v 8.898088 2.414583 -2.254131
v 8.751100 2.485300 0.640241
v 9.059706 3.023339 -2.154377
v 8.928534 2.959207 0.485615
v 9.076308 2.493366 -2.154058
v 8.941504 2.558605 0.485864
v 8.090880 2.773375 0.632623
v 8.898245 2.776864 -2.262325
v 8.055567 2.776864 -2.317394
v 8.842473 2.776864 0.641995
v 9.110031 2.769245 -2.153409
v 8.966834 2.765826 0.486351
v 8.472696 1.354139 -2.070737
v 8.420795 0.368942 0.632017
v 8.474519 0.277552 -2.165615
v 8.420759 1.296747 0.633897
v 8.480886 3.184639 -2.497211
v 8.423579 3.090683 0.633951
v 8.485310 1.269142 -2.727552
v 8.485806 0.277552 -2.753459
v 8.355870 3.789381 -2.467189
v 8.367064 3.713005 -3.050054
v 8.476479 2.448513 -2.267677
v 8.420759 2.457279 0.633897
v 8.479290 2.776864 -2.414106
v 8.420759 2.776864 0.633897
v 8.052609 0.000000 -0.187686
v 8.052609 0.308562 -0.187686
v 8.575408 0.000000 -0.203014
v 8.575408 0.308562 -0.203014
v 8.054528 0.000000 0.258530
v 8.054528 0.308562 0.258530
v 8.576626 0.000000 0.276761
v 8.576626 0.308562 0.276761
v 8.316274 0.000000 -0.271163
v 8.052609 0.154281 -0.187686
v 8.316274 0.308562 -0.271163
v 8.575408 0.154281 -0.203014
v 8.607640 0.000000 0.031613
v 8.607640 0.308562 0.031613
v 8.576626 0.154281 0.276761
v 8.304865 0.000000 0.322980
v 8.304865 0.308562 0.322980
v 8.054528 0.154281 0.258530
v 8.013498 0.000000 0.020203
v 8.013498 0.308562 0.020203
v 8.310570 0.308562 0.025908
v 8.310570 0.000000 0.025908
v 8.013498 0.154281 0.020203
v 8.304865 0.154281 0.322980
v 8.607640 0.154281 0.031613
v 8.316274 0.154281 -0.271163
v 8.360817 0.154281 -2.590765
v 8.652184 0.154281 -2.287990
v 8.349408 0.154281 -1.996623
v 8.058042 0.154281 -2.299398
v 8.355113 0.000000 -2.293693
v 8.355113 0.308562 -2.293693
v 8.058042 0.308562 -2.299398
v 8.058042 0.000000 -2.299398
v 8.099072 0.154281 -2.061071
v 8.349408 0.308562 -1.996623
v 8.349408 0.000000 -1.996623
v 8.621169 0.154281 -2.042842
v 8.652184 0.308562 -2.287990
v 8.652184 0.000000 -2.287990
v 8.619951 0.154281 -2.522617
v 8.360817 0.308562 -2.590765
v 8.097153 0.154281 -2.507288
v 8.360817 0.000000 -2.590765
v 8.621169 0.308562 -2.042842
v 8.621169 0.000000 -2.042842
v 8.099072 0.308562 -2.061071
v 8.099072 0.000000 -2.061071
v 8.619951 0.308562 -2.522617
v 8.619951 0.000000 -2.522617
v 8.097153 0.308562 -2.507288
v 8.097153 0.000000 -2.507288
v 8.671628 3.478806 -2.414594
v 8.486582 3.731472 -2.457092
v 8.639967 3.578176 -2.431140
v 8.572235 3.670659 -2.446697
v 8.497775 3.655097 -3.039957
v 8.682940 3.401680 -3.003194
v 8.583445 3.594182 -3.030330
v 8.651219 3.501425 -3.016874
v 8.261752 3.831077 -2.474460
v 8.058208 3.701316 -2.454938
v 8.053163 3.894629 -2.486793
v 7.847676 3.844577 -3.077268
v 8.272944 3.754701 -3.057325
v 8.069522 3.624022 -3.044109
v 8.064356 3.818253 -3.069658
v -0.635977 0.277552 -2.340562
v -0.637799 1.354139 -2.245685
v -0.578668 0.388640 0.461082
v -0.578668 1.296747 0.461082
v 0.205626 1.354139 -2.229488
v 0.039719 0.389011 0.479695
v 0.207448 0.277552 -2.324365
v 0.010788 1.295328 0.408779
v 0.163992 3.082621 -2.538513
v -0.633704 3.096447 -2.458925
v -0.655308 2.990157 0.459610
v 0.007458 2.994385 0.472338
v 0.218239 1.269142 -2.886304
v -0.625186 1.269142 -2.902502
v -0.624689 0.277552 -2.928407
v 0.218736 0.277552 -2.912212
v 0.010885 2.461663 0.409293
v 0.209408 2.448513 -2.426429
v -0.634122 2.414583 -2.437177
v -0.578668 2.498746 0.461082
v -0.799451 3.023339 -2.343702
v -0.755424 2.945384 0.457688
v -0.816053 2.493366 -2.344020
v -0.767612 2.572666 0.457454
v 0.041827 2.772623 0.479147
v -0.633965 2.776864 -2.445371
v 0.210207 2.776864 -2.468050
v -0.689736 2.776864 0.458949
v -0.849777 2.769245 -2.344669
v -0.791134 2.765089 0.457001
v -0.216086 1.354139 -2.237586
v -0.267980 0.388640 0.464763
v -0.214265 0.277552 -2.332464
v -0.268023 1.296747 0.467048
v -0.207897 3.184639 -2.664060
v -0.271451 3.070432 0.466982
v -0.203474 1.269142 -2.894403
v -0.202976 0.277552 -2.920310
v -0.084126 3.789381 -2.629262
v -0.072933 3.713005 -3.212127
v -0.212305 2.448513 -2.434528
v -0.268023 2.457279 0.467048
v -0.209493 2.776864 -2.580957
v -0.268023 2.776864 0.467048
v 0.131398 0.000000 -0.339797
v 0.131398 0.308562 -0.339797
v -0.390427 0.000000 -0.375186
v -0.390427 0.308562 -0.375186
v 0.112349 0.000000 0.106017
v 0.112349 0.308562 0.106017
v -0.410063 0.000000 0.104190
v -0.410063 0.308562 0.104190
v -0.128867 0.000000 -0.433336
v 0.131398 0.154281 -0.339797
v -0.128867 0.308562 -0.433336
v -0.390427 0.154281 -0.375186
v -0.431643 0.000000 -0.141969
v -0.431643 0.308562 -0.141969
v -0.410063 0.154281 0.104190
v -0.140276 0.000000 0.160807
v -0.140276 0.308562 0.160807
v 0.112349 0.154281 0.106017
v 0.162499 0.000000 -0.130559
v 0.162499 0.308562 -0.130559
v -0.134572 0.308562 -0.136264
v -0.134572 0.000000 -0.136264
v 0.162499 0.154281 -0.130559
v -0.140276 0.154281 0.160807
v -0.431643 0.154281 -0.141969
v -0.128867 0.154281 -0.433336
v -0.084324 0.154281 -2.752937
v -0.387100 0.154281 -2.461570
v -0.095733 0.154281 -2.158794
v 0.207042 0.154281 -2.450161
v -0.090029 0.000000 -2.455865
v -0.090029 0.308562 -2.455865
v 0.207042 0.308562 -2.450161
v 0.207042 0.000000 -2.450161
v 0.156892 0.154281 -2.213584
v -0.095733 0.308562 -2.158794
v -0.095733 0.000000 -2.158794
v -0.365520 0.154281 -2.215412
v -0.387100 0.308562 -2.461570
v -0.387100 0.000000 -2.461570
v -0.345883 0.154281 -2.694786
v -0.084324 0.308562 -2.752937
v 0.175941 0.154281 -2.659399
v -0.084324 0.000000 -2.752937
v -0.365520 0.308562 -2.215412
v -0.365520 0.000000 -2.215412
v 0.156892 0.308562 -2.213584
v 0.156892 0.000000 -2.213584
v -0.345883 0.308562 -2.694786
v -0.345883 0.000000 -2.694786
v 0.175941 0.308562 -2.659399
v 0.175941 0.000000 -2.659399
v -0.401670 3.478806 -2.588829
v -0.215128 3.731472 -2.624191
v -0.369396 3.578176 -2.604146
v -0.301117 3.670659 -2.617090
v -0.203936 3.655097 -3.207054
v -0.390376 3.401680 -3.177429
v -0.289912 3.594182 -3.200725
v -0.358154 3.501425 -3.189880
v 0.010201 3.831077 -2.632915
v 0.212848 3.701316 -2.605592
v 0.219111 3.894629 -2.637229
v 0.447115 3.844577 -3.219381
v 0.021395 3.754701 -3.215780
v 0.224162 3.624022 -3.194763
v 0.230304 3.818253 -3.220096
v 4.141288 3.953804 -2.830256
v 4.135537 3.766879 -2.530733
v 4.138657 3.962045 -2.693205
v 4.136551 3.893625 -2.583572
v 7.841568 3.953804 -2.759200
v 8.016332 3.766176 -2.462392
v 8.053122 3.894657 -2.486794
v 7.863122 3.961951 -2.622513
v 7.927089 3.893274 -2.513874
v 0.254979 3.766176 -2.611433
v 0.441008 3.953804 -2.901312
v 0.219153 3.894657 -2.637229
v 0.346132 3.893274 -2.659450
v 0.414223 3.961951 -2.765554
v 4.135771 0.277552 -2.542962
v 8.058452 0.277552 -2.467635
v 8.900717 1.311641 -2.391047
v 8.901876 0.277552 -2.451438
v 8.361467 3.751193 -2.758622
v 8.480163 0.277552 -2.459537
v 8.677284 3.440243 -2.708894
v 8.645594 3.539801 -2.724007
v 8.577840 3.632421 -2.738513
v 8.492178 3.693285 -2.748524
v 8.058760 3.856441 -2.778225
v 8.267348 3.792889 -2.765893
v 0.213092 0.277552 -2.618289
v -0.631492 1.311641 -2.574093
v -0.630333 0.277552 -2.634485
v -0.078530 3.751193 -2.920695
v -0.208621 0.277552 -2.626387
v -0.396023 3.440243 -2.883129
v -0.363775 3.539801 -2.897013
v -0.295515 3.632421 -2.908907
v -0.209532 3.693285 -2.915622
v 0.224708 3.856441 -2.928663
v 0.015798 3.792889 -2.924347
v 7.843572 3.917981 -2.863517
v 0.442860 3.920681 -2.997767
v 4.143216 3.919331 -2.930642
v 8.845507 1.296747 0.484021
v 8.845507 0.277552 0.484021
v 8.423793 0.277552 0.475922
v 8.037820 1.296747 0.387986
v 8.002082 0.277552 0.467826
v 8.423793 3.184639 0.475922
v 8.049630 3.082621 0.468739
v 8.002082 2.776864 0.467826
v 8.845507 2.422915 0.484021
v 8.037820 2.457279 0.387986
v 9.059305 2.769245 0.488127
v 9.025582 2.493366 0.487479
v 9.008980 3.023339 0.487160
v 8.845507 3.096447 0.484021
v -0.686702 1.296747 0.300974
v -0.686702 0.277552 0.300974
v -0.264990 0.277552 0.309073
v 0.124075 1.296747 0.236020
v 0.156723 0.277552 0.317170
v -0.264990 3.184639 0.309073
v 0.109172 3.082621 0.316258
v 0.156723 2.776864 0.317170
v -0.686702 2.422915 0.300974
v 0.124075 2.457279 0.236020
v -0.900503 2.769245 0.296868
v -0.866779 2.493366 0.297516
v -0.850176 3.023339 0.297835
v -0.686702 3.096447 0.300974
vn 0.9998 -0.0000 0.0192
vn 0.9998 0.0189 -0.0001
vn 0.9607 -0.0000 0.2777
vn 0.8576 -0.3274 0.3966
vn -0.7841 0.3157 0.5343
vn -0.6028 0.5989 0.5271
vn -0.0004 0.9998 0.0209
vn -0.0135 0.7093 0.7048
vn -0.0000 -1.0000 -0.0000
vn -0.3548 -0.2741 0.8939
vn -0.0192 0.0393 0.9990
vn -0.0677 0.0191 0.9975
vn -0.0983 0.0095 0.9951
vn -0.5999 0.0299 0.7995
vn -0.4597 -0.3690 0.8078
vn -0.7816 -0.1053 -0.6148
vn -0.9688 0.0054 0.2476
vn -0.7225 0.6422 0.2559
vn -0.6649 0.4746 -0.5767
vn -0.0339 0.9664 0.2549
vn 0.0392 0.6260 -0.7788
vn 0.4009 -0.0879 -0.9119
vn 0.4964 0.6234 -0.6041
vn 0.7731 0.5107 -0.3763
vn 0.8830 0.0185 -0.4691
vn -0.0414 -0.0268 0.9988
vn 0.4574 -0.0130 0.8892
vn 0.3582 0.3822 0.8518
vn -0.0307 0.5477 0.8361
vn 0.0656 -0.2038 -0.9768
vn 0.0192 0.0261 -0.9995
vn 0.0192 -0.0520 -0.9985
vn 0.7468 0.0036 -0.6650
vn 0.7147 0.0186 -0.6992
vn 0.9985 0.0527 0.0123
vn 0.2784 -0.9459 0.1664
vn -0.7110 -0.1760 -0.6808
vn 0.0314 -0.2127 -0.9766
vn 0.4823 -0.0003 0.8760
vn 0.3581 -0.0723 0.9309
vn -0.0984 -0.0291 0.9947
vn 0.5210 -0.3256 -0.7890
vn 0.8150 -0.3656 0.4495
vn -0.9754 -0.0611 0.2117
vn 0.7259 0.0273 0.6873
vn 0.6939 0.5301 0.4873
vn 0.4016 -0.1781 0.8984
vn 0.3732 -0.0147 0.9276
vn 0.7679 -0.4958 -0.4056
vn 0.6874 -0.5230 0.5039
vn 0.3731 0.8614 0.3446
vn 0.4809 0.1687 0.8604
vn -0.5976 -0.0940 0.7963
vn -0.5519 -0.0450 0.8327
vn -0.4457 0.3895 0.8060
vn 0.3846 -0.4009 0.8315
vn -1.0000 -0.0000 -0.0077
vn -0.7430 0.6693 -0.0057
vn -0.5944 0.6078 -0.5266
vn -0.7485 -0.0000 -0.6632
vn -0.0000 1.0000 -0.0000
vn -0.5867 0.6029 0.5407
vn -0.0312 0.6630 0.7480
vn 0.7343 0.6788 -0.0039
vn 0.5982 0.6009 -0.5301
vn -0.0188 0.6495 -0.7601
vn 0.7220 -0.0000 0.6919
vn 1.0000 -0.0000 -0.0053
vn 0.5806 0.5944 0.5564
vn -0.7430 -0.6693 -0.0057
vn -0.5867 -0.6029 0.5407
vn -0.7353 -0.0000 0.6777
vn 0.7484 -0.0000 -0.6632
vn -0.0247 -0.0000 -0.9997
vn -0.0417 -0.0000 0.9991
vn -0.0313 -0.6630 0.7480
vn 0.5806 -0.5944 0.5564
vn 0.7343 -0.6788 -0.0039
vn 0.5982 -0.6009 -0.5301
vn -0.5944 -0.6078 -0.5266
vn -0.0188 -0.6495 -0.7601
vn -0.0313 0.6630 0.7480
vn -0.0312 -0.6630 0.7480
vn 0.9790 0.2038 -0.0079
vn 0.7261 0.0595 -0.6850
vn 0.6737 0.2436 -0.6977
vn 0.8933 0.4475 -0.0415
vn 0.5352 0.4332 -0.7252
vn 0.7061 0.7037 -0.0787
vn 0.3768 0.5376 -0.7544
vn 0.4993 0.8602 -0.1031
vn 0.4097 0.9055 -0.1108
vn 0.3032 0.5484 -0.7793
vn 0.7006 0.2559 0.6661
vn 0.6475 0.4340 0.6265
vn 0.5084 0.6208 0.5968
vn 0.3500 0.7265 0.5913
vn 0.2761 0.7423 0.6106
vn 0.2423 0.7680 0.5929
vn 0.2659 0.7409 0.6168
vn -0.0104 0.1525 0.9882
vn 0.0958 0.5601 -0.8228
vn 0.2028 0.5888 -0.7824
vn 0.0190 -0.1299 -0.9913
vn 0.2678 0.5786 -0.7704
vn 0.3135 0.9378 -0.1493
vn 0.3534 0.9284 -0.1149
vn 0.0163 0.5269 -0.8498
vn -0.9998 -0.0000 -0.0192
vn -0.8615 -0.3011 0.4087
vn -0.9590 -0.0000 0.2833
vn -0.9991 0.0189 -0.0385
vn 0.7371 0.3149 0.5979
vn 0.5822 0.5989 0.5499
vn 0.2839 -0.2392 0.9285
vn 0.0291 0.0188 0.9994
vn 0.3960 -0.3349 0.8550
vn 0.5368 0.0303 0.8432
vn 0.0610 0.0094 0.9981
vn 0.8047 -0.1053 -0.5843
vn 0.6866 0.4746 -0.5508
vn 0.7031 0.6350 0.3201
vn 0.9456 0.0018 0.3252
vn 0.0230 0.9550 0.2958
vn -0.0092 0.6260 -0.7798
vn -0.3656 -0.0879 -0.9266
vn -0.8643 0.0185 -0.5026
vn -0.7580 0.5107 -0.4057
vn -0.4728 0.6234 -0.6227
vn 0.0023 -0.0253 0.9997
vn -0.0035 0.5076 0.8616
vn -0.1659 0.4602 0.8722
vn -0.0192 -0.0000 0.9998
vn -0.0281 -0.2038 -0.9786
vn -0.6873 0.0186 -0.7261
vn -0.7208 0.0036 -0.6932
vn -0.9983 0.0527 -0.0260
vn -0.2846 -0.9459 0.1556
vn 0.0061 -0.2127 -0.9771
vn 0.7366 -0.1760 -0.6530
vn 0.0612 -0.0283 0.9977
vn -0.2432 -0.1535 0.9577
vn -0.4770 -0.0004 0.8789
vn -0.7691 -0.5150 0.3784
vn -0.4903 -0.3256 -0.8084
vn 0.9565 -0.0643 0.2845
vn -0.9601 0.0353 0.2776
vn -0.7511 0.5942 0.2877
vn -0.5095 0.0182 0.8603
vn -0.4365 -0.3260 0.8386
vn -0.7616 -0.5792 0.2908
vn -0.7517 -0.4958 -0.4348
vn -0.2999 0.9084 0.2914
vn -0.4305 0.3303 0.8400
vn 0.5329 -0.0942 0.8409
vn 0.4834 -0.0475 0.8741
vn 0.3807 0.3615 0.8511
vn -0.3823 -0.3666 0.8482
vn 0.9995 -0.0000 0.0307
vn 0.7734 -0.0000 -0.6340
vn 0.6141 0.6078 -0.5034
vn 0.7426 0.6693 0.0228
vn 0.0025 0.6630 0.7486
vn 0.5655 0.6029 0.5628
vn 0.0480 0.6495 -0.7588
vn -0.5774 0.6009 -0.5527
vn -0.7336 0.6788 -0.0321
vn -0.7480 -0.0000 0.6637
vn -0.6015 0.5944 0.5337
vn -0.9990 -0.0000 -0.0437
vn 0.7088 -0.0000 0.7054
vn 0.5655 -0.6029 0.5628
vn 0.7426 -0.6693 0.0228
vn -0.7224 -0.0000 -0.6914
vn 0.0631 -0.0000 -0.9980
vn 0.0034 -0.0000 1.0000
vn -0.6015 -0.5944 0.5337
vn 0.0025 -0.6630 0.7486
vn -0.5774 -0.6009 -0.5527
vn -0.7336 -0.6788 -0.0321
vn 0.0480 -0.6495 -0.7588
vn 0.6141 -0.6078 -0.5034
vn -0.9780 0.2038 -0.0454
vn -0.8911 0.4475 -0.0757
vn -0.6464 0.2436 -0.7231
vn -0.6993 0.0595 -0.7123
vn -0.7026 0.7037 -0.1057
vn -0.5069 0.4332 -0.7452
vn -0.4950 0.8602 -0.1222
vn -0.3475 0.5376 -0.7683
vn -0.4051 0.9055 -0.1264
vn -0.2730 0.5484 -0.7904
vn -0.2993 0.7423 0.5995
vn -0.3724 0.7265 0.5774
vn -0.5309 0.6208 0.5768
vn -0.6710 0.4340 0.6012
vn -0.7256 0.2559 0.6387
vn -0.2649 0.7680 0.5831
vn -0.0276 0.1525 0.9879
vn -0.2895 0.7407 0.6063
vn -0.0648 0.5597 -0.8262
vn -0.1733 0.5883 -0.7899
vn -0.2380 0.5786 -0.7801
vn -0.3073 0.9379 -0.1609
vn -0.3487 0.9284 -0.1283
vn 0.1892 0.9662 -0.1749
vn 0.1487 0.9732 0.1752
vn 0.1853 0.7901 0.5843
vn -0.0885 0.6133 0.7849
vn -0.0117 0.2011 0.9795
vn -0.0259 0.2011 0.9792
vn 0.0583 0.6133 0.7877
vn -0.2076 0.7892 0.5780
vn -0.1553 0.9732 0.1694
vn -0.1825 0.9664 -0.1809
vn 0.0037 0.9810 -0.1940
vn -0.0048 0.9685 0.2490
vn -0.0147 0.6411 0.7673
vn -0.0185 0.2597 0.9655
vn 0.0062 0.9458 -0.3247
vn -0.1485 0.9527 -0.2652
vn -0.0190 0.1404 0.9899
vn 0.1569 0.9529 -0.2597
vn -0.0079 -0.8664 0.4992
vn -0.0079 -0.8664 0.4993
vn -0.0134 -0.8194 0.5730
vt 0.277398 0.605236
vt 0.291988 0.445286
vt 0.670494 0.454967
vt 0.670033 0.606431
vt 0.691411 0.014260
vt 0.684293 0.279079
vt 0.267103 0.279323
vt 0.266668 0.000092
vt 0.718093 0.657570
vt 0.718093 0.980758
vt 0.238160 0.980758
vt 0.238160 0.657570
vt 0.694826 0.059293
vt 0.698680 0.171810
vt 0.263024 0.171464
vt 0.263024 0.059293
vt 0.791748 0.318889
vt 0.791821 0.420971
vt 0.758319 0.420857
vt 0.755725 0.318615
vt 0.769689 0.657570
vt 0.769689 0.980758
vt 0.242563 0.439603
vt 0.681588 0.439603
vt 0.681588 0.488369
vt 0.231600 0.488369
vt 0.718093 0.621609
vt 0.238160 0.621610
vt 0.238160 0.585649
vt 0.718093 0.585649
vt 0.681588 0.549499
vt 0.212943 0.549499
vt 0.154760 0.718973
vt 0.157439 0.666558
vt 0.189214 0.680689
vt 0.193766 0.722511
vt 0.791892 0.584031
vt 0.838456 0.583823
vt 0.835492 0.609361
vt 0.792605 0.618658
vt 0.548663 0.519717
vt 0.548537 0.520117
vt 0.548389 0.519898
vt 0.548393 0.519712
vt 0.823408 0.374717
vt 0.823999 0.450182
vt 0.791550 0.450710
vt 0.791110 0.374777
vt 0.269774 0.640262
vt 0.269608 0.533756
vt 0.691301 0.527015
vt 0.692961 0.633975
vt 0.769689 0.621609
vt 0.769689 0.585649
vt 0.766308 0.454696
vt 0.768665 0.375385
vt 0.561431 0.519742
vt 0.561024 0.527469
vt 0.548832 0.520405
vt 0.549180 0.519713
vt 0.828176 0.420950
vt 0.828282 0.551771
vt 0.791862 0.548741
vt 0.264004 0.287605
vt 0.671003 0.287606
vt 0.280012 0.215359
vt 0.668777 0.206052
vt 0.668900 0.388949
vt 0.249088 0.387851
vt 0.681588 0.686459
vt 0.265211 0.686459
vt 0.265211 0.645636
vt 0.681588 0.645636
vt 0.848928 0.559755
vt 0.851800 0.582545
vt 0.681588 0.760740
vt 0.249981 0.761241
vt 0.265211 0.730260
vt 0.681588 0.730260
vt 0.246554 0.617409
vt 0.681588 0.617410
vt 0.847706 0.603820
vt 0.153030 0.778420
vt 0.186660 0.767111
vt 0.758418 0.549026
vt 0.755556 0.584429
vt 0.084714 0.771571
vt 0.081843 0.713425
vt 0.083204 0.793939
vt 0.152108 0.793939
vt 0.152109 0.975592
vt 0.083204 0.969979
vt 0.821284 0.621609
vt 0.821284 0.585649
vt 0.855443 0.374717
vt 0.855443 0.450053
vt 0.081843 0.645502
vt 0.759951 0.610300
vt 0.821284 0.657570
vt 0.821284 0.980758
vt 0.828123 0.318862
vt 0.107384 0.556049
vt 0.122971 0.545657
vt 0.108423 0.496817
vt 0.108423 0.564362
vt 0.109186 0.135558
vt 0.109186 0.155347
vt 0.105229 0.147431
vt 0.101271 0.139516
vt 0.123032 0.598243
vt 0.137819 0.586742
vt 0.146035 0.585099
vt 0.124675 0.606458
vt 0.089398 0.135558
vt 0.085440 0.127643
vt 0.105229 0.127643
vt 0.097313 0.131601
vt 0.109020 0.594397
vt 0.090286 0.594397
vt 0.097779 0.590650
vt 0.105273 0.586904
vt 0.144392 0.576883
vt 0.152607 0.575240
vt 0.101526 0.579410
vt 0.094033 0.583157
vt 0.090286 0.575663
vt 0.097779 0.571917
vt 0.172156 0.135942
vt 0.154456 0.127092
vt 0.173926 0.123552
vt 0.179235 0.130632
vt 0.097313 0.151389
vt 0.093356 0.143474
vt 0.181800 0.538706
vt 0.190178 0.555462
vt 0.190178 0.496817
vt 0.173422 0.538706
vt 0.139788 0.555462
vt 0.148166 0.555462
vt 0.148166 0.496817
vt 0.123032 0.547084
vt 0.176126 0.572279
vt 0.159370 0.563901
vt 0.177802 0.560550
vt 0.182829 0.567253
vt 0.148227 0.496817
vt 0.148227 0.555462
vt 0.173361 0.538706
vt 0.156605 0.496817
vt 0.086539 0.541501
vt 0.106283 0.564362
vt 0.106283 0.496817
vt 0.107322 0.505130
vt 0.123032 0.555524
vt 0.150964 0.567025
vt 0.099543 0.118797
vt 0.116008 0.107820
vt 0.100641 0.056231
vt 0.100641 0.127578
vt 0.152668 0.568928
vt 0.184504 0.555524
vt 0.181153 0.578982
vt 0.184504 0.597413
vt 0.094033 0.564423
vt 0.112766 0.564423
vt 0.105273 0.568170
vt 0.116072 0.163367
vt 0.131692 0.151218
vt 0.140370 0.149482
vt 0.117808 0.172044
vt 0.086539 0.568170
vt 0.086539 0.586904
vt 0.109020 0.575663
vt 0.138634 0.140804
vt 0.116072 0.118242
vt 0.145577 0.130391
vt 0.147312 0.139069
vt 0.085440 0.147431
vt 0.081483 0.139516
vt 0.116513 0.590650
vt 0.112766 0.583157
vt 0.177465 0.143021
vt 0.181005 0.162490
vt 0.077525 0.131601
vt 0.195912 0.091629
vt 0.187063 0.056231
vt 0.187063 0.118178
vt 0.195912 0.100479
vt 0.178149 0.100479
vt 0.186998 0.118178
vt 0.186998 0.056231
vt 0.169299 0.100479
vt 0.116513 0.571917
vt 0.116072 0.056231
vt 0.116072 0.118178
vt 0.142621 0.100479
vt 0.124922 0.056231
vt 0.147377 0.132402
vt 0.181005 0.118242
vt 0.198617 0.530329
vt 0.190239 0.496817
vt 0.190239 0.555462
vt 0.198617 0.538706
vt 0.089398 0.155347
vt 0.101271 0.159304
vt 0.077525 0.151389
vt 0.081483 0.159304
vt 0.160385 0.118178
vt 0.169234 0.118178
vt 0.169234 0.056231
vt 0.142686 0.109328
vt 0.077525 0.103430
vt 0.098381 0.127578
vt 0.098381 0.056231
vt 0.099478 0.065012
vt 0.791711 0.612426
vt 0.811011 0.600953
vt 0.812890 0.608253
vt 0.795059 0.619752
vt 0.816695 0.614509
vt 0.799798 0.626879
vt 0.822002 0.618952
vt 0.805191 0.632583
vt 0.813883 0.639895
vt 0.831360 0.624594
vt 0.808276 0.697801
vt 0.853940 0.697699
vt 0.829610 0.930834
vt 0.826172 0.941738
vt 0.818831 0.951884
vt 0.809552 0.958555
vt 0.795395 0.964906
vt 0.785201 0.969479
vt 0.762612 0.976465
vt 0.763177 0.955255
vt 0.653035 0.252963
vt 0.675868 0.253573
vt 0.678012 0.274498
vt 0.850176 0.640194
vt 0.836906 0.629660
vt 0.854671 0.624323
vt 0.832547 0.657542
vt 0.814917 0.674890
vt 0.802095 0.661466
vt 0.819500 0.645563
vt 0.762612 0.697901
vt 0.269176 0.255885
vt 0.275000 0.270065
vt 0.667637 0.270065
vt 0.667637 0.421529
vt 0.289103 0.430058
vt 0.267305 0.019246
vt 0.660420 -0.002149
vt 0.668374 0.276507
vt 0.278189 0.281395
vt 0.239039 0.634857
vt 0.686360 0.634857
vt 0.686360 0.936084
vt 0.239039 0.936084
vt 0.271076 0.073787
vt 0.663020 0.073787
vt 0.663020 0.175604
vt 0.267578 0.175918
vt 0.820960 0.672621
vt 0.854744 0.672364
vt 0.852218 0.772391
vt 0.820884 0.772533
vt 0.190949 0.634857
vt 0.190949 0.936084
vt 0.264970 0.437353
vt 0.255102 0.393459
vt 0.660128 0.393459
vt 0.660128 0.437353
vt 0.239039 0.601340
vt 0.239039 0.567823
vt 0.686360 0.567823
vt 0.686360 0.601340
vt 0.660128 0.338437
vt 0.238309 0.338437
vt 0.149157 0.901557
vt 0.121049 0.904106
vt 0.124329 0.873970
vt 0.147226 0.863788
vt 0.820812 0.935594
vt 0.820058 0.967985
vt 0.777898 0.958856
vt 0.774248 0.935385
vt 0.349658 0.594235
vt 0.349858 0.594054
vt 0.349983 0.594193
vt 0.350016 0.594455
vt 0.111095 0.668490
vt 0.145574 0.668556
vt 0.145108 0.749612
vt 0.110466 0.749051
vt 0.660813 0.648704
vt 0.268855 0.634738
vt 0.272157 0.528762
vt 0.664114 0.542727
vt 0.190949 0.601340
vt 0.190949 0.567823
vt 0.172047 0.753866
vt 0.169533 0.669206
vt 0.340045 0.602641
vt 0.349266 0.594572
vt 0.349982 0.594866
vt 0.345428 0.608199
vt 0.820843 0.900304
vt 0.786584 0.904823
vt 0.786696 0.772514
vt 0.667637 0.588891
vt 0.260639 0.587653
vt 0.298677 0.639191
vt 0.270843 0.483934
vt 0.648708 0.482945
vt 0.648597 0.647567
vt 0.660128 0.215162
vt 0.660128 0.251906
vt 0.285355 0.251906
vt 0.285355 0.215162
vt 0.763098 0.934037
vt 0.765765 0.912873
vt 0.660128 0.148303
vt 0.660128 0.175737
vt 0.285355 0.175737
vt 0.271646 0.147852
vt 0.268562 0.277312
vt 0.660128 0.277312
vt 0.766914 0.953873
vt 0.150403 0.944393
vt 0.126170 0.936244
vt 0.852109 0.900663
vt 0.854951 0.935882
vt 0.201700 0.897559
vt 0.199631 0.939458
vt 0.121016 0.848615
vt 0.121016 0.975466
vt 0.071364 0.979511
vt 0.071364 0.848615
vt 0.142859 0.601340
vt 0.142859 0.567823
vt 0.076895 0.668490
vt 0.076895 0.748917
vt 0.201699 0.848615
vt 0.850855 0.960111
vt 0.142859 0.634857
vt 0.142859 0.936084
vt 0.786748 0.672593
vt 0.089552 0.935424
vt 0.090933 0.945096
vt 0.089552 0.866341
vt 0.107513 0.922989
vt 0.115359 0.717561
vt 0.110341 0.720070
vt 0.112850 0.725087
vt 0.115359 0.730105
vt 0.107584 0.984618
vt 0.109500 0.994198
vt 0.134409 0.969289
vt 0.124829 0.971205
vt 0.102814 0.717561
vt 0.107832 0.715052
vt 0.112850 0.712543
vt 0.100305 0.712543
vt 0.065992 0.971382
vt 0.074731 0.967013
vt 0.070361 0.958274
vt 0.065992 0.949536
vt 0.132493 0.959709
vt 0.142073 0.957793
vt 0.083469 0.962644
vt 0.092207 0.958274
vt 0.087838 0.949536
vt 0.079100 0.953905
vt 0.155277 0.717804
vt 0.159765 0.714438
vt 0.156399 0.709949
vt 0.144057 0.712193
vt 0.107832 0.727596
vt 0.105323 0.722578
vt 0.176116 0.915190
vt 0.166346 0.915190
vt 0.185886 0.866341
vt 0.185886 0.934730
vt 0.127124 0.934730
vt 0.107584 0.924960
vt 0.136894 0.866341
vt 0.136894 0.934730
vt 0.157472 0.957793
vt 0.167052 0.959709
vt 0.168968 0.950129
vt 0.151724 0.936717
vt 0.136965 0.866341
vt 0.146735 0.866341
vt 0.166275 0.915190
vt 0.136965 0.934730
vt 0.065992 0.918844
vt 0.089481 0.876012
vt 0.088099 0.866341
vt 0.089481 0.945096
vt 0.140157 0.948213
vt 0.107584 0.934801
vt 0.109245 0.706935
vt 0.109941 0.712502
vt 0.109941 0.667272
vt 0.119683 0.699977
vt 0.142144 0.934801
vt 0.178549 0.952045
vt 0.155556 0.967373
vt 0.142144 0.984618
vt 0.096577 0.967013
vt 0.100946 0.975751
vt 0.100946 0.953905
vt 0.119724 0.735189
vt 0.120824 0.740691
vt 0.135127 0.726388
vt 0.129626 0.727488
vt 0.096577 0.945167
vt 0.074731 0.945167
vt 0.087838 0.971382
vt 0.134027 0.720886
vt 0.139528 0.719786
vt 0.138428 0.714285
vt 0.119724 0.706583
vt 0.097796 0.720070
vt 0.100305 0.725087
vt 0.070361 0.980121
vt 0.079100 0.975751
vt 0.158643 0.722292
vt 0.160887 0.734634
vt 0.095287 0.715052
vt 0.170338 0.689712
vt 0.170338 0.695322
vt 0.164728 0.706542
vt 0.164728 0.667272
vt 0.159076 0.695322
vt 0.153466 0.695322
vt 0.164687 0.667272
vt 0.164687 0.706542
vt 0.092207 0.980121
vt 0.119724 0.667272
vt 0.125334 0.667272
vt 0.136554 0.695322
vt 0.119724 0.706542
vt 0.139569 0.715560
vt 0.160887 0.706583
vt 0.195727 0.905420
vt 0.195727 0.915190
vt 0.185957 0.934730
vt 0.185957 0.866341
vt 0.102814 0.730105
vt 0.110341 0.732614
vt 0.095287 0.727596
vt 0.097796 0.732614
vt 0.147815 0.706542
vt 0.136595 0.700932
vt 0.153425 0.667272
vt 0.153425 0.706542
vt 0.095287 0.697193
vt 0.109204 0.672839
vt 0.108508 0.667272
vt 0.108508 0.712502
vt 0.144955 0.922219
vt 0.141445 0.930003
vt 0.122494 0.917755
vt 0.124388 0.910022
vt 0.136321 0.937573
vt 0.118292 0.924364
vt 0.130584 0.943683
vt 0.112664 0.929155
vt 0.121315 0.951466
vt 0.102702 0.935148
vt 0.123244 0.353361
vt 0.137160 0.641935
vt 0.121865 0.635073
vt 0.111840 0.627866
vt 0.103908 0.616904
vt 0.100195 0.605125
vt 0.073909 0.353252
vt 0.148173 0.646876
vt 0.171968 0.631508
vt 0.172578 0.654423
vt 0.310675 0.257968
vt 0.287297 0.279076
vt 0.287923 0.611816
vt 0.082639 0.951897
vt 0.077759 0.934996
vt 0.096786 0.940628
vt 0.101361 0.970345
vt 0.115255 0.957585
vt 0.133724 0.974543
vt 0.120083 0.988793
vt 0.172578 0.353469
vt 0.670234 0.263371
vt 0.651344 0.579780
vt 0.653795 0.566932
vt 0.673690 0.551448
vt 0.660611 0.559153
vt 0.673690 0.551448
vt 0.669964 0.558525
vt 0.291363 0.534080
vt 0.300519 0.542237
vt 0.288794 0.550489
vt 0.307236 0.547133
vt 0.288794 0.550489
vt 0.309715 0.547515
vt 0.267573 0.581638
vt 0.267552 0.568305
vt 0.267478 0.538591
vt 0.661071 0.543101
vt 0.267485 0.525206
vt 0.670929 0.534871
vt 0.669178 0.525749
vt 0.669248 0.539316
vt 0.669130 0.569318
vt 0.307182 0.565911
vt 0.669004 0.582728
vt 0.309417 0.578721
vt 0.668903 0.593487
vt 0.309328 0.588635
vt 0.675516 0.530778
vt 0.651390 0.590547
vt 0.267590 0.592335
vt 0.287103 0.530024
vt 0.651485 0.612609
vt 0.674006 0.582333
vt 0.674318 0.613218
vt 0.673694 0.551448
vt 0.309125 0.611413
vt 0.288356 0.581152
vt 0.288790 0.550488
vt 0.139929 0.967784
vt 0.198986 0.758120
vt 0.165521 0.934417
vt 0.148504 0.958211
vt 0.154351 0.950782
vt 0.160396 0.942250
vt 0.193491 0.669856
vt 0.796407 0.655195
vt 0.741067 0.458681
vt 0.772411 0.623899
vt 0.788379 0.646213
vt 0.782901 0.639248
vt 0.777229 0.631251
vt 0.746220 0.375993
vt 0.267626 0.615531
vt 0.668684 0.616816
vt 0.838174 0.308801
vt 0.838232 0.420945
vt 0.791763 0.308825
vt 0.748264 0.420990
vt 0.745355 0.308473
vt 0.792415 0.629027
vt 0.751153 0.618417
vt 0.745355 0.584938
vt 0.838310 0.544862
vt 0.748314 0.548677
vt 0.858151 0.552542
vt 0.861978 0.582872
vt 0.856587 0.610822
vt 0.838668 0.618953
vt 0.774472 0.772507
vt 0.774531 0.660363
vt 0.820941 0.660388
vt 0.867350 0.660035
vt 0.864441 0.772553
vt 0.861551 0.969979
vt 0.820290 0.980590
vt 0.867350 0.936501
vt 0.774395 0.896424
vt 0.864391 0.900240
vt 0.750727 0.934434
vt 0.754554 0.904104
vt 0.774037 0.970515
vt 0.756118 0.962384
s 1
f 1/1/1 2/2/2 270/3/3 271/4/4
f 273/5/5 9/6/6 6/7/7 8/8/8
f 11/9/9 274/10/9 7/11/9 5/12/9
f 274/13/10 273/14/5 8/15/8 7/16/11
f 39/17/12 41/18/13 12/19/14 10/20/15
f 40/21/9 272/22/9 274/10/9 11/9/9
f 34/23/16 277/24/17 276/25/18 13/26/19
f 245/27/9 244/28/9 21/29/9 20/30/9
f 275/31/20 42/32/21 13/26/19 276/25/18
f 33/33/22 14/34/23 28/35/24 36/36/25
f 51/37/26 35/38/27 15/39/28 43/40/29
f 50/41/30 34/42/16 13/43/19 42/44/21
f 45/45/31 44/46/32 18/47/33 19/48/34
f 21/49/31 22/50/32 17/51/32 20/52/31
f 249/53/9 245/27/9 20/30/9 45/54/9
f 246/55/35 247/56/1 19/48/34 18/47/33
f 38/57/36 9/58/6 25/59/37 48/60/38
f 41/18/13 4/61/39 27/62/40 49/63/41
f 270/3/3 2/2/2 26/64/42 278/65/43
f 9/66/6 273/67/5 279/68/44 25/69/37
f 280/70/45 36/71/25 28/72/24 282/73/46
f 35/38/27 27/62/40 31/74/47 37/75/48
f 278/76/43 26/77/42 30/78/49 281/79/50
f 14/80/23 283/81/51 282/73/46 28/72/24
f 15/39/28 35/38/27 37/75/48 29/82/52
f 281/79/50 30/78/49 36/71/25 280/70/45
f 48/60/38 25/59/37 34/42/16 50/41/30
f 49/63/41 27/62/40 35/38/27 51/37/26
f 26/83/42 33/33/22 36/36/25 30/84/49
f 25/69/37 279/68/44 277/24/17 34/23/16
f 24/85/53 49/63/41 51/37/26 32/86/54
f 26/83/42 48/87/38 50/88/30 33/33/22
f 12/19/14 41/18/13 49/63/41 24/85/53
f 2/89/2 38/90/36 48/91/38 26/92/42
f 247/93/9 249/53/9 45/54/9 19/94/9
f 20/95/31 17/96/32 44/46/32 45/45/31
f 33/33/22 50/88/30 42/97/21 14/34/23
f 32/86/54 51/37/26 43/40/29 16/98/55
f 283/81/51 14/80/23 42/32/21 275/31/20
f 1/99/9 271/100/9 272/22/9 40/21/9
f 3/101/56 4/61/39 41/18/13 39/17/12
f 74/102/57 71/103/58 53/104/59 61/105/60
f 83/106/61 84/107/58 98/108/62 87/109/63
f 72/110/61 65/111/64 55/112/65 62/113/66
f 89/114/67 79/115/68 90/116/64 96/117/69
f 74/118/57 70/119/70 56/120/71 69/121/72
f 63/122/73 77/123/74 62/113/66 55/112/65
f 75/124/75 67/125/76 58/126/77 66/127/67
f 79/128/68 91/129/78 101/130/79 92/131/73
f 86/132/72 80/133/75 87/109/63 98/108/62
f 73/134/9 70/135/70 52/136/80 60/137/81
f 70/138/70 74/139/57 61/140/60 52/141/80
f 76/142/68 64/143/78 54/144/79 63/145/73
f 77/146/74 61/147/60 53/148/59 62/149/66
f 60/150/81 52/151/80 61/152/60 77/153/74
f 63/122/73 54/154/79 60/155/81 77/123/74
f 81/156/57 84/157/58 102/158/59 94/159/60
f 73/160/9 60/161/81 54/144/79 64/143/78
f 65/162/64 76/142/68 63/145/73 55/163/65
f 66/127/67 76/164/68 65/165/64 59/166/69
f 83/167/61 90/168/64 100/169/65 93/170/66
f 66/127/67 58/126/77 64/171/78 76/164/68
f 73/172/9 64/171/78 58/126/77 67/125/76
f 68/173/82 75/124/75 66/127/67 59/166/69
f 92/174/73 101/175/79 95/176/81 78/177/74
f 80/133/75 88/178/83 97/179/77 89/114/67
f 69/121/72 56/120/71 67/125/76 75/124/75
f 73/172/9 67/125/76 56/120/71 70/119/70
f 71/180/58 74/118/57 69/121/72 57/181/62
f 90/182/64 79/128/68 92/131/73 100/183/65
f 87/109/63 80/133/75 89/114/67 96/117/69
f 89/114/67 97/179/77 91/184/78 79/115/68
f 83/185/61 93/186/66 102/187/59 84/188/58
f 69/121/72 75/124/75 68/173/82 57/181/62
f 82/189/9 85/190/70 103/191/80 95/192/81
f 72/193/61 68/173/82 59/166/69 65/165/64
f 78/194/74 94/195/60 102/196/59 93/197/66
f 72/193/61 71/180/58 57/181/62 68/173/82
f 82/198/9 95/199/81 101/130/79 91/129/78
f 72/200/61 62/201/66 53/202/59 71/203/58
f 86/132/72 99/204/71 88/178/83 80/133/75
f 83/106/61 87/109/63 96/117/69 90/116/64
f 84/107/58 81/205/57 86/132/72 98/108/62
f 82/206/9 91/184/78 97/179/77 88/178/83
f 92/174/73 78/177/74 93/170/66 100/169/65
f 82/206/9 88/178/83 99/204/71 85/207/70
f 81/205/57 85/207/70 99/204/71 86/132/72
f 85/208/70 81/209/57 94/210/60 103/211/80
f 95/212/81 103/213/80 94/214/60 78/215/74
f 250/216/84 109/217/85 111/218/86 251/219/87
f 251/219/87 111/218/86 110/220/88 252/221/89
f 252/221/89 110/220/88 108/222/90 253/223/91
f 248/224/92 253/223/91 108/222/90 47/225/93
f 246/55/35 18/47/33 109/217/85 250/216/84
f 38/226/36 2/227/2 104/228/94 106/229/95 107/230/96 105/231/97 46/232/98
f 18/47/33 44/46/32 47/225/93 108/222/90 110/220/88 111/218/86 109/217/85
f 112/233/99 114/234/100 113/235/101
f 115/236/102 118/237/103 117/238/104
f 118/239/103 116/240/105 117/241/104
f 254/242/106 114/243/100 112/244/99 255/245/107
f 9/246/6 38/226/36 46/232/98 112/233/99 113/235/101
f 255/245/107 248/224/92 47/225/93 116/240/105
f 17/51/32 22/50/32 23/247/108 115/236/102 117/238/104
f 44/46/32 17/96/32 117/241/104 116/240/105 47/225/93
f 119/248/109 285/249/110 284/250/111 120/251/112
f 287/252/113 8/253/8 6/254/7 123/255/114
f 125/256/9 5/257/9 7/258/9 288/259/9
f 288/260/115 7/261/11 8/262/8 287/263/113
f 150/264/116 124/265/117 126/266/118 152/267/119
f 151/268/9 125/256/9 288/259/9 286/269/9
f 145/270/120 127/271/121 290/272/122 291/273/123
f 256/274/9 134/275/9 21/276/9 244/277/9
f 289/278/124 290/272/122 127/271/121 153/279/125
f 144/280/126 147/281/127 139/282/128 128/283/129
f 162/284/130 154/285/131 129/286/132 146/287/133
f 161/288/134 153/289/125 127/290/121 145/291/120
f 156/292/31 133/293/135 132/294/136 155/295/32
f 21/296/31 134/297/31 131/298/32 22/299/32
f 260/300/9 156/301/9 134/275/9 256/274/9
f 257/302/137 132/294/136 133/293/135 258/303/109
f 149/304/138 159/305/139 136/306/140 123/307/114
f 152/267/119 160/308/141 138/309/142 122/310/143
f 284/250/111 292/311/144 137/312/145 120/251/112
f 123/313/114 136/314/140 293/315/146 287/316/113
f 294/317/147 296/318/148 139/319/128 147/320/127
f 146/287/133 148/321/149 142/322/150 138/309/142
f 292/323/144 295/324/151 141/325/152 137/326/145
f 128/327/129 139/319/128 296/318/148 297/328/153
f 129/286/132 140/329/154 148/321/149 146/287/133
f 295/324/151 294/317/147 147/320/127 141/325/152
f 159/305/139 161/288/134 145/291/120 136/306/140
f 160/308/141 162/284/130 146/287/133 138/309/142
f 137/330/145 141/331/152 147/281/127 144/280/126
f 136/314/140 145/270/120 291/273/123 293/315/146
f 135/332/155 143/333/156 162/284/130 160/308/141
f 137/330/145 144/280/126 161/334/134 159/335/139
f 126/266/118 135/332/155 160/308/141 152/267/119
f 120/336/112 137/337/145 159/338/139 149/339/138
f 258/340/9 133/341/9 156/301/9 260/300/9
f 134/342/31 156/292/31 155/295/32 131/343/32
f 144/280/126 128/283/129 153/344/125 161/334/134
f 143/333/156 130/345/157 154/285/131 162/284/130
f 297/328/153 289/278/124 153/279/125 128/327/129
f 119/346/9 151/268/9 286/269/9 285/347/9
f 121/348/158 150/264/116 152/267/119 122/310/143
f 185/349/159 172/350/160 164/351/161 182/352/162
f 194/353/61 198/354/163 209/355/164 195/356/162
f 183/357/61 173/358/165 166/359/166 176/360/167
f 200/361/168 207/362/169 201/363/167 190/364/170
f 185/365/159 180/366/171 167/367/172 181/368/173
f 174/369/174 166/359/166 173/358/165 188/370/175
f 186/371/176 177/372/168 169/373/177 178/374/178
f 190/375/170 203/376/174 212/377/179 202/378/180
f 197/379/171 209/355/164 198/354/163 191/380/176
f 184/381/9 171/382/181 163/383/182 181/384/173
f 181/385/173 163/386/182 172/387/160 185/388/159
f 187/389/170 174/390/174 165/391/179 175/392/180
f 188/393/175 173/394/165 164/395/161 172/396/160
f 171/397/181 188/398/175 172/399/160 163/400/182
f 174/369/174 188/370/175 171/401/181 165/402/179
f 192/403/159 205/404/160 213/405/161 195/406/162
f 184/407/9 175/392/180 165/391/179 171/408/181
f 176/409/167 166/410/166 174/390/174 187/389/170
f 177/372/168 170/411/169 176/412/167 187/413/170
f 194/414/61 204/415/165 211/416/166 201/417/167
f 177/372/168 187/413/170 175/418/180 169/373/177
f 184/419/9 178/374/178 169/373/177 175/418/180
f 179/420/163 170/411/169 177/372/168 186/371/176
f 203/421/174 189/422/175 206/423/181 212/424/179
f 191/380/176 200/361/168 208/425/177 199/426/178
f 180/366/171 186/371/176 178/374/178 167/367/172
f 184/419/9 181/368/173 167/367/172 178/374/178
f 182/427/162 168/428/164 180/366/171 185/365/159
f 201/429/167 211/430/166 203/376/174 190/375/170
f 198/354/163 207/362/169 200/361/168 191/380/176
f 200/361/168 190/364/170 202/431/180 208/425/177
f 194/432/61 195/433/162 213/434/161 204/435/165
f 180/366/171 168/428/164 179/420/163 186/371/176
f 193/436/9 206/437/181 214/438/182 196/439/173
f 183/440/61 176/412/167 170/411/169 179/420/163
f 189/441/175 204/442/165 213/443/161 205/444/160
f 183/440/61 179/420/163 168/428/164 182/427/162
f 193/445/9 202/378/180 212/377/179 206/446/181
f 183/447/61 182/448/162 164/449/161 173/450/165
f 197/379/171 191/380/176 199/426/178 210/451/172
f 194/353/61 201/363/167 207/362/169 198/354/163
f 195/356/162 209/355/164 197/379/171 192/452/159
f 193/453/9 199/426/178 208/425/177 202/431/180
f 203/421/174 211/416/166 204/415/165 189/422/175
f 193/453/9 196/454/173 210/451/172 199/426/178
f 192/452/159 197/379/171 210/451/172 196/454/173
f 196/455/173 214/456/182 205/457/160 192/458/159
f 206/459/181 189/460/175 205/461/160 214/462/182
f 261/463/183 262/464/184 222/465/185 220/466/186
f 262/464/184 263/467/187 221/468/188 222/465/185
f 263/467/187 264/469/189 219/470/190 221/468/188
f 259/471/191 158/472/192 219/470/190 264/469/189
f 257/302/137 261/463/183 220/466/186 132/294/136
f 149/473/138 157/474/193 216/475/194 218/476/195 217/477/196 215/478/197 120/479/112
f 132/294/136 220/466/186 222/465/185 221/468/188 219/470/190 158/472/192 155/295/32
f 223/480/198 224/481/199 225/482/200
f 226/483/201 228/484/104 229/485/202
f 229/486/202 228/487/104 227/488/203
f 265/489/204 266/490/205 223/491/198 225/492/200
f 123/493/114 224/481/199 223/480/198 157/474/193 149/473/138
f 266/490/205 227/488/203 158/472/192 259/471/191
f 131/298/32 228/484/104 226/483/201 23/494/108 22/299/32
f 155/295/32 158/472/192 227/488/203 228/487/104 131/343/32
f 234/495/206 237/496/207 236/497/208
f 237/496/207 238/498/209 236/499/208
f 238/498/209 235/500/210 236/499/208
f 239/501/211 242/502/212 241/503/213
f 242/502/212 243/504/214 241/505/213
f 243/504/214 240/506/215 241/505/213
f 234/495/206 230/507/216 232/508/217 237/496/207
f 237/496/207 232/508/217 233/509/218 238/510/209
f 238/510/209 233/509/218 231/511/219 235/512/210
f 239/501/211 231/513/219 233/514/218 242/502/212
f 242/502/212 233/514/218 232/515/217 243/516/214
f 243/516/214 232/515/217 230/517/216 240/518/215
f 230/517/216 269/519/220 268/520/221 240/518/215
f 6/7/222 9/6/6 113/521/101 235/512/210 231/511/219
f 230/507/216 234/495/206 267/522/223 269/523/220
f 6/254/222 231/513/219 239/501/211 224/524/199 123/255/114
f 115/525/102 267/522/223 254/526/106 118/527/103
f 114/528/100 236/497/208 235/512/210 113/521/101
f 226/529/201 229/485/202 265/530/204 268/520/221
f 225/531/200 224/524/199 239/501/211 241/503/213
f 223/491/198 266/490/205 259/471/191 157/532/193
f 229/486/202 227/488/203 266/490/205 265/489/204
f 120/533/112 215/534/197 261/463/183 257/302/137
f 157/532/193 259/471/191 264/469/189 216/535/194
f 218/536/195 216/535/194 264/469/189 263/467/187
f 217/537/196 218/536/195 263/467/187 262/464/184
f 215/534/197 217/537/196 262/464/184 261/463/183
f 119/346/9 258/340/9 260/300/9 151/268/9
f 120/533/112 257/302/137 258/303/109 119/538/109
f 151/268/9 260/300/9 256/274/9 125/256/9
f 125/256/9 256/274/9 244/277/9 5/257/9
f 112/244/99 46/539/98 248/224/92 255/245/107
f 118/239/103 254/242/106 255/245/107 116/240/105
f 2/540/2 246/55/35 250/216/84 104/541/94
f 46/539/98 105/542/97 253/223/91 248/224/92
f 107/543/96 252/221/89 253/223/91 105/542/97
f 106/544/95 251/219/87 252/221/89 107/543/96
f 104/541/94 250/216/84 251/219/87 106/544/95
f 1/99/9 40/21/9 249/53/9 247/93/9
f 2/540/2 1/545/1 247/56/1 246/55/35
f 40/21/9 11/9/9 245/27/9 249/53/9
f 11/9/9 5/12/9 244/28/9 245/27/9
f 254/526/106 267/522/223 234/495/206 236/497/208 114/528/100
f 268/520/221 265/530/204 225/531/200 241/503/213 240/518/215
f 269/523/220 267/522/223 115/525/102 23/546/108
f 268/520/221 269/519/220 23/547/108 226/529/201
f 4/61/39 3/101/56 271/548/4 270/549/3
f 3/101/56 39/17/224 272/550/225 271/548/4
f 10/20/15 12/19/14 273/551/5 274/552/10
f 16/98/55 43/40/29 275/553/20 276/554/18
f 32/86/54 16/98/55 276/554/18 277/555/17
f 27/62/40 4/61/39 270/549/3 278/556/43
f 12/19/14 24/85/53 279/557/44 273/551/5
f 37/75/48 31/74/47 281/558/50 280/559/45
f 31/74/47 27/62/40 278/556/43 281/558/50
f 15/39/28 29/82/52 282/560/46 283/561/51
f 24/85/53 32/86/54 277/555/17 279/557/44
f 29/82/52 37/75/48 280/559/45 282/560/46
f 39/17/224 10/20/15 274/552/10 272/550/225
f 43/40/29 15/39/28 283/561/51 275/553/20
f 121/348/158 122/310/143 284/562/111 285/563/110
f 150/264/226 121/348/158 285/563/110 286/564/226
f 126/266/118 124/265/117 288/565/115 287/566/113
f 154/285/131 130/345/157 290/567/122 289/568/124
f 130/345/157 143/333/156 291/569/123 290/567/122
f 122/310/143 138/309/142 292/570/144 284/562/111
f 135/332/155 126/266/118 287/566/113 293/571/146
f 142/322/150 148/321/149 294/572/147 295/573/151
f 138/309/142 142/322/150 295/573/151 292/570/144
f 140/329/154 129/286/132 297/574/153 296/575/148
f 143/333/156 135/332/155 293/571/146 291/569/123
f 148/321/149 140/329/154 296/575/148 294/572/147
f 124/265/117 150/264/226 286/564/226 288/565/115
f 129/286/132 154/285/131 289/568/124 297/574/153
