# Blender 5.0.0
# www.blender.org
o Chair_Cushion
v 1.186461 0.683091 1.302042
v 1.692327 0.683091 0.744930
v 1.445730 0.683091 1.224316
v 1.623704 0.683091 1.028313
v 1.708116 0.000000 0.747077
v 1.188594 0.000000 1.319229
v 1.637882 0.000000 1.037112
v 1.453948 0.000000 1.239677
v 1.687545 0.683091 -0.736796
v 1.159816 0.683091 -1.306077
v 1.614622 0.683091 -1.029058
v 1.428696 0.683091 -1.229622
v 1.161838 0.000000 -1.323292
v 1.703319 0.000000 -0.739178
v 1.436815 0.000000 -1.245104
v 1.628742 0.000000 -1.038067
v 1.507196 0.620245 1.339200
v 1.202414 0.620245 1.430571
v 1.729737 0.620245 1.094116
v 1.810407 0.620245 0.760988
v 1.720224 0.620245 -1.096437
v 1.805515 0.620245 -0.754611
v 1.489418 0.620245 -1.345416
v 1.174938 0.620245 -1.434836
v 1.202414 0.049630 1.430571
v 1.507196 0.049630 1.339200
v 1.729737 0.049630 1.094116
v 1.810407 0.049630 0.760988
v 1.805515 0.049630 -0.754611
v 1.720224 0.049630 -1.096437
v 1.489418 0.049630 -1.345416
v 1.174938 0.049630 -1.434836
v -1.190597 0.683091 1.306152
v -1.694700 0.683091 0.750786
v -1.449621 0.683091 1.229322
v -1.626975 0.683091 1.033933
v -1.710494 0.000000 0.752987
v -1.192784 0.000000 1.323346
v -1.641180 0.000000 1.042781
v -1.457888 0.000000 1.244711
v -1.685216 0.683091 -0.730965
v -1.155678 0.683091 -1.302073
v -1.611365 0.683091 -1.023481
v -1.424803 0.683091 -1.224689
v -1.157646 0.000000 -1.319282
v -1.700982 0.000000 -0.733293
v -1.432873 0.000000 -1.240143
v -1.625458 0.000000 -1.032441
v -1.511452 0.620245 1.344419
v -1.206958 0.620245 1.434736
v -1.733216 0.620245 1.100103
v -1.812830 0.620245 0.767251
v -1.716755 0.620245 -1.090495
v -1.803130 0.620245 -0.748373
v -1.485157 0.620245 -1.340273
v -1.170393 0.620245 -1.430781
v -1.206958 0.049630 1.434736
v -1.511452 0.049630 1.344419
v -1.733216 0.049630 1.100103
v -1.812830 0.049630 0.767251
v -1.803130 0.049630 -0.748373
v -1.716755 0.049630 -1.090495
v -1.485157 0.049630 -1.340273
v -1.170393 0.049630 -1.430781
vn 0.2872 -0.0000 0.9579
vn 0.7403 -0.0000 0.6722
vn 0.9719 -0.0000 0.2354
vn 0.9703 -0.0000 -0.2421
vn 0.7334 -0.0000 -0.6798
vn 0.2735 -0.0000 -0.9619
vn 1.0000 -0.0000 -0.0032
vn 0.0007 -0.9134 0.4071
vn -0.0017 -0.0000 -1.0000
vn 0.1268 0.8972 0.4230
vn 0.3374 0.8901 0.3064
vn 0.4552 0.8835 0.1102
vn 0.4538 0.8839 -0.1132
vn 0.3331 0.8909 -0.3088
vn 0.1206 0.8976 -0.4240
vn 0.4700 0.8827 -0.0015
vn 0.0008 0.8984 0.4392
vn 0.1175 -0.9124 0.3921
vn 0.3131 -0.9061 0.2843
vn 0.4229 -0.9004 0.1024
vn 0.4215 -0.9007 -0.1052
vn 0.3091 -0.9068 -0.2866
vn 0.1117 -0.9127 -0.3930
vn 0.4367 -0.8996 -0.0014
vn -0.0007 -0.9136 -0.4066
vn -0.2844 -0.0000 0.9587
vn -0.7405 -0.0000 0.6721
vn -0.9726 -0.0000 0.2326
vn -0.9696 -0.0000 -0.2448
vn -0.7333 -0.0000 -0.6799
vn -0.2763 -0.0000 -0.9611
vn -1.0000 -0.0000 -0.0064
vn 0.0017 -0.0000 1.0000
vn -0.0008 0.8986 -0.4387
vn -0.1254 0.8975 0.4227
vn -0.3366 0.8907 0.3055
vn -0.4550 0.8838 0.1088
vn -0.4540 0.8836 -0.1146
vn -0.3340 0.8903 -0.3097
vn -0.1220 0.8973 -0.4242
vn -0.4700 0.8827 -0.0030
vn -0.0000 1.0000 -0.0000
vn -0.1162 -0.9127 0.3918
vn -0.3123 -0.9067 0.2835
vn -0.4227 -0.9006 0.1011
vn -0.4218 -0.9004 -0.1065
vn -0.3099 -0.9063 -0.2874
vn -0.1131 -0.9125 -0.3932
vn -0.4367 -0.8996 -0.0028
vn -0.0000 -1.0000 -0.0000
vt 0.536547 0.855750
vt 0.524887 0.855750
vt 0.524887 0.849248
vt 0.536547 0.849248
vt 0.477678 0.923907
vt 0.489337 0.923907
vt 0.489337 0.930672
vt 0.477678 0.930672
vt 0.489337 0.937675
vt 0.477678 0.937675
vt 0.477678 0.968645
vt 0.489337 0.968645
vt 0.489337 0.975843
vt 0.477678 0.975843
vt 0.489337 0.982781
vt 0.477678 0.982781
vt 0.524887 0.911519
vt 0.536547 0.911519
vt 0.536547 0.918200
vt 0.524887 0.918200
vt 0.522325 0.862214
vt 0.524839 0.861895
vt 0.524839 0.911350
vt 0.522334 0.911016
vt 0.536547 0.966124
vt 0.524887 0.966124
vt 0.461418 0.916235
vt 0.462965 0.910950
vt 0.465921 0.911330
vt 0.464023 0.917642
vt 0.457471 0.919846
vt 0.459003 0.922283
vt 0.451715 0.921285
vt 0.452113 0.924048
vt 0.415459 0.919779
vt 0.421389 0.921272
vt 0.420968 0.924023
vt 0.413910 0.922207
vt 0.411408 0.916036
vt 0.408796 0.917434
vt 0.409861 0.910575
vt 0.406912 0.910947
vt 0.462979 0.862218
vt 0.465922 0.861820
vt 0.520736 0.856800
vt 0.522958 0.855603
vt 0.516648 0.853061
vt 0.517947 0.850987
vt 0.510749 0.851592
vt 0.511082 0.849248
vt 0.480335 0.851609
vt 0.474260 0.853133
vt 0.472945 0.851065
vt 0.479982 0.849274
vt 0.470068 0.857007
vt 0.467839 0.855816
vt 0.468481 0.862598
vt 0.465971 0.862286
vt 0.468489 0.910151
vt 0.465970 0.910447
vt 0.536547 0.904982
vt 0.536547 0.911472
vt 0.524887 0.911472
vt 0.524887 0.904982
vt 0.465970 0.982783
vt 0.465970 0.976041
vt 0.477630 0.976041
vt 0.477630 0.982783
vt 0.465970 0.969048
vt 0.477630 0.969048
vt 0.465970 0.938078
vt 0.465970 0.930867
vt 0.477630 0.930867
vt 0.477630 0.938078
vt 0.465970 0.923907
vt 0.477630 0.923907
vt 0.524887 0.972816
vt 0.536547 0.972816
vt 0.406912 0.862728
vt 0.409874 0.863082
vt 0.461431 0.856962
vt 0.464026 0.855542
vt 0.457491 0.853392
vt 0.459013 0.850953
vt 0.451750 0.852002
vt 0.452142 0.849248
vt 0.415478 0.853807
vt 0.413921 0.851383
vt 0.420999 0.849505
vt 0.421425 0.852265
vt 0.411420 0.857592
vt 0.408797 0.856208
vt 0.522958 0.917612
vt 0.520743 0.916403
vt 0.517953 0.922180
vt 0.516660 0.920101
vt 0.511103 0.923859
vt 0.510774 0.921522
vt 0.480361 0.921258
vt 0.480003 0.923599
vt 0.472951 0.921748
vt 0.474272 0.919684
vt 0.467839 0.916947
vt 0.470074 0.915770
s 0
f 18/1/1 25/2/1 26/3/1 17/4/1
f 17/5/2 26/6/2 27/7/2 19/8/2
f 19/8/3 27/7/3 28/9/3 20/10/3
f 22/11/4 29/12/4 30/13/4 21/14/4
f 21/14/5 30/13/5 31/15/5 23/16/5
f 23/17/6 31/18/6 32/19/6 24/20/6
f 29/12/7 22/11/7 20/10/7 28/9/7
f 6/21/8 25/22/8 57/23/8 38/24/8
f 24/20/9 32/19/9 64/25/9 56/26/9
f 3/27/10 1/28/10 18/29/10 17/30/10
f 4/31/11 3/27/11 17/30/11 19/32/11
f 2/33/12 4/31/12 19/32/12 20/34/12
f 11/35/13 9/36/13 22/37/13 21/38/13
f 12/39/14 11/35/14 21/38/14 23/40/14
f 10/41/15 12/39/15 23/40/15 24/42/15
f 9/36/16 2/33/16 20/34/16 22/37/16
f 18/29/17 1/28/17 33/43/17 50/44/17
f 6/21/18 8/45/18 26/46/18 25/22/18
f 8/45/19 7/47/19 27/48/19 26/46/19
f 7/47/20 5/49/20 28/50/20 27/48/20
f 14/51/21 16/52/21 30/53/21 29/54/21
f 16/52/22 15/55/22 31/56/22 30/53/22
f 15/55/23 13/57/23 32/58/23 31/56/23
f 5/49/24 14/51/24 29/54/24 28/50/24
f 32/58/25 13/57/25 45/59/25 64/60/25
f 50/61/26 49/62/26 58/63/26 57/64/26
f 49/65/27 51/66/27 59/67/27 58/68/27
f 51/66/28 52/69/28 60/70/28 59/67/28
f 54/71/29 53/72/29 62/73/29 61/74/29
f 53/72/30 55/75/30 63/76/30 62/73/30
f 55/77/31 56/26/31 64/25/31 63/78/31
f 61/74/32 60/70/32 52/69/32 54/71/32
f 25/2/33 18/1/33 50/61/33 57/64/33
f 10/41/34 24/42/34 56/79/34 42/80/34
f 35/81/35 49/82/35 50/44/35 33/43/35
f 36/83/36 51/84/36 49/82/36 35/81/36
f 34/85/37 52/86/37 51/84/37 36/83/37
f 43/87/38 53/88/38 54/89/38 41/90/38
f 44/91/39 55/92/39 53/88/39 43/87/39
f 42/80/40 56/79/40 55/92/40 44/91/40
f 41/90/41 54/89/41 52/86/41 34/85/41
f 10/41/42 42/80/42 33/43/42 1/28/42
f 38/24/43 57/23/43 58/93/43 40/94/43
f 40/94/44 58/93/44 59/95/44 39/96/44
f 39/96/45 59/95/45 60/97/45 37/98/45
f 46/99/46 61/100/46 62/101/46 48/102/46
f 48/102/47 62/101/47 63/103/47 47/104/47
f 47/104/48 63/103/48 64/60/48 45/59/48
f 37/98/49 60/97/49 61/100/49 46/99/49
f 45/59/50 13/57/50 6/21/50 38/24/50
f 42/80/42 44/91/42 43/87/42 41/90/42 34/85/42 36/83/42 35/81/42 33/43/42
f 10/41/42 1/28/42 3/27/42 4/31/42 2/33/42 9/36/42 11/35/42 12/39/42
f 6/21/50 13/57/50 15/55/50 16/52/50 14/51/50 5/49/50 7/47/50 8/45/50
f 38/24/50 40/94/50 39/96/50 37/98/50 46/99/50 48/102/50 47/104/50 45/59/50
