# Blender 5.1.2
# www.blender.org
o Couch_1
v 5.141723 3.659177 5.686698
v 6.064770 3.825995 5.684167
v 6.064770 3.825995 5.684167
v 6.083573 3.825995 1.996467
v 6.083573 3.825995 1.996467
v 5.142639 3.658750 5.686695
v 1.248037 0.747758 1.192391
v 1.776535 0.747758 0.684554
v 1.519578 0.747758 1.122175
v 1.705515 0.747758 0.943507
v 1.793093 -0.069482 0.686570
v 1.250329 -0.069482 1.208116
v 1.720406 -0.069482 0.951602
v 1.528244 -0.069482 1.136252
v 1.766720 0.747758 -0.670668
v 1.211654 0.747758 -1.193116
v 1.689327 0.747758 -0.938219
v 1.493770 0.747758 -1.122284
v 1.213718 -0.069482 -1.208855
v 1.783248 -0.069482 -0.672793
v 1.502232 -0.069482 -1.136418
v 1.704100 -0.069482 -0.946412
v 1.584386 0.620245 1.227456
v 1.265177 0.620245 1.309998
v 1.816883 0.620245 1.004049
v 1.900370 0.620245 0.699637
v 1.799813 0.620245 -0.999489
v 1.890331 0.620245 -0.686564
v 1.557050 0.620245 -1.227986
v 1.227090 0.620245 -1.310830
v 1.265177 0.049631 1.309998
v 1.584386 0.049631 1.227456
v 1.816883 0.049631 1.004049
v 1.900370 0.049631 0.699637
v 1.890331 0.049631 -0.686564
v 1.799813 0.049631 -0.999489
v 1.557050 0.049631 -1.227986
v 1.227090 0.049631 -1.310830
v -5.141723 3.659177 5.686698
v -6.064772 3.825995 5.684167
v -6.064772 3.825995 5.684167
v -6.083574 3.825995 1.996467
v -6.083574 3.825995 1.996467
v -5.142639 3.658750 5.686695
v -1.243832 0.747758 1.188141
v -1.774085 0.747758 0.678499
v -1.515617 0.747758 1.116999
v -1.702171 0.747758 0.937696
v -1.790636 -0.069482 0.680459
v -1.246069 -0.069482 1.203859
v -1.717034 -0.069482 0.945740
v -1.524234 -0.069482 1.131047
v -1.768945 0.747758 -0.676697
v -1.215677 0.747758 -1.197255
v -1.692474 0.747758 -0.943987
v -1.497551 0.747758 -1.127385
v -1.217796 -0.069482 -1.213002
v -1.785480 -0.069482 -0.678879
v -1.506061 -0.069482 -1.141548
v -1.707276 -0.069482 -0.952229
v -1.580062 0.620245 1.222059
v -1.260567 0.620245 1.305691
v -1.813330 0.620245 0.997858
v -1.897868 0.620245 0.693160
v -1.803172 0.620245 -1.005634
v -1.892611 0.620245 -0.693016
v -1.561195 0.620245 -1.233304
v -1.231520 0.620245 -1.315023
v -1.260567 0.049631 1.305691
v -1.580062 0.049631 1.222059
v -1.813330 0.049631 0.997858
v -1.897868 0.049631 0.693160
v -1.892611 0.049631 -0.693016
v -1.803172 0.049631 -1.005634
v -1.561195 0.049631 -1.233304
v -1.231520 0.049631 -1.315023
v 8.933188 3.756733 5.792280
v 9.856018 3.923551 5.813211
v 9.856018 3.923551 5.813211
v 9.961514 3.923551 2.127091
v 9.961514 3.923551 2.127091
v 8.934105 3.756306 5.792300
v -1.347161 3.756733 5.530903
v -2.269872 3.923551 5.504911
v -2.269872 3.923551 5.504911
v -2.201969 3.923551 1.817835
v -2.201969 3.923551 1.817835
v -1.348077 3.756306 5.530877
vn 0.0525 0.9054 0.4213
vn 0.4171 0.9072 0.0551
vn 0.2121 0.8974 0.3870
vn 0.3775 0.8974 0.2285
vn 0.4354 -0.8984 0.0575
vn 0.0548 -0.8969 0.4388
vn 0.3937 -0.8879 0.2381
vn 0.2211 -0.8880 0.4031
vn 0.4164 0.9071 -0.0612
vn 0.0520 0.9058 -0.4205
vn 0.3749 0.8972 -0.2335
vn 0.2091 0.8971 -0.3891
vn 0.0542 -0.8973 -0.4380
vn 0.4347 -0.8983 -0.0639
vn 0.2180 -0.8878 -0.4053
vn 0.3911 -0.8876 -0.2433
vn 0.4597 0.3553 0.8139
vn 0.1178 0.3569 0.9267
vn 0.8054 0.3569 0.4733
vn 0.9242 0.3623 0.1205
vn 0.7998 0.3563 -0.4830
vn 0.9225 0.3621 -0.1334
vn 0.4526 0.3547 -0.8181
vn 0.1158 0.3571 -0.9269
vn 0.1186 -0.3402 0.9328
vn 0.4626 -0.3395 0.8190
vn 0.8103 -0.3414 0.4762
vn 0.9303 -0.3462 0.1213
vn 0.9286 -0.3460 -0.1343
vn 0.8047 -0.3409 -0.4860
vn 0.4554 -0.3389 -0.8233
vn 0.1166 -0.3404 -0.9330
vn -0.0541 0.9053 0.4212
vn -0.4171 0.9071 0.0566
vn -0.2131 0.8971 0.3870
vn -0.3774 0.8972 0.2294
vn -0.4354 -0.8983 0.0591
vn -0.0563 -0.8968 0.4388
vn -0.3937 -0.8876 0.2390
vn -0.2221 -0.8878 0.4030
vn -0.4165 0.9072 -0.0597
vn -0.0505 0.9059 -0.4205
vn -0.3750 0.8974 -0.2326
vn -0.2081 0.8974 -0.3891
vn -0.0526 -0.8974 -0.4381
vn -0.4347 -0.8984 -0.0623
vn -0.2170 -0.8880 -0.4053
vn -0.3911 -0.8879 -0.2423
vn -0.4610 0.3548 0.8134
vn -0.1206 0.3567 0.9264
vn -0.8049 0.3564 0.4745
vn -0.9239 0.3622 0.1233
vn -0.8003 0.3568 -0.4819
vn -0.9229 0.3623 -0.1306
vn -0.4513 0.3553 -0.8186
vn -0.1130 0.3573 -0.9272
vn -0.1214 -0.3401 0.9325
vn -0.4638 -0.3389 0.8185
vn -0.8098 -0.3409 0.4774
vn -0.9300 -0.3461 0.1241
vn -0.9289 -0.3462 -0.1314
vn -0.8052 -0.3414 -0.4849
vn -0.4541 -0.3394 -0.8238
vn -0.1137 -0.3405 -0.9333
vt 0.630724 0.840783
vt 0.630724 0.737342
vt 0.673674 0.737342
vt 0.673674 0.840783
vt 0.191996 0.931466
vt 0.191996 0.963065
vt 0.178876 0.963065
vt 0.178876 0.931466
vt 0.165755 0.963065
vt 0.165755 0.931466
vt 0.107991 0.931466
vt 0.107991 0.963065
vt 0.094479 0.963065
vt 0.094479 0.931466
vt 0.080967 0.963065
vt 0.080967 0.931466
vt 0.262888 0.763681
vt 0.262888 0.662100
vt 0.306326 0.662100
vt 0.306326 0.763681
vt 0.307664 0.289036
vt 0.305344 0.272944
vt 0.620804 0.273011
vt 0.618522 0.289021
vt 0.619528 0.662100
vt 0.619528 0.763681
vt 0.656761 0.312045
vt 0.623955 0.303356
vt 0.626631 0.284656
vt 0.666237 0.295695
vt 0.679040 0.334403
vt 0.695433 0.324551
vt 0.687995 0.367201
vt 0.706847 0.364499
vt 0.678158 0.574763
vt 0.687462 0.540974
vt 0.706107 0.543739
vt 0.694412 0.584381
vt 0.654742 0.597636
vt 0.664436 0.614130
vt 0.620626 0.606603
vt 0.623212 0.625500
vt 0.318630 0.303527
vt 0.315883 0.284656
vt 0.273394 0.298422
vt 0.264993 0.284355
vt 0.249842 0.321969
vt 0.235796 0.313873
vt 0.240827 0.356171
vt 0.224806 0.354031
vt 0.242071 0.533157
vt 0.251877 0.568298
vt 0.237951 0.576533
vt 0.226180 0.535515
vt 0.276448 0.592484
vt 0.268226 0.606611
vt 0.311976 0.601626
vt 0.309861 0.617680
vt 0.615314 0.601551
vt 0.617468 0.617680
vt 0.303077 0.840783
vt 0.260127 0.840783
vt 0.260127 0.737342
vt 0.303077 0.737342
vt 0.190116 0.332134
vt 0.190116 0.371808
vt 0.094565 0.371807
vt 0.094565 0.332134
vt 0.190116 0.411481
vt 0.094565 0.411481
vt 0.190116 0.586149
vt 0.190116 0.627007
vt 0.094565 0.627007
vt 0.094565 0.586149
vt 0.190116 0.667866
vt 0.094565 0.667866
vt 0.662966 0.763681
vt 0.662966 0.662100
vt 0.320405 0.625071
vt 0.322989 0.606279
vt 0.285800 0.312371
vt 0.275923 0.296031
vt 0.263587 0.334757
vt 0.247238 0.325333
vt 0.254903 0.367396
vt 0.236286 0.364813
vt 0.265446 0.574552
vt 0.249206 0.584224
vt 0.237344 0.543544
vt 0.256066 0.540740
vt 0.288904 0.597374
vt 0.279265 0.613863
vt 0.661074 0.284195
vt 0.652754 0.298260
vt 0.690357 0.313521
vt 0.676367 0.321668
vt 0.701519 0.353584
vt 0.685518 0.355791
vt 0.685040 0.532745
vt 0.700943 0.535036
vt 0.689348 0.576131
vt 0.675374 0.567947
vt 0.659168 0.606382
vt 0.650870 0.592259
s 1
f 24/1/18 31/2/25 32/3/26 23/4/17
f 23/5/17 32/6/26 33/7/27 25/8/19
f 25/8/19 33/7/27 34/9/28 26/10/20
f 28/11/22 35/12/29 36/13/30 27/14/21
f 27/14/21 36/13/30 37/15/31 29/16/23
f 29/17/23 37/18/31 38/19/32 30/20/24
f 35/12/29 28/11/22 26/10/20 34/9/28
f 12/21/6 31/22/25 69/23/57 50/24/38
f 30/20/24 38/19/32 76/25/64 68/26/56
f 9/27/3 7/28/1 24/29/18 23/30/17
f 10/31/4 9/27/3 23/30/17 25/32/19
f 8/33/2 10/31/4 25/32/19 26/34/20
f 17/35/11 15/36/9 28/37/22 27/38/21
f 18/39/12 17/35/11 27/38/21 29/40/23
f 16/41/10 18/39/12 29/40/23 30/42/24
f 15/36/9 8/33/2 26/34/20 28/37/22
f 24/29/18 7/28/1 45/43/33 62/44/50
f 12/21/6 14/45/8 32/46/26 31/22/25
f 14/45/8 13/47/7 33/48/27 32/46/26
f 13/47/7 11/49/5 34/50/28 33/48/27
f 20/51/14 22/52/16 36/53/30 35/54/29
f 22/52/16 21/55/15 37/56/31 36/53/30
f 21/55/15 19/57/13 38/58/32 37/56/31
f 11/49/5 20/51/14 35/54/29 34/50/28
f 38/58/32 19/57/13 57/59/45 76/60/64
f 62/61/50 61/62/49 70/63/58 69/64/57
f 61/65/49 63/66/51 71/67/59 70/68/58
f 63/66/51 64/69/52 72/70/60 71/67/59
f 66/71/54 65/72/53 74/73/62 73/74/61
f 65/72/53 67/75/55 75/76/63 74/73/62
f 67/77/55 68/26/56 76/25/64 75/78/63
f 73/74/61 72/70/60 64/69/52 66/71/54
f 31/2/25 24/1/18 62/61/50 69/64/57
f 16/41/10 30/42/24 68/79/56 54/80/42
f 47/81/35 61/82/49 62/44/50 45/43/33
f 48/83/36 63/84/51 61/82/49 47/81/35
f 46/85/34 64/86/52 63/84/51 48/83/36
f 55/87/43 65/88/53 66/89/54 53/90/41
f 56/91/44 67/92/55 65/88/53 55/87/43
f 54/80/42 68/79/56 67/92/55 56/91/44
f 53/90/41 66/89/54 64/86/52 46/85/34
f 16/41/10 54/80/42 45/43/33 7/28/1
f 50/24/38 69/23/57 70/93/58 52/94/40
f 52/94/40 70/93/58 71/95/59 51/96/39
f 51/96/39 71/95/59 72/97/60 49/98/37
f 58/99/46 73/100/61 74/101/62 60/102/48
f 60/102/48 74/101/62 75/103/63 59/104/47
f 59/104/47 75/103/63 76/60/64 57/59/45
f 49/98/37 72/97/60 73/100/61 58/99/46
f 57/59/45 19/57/13 12/21/6 50/24/38
f 54/80/42 56/91/44 55/87/43 53/90/41 46/85/34 48/83/36 47/81/35 45/43/33
f 16/41/10 7/28/1 9/27/3 10/31/4 8/33/2 15/36/9 17/35/11 18/39/12
f 12/21/6 19/57/13 21/55/15 22/52/16 20/51/14 11/49/5 13/47/7 14/45/8
f 50/24/38 52/94/40 51/96/39 49/98/37 58/99/46 60/102/48 59/104/47 57/59/45
l 2 3
l 4 5
l 6 1
l 40 41
l 42 43
l 44 39
l 78 79
l 80 81
l 82 77
l 84 85
l 86 87
l 88 83
