# Blender 5.0.1
# www.blender.org
o Cutting_Board
v -0.805591 -0.063949 0.569867
v -1.000006 -0.063949 0.375452
v -0.879989 -0.063949 0.555068
v -0.943062 -0.063949 0.512924
v -0.985206 -0.063949 0.449851
v -0.934278 0.021489 0.368977
v -0.799116 0.021489 0.504138
v -0.923291 0.021489 0.424205
v -0.895674 0.021489 0.465536
v -0.854342 0.021489 0.493153
v -1.000006 -0.063949 -0.375451
v -0.805591 -0.063949 -0.569866
v -0.985206 -0.063949 -0.449850
v -0.943062 -0.063949 -0.512923
v -0.879989 -0.063949 -0.555067
v -0.799116 0.021489 -0.504138
v -0.934278 0.021489 -0.368977
v -0.854342 0.021489 -0.493152
v -0.895674 0.021489 -0.465535
v -0.923291 0.021489 -0.424204
v 0.999994 -0.063949 0.375452
v 0.805579 -0.063949 0.569867
v 0.985194 -0.063949 0.449851
v 0.943050 -0.063949 0.512924
v 0.879977 -0.063949 0.555068
v 0.799105 0.021489 0.504138
v 0.934266 0.021489 0.368977
v 0.854331 0.021489 0.493153
v 0.895662 0.021489 0.465536
v 0.923280 0.021489 0.424205
v 0.805579 -0.063949 -0.569866
v 0.999994 -0.063949 -0.375451
v 0.879977 -0.063949 -0.555067
v 0.943050 -0.063949 -0.512923
v 0.985194 -0.063949 -0.449850
v 0.934266 0.021489 -0.368977
v 0.799105 0.021489 -0.504138
v 0.923280 0.021489 -0.424204
v 0.895662 0.021489 -0.465535
v 0.854331 0.021489 -0.493152
v -0.805591 0.021489 0.569867
v -0.879989 0.021489 0.555068
v -0.943062 0.021489 0.512924
v -0.985206 0.021489 0.449851
v -1.000006 0.021489 0.375452
v -0.879989 0.021489 -0.555067
v -0.805591 0.021489 -0.569866
v -0.943062 0.021489 -0.512923
v -0.985206 0.021489 -0.449850
v -1.000006 0.021489 -0.375451
v 0.985194 0.021489 -0.449850
v 0.999994 0.021489 -0.375451
v 0.943050 0.021489 -0.512923
v 0.879977 0.021489 -0.555067
v 0.805579 0.021489 -0.569866
v 0.879977 0.021489 0.555068
v 0.805579 0.021489 0.569867
v 0.943050 0.021489 0.512924
v 0.985194 0.021489 0.449851
v 0.999994 0.021489 0.375452
v -0.801957 0.021489 0.532981
v -0.865596 0.021489 0.520322
v -0.916468 0.021489 0.486330
v -0.950459 0.021489 0.435459
v -0.963120 0.021489 0.371818
v -0.865596 0.021489 -0.520321
v -0.801957 0.021489 -0.532980
v -0.916468 0.021489 -0.486329
v -0.950459 0.021489 -0.435457
v -0.963120 0.021489 -0.371818
v 0.950448 0.021489 -0.435457
v 0.963108 0.021489 -0.371818
v 0.916456 0.021489 -0.486329
v 0.865584 0.021489 -0.520321
v 0.801946 0.021489 -0.532980
v 0.865584 0.021489 0.520322
v 0.801946 0.021489 0.532981
v 0.916456 0.021489 0.486330
v 0.950448 0.021489 0.435459
v 0.963108 0.021489 0.371818
v -0.801957 -0.000255 0.532981
v -0.865596 -0.000255 0.520322
v -0.916468 -0.000255 0.486330
v -0.950459 -0.000255 0.435459
v -0.963120 -0.000255 0.371818
v -0.865596 -0.000255 -0.520321
v -0.801957 -0.000255 -0.532980
v -0.916468 -0.000255 -0.486329
v -0.950459 -0.000255 -0.435457
v -0.963120 -0.000255 -0.371818
v 0.950448 -0.000255 -0.435457
v 0.963108 -0.000255 -0.371818
v 0.916456 -0.000255 -0.486329
v 0.865584 -0.000255 -0.520321
v 0.801946 -0.000255 -0.532980
v 0.865584 -0.000255 0.520322
v 0.801946 -0.000255 0.532981
v 0.916456 -0.000255 0.486330
v 0.950448 -0.000255 0.435459
v 0.963108 -0.000255 0.371818
v -0.799116 -0.000255 0.504138
v -0.854342 -0.000255 0.493153
v -0.895674 -0.000255 0.465536
v -0.923291 -0.000255 0.424205
v -0.934278 -0.000255 0.368977
v -0.854342 -0.000255 -0.493152
v -0.799116 -0.000255 -0.504138
v -0.895674 -0.000255 -0.465535
v -0.923291 -0.000255 -0.424204
v -0.934278 -0.000255 -0.368977
v 0.923280 -0.000255 -0.424204
v 0.934266 -0.000255 -0.368977
v 0.895662 -0.000255 -0.465535
v 0.854331 -0.000255 -0.493152
v 0.799105 -0.000255 -0.504138
v 0.854331 -0.000255 0.493153
v 0.799105 -0.000255 0.504138
v 0.895662 -0.000255 0.465536
v 0.923280 -0.000255 0.424205
v 0.934266 -0.000255 0.368977
vn -0.1951 -0.0000 0.9808
vn -0.5556 -0.0000 0.8315
vn -0.8315 -0.0000 0.5556
vn -0.9808 -0.0000 0.1951
vn -0.1951 -0.0000 -0.9808
vn -0.5556 -0.0000 -0.8315
vn -0.8315 -0.0000 -0.5556
vn -0.9808 -0.0000 -0.1951
vn 0.9808 -0.0000 -0.1951
vn 0.8315 -0.0000 -0.5556
vn 0.5556 -0.0000 -0.8315
vn 0.1951 -0.0000 -0.9808
vn 0.1951 -0.0000 0.9808
vn 0.5556 -0.0000 0.8315
vn 0.8315 -0.0000 0.5556
vn 0.9808 -0.0000 0.1951
vn -0.0000 -0.0000 1.0000
vn -0.0000 -1.0000 -0.0000
vn -1.0000 -0.0000 -0.0000
vn -0.0000 1.0000 -0.0000
vn -0.0000 -0.0000 -1.0000
vn 1.0000 -0.0000 -0.0000
vt 0.072504 0.537691
vt 0.072549 0.628662
vt 0.069165 0.628664
vt 0.069120 0.537693
vt 0.063706 0.628667
vt 0.063661 0.537695
vt 0.427546 0.537514
vt 0.427592 0.628485
vt 0.418012 0.628490
vt 0.417967 0.537519
vt 0.412074 0.628493
vt 0.412028 0.537522
vt 0.327777 0.628535
vt 0.327732 0.537564
vt 0.331116 0.537562
vt 0.331161 0.628533
vt 0.336575 0.537559
vt 0.336620 0.628531
vt 0.346154 0.537555
vt 0.346200 0.628526
vt 0.352093 0.537552
vt 0.352138 0.628523
vt 0.230131 0.628584
vt 0.230086 0.537612
vt 0.236024 0.537385
vt 0.236070 0.628805
vt 0.244088 0.536742
vt 0.244134 0.629440
vt 0.248848 0.535783
vt 0.248895 0.630394
vt 0.251497 0.534654
vt 0.251546 0.631521
vt 0.148784 0.631572
vt 0.148735 0.534705
vt 0.151386 0.535832
vt 0.151433 0.630443
vt 0.156147 0.536786
vt 0.156193 0.629484
vt 0.164212 0.537421
vt 0.164257 0.628841
vt 0.170150 0.537642
vt 0.170195 0.628614
vt 0.154591 0.455522
vt 0.155771 0.452137
vt 0.159133 0.449266
vt 0.164167 0.447347
vt 0.170105 0.446671
vt 0.230040 0.446641
vt 0.235979 0.447311
vt 0.241014 0.449226
vt 0.244380 0.452093
vt 0.245563 0.455476
vt 0.230260 0.630767
vt 0.235272 0.630812
vt 0.239811 0.631207
vt 0.243144 0.631940
vt 0.244780 0.633413
vt 0.240490 0.710278
vt 0.239566 0.712848
vt 0.237356 0.714739
vt 0.234060 0.715995
vt 0.229656 0.716488
vt 0.170759 0.716517
vt 0.166354 0.716029
vt 0.163056 0.714776
vt 0.160845 0.712888
vt 0.159918 0.710318
vt 0.155551 0.633457
vt 0.157186 0.631983
vt 0.160518 0.631247
vt 0.165056 0.630847
vt 0.170069 0.630797
vt 0.157628 0.710496
vt 0.158679 0.713437
vt 0.155901 0.714133
vt 0.154719 0.710750
vt 0.161395 0.715753
vt 0.159267 0.717000
vt 0.165454 0.717295
vt 0.164302 0.718915
vt 0.170531 0.717861
vt 0.170241 0.719585
vt 0.241732 0.713395
vt 0.242780 0.710454
vt 0.245690 0.710704
vt 0.244510 0.714089
vt 0.239019 0.715714
vt 0.241148 0.716960
vt 0.234961 0.717260
vt 0.236114 0.718879
vt 0.229884 0.717832
vt 0.230176 0.719555
vt 0.235757 0.629911
vt 0.230174 0.629806
vt 0.241619 0.630408
vt 0.245708 0.631221
vt 0.247708 0.632651
vt 0.154621 0.631266
vt 0.152623 0.632698
vt 0.158710 0.630449
vt 0.164571 0.629947
vt 0.170153 0.629836
s 0
f 1/1/1 41/2/1 42/3/1 3/4/1
f 3/4/2 42/3/2 43/5/2 4/6/2
f 4/7/3 43/8/3 44/9/3 5/10/3
f 5/10/4 44/9/4 45/11/4 2/12/4
f 47/13/5 12/14/5 15/15/5 46/16/5
f 46/16/6 15/15/6 14/17/6 48/18/6
f 48/18/7 14/17/7 13/19/7 49/20/7
f 49/20/8 13/19/8 11/21/8 50/22/8
f 52/23/9 32/24/9 35/25/9 51/26/9
f 51/26/10 35/25/10 34/27/10 53/28/10
f 53/28/11 34/27/11 33/29/11 54/30/11
f 54/30/12 33/29/12 31/31/12 55/32/12
f 57/33/13 22/34/13 25/35/13 56/36/13
f 56/36/14 25/35/14 24/37/14 58/38/14
f 58/38/15 24/37/15 23/39/15 59/40/15
f 59/40/16 23/39/16 21/41/16 60/42/16
f 57/33/17 41/2/17 1/1/17 22/34/17
f 31/31/18 33/29/18 34/27/18 35/25/18 32/24/18 21/41/18 23/39/18 24/37/18 25/35/18 22/34/18 1/43/18 3/44/18 4/45/18 5/46/18 2/47/18 11/48/18 13/49/18 14/50/18 15/51/18 12/52/18
f 50/22/19 11/21/19 2/12/19 45/11/19
f 36/53/20 38/54/20 39/55/20 40/56/20 37/57/20 16/58/20 18/59/20 19/60/20 20/61/20 17/62/20 6/63/20 8/64/20 9/65/20 10/66/20 7/67/20 26/68/20 28/69/20 29/70/20 30/71/20 27/72/20
f 55/32/21 31/31/21 12/14/21 47/13/21
f 52/23/22 60/42/22 21/41/22 32/24/22
f 61/73/20 62/74/20 42/75/20 41/76/20
f 62/74/20 63/77/20 43/78/20 42/75/20
f 63/77/20 64/79/20 44/80/20 43/78/20
f 64/79/20 65/81/20 45/82/20 44/80/20
f 66/83/20 67/84/20 47/85/20 46/86/20
f 68/87/20 66/83/20 46/86/20 48/88/20
f 69/89/20 68/87/20 48/88/20 49/90/20
f 70/91/20 69/89/20 49/90/20 50/92/20
f 71/93/20 72/94/20 52/23/20 51/26/20
f 73/95/20 71/93/20 51/26/20 53/28/20
f 74/96/20 73/95/20 53/28/20 54/30/20
f 75/97/20 74/96/20 54/30/20 55/32/20
f 76/98/20 77/99/20 57/33/20 56/36/20
f 78/100/20 76/98/20 56/36/20 58/38/20
f 79/101/20 78/100/20 58/38/20 59/40/20
f 80/102/20 79/101/20 59/40/20 60/42/20
f 77/99/20 61/73/20 41/76/20 57/33/20
f 65/81/20 70/91/20 50/92/20 45/82/20
f 72/94/20 80/102/20 60/42/20 52/23/20
f 67/84/20 75/97/20 55/32/20 47/85/20
f 72/94/4 71/93/4 91/93/4 92/94/4
f 38/54/9 36/53/9 112/53/9 111/54/9
f 69/89/16 70/91/16 90/91/16 89/89/16
f 17/62/8 20/61/8 109/61/8 110/62/8
f 68/87/15 69/89/15 89/89/15 88/87/15
f 20/61/7 19/60/7 108/60/7 109/61/7
f 75/97/17 67/84/17 87/84/17 95/97/17
f 16/58/21 37/57/21 115/57/21 107/58/21
f 66/83/14 68/87/14 88/87/14 86/83/14
f 19/60/6 18/59/6 106/59/6 108/60/6
f 80/102/19 72/94/19 92/94/19 100/102/19
f 36/53/22 27/72/22 120/72/22 112/53/22
f 67/84/13 66/83/13 86/83/13 87/84/13
f 18/59/5 16/58/5 107/58/5 106/59/5
f 70/91/22 65/81/22 85/81/22 90/91/22
f 6/63/19 17/62/19 110/62/19 105/63/19
f 65/81/9 64/79/9 84/79/9 85/81/9
f 8/64/4 6/63/4 105/63/4 104/64/4
f 61/73/21 77/99/21 97/99/21 81/73/21
f 26/68/17 7/67/17 101/67/17 117/68/17
f 101/67/20 102/66/20 82/74/20 81/73/20
f 102/66/20 103/65/20 83/77/20 82/74/20
f 103/65/20 104/64/20 84/79/20 83/77/20
f 104/64/20 105/63/20 85/81/20 84/79/20
f 106/59/20 107/58/20 87/84/20 86/83/20
f 108/60/20 106/59/20 86/83/20 88/87/20
f 109/61/20 108/60/20 88/87/20 89/89/20
f 110/62/20 109/61/20 89/89/20 90/91/20
f 111/54/20 112/53/20 92/94/20 91/93/20
f 113/55/20 111/54/20 91/93/20 93/95/20
f 114/56/20 113/55/20 93/95/20 94/96/20
f 115/57/20 114/56/20 94/96/20 95/97/20
f 116/69/20 117/68/20 97/99/20 96/98/20
f 118/70/20 116/69/20 96/98/20 98/100/20
f 119/71/20 118/70/20 98/100/20 99/101/20
f 120/72/20 119/71/20 99/101/20 100/102/20
f 117/68/20 101/67/20 81/73/20 97/99/20
f 105/63/20 110/62/20 90/91/20 85/81/20
f 112/53/20 120/72/20 100/102/20 92/94/20
f 107/58/20 115/57/20 95/97/20 87/84/20
f 39/55/10 38/54/10 111/54/10 113/55/10
f 71/93/3 73/95/3 93/95/3 91/93/3
f 40/56/11 39/55/11 113/55/11 114/56/11
f 73/95/2 74/96/2 94/96/2 93/95/2
f 37/57/12 40/56/12 114/56/12 115/57/12
f 74/96/1 75/97/1 95/97/1 94/96/1
f 28/69/13 26/68/13 117/68/13 116/69/13
f 77/99/5 76/98/5 96/98/5 97/99/5
f 29/70/14 28/69/14 116/69/14 118/70/14
f 76/98/6 78/100/6 98/100/6 96/98/6
f 7/67/1 10/66/1 102/66/1 101/67/1
f 62/74/12 61/73/12 81/73/12 82/74/12
f 30/71/15 29/70/15 118/70/15 119/71/15
f 78/100/7 79/101/7 99/101/7 98/100/7
f 10/66/2 9/65/2 103/65/2 102/66/2
f 63/77/11 62/74/11 82/74/11 83/77/11
f 27/72/16 30/71/16 119/71/16 120/72/16
f 79/101/8 80/102/8 100/102/8 99/101/8
f 9/65/3 8/64/3 104/64/3 103/65/3
f 64/79/10 63/77/10 83/77/10 84/79/10
