# Blender 5.0.0
# www.blender.org
o Desk
v 0.831000 3.400547 2.494979
v -6.393681 3.400547 2.494976
v 0.831001 3.400547 -0.789162
v -6.393679 3.400547 -0.789165
v -6.393681 3.114203 2.494976
v 0.831000 3.114203 2.494979
v -6.393679 3.114203 -0.789165
v 0.831001 3.114203 -0.789162
v 0.395977 0.998475 2.395704
v 0.395977 3.375737 2.395704
v 0.813545 0.998475 2.395704
v 0.813545 3.375737 2.395704
v 0.395977 0.998475 2.490288
v 0.395977 3.375737 2.490288
v 0.813545 0.998475 2.490288
v 0.813545 3.375737 2.490288
v -6.378191 0.998475 2.397463
v -6.378191 3.375737 2.397463
v -5.960623 0.998475 2.397463
v -5.960623 3.375737 2.397463
v -6.378191 0.998475 2.492047
v -6.378191 3.375737 2.492047
v -5.960623 0.998475 2.492048
v -5.960623 3.375737 2.492048
v -6.378191 0.998475 2.397463
v -6.378191 3.375737 2.397463
v -5.960623 0.998475 2.397463
v -5.960623 3.375737 2.397463
v -6.378191 0.998475 2.492047
v -6.378191 3.375737 2.492047
v -5.960623 0.998475 2.492048
v -5.960623 3.375737 2.492048
v -6.378194 0.998475 -0.782816
v -6.378194 3.375737 -0.782816
v -5.960626 0.998475 -0.782816
v -5.960626 3.375737 -0.782816
v -6.378194 0.998475 -0.688232
v -6.378194 3.375737 -0.688232
v -5.960626 0.998475 -0.688232
v -5.960626 3.375737 -0.688232
v 0.834010 3.400547 -8.038964
v 0.834007 3.400547 -0.789598
v -2.450132 3.400547 -8.038964
v -2.450134 3.400547 -0.789599
v 0.834007 3.114203 -0.789598
v 0.834010 3.114203 -8.038964
v -2.450134 3.114203 -0.789599
v -2.450132 3.114203 -8.038964
v 0.734734 0.998475 -7.604735
v 0.734734 3.375737 -7.604735
v 0.734734 0.998475 -8.022304
v 0.734734 3.375737 -8.022304
v 0.829318 0.998475 -7.604735
v 0.829318 3.375737 -7.604735
v 0.829318 0.998475 -8.022304
v 0.829318 3.375737 -8.022304
v 0.794347 5.391595 -7.997881
v 0.794347 3.391595 -7.997881
v 0.794347 5.391595 -5.997881
v 0.794347 3.391595 -5.997881
v -0.473389 5.330006 -7.936290
v -1.007835 3.453185 -7.936291
v -0.473389 5.330006 -6.059470
v -1.007835 3.453185 -6.059470
v 0.725223 0.998475 -0.479641
v 0.725223 3.375737 -0.479641
v 0.725223 0.998475 -1.127022
v 0.725223 3.375737 -1.127022
v 0.819807 0.998475 -0.479641
v 0.819807 3.375737 -0.479641
v 0.819807 0.998475 -1.127022
v 0.819807 3.375737 -1.127022
v -2.445546 0.998475 -7.604732
v -2.445546 3.375737 -7.604732
v -2.445546 0.998475 -8.022300
v -2.445546 3.375737 -8.022300
v -2.350962 0.998475 -7.604732
v -2.350962 3.375737 -7.604732
v -2.350961 0.998475 -8.022300
v -2.350961 3.375737 -8.022300
v -0.473389 5.391595 -7.997880
v -1.007835 3.391595 -7.997880
v -0.473389 5.391595 -5.997880
v -1.007835 3.391595 -5.997881
v 0.697362 5.330006 -7.936291
v 0.697362 3.453185 -7.936291
v 0.697362 5.330006 -6.059470
v 0.697362 3.453185 -6.059470
v 0.794347 4.013459 -5.997881
v 0.794347 4.013459 -7.997881
v -0.641506 4.013459 -7.997880
v -0.641506 4.013459 -5.997880
v -0.641506 4.036748 -7.936290
v -0.641506 4.036748 -6.059470
v 0.697362 4.036748 -7.936291
v 0.697362 4.036748 -6.059470
v -0.473389 4.678722 -5.997880
v -0.473389 4.661038 -6.059470
v 0.697362 4.661038 -6.059470
v 0.794347 4.678722 -5.997881
v 0.794347 4.678722 -7.997881
v -0.473389 4.678722 -7.997880
v -0.473389 4.661038 -7.936290
v 0.697362 4.661038 -7.936291
v 0.794347 4.069838 -5.997881
v 0.794347 4.069838 -7.997881
v -0.627259 4.069838 -7.997880
v -0.627259 4.089655 -7.936290
v 0.697362 4.089655 -7.936291
v -0.627259 4.069838 -5.997880
v -0.627259 4.089655 -6.059470
v 0.697362 4.089655 -6.059470
v -0.473389 4.727674 -5.997880
v -0.473389 4.706975 -6.059470
v 0.697362 4.706975 -6.059470
v 0.794347 4.727674 -5.997881
v 0.794347 4.727674 -7.997881
v -0.473389 4.727674 -7.997880
v -0.473389 4.706975 -7.936290
v 0.697362 4.706975 -7.936291
v -0.462695 4.706975 -7.936290
v -0.462695 4.661038 -7.936290
v -0.462695 4.661038 -6.059471
v -0.462695 4.706975 -6.059471
v -0.619120 4.089655 -7.936290
v -0.619120 4.036748 -7.936290
v -0.619120 4.036748 -6.059470
v -0.619120 4.089655 -6.059470
v 0.741515 3.114203 -0.789598
v 0.741515 3.400547 -0.789598
v 0.741518 3.114203 -8.038964
v 0.741518 3.400547 -8.038964
v 0.746965 3.114203 2.494979
v 0.746965 3.400547 2.494979
v 0.746967 3.114203 -0.789162
v 0.746967 3.400547 -0.789162
v -6.393681 3.114203 2.412303
v -6.393681 3.400547 2.412303
v 0.831000 3.114203 2.412307
v 0.831000 3.400547 2.412307
v 0.746965 3.114203 2.412307
v 0.746965 3.400547 2.412307
v 0.746965 6.007168 2.494979
v -6.393681 3.386363 2.494976
v 0.746967 6.007168 -0.789162
v 0.831001 6.007168 -0.789162
v 0.834010 6.007168 -8.038964
v 0.834007 6.007168 -0.789598
v 0.741518 6.007168 -8.038964
v 0.741515 6.007168 -0.789598
v 0.746965 6.007168 2.412307
v -6.393681 3.386363 2.412303
v 0.831000 6.007168 2.412307
v 0.794347 5.996944 -7.977404
v 0.794347 5.996944 2.420955
v 0.794347 7.136129 -7.977404
v 0.794347 7.136129 2.420955
v -0.473389 6.058535 -7.846786
v -0.487704 6.058535 2.290338
v -0.473389 7.074540 -7.846786
v -0.487704 7.074540 2.290338
v -0.473389 5.996946 -7.977405
v -0.487704 5.996945 2.420956
v -0.473389 7.136129 -7.977405
v -0.487704 7.136129 2.420955
v 0.697362 6.058535 -7.846785
v 0.697362 6.058535 2.290337
v 0.697362 7.074540 -7.846785
v 0.697362 7.074540 2.290337
v 0.794347 7.136129 -2.618616
v 0.794347 5.996944 -2.618616
v -0.501177 5.996946 -2.618615
v -0.501177 7.136129 -2.618615
v -0.501177 6.058535 -2.668006
v -0.501177 7.074540 -2.668006
v 0.697362 6.058535 -1.054774
v 0.697362 7.074540 -1.054774
v -0.473389 7.136129 -4.029492
v -0.473389 7.074540 -3.991988
v 0.697362 7.074540 -3.991988
v 0.794347 7.136129 -4.029492
v 0.794347 5.996944 -4.029492
v -0.473389 5.996946 -4.029492
v -0.473389 6.058535 -3.991988
v 0.697362 6.058535 -3.991988
v 0.794347 7.136129 -2.738184
v 0.794347 5.996944 -2.738184
v -0.486930 5.996946 -2.738184
v -0.486930 6.058535 -2.780211
v 0.697362 6.058535 -1.166978
v -0.486930 7.136129 -2.738184
v -0.486930 7.074540 -2.780211
v 0.697362 7.074540 -1.166978
v -0.473389 7.136129 -4.133308
v -0.473389 7.074540 -4.089409
v 0.697362 7.074540 -4.089410
v 0.794347 7.136129 -4.133307
v 0.794347 5.996944 -4.133307
v -0.473389 5.996946 -4.133307
v -0.473389 6.058535 -4.089409
v 0.697362 6.058535 -4.089410
v -0.462695 6.058535 -4.089409
v -0.462695 6.058535 -3.991988
v -0.462695 7.124395 -3.991988
v -0.462695 7.124395 -4.089409
v -0.488488 6.058535 -1.166979
v -0.488488 6.058535 -1.054773
v -0.488488 7.124395 -1.054773
v -0.488488 7.124395 -1.166979
vn -0.0000 -0.0000 1.0000
vn -1.0000 -0.0000 -0.0000
vn -0.0000 -0.0000 -1.0000
vn 1.0000 -0.0000 -0.0000
vn -0.0000 1.0000 -0.0000
vn -0.0000 -1.0000 -0.0000
vn -0.8046 0.4890 0.3370
vn -0.9639 0.2513 0.0879
vn -0.8046 0.4890 -0.3370
vn -0.9676 0.2523 -0.0044
vn -0.9639 0.2513 -0.0879
vn -0.9676 0.2523 0.0044
vn -0.3446 0.9388 -0.0000
vn -1.0000 -0.0039 0.0027
vn -0.9885 0.0902 -0.1215
vn -1.0000 0.0039 0.0027
vn -0.9999 -0.0004 -0.0108
vn -0.9885 -0.0902 -0.1215
vn -0.9999 0.0004 -0.0108
vn 0.0429 0.9991 -0.0000
vn 0.0420 0.9991 -0.0000
vt 0.191133 0.435130
vt 0.238554 0.435130
vt 0.238554 0.481876
vt 0.191133 0.481876
vt 0.191133 0.483336
vt 0.238554 0.483336
vt 0.238554 0.529297
vt 0.191133 0.529297
vt 0.191133 0.576043
vt 0.238554 0.576043
vt 0.238554 0.576717
vt 0.191133 0.576717
vt 0.191133 0.622678
vt 0.238554 0.622678
vt 0.238554 0.624138
vt 0.191133 0.624138
vt 0.284515 0.576043
vt 0.285975 0.576043
vt 0.285975 0.576717
vt 0.284515 0.576717
vt 0.145173 0.576043
vt 0.145173 0.529297
vt 0.233921 0.398573
vt 0.273892 0.398573
vt 0.273892 0.438545
vt 0.233921 0.438545
vt 0.273892 0.478516
vt 0.233921 0.478516
vt 0.273892 0.518487
vt 0.233921 0.518487
vt 0.273892 0.558458
vt 0.233921 0.558458
vt 0.193950 0.478516
vt 0.193950 0.518487
vt 0.313863 0.478516
vt 0.313863 0.518487
vt 0.375000 0.000000
vt 0.625000 0.000000
vt 0.625000 0.250000
vt 0.375000 0.250000
vt 0.625000 0.500000
vt 0.375000 0.500000
vt 0.625000 0.750000
vt 0.375000 0.750000
vt 0.625000 1.000000
vt 0.375000 1.000000
vt 0.125000 0.500000
vt 0.125000 0.750000
vt 0.875000 0.500000
vt 0.875000 0.750000
vt 0.183168 0.379156
vt 0.242613 0.379156
vt 0.242613 0.438602
vt 0.183168 0.438602
vt 0.242613 0.498047
vt 0.183168 0.498047
vt 0.242613 0.557492
vt 0.183168 0.557492
vt 0.242613 0.616938
vt 0.183168 0.616938
vt 0.123723 0.498047
vt 0.123723 0.557492
vt 0.302059 0.498047
vt 0.302059 0.557492
vt 0.182928 0.386010
vt 0.235040 0.386010
vt 0.235040 0.438122
vt 0.182928 0.438122
vt 0.235040 0.490234
vt 0.182928 0.490234
vt 0.235040 0.542346
vt 0.182928 0.542346
vt 0.235040 0.594458
vt 0.182928 0.594458
vt 0.130816 0.490234
vt 0.130816 0.542346
vt 0.287152 0.490234
vt 0.287152 0.542346
vt 0.154515 0.516409
vt 0.220529 0.516409
vt 0.220529 0.582423
vt 0.154515 0.582423
vt 0.154515 0.584283
vt 0.220529 0.584283
vt 0.220529 0.648438
vt 0.154515 0.648438
vt 0.220529 0.714452
vt 0.154515 0.714452
vt 0.154515 0.778606
vt 0.220529 0.778606
vt 0.220529 0.780466
vt 0.154515 0.780466
vt 0.090360 0.714452
vt 0.090360 0.648438
vt 0.204423 0.436831
vt 0.248702 0.436831
vt 0.248702 0.481111
vt 0.204423 0.481111
vt 0.248702 0.525391
vt 0.204423 0.525391
vt 0.248702 0.569670
vt 0.204423 0.569670
vt 0.248702 0.613950
vt 0.204423 0.613950
vt 0.160143 0.525391
vt 0.160143 0.569670
vt 0.292982 0.525391
vt 0.292982 0.569670
vt 0.201148 0.466702
vt 0.232446 0.466702
vt 0.232446 0.497999
vt 0.201148 0.497999
vt 0.232446 0.529297
vt 0.201148 0.529297
vt 0.222056 0.529297
vt 0.232446 0.560594
vt 0.222056 0.560594
vt 0.232446 0.591892
vt 0.222056 0.591892
vt 0.190759 0.529297
vt 0.201148 0.560594
vt 0.190759 0.560594
vt 0.253030 0.530261
vt 0.262779 0.530261
vt 0.163024 0.382564
vt 0.231508 0.382564
vt 0.231508 0.451048
vt 0.163024 0.451048
vt 0.231508 0.519531
vt 0.163024 0.519531
vt 0.231508 0.588015
vt 0.163024 0.588015
vt 0.231508 0.656499
vt 0.163024 0.656499
vt 0.094540 0.519531
vt 0.094540 0.588015
vt 0.299991 0.519531
vt 0.299991 0.588015
vt 0.214871 0.412220
vt 0.261691 0.412220
vt 0.261691 0.459040
vt 0.214871 0.459040
vt 0.261691 0.505859
vt 0.214871 0.505859
vt 0.261691 0.552679
vt 0.214871 0.552679
vt 0.261691 0.599499
vt 0.214871 0.599499
vt 0.168052 0.505859
vt 0.168052 0.552679
vt 0.308511 0.505859
vt 0.308511 0.552679
vt 0.253030 0.559631
vt 0.262779 0.559631
vt 0.263743 0.560594
vt 0.253354 0.560594
vt 0.263743 0.529297
vt 0.242542 0.530261
vt 0.233409 0.530261
vt 0.242177 0.529297
vt 0.233409 0.559631
vt 0.242542 0.559631
vt 0.243369 0.559631
vt 0.243369 0.530261
vt 0.243059 0.529297
vt 0.242177 0.560594
vt 0.169851 0.529297
vt 0.179582 0.529297
vt 0.179582 0.560594
vt 0.169851 0.560594
vt 0.210880 0.560594
vt 0.210880 0.591892
vt 0.201148 0.591892
vt 0.210880 0.529297
vt 0.252311 0.530261
vt 0.252588 0.529297
vt 0.253354 0.529297
vt 0.252311 0.559631
vt 0.252311 0.530261
vt 0.252588 0.560594
vt 0.243059 0.560594
vt 0.180464 0.529297
vt 0.189993 0.529297
vt 0.189993 0.560594
vt 0.180464 0.560594
vt 0.211762 0.560594
vt 0.221290 0.560594
vt 0.221290 0.591892
vt 0.211762 0.591892
vt 0.211762 0.529297
vt 0.221290 0.529297
vt 0.088501 0.714452
vt 0.088501 0.648438
vt 0.284684 0.648438
vt 0.284684 0.714452
vt 0.145173 0.576717
vt 0.191133 0.434456
vt 0.238554 0.434456
vt 0.284515 0.529297
vt 0.143713 0.576717
vt 0.143713 0.576043
vt 0.143713 0.529297
vt 0.286543 0.648438
vt 0.286543 0.714452
vt 0.285975 0.529297
vt 0.180326 0.576243
vt 0.180326 0.499395
vt 0.257174 0.499395
vt 0.257174 0.576243
vt 0.334114 0.499303
vt 0.257266 0.499303
vt 0.257266 0.422455
vt 0.334114 0.422455
vt 0.205837 0.499303
vt 0.180326 0.499303
vt 0.180326 0.422455
vt 0.205837 0.422455
vt 0.257266 0.524906
vt 0.257266 0.499395
vt 0.334114 0.499395
vt 0.334114 0.524906
vt 0.128896 0.576243
vt 0.103386 0.576243
vt 0.103386 0.499395
vt 0.128896 0.499395
vt 0.105752 0.448761
vt 0.105752 0.424821
vt 0.177867 0.448761
vt 0.177867 0.424821
vt 0.180234 0.422455
vt 0.180234 0.447965
vt 0.103386 0.422455
vt 0.105752 0.474514
vt 0.105752 0.496936
vt 0.103386 0.499303
vt 0.103386 0.475408
vt 0.177867 0.496936
vt 0.180234 0.499303
vt 0.177867 0.474514
vt 0.177867 0.472481
vt 0.177867 0.472481
vt 0.105752 0.472481
vt 0.103386 0.473242
vt 0.180234 0.475408
vt 0.180234 0.576243
vt 0.156339 0.576243
vt 0.156339 0.499395
vt 0.180234 0.499395
vt 0.257266 0.576243
vt 0.257266 0.552349
vt 0.334114 0.552349
vt 0.334114 0.576243
vt 0.257174 0.499303
vt 0.233280 0.499303
vt 0.233280 0.422455
vt 0.257174 0.422455
vt 0.105752 0.450526
vt 0.103386 0.449846
vt 0.103386 0.447965
vt 0.177867 0.450526
vt 0.105752 0.472481
vt 0.180234 0.449846
vt 0.180234 0.473242
vt 0.154173 0.576243
vt 0.130777 0.576243
vt 0.130777 0.499395
vt 0.154173 0.499395
vt 0.257266 0.550182
vt 0.257266 0.526787
vt 0.334114 0.526787
vt 0.334114 0.550182
vt 0.231113 0.499303
vt 0.207718 0.499303
vt 0.207717 0.422455
vt 0.231113 0.422455
s 0
f 133/1/1 134/2/1 2/3/1 5/4/1
f 137/5/2 138/6/2 4/7/2 7/8/2
f 135/9/3 136/10/3 3/11/3 8/12/3
f 139/13/4 140/14/4 1/15/4 6/16/4
f 142/17/5 134/18/5 1/19/5 140/20/5
f 141/21/6 137/22/6 7/8/6 135/9/6
f 9/23/3 10/24/3 12/25/3 11/26/3
f 11/26/4 12/25/4 16/27/4 15/28/4
f 15/28/1 16/27/1 14/29/1 13/30/1
f 13/30/2 14/29/2 10/31/2 9/32/2
f 11/33/6 15/28/6 13/30/6 9/34/6
f 16/27/5 12/35/5 10/36/5 14/29/5
f 17/37/3 18/38/3 20/39/3 19/40/3
f 19/40/4 20/39/4 24/41/4 23/42/4
f 23/42/1 24/41/1 22/43/1 21/44/1
f 21/44/2 22/43/2 18/45/2 17/46/2
f 19/47/6 23/42/6 21/44/6 17/48/6
f 24/41/5 20/49/5 18/50/5 22/43/5
f 25/51/3 26/52/3 28/53/3 27/54/3
f 27/54/4 28/53/4 32/55/4 31/56/4
f 31/56/1 32/55/1 30/57/1 29/58/1
f 29/58/2 30/57/2 26/59/2 25/60/2
f 27/61/6 31/56/6 29/58/6 25/62/6
f 32/55/5 28/63/5 26/64/5 30/57/5
f 33/65/3 34/66/3 36/67/3 35/68/3
f 35/68/4 36/67/4 40/69/4 39/70/4
f 39/70/1 40/69/1 38/71/1 37/72/1
f 37/72/2 38/71/2 34/73/2 33/74/2
f 35/75/6 39/70/6 37/72/6 33/76/6
f 40/69/5 36/77/5 34/78/5 38/71/5
f 46/79/4 41/80/4 42/81/4 45/82/4
f 129/83/1 130/84/1 44/85/1 47/86/1
f 47/86/2 44/85/2 43/87/2 48/88/2
f 131/89/3 132/90/3 41/91/3 46/92/3
f 142/17/1 140/20/1 153/20/1 151/17/1
f 131/93/6 129/94/6 47/86/6 48/88/6
f 49/95/2 50/96/2 52/97/2 51/98/2
f 51/98/3 52/97/3 56/99/3 55/100/3
f 55/100/4 56/99/4 54/101/4 53/102/4
f 53/102/1 54/101/1 50/103/1 49/104/1
f 51/105/6 55/100/6 53/102/6 49/106/6
f 56/99/5 52/107/5 50/108/5 54/101/5
f 57/109/5 81/110/5 83/111/5 59/112/5
f 82/112/6 58/111/6 60/113/6 84/114/6
f 116/115/1 59/113/1 83/116/1 113/117/1
f 117/117/4 57/116/4 59/118/4 116/119/4
f 118/120/3 81/114/3 57/121/3 117/122/3
f 114/123/3 63/124/3 87/124/3 115/123/3
f 65/125/2 66/126/2 68/127/2 67/128/2
f 67/128/3 68/127/3 72/129/3 71/130/3
f 71/130/4 72/129/4 70/131/4 69/132/4
f 69/132/1 70/131/1 66/133/1 65/134/1
f 67/135/6 71/130/6 69/132/6 65/136/6
f 72/129/5 68/137/5 66/138/5 70/131/5
f 73/139/2 74/140/2 76/141/2 75/142/2
f 75/142/3 76/141/3 80/143/3 79/144/3
f 79/144/4 80/143/4 78/145/4 77/146/4
f 77/146/1 78/145/1 74/147/1 73/148/1
f 75/149/6 79/144/6 77/146/6 73/150/6
f 80/143/5 76/151/5 74/152/5 78/145/5
f 119/153/2 61/154/2 81/155/2 118/156/2
f 61/154/2 63/124/2 83/157/2 81/155/2
f 94/158/7 64/159/7 84/113/7 92/160/7
f 64/159/2 62/161/2 82/116/2 84/113/2
f 115/123/2 87/124/2 85/154/2 120/153/2
f 93/162/1 62/161/1 86/161/1 95/162/1
f 62/161/5 64/159/5 88/159/5 86/161/5
f 63/124/6 61/154/6 85/154/6 87/124/6
f 108/163/1 93/162/1 95/162/1 109/163/1
f 88/159/2 96/158/2 95/162/2 86/161/2
f 111/164/8 94/158/8 92/160/8 110/165/8
f 62/161/9 93/162/9 91/166/9 82/116/9
f 64/159/3 94/158/3 96/158/3 88/159/3
f 82/167/3 91/168/3 90/169/3 58/170/3
f 58/121/4 90/171/4 89/172/4 60/173/4
f 60/114/1 89/174/1 92/171/1 84/121/1
f 114/123/2 98/175/2 97/176/2 113/177/2
f 119/153/1 103/178/1 104/178/1 120/153/1
f 112/164/2 99/179/2 104/178/2 109/163/2
f 108/163/10 103/178/10 102/180/10 107/181/10
f 111/164/3 98/175/3 99/179/3 112/164/3
f 107/182/3 102/183/3 101/184/3 106/185/3
f 106/186/4 101/187/4 100/188/4 105/189/4
f 105/190/1 100/191/1 97/187/1 110/186/1
f 89/174/1 105/190/1 110/186/1 92/171/1
f 90/171/4 106/186/4 105/189/4 89/172/4
f 91/168/3 107/182/3 106/185/3 90/169/3
f 94/158/3 111/164/3 112/164/3 96/158/3
f 93/162/11 108/163/11 107/181/11 91/166/11
f 95/162/6 96/158/6 127/158/6 126/162/6
f 98/175/12 111/164/12 110/165/12 97/176/12
f 103/178/1 108/163/1 109/163/1 104/178/1
f 61/154/1 119/153/1 120/153/1 85/154/1
f 63/124/2 114/123/2 113/177/2 83/157/2
f 104/178/6 99/179/6 123/179/6 122/178/6
f 103/178/2 119/153/2 118/156/2 102/180/2
f 98/175/3 114/123/3 115/123/3 99/179/3
f 102/183/3 118/120/3 117/122/3 101/184/3
f 101/187/4 117/117/4 116/119/4 100/188/4
f 100/191/1 116/115/1 113/117/1 97/187/1
f 123/179/2 124/123/2 121/153/2 122/178/2
f 115/123/5 120/153/5 121/153/5 124/123/5
f 120/153/3 104/178/3 122/178/3 121/153/3
f 99/179/1 115/123/1 124/123/1 123/179/1
f 127/158/2 128/164/2 125/163/2 126/162/2
f 112/164/5 109/163/5 125/163/5 128/164/5
f 109/163/3 95/162/3 126/162/3 125/163/3
f 96/158/1 112/164/1 128/164/1 127/158/1
f 46/192/6 45/193/6 129/94/6 131/93/6
f 44/85/5 130/194/5 132/195/5 43/87/5
f 48/88/3 43/87/3 132/90/3 131/89/3
f 45/82/1 42/81/1 130/84/1 129/83/1
f 139/196/6 141/21/6 135/9/6 8/12/6
f 130/84/1 42/81/1 148/81/1 150/84/1
f 7/8/3 4/7/3 136/10/3 135/9/3
f 6/197/1 1/198/1 134/2/1 133/1/1
f 4/7/5 138/199/5 142/17/5 136/10/5
f 6/200/6 133/201/6 141/21/6 139/196/6
f 133/201/6 5/202/6 137/22/6 141/21/6
f 134/18/4 142/17/4 151/17/4 143/18/4
f 8/12/4 3/11/4 140/14/4 139/13/4
f 5/4/2 2/3/2 138/6/2 137/5/2
f 150/194/5 148/203/5 147/204/5 149/195/5
f 152/199/13 144/205/13 143/18/13 151/17/13
f 145/10/5 151/17/5 153/20/5 146/11/5
f 41/91/3 132/90/3 149/90/3 147/91/3
f 142/17/3 138/199/3 152/199/3 151/17/3
f 132/195/2 130/194/2 150/194/2 149/195/2
f 140/14/4 3/11/4 146/11/4 153/14/4
f 42/81/4 41/80/4 147/80/4 148/81/4
f 3/11/3 136/10/3 145/10/3 146/11/3
f 136/10/2 142/17/2 151/17/2 145/10/2
f 138/6/4 2/3/4 144/3/4 152/6/4
f 2/3/1 134/2/1 143/2/1 144/3/1
f 154/206/3 162/207/3 164/208/3 156/209/3
f 163/210/1 155/211/1 157/212/1 165/213/1
f 197/214/5 156/215/5 164/216/5 194/217/5
f 198/218/4 154/219/4 156/220/4 197/221/4
f 199/222/6 162/223/6 154/224/6 198/225/6
f 195/226/6 160/227/6 168/227/6 196/226/6
f 200/228/2 158/229/2 162/230/2 199/231/2
f 158/229/2 160/227/2 164/232/2 162/230/2
f 175/233/14 161/234/14 165/235/14 173/236/14
f 161/234/2 159/237/2 163/238/2 165/235/2
f 196/226/2 168/227/2 166/229/2 201/228/2
f 174/239/5 159/237/5 167/237/5 176/239/5
f 159/237/3 161/234/3 169/234/3 167/237/3
f 160/227/1 158/229/1 166/229/1 168/227/1
f 189/240/5 174/239/5 176/239/5 190/241/5
f 169/234/2 177/233/2 176/239/2 167/237/2
f 192/242/15 175/233/15 173/236/15 191/243/15
f 159/237/16 174/239/16 172/244/16 163/238/16
f 161/234/6 175/233/6 177/233/6 169/234/6
f 163/245/6 172/246/6 171/247/6 155/248/6
f 155/249/4 171/250/4 170/251/4 157/252/4
f 157/253/5 170/254/5 173/255/5 165/256/5
f 195/226/2 179/257/2 178/258/2 194/259/2
f 200/228/5 184/260/5 185/260/5 201/228/5
f 193/261/2 180/257/2 185/260/2 190/241/2
f 189/240/17 184/260/17 183/262/17 188/263/17
f 192/242/6 179/257/6 180/257/6 193/261/6
f 188/264/6 183/265/6 182/266/6 187/267/6
f 187/268/4 182/269/4 181/270/4 186/271/4
f 186/272/5 181/273/5 178/274/5 191/275/5
f 170/254/5 186/272/5 191/275/5 173/255/5
f 171/250/4 187/268/4 186/271/4 170/251/4
f 172/246/6 188/264/6 187/267/6 171/247/6
f 175/233/6 192/242/6 193/261/6 177/233/6
f 174/239/18 189/240/18 188/263/18 172/244/18
f 176/239/1 177/233/1 208/233/1 207/239/1
f 179/257/19 192/242/19 191/243/19 178/258/19
f 184/260/5 189/240/5 190/241/5 185/260/5
f 158/229/5 200/228/5 201/228/5 166/229/5
f 160/227/2 195/226/2 194/259/2 164/232/2
f 185/260/1 180/257/1 204/257/1 203/260/1
f 184/260/2 200/228/2 199/231/2 183/262/2
f 179/257/6 195/226/6 196/226/6 180/257/6
f 183/265/6 199/222/6 198/225/6 182/266/6
f 182/269/4 198/218/4 197/221/4 181/270/4
f 181/273/5 197/214/5 194/217/5 178/274/5
f 204/257/2 205/226/2 202/228/2 203/260/2
f 196/226/3 201/228/3 202/228/3 205/226/3
f 201/228/6 185/260/6 203/260/6 202/228/6
f 180/257/20 196/226/20 205/226/20 204/257/20
f 208/233/2 209/261/2 206/241/2 207/239/2
f 193/261/3 190/241/3 206/241/3 209/261/3
f 190/241/6 176/239/6 207/239/6 206/241/6
f 177/233/21 193/261/21 209/261/21 208/233/21
