# Blender 5.1.2
# www.blender.org
o Cube.003
v -0.599670 3.394421 1.201908
v -0.599670 3.599600 1.201908
v -0.599670 3.394421 -0.480956
v -0.599670 3.599600 -0.480956
v 0.469922 3.394421 1.171852
v 0.469922 3.599600 1.171852
v 0.469922 3.394421 -0.448477
v 0.469922 3.599600 -0.448477
v -0.574261 3.629730 1.201908
v -0.574261 3.629730 -0.480956
v -0.574261 3.355968 -0.480956
v -0.574261 3.355968 1.201908
v -0.534743 3.394421 -0.448477
v -0.534743 3.599600 -0.448477
v -0.534743 3.394421 1.171852
v -0.534743 3.599600 1.171852
v 0.473097 3.629730 -0.451113
v 0.480499 3.609251 -0.458881
v 0.485012 3.626986 -0.463077
v 0.487721 3.619491 -0.465920
v 0.473097 3.629730 1.172065
v 0.480467 3.609223 1.181451
v 0.485008 3.626982 1.184246
v 0.487705 3.619476 1.187681
v -0.534743 3.629730 -0.451113
v -0.534743 3.609258 -0.458889
v -0.564586 3.629730 -0.480956
v -0.534743 3.626987 -0.463078
v -0.534743 3.619494 -0.465924
v -0.534743 3.609199 1.181428
v -0.534743 3.629730 1.172065
v -0.564586 3.629730 1.201908
v -0.534743 3.619464 1.187670
v -0.534743 3.626979 1.184243
v 0.465466 3.355968 -0.443482
v 0.478187 3.384796 -0.456607
v 0.480887 3.359830 -0.458957
v 0.485543 3.370382 -0.463761
v 0.478160 3.384827 1.179351
v 0.465466 3.355968 1.164434
v 0.485529 3.370398 1.185609
v 0.480883 3.359834 1.180149
v -0.534743 3.384788 -0.456614
v -0.534743 3.355968 -0.443482
v -0.572217 3.355968 -0.480956
v -0.534743 3.370378 -0.463764
v -0.534743 3.359829 -0.458958
v -0.534743 3.355968 1.164434
v -0.534743 3.384853 1.179331
v -0.572217 3.355968 1.201908
v -0.534743 3.359838 1.180146
v -0.534743 3.370410 1.185599
v 0.525680 3.578739 0.452633
v 0.525680 3.578739 0.239195
v 0.525680 3.416208 0.452633
v 0.525680 3.416208 0.239195
v 0.442123 3.347704 0.239195
v 0.442123 3.653095 0.239195
v 0.442123 3.347704 0.452633
v 0.442123 3.653095 0.452633
v 0.473987 3.347704 0.452633
v 0.525680 3.399396 0.452633
v 0.499834 3.354629 0.452633
v 0.518754 3.373550 0.452633
v 0.525680 3.601402 0.452633
v 0.473987 3.653095 0.452633
v 0.518754 3.627249 0.452633
v 0.499834 3.646169 0.452633
v 0.525680 3.399396 0.239195
v 0.473987 3.347704 0.239195
v 0.518754 3.373550 0.239195
v 0.499834 3.354629 0.239195
v 0.473987 3.653095 0.239195
v 0.525680 3.601402 0.239195
v 0.499834 3.646169 0.239195
v 0.518754 3.627249 0.239195
v 0.498084 3.579608 0.239195
v 0.470459 3.607233 0.239195
v 0.476717 3.624743 0.239195
v 0.517302 3.587389 0.239195
v 0.494382 3.593420 0.239195
v 0.484271 3.603532 0.239195
v 0.470459 3.607233 0.452633
v 0.498084 3.579608 0.452633
v 0.517302 3.587389 0.452633
v 0.476717 3.624743 0.452633
v 0.484271 3.603532 0.452633
v 0.494382 3.593420 0.452633
v 0.498084 3.411994 0.452633
v 0.466358 3.380269 0.452633
v 0.470663 3.364312 0.452633
v 0.517405 3.405432 0.452633
v 0.493833 3.396132 0.452633
v 0.482221 3.384519 0.452633
v 0.466358 3.380269 0.239195
v 0.498084 3.411994 0.239195
v 0.517405 3.405432 0.239195
v 0.470663 3.364312 0.239195
v 0.482221 3.384519 0.239195
v 0.493833 3.396132 0.239195
v 0.309612 3.653095 0.239195
v 0.246119 3.653095 0.302688
v 0.285315 3.653095 0.244028
v 0.264716 3.653095 0.257792
v 0.250952 3.653095 0.278390
v 0.246119 3.653095 0.389140
v 0.309612 3.653095 0.452633
v 0.250952 3.653095 0.413438
v 0.264716 3.653095 0.434036
v 0.285315 3.653095 0.447800
v 0.309612 3.607233 0.452633
v 0.246119 3.607233 0.389140
v 0.285315 3.607233 0.447800
v 0.264716 3.607233 0.434036
v 0.250952 3.607233 0.413438
v 0.246119 3.607233 0.302688
v 0.309612 3.607233 0.239195
v 0.250952 3.607233 0.278390
v 0.264716 3.607233 0.257792
v 0.285315 3.607233 0.244028
v 0.246119 3.347704 0.292490
v 0.299414 3.347704 0.239195
v 0.250176 3.347704 0.272095
v 0.261729 3.347704 0.254805
v 0.279019 3.347704 0.243252
v 0.299414 3.347704 0.452633
v 0.246119 3.347704 0.399339
v 0.279019 3.347704 0.448576
v 0.261729 3.347704 0.437024
v 0.250176 3.347704 0.419734
v 0.299414 3.380269 0.239195
v 0.246119 3.380269 0.292490
v 0.279019 3.380269 0.243252
v 0.261729 3.380269 0.254805
v 0.250176 3.380269 0.272095
v 0.246119 3.380269 0.399339
v 0.299414 3.380269 0.452633
v 0.250176 3.380269 0.419734
v 0.261729 3.380269 0.437024
v 0.279019 3.380269 0.448576
vn -1.0000 -0.0000 -0.0000
vn -0.0000 -0.0000 -1.0000
vn 1.0000 -0.0000 -0.0000
vn 0.4201 -0.0000 0.9075
vn -0.7645 0.6447 -0.0000
vn -0.8343 -0.5513 -0.0000
vn -0.0000 -0.0000 1.0000
vn 0.4474 -0.0000 -0.8943
vn 0.2180 0.9513 -0.2180
vn 0.5098 0.3054 -0.8042
vn 0.2156 -0.5531 -0.8047
vn 0.2232 -0.5065 0.8329
vn 0.4997 0.3594 0.7881
vn 0.2152 0.9526 0.2152
vn -0.0000 0.9747 -0.2235
vn -0.0000 0.3549 -0.9349
vn -0.0000 -0.5665 -0.8241
vn 0.2246 0.9745 -0.0000
vn 0.9408 0.3391 -0.0000
vn 0.8171 -0.5766 -0.0000
vn -0.0000 0.9755 0.2202
vn -0.0000 0.4155 0.9096
vn -0.0000 -0.5194 0.8545
vn -0.0000 -0.7331 -0.6801
vn -0.0000 1.0000 -0.0000
vn 0.6741 -0.7387 -0.0000
vn -0.0000 -0.7062 0.7080
vn 0.3176 -0.4707 -0.8231
vn 0.3012 -0.4458 0.8429
vn 0.2334 0.4322 -0.8710
vn 0.4997 -0.3591 -0.7882
vn 0.2353 -0.9430 -0.2353
vn 0.2326 -0.9444 0.2326
vn 0.4909 -0.3993 0.7743
vn 0.2387 0.3866 0.8908
vn 0.2431 -0.9700 -0.0000
vn 0.9151 -0.4032 -0.0000
vn 0.8906 0.4547 -0.0000
vn -0.0000 -0.9710 0.2390
vn -0.0000 -0.4588 0.8886
vn -0.0000 0.3980 0.9174
vn -0.0000 -0.9702 -0.2421
vn -0.0000 -0.4145 -0.9101
vn -0.0000 0.4445 -0.8958
vn -0.0000 -1.0000 -0.0000
vn 0.7587 0.6514 -0.0000
vn -0.0000 0.6453 -0.7640
vn -0.0000 0.6158 0.7879
vn 0.3665 0.3511 -0.8616
vn 0.3459 0.3308 0.8780
vn 0.2588 0.9659 -0.0000
vn 0.7071 0.7071 -0.0000
vn 0.9659 0.2588 -0.0000
vn 0.2588 -0.9659 -0.0000
vn 0.7071 -0.7071 -0.0000
vn 0.9659 -0.2588 -0.0000
vn -0.2588 -0.9659 -0.0000
vn -0.7071 -0.7071 -0.0000
vn -0.9659 -0.2588 -0.0000
vn -0.9659 0.2588 -0.0000
vn -0.7071 0.7071 -0.0000
vn -0.2588 0.9659 -0.0000
vn -0.1951 -0.0000 0.9808
vn -0.5556 -0.0000 0.8315
vn -0.8315 -0.0000 0.5556
vn -0.9808 -0.0000 0.1951
vn -0.1951 -0.0000 -0.9808
vn -0.5556 -0.0000 -0.8315
vn -0.8315 -0.0000 -0.5556
vn -0.9808 -0.0000 -0.1951
vt 0.332353 0.773561
vt 0.343153 0.773561
vt 0.343153 0.955174
vt 0.332353 0.955174
vt 0.438021 0.941119
vt 0.433154 0.941119
vt 0.433154 0.892257
vt 0.438021 0.892257
vt 0.433154 0.813453
vt 0.438021 0.813453
vt 0.332353 0.765840
vt 0.343153 0.765840
vt 0.290460 0.799775
vt 0.290460 0.752479
vt 0.310647 0.917340
vt 0.310647 0.794155
vt 0.311954 0.796613
vt 0.311835 0.914893
vt 0.449398 0.853837
vt 0.449398 0.810226
vt 0.468891 0.810227
vt 0.468891 0.853837
vt 0.433154 0.764592
vt 0.438021 0.764592
vt 0.343153 0.963009
vt 0.332353 0.963009
vt 0.290460 0.801510
vt 0.290460 0.800200
vt 0.290460 0.939928
vt 0.290460 0.941238
vt 0.336021 0.847909
vt 0.291770 0.847909
vt 0.291050 0.847125
vt 0.336021 0.847071
vt 0.290460 0.847057
vt 0.290460 0.847071
vt 0.291770 0.893528
vt 0.291050 0.894315
vt 0.290460 0.894378
vt 0.290460 0.894367
vt 0.336021 0.893528
vt 0.336021 0.894367
vt 0.093665 0.989591
vt 0.026290 0.989591
vt 0.026290 0.792338
vt 0.093665 0.792338
vt 0.337331 0.847071
vt 0.337756 0.847071
vt 0.337756 0.894367
vt 0.337331 0.894367
vt 0.290460 0.941663
vt 0.313478 0.795583
vt 0.313275 0.796531
vt 0.312010 0.796582
vt 0.313180 0.797284
vt 0.313171 0.798254
vt 0.313161 0.913032
vt 0.313176 0.914108
vt 0.311895 0.914923
vt 0.313281 0.914946
vt 0.313495 0.915951
vt 0.336811 0.883862
vt 0.335372 0.824538
vt 0.335677 0.824125
vt 0.337170 0.884296
vt 0.335914 0.823806
vt 0.337462 0.884640
vt 0.336298 0.823325
vt 0.337803 0.885106
vt 0.336562 0.822954
vt 0.338071 0.885487
vt 0.313635 0.794849
vt 0.313652 0.916710
vt 0.416789 0.830242
vt 0.416789 0.870209
vt 0.413094 0.870209
vt 0.413094 0.830242
vt 0.409399 0.870209
vt 0.409399 0.830242
vt 0.449398 0.790275
vt 0.468891 0.790275
vt 0.468891 0.804145
vt 0.449398 0.804145
vt 0.488417 0.805427
vt 0.468923 0.805427
vt 0.468923 0.797851
vt 0.488417 0.797851
vt 0.468923 0.790275
vt 0.488417 0.790275
vt 0.468891 0.872219
vt 0.449398 0.872219
vt 0.449398 0.858348
vt 0.468891 0.858348
vt 0.468923 0.814767
vt 0.488417 0.814767
vt 0.421345 0.830242
vt 0.421345 0.870209
vt 0.437046 0.938197
vt 0.438341 0.938197
vt 0.439519 0.937173
vt 0.439635 0.935893
vt 0.443350 0.938197
vt 0.439635 0.946516
vt 0.439635 0.877886
vt 0.439519 0.878797
vt 0.438341 0.882154
vt 0.437046 0.882154
vt 0.439635 0.873835
vt 0.442112 0.882154
vt 0.449366 0.938197
vt 0.449366 0.942753
vt 0.448139 0.945759
vt 0.445608 0.948346
vt 0.442601 0.950143
vt 0.439635 0.950143
vt 0.439635 0.870209
vt 0.442601 0.870209
vt 0.445608 0.872005
vt 0.448139 0.874592
vt 0.449366 0.877599
vt 0.449366 0.882154
vt 0.420594 0.882154
vt 0.419356 0.882312
vt 0.418364 0.878886
vt 0.418364 0.878134
vt 0.413971 0.882154
vt 0.418364 0.876579
vt 0.418364 0.934669
vt 0.418364 0.936433
vt 0.419356 0.938040
vt 0.420594 0.938197
vt 0.418364 0.946561
vt 0.413971 0.938197
vt 0.418364 0.870209
vt 0.409399 0.877599
vt 0.410895 0.874907
vt 0.413413 0.872273
vt 0.416164 0.870209
vt 0.409399 0.882154
vt 0.409399 0.938197
vt 0.418364 0.950143
vt 0.416164 0.950143
vt 0.413413 0.948079
vt 0.410895 0.945445
vt 0.409399 0.942753
vt 0.439635 0.901037
vt 0.449366 0.901098
vt 0.449366 0.904572
vt 0.439635 0.904534
vt 0.449366 0.910176
vt 0.439635 0.910176
vt 0.439635 0.798593
vt 0.449366 0.790275
vt 0.449366 0.797614
vt 0.439635 0.802980
vt 0.449366 0.802164
vt 0.439635 0.810090
vt 0.449366 0.919253
vt 0.439635 0.917454
vt 0.439635 0.913921
vt 0.449366 0.915779
vt 0.439635 0.906555
vt 0.448037 0.831983
vt 0.439635 0.830242
vt 0.439635 0.822902
vt 0.449136 0.827795
vt 0.439635 0.818353
vt 0.449366 0.826279
vt 0.440289 0.830242
vt 0.443763 0.831147
vt 0.449366 0.858319
vt 0.448675 0.862869
vt 0.446707 0.866727
vt 0.443763 0.869304
vt 0.440289 0.870209
vt 0.439635 0.815071
vt 0.439635 0.807824
vt 0.439635 0.874508
vt 0.439635 0.889180
vt 0.418364 0.916103
vt 0.409399 0.917795
vt 0.409399 0.914879
vt 0.418364 0.913207
vt 0.409399 0.910176
vt 0.418364 0.907113
vt 0.418364 0.830242
vt 0.409399 0.824081
vt 0.418364 0.824081
vt 0.409399 0.820262
vt 0.418364 0.820262
vt 0.409399 0.902557
vt 0.418364 0.902422
vt 0.418364 0.905389
vt 0.409399 0.905472
vt 0.418364 0.910176
vt 0.409399 0.790275
vt 0.418364 0.797320
vt 0.418364 0.800951
vt 0.409399 0.796435
vt 0.418364 0.806908
vt 0.409399 0.800254
vt 0.473791 0.872219
vt 0.471928 0.871030
vt 0.470349 0.867643
vt 0.469294 0.862575
vt 0.468923 0.856597
vt 0.488417 0.856597
vt 0.488046 0.862575
vt 0.486991 0.867643
vt 0.485412 0.871030
vt 0.483549 0.872219
vt 0.418364 0.892539
vt 0.418364 0.880237
vt 0.418364 0.805283
vt 0.418364 0.811535
s 0
f 1/1/1 2/2/1 4/3/1 3/4/1
f 13/5/2 14/6/2 8/7/2 7/8/2
f 7/8/3 8/7/3 6/9/3 5/10/3
f 15/11/4 16/12/4 2/2/4 1/1/4
f 4/13/5 2/14/5 9/14/5 10/13/5
f 1/15/6 3/16/6 11/17/6 12/18/6
f 56/19/3 54/20/3 53/21/3 55/22/3
f 5/10/7 6/9/7 16/23/7 15/24/7
f 3/4/8 4/3/8 14/25/8 13/26/8
f 25/27/9 28/27/9 27/28/9
f 28/27/10 29/27/10 27/28/10
f 29/27/11 26/27/11 27/28/11
f 30/29/12 33/29/12 32/30/12
f 33/29/13 34/29/13 32/30/13
f 34/29/14 31/29/14 32/30/14
f 25/31/15 17/32/15 19/33/15 28/34/15
f 28/27/16 19/33/16 20/35/16 29/27/16
f 29/27/17 20/35/17 18/36/17 26/27/17
f 17/32/18 21/37/18 23/38/18 19/33/18
f 19/33/19 23/38/19 24/39/19 20/35/19
f 20/35/20 24/39/20 22/40/20 18/36/20
f 21/37/21 31/41/21 34/42/21 23/38/21
f 23/38/22 34/29/22 33/29/22 24/39/22
f 24/39/23 33/29/23 30/29/23 22/40/23
f 8/36/24 14/27/24 26/27/24 18/36/24
f 17/43/25 25/44/25 31/45/25 21/46/25
f 6/40/26 8/36/26 18/36/26 22/40/26
f 16/29/27 6/40/27 22/40/27 30/29/27
f 25/31/25 27/47/25 10/48/25 9/49/25 32/50/25 31/41/25
f 14/27/28 4/13/28 10/13/28 27/28/28 26/27/28
f 2/51/29 16/29/29 30/29/29 32/30/29 9/51/29
f 43/52/30 46/53/30 45/54/30
f 46/53/31 47/55/31 45/54/31
f 47/55/32 44/56/32 45/54/32
f 48/57/33 51/58/33 50/59/33
f 51/58/34 52/60/34 50/59/34
f 52/60/35 49/61/35 50/59/35
f 40/62/36 35/63/36 37/64/36 42/65/36
f 42/65/37 37/64/37 38/66/37 41/67/37
f 41/67/38 38/66/38 36/68/38 39/69/38
f 48/57/39 40/62/39 42/65/39 51/58/39
f 51/58/40 42/65/40 41/67/40 52/60/40
f 52/60/41 41/67/41 39/69/41 49/61/41
f 35/63/42 44/56/42 47/55/42 37/64/42
f 37/64/43 47/55/43 46/53/43 38/66/43
f 38/66/44 46/53/44 43/52/44 36/68/44
f 44/56/45 35/63/45 40/62/45 48/57/45
f 7/70/46 5/71/46 39/69/46 36/68/46
f 13/72/47 7/70/47 36/68/47 43/52/47
f 5/71/48 15/73/48 49/61/48 39/69/48
f 11/17/45 45/54/45 44/56/45 48/57/45 50/59/45 12/18/45
f 3/16/49 13/72/49 43/52/49 45/54/49 11/17/49
f 15/73/50 1/15/50 12/18/50 50/59/50 49/61/50
f 73/74/51 66/75/51 68/76/51 75/77/51
f 75/77/52 68/76/52 67/78/52 76/79/52
f 76/80/53 67/81/53 65/82/53 74/83/53
f 61/84/54 70/85/54 72/86/54 63/87/54
f 63/87/55 72/86/55 71/88/55 64/89/55
f 64/90/56 71/91/56 69/92/56 62/93/56
f 69/92/3 56/19/3 55/22/3 62/93/3
f 57/94/45 70/85/45 61/84/45 59/95/45
f 73/74/25 58/96/25 60/97/25 66/75/25
f 54/20/3 74/83/3 65/82/3 53/21/3
f 77/98/2 81/99/2 82/100/2 78/101/2 79/102/2 80/103/2
f 83/104/7 87/105/7 88/106/7 84/107/7 85/108/7 86/109/7
f 83/104/57 78/101/57 82/100/57 87/105/57
f 87/105/58 82/100/58 81/99/58 88/106/58
f 88/106/59 81/99/59 77/98/59 84/107/59
f 80/103/2 79/102/2 58/110/2 73/111/2 75/112/2 76/113/2 74/114/2 54/115/2
f 53/116/7 65/117/7 67/118/7 68/119/7 66/120/7 60/121/7 86/109/7 85/108/7
f 89/122/7 93/123/7 94/124/7 90/125/7 91/126/7 92/127/7
f 95/128/2 99/129/2 100/130/2 96/131/2 97/132/2 98/133/2
f 89/122/60 96/131/60 100/130/60 93/123/60
f 93/123/61 100/130/61 99/129/61 94/124/61
f 94/124/62 99/129/62 95/128/62 90/125/62
f 96/131/1 89/122/1 84/107/1 77/98/1
f 55/134/7 53/116/7 85/108/7 84/107/7 89/122/7 92/127/7
f 61/135/7 63/136/7 64/137/7 62/138/7 55/134/7 92/127/7 91/126/7 59/139/7
f 57/140/2 98/133/2 97/132/2 56/141/2 69/142/2 71/143/2 72/144/2 70/145/2
f 97/132/2 96/131/2 77/98/2 80/103/2 54/115/2 56/141/2
f 111/146/63 107/147/63 110/148/63 113/149/63
f 113/149/64 110/148/64 109/150/64 114/151/64
f 114/152/65 109/153/65 108/154/65 115/155/65
f 115/155/66 108/154/66 106/156/66 112/157/66
f 101/158/67 117/159/67 120/160/67 103/161/67
f 103/161/68 120/160/68 119/162/68 104/150/68
f 104/163/69 119/164/69 118/165/69 105/166/69
f 105/166/70 118/165/70 116/167/70 102/168/70
f 58/96/25 101/169/25 103/170/25 104/163/25 105/166/25 102/168/25 106/171/25 108/172/25 109/173/25 110/174/25 107/175/25 60/97/25
f 112/157/1 106/156/1 102/168/1 116/167/1
f 117/159/2 101/158/2 58/110/2 79/102/2 78/101/2
f 83/104/7 86/109/7 60/121/7 107/147/7 111/146/7
f 83/104/45 111/176/45 113/177/45 114/152/45 115/155/45 112/157/45 116/178/45 118/179/45 119/162/45 120/160/45 117/159/45 78/101/45
f 131/180/67 122/181/67 125/182/67 133/183/67
f 133/183/68 125/182/68 124/184/68 134/185/68
f 134/186/69 124/79/69 123/187/69 135/188/69
f 135/188/70 123/187/70 121/189/70 132/190/70
f 126/191/63 137/192/63 140/193/63 128/194/63
f 128/194/64 140/193/64 139/195/64 129/184/64
f 129/196/65 139/197/65 138/198/65 130/199/65
f 130/199/66 138/198/66 136/200/66 127/201/66
f 122/181/2 131/180/2 95/128/2 98/133/2 57/140/2
f 127/201/1 136/200/1 132/190/1 121/189/1
f 121/202/45 123/203/45 124/204/45 125/205/45 122/206/45 57/94/45 59/95/45 126/207/45 128/208/45 129/209/45 130/210/45 127/211/45
f 59/139/7 91/126/7 90/125/7 137/192/7 126/191/7
f 95/128/25 131/180/25 133/183/25 134/185/25 135/212/25 132/213/25 136/200/25 138/198/25 139/197/25 140/214/25 137/215/25 90/125/25
