# Blender 5.0.0
# www.blender.org
o Cube
v 1.760156 1.398450 0.202078
v 1.763176 1.732015 0.202078
v -0.198261 1.599694 -0.637887
v -0.185764 1.697478 -0.637887
v 1.760156 1.398450 -0.637887
v 1.763176 1.732015 -0.637887
v 0.805581 1.530485 0.204780
v 0.804950 1.739260 0.195602
v 0.782457 1.783734 -0.637887
v 0.783098 1.529850 -0.637887
v 1.287034 1.474054 0.218792
v 1.272817 1.782746 -0.637887
v 1.284063 1.725670 0.218792
v 1.275926 1.475814 -0.637887
v 0.325837 1.731073 0.178156
v 0.291448 1.571044 -0.637887
v 0.325174 1.571968 0.178156
v 0.292098 1.760656 -0.637887
v 1.613106 1.421948 0.233376
v 1.566967 1.760365 -0.637887
v 1.570462 1.722374 0.233376
v 1.609654 1.422495 -0.637887
v 1.875476 3.741985 -0.637887
v 1.875476 3.741985 0.190358
v 1.776729 3.728886 -0.637887
v 1.780224 3.728886 0.193865
v 1.546515 2.613400 -0.637887
v 1.763636 2.599225 -0.637887
v 1.550010 2.613400 0.213620
v 1.763636 2.599225 0.204721
v 1.759380 2.156462 -0.637887
v 1.759380 2.156462 0.203400
v 1.539332 2.177724 -0.637887
v 1.542827 2.177724 0.223498
v 1.630173 3.158899 -0.637887
v 1.633668 3.158899 0.203743
v 1.808980 3.151812 -0.637887
v 1.808980 3.151812 0.206043
v 1.718525 3.535564 -0.637887
v 1.722021 3.535564 0.197362
v 1.875476 3.533055 -0.637887
v 1.875476 3.533055 0.189890
v 1.983658 3.699906 -0.637887
v 1.983658 3.699906 0.190358
v 1.983310 3.555629 -0.637887
v 1.983310 3.555629 0.189890
v 1.753539 3.638775 -0.637887
v 1.757034 3.638775 0.195613
v 1.875476 3.637520 0.190124
v 1.999882 3.627768 -0.637887
v 1.999882 3.627768 0.190124
v 1.775993 0.000000 0.173541
v 1.558251 1.470454 0.192440
v 1.775993 0.000000 0.026539
v 1.558251 1.470454 0.007640
v 1.922996 0.000000 0.173541
v 1.743051 1.470454 0.192440
v 1.922996 0.000000 0.026539
v 1.743051 1.470454 0.007640
v 1.616507 0.732015 0.192440
v 1.616507 0.732015 0.007640
v 1.786884 0.732015 0.007640
v 1.786884 0.732015 0.192440
v 1.580378 1.101235 0.192440
v 1.580378 1.101235 0.007640
v 1.765178 1.101235 0.007640
v 1.765178 1.101235 0.192440
v 1.680511 0.362796 0.019692
v 1.841207 0.362796 0.019692
v 1.841207 0.362796 0.180388
v 1.680511 0.362796 0.180388
v -0.053990 0.000000 0.053990
v -0.081347 1.631749 0.081347
v -0.053990 0.000000 -0.053990
v -0.081347 1.631749 -0.081347
v 0.053990 0.000000 0.053990
v 0.081347 1.631749 0.081347
v 0.053990 0.000000 -0.053990
v 0.081347 1.631749 -0.081347
v 0.072070 1.586635 0.185412
v -0.165783 1.599694 -0.045190
v -0.042279 1.593165 0.147029
v -0.129339 1.597945 0.062623
v -0.157771 1.701568 -0.045190
v 0.072073 1.718425 0.185383
v -0.129339 1.697278 0.062619
v -0.042277 1.711139 0.147015
v 1.763176 1.732015 -0.217905
v 1.760156 1.398450 -0.217905
v 0.793704 1.783734 -0.216554
v 0.794340 1.530168 -0.216554
v 1.278440 1.782746 -0.209547
v 1.281480 1.474934 -0.209547
v 0.308311 1.571506 -0.238272
v 0.308968 1.755412 -0.238272
v 1.568714 1.760365 -0.202255
v 1.611380 1.422222 -0.202255
v 1.875476 3.741985 -0.223765
v 1.778476 3.728886 -0.222011
v 1.763636 2.599225 -0.216583
v 1.548263 2.613400 -0.212133
v 1.541080 2.177724 -0.207194
v 1.759380 2.156462 -0.217244
v 1.808980 3.151812 -0.215922
v 1.631921 3.158899 -0.217072
v 1.875476 3.533055 -0.223999
v 1.720273 3.535564 -0.220263
v 1.983658 3.699906 -0.223765
v 1.983310 3.555629 -0.223999
v 1.999882 3.627768 -0.223882
v 1.755287 3.638775 -0.221137
v 1.760156 1.398450 -1.477852
v 1.763176 1.732015 -1.477852
v 0.805581 1.530485 -1.480554
v 0.804950 1.739260 -1.471376
v 1.287034 1.474054 -1.494567
v 1.284063 1.725670 -1.494567
v 0.325837 1.731073 -1.453930
v 0.325174 1.571968 -1.453930
v 1.613106 1.421948 -1.509151
v 1.570462 1.722374 -1.509151
v 1.875476 3.741985 -1.466132
v 1.780224 3.728886 -1.469639
v 1.550010 2.613400 -1.489395
v 1.763636 2.599225 -1.480496
v 1.759380 2.156462 -1.479174
v 1.542827 2.177724 -1.499273
v 1.633668 3.158899 -1.479517
v 1.808980 3.151812 -1.481817
v 1.722021 3.535564 -1.473136
v 1.875476 3.533055 -1.465664
v 1.983658 3.699906 -1.466132
v 1.983310 3.555629 -1.465664
v 1.757034 3.638775 -1.471388
v 1.875476 3.637520 -1.465898
v 1.999882 3.627768 -1.465898
v 1.775993 0.000000 -1.449315
v 1.558251 1.470454 -1.468214
v 1.775993 0.000000 -1.302313
v 1.558251 1.470454 -1.283414
v 1.922996 0.000000 -1.449315
v 1.743051 1.470454 -1.468214
v 1.922996 0.000000 -1.302313
v 1.743051 1.470454 -1.283414
v 1.616507 0.732015 -1.468214
v 1.616507 0.732015 -1.283414
v 1.786884 0.732015 -1.283414
v 1.786884 0.732015 -1.468214
v 1.580378 1.101235 -1.468214
v 1.580378 1.101235 -1.283414
v 1.765178 1.101235 -1.283414
v 1.765178 1.101235 -1.468214
v 1.680511 0.362796 -1.295466
v 1.841207 0.362796 -1.295466
v 1.841207 0.362796 -1.456162
v 1.680511 0.362796 -1.456162
v -0.053990 0.000000 -1.329764
v -0.081347 1.631749 -1.357121
v -0.053990 0.000000 -1.221784
v -0.081347 1.631749 -1.194427
v 0.053990 0.000000 -1.329764
v 0.081347 1.631749 -1.357121
v 0.053990 0.000000 -1.221784
v 0.081347 1.631749 -1.194427
v 0.072070 1.586635 -1.461186
v -0.165783 1.599694 -1.230585
v -0.042279 1.593165 -1.422803
v -0.129339 1.597945 -1.338397
v -0.157771 1.701568 -1.230585
v 0.072073 1.718425 -1.461158
v -0.129339 1.697278 -1.338393
v -0.042277 1.711139 -1.422789
v 1.763176 1.732015 -1.057870
v 1.760156 1.398450 -1.057870
v 0.793704 1.783734 -1.059221
v 0.794340 1.530168 -1.059221
v 1.278440 1.782746 -1.066227
v 1.281480 1.474934 -1.066227
v 0.308311 1.571506 -1.037502
v 0.308968 1.755412 -1.037502
v 1.568714 1.760365 -1.073519
v 1.611380 1.422222 -1.073519
v 1.875476 3.741985 -1.052010
v 1.778476 3.728886 -1.053763
v 1.763636 2.599225 -1.059191
v 1.548263 2.613400 -1.063641
v 1.541080 2.177724 -1.068580
v 1.759380 2.156462 -1.058530
v 1.808980 3.151812 -1.059852
v 1.631921 3.158899 -1.058702
v 1.875476 3.533055 -1.051776
v 1.720273 3.535564 -1.055512
v 1.983658 3.699906 -1.052010
v 1.983310 3.555629 -1.051776
v 1.999882 3.627768 -1.051893
v 1.755287 3.638775 -1.054637
vn 1.0000 -0.0091 -0.0000
vn -0.1578 -0.9875 -0.0000
vn 0.0113 0.9927 0.1197
vn -0.0856 -0.9963 0.0038
vn -0.0373 0.0196 0.9991
vn -0.0479 -0.0040 0.9988
vn 0.0401 0.9932 0.1089
vn -0.1146 -0.9934 0.0016
vn -0.0411 0.9956 0.0841
vn -0.0450 0.0249 0.9987
vn 0.1816 0.0114 0.9833
vn -0.1350 0.9908 0.0003
vn -0.9684 0.2493 0.0041
vn 0.3625 0.9320 -0.0000
vn 0.0419 0.0028 0.9991
vn 0.0680 0.0088 0.9976
vn 1.0000 -0.0096 -0.0000
vn -0.9999 0.0166 0.0041
vn -0.9980 -0.0632 0.0013
vn 1.0000 0.0089 -0.0000
vn 0.1250 0.0141 0.9921
vn 0.0173 0.0058 0.9998
vn 0.9967 -0.0818 -0.0000
vn -0.9884 0.1516 0.0041
vn 0.0165 0.0263 0.9995
vn 0.9851 -0.1718 -0.0000
vn -0.9736 0.2284 0.0041
vn 0.9756 0.2194 -0.0000
vn 0.2049 -0.9788 -0.0000
vn 0.0001 -0.0027 1.0000
vn -0.0006 -0.0027 1.0000
vn 0.9746 -0.2239 -0.0000
vn 0.0476 -0.0007 0.9989
vn -0.9470 0.3213 0.0040
vn -0.9982 -0.0598 -0.0000
vn -0.0000 -0.0000 -1.0000
vn 0.9982 0.0598 -0.0000
vn -0.0000 -0.0000 1.0000
vn -0.0000 -1.0000 -0.0000
vn -0.0000 1.0000 -0.0000
vn -0.0000 -0.0326 0.9995
vn 0.9893 0.1456 -0.0000
vn -0.0000 -0.0326 -0.9995
vn -0.9853 -0.1708 -0.0000
vn 0.9983 0.0587 -0.0000
vn -0.9952 -0.0974 -0.0000
vn -0.9671 -0.2545 -0.0000
vn -0.0000 -0.0189 -0.9998
vn 0.9755 0.2199 -0.0000
vn -0.0000 -0.0189 0.9998
vn -0.9999 -0.0168 -0.0000
vn -0.0000 -0.0168 -0.9999
vn 0.9999 -0.0168 -0.0000
vn -0.0000 -0.0168 0.9999
vn -0.3182 0.0002 0.9480
vn -0.6961 0.0001 0.7180
vn -0.9566 0.0381 0.2889
vn -0.0582 -0.9983 0.0035
vn -0.9935 0.1021 0.0503
vn 0.0286 -0.0000 0.9996
vn -0.0588 0.9982 -0.0144
vn -0.0981 0.9944 0.0401
vn -0.1311 0.9914 -0.0007
vn -0.0504 0.9985 -0.0227
vn -0.2554 0.9611 0.1056
vn -0.0584 -0.9983 0.0032
vn -0.0579 -0.9983 0.0035
vn -0.0578 -0.9983 0.0030
vn -0.9978 -0.0660 0.0040
vn -0.9999 0.0165 0.0041
vn -0.9684 0.2492 0.0041
vn -0.1327 0.9912 0.0003
vn -0.0528 0.9986 0.0082
vn -0.1108 -0.9938 0.0015
vn 0.0764 0.9971 -0.0007
vn -0.0842 -0.9964 0.0038
vn 0.0020 1.0000 -0.0000
vn 0.0113 0.9927 -0.1197
vn -0.0856 -0.9963 -0.0038
vn -0.0373 0.0196 -0.9991
vn -0.0479 -0.0040 -0.9988
vn 0.0401 0.9932 -0.1089
vn -0.1146 -0.9934 -0.0016
vn -0.0411 0.9956 -0.0841
vn -0.0450 0.0249 -0.9987
vn 0.1816 0.0114 -0.9833
vn -0.1350 0.9908 -0.0003
vn -0.9684 0.2493 -0.0041
vn 0.0419 0.0028 -0.9991
vn 0.0680 0.0088 -0.9976
vn -0.9999 0.0166 -0.0041
vn -0.9980 -0.0632 -0.0013
vn 0.1250 0.0141 -0.9921
vn 0.0173 0.0058 -0.9998
vn -0.9884 0.1516 -0.0041
vn 0.0165 0.0263 -0.9995
vn -0.9736 0.2284 -0.0041
vn 0.0001 -0.0027 -1.0000
vn -0.0006 -0.0027 -1.0000
vn 0.0476 -0.0007 -0.9989
vn -0.9470 0.3213 -0.0040
vn -0.3182 0.0002 -0.9480
vn -0.6961 0.0001 -0.7180
vn -0.9566 0.0381 -0.2889
vn -0.0582 -0.9983 -0.0035
vn -0.9935 0.1021 -0.0503
vn 0.0286 -0.0000 -0.9996
vn -0.0588 0.9982 0.0144
vn -0.0981 0.9944 -0.0401
vn -0.1311 0.9914 0.0007
vn -0.0504 0.9985 0.0227
vn -0.2554 0.9611 -0.1056
vn -0.0584 -0.9983 -0.0032
vn -0.0579 -0.9983 -0.0035
vn -0.0578 -0.9983 -0.0030
vn -0.9978 -0.0660 -0.0040
vn -0.9999 0.0165 -0.0041
vn -0.9684 0.2492 -0.0041
vn -0.1327 0.9912 -0.0003
vn -0.0528 0.9986 -0.0082
vn -0.1108 -0.9938 -0.0015
vn 0.0764 0.9971 0.0007
vn -0.0842 -0.9964 -0.0038
vt 0.490545 0.913603
vt 0.540552 0.913560
vt 0.540609 0.981291
vt 0.490603 0.981334
vt 0.710361 0.376604
vt 0.707654 0.353044
vt 0.778330 0.352822
vt 0.783671 0.376100
vt 0.169784 0.417543
vt 0.171016 0.496938
vt 0.097878 0.495152
vt 0.093646 0.416389
vt 0.704944 0.581879
vt 0.708362 0.505564
vt 0.779261 0.503597
vt 0.775015 0.579038
vt 0.049880 0.911439
vt 0.003401 0.909777
vt 0.002969 0.821070
vt 0.041584 0.822186
vt 0.058065 0.971988
vt 0.002741 0.962790
vt 0.168322 0.369791
vt 0.091123 0.369359
vt 0.709298 0.428868
vt 0.781379 0.427762
vt 0.174722 0.576557
vt 0.101006 0.573940
vt 0.006577 0.732510
vt 0.035978 0.733083
vt 0.061670 0.999975
vt 0.000025 0.998890
vt 0.867785 0.912335
vt 0.882458 0.912606
vt 0.882256 0.979675
vt 0.867842 0.979122
vt 0.307641 0.970074
vt 0.369113 0.968994
vt 0.369026 0.981807
vt 0.307648 0.982819
vt 0.850441 0.979136
vt 0.850384 0.912350
vt 0.384984 0.973113
vt 0.381203 0.986981
vt 0.373611 0.770297
vt 0.403498 0.768897
vt 0.399347 0.830133
vt 0.369947 0.828492
vt 0.604182 0.913612
vt 0.604124 0.845774
vt 0.670501 0.845718
vt 0.670559 0.913662
vt 0.310402 0.768522
vt 0.308693 0.828002
vt 0.312644 0.710413
vt 0.378649 0.707933
vt 0.540494 0.845829
vt 0.405741 0.710050
vt 0.392430 0.906230
vt 0.368819 0.902263
vt 0.753617 0.845647
vt 0.753675 0.913698
vt 0.307805 0.902677
vt 0.388805 0.959269
vt 0.368579 0.954111
vt 0.811631 0.845597
vt 0.811688 0.912346
vt 0.307611 0.955271
vt 0.839299 0.912341
vt 0.839243 0.845574
vt 0.850327 0.845564
vt 0.828147 0.845583
vt 0.828204 0.912332
vt 0.402266 0.966186
vt 0.401838 0.976347
vt 0.397069 0.985319
vt 0.244492 0.052930
vt 0.262174 0.052930
vt 0.262174 0.123660
vt 0.244492 0.123660
vt 0.262174 0.194390
vt 0.244492 0.194390
vt 0.262174 0.265120
vt 0.244492 0.265120
vt 0.262174 0.335850
vt 0.244492 0.335850
vt 0.120714 0.194390
vt 0.191444 0.194390
vt 0.191444 0.265120
vt 0.120714 0.265120
vt 0.332904 0.194390
vt 0.332904 0.265120
vt 0.209127 0.265120
vt 0.226809 0.265120
vt 0.226809 0.335850
vt 0.209127 0.335850
vt 0.209127 0.194390
vt 0.226809 0.194390
vt 0.209127 0.123660
vt 0.226809 0.123660
vt 0.209127 0.052930
vt 0.226809 0.052930
vt 0.191444 0.052930
vt 0.191444 0.123660
vt 0.191444 0.335850
vt 0.897568 0.323858
vt 0.829071 0.323851
vt 0.829078 0.255354
vt 0.897575 0.255361
vt 0.829085 0.186857
vt 0.897582 0.186864
vt 0.829092 0.118360
vt 0.897589 0.118367
vt 0.829099 0.049863
vt 0.897596 0.049870
vt 0.966079 0.186871
vt 0.966086 0.118374
vt 0.760588 0.186850
vt 0.760595 0.118353
vt 0.034375 0.686229
vt 0.010023 0.685654
vt 0.011899 0.663222
vt 0.033697 0.663737
vt 0.015006 0.640040
vt 0.033361 0.640472
vt 0.014678 0.617957
vt 0.033565 0.618000
vt 0.769952 0.636627
vt 0.755790 0.650309
vt 0.737664 0.656072
vt 0.016106 0.500000
vt 0.034326 0.500000
vt 0.106447 0.634571
vt 0.099678 0.615722
vt 0.140434 0.653659
vt 0.245253 0.579344
vt 0.245214 0.658469
vt 0.121311 0.649137
vt 0.637940 0.661450
vt 0.637700 0.584713
vt 0.776357 0.618692
vt 0.246341 0.955368
vt 0.246318 0.970251
vt 0.828261 0.979080
vt 0.839356 0.979108
vt 0.811745 0.979094
vt 0.246426 0.902673
vt 0.753733 0.981749
vt 0.246546 0.827655
vt 0.670617 0.981606
vt 0.604240 0.981450
vt 0.246734 0.709451
vt 0.246641 0.767861
vt 0.867728 0.845549
vt 0.246297 0.982990
vt 0.882660 0.845537
vt 0.637217 0.429974
vt 0.637051 0.377107
vt 0.245292 0.498846
vt 0.637459 0.507531
vt 0.245355 0.369963
vt 0.245331 0.418443
vt 0.636977 0.353266
vt 0.490488 0.845872
vt 0.490430 0.778140
vt 0.490372 0.710409
vt 0.540378 0.710367
vt 0.540436 0.778098
vt 0.563740 0.377062
vt 0.490429 0.377017
vt 0.495624 0.353706
vt 0.566300 0.353486
vt 0.320879 0.417616
vt 0.397018 0.416537
vt 0.392709 0.495296
vt 0.319569 0.497011
vt 0.570440 0.582300
vt 0.500353 0.579896
vt 0.495636 0.504483
vt 0.566546 0.506007
vt 0.049880 0.088562
vt 0.041583 0.177814
vt 0.002969 0.178930
vt 0.003401 0.090223
vt 0.058065 0.028012
vt 0.002741 0.037210
vt 0.322387 0.369866
vt 0.399587 0.369510
vt 0.493044 0.428663
vt 0.565130 0.429319
vt 0.389504 0.574081
vt 0.315786 0.576626
vt 0.035978 0.266917
vt 0.006577 0.267490
vt 0.061669 0.000025
vt 0.000025 0.001110
vt 0.867671 0.778763
vt 0.867614 0.711977
vt 0.882027 0.711399
vt 0.882343 0.778468
vt 0.184995 0.969878
vt 0.184948 0.982623
vt 0.123573 0.981414
vt 0.123527 0.968601
vt 0.850270 0.778778
vt 0.850213 0.711992
vt 0.111379 0.986550
vt 0.107643 0.972669
vt 0.119664 0.769892
vt 0.123142 0.828097
vt 0.093737 0.829644
vt 0.089782 0.768395
vt 0.604066 0.777937
vt 0.670443 0.777774
vt 0.182878 0.768318
vt 0.184398 0.827803
vt 0.180822 0.710203
vt 0.114826 0.707512
vt 0.087727 0.709542
vt 0.124034 0.901872
vt 0.100410 0.905764
vt 0.753559 0.777596
vt 0.185047 0.902481
vt 0.124108 0.953721
vt 0.103866 0.958814
vt 0.811574 0.778849
vt 0.185072 0.955075
vt 0.839186 0.778807
vt 0.828090 0.778835
vt 0.090778 0.975850
vt 0.090383 0.965688
vt 0.095519 0.984837
vt 0.382050 0.320037
vt 0.382187 0.247550
vt 0.364065 0.247515
vt 0.363928 0.320002
vt 0.382325 0.175062
vt 0.364203 0.175028
vt 0.382462 0.102575
vt 0.364340 0.102541
vt 0.382599 0.030088
vt 0.364478 0.030053
vt 0.509177 0.175303
vt 0.509315 0.102816
vt 0.436827 0.102678
vt 0.436690 0.175165
vt 0.291853 0.102403
vt 0.291716 0.174891
vt 0.418706 0.102644
vt 0.418843 0.030156
vt 0.400721 0.030122
vt 0.400584 0.102609
vt 0.418568 0.175131
vt 0.400446 0.175097
vt 0.418431 0.247618
vt 0.400309 0.247584
vt 0.418294 0.320105
vt 0.400172 0.320071
vt 0.436415 0.320140
vt 0.436553 0.247653
vt 0.436965 0.030191
vt 0.602157 0.061423
vt 0.602157 0.128017
vt 0.668752 0.128017
vt 0.668752 0.061423
vt 0.602157 0.194611
vt 0.668752 0.194611
vt 0.602157 0.261206
vt 0.668752 0.261206
vt 0.602157 0.327800
vt 0.668752 0.327800
vt 0.535563 0.194611
vt 0.535563 0.261206
vt 0.735346 0.261206
vt 0.735346 0.194611
vt 0.034375 0.313771
vt 0.033697 0.336263
vt 0.011899 0.336778
vt 0.010023 0.314346
vt 0.033361 0.359528
vt 0.015006 0.359960
vt 0.033565 0.382000
vt 0.014678 0.382043
vt 0.505776 0.637453
vt 0.538185 0.656695
vt 0.520024 0.651046
vt 0.384004 0.634707
vt 0.349999 0.653762
vt 0.390791 0.615864
vt 0.369126 0.649258
vt 0.499259 0.619558
vt 0.828033 0.712087
vt 0.839129 0.712039
vt 0.811517 0.712101
vt 0.753501 0.709545
vt 0.670385 0.709829
vt 0.604008 0.710099
s 0
f 89/1/1 88/2/1 2/3/1 1/4/1
f 97/5/2 89/6/2 1/7/2 19/8/2
f 92/9/3 90/10/3 8/11/3 13/12/3
f 94/13/4 91/14/4 7/15/4 17/16/4
f 11/17/5 13/18/5 8/19/5 7/20/5
f 19/21/6 21/22/6 13/18/6 11/17/6
f 96/23/7 92/9/7 13/12/7 21/24/7
f 91/14/8 93/25/8 11/26/8 7/15/8
f 90/10/9 95/27/9 15/28/9 8/11/9
f 7/20/10 8/19/10 15/29/10 17/30/10
f 1/31/11 2/32/11 21/22/11 19/21/11
f 93/25/2 97/5/2 19/8/2 11/26/2
f 98/33/12 99/34/12 26/35/12 24/36/12
f 111/37/13 48/38/13 26/39/13 99/40/13
f 98/33/14 24/36/14 44/41/14 108/42/14
f 48/38/15 49/43/15 24/44/15 26/39/15
f 34/45/16 32/46/16 30/47/16 29/48/16
f 103/49/17 31/50/17 28/51/17 100/52/17
f 102/53/18 34/45/18 29/48/18 101/54/18
f 96/55/19 21/56/19 34/45/19 102/53/19
f 88/2/20 6/57/20 31/50/20 103/49/20
f 21/56/21 2/58/21 32/46/21 34/45/21
f 29/48/22 30/47/22 38/59/22 36/60/22
f 100/52/23 28/51/23 37/61/23 104/62/23
f 101/54/24 29/48/24 36/60/24 105/63/24
f 36/60/25 38/59/25 42/64/25 40/65/25
f 104/62/26 37/61/26 41/66/26 106/67/26
f 105/63/27 36/60/27 40/65/27 107/68/27
f 110/69/28 50/70/28 43/71/28 108/42/28
f 106/67/29 41/66/29 45/72/29 109/73/29
f 49/43/30 42/64/30 46/74/30 51/75/30
f 24/44/31 49/43/31 51/75/31 44/76/31
f 109/73/32 45/72/32 50/70/32 110/69/32
f 40/65/33 42/64/33 49/43/33 48/38/33
f 107/68/34 40/65/34 48/38/34 111/37/34
f 64/77/35 53/78/35 55/79/35 65/80/35
f 65/80/36 55/79/36 59/81/36 66/82/36
f 66/82/37 59/81/37 57/83/37 67/84/37
f 67/84/38 57/83/38 53/85/38 64/86/38
f 54/87/39 58/88/39 56/89/39 52/90/39
f 59/81/40 55/91/40 53/92/40 57/83/40
f 70/93/41 63/94/41 60/95/41 71/96/41
f 69/97/42 62/98/42 63/94/42 70/93/42
f 68/99/43 61/100/43 62/98/43 69/97/43
f 71/101/44 60/102/44 61/100/44 68/99/44
f 63/94/38 67/84/38 64/86/38 60/95/38
f 62/98/45 66/82/45 67/84/45 63/94/45
f 61/100/36 65/80/36 66/82/36 62/98/36
f 60/102/46 64/77/46 65/80/46 61/100/46
f 52/103/47 71/101/47 68/99/47 54/104/47
f 54/104/48 68/99/48 69/97/48 58/88/48
f 58/88/49 69/97/49 70/93/49 56/89/49
f 56/89/50 70/93/50 71/96/50 52/105/50
f 72/106/51 73/107/51 75/108/51 74/109/51
f 74/109/52 75/108/52 79/110/52 78/111/52
f 78/111/53 79/110/53 77/112/53 76/113/53
f 76/113/54 77/112/54 73/114/54 72/115/54
f 74/116/39 78/111/39 76/113/39 72/117/39
f 79/110/40 75/118/40 73/119/40 77/112/40
f 80/120/55 85/121/55 87/122/55 82/123/55
f 82/123/56 87/122/56 86/124/56 83/125/56
f 83/125/57 86/124/57 84/126/57 81/127/57
f 82/128/58 83/129/58 81/130/58
f 81/127/59 84/126/59 4/131/59 3/132/59
f 17/30/60 15/29/60 85/121/60 80/120/60
f 87/133/61 85/134/61 84/135/61
f 15/28/62 95/27/62 18/136/62 84/135/62
f 18/136/63 4/137/63 84/135/63
f 15/28/64 84/135/64 85/134/64
f 84/135/65 86/138/65 87/133/65
f 81/130/66 3/139/66 16/140/66
f 16/140/67 94/13/67 17/16/67 81/130/67
f 17/16/68 80/141/68 81/130/68
f 80/141/58 82/128/58 81/130/58
f 39/142/34 107/68/34 111/37/34 47/143/34
f 46/144/32 109/73/32 110/69/32 51/145/32
f 42/146/29 106/67/29 109/73/29 46/144/29
f 51/145/28 110/69/28 108/42/28 44/41/28
f 35/147/27 105/63/27 107/68/27 39/142/27
f 38/148/26 104/62/26 106/67/26 42/146/26
f 27/149/24 101/54/24 105/63/24 35/147/24
f 30/150/23 100/52/23 104/62/23 38/148/23
f 2/3/20 88/2/20 103/49/20 32/151/20
f 20/152/69 96/55/69 102/53/69 33/153/69
f 33/153/70 102/53/70 101/54/70 27/149/70
f 32/151/17 103/49/17 100/52/17 30/150/17
f 23/154/14 98/33/14 108/42/14 43/71/14
f 47/143/71 111/37/71 99/40/71 25/155/71
f 23/154/72 25/156/72 99/34/72 98/33/72
f 14/157/2 22/158/2 97/5/2 93/25/2
f 9/159/73 18/136/73 95/27/73 90/10/73
f 10/160/74 14/157/74 93/25/74 91/14/74
f 20/161/75 12/162/75 92/9/75 96/23/75
f 16/140/76 10/160/76 91/14/76 94/13/76
f 12/162/77 9/159/77 90/10/77 92/9/77
f 22/158/2 5/163/2 89/6/2 97/5/2
f 5/164/1 6/57/1 88/2/1 89/1/1
f 174/165/1 112/166/1 113/167/1 173/168/1
f 182/169/2 120/170/2 112/171/2 174/172/2
f 177/173/78 117/174/78 115/175/78 175/176/78
f 179/177/79 119/178/79 114/179/79 176/180/79
f 116/181/80 114/182/80 115/183/80 117/184/80
f 120/185/81 116/181/81 117/184/81 121/186/81
f 181/187/82 121/188/82 117/174/82 177/173/82
f 176/180/83 114/179/83 116/189/83 178/190/83
f 175/176/84 115/175/84 118/191/84 180/192/84
f 114/182/85 119/193/85 118/194/85 115/183/85
f 112/195/86 120/185/86 121/186/86 113/196/86
f 178/190/2 116/189/2 120/170/2 182/169/2
f 183/197/87 122/198/87 123/199/87 184/200/87
f 196/201/88 184/202/88 123/203/88 134/204/88
f 183/197/14 193/205/14 132/206/14 122/198/14
f 134/204/89 123/203/89 122/207/89 135/208/89
f 127/209/90 124/210/90 125/211/90 126/212/90
f 188/213/17 185/214/17 28/51/17 31/50/17
f 187/215/91 186/216/91 124/210/91 127/209/91
f 181/217/92 187/215/92 127/209/92 121/218/92
f 173/168/20 188/213/20 31/50/20 6/57/20
f 121/218/93 127/209/93 126/212/93 113/219/93
f 124/210/94 128/220/94 129/221/94 125/211/94
f 185/214/23 189/222/23 37/61/23 28/51/23
f 186/216/95 190/223/95 128/220/95 124/210/95
f 128/220/96 130/224/96 131/225/96 129/221/96
f 189/222/26 191/226/26 41/66/26 37/61/26
f 190/223/97 192/227/97 130/224/97 128/220/97
f 195/228/28 193/205/28 43/71/28 50/70/28
f 191/226/29 194/229/29 45/72/29 41/66/29
f 135/208/98 136/230/98 133/231/98 131/225/98
f 122/207/99 132/232/99 136/230/99 135/208/99
f 194/229/32 195/228/32 50/70/32 45/72/32
f 130/224/100 134/204/100 135/208/100 131/225/100
f 192/227/101 196/201/101 134/204/101 130/224/101
f 149/233/35 150/234/35 140/235/35 138/236/35
f 150/234/38 151/237/38 144/238/38 140/235/38
f 151/237/37 152/239/37 142/240/37 144/238/37
f 152/239/36 149/241/36 138/242/36 142/240/36
f 139/243/39 137/244/39 141/245/39 143/246/39
f 144/238/40 142/240/40 138/247/40 140/248/40
f 155/249/43 156/250/43 145/251/43 148/252/43
f 154/253/42 155/249/42 148/252/42 147/254/42
f 153/255/41 154/253/41 147/254/41 146/256/41
f 156/257/44 153/255/44 146/256/44 145/258/44
f 148/252/36 145/251/36 149/241/36 152/239/36
f 147/254/45 148/252/45 152/239/45 151/237/45
f 146/256/38 147/254/38 151/237/38 150/234/38
f 145/258/46 146/256/46 150/234/46 149/233/46
f 137/259/47 139/260/47 153/255/47 156/257/47
f 139/260/50 143/246/50 154/253/50 153/255/50
f 143/246/49 141/245/49 155/249/49 154/253/49
f 141/245/48 137/261/48 156/250/48 155/249/48
f 157/262/51 159/263/51 160/264/51 158/265/51
f 159/263/54 163/266/54 164/267/54 160/264/54
f 163/266/53 161/268/53 162/269/53 164/267/53
f 161/268/52 157/270/52 158/271/52 162/269/52
f 159/272/39 157/273/39 161/268/39 163/266/39
f 164/267/40 162/269/40 158/274/40 160/275/40
f 165/276/102 167/277/102 172/278/102 170/279/102
f 167/277/103 168/280/103 171/281/103 172/278/103
f 168/280/104 166/282/104 169/283/104 171/281/104
f 167/284/105 166/285/105 168/286/105
f 166/282/106 3/132/106 4/131/106 169/283/106
f 119/193/107 165/276/107 170/279/107 118/194/107
f 172/287/108 169/288/108 170/289/108
f 118/191/109 169/288/109 18/136/109 180/192/109
f 18/136/110 169/288/110 4/137/110
f 118/191/111 170/289/111 169/288/111
f 169/288/112 172/287/112 171/290/112
f 166/285/113 16/140/113 3/139/113
f 16/140/114 166/285/114 119/178/114 179/177/114
f 119/178/115 166/285/115 165/291/115
f 165/291/105 166/285/105 167/284/105
f 39/142/101 47/143/101 196/201/101 192/227/101
f 133/292/32 136/293/32 195/228/32 194/229/32
f 131/294/29 133/292/29 194/229/29 191/226/29
f 136/293/28 132/206/28 193/205/28 195/228/28
f 35/147/97 39/142/97 192/227/97 190/223/97
f 129/295/26 131/294/26 191/226/26 189/222/26
f 27/149/95 35/147/95 190/223/95 186/216/95
f 125/296/23 129/295/23 189/222/23 185/214/23
f 113/167/20 126/297/20 188/213/20 173/168/20
f 20/152/116 33/153/116 187/215/116 181/217/116
f 33/153/117 27/149/117 186/216/117 187/215/117
f 126/297/17 125/296/17 185/214/17 188/213/17
f 23/154/14 43/71/14 193/205/14 183/197/14
f 47/143/118 25/155/118 184/202/118 196/201/118
f 23/154/119 183/197/119 184/200/119 25/156/119
f 14/157/2 178/190/2 182/169/2 22/158/2
f 9/159/120 175/176/120 180/192/120 18/136/120
f 10/160/121 176/180/121 178/190/121 14/157/121
f 20/161/122 181/187/122 177/173/122 12/162/122
f 16/140/123 179/177/123 176/180/123 10/160/123
f 12/162/77 177/173/77 175/176/77 9/159/77
f 22/158/2 182/169/2 174/172/2 5/163/2
f 5/164/1 174/165/1 173/168/1 6/57/1
