# Blender 5.0.0
# www.blender.org
o Dining_Table
v -2.376514 2.122572 3.788749
v -2.557957 2.518436 3.879470
v -2.376514 2.122572 -2.029809
v -2.557957 2.518436 -2.120530
v 9.260601 2.122572 3.788749
v 9.442043 2.518436 3.879470
v 9.260601 2.122572 -2.029809
v 9.442043 2.518436 -2.120530
v -2.557957 2.257898 -2.120530
v -2.557957 2.257898 3.879470
v 9.442043 2.257898 -2.120530
v 9.442043 2.257898 3.879470
v -0.406108 1.643135 0.476931
v -0.406108 1.643135 1.289148
v 0.406108 1.643135 1.289148
v 0.406108 1.643135 0.476931
v -0.237082 1.950748 0.645957
v -0.237082 1.950748 1.120122
v 0.237082 1.950748 1.120122
v 0.237082 1.950748 0.645957
v -0.438192 1.294767 0.444847
v -0.438192 1.294767 1.321232
v 0.438192 1.294767 1.321232
v 0.438192 1.294767 0.444847
v -0.512439 1.486246 0.370599
v -0.512439 1.486246 1.395480
v 0.512439 1.486246 1.395480
v 0.512439 1.486246 0.370599
v 0.316199 0.113767 0.372363
v 0.172801 2.276790 0.710237
v 0.316199 0.113767 1.380105
v 0.172801 2.276790 1.055841
v -0.316199 0.113767 0.372363
v -0.172801 2.276790 0.710237
v -0.316199 0.113767 1.380105
v -0.172801 2.276790 1.055841
v 0.136172 0.309379 0.746867
v -0.136172 0.309379 0.746867
v -0.136172 0.309379 1.019211
v 0.136172 0.309379 1.019211
v 0.240654 0.771899 0.642384
v -0.240654 0.771899 0.642384
v -0.240654 0.771899 1.123694
v 0.240654 0.771899 1.123694
v 7.160666 1.950748 0.645955
v 7.160666 1.950748 1.120119
v 6.686502 1.950748 1.120119
v 6.686502 1.950748 0.645955
v 7.329692 1.643135 0.476929
v 7.329692 1.643135 1.289146
v 6.517476 1.643135 1.289146
v 6.517476 1.643135 0.476929
v -0.136172 0.309635 -0.337688
v -0.316199 0.114023 -0.374318
v 0.316199 0.114023 -0.374318
v 0.136172 0.309635 -0.337688
v 0.136172 0.321442 2.032274
v 0.316199 0.125830 2.068904
v -0.316199 0.125830 2.068904
v -0.136172 0.321442 2.032274
v -0.316199 -0.000128 1.381083
v 0.316199 -0.000128 1.381083
v 0.316199 -0.000128 0.373341
v -0.316199 -0.000128 0.373341
v 0.316199 0.000128 -0.373341
v -0.316199 0.000128 -0.373341
v -0.316199 0.011935 2.069881
v 0.316199 0.011935 2.069881
v 6.485393 1.294767 0.444845
v 6.485393 1.294767 1.321230
v 7.361775 1.294767 1.321230
v 7.361775 1.294767 0.444845
v 6.411144 1.486246 0.370596
v 6.411144 1.486246 1.395478
v 7.436024 1.486246 1.395478
v 7.436024 1.486246 0.370596
v 7.239783 0.113767 0.372361
v 7.096385 2.276790 0.710235
v 7.239783 0.113767 1.380103
v 7.096385 2.276790 1.055839
v 6.607385 0.113767 0.372361
v 6.750782 2.276790 0.710235
v 6.607385 0.113767 1.380103
v 6.750782 2.276790 1.055839
v 7.059755 0.309379 0.746865
v 6.787413 0.309379 0.746865
v 6.787413 0.309379 1.019209
v 7.059755 0.309379 1.019209
v 7.164238 0.771899 0.642382
v 6.682930 0.771899 0.642382
v 6.682930 0.771899 1.123692
v 7.164238 0.771899 1.123692
v 6.787413 0.309635 -0.337691
v 6.607385 0.114023 -0.374321
v 7.239783 0.114023 -0.374321
v 7.059755 0.309635 -0.337691
v 7.059755 0.321442 2.032272
v 7.239783 0.125830 2.068902
v 6.607385 0.125830 2.068902
v 6.787413 0.321442 2.032272
v 6.607385 -0.000128 1.381081
v 7.239783 -0.000128 1.381080
v 7.239783 -0.000128 0.373339
v 6.607385 -0.000128 0.373339
v 7.239783 0.000128 -0.373343
v 6.607385 0.000128 -0.373343
v 6.607385 0.011935 2.069879
v 7.239783 0.011935 2.069879
v 0.259493 0.209633 1.266429
v 0.262733 0.206113 0.483586
v 6.657026 0.202313 0.475628
v 6.656528 0.201772 1.281586
vn -1.0000 -0.0000 -0.0000
vn -0.0000 -0.0000 -1.0000
vn 1.0000 -0.0000 -0.0000
vn -0.0000 -0.0000 1.0000
vn -0.0000 -1.0000 -0.0000
vn -0.0000 1.0000 -0.0000
vn -0.5979 -0.8016 -0.0000
vn -0.0000 -0.5568 -0.8306
vn 0.5979 -0.8016 -0.0000
vn -0.0000 -0.5568 0.8306
vn -0.8278 0.5610 -0.0000
vn -0.0000 0.5610 -0.8278
vn 0.8764 0.4816 -0.0000
vn -0.0000 0.4816 0.8764
vn -0.8764 0.4816 -0.0000
vn -0.0000 0.4816 -0.8764
vn -0.9324 -0.3615 -0.0000
vn -0.0000 -0.3615 -0.9324
vn 0.9324 -0.3615 -0.0000
vn -0.0000 -0.3615 0.9324
vn 0.8278 0.5610 -0.0000
vn -0.0000 0.5610 0.8278
vn 0.9811 0.1934 -0.0000
vn -0.0000 0.1934 0.9811
vn -0.9811 0.1934 -0.0000
vn -0.0000 0.1934 -0.9811
vn 0.9754 -0.2203 -0.0000
vn -0.0000 -0.2203 0.9754
vn -0.9355 -0.3534 -0.0000
vn -0.0000 -0.3534 -0.9355
vn 0.9355 -0.3534 -0.0000
vn -0.0000 -0.3534 0.9355
vn -0.0000 -0.2203 -0.9754
vn -0.9754 -0.2203 -0.0000
vn -0.7358 0.6772 -0.0000
vn -0.7359 0.6771 0.0002
vn -0.0000 0.9999 -0.0119
vn 0.8630 0.5052 0.0006
vn -0.0000 0.1841 -0.9829
vn -0.0000 1.0000 0.0002
vn -0.0000 -0.0086 -1.0000
vn 0.7234 0.6903 -0.0127
vn -0.0000 0.1841 0.9829
vn 0.7280 0.6856 0.0041
vn -0.7406 0.6719 -0.0095
vn -0.0000 -1.0000 -0.0003
vn -0.0000 -0.9998 0.0175
vn -0.0000 0.0086 1.0000
vn -0.8727 0.4883 -0.0001
vn -0.7233 0.6904 -0.0129
vn 0.7358 0.6772 -0.0000
vn 0.7359 0.6771 0.0002
vn 0.7406 0.6719 -0.0095
vn -0.7279 0.6857 0.0042
vn 0.6305 0.7762 -0.0007
vn -0.6348 0.7726 0.0001
vn 0.0009 1.0000 -0.0019
vn 0.0002 -0.7644 0.6447
vn 0.0003 -0.7557 -0.6549
vt 0.346993 0.906151
vt 0.346993 0.987344
vt 0.265800 0.987344
vt 0.265800 0.906151
vt 0.184608 0.987344
vt 0.184608 0.906151
vt 0.103415 0.987344
vt 0.103415 0.906151
vt 0.022222 0.987344
vt 0.022222 0.906151
vt 0.183380 0.826186
vt 0.183380 0.904924
vt 0.104643 0.904924
vt 0.104643 0.826186
vt 0.425123 0.072356
vt 0.425123 0.976730
vt 0.029342 0.976730
vt 0.029342 0.072356
vt 0.103415 0.824959
vt 0.184608 0.824959
vt 0.290496 0.469594
vt 0.290684 0.470453
vt 0.290926 0.473579
vt 0.290856 0.474520
vt 0.292516 0.473561
vt 0.292745 0.474570
vt 0.291968 0.472485
vt 0.291810 0.471228
vt 0.292211 0.470145
vt 0.291253 0.471339
vt 0.291303 0.472538
vt 0.290364 0.468968
vt 0.290837 0.475238
vt 0.292873 0.475327
vt 0.292241 0.469053
vt 0.292279 0.468263
vt 0.291713 0.472086
vt 0.291645 0.471642
vt 0.291488 0.471673
vt 0.291479 0.472106
vt 0.190499 0.280969
vt 0.275661 0.312123
vt 0.274540 0.631430
vt 0.191236 0.658657
vt 0.296223 0.499534
vt 0.292993 0.479258
vt 0.295586 0.465878
vt 0.297502 0.434619
vt 0.287684 0.466529
vt 0.284602 0.438076
vt 0.291229 0.479395
vt 0.177978 0.518709
vt 0.177549 0.519761
vt 0.176892 0.519804
vt 0.176440 0.518694
vt 0.178009 0.521932
vt 0.177510 0.520991
vt 0.176487 0.522164
vt 0.176956 0.521091
vt 0.178093 0.517720
vt 0.176318 0.517671
vt 0.178115 0.522825
vt 0.289102 0.499972
vt 0.260973 0.849187
vt 0.257273 0.827461
vt 0.273091 0.136856
vt 0.253902 0.104350
vt 0.297705 0.000101
vt 0.310332 0.013263
vt 0.310885 0.105900
vt 0.297705 0.119352
vt 0.248075 0.903077
vt 0.246860 0.972897
vt 0.228338 0.912160
vt 0.281620 0.825242
vt 0.279081 0.609471
vt 0.251916 0.056339
vt 0.273668 0.144466
vt 0.277500 0.330616
vt 0.236304 0.000101
vt 0.182032 0.239857
vt 0.184680 0.691984
vt 0.272965 0.661831
vt 0.273320 0.282391
vt 0.297502 0.135202
vt 0.178186 0.523474
vt 0.178150 0.516958
vt 0.176274 0.516914
vt 0.176389 0.523284
vt 0.176303 0.524094
vt 0.177151 0.520183
vt 0.177108 0.520646
vt 0.177293 0.520631
vt 0.177356 0.520187
vt 0.157147 0.697275
vt 0.071160 0.693337
vt 0.079112 0.324737
vt 0.163042 0.356172
vt 0.174999 0.493204
vt 0.176453 0.513045
vt 0.172826 0.526277
vt 0.168629 0.558082
vt 0.180731 0.526132
vt 0.181078 0.555368
vt 0.177945 0.512506
vt 0.181830 0.490180
vt 0.297705 0.119554
vt 0.309632 0.131212
vt 0.309717 0.226585
vt 0.297705 0.238805
vt 0.167093 0.376004
vt 0.130514 0.076279
vt 0.131714 0.000101
vt 0.110784 0.866992
vt 0.131477 0.887783
vt 0.149857 0.129000
vt 0.143954 0.152990
vt 0.169355 0.154681
vt 0.113600 0.063621
vt 0.124764 0.939250
vt 0.102309 0.857882
vt 0.158111 0.656381
vt 0.137252 0.995697
vt 0.169410 0.743295
vt 0.161343 0.323853
vt 0.071160 0.291117
vt 0.076205 0.720891
vt 0.074544 0.868753
vt 0.070958 0.961988
vt 0.000101 0.969603
vt 0.000101 0.026228
vt 0.058788 0.017033
vt 0.040448 0.017476
vt 0.018055 0.000101
vt 0.012977 0.978592
vt 0.054966 0.999899
s 0
f 10/1/1 2/2/1 4/3/1 9/4/1
f 9/4/2 4/3/2 8/5/2 11/6/2
f 11/6/3 8/5/3 6/7/3 12/8/3
f 12/8/4 6/7/4 2/9/4 10/10/4
f 3/11/5 7/12/5 5/13/5 1/14/5
f 8/15/6 4/16/6 2/17/6 6/18/6
f 3/11/7 1/14/7 10/19/7 9/20/7
f 7/12/8 3/11/8 9/20/8 11/6/8
f 5/13/9 7/12/9 11/6/9 12/8/9
f 1/14/10 5/13/10 12/8/10 10/19/10
f 26/21/11 14/22/11 13/23/11 25/24/11
f 25/24/12 13/23/12 16/25/12 28/26/12
f 16/25/13 20/27/13 19/28/13 15/29/13
f 15/29/14 19/28/14 18/30/14 14/22/14
f 14/22/15 18/30/15 17/31/15 13/23/15
f 13/23/16 17/31/16 20/27/16 16/25/16
f 22/32/17 26/21/17 25/24/17 21/33/17
f 21/33/18 25/24/18 28/26/18 24/34/18
f 24/34/19 28/26/19 27/35/19 23/36/19
f 23/36/20 27/35/20 26/21/20 22/32/20
f 28/26/21 16/25/21 15/29/21 27/35/21
f 27/35/22 15/29/22 14/22/22 26/21/22
f 20/27/23 30/37/23 32/38/23 19/28/23
f 19/28/24 32/38/24 36/39/24 18/30/24
f 18/30/25 36/39/25 34/40/25 17/31/25
f 17/31/26 34/40/26 30/37/26 20/27/26
f 31/41/5 35/42/5 33/43/5 29/44/5
f 36/39/6 32/38/6 30/37/6 34/40/6
f 37/45/27 41/46/27 44/47/27 40/48/27
f 40/48/28 44/47/28 43/49/28 39/50/28
f 43/49/29 22/32/29 21/33/29 42/51/29
f 42/51/30 21/33/30 24/34/30 41/46/30
f 41/46/31 24/34/31 23/36/31 44/47/31
f 44/47/32 23/36/32 22/32/32 43/49/32
f 52/52/16 48/53/16 45/54/16 49/55/16
f 51/56/15 47/57/15 48/53/15 52/52/15
f 50/58/14 46/59/14 47/57/14 51/56/14
f 49/55/13 45/54/13 46/59/13 50/58/13
f 73/60/12 52/52/12 49/55/12 76/61/12
f 74/62/11 51/56/11 52/52/11 73/60/11
f 38/63/33 42/51/33 41/46/33 37/45/33
f 39/50/34 43/49/34 42/51/34 38/63/34
f 35/42/35 39/50/35 38/63/35 33/43/35
f 33/43/36 38/63/36 53/64/36 54/65/36
f 40/48/37 39/50/37 60/66/37 57/67/37
f 29/68/38 110/69/38 109/70/38 31/71/38
f 54/65/39 53/64/39 56/72/39 55/73/39
f 38/63/40 37/45/40 56/72/40 53/64/40
f 54/65/41 55/73/41 65/74/41 66/75/41
f 37/45/42 110/76/42 29/44/42 55/73/42 56/72/42
f 58/77/43 57/67/43 60/66/43 59/78/43
f 31/41/44 109/79/44 40/48/44 57/67/44 58/77/44
f 39/50/45 35/42/45 59/78/45 60/66/45
f 31/41/3 58/77/3 68/80/3 62/81/3
f 63/82/46 64/83/46 66/75/46 65/74/46
f 61/84/47 62/81/47 68/80/47 67/85/47
f 29/44/48 33/43/48 64/83/48 63/82/48
f 59/78/1 35/42/1 61/84/1 67/85/1
f 35/42/41 31/41/41 62/81/41 61/84/41
f 58/77/48 59/78/48 67/85/48 68/80/48
f 55/73/3 29/44/3 63/82/3 65/74/3
f 33/43/1 54/65/1 66/75/1 64/83/1
f 70/86/17 74/62/17 73/60/17 69/87/17
f 69/87/18 73/60/18 76/61/18 72/88/18
f 72/88/19 76/61/19 75/89/19 71/90/19
f 71/90/20 75/89/20 74/62/20 70/86/20
f 76/61/21 49/55/21 50/58/21 75/89/21
f 75/89/22 50/58/22 51/56/22 74/62/22
f 45/54/23 78/91/23 80/92/23 46/59/23
f 46/59/24 80/92/24 84/93/24 47/57/24
f 47/57/25 84/93/25 82/94/25 48/53/25
f 48/53/26 82/94/26 78/91/26 45/54/26
f 79/95/5 83/96/5 81/97/5 77/98/5
f 84/93/6 80/92/6 78/91/6 82/94/6
f 85/99/27 89/100/27 92/101/27 88/102/27
f 88/102/28 92/101/28 91/103/28 87/104/28
f 91/103/29 70/86/29 69/87/29 90/105/29
f 90/105/30 69/87/30 72/88/30 89/100/30
f 89/100/31 72/88/31 71/90/31 92/101/31
f 92/101/32 71/90/32 70/86/32 91/103/32
f 86/106/33 90/105/33 89/100/33 85/99/33
f 87/104/34 91/103/34 90/105/34 86/106/34
f 83/107/49 112/108/49 111/109/49 81/110/49
f 81/97/50 111/111/50 86/106/50 93/112/50 94/113/50
f 88/102/37 87/104/37 100/114/37 97/115/37
f 77/98/51 85/99/51 88/102/51 79/95/51
f 94/113/39 93/112/39 96/116/39 95/117/39
f 86/106/40 85/99/40 96/116/40 93/112/40
f 94/113/41 95/117/41 105/118/41 106/119/41
f 85/99/52 77/98/52 95/117/52 96/116/52
f 98/120/43 97/115/43 100/114/43 99/121/43
f 79/95/53 88/102/53 97/115/53 98/120/53
f 87/104/54 112/122/54 83/96/54 99/121/54 100/114/54
f 79/95/3 98/120/3 108/123/3 102/124/3
f 103/125/46 104/126/46 106/119/46 105/118/46
f 101/127/47 102/124/47 108/123/47 107/128/47
f 77/98/48 81/97/48 104/126/48 103/125/48
f 99/121/1 83/96/1 101/127/1 107/128/1
f 83/96/41 79/95/41 102/124/41 101/127/41
f 98/120/48 99/121/48 107/128/48 108/123/48
f 95/117/3 77/98/3 103/125/3 105/118/3
f 81/97/1 94/113/1 106/119/1 104/126/1
f 29/129/6 31/130/6 83/131/6 81/132/6
f 109/79/55 110/76/55 37/45/55 40/48/55
f 111/111/56 112/122/56 87/104/56 86/106/56
f 112/133/57 111/134/57 110/135/57 109/136/57
f 110/135/58 29/129/58 81/132/58 111/134/58
f 31/130/59 109/136/59 112/133/59 83/131/59
