# Blender 5.1.2
# www.blender.org
o Bathroom_Door.002
v -1.980920 3.393896 0.217702
v -1.936934 3.456612 0.290398
v -1.909749 3.456612 0.189935
v -1.980920 3.456613 0.127844
v -2.052093 3.456612 0.189935
v -2.024907 3.456612 0.290398
v -1.909749 3.558093 0.245469
v -1.936934 3.558093 0.145005
v -2.024907 3.558093 0.145005
v -2.052093 3.558093 0.245469
v -1.980920 3.558092 0.307559
v -1.980920 3.620809 0.217702
v -1.939087 3.410840 0.201381
v -1.955066 3.410840 0.260431
v -1.913232 3.447704 0.244110
v -1.980920 3.447704 0.303161
v -2.006775 3.410840 0.260431
v -1.980920 3.410840 0.164885
v -1.939087 3.447704 0.148564
v -2.022754 3.410840 0.201381
v -2.022754 3.447704 0.148564
v -2.048609 3.447704 0.244110
v -1.955066 3.507353 0.313248
v -2.006775 3.507353 0.313248
v -1.897253 3.507353 0.217702
v -1.913232 3.507353 0.276753
v -1.955066 3.507353 0.122155
v -1.913232 3.507353 0.158650
v -2.048609 3.507353 0.158650
v -2.006775 3.507353 0.122155
v -2.048609 3.507353 0.276753
v -2.064589 3.507353 0.217702
v -1.939087 3.567001 0.286840
v -1.913232 3.567001 0.191293
v -1.980920 3.567001 0.132242
v -2.048609 3.567001 0.191293
v -2.022754 3.567001 0.286840
v -1.939087 3.603865 0.234023
v -1.980920 3.603865 0.270518
v -1.955066 3.603865 0.174972
v -2.006775 3.603865 0.174972
v -2.022754 3.603865 0.234023
v 1.378303 3.845360 0.090738
v 1.378303 3.464702 0.090738
v 1.378303 6.360118 0.090738
v 1.378303 6.740776 0.090738
v 1.379173 6.360118 0.101342
v 1.379173 6.740776 0.101342
v 1.381749 6.360118 0.111538
v 1.381749 6.740776 0.111538
v 1.385932 6.360118 0.120934
v 1.385932 6.740776 0.120934
v 1.391561 6.360118 0.129170
v 1.391561 6.740776 0.129170
v 1.398420 6.360118 0.135929
v 1.398420 6.740776 0.135929
v 1.406246 6.360118 0.140952
v 1.406246 6.740776 0.140952
v 1.414737 6.360118 0.144045
v 1.414737 6.740776 0.144045
v 1.423568 6.360118 0.145089
v 1.423568 6.740776 0.145089
v 1.432398 6.360118 0.144045
v 1.432398 6.740776 0.144045
v 1.440890 6.360118 0.140952
v 1.440890 6.740776 0.140952
v 1.448715 6.360118 0.135929
v 1.448715 6.740776 0.135929
v 1.455575 6.360118 0.129170
v 1.455575 6.740776 0.129170
v 1.461204 6.360118 0.120934
v 1.461204 6.740776 0.120934
v 1.465387 6.360118 0.111538
v 1.465387 6.740776 0.111538
v 1.467962 6.360118 0.101342
v 1.467962 6.740776 0.101342
v 1.468832 6.360118 0.090738
v 1.468832 6.740776 0.090738
v 1.467962 6.360118 0.080135
v 1.467962 6.740776 0.080135
v 1.465387 6.360118 0.069939
v 1.465387 6.740776 0.069939
v 1.461204 6.360118 0.060543
v 1.461204 6.740776 0.060543
v 1.455575 6.360118 0.052306
v 1.455575 6.740776 0.052306
v 1.448715 6.360118 0.045547
v 1.448715 6.740776 0.045547
v 1.440890 6.360118 0.040525
v 1.440890 6.740776 0.040525
v 1.432398 6.360118 0.037432
v 1.432398 6.740776 0.037432
v 1.423568 6.360118 0.036387
v 1.423568 6.740776 0.036387
v 1.414737 6.360118 0.037432
v 1.414737 6.740776 0.037432
v 1.406246 6.360118 0.040525
v 1.406246 6.740776 0.040525
v 1.398420 6.360118 0.045547
v 1.398420 6.740776 0.045547
v 1.391561 6.360118 0.052306
v 1.391561 6.740776 0.052306
v 1.385931 6.360118 0.060543
v 1.385931 6.740776 0.060543
v 1.381749 6.360118 0.069939
v 1.381749 6.740776 0.069939
v 1.379173 6.360118 0.080135
v 1.379173 6.740776 0.080135
v 1.379173 3.464702 0.101342
v 1.379173 3.845360 0.101342
v 1.381749 3.464702 0.111538
v 1.381749 3.845360 0.111538
v 1.385932 3.464702 0.120934
v 1.385932 3.845360 0.120934
v 1.391561 3.464702 0.129170
v 1.391561 3.845360 0.129170
v 1.398420 3.464702 0.135929
v 1.398420 3.845360 0.135929
v 1.406246 3.464702 0.140952
v 1.406246 3.845360 0.140952
v 1.414737 3.464702 0.144045
v 1.414737 3.845360 0.144045
v 1.423568 3.464702 0.145089
v 1.423568 3.845360 0.145089
v 1.432398 3.464702 0.144045
v 1.432398 3.845360 0.144045
v 1.440890 3.464702 0.140952
v 1.440890 3.845360 0.140952
v 1.448715 3.464702 0.135929
v 1.448715 3.845360 0.135929
v 1.455575 3.464702 0.129170
v 1.455575 3.845360 0.129170
v 1.461204 3.464702 0.120934
v 1.461204 3.845360 0.120934
v 1.465387 3.464702 0.111538
v 1.465387 3.845360 0.111538
v 1.467962 3.464702 0.101342
v 1.467962 3.845360 0.101342
v 1.468832 3.464702 0.090738
v 1.468832 3.845360 0.090738
v 1.467962 3.464702 0.080135
v 1.467962 3.845360 0.080135
v 1.465387 3.464702 0.069939
v 1.465387 3.845360 0.069939
v 1.461204 3.464702 0.060543
v 1.461204 3.845360 0.060543
v 1.455575 3.464702 0.052306
v 1.455575 3.845360 0.052306
v 1.448715 3.464702 0.045547
v 1.448715 3.845360 0.045547
v 1.440890 3.464702 0.040525
v 1.440890 3.845360 0.040525
v 1.432398 3.464702 0.037432
v 1.432398 3.845360 0.037432
v 1.423568 3.464702 0.036387
v 1.423568 3.845360 0.036387
v 1.414737 3.464702 0.037432
v 1.414737 3.845360 0.037432
v 1.406246 3.464702 0.040525
v 1.406246 3.845360 0.040525
v 1.398420 3.464702 0.045547
v 1.398420 3.845360 0.045547
v 1.391561 3.464702 0.052306
v 1.391561 3.845360 0.052306
v 1.385931 3.464702 0.060543
v 1.385931 3.845360 0.060543
v 1.381749 3.464702 0.069939
v 1.381749 3.845360 0.069939
v 1.379173 3.464702 0.080135
v 1.379173 3.845360 0.080135
v 1.378303 0.728105 0.090738
v 1.378303 0.347446 0.090738
v 1.379173 0.347446 0.101342
v 1.379173 0.728105 0.101342
v 1.381749 0.347446 0.111538
v 1.381749 0.728105 0.111538
v 1.385932 0.347446 0.120934
v 1.385932 0.728105 0.120934
v 1.391561 0.347446 0.129170
v 1.391561 0.728105 0.129170
v 1.398420 0.347446 0.135929
v 1.398420 0.728105 0.135929
v 1.406246 0.347446 0.140952
v 1.406246 0.728105 0.140952
v 1.414737 0.347446 0.144045
v 1.414737 0.728105 0.144045
v 1.423568 0.347446 0.145089
v 1.423568 0.728105 0.145089
v 1.432398 0.347446 0.144045
v 1.432398 0.728105 0.144045
v 1.440890 0.347446 0.140952
v 1.440890 0.728105 0.140952
v 1.448715 0.347446 0.135929
v 1.448715 0.728105 0.135929
v 1.455575 0.347446 0.129170
v 1.455575 0.728105 0.129170
v 1.461204 0.347446 0.120934
v 1.461204 0.728105 0.120934
v 1.465387 0.347446 0.111538
v 1.465387 0.728105 0.111538
v 1.467962 0.347446 0.101342
v 1.467962 0.728105 0.101342
v 1.468832 0.347446 0.090738
v 1.468832 0.728105 0.090738
v 1.467962 0.347446 0.080135
v 1.467962 0.728105 0.080135
v 1.465387 0.347446 0.069939
v 1.465387 0.728105 0.069939
v 1.461204 0.347446 0.060543
v 1.461204 0.728105 0.060543
v 1.455575 0.347446 0.052306
v 1.455575 0.728105 0.052306
v 1.448715 0.347446 0.045547
v 1.448715 0.728105 0.045547
v 1.440890 0.347446 0.040525
v 1.440890 0.728105 0.040525
v 1.432398 0.347446 0.037432
v 1.432398 0.728105 0.037432
v 1.423568 0.347446 0.036387
v 1.423568 0.728105 0.036387
v 1.414737 0.347446 0.037432
v 1.414737 0.728105 0.037432
v 1.406246 0.347446 0.040525
v 1.406246 0.728105 0.040525
v 1.398420 0.347446 0.045547
v 1.398420 0.728105 0.045547
v 1.391561 0.347446 0.052306
v 1.391561 0.728105 0.052306
v 1.385931 0.347446 0.060543
v 1.385931 0.728105 0.060543
v 1.381749 0.347446 0.069939
v 1.381749 0.728105 0.069939
v 1.379173 0.347446 0.080135
v 1.379173 0.728105 0.080135
v 0.965454 1.143430 0.104508
v -0.043047 1.143430 0.104509
v -0.852805 1.143430 0.104509
v -1.813453 1.143430 0.104509
v 0.965454 3.122737 0.104508
v -0.043047 3.122737 0.104509
v -0.852805 3.122737 0.104509
v -1.813453 3.122737 0.104509
v 0.965454 3.886851 0.104508
v -0.043047 3.886851 0.104509
v -0.852805 3.886851 0.104509
v -1.813453 3.886851 0.104509
v 0.965454 6.331685 0.104508
v -0.043047 6.331685 0.104509
v -0.852805 6.331685 0.104509
v -1.813453 6.331685 0.104509
v 1.061211 3.282536 0.104508
v 1.061211 0.848446 0.104508
v -0.138803 3.282536 0.104509
v -0.138803 0.855404 0.104509
v -0.757049 3.282536 0.104509
v -0.757049 0.855404 0.104509
v -1.909209 3.282536 0.104509
v -1.909209 0.848446 0.104509
v 1.061211 6.473815 0.104508
v 1.061211 3.727052 0.104508
v -0.138803 6.473815 0.104509
v -0.138803 3.727052 0.104509
v -0.757049 6.473815 0.104509
v -0.757049 3.727052 0.104509
v -1.909209 6.473815 0.104509
v -1.909209 3.727052 0.104509
v 1.061211 3.282536 0.079833
v 1.061211 0.983631 0.079833
v -0.138803 3.282536 0.079833
v -0.138803 0.983631 0.079833
v -0.757049 3.282536 0.079833
v -0.757049 0.983631 0.079833
v -1.909209 3.282536 0.079833
v -1.909209 0.983631 0.079833
v 1.061211 6.473815 0.079833
v 1.061211 3.727052 0.079833
v -0.138803 6.473815 0.079833
v -0.138803 3.727052 0.079833
v -0.757049 6.473815 0.079833
v -0.757049 3.727052 0.079833
v -1.909209 6.473815 0.079833
v -1.909209 3.727052 0.079833
v 0.965454 3.122737 0.079833
v 0.965454 1.143430 0.079833
v -0.043047 3.122737 0.079833
v -0.043047 1.143430 0.079833
v -0.852805 3.122737 0.079833
v -0.852805 1.143430 0.079833
v -1.813453 3.122737 0.079833
v -1.813453 1.143430 0.079833
v 0.965454 6.331685 0.079833
v 0.965454 3.886851 0.079833
v -0.043047 6.331685 0.079833
v -0.043047 3.886851 0.079833
v -0.852805 6.331685 0.079833
v -0.852805 3.886851 0.079833
v -1.813453 6.331685 0.079833
v -1.813453 3.886851 0.079833
v 1.416416 0.517123 0.104508
v 1.416416 2.816027 0.104508
v 1.416416 3.260544 0.104508
v 1.416416 5.588528 0.104508
v -2.150639 0.517123 0.104509
v -2.150639 2.816027 0.104509
v -2.150639 3.260544 0.104509
v -2.150639 5.588528 0.104509
v 1.061211 6.998830 0.104508
v -0.138803 6.998830 0.104509
v -0.757049 6.998830 0.104509
v -1.909209 6.998830 0.104509
v 1.416416 7.000568 0.104508
v -2.150639 7.000568 0.104509
v 1.061211 0.125884 0.104508
v -0.138803 0.125884 0.104509
v -0.757049 0.125884 0.104509
v -1.909209 0.125884 0.104509
v 1.416416 0.125884 0.104508
v -2.150639 0.125884 0.104509
v -1.816507 1.143431 -0.061856
v -0.808006 1.143431 -0.061856
v 0.001753 1.143431 -0.061856
v 0.962400 1.143431 -0.061857
v -1.816507 3.122737 -0.061856
v -0.808006 3.122737 -0.061856
v 0.001753 3.122737 -0.061856
v 0.962400 3.122737 -0.061857
v -1.816507 3.886851 -0.061856
v -0.808006 3.886851 -0.061856
v 0.001753 3.886851 -0.061856
v 0.962400 3.886851 -0.061857
v -1.816507 6.331684 -0.061856
v -0.808006 6.331684 -0.061856
v 0.001753 6.331684 -0.061856
v 0.962400 6.331684 -0.061857
v -1.912263 3.282536 -0.061856
v -1.912263 0.848447 -0.061856
v -0.712249 3.282536 -0.061856
v -0.712249 0.855404 -0.061856
v -0.094004 3.282536 -0.061856
v -0.094004 0.855404 -0.061856
v 1.058157 3.282536 -0.061857
v 1.058157 0.848447 -0.061857
v -1.912263 6.473815 -0.061856
v -1.912263 3.727052 -0.061856
v -0.712249 6.473815 -0.061856
v -0.712249 3.727052 -0.061856
v -0.094004 6.473815 -0.061856
v -0.094004 3.727052 -0.061856
v 1.058157 6.473815 -0.061857
v 1.058157 3.727052 -0.061857
v -1.912263 3.282536 -0.037181
v -1.912263 0.983632 -0.037181
v -0.712249 3.282536 -0.037181
v -0.712249 0.983632 -0.037181
v -0.094004 3.282536 -0.037181
v -0.094004 0.983632 -0.037181
v 1.058157 3.282536 -0.037181
v 1.058157 0.983632 -0.037181
v -1.912263 6.473815 -0.037181
v -1.912263 3.727052 -0.037181
v -0.712249 6.473815 -0.037181
v -0.712249 3.727052 -0.037181
v -0.094004 6.473815 -0.037181
v -0.094004 3.727052 -0.037181
v 1.058157 6.473815 -0.037181
v 1.058157 3.727052 -0.037181
v -1.816507 3.122737 -0.037181
v -1.816507 1.143431 -0.037181
v -0.808006 3.122737 -0.037181
v -0.808006 1.143431 -0.037181
v 0.001753 3.122737 -0.037181
v 0.001753 1.143431 -0.037181
v 0.962401 3.122737 -0.037181
v 0.962401 1.143431 -0.037181
v -1.816507 6.331684 -0.037181
v -1.816507 3.886851 -0.037181
v -0.808006 6.331684 -0.037181
v -0.808006 3.886851 -0.037181
v 0.001753 6.331684 -0.037181
v 0.001753 3.886851 -0.037181
v 0.962401 6.331684 -0.037181
v 0.962401 3.886851 -0.037181
v -2.151637 0.517124 -0.061856
v -2.151637 2.816027 -0.061856
v -2.151637 3.260544 -0.061856
v -2.151637 5.588528 -0.061856
v 1.415418 0.517124 -0.061857
v 1.415418 2.816027 -0.061857
v 1.415418 3.260544 -0.061857
v 1.415418 5.588528 -0.061857
v -1.796432 6.998830 -0.061856
v -0.596417 6.998830 -0.061856
v 0.021828 6.998830 -0.061856
v 1.173989 6.998830 -0.061857
v -2.151637 7.000567 -0.061856
v 1.415418 7.000567 -0.061857
v -1.796432 0.125884 -0.061856
v -0.596417 0.125884 -0.061856
v 0.021828 0.125884 -0.061856
v 1.173989 0.125884 -0.061857
v -2.151637 0.125884 -0.061856
v 1.415418 0.125884 -0.061857
v -1.980920 3.393896 -0.155007
v -1.936934 3.456612 -0.082310
v -1.909749 3.456612 -0.182774
v -1.980920 3.456613 -0.244864
v -2.052093 3.456612 -0.182774
v -2.024907 3.456612 -0.082310
v -1.909749 3.558093 -0.127240
v -1.936934 3.558093 -0.227703
v -2.024907 3.558093 -0.227703
v -2.052093 3.558093 -0.127240
v -1.980920 3.558092 -0.065149
v -1.980920 3.620809 -0.155007
v -1.939087 3.410840 -0.171328
v -1.955066 3.410840 -0.112277
v -1.913232 3.447704 -0.128598
v -1.980920 3.447704 -0.069547
v -2.006775 3.410840 -0.112277
v -1.980920 3.410840 -0.207823
v -1.939087 3.447704 -0.224145
v -2.022754 3.410840 -0.171328
v -2.022754 3.447704 -0.224145
v -2.048609 3.447704 -0.128598
v -1.955066 3.507353 -0.059460
v -2.006775 3.507353 -0.059460
v -1.897253 3.507353 -0.155007
v -1.913232 3.507353 -0.095955
v -1.955066 3.507353 -0.250553
v -1.913232 3.507353 -0.214058
v -2.048609 3.507353 -0.214058
v -2.006775 3.507353 -0.250553
v -2.048609 3.507353 -0.095955
v -2.064589 3.507353 -0.155007
v -1.939087 3.567001 -0.085868
v -1.913232 3.567001 -0.181415
v -1.980920 3.567001 -0.240466
v -2.048609 3.567001 -0.181415
v -2.022754 3.567001 -0.085868
v -1.939087 3.603865 -0.138686
v -1.980920 3.603865 -0.102190
v -1.955066 3.603865 -0.197736
v -2.006775 3.603865 -0.197736
v -2.022754 3.603865 -0.138686
v 1.476818 3.845360 -0.065939
v 1.476818 3.464702 -0.065939
v 1.476818 6.360118 -0.065939
v 1.476818 6.740776 -0.065939
v 1.475948 6.360118 -0.076542
v 1.475948 6.740776 -0.076542
v 1.473372 6.360118 -0.086738
v 1.473372 6.740776 -0.086738
v 1.469190 6.360118 -0.096135
v 1.469190 6.740776 -0.096135
v 1.463560 6.360118 -0.104371
v 1.463560 6.740776 -0.104371
v 1.456701 6.360118 -0.111130
v 1.456701 6.740776 -0.111130
v 1.448876 6.360118 -0.116153
v 1.448876 6.740776 -0.116153
v 1.440384 6.360118 -0.119246
v 1.440384 6.740776 -0.119246
v 1.431554 6.360118 -0.120290
v 1.431554 6.740776 -0.120290
v 1.422723 6.360118 -0.119246
v 1.422723 6.740776 -0.119246
v 1.414232 6.360118 -0.116153
v 1.414232 6.740776 -0.116153
v 1.406406 6.360118 -0.111130
v 1.406406 6.740776 -0.111130
v 1.399547 6.360118 -0.104371
v 1.399547 6.740776 -0.104371
v 1.393918 6.360118 -0.096135
v 1.393918 6.740776 -0.096135
v 1.389735 6.360118 -0.086738
v 1.389735 6.740776 -0.086738
v 1.387159 6.360118 -0.076542
v 1.387159 6.740776 -0.076542
v 1.386289 6.360118 -0.065939
v 1.386289 6.740776 -0.065939
v 1.387159 6.360118 -0.055335
v 1.387159 6.740776 -0.055335
v 1.389735 6.360118 -0.045139
v 1.389735 6.740776 -0.045139
v 1.393918 6.360118 -0.035743
v 1.393918 6.740776 -0.035743
v 1.399547 6.360118 -0.027507
v 1.399547 6.740776 -0.027507
v 1.406406 6.360118 -0.020748
v 1.406406 6.740776 -0.020748
v 1.414232 6.360118 -0.015725
v 1.414232 6.740776 -0.015725
v 1.422723 6.360118 -0.012632
v 1.422723 6.740776 -0.012632
v 1.431554 6.360118 -0.011588
v 1.431554 6.740776 -0.011588
v 1.440384 6.360118 -0.012632
v 1.440384 6.740776 -0.012632
v 1.448876 6.360118 -0.015725
v 1.448876 6.740776 -0.015725
v 1.456701 6.360118 -0.020748
v 1.456701 6.740776 -0.020748
v 1.463560 6.360118 -0.027507
v 1.463560 6.740776 -0.027507
v 1.469190 6.360118 -0.035743
v 1.469190 6.740776 -0.035743
v 1.473372 6.360118 -0.045139
v 1.473372 6.740776 -0.045139
v 1.475948 6.360118 -0.055335
v 1.475948 6.740776 -0.055335
v 1.475948 3.464702 -0.076542
v 1.475948 3.845360 -0.076542
v 1.473372 3.464702 -0.086738
v 1.473372 3.845360 -0.086738
v 1.469190 3.464702 -0.096135
v 1.469190 3.845360 -0.096135
v 1.463560 3.464702 -0.104371
v 1.463560 3.845360 -0.104371
v 1.456701 3.464702 -0.111130
v 1.456701 3.845360 -0.111130
v 1.448876 3.464702 -0.116153
v 1.448876 3.845360 -0.116153
v 1.440384 3.464702 -0.119246
v 1.440384 3.845360 -0.119246
v 1.431554 3.464702 -0.120290
v 1.431554 3.845360 -0.120290
v 1.422723 3.464702 -0.119246
v 1.422723 3.845360 -0.119246
v 1.414232 3.464702 -0.116153
v 1.414232 3.845360 -0.116153
v 1.406406 3.464702 -0.111130
v 1.406406 3.845360 -0.111130
v 1.399547 3.464702 -0.104371
v 1.399547 3.845360 -0.104371
v 1.393918 3.464702 -0.096135
v 1.393918 3.845360 -0.096135
v 1.389735 3.464702 -0.086738
v 1.389735 3.845360 -0.086738
v 1.387159 3.464702 -0.076542
v 1.387159 3.845360 -0.076542
v 1.386289 3.464702 -0.065939
v 1.386289 3.845360 -0.065939
v 1.387159 3.464702 -0.055335
v 1.387159 3.845360 -0.055335
v 1.389735 3.464702 -0.045139
v 1.389735 3.845360 -0.045139
v 1.393918 3.464702 -0.035743
v 1.393918 3.845360 -0.035743
v 1.399547 3.464702 -0.027507
v 1.399547 3.845360 -0.027507
v 1.406406 3.464702 -0.020748
v 1.406406 3.845360 -0.020748
v 1.414232 3.464702 -0.015725
v 1.414232 3.845360 -0.015725
v 1.422723 3.464702 -0.012632
v 1.422723 3.845360 -0.012632
v 1.431554 3.464702 -0.011588
v 1.431554 3.845360 -0.011588
v 1.440384 3.464702 -0.012632
v 1.440384 3.845360 -0.012632
v 1.448876 3.464702 -0.015725
v 1.448876 3.845360 -0.015725
v 1.456701 3.464702 -0.020748
v 1.456701 3.845360 -0.020748
v 1.463560 3.464702 -0.027507
v 1.463560 3.845360 -0.027507
v 1.469190 3.464702 -0.035743
v 1.469190 3.845360 -0.035743
v 1.473372 3.464702 -0.045139
v 1.473372 3.845360 -0.045139
v 1.475948 3.464702 -0.055335
v 1.475948 3.845360 -0.055335
v 1.476818 0.728106 -0.065939
v 1.476818 0.347448 -0.065939
v 1.475948 0.347448 -0.076542
v 1.475948 0.728106 -0.076542
v 1.473372 0.347448 -0.086738
v 1.473372 0.728106 -0.086738
v 1.469190 0.347448 -0.096135
v 1.469190 0.728106 -0.096135
v 1.463560 0.347448 -0.104371
v 1.463560 0.728106 -0.104371
v 1.456701 0.347448 -0.111130
v 1.456701 0.728106 -0.111130
v 1.448876 0.347448 -0.116153
v 1.448876 0.728106 -0.116153
v 1.440384 0.347448 -0.119246
v 1.440384 0.728106 -0.119246
v 1.431554 0.347448 -0.120290
v 1.431554 0.728106 -0.120290
v 1.422723 0.347448 -0.119246
v 1.422723 0.728106 -0.119246
v 1.414232 0.347448 -0.116153
v 1.414232 0.728106 -0.116153
v 1.406406 0.347448 -0.111130
v 1.406406 0.728106 -0.111130
v 1.399547 0.347448 -0.104371
v 1.399547 0.728106 -0.104371
v 1.393918 0.347448 -0.096135
v 1.393918 0.728106 -0.096135
v 1.389735 0.347448 -0.086738
v 1.389735 0.728106 -0.086738
v 1.387159 0.347448 -0.076542
v 1.387159 0.728106 -0.076542
v 1.386289 0.347448 -0.065939
v 1.386289 0.728106 -0.065939
v 1.387159 0.347448 -0.055335
v 1.387159 0.728106 -0.055335
v 1.389735 0.347448 -0.045139
v 1.389735 0.728106 -0.045139
v 1.393918 0.347448 -0.035743
v 1.393918 0.728106 -0.035743
v 1.399547 0.347448 -0.027507
v 1.399547 0.728106 -0.027507
v 1.406406 0.347448 -0.020748
v 1.406406 0.728106 -0.020748
v 1.414232 0.347448 -0.015725
v 1.414232 0.728106 -0.015725
v 1.422723 0.347448 -0.012632
v 1.422723 0.728106 -0.012632
v 1.431554 0.347448 -0.011588
v 1.431554 0.728106 -0.011588
v 1.440384 0.347448 -0.012632
v 1.440384 0.728106 -0.012632
v 1.448876 0.347448 -0.015725
v 1.448876 0.728106 -0.015725
v 1.456701 0.347448 -0.020748
v 1.456701 0.728106 -0.020748
v 1.463560 0.347448 -0.027507
v 1.463560 0.728106 -0.027507
v 1.469190 0.347448 -0.035743
v 1.469190 0.728106 -0.035743
v 1.473372 0.347448 -0.045139
v 1.473372 0.728106 -0.045139
v 1.475948 0.347448 -0.055335
v 1.475948 0.728106 -0.055335
vn 0.4100 -0.9053 0.1109
vn 0.3324 -0.6052 0.7233
vn 0.2575 -0.9201 -0.2952
vn -0.2575 -0.9201 -0.2952
vn -0.4100 -0.9053 0.1109
vn 0.3205 -0.2914 0.9013
vn 0.9680 -0.2500 0.0211
vn 0.3746 -0.2896 -0.8808
vn -0.8126 -0.2644 -0.5193
vn -0.8375 -0.2623 0.4793
vn 0.6538 -0.1039 0.7495
vn 0.9610 -0.0944 -0.2600
vn -0.0000 -0.1114 -0.9938
vn -0.9610 -0.0944 -0.2600
vn -0.6538 -0.1039 0.7495
vn 0.7261 0.5638 0.3935
vn 0.6815 0.5703 -0.4587
vn -0.3324 0.6052 -0.7233
vn -0.8373 0.5456 0.0359
vn -0.2435 0.6101 0.7540
vn -0.2575 0.9201 0.2952
vn -0.4467 0.7337 0.5121
vn -0.7261 0.5638 0.3935
vn -0.4100 0.9053 -0.1109
vn -0.6895 0.6998 -0.1866
vn -0.6815 0.5703 -0.4587
vn -0.0000 0.9296 -0.3686
vn -0.0000 0.7572 -0.6532
vn 0.3324 0.6052 -0.7233
vn 0.4100 0.9053 -0.1109
vn 0.6895 0.6998 -0.1866
vn 0.8373 0.5456 0.0359
vn 0.2575 0.9201 0.2952
vn 0.4467 0.7336 0.5121
vn 0.2435 0.6101 0.7540
vn -0.3746 0.2896 0.8808
vn -0.6494 0.1556 0.7444
vn -0.8126 0.2644 0.5193
vn -0.9680 0.2500 -0.0211
vn -0.9556 0.1415 -0.2586
vn -0.8375 0.2623 -0.4793
vn -0.3205 0.2914 -0.9013
vn -0.0000 0.1667 -0.9860
vn 0.3205 0.2914 -0.9013
vn 0.8375 0.2623 -0.4793
vn 0.9556 0.1415 -0.2586
vn 0.9680 0.2500 -0.0211
vn 0.8126 0.2644 0.5193
vn 0.6494 0.1556 0.7444
vn 0.3746 0.2896 0.8808
vn -0.9610 0.0944 0.2600
vn -0.9556 -0.1415 0.2586
vn -0.9680 -0.2500 0.0211
vn -0.6538 0.1039 -0.7495
vn -0.6494 -0.1556 -0.7444
vn -0.3746 -0.2896 -0.8808
vn 0.6538 0.1039 -0.7495
vn 0.6494 -0.1556 -0.7444
vn 0.8126 -0.2644 -0.5193
vn 0.9610 0.0944 0.2600
vn 0.9556 -0.1415 0.2586
vn 0.8375 -0.2623 0.4793
vn -0.0000 0.1114 0.9938
vn -0.0000 -0.1667 0.9860
vn -0.3205 -0.2914 0.9013
vn -0.6815 -0.5703 0.4587
vn -0.6895 -0.6998 0.1866
vn -0.8373 -0.5456 -0.0359
vn -0.7261 -0.5638 -0.3935
vn -0.4467 -0.7337 -0.5121
vn -0.2435 -0.6101 -0.7540
vn 0.2435 -0.6101 -0.7540
vn 0.4467 -0.7336 -0.5121
vn 0.7261 -0.5638 -0.3935
vn -0.3324 -0.6052 0.7233
vn -0.0000 -0.7572 0.6532
vn -0.0000 -0.9296 0.3686
vn 0.8373 -0.5456 -0.0359
vn 0.6895 -0.6998 0.1866
vn 0.6815 -0.5703 0.4587
vn -0.8256 -0.0000 0.5643
vn -0.0000 1.0000 -0.0000
vn -0.9967 -0.0000 0.0818
vn -0.0000 -1.0000 -0.0000
vn -0.9695 -0.0000 0.2449
vn -0.5401 -0.0000 0.8416
vn -0.9136 -0.0000 0.4067
vn -0.3422 -0.0000 0.9396
vn -0.1174 -0.0000 0.9931
vn -0.7019 -0.0000 0.7123
vn 0.1174 -0.0000 0.9931
vn 0.3422 -0.0000 0.9396
vn 0.5401 -0.0000 0.8416
vn 0.7019 -0.0000 0.7123
vn 0.8256 -0.0000 0.5643
vn 0.9136 -0.0000 0.4067
vn 0.9695 -0.0000 0.2449
vn -0.0000 -0.0000 1.0000
vn -1.0000 -0.0000 -0.0000
vn 1.0000 -0.0000 -0.0000
vn 0.0005 0.1841 0.9829
vn -0.0006 0.1841 0.9829
vn -0.0000 -0.0000 -1.0000
vn -0.0005 0.1841 -0.9829
vn 0.0006 0.1841 -0.9829
vn 1.0000 -0.0000 -0.0060
vn -1.0000 -0.0000 0.0060
vn 0.0058 1.0000 0.0020
vn -0.0058 1.0000 -0.0020
vn 0.8256 -0.0000 -0.5643
vn 0.9967 -0.0000 -0.0818
vn 0.9695 -0.0000 -0.2449
vn 0.5401 -0.0000 -0.8416
vn 0.9136 -0.0000 -0.4067
vn 0.3422 -0.0000 -0.9396
vn 0.1175 -0.0000 -0.9931
vn 0.7019 -0.0000 -0.7123
vn -0.1174 -0.0000 -0.9931
vn -0.3422 -0.0000 -0.9396
vn -0.5401 -0.0000 -0.8416
vn -0.7019 -0.0000 -0.7123
vn -0.8256 -0.0000 -0.5643
vn -0.9136 -0.0000 -0.4067
vn -0.9695 -0.0000 -0.2449
vt 0.723274 0.888833
vt 0.763485 0.912048
vt 0.763485 0.865618
vt 0.803695 0.842403
vt 0.803695 0.795973
vt 0.763485 0.819188
vt 0.723274 0.517393
vt 0.763485 0.540608
vt 0.763485 0.494178
vt 0.723274 0.610253
vt 0.763485 0.633468
vt 0.763485 0.587038
vt 0.723274 0.703113
vt 0.763485 0.726328
vt 0.763485 0.679898
vt 0.843904 0.819188
vt 0.803695 0.935263
vt 0.843904 0.912048
vt 0.803695 0.888833
vt 0.803694 0.563823
vt 0.843904 0.540608
vt 0.803694 0.517393
vt 0.803694 0.656683
vt 0.843904 0.633468
vt 0.803694 0.610253
vt 0.803695 0.749543
vt 0.843904 0.726328
vt 0.803695 0.703113
vt 0.843904 0.865618
vt 0.843904 0.958479
vt 0.843904 0.587038
vt 0.843904 0.679898
vt 0.843904 0.772758
vt 0.884114 0.888833
vt 0.924324 0.865618
vt 0.884114 0.842403
vt 0.884114 0.981694
vt 0.924324 0.958479
vt 0.884114 0.935264
vt 0.884114 0.610253
vt 0.924324 0.587038
vt 0.884114 0.563823
vt 0.884114 0.703113
vt 0.924324 0.679898
vt 0.884114 0.656683
vt 0.884114 0.795973
vt 0.924324 0.772758
vt 0.884114 0.749543
vt 0.964534 0.749543
vt 0.924324 0.726328
vt 0.964534 0.656683
vt 0.924324 0.633468
vt 0.964534 0.563823
vt 0.924324 0.540608
vt 0.884114 0.517393
vt 0.964534 0.935263
vt 0.924324 0.912048
vt 0.964534 0.842403
vt 0.924324 0.819188
vt 0.843904 0.494178
vt 0.803694 0.470963
vt 0.763485 0.772758
vt 0.723274 0.795973
vt 0.733519 0.096894
vt 0.738832 0.100187
vt 0.738983 0.289436
vt 0.733597 0.292851
vt 0.923328 0.302943
vt 0.929819 0.297975
vt 0.935830 0.293801
vt 0.941378 0.290284
vt 0.946443 0.287531
vt 0.951089 0.285570
vt 0.955395 0.284417
vt 0.959598 0.284270
vt 0.963794 0.285148
vt 0.968171 0.287054
vt 0.972853 0.290208
vt 0.978055 0.294724
vt 0.983895 0.300840
vt 0.990335 0.308811
vt 0.990699 0.317577
vt 0.989387 0.326438
vt 0.986630 0.334818
vt 0.982576 0.342539
vt 0.977381 0.349303
vt 0.971245 0.354852
vt 0.964404 0.358971
vt 0.957120 0.361503
vt 0.949675 0.362350
vt 0.942352 0.361479
vt 0.935436 0.358925
vt 0.929189 0.354784
vt 0.923854 0.349217
vt 0.919635 0.342437
vt 0.916693 0.334705
vt 0.915143 0.326318
vt 0.915044 0.317599
vt 0.916399 0.308881
vt 0.810327 0.079686
vt 0.817143 0.086498
vt 0.817296 0.308864
vt 0.810279 0.315763
vt 0.714972 0.081628
vt 0.713646 0.073194
vt 0.713727 0.064755
vt 0.715213 0.056636
vt 0.718046 0.049149
vt 0.722117 0.042581
vt 0.727271 0.037184
vt 0.733308 0.033167
vt 0.739998 0.030683
vt 0.747082 0.029828
vt 0.754289 0.030634
vt 0.761342 0.033072
vt 0.767969 0.037047
vt 0.773916 0.042406
vt 0.778955 0.048943
vt 0.782891 0.056407
vt 0.785574 0.064512
vt 0.786861 0.073102
vt 0.786632 0.081676
vt 0.780135 0.089188
vt 0.774400 0.095316
vt 0.769301 0.099826
vt 0.764654 0.102858
vt 0.760388 0.104825
vt 0.756319 0.105771
vt 0.752252 0.105718
vt 0.748103 0.104704
vt 0.743691 0.102771
vt 0.727749 0.092494
vt 0.721504 0.087308
vt 0.823629 0.092767
vt 0.823823 0.303087
vt 0.748410 0.284860
vt 0.743900 0.286765
vt 0.829541 0.097867
vt 0.829846 0.298188
vt 0.752589 0.283741
vt 0.834956 0.101660
vt 0.835329 0.294220
vt 0.756669 0.283598
vt 0.839882 0.104619
vt 0.840307 0.291133
vt 0.760743 0.284451
vt 0.844328 0.106843
vt 0.844850 0.288911
vt 0.764992 0.286301
vt 0.848487 0.108091
vt 0.849033 0.287533
vt 0.769537 0.289363
vt 0.852551 0.108355
vt 0.853107 0.287157
vt 0.774587 0.293747
vt 0.856619 0.107631
vt 0.857175 0.287769
vt 0.780256 0.299684
vt 0.860861 0.105932
vt 0.861400 0.289334
vt 0.786508 0.307422
vt 0.865457 0.103253
vt 0.865900 0.292013
vt 0.870477 0.099257
vt 0.870872 0.295859
vt 0.876089 0.093877
vt 0.876422 0.301020
vt 0.882395 0.087403
vt 0.882615 0.307708
vt 0.889370 0.079315
vt 0.889370 0.316140
vt 0.983770 0.084004
vt 0.990463 0.076264
vt 0.977862 0.090316
vt 0.972610 0.094962
vt 0.967823 0.098085
vt 0.963428 0.100111
vt 0.959237 0.101085
vt 0.955047 0.101031
vt 0.950773 0.099986
vt 0.946229 0.097995
vt 0.941223 0.095334
vt 0.721460 0.301726
vt 0.727762 0.296902
vt 0.786861 0.315932
vt 0.785588 0.324533
vt 0.782911 0.332668
vt 0.778975 0.340163
vt 0.773933 0.346730
vt 0.767976 0.352116
vt 0.761335 0.356115
vt 0.754265 0.358573
vt 0.747037 0.359395
vt 0.739928 0.358550
vt 0.733214 0.356070
vt 0.727150 0.352051
vt 0.721971 0.346647
vt 0.717875 0.340065
vt 0.715020 0.332559
vt 0.713515 0.324417
vt 0.713419 0.315952
vt 0.714734 0.307490
vt 0.935750 0.091941
vt 0.916645 0.076215
vt 0.915278 0.067527
vt 0.915362 0.058835
vt 0.916892 0.050471
vt 0.919811 0.042758
vt 0.924005 0.035992
vt 0.929314 0.030433
vt 0.935533 0.026295
vt 0.942424 0.023736
vt 0.949722 0.022855
vt 0.957146 0.023686
vt 0.964411 0.026197
vt 0.971238 0.030291
vt 0.977364 0.035812
vt 0.982554 0.042546
vt 0.986609 0.050235
vt 0.989373 0.058584
vt 0.990699 0.067433
vt 0.929807 0.087408
vt 0.923372 0.082067
vt 0.889045 0.325591
vt 0.887137 0.334722
vt 0.883789 0.343313
vt 0.879130 0.351035
vt 0.873338 0.357589
vt 0.866636 0.362726
vt 0.859282 0.366246
vt 0.851558 0.368016
vt 0.843762 0.367966
vt 0.836192 0.366098
vt 0.829140 0.362486
vt 0.822876 0.357266
vt 0.817642 0.350641
vt 0.813638 0.342864
vt 0.811019 0.334234
vt 0.809885 0.325084
vt 0.809931 0.070372
vt 0.811063 0.061226
vt 0.813679 0.052601
vt 0.817679 0.044828
vt 0.822908 0.038206
vt 0.829167 0.032988
vt 0.836214 0.029376
vt 0.843779 0.027509
vt 0.851570 0.027457
vt 0.859290 0.029223
vt 0.866640 0.032740
vt 0.873339 0.037872
vt 0.879129 0.044422
vt 0.883787 0.052137
vt 0.887134 0.060723
vt 0.889043 0.069848
vt 0.642511 0.605273
vt 0.642511 0.621195
vt 0.565047 0.625923
vt 0.595992 0.605273
vt 0.642511 0.752413
vt 0.571048 0.756767
vt 0.642511 0.813451
vt 0.574228 0.812618
vt 0.642511 0.947507
vt 0.571368 0.947566
vt 0.343668 0.652195
vt 0.383427 0.605273
vt 0.531649 0.647626
vt 0.539953 0.742532
vt 0.367588 0.750346
vt 0.365941 0.666516
vt 0.351236 0.823907
vt 0.346469 0.767371
vt 0.540740 0.831567
vt 0.540108 0.930785
vt 0.372574 0.926460
vt 0.373219 0.839711
vt 0.306504 0.654949
vt 0.344892 0.605273
vt 0.309132 0.767479
vt 0.314173 0.821459
vt 0.351725 0.941516
vt 0.314178 0.940557
vt 0.109181 0.672320
vt 0.146283 0.605273
vt 0.282901 0.673844
vt 0.291152 0.753616
vt 0.135250 0.764532
vt 0.130825 0.686745
vt 0.118365 0.831443
vt 0.115309 0.781561
vt 0.292497 0.838460
vt 0.292642 0.924408
vt 0.137678 0.927848
vt 0.134981 0.845622
vt 0.356276 0.937709
vt 0.558584 0.944112
vt 0.119372 0.778252
vt 0.305774 0.763656
vt 0.294513 0.757328
vt 0.131470 0.767653
vt 0.309730 0.824737
vt 0.121403 0.835324
vt 0.131927 0.841833
vt 0.296631 0.835379
vt 0.346919 0.655404
vt 0.351066 0.763135
vt 0.117458 0.942148
vt 0.113027 0.945321
vt 0.310886 0.936451
vt 0.295670 0.928243
vt 0.133831 0.930776
vt 0.368371 0.929448
vt 0.370127 0.835665
vt 0.112574 0.676125
vt 0.363361 0.753698
vt 0.362693 0.662699
vt 0.545497 0.828171
vt 0.543502 0.935220
vt 0.560731 0.816519
vt 0.536087 0.643935
vt 0.543804 0.746829
vt 0.354387 0.827335
vt 0.557222 0.754147
vt 0.552453 0.630549
vt 0.127712 0.683185
vt 0.302231 0.658385
vt 0.286603 0.670693
vt 0.355140 0.976468
vt 0.151147 0.976468
vt 0.391735 0.976468
vt 0.603868 0.976468
vt 0.642511 0.976468
vt 0.034491 0.976468
vt 0.034491 0.944446
vt 0.034491 0.673464
vt 0.034491 0.605273
vt 0.034491 0.779298
vt 0.034491 0.828816
s 0
f 1/1/1 13/2/1 14/3/1
f 2/4/2 16/5/2 14/6/2
f 1/7/3 18/8/3 13/9/3
f 1/10/4 20/11/4 18/12/4
f 1/13/5 17/14/5 20/15/5
f 2/4/6 23/16/6 16/5/6
f 3/17/7 25/18/7 15/19/7
f 4/20/8 27/21/8 19/22/8
f 5/23/9 29/24/9 21/25/9
f 6/26/10 31/27/10 22/28/10
f 2/4/11 26/29/11 23/16/11
f 3/17/12 28/30/12 25/18/12
f 4/20/13 30/31/13 27/21/13
f 5/23/14 32/32/14 29/24/14
f 6/26/15 24/33/15 31/27/15
f 7/34/16 38/35/16 33/36/16
f 8/37/17 40/38/17 34/39/17
f 9/40/18 41/41/18 35/42/18
f 10/43/19 42/44/19 36/45/19
f 11/46/20 39/47/20 37/48/20
f 39/47/21 12/49/21 42/50/21
f 39/47/22 42/50/22 37/48/22
f 37/48/23 42/50/23 10/43/23
f 42/44/24 12/51/24 41/52/24
f 42/44/25 41/52/25 36/45/25
f 36/45/26 41/52/26 9/40/26
f 41/41/27 12/53/27 40/54/27
f 41/41/28 40/54/28 35/42/28
f 35/42/29 40/54/29 8/55/29
f 40/38/30 12/56/30 38/57/30
f 40/38/31 38/57/31 34/39/31
f 34/39/32 38/57/32 7/34/32
f 38/35/33 12/58/33 39/59/33
f 38/35/34 39/59/34 33/36/34
f 33/36/35 39/59/35 11/46/35
f 24/33/36 11/46/36 37/48/36
f 24/33/37 37/48/37 31/27/37
f 31/27/38 37/48/38 10/43/38
f 32/32/39 10/43/39 36/45/39
f 32/32/40 36/45/40 29/24/40
f 29/24/41 36/45/41 9/40/41
f 30/31/42 9/40/42 35/42/42
f 30/31/43 35/42/43 27/21/43
f 27/21/44 35/42/44 8/55/44
f 28/30/45 8/37/45 34/39/45
f 28/30/46 34/39/46 25/18/46
f 25/18/47 34/39/47 7/34/47
f 26/29/48 7/34/48 33/36/48
f 26/29/49 33/36/49 23/16/49
f 23/16/50 33/36/50 11/46/50
f 31/27/51 10/43/51 32/32/51
f 31/27/52 32/32/52 22/28/52
f 22/28/53 32/32/53 5/23/53
f 29/24/54 9/40/54 30/31/54
f 29/24/55 30/31/55 21/25/55
f 21/25/56 30/31/56 4/20/56
f 27/21/57 8/55/57 28/60/57
f 27/21/58 28/60/58 19/22/58
f 19/22/59 28/60/59 3/61/59
f 25/18/60 7/34/60 26/29/60
f 25/18/61 26/29/61 15/19/61
f 15/19/62 26/29/62 2/4/62
f 23/16/63 11/46/63 24/33/63
f 23/16/64 24/33/64 16/5/64
f 16/5/65 24/33/65 6/26/65
f 17/14/66 6/26/66 22/28/66
f 17/14/67 22/28/67 20/15/67
f 20/15/68 22/28/68 5/23/68
f 20/11/69 5/23/69 21/25/69
f 20/11/70 21/25/70 18/12/70
f 18/12/71 21/25/71 4/20/71
f 18/8/72 4/20/72 19/22/72
f 18/8/73 19/22/73 13/9/73
f 13/9/74 19/22/74 3/61/74
f 16/5/75 6/26/75 17/62/75
f 16/5/76 17/62/76 14/6/76
f 14/6/77 17/62/77 1/63/77
f 13/2/78 3/17/78 15/19/78
f 13/2/79 15/19/79 14/3/79
f 14/3/80 15/19/80 2/4/80
f 177/64/81 179/65/81 180/66/81 178/67/81
f 110/68/82 112/69/82 114/70/82 116/71/82 118/72/82 120/73/82 122/74/82 124/75/82 126/76/82 128/77/82 130/78/82 132/79/82 134/80/82 136/81/82 138/82/82 140/83/82 142/84/82 144/85/82 146/86/82 148/87/82 150/88/82 152/89/82 154/90/82 156/91/82 158/92/82 160/93/82 162/94/82 164/95/82 166/96/82 168/97/82 170/98/82 43/99/82
f 45/100/83 47/101/83 48/102/83 46/103/83
f 172/104/84 233/105/84 231/106/84 229/107/84 227/108/84 225/109/84 223/110/84 221/111/84 219/112/84 217/113/84 215/114/84 213/115/84 211/116/84 209/117/84 207/118/84 205/119/84 203/120/84 201/121/84 199/122/84 197/123/84 195/124/84 193/125/84 191/126/84 189/127/84 187/128/84 185/129/84 183/130/84 181/131/84 179/65/84 177/64/84 175/132/84 173/133/84
f 47/101/85 49/134/85 50/135/85 48/102/85
f 181/131/86 183/130/86 184/136/86 182/137/86
f 49/134/87 51/138/87 52/139/87 50/135/87
f 183/130/88 185/129/88 186/140/88 184/136/88
f 51/138/81 53/141/81 54/142/81 52/139/81
f 185/129/89 187/128/89 188/143/89 186/140/89
f 53/141/90 55/144/90 56/145/90 54/142/90
f 187/128/91 189/127/91 190/146/91 188/143/91
f 55/144/86 57/147/86 58/148/86 56/145/86
f 189/127/92 191/126/92 192/149/92 190/146/92
f 57/147/88 59/150/88 60/151/88 58/148/88
f 191/126/93 193/125/93 194/152/93 192/149/93
f 59/150/89 61/153/89 62/154/89 60/151/89
f 193/125/94 195/124/94 196/155/94 194/152/94
f 61/153/91 63/156/91 64/157/91 62/154/91
f 195/124/95 197/123/95 198/158/95 196/155/95
f 63/156/92 65/159/92 66/160/92 64/157/92
f 197/123/96 199/122/96 200/161/96 198/158/96
f 65/159/93 67/162/93 68/163/93 66/160/93
f 67/162/94 69/164/94 70/165/94 68/163/94
f 69/164/95 71/166/95 72/167/95 70/165/95
f 71/166/96 73/168/96 74/169/96 72/167/96
f 73/168/97 75/170/97 76/171/97 74/169/97
f 133/172/96 135/173/96 136/81/96 134/80/96
f 131/174/95 133/172/95 134/80/95 132/79/95
f 129/175/94 131/174/94 132/79/94 130/78/94
f 127/176/93 129/175/93 130/78/93 128/77/93
f 125/177/92 127/176/92 128/77/92 126/76/92
f 123/178/91 125/177/91 126/76/91 124/75/91
f 121/179/89 123/178/89 124/75/89 122/74/89
f 119/180/88 121/179/88 122/74/88 120/73/88
f 117/181/86 119/180/86 120/73/86 118/72/86
f 115/182/90 117/181/90 118/72/90 116/71/90
f 174/183/82 176/184/82 178/67/82 180/66/82 182/137/82 184/136/82 186/140/82 188/143/82 190/146/82 192/149/82 194/152/82 196/155/82 198/158/82 200/161/82 202/185/82 204/186/82 206/187/82 208/188/82 210/189/82 212/190/82 214/191/82 216/192/82 218/193/82 220/194/82 222/195/82 224/196/82 226/197/82 228/198/82 230/199/82 232/200/82 234/201/82 171/202/82
f 113/203/81 115/182/81 116/71/81 114/70/81
f 44/204/84 169/205/84 167/206/84 165/207/84 163/208/84 161/209/84 159/210/84 157/211/84 155/212/84 153/213/84 151/214/84 149/215/84 147/216/84 145/217/84 143/218/84 141/219/84 139/220/84 137/221/84 135/173/84 133/172/84 131/174/84 129/175/84 127/176/84 125/177/84 123/178/84 121/179/84 119/180/84 117/181/84 115/182/84 113/203/84 111/222/84 109/223/84
f 111/222/87 113/203/87 114/70/87 112/69/87
f 109/223/85 111/222/85 112/69/85 110/68/85
f 48/102/82 50/135/82 52/139/82 54/142/82 56/145/82 58/148/82 60/151/82 62/154/82 64/157/82 66/160/82 68/163/82 70/165/82 72/167/82 74/169/82 76/171/82 78/224/82 80/225/82 82/226/82 84/227/82 86/228/82 88/229/82 90/230/82 92/231/82 94/232/82 96/233/82 98/234/82 100/235/82 102/236/82 104/237/82 106/238/82 108/239/82 46/103/82
f 44/204/83 109/223/83 110/68/83 43/99/83
f 179/65/90 181/131/90 182/137/90 180/66/90
f 45/100/84 107/240/84 105/241/84 103/242/84 101/243/84 99/244/84 97/245/84 95/246/84 93/247/84 91/248/84 89/249/84 87/250/84 85/251/84 83/252/84 81/253/84 79/254/84 77/255/84 75/170/84 73/168/84 71/166/84 69/164/84 67/162/84 65/159/84 63/156/84 61/153/84 59/150/84 57/147/84 55/144/84 53/141/84 51/138/84 49/134/84 47/101/84
f 175/132/87 177/64/87 178/67/87 176/184/87
f 173/133/85 175/132/85 176/184/85 174/183/85
f 172/104/83 173/133/83 174/183/83 171/202/83
f 318/256/98 316/257/98 258/258/98 303/259/98
f 316/257/98 315/260/98 256/261/98 258/258/98
f 315/260/98 314/262/98 254/263/98 256/261/98
f 314/262/98 313/264/98 252/265/98 254/263/98
f 303/259/98 258/258/98 257/266/98 304/267/98
f 238/268/98 237/269/98 241/270/98 242/271/98
f 256/261/98 254/263/98 253/272/98 255/273/98
f 236/274/98 235/275/98 239/276/98 240/277/98
f 304/267/98 257/266/98 266/278/98 305/279/98
f 257/266/98 255/273/98 264/280/98 266/278/98
f 255/273/98 253/272/98 262/281/98 264/280/98
f 253/272/98 251/282/98 260/283/98 262/281/98
f 305/279/98 266/278/98 265/284/98 306/285/98
f 246/286/98 245/287/98 249/288/98 250/289/98
f 264/280/98 262/281/98 261/290/98 263/291/98
f 244/292/98 243/293/98 247/294/98 248/295/98
f 251/282/99 267/296/99 268/297/99 252/265/99
f 263/291/99 279/298/99 280/299/99 264/280/99
f 245/287/100 296/300/100 295/301/100 249/288/100
f 262/281/100 278/302/100 277/303/100 261/290/100
f 248/295/99 293/304/99 294/305/99 244/292/99
f 257/266/84 273/306/84 271/307/84 255/273/84
f 261/290/84 277/303/84 275/308/84 259/309/84
f 259/309/99 275/308/99 276/310/99 260/283/99
f 243/293/100 292/311/100 291/312/100 247/294/100
f 239/276/82 283/313/82 285/314/82 240/277/82
f 265/284/84 281/315/84 279/298/84 263/291/84
f 241/270/82 287/316/82 289/317/82 242/271/82
f 236/274/84 286/318/84 284/319/84 235/275/84
f 252/265/101 268/297/101 270/320/101 254/263/101
f 238/268/84 290/321/84 288/322/84 237/269/84
f 242/271/99 289/317/99 290/321/99 238/268/99
f 284/319/98 268/297/98 267/296/98 283/313/98
f 285/314/98 269/323/98 270/320/98 286/318/98
f 288/322/98 272/324/98 271/307/98 287/316/98
f 289/317/98 273/306/98 274/325/98 290/321/98
f 290/321/98 274/325/98 272/324/98 288/322/98
f 286/318/98 270/320/98 268/297/98 284/319/98
f 287/316/98 271/307/98 273/306/98 289/317/98
f 283/313/98 267/296/98 269/323/98 285/314/98
f 292/311/98 276/310/98 275/308/98 291/312/98
f 293/304/98 277/303/98 278/302/98 294/305/98
f 296/300/98 280/299/98 279/298/98 295/301/98
f 297/326/98 281/315/98 282/327/98 298/328/98
f 298/328/98 282/327/98 280/299/98 296/300/98
f 294/305/98 278/302/98 276/310/98 292/311/98
f 295/301/98 279/298/98 281/315/98 297/326/98
f 291/312/98 275/308/98 277/303/98 293/304/98
f 253/272/84 269/323/84 267/296/84 251/282/84
f 250/289/99 297/326/99 298/328/99 246/286/99
f 266/278/100 282/327/100 281/315/100 265/284/100
f 254/263/100 270/320/100 269/323/100 253/272/100
f 246/286/84 298/328/84 296/300/84 245/287/84
f 255/273/99 271/307/99 272/324/99 256/261/99
f 244/292/84 294/305/84 292/311/84 243/293/84
f 235/275/100 284/319/100 283/313/100 239/276/100
f 258/258/100 274/325/100 273/306/100 257/266/100
f 249/288/82 295/301/82 297/326/82 250/289/82
f 264/280/82 280/299/82 282/327/82 266/278/82
f 240/277/99 285/314/99 286/318/99 236/274/99
f 247/294/82 291/312/82 293/304/82 248/295/82
f 237/269/100 288/322/100 287/316/100 241/270/100
f 256/261/102 272/324/102 274/325/102 258/258/102
f 260/283/82 276/310/82 278/302/82 262/281/82
f 260/283/98 301/329/98 302/330/98 259/309/98
f 251/282/98 300/331/98 301/329/98 260/283/98
f 252/265/98 299/332/98 300/331/98 251/282/98
f 313/264/98 317/333/98 299/332/98 252/265/98
f 259/309/98 302/330/98 311/334/98 307/335/98
f 306/285/98 265/284/98 310/336/98 312/337/98
f 265/284/98 263/291/98 309/338/98 310/336/98
f 263/291/98 261/290/98 308/339/98 309/338/98
f 261/290/98 259/309/98 307/335/98 308/339/98
f 402/256/103 400/257/103 342/258/103 387/259/103
f 400/257/103 399/260/103 340/261/103 342/258/103
f 399/260/103 398/262/103 338/263/103 340/261/103
f 398/262/103 397/264/103 336/265/103 338/263/103
f 387/259/103 342/258/103 341/266/103 388/267/103
f 322/268/103 321/269/103 325/270/103 326/271/103
f 340/261/103 338/263/103 337/272/103 339/273/103
f 320/274/103 319/275/103 323/276/103 324/277/103
f 388/267/103 341/266/103 350/278/103 389/279/103
f 341/266/103 339/273/103 348/280/103 350/278/103
f 339/273/103 337/272/103 346/281/103 348/280/103
f 337/272/103 335/282/103 344/283/103 346/281/103
f 389/279/103 350/278/103 349/284/103 390/285/103
f 330/286/103 329/287/103 333/288/103 334/289/103
f 348/280/103 346/281/103 345/290/103 347/291/103
f 328/292/103 327/293/103 331/294/103 332/295/103
f 335/282/100 351/296/100 352/297/100 336/265/100
f 347/291/100 363/298/100 364/299/100 348/280/100
f 329/287/99 380/300/99 379/301/99 333/288/99
f 346/281/99 362/302/99 361/303/99 345/290/99
f 332/295/100 377/304/100 378/305/100 328/292/100
f 341/266/84 357/306/84 355/307/84 339/273/84
f 345/290/84 361/303/84 359/308/84 343/309/84
f 343/309/100 359/308/100 360/310/100 344/283/100
f 327/293/99 376/311/99 375/312/99 331/294/99
f 323/276/82 367/313/82 369/314/82 324/277/82
f 349/284/84 365/315/84 363/298/84 347/291/84
f 325/270/82 371/316/82 373/317/82 326/271/82
f 320/274/84 370/318/84 368/319/84 319/275/84
f 336/265/104 352/297/104 354/320/104 338/263/104
f 322/268/84 374/321/84 372/322/84 321/269/84
f 326/271/100 373/317/100 374/321/100 322/268/100
f 368/319/103 352/297/103 351/296/103 367/313/103
f 369/314/103 353/323/103 354/320/103 370/318/103
f 372/322/103 356/324/103 355/307/103 371/316/103
f 373/317/103 357/306/103 358/325/103 374/321/103
f 374/321/103 358/325/103 356/324/103 372/322/103
f 370/318/103 354/320/103 352/297/103 368/319/103
f 371/316/103 355/307/103 357/306/103 373/317/103
f 367/313/103 351/296/103 353/323/103 369/314/103
f 376/311/103 360/310/103 359/308/103 375/312/103
f 377/304/103 361/303/103 362/302/103 378/305/103
f 380/300/103 364/299/103 363/298/103 379/301/103
f 381/326/103 365/315/103 366/327/103 382/328/103
f 382/328/103 366/327/103 364/299/103 380/300/103
f 378/305/103 362/302/103 360/310/103 376/311/103
f 379/301/103 363/298/103 365/315/103 381/326/103
f 375/312/103 359/308/103 361/303/103 377/304/103
f 337/272/84 353/323/84 351/296/84 335/282/84
f 334/289/100 381/326/100 382/328/100 330/286/100
f 350/278/99 366/327/99 365/315/99 349/284/99
f 338/263/99 354/320/99 353/323/99 337/272/99
f 330/286/84 382/328/84 380/300/84 329/287/84
f 339/273/100 355/307/100 356/324/100 340/261/100
f 328/292/84 378/305/84 376/311/84 327/293/84
f 319/275/99 368/319/99 367/313/99 323/276/99
f 342/258/99 358/325/99 357/306/99 341/266/99
f 333/288/82 379/301/82 381/326/82 334/289/82
f 348/280/82 364/299/82 366/327/82 350/278/82
f 324/277/100 369/314/100 370/318/100 320/274/100
f 331/294/82 375/312/82 377/304/82 332/295/82
f 321/269/99 372/322/99 371/316/99 325/270/99
f 340/261/105 356/324/105 358/325/105 342/258/105
f 344/283/82 360/310/82 362/302/82 346/281/82
f 344/283/103 385/329/103 386/330/103 343/309/103
f 335/282/103 384/331/103 385/329/103 344/283/103
f 336/265/103 383/332/103 384/331/103 335/282/103
f 397/264/103 401/333/103 383/332/103 336/265/103
f 343/309/103 386/330/103 395/334/103 391/335/103
f 390/285/103 349/284/103 394/336/103 396/337/103
f 349/284/103 347/291/103 393/338/103 394/336/103
f 347/291/103 345/290/103 392/339/103 393/338/103
f 345/290/103 343/309/103 391/335/103 392/339/103
f 311/334/106 302/330/106 390/285/106 396/337/106
f 302/330/106 301/329/106 389/279/106 390/285/106
f 301/329/106 300/331/106 388/267/106 389/279/106
f 300/331/106 299/332/106 387/259/106 388/267/106
f 299/332/106 317/333/106 402/256/106 387/259/106
f 317/333/84 313/264/84 400/257/84 402/256/84
f 313/264/84 314/262/84 399/260/84 400/257/84
f 315/260/84 316/257/84 397/264/84 398/262/84
f 314/262/84 315/260/84 398/262/84 399/260/84
f 316/257/84 318/256/84 401/333/84 397/264/84
f 318/256/107 303/259/107 383/332/107 401/333/107
f 303/259/107 304/267/107 384/331/107 383/332/107
f 304/267/107 305/279/107 385/329/107 384/331/107
f 305/279/107 306/285/107 386/330/107 385/329/107
f 306/285/107 312/337/107 395/334/107 386/330/107
f 312/337/108 310/336/108 391/335/108 395/334/108
f 310/336/82 309/338/82 392/339/82 391/335/82
f 309/338/82 308/339/82 393/338/82 392/339/82
f 308/339/82 307/335/82 394/336/82 393/338/82
f 307/335/109 311/334/109 396/337/109 394/336/109
f 403/1/1 415/2/1 416/3/1
f 404/4/2 418/5/2 416/6/2
f 403/7/3 420/8/3 415/9/3
f 403/10/4 422/11/4 420/12/4
f 403/13/5 419/14/5 422/15/5
f 404/4/6 425/16/6 418/5/6
f 405/17/7 427/18/7 417/19/7
f 406/20/8 429/21/8 421/22/8
f 407/23/9 431/24/9 423/25/9
f 408/26/10 433/27/10 424/28/10
f 404/4/11 428/29/11 425/16/11
f 405/17/12 430/30/12 427/18/12
f 406/20/13 432/31/13 429/21/13
f 407/23/14 434/32/14 431/24/14
f 408/26/15 426/33/15 433/27/15
f 409/34/16 440/35/16 435/36/16
f 410/37/17 442/38/17 436/39/17
f 411/40/18 443/41/18 437/42/18
f 412/43/19 444/44/19 438/45/19
f 413/46/20 441/47/20 439/48/20
f 441/47/21 414/49/21 444/50/21
f 441/47/22 444/50/22 439/48/22
f 439/48/23 444/50/23 412/43/23
f 444/44/24 414/51/24 443/52/24
f 444/44/25 443/52/25 438/45/25
f 438/45/26 443/52/26 411/40/26
f 443/41/27 414/53/27 442/54/27
f 443/41/28 442/54/28 437/42/28
f 437/42/29 442/54/29 410/55/29
f 442/38/30 414/56/30 440/57/30
f 442/38/31 440/57/31 436/39/31
f 436/39/32 440/57/32 409/34/32
f 440/35/33 414/58/33 441/59/33
f 440/35/34 441/59/34 435/36/34
f 435/36/35 441/59/35 413/46/35
f 426/33/36 413/46/36 439/48/36
f 426/33/37 439/48/37 433/27/37
f 433/27/38 439/48/38 412/43/38
f 434/32/39 412/43/39 438/45/39
f 434/32/40 438/45/40 431/24/40
f 431/24/41 438/45/41 411/40/41
f 432/31/42 411/40/42 437/42/42
f 432/31/43 437/42/43 429/21/43
f 429/21/44 437/42/44 410/55/44
f 430/30/45 410/37/45 436/39/45
f 430/30/46 436/39/46 427/18/46
f 427/18/47 436/39/47 409/34/47
f 428/29/48 409/34/48 435/36/48
f 428/29/49 435/36/49 425/16/49
f 425/16/50 435/36/50 413/46/50
f 433/27/51 412/43/51 434/32/51
f 433/27/52 434/32/52 424/28/52
f 424/28/53 434/32/53 407/23/53
f 431/24/54 411/40/54 432/31/54
f 431/24/55 432/31/55 423/25/55
f 423/25/56 432/31/56 406/20/56
f 429/21/57 410/55/57 430/60/57
f 429/21/58 430/60/58 421/22/58
f 421/22/59 430/60/59 405/61/59
f 427/18/60 409/34/60 428/29/60
f 427/18/61 428/29/61 417/19/61
f 417/19/62 428/29/62 404/4/62
f 425/16/63 413/46/63 426/33/63
f 425/16/64 426/33/64 418/5/64
f 418/5/65 426/33/65 408/26/65
f 419/14/66 408/26/66 424/28/66
f 419/14/67 424/28/67 422/15/67
f 422/15/68 424/28/68 407/23/68
f 422/11/69 407/23/69 423/25/69
f 422/11/70 423/25/70 420/12/70
f 420/12/71 423/25/71 406/20/71
f 420/8/72 406/20/72 421/22/72
f 420/8/73 421/22/73 415/9/73
f 415/9/74 421/22/74 405/61/74
f 418/5/75 408/26/75 419/62/75
f 418/5/76 419/62/76 416/6/76
f 416/6/77 419/62/77 403/63/77
f 415/2/78 405/17/78 417/19/78
f 415/2/79 417/19/79 416/3/79
f 416/3/80 417/19/80 404/4/80
f 579/64/110 581/65/110 582/66/110 580/67/110
f 512/68/82 514/69/82 516/70/82 518/71/82 520/72/82 522/73/82 524/74/82 526/75/82 528/76/82 530/77/82 532/78/82 534/79/82 536/80/82 538/81/82 540/82/82 542/83/82 544/84/82 546/85/82 548/86/82 550/87/82 552/88/82 554/89/82 556/90/82 558/91/82 560/92/82 562/93/82 564/94/82 566/95/82 568/96/82 570/97/82 572/98/82 445/99/82
f 447/100/111 449/101/111 450/102/111 448/103/111
f 574/104/84 635/105/84 633/106/84 631/107/84 629/108/84 627/109/84 625/110/84 623/111/84 621/112/84 619/113/84 617/114/84 615/115/84 613/116/84 611/117/84 609/118/84 607/119/84 605/120/84 603/121/84 601/122/84 599/123/84 597/124/84 595/125/84 593/126/84 591/127/84 589/128/84 587/129/84 585/130/84 583/131/84 581/65/84 579/64/84 577/132/84 575/133/84
f 449/101/112 451/134/112 452/135/112 450/102/112
f 583/131/113 585/130/113 586/136/113 584/137/113
f 451/134/114 453/138/114 454/139/114 452/135/114
f 585/130/115 587/129/115 588/140/115 586/136/115
f 453/138/110 455/141/110 456/142/110 454/139/110
f 587/129/116 589/128/116 590/143/116 588/140/116
f 455/141/117 457/144/117 458/145/117 456/142/117
f 589/128/118 591/127/118 592/146/118 590/143/118
f 457/144/113 459/147/113 460/148/113 458/145/113
f 591/127/119 593/126/119 594/149/119 592/146/119
f 459/147/115 461/150/115 462/151/115 460/148/115
f 593/126/120 595/125/120 596/152/120 594/149/120
f 461/150/116 463/153/116 464/154/116 462/151/116
f 595/125/121 597/124/121 598/155/121 596/152/121
f 463/153/118 465/156/118 466/157/118 464/154/118
f 597/124/122 599/123/122 600/158/122 598/155/122
f 465/156/119 467/159/119 468/160/119 466/157/119
f 599/123/123 601/122/123 602/161/123 600/158/123
f 467/159/120 469/162/120 470/163/120 468/160/120
f 469/162/121 471/164/121 472/165/121 470/163/121
f 471/164/122 473/166/122 474/167/122 472/165/122
f 473/166/123 475/168/123 476/169/123 474/167/123
f 475/168/124 477/170/124 478/171/124 476/169/124
f 535/172/123 537/173/123 538/81/123 536/80/123
f 533/174/122 535/172/122 536/80/122 534/79/122
f 531/175/121 533/174/121 534/79/121 532/78/121
f 529/176/120 531/175/120 532/78/120 530/77/120
f 527/177/119 529/176/119 530/77/119 528/76/119
f 525/178/118 527/177/118 528/76/118 526/75/118
f 523/179/116 525/178/116 526/75/116 524/74/116
f 521/180/115 523/179/115 524/74/115 522/73/115
f 519/181/113 521/180/113 522/73/113 520/72/113
f 517/182/117 519/181/117 520/72/117 518/71/117
f 576/183/82 578/184/82 580/67/82 582/66/82 584/137/82 586/136/82 588/140/82 590/143/82 592/146/82 594/149/82 596/152/82 598/155/82 600/158/82 602/161/82 604/185/82 606/186/82 608/187/82 610/188/82 612/189/82 614/190/82 616/191/82 618/192/82 620/193/82 622/194/82 624/195/82 626/196/82 628/197/82 630/198/82 632/199/82 634/200/82 636/201/82 573/202/82
f 515/203/110 517/182/110 518/71/110 516/70/110
f 446/204/84 571/205/84 569/206/84 567/207/84 565/208/84 563/209/84 561/210/84 559/211/84 557/212/84 555/213/84 553/214/84 551/215/84 549/216/84 547/217/84 545/218/84 543/219/84 541/220/84 539/221/84 537/173/84 535/172/84 533/174/84 531/175/84 529/176/84 527/177/84 525/178/84 523/179/84 521/180/84 519/181/84 517/182/84 515/203/84 513/222/84 511/223/84
f 513/222/114 515/203/114 516/70/114 514/69/114
f 511/223/112 513/222/112 514/69/112 512/68/112
f 450/102/82 452/135/82 454/139/82 456/142/82 458/145/82 460/148/82 462/151/82 464/154/82 466/157/82 468/160/82 470/163/82 472/165/82 474/167/82 476/169/82 478/171/82 480/224/82 482/225/82 484/226/82 486/227/82 488/228/82 490/229/82 492/230/82 494/231/82 496/232/82 498/233/82 500/234/82 502/235/82 504/236/82 506/237/82 508/238/82 510/239/82 448/103/82
f 446/204/111 511/223/111 512/68/111 445/99/111
f 581/65/117 583/131/117 584/137/117 582/66/117
f 447/100/84 509/240/84 507/241/84 505/242/84 503/243/84 501/244/84 499/245/84 497/246/84 495/247/84 493/248/84 491/249/84 489/250/84 487/251/84 485/252/84 483/253/84 481/254/84 479/255/84 477/170/84 475/168/84 473/166/84 471/164/84 469/162/84 467/159/84 465/156/84 463/153/84 461/150/84 459/147/84 457/144/84 455/141/84 453/138/84 451/134/84 449/101/84
f 577/132/114 579/64/114 580/67/114 578/184/114
f 575/133/112 577/132/112 578/184/112 576/183/112
f 574/104/111 575/133/111 576/183/111 573/202/111
