# Blender 5.1.2
# www.blender.org
o Bathroom_Door
v 1.687512 0.081390 0.173020
v 1.687512 7.502043 0.173020
v -2.392068 0.081390 0.173021
v -2.392068 7.502043 0.173021
v -2.799772 8.025073 0.080872
v -2.799772 -0.081390 0.080872
v 2.057869 -0.081390 0.080872
v 2.057869 8.025073 0.080872
v 1.312119 8.025073 0.080872
v 1.061211 7.502043 0.173020
v -0.116763 8.025073 0.080872
v -0.138803 7.502043 0.173020
v -0.852920 8.025073 0.080872
v -0.757049 7.502043 0.173021
v -2.224822 8.025073 0.080872
v -1.909209 7.502043 0.173021
v -2.799772 0.602446 0.080872
v 2.057869 0.602446 0.080872
v -2.392068 0.707373 0.173021
v 1.687512 0.707373 0.173020
v -2.799772 3.113813 0.080872
v 2.057869 3.113813 0.080872
v -2.392068 3.006278 0.173021
v 1.687512 3.006278 0.173020
v -2.799772 3.599411 0.080872
v 2.057869 3.599411 0.080872
v -2.392068 3.450794 0.173021
v 1.687512 3.450794 0.173020
v -2.799772 6.142545 0.080872
v 2.057869 6.142545 0.080872
v -2.392068 5.778778 0.173021
v 1.687512 5.778778 0.173020
v 1.735069 8.025073 0.080872
v 1.416416 7.502043 0.173020
v 1.416416 -0.073414 0.108988
v 1.416416 0.517123 0.078655
v 1.416416 2.816027 0.078655
v 1.416416 3.260544 0.078655
v 1.416416 5.588528 0.078655
v -2.150639 -0.073414 0.108989
v -2.512297 8.025073 0.080872
v -2.150639 7.502043 0.173021
v -2.150639 0.517123 0.078655
v -2.150639 2.816027 0.078655
v -2.150639 3.260544 0.078655
v -2.150639 5.588528 0.078655
v -2.799772 7.685086 0.080872
v 2.057869 7.685086 0.080872
v -2.392068 7.190819 0.173021
v 1.687512 7.190819 0.173020
v 1.061211 6.998830 0.078655
v -0.138803 6.998830 0.078655
v -0.757049 6.998830 0.078655
v -1.909209 6.998830 0.078655
v 1.416416 7.000568 0.078655
v -2.150639 7.000568 0.078655
v -2.799772 0.175048 0.080872
v 2.057869 0.175048 0.080872
v -2.392068 0.316134 0.173021
v 1.687512 0.316134 0.173020
v 1.416416 0.125884 0.078655
v -2.150639 0.125884 0.078655
v -2.448569 0.081390 -0.133917
v -2.448569 7.502043 -0.133917
v 1.631011 0.081390 -0.133933
v 1.631011 7.502043 -0.133933
v 2.038715 8.025073 -0.041786
v 2.038715 -0.081390 -0.041786
v -2.818926 -0.081390 -0.041767
v -2.818926 8.025073 -0.041767
v -2.073176 8.025073 -0.041769
v -1.822268 7.502043 -0.133919
v -0.644294 8.025073 -0.041775
v -0.622254 7.502043 -0.133924
v 0.091863 8.025073 -0.041778
v -0.004009 7.502043 -0.133926
v 1.463765 8.025073 -0.041784
v 1.148152 7.502043 -0.133931
v 2.038715 0.602446 -0.041786
v -2.818926 0.602446 -0.041767
v 1.631011 0.707373 -0.133933
v -2.448569 0.707373 -0.133917
v 2.038715 3.113813 -0.041786
v -2.818926 3.113813 -0.041767
v 1.631011 3.006278 -0.133933
v -2.448569 3.006278 -0.133917
v 2.038715 3.599411 -0.041786
v -2.818926 3.599411 -0.041767
v 1.631011 3.450794 -0.133933
v -2.448569 3.450794 -0.133917
v 2.038715 6.142545 -0.041786
v -2.818926 6.142545 -0.041767
v 1.631011 5.778778 -0.133933
v -2.448569 5.778778 -0.133917
v -2.496126 8.025073 -0.041768
v -2.177474 7.502043 -0.133918
v -2.177474 -0.073413 -0.069886
v -2.177474 0.517123 -0.039552
v -2.177474 2.816027 -0.039552
v -2.177474 3.260544 -0.039552
v -2.177474 5.588528 -0.039552
v 1.389582 -0.073413 -0.069900
v 1.751240 8.025073 -0.041785
v 1.389581 7.502043 -0.133932
v 1.389582 0.517123 -0.039567
v 1.389582 2.816027 -0.039567
v 1.389582 3.260544 -0.039567
v 1.389582 5.588528 -0.039567
v 2.038715 7.685086 -0.041786
v -2.818926 7.685086 -0.041767
v 1.631011 7.190819 -0.133933
v -2.448569 7.190819 -0.133917
v -1.822268 6.998830 -0.039554
v -0.622253 6.998830 -0.039559
v -0.004008 6.998830 -0.039561
v 1.148152 6.998830 -0.039566
v -2.177474 7.000568 -0.039552
v 1.389582 7.000568 -0.039567
v 2.038715 0.175048 -0.041786
v -2.818926 0.175048 -0.041767
v 1.631011 0.316134 -0.133933
v -2.448569 0.316134 -0.133917
v -2.177474 0.125884 -0.039552
v 1.389582 0.125884 -0.039567
vn 0.9752 -0.0000 -0.2214
vn -0.0058 -1.0000 -0.0015
vn -0.0000 -1.0000 -0.0000
vn 0.0058 -1.0000 0.0015
vn -0.9752 -0.0000 0.2214
vn -0.9841 -0.0000 0.1778
vn 0.9880 -0.0000 -0.1543
vn -0.0124 -0.9999 0.0019
vn -0.0000 1.0000 -0.0000
vn -0.9880 -0.0000 0.1543
vn 0.0124 -0.9999 -0.0019
vn -0.1313 -0.1143 0.9847
vn -0.2205 -0.0000 0.9754
vn 0.0341 -0.4324 0.9010
vn -0.0000 0.1735 0.9848
vn 0.2414 -0.0000 0.9704
vn -0.0000 -0.1843 0.9829
vn -0.0007 -0.1846 0.9828
vn -0.3287 -0.0000 0.9444
vn 0.0005 -0.1846 0.9828
vn 0.3640 -0.0000 0.9314
vn -0.0339 -0.4267 0.9038
vn 0.1471 -0.1141 0.9825
vn 0.3528 0.0652 0.9334
vn -0.3183 0.0661 0.9457
vn 0.1313 -0.1143 -0.9847
vn 0.2205 -0.0000 -0.9754
vn -0.0341 -0.4324 -0.9010
vn -0.0000 0.1735 -0.9848
vn -0.2415 -0.0000 -0.9704
vn -0.0000 -0.1843 -0.9829
vn 0.0007 -0.1846 -0.9828
vn 0.3287 -0.0000 -0.9444
vn -0.0005 -0.1846 -0.9828
vn -0.3640 -0.0000 -0.9314
vn 0.0339 -0.4267 -0.9038
vn -0.1471 -0.1141 -0.9825
vn -0.3528 0.0652 -0.9334
vn 0.3183 0.0661 -0.9457
vn 0.9841 -0.0000 -0.1778
vt 0.222861 0.392856
vt 0.127709 0.392930
vt 0.125444 0.138906
vt 0.218893 0.134634
vt 0.128083 0.369224
vt 0.126080 0.154131
vt 0.128943 0.280047
vt 0.128035 0.237110
vt 0.377949 0.120349
vt 0.385282 0.392922
vt 0.409024 0.118062
vt 0.416093 0.392890
vt 0.573215 0.102667
vt 0.581248 0.394850
vt 0.600883 0.102442
vt 0.609090 0.393682
vt 0.617653 0.105847
vt 0.617653 0.395034
vt 0.631444 0.068371
vt 0.605692 0.068371
vt 0.609338 0.450101
vt 0.631444 0.450015
vt 0.578308 0.068371
vt 0.575977 0.449977
vt 0.350621 0.068371
vt 0.394788 0.444939
vt 0.308143 0.068371
vt 0.360886 0.444370
vt 0.128913 0.068371
vt 0.184874 0.443233
vt 0.068682 0.068371
vt 0.079624 0.441918
vt 0.055064 0.068371
vt 0.056059 0.441297
vt 0.055236 0.113793
vt 0.055528 0.417818
vt 0.055416 0.133506
vt 0.055064 0.387227
vt 0.055451 0.230278
vt 0.055340 0.282716
vt 0.114018 0.414049
vt 0.092720 0.413813
vt 0.092677 0.394359
vt 0.588216 0.088948
vt 0.617653 0.088948
vt 0.617653 0.416907
vt 0.091502 0.138305
vt 0.091048 0.088948
vt 0.092382 0.368913
vt 0.092771 0.280873
vt 0.092355 0.237103
vt 0.091633 0.155053
vt 0.597605 0.418196
vt 0.567920 0.418668
vt 0.393831 0.088948
vt 0.558354 0.088948
vt 0.362984 0.088948
vt 0.402769 0.415575
vt 0.204562 0.088948
vt 0.371657 0.415387
vt 0.111569 0.088948
vt 0.209761 0.415095
s 0
f 101/1/1 117/2/1 56/3/1 46/4/1
f 117/2/2 113/5/2 54/6/2 56/3/2
f 113/5/3 114/7/3 53/8/3 54/6/3
f 114/7/3 115/8/3 52/7/3 53/8/3
f 115/8/3 116/6/3 51/5/3 52/7/3
f 116/6/4 118/3/4 55/2/4 51/5/4
f 118/3/5 108/4/5 39/1/5 55/2/5
f 108/4/5 107/9/5 38/10/5 39/1/5
f 107/9/5 106/11/5 37/12/5 38/10/5
f 106/11/5 105/13/5 36/14/5 37/12/5
f 105/13/5 124/15/5 61/16/5 36/14/5
f 124/15/6 102/17/6 35/18/6 61/16/6
f 68/19/7 119/20/7 58/21/7 7/22/7
f 102/17/8 68/19/8 7/22/8 35/18/8
f 119/20/7 79/23/7 18/24/7 58/21/7
f 79/23/7 83/25/7 22/26/7 18/24/7
f 83/25/7 87/27/7 26/28/7 22/26/7
f 87/27/7 91/29/7 30/30/7 26/28/7
f 91/29/7 109/31/7 48/32/7 30/30/7
f 109/31/7 67/33/7 8/34/7 48/32/7
f 67/33/9 103/35/9 33/36/9 8/34/9
f 103/35/9 77/37/9 9/38/9 33/36/9
f 77/37/9 75/39/9 11/40/9 9/38/9
f 75/39/9 73/40/9 13/39/9 11/40/9
f 73/40/9 71/38/9 15/37/9 13/39/9
f 71/38/9 95/36/9 41/35/9 15/37/9
f 95/36/9 70/34/9 5/33/9 41/35/9
f 70/34/10 110/32/10 47/31/10 5/33/10
f 110/32/10 92/30/10 29/29/10 47/31/10
f 92/30/10 88/28/10 25/27/10 29/29/10
f 88/28/10 84/26/10 21/25/10 25/27/10
f 84/26/10 80/24/10 17/23/10 21/25/10
f 80/24/10 120/21/10 57/20/10 17/23/10
f 120/21/10 69/22/10 6/19/10 57/20/10
f 69/22/11 97/18/11 40/17/11 6/19/11
f 55/2/12 50/41/12 2/42/12 34/43/12
f 59/44/13 57/20/13 6/19/13 3/45/13
f 35/18/14 7/22/14 1/46/14
f 42/47/15 41/35/15 5/33/15 4/48/15
f 50/41/16 48/32/16 8/34/16 2/42/16
f 34/43/15 33/36/15 9/38/15 10/49/15
f 52/7/17 51/5/17 10/49/17 12/50/17
f 53/8/17 52/7/17 12/50/17 14/51/17
f 10/49/15 9/38/15 11/40/15 12/50/15
f 54/6/17 53/8/17 14/51/17 16/52/17
f 12/50/15 11/40/15 13/39/15 14/51/15
f 56/3/18 54/6/18 16/52/18 42/47/18
f 14/51/15 13/39/15 15/37/15 16/52/15
f 60/53/16 58/21/16 18/24/16 20/54/16
f 23/55/13 21/25/13 17/23/13 19/56/13
f 61/16/19 60/53/19 20/54/19 36/14/19
f 27/57/13 25/27/13 21/25/13 23/55/13
f 20/54/16 18/24/16 22/26/16 24/58/16
f 36/14/19 20/54/19 24/58/19 37/12/19
f 31/59/13 29/29/13 25/27/13 27/57/13
f 24/58/16 22/26/16 26/28/16 28/60/16
f 37/12/19 24/58/19 28/60/19 38/10/19
f 49/61/13 47/31/13 29/29/13 31/59/13
f 28/60/16 26/28/16 30/30/16 32/62/16
f 38/10/19 28/60/19 32/62/19 39/1/19
f 2/42/15 8/34/15 33/36/15 34/43/15
f 51/5/20 55/2/20 34/43/20 10/49/20
f 27/57/21 45/9/21 46/4/21 31/59/21
f 23/55/21 44/11/21 45/9/21 27/57/21
f 19/56/21 43/13/21 44/11/21 23/55/21
f 59/44/21 62/15/21 43/13/21 19/56/21
f 3/45/22 6/19/22 40/17/22
f 49/61/23 56/3/23 42/47/23 4/48/23
f 16/52/15 15/37/15 41/35/15 42/47/15
f 31/59/21 46/4/21 56/3/21 49/61/21
f 4/48/13 5/33/13 47/31/13 49/61/13
f 32/62/16 30/30/16 48/32/16 50/41/16
f 39/1/19 32/62/19 50/41/19 55/2/19
f 3/45/24 40/17/24 62/15/24 59/44/24
f 35/18/25 1/46/25 60/53/25 61/16/25
f 1/46/16 7/22/16 58/21/16 60/53/16
f 19/56/13 17/23/13 57/20/13 59/44/13
f 117/2/26 112/41/26 64/42/26 96/43/26
f 121/44/27 119/20/27 68/19/27 65/45/27
f 97/18/28 69/22/28 63/46/28
f 104/47/29 103/35/29 67/33/29 66/48/29
f 112/41/30 110/32/30 70/34/30 64/42/30
f 96/43/29 95/36/29 71/38/29 72/49/29
f 114/7/31 113/5/31 72/49/31 74/50/31
f 115/8/31 114/7/31 74/50/31 76/51/31
f 72/49/29 71/38/29 73/40/29 74/50/29
f 116/6/31 115/8/31 76/51/31 78/52/31
f 74/50/29 73/40/29 75/39/29 76/51/29
f 118/3/32 116/6/32 78/52/32 104/47/32
f 76/51/29 75/39/29 77/37/29 78/52/29
f 122/53/30 120/21/30 80/24/30 82/54/30
f 85/55/27 83/25/27 79/23/27 81/56/27
f 123/16/33 122/53/33 82/54/33 98/14/33
f 89/57/27 87/27/27 83/25/27 85/55/27
f 82/54/30 80/24/30 84/26/30 86/58/30
f 98/14/33 82/54/33 86/58/33 99/12/33
f 93/59/27 91/29/27 87/27/27 89/57/27
f 86/58/30 84/26/30 88/28/30 90/60/30
f 99/12/33 86/58/33 90/60/33 100/10/33
f 111/61/27 109/31/27 91/29/27 93/59/27
f 90/60/30 88/28/30 92/30/30 94/62/30
f 100/10/33 90/60/33 94/62/33 101/1/33
f 64/42/29 70/34/29 95/36/29 96/43/29
f 113/5/34 117/2/34 96/43/34 72/49/34
f 89/57/35 107/9/35 108/4/35 93/59/35
f 85/55/35 106/11/35 107/9/35 89/57/35
f 81/56/35 105/13/35 106/11/35 85/55/35
f 121/44/35 124/15/35 105/13/35 81/56/35
f 65/45/36 68/19/36 102/17/36
f 111/61/37 118/3/37 104/47/37 66/48/37
f 78/52/29 77/37/29 103/35/29 104/47/29
f 93/59/35 108/4/35 118/3/35 111/61/35
f 66/48/27 67/33/27 109/31/27 111/61/27
f 94/62/30 92/30/30 110/32/30 112/41/30
f 101/1/33 94/62/33 112/41/33 117/2/33
f 65/45/38 102/17/38 124/15/38 121/44/38
f 97/18/39 63/46/39 122/53/39 123/16/39
f 63/46/30 69/22/30 120/21/30 122/53/30
f 81/56/27 79/23/27 119/20/27 121/44/27
f 101/1/1 46/4/1 45/9/1 100/10/1
f 45/9/1 44/11/1 99/12/1 100/10/1
f 44/11/1 43/13/1 98/14/1 99/12/1
f 43/13/1 62/15/1 123/16/1 98/14/1
f 97/18/40 123/16/40 62/15/40 40/17/40
