# Blender 5.1.2
# www.blender.org
o Fridge.002
v 0.173519 0.100754 -0.050377
v 0.173519 0.100754 -2.949623
v 0.173519 3.704802 -2.949623
v 0.173519 3.704802 -0.050377
v 0.000000 3.582106 -2.776550
v 0.000000 0.223450 -2.776550
v 0.000000 0.223450 -0.223450
v 0.000000 3.582106 -0.223450
v 0.457595 2.005990 -2.630637
v 0.457595 3.473622 -2.630637
v 0.323830 2.005990 -2.630637
v 0.323830 3.473622 -2.630637
v 0.457595 2.005990 -2.831861
v 0.457595 3.473622 -2.831861
v 0.323830 2.005990 -2.831861
v 0.323830 3.473622 -2.831861
v 0.332622 3.632033 -2.630637
v 0.198857 3.632033 -2.630637
v 0.198857 3.632033 -2.831861
v 0.332622 3.632033 -2.831861
v 0.198857 1.861115 -2.630637
v 0.332622 1.861115 -2.630637
v 0.198857 1.861115 -2.831861
v 0.332622 1.861115 -2.831861
v 0.261343 3.552828 -2.831861
v 0.395109 3.552828 -2.831861
v 0.395109 3.552828 -2.630637
v 0.261343 3.552828 -2.630637
v 0.261343 1.933553 -2.831861
v 0.261343 1.933553 -2.630637
v 0.395109 1.933553 -2.630637
v 0.395109 1.933553 -2.831861
v 0.118653 3.632917 -2.630637
v 0.118653 3.632917 -2.831861
v 0.123997 3.553711 -2.831861
v 0.129968 1.861999 -2.831861
v 0.129968 1.861999 -2.630637
v 0.135313 1.934436 -2.831861
v 0.123997 3.553711 -2.630637
v 0.135313 1.934436 -2.630637
v 0.000000 3.805556 -3.000000
v 0.000000 0.000000 -3.000000
v 0.000000 0.000000 0.000000
v 0.000000 3.805556 0.000000
v -0.502028 2.183952 -0.131799
v -0.420063 2.723515 -0.213763
v -0.502028 2.183952 -2.866365
v -0.420063 2.723515 -2.784400
v 0.139569 2.183952 -0.131799
v 0.136745 2.723515 -0.213763
v 0.139569 2.183952 -2.866365
v 0.136745 2.723515 -2.784400
v -0.502028 2.723515 -0.131799
v -0.502028 2.723515 -2.866365
v 0.139569 2.723515 -2.866365
v 0.139569 2.723515 -0.131799
v -0.420063 2.274304 -0.213763
v -0.420063 2.274304 -2.784400
v 0.136745 2.274304 -2.784400
v 0.136745 2.274304 -0.213763
v 0.117435 3.582106 -2.776550
v 0.117435 0.223450 -2.776550
v 0.117435 0.223450 -0.223450
v 0.117435 3.582106 -0.223450
v -0.502028 0.774075 -0.131799
v -0.420063 1.313638 -0.213763
v -0.502028 0.774075 -2.866365
v -0.420063 1.313638 -2.784400
v 0.139569 0.774075 -0.131799
v 0.136745 1.313638 -0.213763
v 0.139569 0.774075 -2.866365
v 0.136745 1.313638 -2.784400
v -0.502028 1.313638 -0.131799
v -0.502028 1.313638 -2.866365
v 0.139569 1.313638 -2.866365
v 0.139569 1.313638 -0.131799
v -0.420063 0.864427 -0.213763
v -0.420063 0.864427 -2.784400
v 0.136745 0.864427 -2.784400
v 0.136745 0.864427 -0.213763
vn 1.0000 -0.0000 -0.0000
vn 0.2788 -0.0000 -0.9603
vn 0.5021 -0.8648 -0.0000
vn 0.2788 -0.0000 0.9603
vn 0.5021 0.8648 -0.0000
vn -0.0000 -0.0000 1.0000
vn -1.0000 -0.0000 -0.0000
vn -0.0000 -0.0000 -1.0000
vn 0.0070 1.0000 -0.0000
vn -0.0000 1.0000 -0.0000
vn 0.7851 0.6194 -0.0000
vn -0.0000 -1.0000 -0.0000
vn 0.7572 -0.6532 -0.0000
vn -0.7851 -0.6194 -0.0000
vn -0.7572 0.6532 -0.0000
vn -0.9973 0.0736 -0.0000
vn -0.9977 -0.0673 -0.0000
vn -0.0064 -1.0000 -0.0000
vn -0.0128 -0.9999 -0.0000
vn 0.0110 0.9999 -0.0000
vt 0.563049 0.492383
vt 0.563049 0.642526
vt 0.321487 0.642526
vt 0.321487 0.492383
vt 0.497940 0.647177
vt 0.497940 0.497034
vt 0.502138 0.492837
vt 0.502138 0.651374
vt 0.256378 0.497034
vt 0.252181 0.492837
vt 0.256378 0.647177
vt 0.252181 0.651374
vt 0.803334 0.601047
vt 0.898529 0.601047
vt 0.898529 0.696242
vt 0.803334 0.696242
vt 0.898529 0.791437
vt 0.803334 0.791437
vt 0.898529 0.886632
vt 0.803334 0.886632
vt 0.898529 0.981827
vt 0.803334 0.981827
vt 0.803334 0.791437
vt 0.898529 0.886632
vt 0.993724 0.791437
vt 0.993724 0.886632
vt 0.708139 0.791437
vt 0.708139 0.886632
vt 0.088137 0.118046
vt 0.088393 0.194554
vt 0.085216 0.192243
vt 0.085795 0.121494
vt 0.092947 0.113210
vt 0.092947 0.199262
vt 0.026753 0.198202
vt 0.021943 0.203038
vt 0.026497 0.121693
vt 0.021943 0.116985
vt 0.030497 0.187363
vt 0.026463 0.187341
vt 0.024572 0.169347
vt 0.028714 0.170235
vt 0.021481 0.164142
vt 0.035447 0.158923
vt 0.035447 0.194780
vt 0.023771 0.195462
vt 0.020866 0.164565
vt 0.023827 0.169587
vt 0.021212 0.170846
vt 0.017119 0.167422
vt 0.025888 0.187261
vt 0.022803 0.195022
vt 0.021920 0.186220
vt 0.016529 0.190221
vt 0.029095 0.194753
vt 0.029674 0.124004
vt 0.085012 0.192568
vt 0.077293 0.192526
vt 0.073674 0.158093
vt 0.081601 0.159793
vt 0.067760 0.148135
vt 0.094483 0.138147
vt 0.094483 0.206761
vt 0.072143 0.208065
vt 0.066584 0.148944
vt 0.072250 0.158553
vt 0.067245 0.160963
vt 0.059415 0.154411
vt 0.076193 0.192371
vt 0.070291 0.207222
vt 0.068601 0.190380
vt 0.058285 0.198035
s 0
f 2/1/1 3/2/1 4/3/1 1/4/1
f 3/5/2 2/6/2 42/7/2 41/8/2
f 2/6/3 1/9/3 43/10/3 42/7/3
f 1/9/4 4/11/4 44/12/4 43/10/4
f 4/11/5 3/5/5 41/8/5 44/12/5
f 9/13/6 10/14/6 12/15/6 11/16/6
f 11/16/7 12/15/7 16/17/7 15/18/7
f 15/18/8 16/17/8 14/19/8 13/20/8
f 13/20/1 14/19/1 10/21/1 9/22/1
f 30/16/9 29/23/9 38/23/9 40/16/9
f 26/24/8 25/17/8 19/17/8 20/19/8
f 19/17/10 18/25/10 17/26/10 20/19/10
f 28/15/6 27/14/6 17/14/6 18/15/6
f 27/21/11 26/24/11 20/19/11 17/21/11
f 19/17/8 25/17/8 35/17/8 34/17/8
f 21/27/12 23/18/12 24/20/12 22/28/12
f 31/13/6 30/16/6 21/16/6 22/13/6
f 29/23/8 32/20/8 24/20/8 23/18/8
f 32/20/13 31/22/13 22/22/13 24/20/13
f 16/17/14 12/15/14 28/15/14 25/17/14
f 10/21/11 14/19/11 26/24/11 27/21/11
f 12/15/6 10/14/6 27/14/6 28/15/6
f 14/19/8 16/17/8 25/17/8 26/24/8
f 13/20/13 9/22/13 31/22/13 32/20/13
f 15/18/8 13/20/8 32/20/8 29/23/8
f 9/13/6 11/16/6 30/16/6 31/13/6
f 11/16/15 15/18/15 29/23/15 30/16/15
f 40/16/16 38/23/16 36/18/16 37/16/16
f 35/17/17 39/15/17 33/15/17 34/17/17
f 25/17/18 28/15/18 39/15/18 35/17/18
f 23/18/19 21/27/19 37/27/19 36/18/19
f 21/16/6 30/16/6 40/16/6 37/16/6
f 18/25/20 19/17/20 34/17/20 33/25/20
f 29/23/8 23/18/8 36/18/8 38/23/8
f 28/15/6 18/15/6 33/15/6 39/15/6
f 5/29/6 6/30/6 62/31/6 61/32/6
f 6/30/7 5/29/7 41/33/7 42/34/7
f 7/35/7 6/30/7 42/34/7 43/36/7
f 8/37/7 7/35/7 43/36/7 44/38/7
f 5/29/7 8/37/7 44/38/7 41/33/7
f 45/39/7 53/40/7 54/41/7 47/42/7
f 47/42/8 54/41/8 55/43/8 51/44/8
f 49/45/6 56/46/6 53/40/6 45/39/6
f 47/42/12 51/44/12 49/45/12 45/39/12
f 52/47/6 48/48/6 58/49/6 59/50/6
f 46/51/10 48/48/10 54/41/10 53/40/10
f 48/48/10 52/47/10 55/43/10 54/41/10
f 50/52/10 46/51/10 53/40/10 56/46/10
f 59/50/10 58/49/10 57/53/10 60/54/10
f 48/48/1 46/51/1 57/53/1 58/49/1
f 46/51/8 50/52/8 60/54/8 57/53/8
f 61/32/7 62/31/7 63/55/7 64/56/7
f 8/37/12 5/29/12 61/32/12 64/56/12
f 6/30/10 7/35/10 63/55/10 62/31/10
f 7/35/8 8/37/8 64/56/8 63/55/8
f 65/57/7 73/58/7 74/59/7 67/60/7
f 67/60/8 74/59/8 75/61/8 71/62/8
f 69/63/6 76/64/6 73/58/6 65/57/6
f 67/60/12 71/62/12 69/63/12 65/57/12
f 72/65/6 68/66/6 78/67/6 79/68/6
f 66/69/10 68/66/10 74/59/10 73/58/10
f 68/66/10 72/65/10 75/61/10 74/59/10
f 70/70/10 66/69/10 73/58/10 76/64/10
f 79/68/10 78/67/10 77/71/10 80/72/10
f 68/66/1 66/69/1 77/71/1 78/67/1
f 66/69/8 70/70/8 80/72/8 77/71/8
