# Blender 5.1.2
# www.blender.org
o Fridge.003
v 0.140669 2.089632 -0.052406
v 0.140669 2.089632 -2.947594
v 0.140669 0.104812 -2.947594
v 0.140669 0.104812 -0.052406
v -0.000000 1.987464 -2.793019
v -0.000000 1.987464 -0.206981
v -0.000000 0.206980 -2.793019
v -0.000000 0.206980 -0.206981
v 0.457595 0.524433 -2.630637
v 0.457595 1.697295 -2.630637
v 0.323830 0.524433 -2.630637
v 0.323830 1.697295 -2.630637
v 0.457595 0.524433 -2.831861
v 0.457595 1.697295 -2.831861
v 0.323830 0.524433 -2.831861
v 0.323830 1.697295 -2.831861
v 0.332622 1.823890 -2.630637
v 0.198856 1.823890 -2.630637
v 0.198856 1.823890 -2.831861
v 0.332622 1.823890 -2.831861
v 0.198856 0.408656 -2.630637
v 0.332622 0.408656 -2.630637
v 0.198856 0.408656 -2.831861
v 0.332622 0.408656 -2.831861
v 0.261343 1.760593 -2.831861
v 0.395109 1.760593 -2.831861
v 0.395109 1.760593 -2.630637
v 0.261343 1.760593 -2.630637
v 0.261343 0.466544 -2.831861
v 0.261343 0.466544 -2.630637
v 0.395109 0.466544 -2.630637
v 0.395109 0.466544 -2.831861
v 0.109573 1.824596 -2.630637
v 0.109573 1.824596 -2.831861
v 0.114918 1.761299 -2.831861
v 0.109573 0.409362 -2.831861
v 0.109573 0.409362 -2.630637
v 0.114918 0.467251 -2.831861
v 0.114918 1.761299 -2.630637
v 0.114918 0.467251 -2.630637
v -0.450357 1.189012 -0.122934
v -0.372103 1.534395 -0.201187
v -0.450357 1.189012 -2.871778
v -0.372103 1.534395 -2.793524
v 0.060423 1.189012 -0.122934
v 0.063765 1.534395 -0.201187
v 0.060423 1.189012 -2.871778
v 0.063765 1.534395 -2.793524
v -0.450357 1.534395 -0.122934
v -0.450357 1.534395 -2.871778
v 0.060423 1.534395 -2.871778
v 0.060423 1.534395 -0.122934
v -0.372103 1.221658 -0.201187
v -0.372103 1.221658 -2.793524
v 0.063765 1.221658 -2.793524
v 0.063765 1.221658 -0.201187
v -0.450357 0.334855 -0.122934
v -0.372103 0.680238 -0.201187
v -0.450357 0.334855 -2.871778
v -0.372103 0.680238 -2.793524
v 0.060423 0.334855 -0.122934
v 0.063765 0.680238 -0.201187
v 0.060423 0.334855 -2.871778
v 0.063765 0.680238 -2.793524
v -0.450357 0.680238 -0.122934
v -0.450357 0.680238 -2.871778
v 0.060423 0.680238 -2.871778
v 0.060423 0.680238 -0.122934
v -0.372103 0.367500 -0.201187
v -0.372103 0.367500 -2.793524
v 0.063765 0.367500 -2.793524
v 0.063765 0.367500 -0.201187
v -0.000000 2.194444 -3.000000
v -0.000000 2.194444 0.000000
v -0.000000 0.000000 -3.000000
v -0.000000 0.000000 0.000000
v 0.063378 1.997390 -2.784179
v 0.063378 1.997390 -0.198140
v 0.063378 0.216906 -2.784179
v 0.063378 0.216906 -0.198140
vn 1.0000 -0.0000 -0.0000
vn 0.5975 0.8019 -0.0000
vn 0.3491 -0.0000 -0.9371
vn 0.3491 -0.0000 0.9371
vn 0.5975 -0.8019 -0.0000
vn -0.0000 -0.0000 1.0000
vn -1.0000 -0.0000 -0.0000
vn -0.0000 -0.0000 -1.0000
vn 0.0048 1.0000 -0.0000
vn -0.0000 1.0000 -0.0000
vn 0.7116 0.7025 -0.0000
vn -0.0000 -1.0000 -0.0000
vn 0.6796 -0.7336 -0.0000
vn -0.7117 -0.7025 -0.0000
vn 0.7117 0.7025 -0.0000
vn -0.6796 0.7336 -0.0000
vn -0.9958 0.0919 -0.0000
vn -0.9965 -0.0841 -0.0000
vn -0.0048 -1.0000 -0.0000
vn -0.0079 -1.0000 -0.0000
vn 0.0079 1.0000 -0.0000
vn 0.1381 -0.0000 -0.9904
vn 0.1547 -0.9880 -0.0000
vn -0.1547 0.9880 -0.0000
vn -0.1381 -0.0000 0.9904
vt 0.497771 0.655740
vt 0.497771 0.738427
vt 0.256547 0.738427
vt 0.256547 0.655740
vt 0.502138 0.742793
vt 0.252181 0.742793
vt 0.502138 0.651374
vt 0.252181 0.651374
vt 0.887909 0.020077
vt 0.931770 0.020077
vt 0.931770 0.063939
vt 0.887909 0.063939
vt 0.931770 0.107800
vt 0.887909 0.107800
vt 0.931770 0.151662
vt 0.887909 0.151662
vt 0.931770 0.195523
vt 0.887909 0.195523
vt 0.887909 0.063939
vt 0.931770 0.151662
vt 0.975632 0.107800
vt 0.975632 0.151662
vt 0.844047 0.107800
vt 0.844047 0.151662
vt 0.887909 0.151662
vt 0.023898 0.030637
vt 0.069519 0.028931
vt 0.067551 0.031065
vt 0.025733 0.031860
vt 0.063982 0.033536
vt 0.069750 0.033536
vt 0.069750 0.039305
vt 0.063982 0.039305
vt 0.069750 0.045073
vt 0.063982 0.045073
vt 0.063982 0.050841
vt 0.069750 0.050841
vt 0.069750 0.056609
vt 0.063982 0.056609
vt 0.058214 0.045073
vt 0.058214 0.050841
vt 0.074211 0.050677
vt 0.071057 0.050677
vt 0.074211 0.045237
vt 0.075518 0.045073
vt 0.075518 0.050841
vt 0.071057 0.045237
vt 0.064433 0.039427
vt 0.066575 0.039427
vt 0.066575 0.041569
vt 0.064433 0.041569
vt 0.066575 0.043711
vt 0.064433 0.043711
vt 0.064433 0.045853
vt 0.066575 0.045853
vt 0.066575 0.047995
vt 0.064433 0.047995
vt 0.062291 0.043711
vt 0.062291 0.045853
vt 0.068231 0.045792
vt 0.067060 0.045792
vt 0.068231 0.043772
vt 0.068717 0.043711
vt 0.068717 0.045853
vt 0.067060 0.043772
vt 0.069289 0.090096
vt 0.074520 0.023597
vt 0.073564 0.094689
vt 0.024377 0.091966
vt 0.019776 0.096514
vt 0.019776 0.026729
vt 0.068049 0.088249
vt 0.025572 0.090692
s 0
f 3/1/1 2/2/1 1/3/1 4/4/1
f 1/3/2 2/2/2 73/5/2 74/6/2
f 2/2/3 3/1/3 75/7/3 73/5/3
f 4/4/4 1/3/4 74/6/4 76/8/4
f 3/1/5 4/4/5 76/8/5 75/7/5
f 9/9/6 10/10/6 12/11/6 11/12/6
f 11/12/7 12/11/7 16/13/7 15/14/7
f 15/14/8 16/13/8 14/15/8 13/16/8
f 13/16/1 14/15/1 10/17/1 9/18/1
f 30/19/9 29/14/9 38/14/9 40/19/9
f 26/20/8 25/13/8 19/13/8 20/15/8
f 19/13/10 18/21/10 17/22/10 20/15/10
f 28/11/6 27/10/6 17/10/6 18/11/6
f 27/17/11 26/20/11 20/15/11 17/17/11
f 19/13/8 25/13/8 35/13/8 34/13/8
f 21/23/12 23/14/12 24/16/12 22/24/12
f 31/9/6 30/19/6 21/12/6 22/9/6
f 29/14/8 32/25/8 24/16/8 23/14/8
f 32/25/13 31/18/13 22/18/13 24/16/13
f 16/13/14 12/11/14 28/11/14 25/13/14
f 10/17/15 14/15/15 26/20/15 27/17/15
f 12/11/6 10/10/6 27/10/6 28/11/6
f 14/15/8 16/13/8 25/13/8 26/20/8
f 13/16/13 9/18/13 31/18/13 32/25/13
f 15/14/8 13/16/8 32/25/8 29/14/8
f 9/9/6 11/12/6 30/19/6 31/9/6
f 11/12/16 15/14/16 29/14/16 30/19/16
f 40/19/17 38/14/17 36/14/17 37/12/17
f 35/13/18 39/11/18 33/11/18 34/13/18
f 25/13/19 28/11/19 39/11/19 35/13/19
f 23/14/20 21/23/20 37/23/20 36/14/20
f 21/12/6 30/19/6 40/19/6 37/12/6
f 18/21/21 19/13/21 34/13/21 33/21/21
f 29/14/8 23/14/8 36/14/8 38/14/8
f 28/11/6 18/11/6 33/11/6 39/11/6
f 8/26/22 6/27/22 78/28/22 80/29/22
f 41/30/7 49/31/7 50/32/7 43/33/7
f 43/33/8 50/32/8 51/34/8 47/35/8
f 45/36/6 52/37/6 49/38/6 41/39/6
f 43/40/12 47/35/12 45/36/12 41/41/12
f 42/42/8 46/43/8 56/43/8 53/42/8
f 42/42/10 44/44/10 50/45/10 49/46/10
f 44/44/10 48/47/10 51/34/10 50/45/10
f 46/43/10 42/42/10 49/46/10 52/37/10
f 55/47/10 54/44/10 53/42/10 56/43/10
f 48/47/6 44/44/6 54/44/6 55/47/6
f 44/44/1 42/42/1 53/42/1 54/44/1
f 57/48/7 65/49/7 66/50/7 59/51/7
f 59/51/8 66/50/8 67/52/8 63/53/8
f 61/54/6 68/55/6 65/56/6 57/57/6
f 59/58/12 63/53/12 61/54/12 57/59/12
f 58/60/8 62/61/8 72/61/8 69/60/8
f 58/60/10 60/62/10 66/63/10 65/64/10
f 60/62/10 64/65/10 67/52/10 66/63/10
f 62/61/10 58/60/10 65/64/10 68/55/10
f 71/65/10 70/62/10 69/60/10 72/61/10
f 64/65/6 60/62/6 70/62/6 71/65/6
f 60/62/1 58/60/1 69/60/1 70/62/1
f 5/66/7 6/27/7 74/67/7 73/68/7
f 7/69/7 5/66/7 73/68/7 75/70/7
f 6/27/7 8/26/7 76/71/7 74/67/7
f 8/26/7 7/69/7 75/70/7 76/71/7
f 78/28/7 77/72/7 79/73/7 80/29/7
f 6/27/23 5/66/23 77/72/23 78/28/23
f 7/69/24 8/26/24 80/29/24 79/73/24
f 5/66/25 7/69/25 79/73/25 77/72/25
