# Blender 5.0.0
# www.blender.org
mtllib Fridge.mtl
o Fridge
v -1.414219 0.000000 1.500000
v -1.414219 6.000000 1.500000
v -1.414219 0.000000 -1.500000
v -1.414219 6.000000 -1.500000
v 1.587738 0.100754 1.449623
v 1.554888 5.895187 1.447594
v 1.587738 0.100754 -1.449623
v 1.554888 5.895187 -1.447594
v -1.414219 3.805556 1.500000
v -1.414219 3.805556 -1.500000
v 1.554888 3.910368 -1.447594
v 1.554888 3.910368 1.447594
v 1.414219 6.000000 -1.500000
v 1.414219 6.000000 1.500000
v 1.587738 3.704802 -1.449623
v 1.587738 3.704802 1.449623
v 1.414219 3.805556 -1.500000
v 1.414219 0.000000 -1.500000
v 1.414219 0.000000 1.500000
v 1.414219 3.805556 1.500000
v 1.871814 2.005990 -1.130637
v 1.871814 3.473622 -1.130637
v 1.738049 2.005990 -1.130637
v 1.738049 3.473622 -1.130637
v 1.871814 2.005990 -1.331861
v 1.871814 3.473622 -1.331861
v 1.738049 2.005990 -1.331861
v 1.738049 3.473622 -1.331861
v 1.746841 3.632033 -1.130637
v 1.613075 3.632033 -1.130637
v 1.613075 3.632033 -1.331861
v 1.746841 3.632033 -1.331861
v 1.613075 1.861115 -1.130637
v 1.746841 1.861115 -1.130637
v 1.613075 1.861115 -1.331861
v 1.746841 1.861115 -1.331861
v 1.675562 3.552828 -1.331861
v 1.809328 3.552828 -1.331861
v 1.809328 3.552828 -1.130637
v 1.675562 3.552828 -1.130637
v 1.675562 1.933553 -1.331861
v 1.675562 1.933553 -1.130637
v 1.809328 1.933553 -1.130637
v 1.809328 1.933553 -1.331861
v 1.523792 3.632917 -1.130637
v 1.523792 3.632917 -1.331861
v 1.529137 3.553711 -1.331861
v 1.523792 1.861999 -1.331861
v 1.523792 1.861999 -1.130637
v 1.529137 1.934436 -1.331861
v 1.529137 3.553711 -1.130637
v 1.529137 1.934436 -1.130637
v 1.871814 4.329988 -1.130637
v 1.871814 5.502851 -1.130637
v 1.738049 4.329988 -1.130637
v 1.738049 5.502851 -1.130637
v 1.871814 4.329988 -1.331861
v 1.871814 5.502851 -1.331861
v 1.738049 4.329988 -1.331861
v 1.738049 5.502851 -1.331861
v 1.746841 5.629446 -1.130637
v 1.613075 5.629446 -1.130637
v 1.613075 5.629446 -1.331861
v 1.746841 5.629446 -1.331861
v 1.613075 4.214211 -1.130637
v 1.746841 4.214211 -1.130637
v 1.613075 4.214211 -1.331861
v 1.746841 4.214211 -1.331861
v 1.675562 5.566148 -1.331861
v 1.809328 5.566148 -1.331861
v 1.809328 5.566148 -1.130637
v 1.675562 5.566148 -1.130637
v 1.675562 4.272100 -1.331861
v 1.675562 4.272100 -1.130637
v 1.809328 4.272100 -1.130637
v 1.809328 4.272100 -1.331861
v 1.523792 5.630152 -1.130637
v 1.523792 5.630152 -1.331861
v 1.529137 5.566854 -1.331861
v 1.523792 4.214917 -1.331861
v 1.523792 4.214917 -1.130637
v 1.529137 4.272806 -1.331861
v 1.529137 5.566854 -1.130637
v 1.529137 4.272806 -1.130637
vn -1.0000 -0.0000 -0.0000
vn -0.0000 -0.0000 -1.0000
vn 1.0000 -0.0000 -0.0000
vn -0.0000 -0.0000 1.0000
vn -0.0000 -1.0000 -0.0000
vn -0.0000 1.0000 -0.0000
vn 0.5975 0.8019 -0.0000
vn 0.3491 -0.0000 -0.9371
vn 0.3491 -0.0000 0.9371
vn 0.5975 -0.8019 -0.0000
vn 0.2788 -0.0000 -0.9603
vn 0.5021 -0.8648 -0.0000
vn 0.2788 -0.0000 0.9603
vn 0.5021 0.8648 -0.0000
vn 0.0060 1.0000 -0.0000
vn 0.7851 0.6194 -0.0000
vn 0.7572 -0.6532 -0.0000
vn -0.7851 -0.6194 -0.0000
vn -0.7572 0.6532 -0.0000
vn -0.9973 0.0736 -0.0000
vn -0.9977 -0.0673 -0.0000
vn -0.0060 -1.0000 -0.0000
vn -0.0099 -1.0000 -0.0000
vn 0.0099 1.0000 -0.0000
vn 0.0048 1.0000 -0.0000
vn 0.7116 0.7025 -0.0000
vn 0.6796 -0.7336 -0.0000
vn -0.7117 -0.7025 -0.0000
vn 0.7117 0.7025 -0.0000
vn -0.6796 0.7336 -0.0000
vn -0.9958 0.0919 -0.0000
vn -0.9965 -0.0841 -0.0000
vn -0.0048 -1.0000 -0.0000
vn -0.0079 -1.0000 -0.0000
vn 0.0079 1.0000 -0.0000
vt 1.002051 0.651374
vt 1.002051 0.742793
vt 0.752094 0.742793
vt 0.752094 0.651374
vt 0.812552 0.718032
vt 0.812552 0.809452
vt 0.562595 0.809452
vt 0.562595 0.718032
vt 0.497771 0.655740
vt 0.497771 0.738427
vt 0.256547 0.738427
vt 0.256547 0.655740
vt 0.340542 0.294829
vt 0.340542 0.386248
vt 0.090586 0.386248
vt 0.090586 0.294829
vt 0.502138 0.242880
vt 0.502138 0.492837
vt 0.252181 0.492837
vt 0.252181 0.242880
vt 0.254106 0.254857
vt 0.004150 0.254856
vt 0.004150 0.004900
vt 0.254106 0.004900
vt 0.252181 0.651374
vt 0.002224 0.651374
vt 0.002224 0.492836
vt 0.563049 0.492383
vt 0.563049 0.642526
vt 0.321487 0.642526
vt 0.321487 0.492383
vt 0.752094 0.492837
vt 0.502138 0.651374
vt 0.936943 0.452531
vt 0.936943 0.611069
vt 0.686986 0.611069
vt 0.686986 0.452531
vt 0.502138 0.742793
vt 0.252181 0.742793
vt 0.497940 0.647177
vt 0.497940 0.497034
vt 0.256378 0.497034
vt 0.256378 0.647177
vt 0.803334 0.601047
vt 0.898529 0.601047
vt 0.898529 0.696242
vt 0.803334 0.696242
vt 0.898529 0.791437
vt 0.803334 0.791437
vt 0.898529 0.886632
vt 0.803334 0.886632
vt 0.898529 0.981827
vt 0.803334 0.981827
vt 0.803334 0.791437
vt 0.898529 0.886632
vt 0.993724 0.791437
vt 0.993724 0.886632
vt 0.708139 0.791437
vt 0.708139 0.886632
vt 0.887909 0.020077
vt 0.931770 0.020077
vt 0.931770 0.063939
vt 0.887909 0.063939
vt 0.931770 0.107800
vt 0.887909 0.107800
vt 0.931770 0.151662
vt 0.887909 0.151662
vt 0.931770 0.195523
vt 0.887909 0.195523
vt 0.887909 0.063939
vt 0.931770 0.151662
vt 0.975632 0.107800
vt 0.975632 0.151662
vt 0.844047 0.107800
vt 0.844047 0.151662
vt 0.887909 0.151662
s 0
usemtl Material.004
f 9/1/1 2/2/1 4/3/1 10/4/1
f 10/5/2 4/6/2 13/7/2 17/8/2
f 11/9/3 8/10/3 6/11/3 12/12/3
f 20/13/4 14/14/4 2/15/4 9/16/4
f 3/17/5 18/18/5 19/19/5 1/20/5
f 13/21/6 4/22/6 2/23/6 14/24/6
f 19/19/4 20/25/4 9/26/4 1/27/4
f 7/28/3 15/29/3 16/30/3 5/31/3
f 3/32/2 10/4/2 17/33/2 18/18/2
f 1/34/1 9/35/1 10/36/1 3/37/1
f 6/11/7 8/10/7 13/38/7 14/39/7
f 8/10/8 11/9/8 17/33/8 13/38/8
f 12/12/9 6/11/9 14/39/9 20/25/9
f 11/9/10 12/12/10 20/25/10 17/33/10
f 15/40/11 7/41/11 18/18/11 17/33/11
f 7/41/12 5/42/12 19/19/12 18/18/12
f 5/42/13 16/43/13 20/25/13 19/19/13
f 16/43/14 15/40/14 17/33/14 20/25/14
f 21/44/4 22/45/4 24/46/4 23/47/4
f 23/47/1 24/46/1 28/48/1 27/49/1
f 27/49/2 28/48/2 26/50/2 25/51/2
f 25/51/3 26/50/3 22/52/3 21/53/3
f 42/47/15 41/54/15 50/54/15 52/47/15
f 38/55/2 37/48/2 31/48/2 32/50/2
f 31/48/6 30/56/6 29/57/6 32/50/6
f 40/46/4 39/45/4 29/45/4 30/46/4
f 39/52/16 38/55/16 32/50/16 29/52/16
f 31/48/2 37/48/2 47/48/2 46/48/2
f 33/58/5 35/49/5 36/51/5 34/59/5
f 43/44/4 42/47/4 33/47/4 34/44/4
f 41/54/2 44/51/2 36/51/2 35/49/2
f 44/51/17 43/53/17 34/53/17 36/51/17
f 28/48/18 24/46/18 40/46/18 37/48/18
f 22/52/16 26/50/16 38/55/16 39/52/16
f 24/46/4 22/45/4 39/45/4 40/46/4
f 26/50/2 28/48/2 37/48/2 38/55/2
f 25/51/17 21/53/17 43/53/17 44/51/17
f 27/49/2 25/51/2 44/51/2 41/54/2
f 21/44/4 23/47/4 42/47/4 43/44/4
f 23/47/19 27/49/19 41/54/19 42/47/19
f 52/47/20 50/54/20 48/49/20 49/47/20
f 47/48/21 51/46/21 45/46/21 46/48/21
f 37/48/22 40/46/22 51/46/22 47/48/22
f 35/49/23 33/58/23 49/58/23 48/49/23
f 33/47/4 42/47/4 52/47/4 49/47/4
f 30/56/24 31/48/24 46/48/24 45/56/24
f 41/54/2 35/49/2 48/49/2 50/54/2
f 40/46/4 30/46/4 45/46/4 51/46/4
f 53/60/4 54/61/4 56/62/4 55/63/4
f 55/63/1 56/62/1 60/64/1 59/65/1
f 59/65/2 60/64/2 58/66/2 57/67/2
f 57/67/3 58/66/3 54/68/3 53/69/3
f 74/70/25 73/65/25 82/65/25 84/70/25
f 70/71/2 69/64/2 63/64/2 64/66/2
f 63/64/6 62/72/6 61/73/6 64/66/6
f 72/62/4 71/61/4 61/61/4 62/62/4
f 71/68/26 70/71/26 64/66/26 61/68/26
f 63/64/2 69/64/2 79/64/2 78/64/2
f 65/74/5 67/65/5 68/67/5 66/75/5
f 75/60/4 74/70/4 65/63/4 66/60/4
f 73/65/2 76/76/2 68/67/2 67/65/2
f 76/76/27 75/69/27 66/69/27 68/67/27
f 60/64/28 56/62/28 72/62/28 69/64/28
f 54/68/29 58/66/29 70/71/29 71/68/29
f 56/62/4 54/61/4 71/61/4 72/62/4
f 58/66/2 60/64/2 69/64/2 70/71/2
f 57/67/27 53/69/27 75/69/27 76/76/27
f 59/65/2 57/67/2 76/76/2 73/65/2
f 53/60/4 55/63/4 74/70/4 75/60/4
f 55/63/30 59/65/30 73/65/30 74/70/30
f 84/70/31 82/65/31 80/65/31 81/63/31
f 79/64/32 83/62/32 77/62/32 78/64/32
f 69/64/33 72/62/33 83/62/33 79/64/33
f 67/65/34 65/74/34 81/74/34 80/65/34
f 65/63/4 74/70/4 84/70/4 81/63/4
f 62/72/35 63/64/35 78/64/35 77/72/35
f 73/65/2 67/65/2 80/65/2 82/65/2
f 72/62/4 62/62/4 77/62/4 83/62/4
