# Blender 5.1.2
# www.blender.org
o Cube.001
v 0.324062 -1.574038 0.652721
v 0.355366 -1.574038 -0.542236
v 1.192583 -1.457439 -0.479648
v 1.156264 -1.574038 0.573925
v 0.997860 -1.355751 0.652721
v 1.035810 -1.337625 -0.542236
v 0.557589 -1.337625 -0.542236
v 0.519923 -1.355751 0.652721
v 0.648328 -1.637485 0.065513
v 0.958290 -1.637485 0.065513
v 0.648328 -1.622527 0.217382
v 0.958290 -1.622527 0.217382
v 0.648328 -1.578229 0.363416
v 0.958290 -1.578229 0.363416
v 0.648328 -1.506291 0.498001
v 0.958290 -1.506291 0.498001
v 0.648328 -1.409480 0.615966
v 0.958290 -1.409480 0.615966
v 0.648328 -1.291515 0.712777
v 0.958290 -1.291515 0.712777
v 0.648328 -1.156930 0.784714
v 0.958290 -1.156930 0.784714
v 0.648328 -1.010897 0.829013
v 0.958290 -1.010897 0.829013
v 0.648328 -0.859027 0.843971
v 0.958290 -0.859027 0.843971
v 0.648328 -0.707158 0.829013
v 0.958290 -0.707158 0.829013
v 0.648328 -0.561124 0.784714
v 0.958290 -0.561124 0.784714
v 0.648328 -0.426539 0.712777
v 0.958290 -0.426539 0.712777
v 0.648328 -0.308574 0.615966
v 0.958290 -0.308574 0.615966
v 0.648328 -0.211763 0.498001
v 0.958290 -0.211763 0.498001
v 0.648328 -0.139826 0.363416
v 0.958290 -0.139826 0.363416
v 0.593546 -0.144784 0.303887
v 1.033794 -0.144784 0.303887
v 0.593546 -0.133555 0.036997
v 1.033794 -0.123538 0.088183
v 0.593546 -0.144784 -0.127522
v 1.033794 -0.144784 -0.127522
v 0.648328 -0.139826 -0.232390
v 0.958290 -0.139826 -0.232390
v 0.648328 -0.211763 -0.366975
v 0.958290 -0.211763 -0.366975
v 0.648328 -0.308574 -0.484940
v 0.958290 -0.308574 -0.484940
v 0.648328 -0.426539 -0.581751
v 0.958290 -0.426539 -0.581751
v 0.648328 -0.561124 -0.653688
v 0.958290 -0.561124 -0.653688
v 0.648328 -0.707158 -0.697987
v 0.958290 -0.707158 -0.697987
v 0.648328 -0.859027 -0.712945
v 0.958290 -0.859027 -0.712945
v 0.648328 -1.010897 -0.697987
v 0.958290 -1.010897 -0.697987
v 0.648328 -1.156930 -0.653688
v 0.958290 -1.156930 -0.653688
v 0.648328 -1.291515 -0.581751
v 0.958290 -1.291515 -0.581751
v 0.648328 -1.409480 -0.484940
v 0.958290 -1.409480 -0.484940
v 0.648328 -1.506291 -0.366975
v 0.958290 -1.506291 -0.366975
v 0.648328 -1.578229 -0.232390
v 0.958290 -1.578229 -0.232390
v 0.648328 -1.622527 -0.086357
v 0.958290 -1.622527 -0.086357
v 0.648328 -1.859027 0.065513
v 0.648328 -1.839813 0.260603
v 0.958290 -1.839813 0.260603
v 0.958290 -1.859027 0.065513
v 0.648328 -1.782907 0.448196
v 0.958290 -1.782907 0.448196
v 0.648328 -1.690497 0.621083
v 0.958290 -1.690497 0.621083
v 0.648328 -1.566134 0.772620
v 0.958290 -1.566134 0.772620
v 0.648328 -1.414598 0.896983
v 0.958290 -1.414598 0.896983
v 0.648328 -1.241711 0.989392
v 0.958290 -1.241711 0.989392
v 0.648328 -1.054118 1.046298
v 0.958290 -1.054118 1.046298
v 0.648328 -0.859027 1.065513
v 0.958290 -0.859027 1.065513
v 0.648328 -0.663937 1.046298
v 0.958290 -0.663937 1.046298
v 0.648328 -0.476344 0.989392
v 0.958290 -0.476344 0.989392
v 0.648328 -0.303457 0.896983
v 0.958290 -0.303457 0.896983
v 0.648328 -0.151921 0.772620
v 0.958290 -0.151921 0.772620
v 0.648328 -0.027558 0.621083
v 0.958290 -0.027558 0.621083
v 0.648328 0.064852 0.448196
v 0.958290 0.064852 0.448196
v 0.593546 0.163832 0.365274
v 1.033794 0.163832 0.365274
v 0.593546 0.191123 0.088182
v 1.033794 0.191123 0.088183
v 0.593546 0.163832 -0.188909
v 1.033794 0.163832 -0.188909
v 0.648328 0.064852 -0.317171
v 0.958290 0.064852 -0.317171
v 0.648328 -0.027558 -0.490057
v 0.958290 -0.027558 -0.490057
v 0.648328 -0.151921 -0.641594
v 0.958290 -0.151921 -0.641594
v 0.648328 -0.303457 -0.765957
v 0.958290 -0.303457 -0.765957
v 0.648328 -0.476344 -0.858367
v 0.958290 -0.476344 -0.858367
v 0.648328 -0.663937 -0.915272
v 0.958290 -0.663937 -0.915272
v 0.648328 -0.859027 -0.934487
v 0.958290 -0.859027 -0.934487
v 0.648328 -1.054118 -0.915272
v 0.958290 -1.054118 -0.915272
v 0.648328 -1.241711 -0.858367
v 0.958290 -1.241711 -0.858367
v 0.648328 -1.414598 -0.765957
v 0.958290 -1.414598 -0.765957
v 0.648328 -1.566134 -0.641594
v 0.958290 -1.566134 -0.641594
v 0.648328 -1.690497 -0.490057
v 0.958290 -1.690497 -0.490057
v 0.648328 -1.782907 -0.317171
v 0.958290 -1.782907 -0.317171
v 0.648328 -1.839813 -0.129577
v 0.958290 -1.839813 -0.129577
v 0.000000 0.265597 0.475427
v 0.000000 0.312422 0.000000
v 0.000000 0.265597 -0.414094
v 0.000000 -0.263918 0.370100
v 0.000000 -0.312422 0.000000
v 0.000000 -0.263918 -0.370100
v 0.273434 -3.935660 0.055243
v 1.363986 -4.603968 0.055243
v 0.969376 -1.635312 0.055243
v 1.225629 -4.603141 0.051521
v 0.577015 -1.635312 0.055243
v 0.433933 -3.935660 0.055243
v 1.247983 -1.616866 0.055243
v 0.341769 -1.574038 0.055243
v 0.359365 -1.375512 -0.243497
v 1.238510 -4.603968 -0.243497
v 1.030468 -1.574038 -0.243497
v 0.394850 -1.574038 -0.243497
v 0.312918 -3.935660 -0.243497
v 1.189773 -1.375512 -0.243497
v 1.025861 -1.375512 -0.243497
v 1.133400 -4.603968 -0.243497
v 0.594080 -1.574038 -0.243497
v 0.433933 -3.935660 -0.243497
v 0.433933 -1.375512 -0.243497
v 1.124911 -1.574038 -0.243497
v 0.306526 -3.935660 0.353982
v 1.189773 -1.375512 0.353982
v 1.025861 -1.375512 0.353982
v 1.133400 -4.603968 0.353982
v 0.626514 -1.574038 0.353982
v 0.433933 -3.935660 0.353982
v 0.433933 -1.375512 0.353982
v 1.129511 -1.574038 0.353982
v 0.393683 -1.375512 0.353982
v 1.235925 -4.603968 0.353982
v 0.976205 -1.574038 0.353982
v 0.374861 -1.574038 0.353982
v 0.356242 -1.327626 0.652721
v 0.358312 -1.275703 0.571817
v 0.371644 -1.275556 0.629025
v 1.189773 -1.275703 0.538306
v 1.146628 -1.327626 0.618505
v 1.189773 -1.275556 0.603259
v 1.025861 -1.275703 0.571817
v 1.025861 -1.327626 0.652721
v 1.025861 -1.275556 0.629025
v 0.433933 -1.327626 0.652721
v 0.433933 -1.275703 0.571817
v 0.433933 -1.275556 0.629025
v 0.370278 -1.355397 -0.338496
v 0.359246 -1.366349 -0.538708
v 0.382919 -1.323554 -0.457232
v 1.145828 -1.369721 -0.511234
v 1.130099 -1.301319 -0.461123
v 1.136297 -1.306573 -0.510976
v 1.025861 -1.306125 -0.542236
v 1.025861 -1.266747 -0.480879
v 1.025861 -1.266636 -0.524265
v 0.433933 -1.306125 -0.542236
v 0.433933 -1.266747 -0.480879
v 0.433933 -1.266636 -0.524265
v 0.357926 -1.407577 0.263236
v 0.351504 -1.407577 -0.152751
v 0.344361 -1.530214 0.055243
v 0.383103 -1.430109 0.167808
v 0.370192 -1.438021 0.055243
v 0.377199 -1.430109 -0.057323
v 1.189773 -1.407577 -0.152751
v 1.189773 -1.407577 0.263236
v 1.201001 -1.514445 0.084804
v 1.189773 -1.430109 -0.057323
v 1.189773 -1.438021 0.055243
v 1.189773 -1.430109 0.167808
v 1.025861 -1.407577 0.263236
v 1.025861 -1.407577 -0.152751
v 1.025861 -1.430109 0.167808
v 1.025861 -1.438021 0.055243
v 1.025861 -1.430109 -0.057323
v 0.433933 -1.407577 -0.152751
v 0.433933 -1.407577 0.263236
v 0.433933 -1.430109 -0.057323
v 0.433933 -1.438021 0.055243
v 0.433933 -1.430109 0.167808
v 0.273434 -3.935660 0.538874
v 0.276896 -3.821814 0.652721
v 0.273898 -3.920408 0.595798
v 0.275165 -3.878737 0.637468
v 0.439132 -3.821814 0.652721
v 0.433933 -3.935660 0.538874
v 0.436532 -3.878737 0.637468
v 0.434629 -3.920408 0.595798
v 0.279401 -3.814436 -0.542236
v 0.273434 -3.935660 -0.421011
v 0.276417 -3.875048 -0.525995
v 0.274233 -3.919419 -0.481624
v 0.433933 -3.935660 -0.421011
v 0.441818 -3.814436 -0.542236
v 0.434989 -3.919419 -0.481624
v 0.437876 -3.875048 -0.525995
v 1.328931 -4.474020 0.649342
v 1.292832 -4.603968 0.522730
v 1.326927 -4.538994 0.633616
v 1.313714 -4.586558 0.587273
v 1.302960 -4.603968 -0.412245
v 1.345999 -4.474002 -0.539651
v 1.326899 -4.586555 -0.476894
v 1.342652 -4.538985 -0.523528
v 1.191388 -4.473976 -0.542236
v 1.169798 -4.603968 -0.412245
v 1.190855 -4.538972 -0.524820
v 1.182953 -4.586552 -0.477240
v 1.169393 -4.603968 0.522730
v 1.189146 -4.473976 0.652721
v 1.182188 -4.586552 0.587725
v 1.189418 -4.538972 0.635305
v 1.158747 -1.515738 -0.361572
v 1.157342 -1.474775 -0.243497
v 1.133198 -1.303946 -0.486050
v 1.141062 -1.338147 -0.511105
v 1.159936 -1.338415 -0.352310
v 1.169206 -1.413580 -0.495441
vn -0.7600 -0.5855 -0.2820
vn 0.7121 -0.6186 -0.3319
vn 0.1486 -0.2017 -0.9681
vn -0.0251 -0.2785 -0.9601
vn -0.6857 -0.7279 -0.0000
vn 0.6857 -0.7279 -0.0000
vn 0.6857 -0.7139 0.1420
vn -0.6857 -0.7139 0.1420
vn 0.6857 -0.6725 0.2785
vn -0.6857 -0.6725 0.2785
vn 0.6857 -0.6052 0.4044
vn -0.6857 -0.6052 0.4044
vn 0.6857 -0.5147 0.5147
vn -0.6857 -0.5147 0.5147
vn 0.6857 -0.4044 0.6052
vn -0.6857 -0.4044 0.6052
vn 0.6857 -0.2785 0.6725
vn -0.6857 -0.2785 0.6725
vn 0.6857 -0.1420 0.7139
vn -0.6857 -0.1420 0.7139
vn 0.6857 -0.0000 0.7279
vn -0.6857 -0.0000 0.7279
vn 0.6857 0.1420 0.7139
vn -0.6857 0.1420 0.7139
vn 0.6857 0.2785 0.6725
vn -0.6857 0.2785 0.6725
vn 0.6857 0.4044 0.6052
vn -0.6857 0.4044 0.6052
vn 0.6857 0.5147 0.5147
vn -0.6857 0.5147 0.5147
vn 0.6857 0.6052 0.4044
vn -0.6857 0.6052 0.4044
vn 0.6840 0.6434 0.3439
vn -0.6840 0.6434 0.3439
vn -0.5168 0.2971 0.8029
vn 0.4281 0.2887 0.8564
vn 0.6467 0.6000 0.4710
vn -0.0428 0.7139 0.6989
vn 0.6857 0.7279 -0.0000
vn 0.1000 0.9950 0.0026
vn 0.6735 0.6286 -0.3890
vn 0.0035 0.7852 -0.6192
vn 0.5254 0.4518 -0.7210
vn -0.5918 0.4618 -0.6607
vn -0.6840 0.6434 -0.3439
vn 0.6840 0.6434 -0.3439
vn 0.6857 0.6052 -0.4044
vn -0.6857 0.6052 -0.4044
vn 0.6857 0.5147 -0.5147
vn -0.6857 0.5147 -0.5147
vn 0.6857 0.4044 -0.6052
vn -0.6857 0.4044 -0.6052
vn 0.6857 0.2785 -0.6725
vn -0.6857 0.2785 -0.6725
vn 0.6857 0.1420 -0.7139
vn -0.6857 0.1420 -0.7139
vn 0.6857 -0.0000 -0.7279
vn -0.6857 -0.0000 -0.7279
vn 0.6857 -0.1420 -0.7139
vn -0.6857 -0.1420 -0.7139
vn 0.6857 -0.2785 -0.6725
vn -0.6857 -0.2785 -0.6725
vn 0.6857 -0.4044 -0.6052
vn -0.6857 -0.4044 -0.6052
vn 0.6857 -0.5147 -0.5147
vn -0.6857 -0.5147 -0.5147
vn 0.6857 -0.6052 -0.4044
vn -0.6857 -0.6052 -0.4044
vn 0.6857 -0.6725 -0.2785
vn -0.6857 -0.6725 -0.2785
vn 0.6857 -0.7139 -0.1420
vn -0.6857 -0.7139 -0.1420
vn -0.7298 0.6705 -0.1334
vn -0.7298 0.6836 -0.0000
vn 0.7298 0.6836 -0.0000
vn 0.7298 0.6705 -0.1334
vn -0.7298 0.6316 -0.2616
vn 0.7298 0.6316 -0.2616
vn -0.7298 0.5684 -0.3798
vn 0.7298 0.5684 -0.3798
vn -0.7298 0.4834 -0.4834
vn 0.7298 0.4834 -0.4834
vn -0.7298 0.3798 -0.5684
vn 0.7298 0.3798 -0.5684
vn -0.7298 0.2616 -0.6316
vn 0.7298 0.2616 -0.6316
vn -0.7298 0.1334 -0.6705
vn 0.7298 0.1334 -0.6705
vn -0.7298 -0.0000 -0.6836
vn 0.7298 -0.0000 -0.6836
vn -0.7298 -0.1334 -0.6705
vn 0.7298 -0.1334 -0.6705
vn -0.7298 -0.2616 -0.6316
vn 0.7298 -0.2616 -0.6316
vn -0.7298 -0.3798 -0.5684
vn 0.7298 -0.3798 -0.5684
vn -0.7298 -0.4834 -0.4834
vn 0.7298 -0.4834 -0.4834
vn -0.7298 -0.5684 -0.3798
vn 0.7298 -0.5684 -0.3798
vn -0.7282 -0.6044 -0.3231
vn 0.7282 -0.6044 -0.3231
vn -0.0844 -0.8756 0.4755
vn -0.4843 -0.7919 0.3720
vn 0.3972 -0.8190 0.4142
vn 0.7173 -0.6583 0.2283
vn -0.0209 -0.9172 -0.3980
vn -0.4417 -0.6219 -0.6466
vn -0.4312 0.5363 -0.7256
vn 0.7332 -0.6800 0.0023
vn -0.6081 0.7938 -0.0107
vn -0.4813 0.5296 0.6985
vn 0.7176 -0.6802 -0.1494
vn -0.5954 -0.7519 -0.2832
vn 0.5231 -0.7829 -0.3369
vn -0.7298 -0.5684 0.3798
vn -0.7282 -0.6044 0.3231
vn 0.7282 -0.6044 0.3231
vn 0.7298 -0.5684 0.3798
vn -0.7298 -0.4834 0.4834
vn 0.7298 -0.4834 0.4834
vn -0.7298 -0.3798 0.5684
vn 0.7298 -0.3798 0.5684
vn -0.7298 -0.2616 0.6316
vn 0.7298 -0.2616 0.6316
vn -0.7298 -0.1334 0.6705
vn 0.7298 -0.1334 0.6705
vn -0.7298 -0.0000 0.6836
vn 0.7298 -0.0000 0.6836
vn -0.7298 0.1334 0.6705
vn 0.7298 0.1334 0.6705
vn -0.7298 0.2616 0.6316
vn 0.7298 0.2616 0.6316
vn -0.7298 0.3798 0.5684
vn 0.7298 0.3798 0.5684
vn -0.7298 0.4834 0.4834
vn 0.7298 0.4834 0.4834
vn -0.7298 0.5684 0.3798
vn 0.7298 0.5684 0.3798
vn -0.7298 0.6316 0.2616
vn 0.7298 0.6316 0.2616
vn -0.7298 0.6705 0.1334
vn 0.7298 0.6705 0.1334
vn 0.1313 -0.9913 0.0060
vn -0.5802 -0.8144 -0.0065
vn -0.5104 -0.6575 0.5542
vn -0.6904 -0.7234 -0.0052
vn -0.9992 0.0379 -0.0104
vn -0.9986 0.0446 -0.0271
vn -0.7419 -0.6703 -0.0161
vn 0.6125 -0.7904 -0.0078
vn 0.9947 -0.0866 -0.0554
vn 0.9904 0.1336 0.0348
vn 0.7893 -0.6141 -0.0012
vn 0.6499 -0.6481 0.3970
vn 0.6804 -0.7325 -0.0221
vn 0.6819 -0.7312 -0.0182
vn 0.7515 -0.6593 -0.0246
vn -0.7260 -0.6288 0.2784
vn -0.7044 -0.7088 -0.0385
vn -0.6862 -0.7274 -0.0019
vn 0.6833 -0.7301 0.0072
vn -0.6167 -0.7868 -0.0269
vn -0.7403 -0.6718 0.0262
vn -0.7455 -0.6638 -0.0594
vn -0.9987 -0.0441 -0.0274
vn -0.0560 -0.2673 0.9620
vn 0.1535 -0.1799 0.9716
vn 0.9928 -0.0882 0.0807
vn 0.6184 -0.7856 0.0203
vn -0.0000 0.9767 -0.2144
vn -0.7050 0.6856 -0.1815
vn -0.4093 0.7703 0.4891
vn -0.0000 0.8416 0.5401
vn -0.6834 0.2185 0.6966
vn -0.0000 0.2119 0.9773
vn 0.7981 0.5906 -0.1193
vn -0.0104 0.9781 -0.2080
vn 0.0641 0.8073 0.5866
vn 0.8023 0.4234 0.4208
vn 0.1478 0.1097 0.9829
vn 0.6197 -0.0717 0.7816
vn -0.6269 0.7373 -0.2518
vn -0.7705 0.0529 0.6352
vn -0.0000 0.9269 -0.3752
vn 0.7974 0.5501 -0.2478
vn -0.0114 0.9239 -0.3824
vn 0.8284 -0.0294 0.5593
vn 0.1171 0.9769 0.1786
vn 0.6029 0.7918 0.0982
vn 0.7689 0.6378 0.0448
vn 0.7020 0.5383 -0.4663
vn 0.1746 0.8057 -0.5660
vn 0.8106 0.2206 -0.5425
vn 0.6551 0.1430 -0.7418
vn 0.1158 0.1503 -0.9818
vn -0.3453 0.9211 0.1798
vn -0.3693 0.8325 -0.4129
vn -0.3111 0.3727 -0.8742
vn -0.8182 0.5368 0.2060
vn -0.8073 0.5894 -0.0300
vn -0.7363 0.2305 -0.6362
vn -0.8006 0.5801 0.1500
vn -0.0573 0.9315 0.3591
vn -0.7436 0.0060 -0.6685
vn 0.0233 0.9321 0.3615
vn 0.8482 0.5248 0.0719
vn 0.7173 0.6653 0.2070
vn 0.6978 0.1551 -0.6993
vn 0.8714 0.1100 -0.4782
vn 0.9652 -0.2525 -0.0682
vn 0.9759 -0.0243 0.2167
vn -0.7501 0.6589 -0.0565
vn -0.3968 0.8908 -0.2212
vn -0.9917 0.1279 -0.0139
vn -0.6379 0.7699 0.0176
vn -0.4145 0.8803 0.2309
vn -0.7875 0.6025 0.1295
vn 0.7713 0.6334 0.0618
vn 0.6444 0.7546 0.1239
vn 0.9650 0.2186 0.1449
vn 0.6681 0.7441 0.0017
vn 0.6620 0.7401 -0.1184
vn 0.8021 0.5864 -0.1131
vn -0.0000 0.9594 -0.2819
vn -0.0000 0.9886 -0.1504
vn -0.0000 1.0000 -0.0000
vn -0.0000 0.9886 0.1504
vn -0.0000 0.9594 0.2819
vn -0.7542 -0.6567 0.0004
vn 0.6620 -0.7436 0.0943
vn 0.6378 -0.6728 0.3749
vn -0.6632 -0.6440 0.3812
vn 0.6440 -0.4002 0.6520
vn -0.6589 -0.3639 0.6584
vn 0.6672 -0.1368 0.7323
vn -0.7132 -0.0637 0.6981
vn 0.6547 -0.7500 -0.0936
vn -0.7715 -0.6357 0.0239
vn -0.6693 -0.6367 -0.3830
vn 0.6311 -0.6799 -0.3734
vn -0.6622 -0.3547 -0.6601
vn 0.6399 -0.4092 -0.6505
vn -0.7171 -0.0547 -0.6948
vn 0.6739 -0.1360 -0.7262
vn -0.6348 -0.7418 0.2164
vn 0.6802 -0.7249 -0.1084
vn 0.7104 -0.6702 0.2147
vn -0.5847 -0.6619 0.4691
vn 0.7618 -0.3815 0.5235
vn -0.5627 -0.3859 0.7311
vn 0.8379 -0.0599 0.5425
vn -0.5316 -0.1132 0.8394
vn 0.6709 -0.7295 0.1329
vn -0.6386 -0.7378 -0.2188
vn -0.5880 -0.6577 -0.4708
vn 0.7087 -0.6790 -0.1918
vn -0.5655 -0.3818 -0.7310
vn 0.7686 -0.3933 -0.5046
vn -0.5504 -0.1061 -0.8281
vn 0.8376 -0.0681 -0.5421
vt 0.078270 0.227488
vt 0.078270 0.222060
vt 0.078270 0.203169
vt 0.078270 0.214025
vt 0.021843 0.518549
vt 0.066988 0.518549
vt 0.066988 0.521721
vt 0.021843 0.521721
vt 0.066988 0.524893
vt 0.021843 0.524893
vt 0.066988 0.528064
vt 0.021843 0.528064
vt 0.066988 0.531236
vt 0.021843 0.531236
vt 0.066988 0.534408
vt 0.021843 0.534408
vt 0.066988 0.537579
vt 0.021843 0.537579
vt 0.066988 0.540751
vt 0.021843 0.540751
vt 0.066988 0.543923
vt 0.021843 0.543923
vt 0.066988 0.547094
vt 0.021843 0.547094
vt 0.066988 0.550266
vt 0.021843 0.550266
vt 0.066988 0.553438
vt 0.021843 0.553438
vt 0.066988 0.556609
vt 0.021843 0.556609
vt 0.066988 0.559781
vt 0.021843 0.559781
vt 0.066988 0.562953
vt 0.021843 0.562953
vt 0.066988 0.566124
vt 0.021843 0.566124
vt 0.066988 0.569296
vt 0.021843 0.569296
vt 0.066988 0.572468
vt 0.021843 0.572468
vt 0.066988 0.575639
vt 0.021843 0.575639
vt 0.066988 0.578811
vt 0.021843 0.578811
vt 0.066988 0.581983
vt 0.021843 0.581983
vt 0.066988 0.585154
vt 0.021843 0.585154
vt 0.066988 0.588326
vt 0.021843 0.588326
vt 0.066988 0.591498
vt 0.021843 0.591498
vt 0.066988 0.594670
vt 0.021843 0.594670
vt 0.066988 0.597841
vt 0.021843 0.597841
vt 0.066988 0.601013
vt 0.021843 0.601013
vt 0.066988 0.604185
vt 0.021843 0.604185
vt 0.066988 0.607356
vt 0.021843 0.607356
vt 0.066988 0.610528
vt 0.021843 0.610528
vt 0.066988 0.613699
vt 0.021843 0.613699
vt 0.066988 0.616871
vt 0.021843 0.616871
vt 0.066988 0.620043
vt 0.021843 0.620043
vt 0.105229 0.539209
vt 0.105553 0.542908
vt 0.110354 0.542908
vt 0.109937 0.538156
vt 0.105553 0.593655
vt 0.105229 0.589955
vt 0.109937 0.588902
vt 0.110354 0.593655
vt 0.104269 0.535651
vt 0.108704 0.533586
vt 0.104269 0.586398
vt 0.108704 0.584333
vt 0.102710 0.532373
vt 0.106702 0.529375
vt 0.102710 0.583120
vt 0.106702 0.580122
vt 0.100612 0.529500
vt 0.104007 0.525684
vt 0.100612 0.580246
vt 0.104007 0.576431
vt 0.098056 0.527141
vt 0.100723 0.522655
vt 0.098056 0.577888
vt 0.100723 0.573401
vt 0.095139 0.525389
vt 0.096977 0.520404
vt 0.095139 0.576136
vt 0.096977 0.571150
vt 0.091975 0.524310
vt 0.092912 0.519017
vt 0.091975 0.575057
vt 0.092912 0.569764
vt 0.088684 0.523946
vt 0.088684 0.518549
vt 0.088684 0.574693
vt 0.088684 0.569296
vt 0.085393 0.524310
vt 0.084457 0.519017
vt 0.085393 0.575057
vt 0.084457 0.569764
vt 0.082229 0.525389
vt 0.080391 0.520404
vt 0.082229 0.576136
vt 0.080391 0.571150
vt 0.079312 0.527141
vt 0.076645 0.522655
vt 0.079312 0.577888
vt 0.076645 0.573401
vt 0.076756 0.529500
vt 0.073361 0.525684
vt 0.076756 0.580246
vt 0.073361 0.576431
vt 0.074658 0.532373
vt 0.070666 0.529375
vt 0.074658 0.583120
vt 0.070666 0.580122
vt 0.073099 0.535651
vt 0.068664 0.533586
vt 0.073099 0.586398
vt 0.068664 0.584333
vt 0.072139 0.539209
vt 0.067431 0.538156
vt 0.072139 0.589955
vt 0.067431 0.588902
vt 0.067431 0.547660
vt 0.072139 0.546607
vt 0.071815 0.593655
vt 0.067015 0.593655
vt 0.072139 0.597354
vt 0.067431 0.598407
vt 0.073099 0.550164
vt 0.068664 0.552229
vt 0.073099 0.600911
vt 0.068664 0.602976
vt 0.074658 0.553443
vt 0.070666 0.556441
vt 0.074658 0.604189
vt 0.070666 0.607187
vt 0.076756 0.556316
vt 0.073361 0.560132
vt 0.076756 0.607063
vt 0.073361 0.610879
vt 0.079312 0.558674
vt 0.076645 0.563161
vt 0.079312 0.609421
vt 0.076645 0.613908
vt 0.082229 0.560426
vt 0.080391 0.565412
vt 0.082229 0.611173
vt 0.080391 0.616159
vt 0.085393 0.561505
vt 0.084457 0.566798
vt 0.085393 0.612252
vt 0.084457 0.617545
vt 0.088684 0.561870
vt 0.088684 0.567266
vt 0.088684 0.612617
vt 0.088684 0.618013
vt 0.091975 0.561505
vt 0.092912 0.566798
vt 0.091975 0.612252
vt 0.092912 0.617545
vt 0.095139 0.560426
vt 0.096977 0.565412
vt 0.095139 0.611173
vt 0.096977 0.616159
vt 0.098056 0.558674
vt 0.100723 0.563161
vt 0.098056 0.609421
vt 0.100723 0.613908
vt 0.100612 0.556316
vt 0.104007 0.560132
vt 0.100612 0.607063
vt 0.104007 0.610879
vt 0.102710 0.553443
vt 0.106702 0.556441
vt 0.102710 0.604189
vt 0.106702 0.607187
vt 0.104269 0.550164
vt 0.108704 0.552229
vt 0.104269 0.600911
vt 0.108704 0.602976
vt 0.105229 0.546607
vt 0.109937 0.547660
vt 0.105229 0.597354
vt 0.109937 0.598407
vt 0.071815 0.542908
vt 0.067015 0.542908
vt 0.052435 0.171110
vt 0.078270 0.171110
vt 0.078270 0.178870
vt 0.052435 0.178870
vt 0.052435 0.233191
vt 0.078270 0.233191
vt 0.078270 0.240951
vt 0.052435 0.240951
vt 0.078270 0.259842
vt 0.046870 0.265407
vt 0.041305 0.252082
vt 0.078270 0.254414
vt 0.021395 0.233191
vt 0.030174 0.233191
vt 0.030174 0.240951
vt 0.021395 0.240951
vt 0.046732 0.246654
vt 0.049584 0.257265
vt 0.041030 0.233191
vt 0.041030 0.240951
vt 0.078270 0.186630
vt 0.052435 0.186630
vt 0.035739 0.238756
vt 0.043881 0.236042
vt 0.078270 0.267877
vt 0.078270 0.278733
vt 0.078270 0.248711
vt 0.052435 0.248711
vt 0.030174 0.248711
vt 0.021395 0.248711
vt 0.041030 0.248711
vt 0.105737 0.254370
vt 0.114516 0.254370
vt 0.114516 0.256471
vt 0.105737 0.256471
vt 0.083476 0.278733
vt 0.083476 0.287512
vt 0.082095 0.287512
vt 0.079520 0.278733
vt 0.083476 0.254370
vt 0.094881 0.254370
vt 0.094881 0.256471
vt 0.083333 0.256266
vt 0.083476 0.267877
vt 0.079520 0.267877
vt 0.082095 0.256471
vt 0.083476 0.165451
vt 0.083476 0.171110
vt 0.082095 0.163350
vt 0.078270 0.287512
vt 0.105737 0.248711
vt 0.114516 0.248711
vt 0.083476 0.248711
vt 0.094881 0.248711
vt 0.078270 0.256471
vt 0.094881 0.227025
vt 0.083476 0.227025
vt 0.083422 0.226305
vt 0.083368 0.225586
vt 0.094881 0.225431
vt 0.083476 0.214025
vt 0.082898 0.225509
vt 0.082428 0.225431
vt 0.079927 0.214025
vt 0.105737 0.227025
vt 0.105737 0.225431
vt 0.083476 0.203169
vt 0.079927 0.203169
vt 0.114516 0.227025
vt 0.114516 0.225431
vt 0.083314 0.194157
vt 0.082428 0.194390
vt 0.114516 0.233191
vt 0.105737 0.233191
vt 0.078270 0.194390
vt 0.083476 0.192796
vt 0.094881 0.233191
vt 0.083476 0.233191
vt 0.083476 0.230108
vt 0.080349 0.225431
vt 0.078270 0.225431
vt 0.080873 0.233191
vt 0.078270 0.229311
vt 0.083476 0.173467
vt 0.083880 0.175946
vt 0.078273 0.178870
vt 0.083476 0.178519
vt 0.083476 0.178870
vt 0.083476 0.235548
vt 0.083476 0.237936
vt 0.078273 0.240951
vt 0.083476 0.240600
vt 0.083476 0.243135
vt 0.083476 0.245154
vt 0.105737 0.246354
vt 0.094881 0.246354
vt 0.094881 0.243966
vt 0.105737 0.243966
vt 0.094881 0.240951
vt 0.105737 0.240951
vt 0.094881 0.237936
vt 0.105737 0.237936
vt 0.094881 0.235548
vt 0.105737 0.235548
vt 0.083476 0.246354
vt 0.083476 0.243966
vt 0.083476 0.240951
vt 0.114516 0.246354
vt 0.114516 0.243966
vt 0.114516 0.240951
vt 0.114516 0.237936
vt 0.114516 0.235548
vt 0.083476 0.184273
vt 0.083476 0.186630
vt 0.021395 0.253514
vt 0.030174 0.253514
vt 0.030212 0.254993
vt 0.021420 0.254993
vt 0.030174 0.256471
vt 0.021489 0.256471
vt 0.052435 0.287417
vt 0.052703 0.278383
vt 0.053997 0.278733
vt 0.054202 0.287512
vt 0.054202 0.163350
vt 0.030927 0.229332
vt 0.021395 0.228580
vt 0.021438 0.225431
vt 0.030944 0.226693
vt 0.052435 0.203169
vt 0.052561 0.193625
vt 0.053376 0.194250
vt 0.053259 0.203169
vt 0.054317 0.194390
vt 0.054083 0.203169
vt 0.052435 0.191241
vt 0.033241 0.224011
vt 0.032011 0.225458
vt 0.041030 0.253095
vt 0.052435 0.253095
vt 0.052434 0.254773
vt 0.040933 0.254783
vt 0.052354 0.256584
vt 0.041030 0.256471
vt 0.052617 0.267563
vt 0.053543 0.256471
vt 0.053469 0.267877
vt 0.052435 0.228807
vt 0.041443 0.229221
vt 0.041254 0.227307
vt 0.052444 0.227126
vt 0.041483 0.225630
vt 0.052369 0.225339
vt 0.052435 0.214025
vt 0.053463 0.214025
vt 0.053502 0.225431
vt 0.042512 0.224977
vt 0.051965 0.265561
vt 0.078270 0.163350
vt 0.083049 0.163965
vt 0.051194 0.263259
vt 0.052435 0.166307
vt 0.052672 0.164828
vt 0.053319 0.163746
vt 0.050314 0.273654
vt 0.051618 0.276176
s 1
f 153/1/1 159/2/2 7/3/3 6/4/4
f 73/5/5 76/6/6 75/7/7 74/8/8
f 74/8/8 75/7/7 78/9/9 77/10/10
f 77/10/10 78/9/9 80/11/11 79/12/12
f 79/12/12 80/11/11 82/13/13 81/14/14
f 81/14/14 82/13/13 84/15/15 83/16/16
f 83/16/16 84/15/15 86/17/17 85/18/18
f 85/18/18 86/17/17 88/19/19 87/20/20
f 87/20/20 88/19/19 90/21/21 89/22/22
f 89/22/22 90/21/21 92/23/23 91/24/24
f 91/24/24 92/23/23 94/25/25 93/26/26
f 93/26/26 94/25/25 96/27/27 95/28/28
f 95/28/28 96/27/27 98/29/29 97/30/30
f 97/30/30 98/29/29 100/31/31 99/32/32
f 99/32/32 100/31/31 102/33/33 101/34/34
f 101/34/35 102/33/36 104/35/37 103/36/38
f 103/36/38 104/35/37 106/37/39 105/38/40
f 105/38/40 106/37/39 108/39/41 107/40/42
f 107/40/42 108/39/41 110/41/43 109/42/44
f 109/42/45 110/41/46 112/43/47 111/44/48
f 111/44/48 112/43/47 114/45/49 113/46/50
f 113/46/50 114/45/49 116/47/51 115/48/52
f 115/48/52 116/47/51 118/49/53 117/50/54
f 117/50/54 118/49/53 120/51/55 119/52/56
f 119/52/56 120/51/55 122/53/57 121/54/58
f 121/54/58 122/53/57 124/55/59 123/56/60
f 123/56/60 124/55/59 126/57/61 125/58/62
f 125/58/62 126/57/61 128/59/63 127/60/64
f 127/60/64 128/59/63 130/61/65 129/62/66
f 129/62/66 130/61/65 132/63/67 131/64/68
f 131/64/68 132/63/67 134/65/69 133/66/70
f 133/66/70 134/65/69 136/67/71 135/68/72
f 135/68/72 136/67/71 76/69/6 73/70/5
f 11/71/73 9/72/74 73/73/5 74/74/8
f 10/75/75 12/76/76 75/77/7 76/78/6
f 13/79/77 11/71/73 74/74/8 77/80/10
f 12/76/76 14/81/78 78/82/9 75/77/7
f 15/83/79 13/79/77 77/80/10 79/84/12
f 14/81/78 16/85/80 80/86/11 78/82/9
f 17/87/81 15/83/79 79/84/12 81/88/14
f 16/85/80 18/89/82 82/90/13 80/86/11
f 19/91/83 17/87/81 81/88/14 83/92/16
f 18/89/82 20/93/84 84/94/15 82/90/13
f 21/95/85 19/91/83 83/92/16 85/96/18
f 20/93/84 22/97/86 86/98/17 84/94/15
f 23/99/87 21/95/85 85/96/18 87/100/20
f 22/97/86 24/101/88 88/102/19 86/98/17
f 25/103/89 23/99/87 87/100/20 89/104/22
f 24/101/88 26/105/90 90/106/21 88/102/19
f 27/107/91 25/103/89 89/104/22 91/108/24
f 26/105/90 28/109/92 92/110/23 90/106/21
f 29/111/93 27/107/91 91/108/24 93/112/26
f 28/109/92 30/113/94 94/114/25 92/110/23
f 31/115/95 29/111/93 93/112/26 95/116/28
f 30/113/94 32/117/96 96/118/27 94/114/25
f 33/119/97 31/115/95 95/116/28 97/120/30
f 32/117/96 34/121/98 98/122/29 96/118/27
f 35/123/99 33/119/97 97/120/30 99/124/32
f 34/121/98 36/125/100 100/126/31 98/122/29
f 37/127/101 35/123/99 99/124/32 101/128/34
f 36/125/100 38/129/102 102/130/33 100/126/31
f 39/131/103 37/127/104 101/128/35 103/132/38
f 38/129/105 40/133/106 104/134/37 102/130/36
f 107/135/42 43/136/107 142/136/108 139/135/109
f 40/133/106 42/137/110 106/138/39 104/134/37
f 103/36/38 105/38/40 138/38/111 137/36/112
f 42/137/110 44/139/113 108/140/41 106/138/39
f 45/141/114 43/136/107 107/135/42 109/142/44
f 44/139/113 46/143/115 110/144/43 108/140/41
f 47/145/116 45/141/117 109/142/45 111/146/48
f 46/143/118 48/147/119 112/148/47 110/144/46
f 49/149/120 47/145/116 111/146/48 113/150/50
f 48/147/119 50/151/121 114/152/49 112/148/47
f 51/153/122 49/149/120 113/150/50 115/154/52
f 50/151/121 52/155/123 116/156/51 114/152/49
f 53/157/124 51/153/122 115/154/52 117/158/54
f 52/155/123 54/159/125 118/160/53 116/156/51
f 55/161/126 53/157/124 117/158/54 119/162/56
f 54/159/125 56/163/127 120/164/55 118/160/53
f 57/165/128 55/161/126 119/162/56 121/166/58
f 56/163/127 58/167/129 122/168/57 120/164/55
f 59/169/130 57/165/128 121/166/58 123/170/60
f 58/167/129 60/171/131 124/172/59 122/168/57
f 61/173/132 59/169/130 123/170/60 125/174/62
f 60/171/131 62/175/133 126/176/61 124/172/59
f 63/177/134 61/173/132 125/174/62 127/178/64
f 62/175/133 64/179/135 128/180/63 126/176/61
f 65/181/136 63/177/134 127/178/64 129/182/66
f 64/179/135 66/183/137 130/184/65 128/180/63
f 67/185/138 65/181/136 129/182/66 131/186/68
f 66/183/137 68/187/139 132/188/67 130/184/65
f 69/189/140 67/185/138 131/186/68 133/190/70
f 68/187/139 70/191/141 134/192/69 132/188/67
f 71/193/142 69/189/140 133/190/70 135/194/72
f 70/191/141 72/195/143 136/196/71 134/192/69
f 9/72/74 71/193/142 135/194/72 73/73/5
f 72/195/143 10/75/75 76/78/6 136/196/71
f 51/153/122 53/157/124 54/159/125 52/155/123
f 53/157/124 55/161/126 56/163/127 54/159/125
f 55/161/126 57/165/128 58/167/129 56/163/127
f 57/165/128 59/169/130 60/171/131 58/167/129
f 59/169/130 61/173/132 62/175/133 60/171/131
f 61/173/132 63/177/134 64/179/135 62/175/133
f 63/177/134 65/181/136 66/183/137 64/179/135
f 65/181/136 67/185/138 68/187/139 66/183/137
f 67/185/138 69/189/140 70/191/141 68/187/139
f 69/189/140 71/193/142 72/195/143 70/191/141
f 71/193/142 9/72/74 10/75/75 72/195/143
f 9/72/74 11/71/73 12/76/76 10/75/75
f 11/71/73 13/79/77 14/81/78 12/76/76
f 13/79/77 15/83/79 16/85/80 14/81/78
f 15/83/79 17/87/81 18/89/82 16/85/80
f 17/87/81 19/91/83 20/93/84 18/89/82
f 19/91/83 21/95/85 22/97/86 20/93/84
f 21/95/85 23/99/87 24/101/88 22/97/86
f 23/99/87 25/103/89 26/105/90 24/101/88
f 25/103/89 27/107/91 28/109/92 26/105/90
f 27/107/91 29/111/93 30/113/94 28/109/92
f 29/111/93 31/115/95 32/117/96 30/113/94
f 31/115/95 33/119/97 34/121/98 32/117/96
f 33/119/97 35/123/99 36/125/100 34/121/98
f 35/123/99 37/127/101 38/129/102 36/125/100
f 37/127/104 39/131/103 40/133/106 38/129/105
f 39/131/103 41/197/144 42/137/110 40/133/106
f 41/197/144 43/136/107 44/139/113 42/137/110
f 43/136/107 45/141/114 46/143/115 44/139/113
f 45/141/117 47/145/116 48/147/119 46/143/118
f 47/145/116 49/149/120 50/151/121 48/147/119
f 49/149/120 51/153/122 52/155/123 50/151/121
f 141/197/145 140/131/146 137/132/112 138/198/111
f 142/136/108 141/197/145 138/198/111 139/135/109
f 43/136/107 41/197/144 141/197/145 142/136/108
f 105/38/40 107/40/42 139/40/109 138/38/111
f 41/197/144 39/131/103 140/131/146 141/197/145
f 39/131/103 103/132/38 137/132/112 140/131/146
f 163/199/147 174/200/148 150/201/149 143/202/150
f 152/203/151 162/204/152 149/205/153 144/206/154
f 167/207/155 168/208/156 148/209/157 147/205/158
f 173/210/159 167/207/155 147/205/158 145/205/160
f 155/211/161 160/212/162 148/213/157 143/214/150
f 173/210/159 145/205/160 146/215/163 166/216/164
f 158/217/165 152/203/151 144/206/154 146/218/163
f 143/202/150 150/201/149 154/219/166 155/220/161
f 147/205/158 148/209/157 160/221/162 159/2/2
f 145/205/160 147/205/158 159/2/2 153/1/1
f 145/205/160 153/1/1 158/222/165 146/215/163
f 5/223/167 8/224/168 167/207/155 173/210/159
f 144/206/154 149/205/153 170/225/169 172/226/170
f 143/214/150 148/213/157 168/227/156 163/228/147
f 146/218/163 144/206/154 172/226/170 166/229/164
f 185/230/171 176/231/172 177/232/173 186/233/174
f 186/234/174 177/235/173 175/236/175 184/237/176
f 178/238/177 181/239/178 183/240/179 180/241/180
f 180/241/180 183/242/179 182/243/181 179/244/182
f 181/239/178 185/230/171 186/233/174 183/240/179
f 183/242/179 186/234/174 184/237/176 182/243/181
f 176/245/172 171/246/183 175/247/175
f 8/224/168 184/237/176 175/236/175 1/248/184
f 169/249/185 171/250/183 176/231/172 185/230/171
f 164/251/186 165/252/187 181/239/178 178/238/177
f 4/253/188 179/244/182 182/243/181 5/223/167
f 179/244/182 4/253/188 164/251/186
f 165/252/187 169/249/185 185/230/171 181/239/178
f 5/223/167 182/243/181 184/237/176 8/224/168
f 194/254/189 191/255/190 255/256/191 192/257/192 195/258/193
f 195/259/193 192/257/192 256/260/194 190/261/195 193/262/196
f 197/263/197 194/254/189 195/258/193 198/264/198
f 198/265/198 195/259/193 193/262/196 196/266/199
f 187/267/200 197/263/197 198/264/198 189/268/201
f 189/269/201 198/265/198 196/266/199 188/270/202
f 197/263/197 187/267/200 151/271/203 161/272/204
f 2/273/205 188/270/202 196/266/199 7/3/3
f 187/274/200 188/270/202 2/273/205
f 191/255/190 194/254/189 157/275/206 156/276/207 257/277/208
f 6/4/4 193/262/196 190/261/195 258/278/209 3/279/210
f 257/277/208 254/280/211 253/281/212
f 194/254/189 197/263/197 161/272/204 157/275/206
f 7/3/3 196/266/199 193/262/196 6/4/4
f 199/282/213 202/283/214 201/284/215
f 202/283/214 203/285/216 201/284/215
f 203/285/216 204/286/217 201/284/215
f 204/286/217 200/286/218 201/284/215
f 205/287/219 208/288/220 207/289/221
f 208/288/220 209/290/222 207/289/221
f 209/290/222 210/291/223 207/289/221
f 210/291/223 206/292/224 207/289/221
f 217/293/225 211/294/225 213/295/226 220/296/226
f 220/296/226 213/295/226 214/297/227 219/298/227
f 219/298/227 214/297/227 215/299/228 218/300/228
f 218/300/228 215/299/228 212/301/229 216/302/229
f 211/294/225 206/303/224 210/304/223 213/295/226
f 213/295/226 210/304/223 209/305/222 214/297/227
f 214/297/227 209/305/222 208/288/220 215/299/228
f 215/299/228 208/288/220 205/287/219 212/301/229
f 199/306/213 217/293/225 220/296/226 202/307/214
f 202/307/214 220/296/226 219/298/227 203/308/216
f 203/308/216 219/298/227 218/300/228 204/309/217
f 204/309/217 218/300/228 216/302/229 200/310/218
f 217/293/225 199/306/213 171/250/183 169/249/185
f 161/272/204 151/271/203 200/310/218 216/302/229
f 201/284/215 174/200/148 199/282/213
f 200/311/218 151/312/203 154/219/166
f 205/287/219 207/289/221 149/205/153
f 206/303/224 164/251/186 170/225/169
f 156/276/207 157/275/206 212/301/229 205/287/219
f 206/303/224 211/294/225 165/252/187 164/251/186
f 157/275/206 161/272/204 216/302/229 212/301/229
f 211/294/225 217/293/225 169/249/185 165/252/187
f 221/313/230 226/314/231 228/315/232 223/316/233
f 223/316/233 228/315/232 227/317/234 224/318/235
f 224/319/235 227/320/234 225/321/236 222/322/237
f 174/200/148 163/199/147 222/323/237
f 163/228/147 168/227/156 226/314/231 221/313/230
f 225/321/236 8/224/168 1/248/184 222/322/237
f 168/208/156 167/207/155 225/321/236
f 233/324/238 230/325/239 232/326/240 235/327/241
f 235/328/241 232/329/240 231/330/242 236/331/243
f 236/331/243 231/330/242 229/332/244 234/333/245
f 231/330/242 232/329/240 230/334/239
f 229/332/244 2/273/205 7/3/3 234/333/245
f 230/325/239 233/324/238 160/212/162 155/211/161
f 234/335/245 233/324/238 236/336/243
f 249/337/246 238/338/247 240/339/248 251/340/249
f 251/340/249 240/339/248 239/341/250 252/342/251
f 252/343/251 239/341/250 237/344/252 250/345/253
f 241/346/254 246/347/255 248/348/256 243/349/257
f 243/349/257 248/348/256 247/350/258 244/351/259
f 244/351/259 247/352/258 245/353/260 242/354/261
f 240/339/248 238/338/247 237/344/252
f 237/344/252 4/253/188 5/223/167 250/345/253
f 166/229/164 172/226/170 238/338/247 249/337/246
f 162/204/152 152/203/151 242/354/261
f 246/347/255 241/346/254 152/203/151 158/217/165
f 245/353/260 6/4/4 3/279/210 242/354/261
f 246/347/255 158/222/165 245/355/260
f 251/356/249 252/343/251 250/345/253
f 253/281/212 3/279/210 257/277/208
f 3/279/210 258/278/209 257/277/208
f 258/278/209 190/261/195 191/255/190
f 190/261/195 256/260/194 191/255/190
f 256/260/194 192/257/192 255/256/191
f 255/256/191 191/255/190 256/260/194
f 191/255/190 257/277/208 258/278/209
f 257/277/208 156/276/207 254/280/211
f 254/280/211 162/204/152 253/281/212
f 4/253/188 170/225/169 164/251/186
f 164/251/186 178/238/177 179/244/182
f 178/238/177 180/241/180 179/244/182
f 149/205/153 162/204/152 205/287/219
f 162/204/152 254/280/211 205/287/219
f 254/280/211 156/276/207 205/287/219
f 170/225/169 149/205/153 207/289/221
f 207/289/221 206/303/224 170/225/169
f 174/200/148 1/357/184 171/246/183
f 1/357/184 175/247/175 171/246/183
f 175/247/175 177/358/173 176/245/172
f 2/273/205 154/219/166 187/274/200
f 154/219/166 151/312/203 187/274/200
f 187/274/200 189/269/201 188/270/202
f 154/219/166 150/201/149 201/284/215
f 201/284/215 200/311/218 154/219/166
f 150/201/149 174/200/148 201/284/215
f 174/200/148 171/246/183 199/282/213
f 238/338/247 172/226/170 237/344/252
f 172/226/170 170/225/169 237/344/252
f 170/225/169 4/253/188 237/344/252
f 237/344/252 239/341/250 240/339/248
f 152/203/151 241/346/254 242/354/261
f 241/346/254 243/349/257 242/354/261
f 243/349/257 244/351/259 242/354/261
f 242/354/261 3/279/210 253/281/212
f 253/281/212 162/204/152 242/354/261
f 250/345/253 5/223/167 173/210/159
f 173/210/159 166/216/164 250/345/253
f 166/216/164 249/359/246 250/345/253
f 249/359/246 251/356/249 250/345/253
f 158/222/165 153/1/1 245/355/260
f 153/1/1 6/4/4 245/355/260
f 245/355/260 247/350/258 248/348/256
f 246/347/255 245/355/260 248/348/256
f 163/199/147 221/360/230 222/323/237
f 221/360/230 223/361/233 224/362/235
f 222/323/237 221/360/230 224/362/235
f 222/323/237 1/357/184 174/200/148
f 167/207/155 8/224/168 225/321/236
f 225/321/236 227/320/234 226/363/231
f 227/320/234 228/364/232 226/363/231
f 226/363/231 168/208/156 225/321/236
f 230/334/239 155/220/161 229/332/244
f 155/220/161 154/219/166 229/332/244
f 154/219/166 2/273/205 229/332/244
f 229/332/244 231/330/242 230/334/239
f 7/3/3 159/2/2 234/335/245
f 159/2/2 160/221/162 234/335/245
f 160/221/162 233/324/238 234/335/245
f 233/324/238 235/327/241 236/336/243
