# Blender 4.5.4 LTS
# www.blender.org
o Island
v -3.000000 0.000000 1.800000
v -3.000000 2.398896 1.800000
v -2.707943 0.150423 -1.258376
v -2.707943 2.248473 -1.258376
v 3.000000 0.000000 1.800000
v 3.000000 2.398896 1.800000
v 2.713961 0.148076 -1.258376
v 2.713961 2.250819 -1.258376
v -3.000000 2.663423 -1.200000
v 3.000000 2.663423 -1.200000
v 3.000000 2.398896 2.514469
v 2.897589 2.501307 2.616880
v 2.986279 2.412617 2.565674
v 2.948794 2.450102 2.603159
v -2.897589 2.501307 2.616880
v -3.000000 2.398896 2.514469
v -2.948794 2.450102 2.603159
v -2.986279 2.412617 2.565674
v 2.897589 2.561012 2.616880
v 3.000000 2.663423 2.514469
v 2.948794 2.612217 2.603159
v 2.986279 2.649702 2.565674
v -3.000000 2.663423 2.514469
v -2.897589 2.561012 2.616880
v -2.986279 2.649702 2.565674
v -2.948794 2.612217 2.603159
v 0.148077 0.148076 -1.258376
v 0.148077 2.250819 -1.258376
v 0.000000 2.663423 -1.200000
v -0.150423 2.248473 -1.258376
v 3.000000 2.398896 -1.200000
v 3.000000 0.000000 -1.200000
v -0.150423 0.150423 -1.258376
v -3.000000 2.398896 -1.200000
v -3.000000 0.000000 -1.200000
v 0.000000 0.000000 -1.200000
v 0.000000 2.398896 -1.200000
v 0.000000 2.398896 -1.193260
v -0.000000 2.417019 -1.248301
v 2.907356 2.491541 -1.285904
v 3.000000 2.398896 -1.193260
v 2.942809 2.456087 -1.278852
v 2.972865 2.426031 -1.258769
v 2.992948 2.405948 -1.228713
v 0.000000 2.663423 -1.193260
v 3.000000 2.663423 -1.193260
v 2.907356 2.570778 -1.285904
v 2.992948 2.656370 -1.228713
v 2.972865 2.636288 -1.258769
v 2.942809 2.606232 -1.278852
v -2.907356 2.570778 -1.285904
v -3.000000 2.663423 -1.193260
v -2.942809 2.606232 -1.278852
v -2.972865 2.636288 -1.258769
v -2.992948 2.656370 -1.228713
v -2.907356 2.491541 -1.285904
v -3.000000 2.398896 -1.193260
v -2.942809 2.456087 -1.278852
v -2.972865 2.426031 -1.258769
v -2.992948 2.405948 -1.228713
v 0.379285 1.843255 -1.376113
v 0.379285 2.192668 -1.376113
v 0.379285 1.843255 -1.310362
v 0.379285 1.843255 -1.296247
v 0.362391 1.843255 -1.350539
v 0.280578 2.192668 -1.350539
v 0.362391 2.192668 -1.350539
v 0.280578 1.843255 -1.350539
v 0.379285 2.192668 -1.310362
v 0.379285 2.192668 -1.296247
v 0.280578 1.843255 -1.376113
v 0.280578 2.192668 -1.376113
v 0.280578 1.843255 -1.258176
v 0.280578 2.192668 -1.258176
v 0.362391 2.192668 -1.376113
v 0.362391 1.843255 -1.376113
v 0.362391 2.192668 -1.296247
v 0.362391 1.843255 -1.296247
v 0.207367 2.192668 -1.376113
v 0.207367 1.843255 -1.376113
v 0.207367 2.192668 -1.258176
v 0.207367 1.843255 -1.258176
v -0.389492 2.192669 -1.376113
v -0.389492 1.843256 -1.376113
v -0.389492 2.192669 -1.310362
v -0.389492 2.192669 -1.296247
v -0.372597 2.192669 -1.350539
v -0.290785 1.843256 -1.350539
v -0.372597 1.843256 -1.350539
v -0.290785 2.192669 -1.350539
v -0.389492 1.843256 -1.310362
v -0.389492 1.843256 -1.296247
v -0.290785 2.192669 -1.376113
v -0.290785 1.843256 -1.376113
v -0.290785 2.192669 -1.258176
v -0.290785 1.843256 -1.258176
v -0.372597 1.843256 -1.376113
v -0.372597 2.192669 -1.376113
v -0.372597 1.843256 -1.296247
v -0.372597 2.192669 -1.296247
v -0.217574 1.843256 -1.376113
v -0.217574 2.192669 -1.376113
v -0.217574 1.843256 -1.258176
v -0.217574 2.192669 -1.258176
vn -1.0000 -0.0000 -0.0000
vn -0.0000 -0.0000 -1.0000
vn 1.0000 -0.0000 -0.0000
vn -0.0000 -0.0000 1.0000
vn -0.0000 -0.2588 0.9659
vn -0.0000 -0.7071 0.7071
vn -0.0000 -0.9659 0.2588
vn -0.0000 0.9659 0.2588
vn -0.0000 0.7071 0.7071
vn 0.2588 -0.0000 0.9659
vn 0.7071 -0.0000 0.7071
vn 0.9659 -0.0000 0.2588
vn -0.2588 -0.0000 0.9659
vn -0.7071 -0.0000 0.7071
vn -0.9659 -0.0000 0.2588
vn -0.0000 0.2588 0.9659
vn -0.0000 -1.0000 -0.0000
vn -0.0000 0.3668 -0.9303
vn 0.2000 -0.0000 -0.9798
vn -0.0000 -0.3668 -0.9303
vn -0.3668 -0.0000 -0.9303
vn -0.1960 -0.0000 -0.9806
vn -0.0000 -0.3618 -0.9323
vn -0.0000 0.3618 -0.9323
vn 0.3618 -0.0000 -0.9323
vn -0.0000 -0.9634 -0.2680
vn -0.0000 -0.8122 -0.5833
vn -0.0000 -0.1951 -0.9808
vn -0.0000 -0.5556 -0.8315
vn -0.0000 0.1951 -0.9808
vn -0.0000 0.8315 -0.5556
vn -0.0000 0.5556 -0.8315
vn 0.1951 -0.0000 -0.9808
vn 0.5556 -0.0000 -0.8315
vn 0.8315 -0.0000 -0.5556
vn 0.9808 -0.0000 -0.1951
vn -0.1951 -0.0000 -0.9808
vn -0.5556 -0.0000 -0.8315
vn -0.8315 -0.0000 -0.5556
vn -0.9808 -0.0000 -0.1951
vn -0.0000 1.0000 -0.0000
vn -0.0000 0.9808 -0.1951
vt 0.201928 0.591105
vt 0.002065 0.591105
vt 0.002065 0.455648
vt 0.201928 0.455648
vt 0.224824 0.697214
vt 0.398284 0.698035
vt 0.399713 0.911351
vt 0.223458 0.910811
vt 0.201928 0.997477
vt 0.002065 0.997477
vt 0.002065 0.862020
vt 0.201928 0.862020
vt 0.958508 0.084913
vt 0.958103 0.907099
vt 0.951581 0.916785
vt 0.951958 0.075196
vt 0.944383 0.929578
vt 0.945127 0.062572
vt 0.937335 0.944797
vt 0.937335 0.046862
vt 0.986218 0.066809
vt 0.985620 0.925433
vt 0.978351 0.918203
vt 0.979150 0.073984
vt 0.971703 0.912259
vt 0.972133 0.080073
vt 0.965696 0.086089
vt 0.965423 0.906193
vt 0.625000 1.000000
vt 0.625000 0.750000
vt 0.625000 0.750000
vt 0.625000 1.000000
vt 0.972232 0.041499
vt 0.547763 0.041499
vt 0.547763 -0.000094
vt 0.641432 -0.000094
vt 0.972232 -0.000094
vt 0.640919 0.982914
vt 0.550150 0.982914
vt 0.550150 0.963820
vt 0.971312 0.963820
vt 0.971312 0.982914
vt 0.223659 0.457850
vt 0.399493 0.458394
vt 0.398137 0.671294
vt 0.225038 0.670476
vt 0.411549 0.684732
vt 0.413170 0.935803
vt 0.209965 0.935403
vt 0.211592 0.683958
vt 0.210023 0.432906
vt 0.413170 0.433314
vt 0.739508 0.253978
vt 0.741316 0.034419
vt 0.745194 0.028328
vt 0.746138 0.253992
vt 0.743298 0.481028
vt 0.739465 0.474937
vt 0.735821 0.470333
vt 0.737633 0.039009
vt 0.730291 0.046275
vt 0.733833 0.042928
vt 0.732090 0.466521
vt 0.728466 0.463126
vt 0.717384 0.464073
vt 0.719174 0.045110
vt 0.722630 0.047167
vt 0.720893 0.462116
vt 0.715649 0.043123
vt 0.713835 0.466048
vt 0.709956 0.468125
vt 0.711906 0.041075
vt 0.707732 0.038632
vt 0.705858 0.470553
vt 0.967083 0.513678
vt 0.706900 0.257807
vt 0.745933 0.027182
vt 0.746859 0.253994
vt 0.744021 0.482003
vt 0.706831 0.038114
vt 0.707679 0.038608
vt 0.705059 0.471079
vt 0.705785 0.257805
vt 0.706517 0.257806
vt 0.705804 0.470576
vt 0.469972 0.999955
vt 0.339147 0.999955
vt 0.208322 0.999955
vt 0.208322 0.851719
vt 0.469972 0.851719
vt 0.233512 0.046371
vt 0.205676 0.054335
vt 0.103094 0.046613
vt 0.075510 0.037741
vt 0.027302 0.020961
vt 0.038689 0.054866
vt 0.053151 0.068817
vt 0.107417 0.057842
vt 0.203756 0.062627
vt 0.224937 0.075114
vt 0.085923 0.066296
vt 0.265844 0.082441
vt 0.236296 0.058208
vt 0.076552 0.047999
vt 0.269517 0.020961
vt 0.298190 0.057051
vt 0.116444 0.064807
vt 0.115536 0.051624
vt 0.119769 0.049866
vt 0.194669 0.055170
vt 0.194318 0.068781
vt 0.190750 0.053343
vt 0.095621 0.114255
vt 0.074890 0.112265
vt 0.261309 0.115777
vt 0.260083 0.103547
vt 0.257961 0.090685
vt 0.259683 0.101689
vt 0.259142 0.114463
vt 0.301702 0.119980
vt 0.086000 0.138789
vt 0.095820 0.139298
vt 0.271751 0.123082
vt 0.099434 0.128391
vt 0.097251 0.111584
vt 0.264981 0.094159
vt 0.098966 0.103786
vt 0.098045 0.115853
vt 0.269640 0.139298
vt 0.249258 0.097303
vt 0.247200 0.098495
vt 0.018947 0.118131
vt 0.083603 0.134155
vt 0.055310 0.094160
s 0
f 1/1/1 2/2/1 34/3/1 35/4/1
f 27/5/2 28/6/2 8/7/2 7/8/2
f 32/9/3 31/10/3 6/11/3 5/12/3
f 5/12/4 6/11/4 2/2/4 1/1/4
f 12/13/5 15/14/5 17/15/5 14/16/5
f 14/16/6 17/15/6 18/17/6 13/18/6
f 13/18/7 18/17/7 16/19/7 11/20/7
f 20/21/8 23/22/8 25/23/8 22/24/8
f 22/24/9 25/23/9 26/25/9 21/26/9
f 19/27/10 12/13/10 14/16/10 21/26/10
f 21/26/11 14/16/11 13/18/11 22/24/11
f 22/24/12 13/18/12 11/20/12 20/21/12
f 15/14/13 24/28/13 26/25/13 17/15/13
f 17/15/14 26/25/14 25/23/14 18/17/14
f 18/17/15 25/23/15 23/22/15 16/19/15
f 21/26/16 26/25/16 24/28/16 19/27/16
f 2/29/17 6/30/17 11/31/17 16/32/17
f 10/33/3 20/34/3 11/35/3 6/36/3 31/37/3
f 2/38/1 16/39/1 23/40/1 9/41/1 34/42/1
f 15/14/4 12/13/4 19/27/4 24/28/4
f 3/43/2 4/44/2 30/45/2 33/46/2
f 8/7/18 28/6/18 37/47/18 31/48/18
f 7/8/19 8/7/19 31/48/19 32/49/19
f 27/5/20 7/8/20 32/49/20 36/50/20
f 28/6/21 27/5/21 36/50/21 37/47/21
f 4/44/22 3/43/22 35/51/22 34/52/22
f 3/43/23 33/46/23 36/50/23 35/51/23
f 30/45/24 4/44/24 34/52/24 37/47/24
f 33/46/25 30/45/25 37/47/25 36/50/25
f 39/53/26 44/54/26 41/55/26 38/56/26 57/57/26 60/58/26
f 59/59/27 43/60/27 44/54/27 39/53/27 60/58/27
f 40/61/28 42/62/28 58/63/28 56/64/28
f 58/63/29 42/62/29 43/60/29 59/59/29
f 53/65/30 50/66/30 47/67/30 51/68/30
f 49/69/31 54/70/31 55/71/31 48/72/31
f 54/70/32 49/69/32 50/66/32 53/65/32
f 40/61/33 47/67/33 50/66/33 42/62/33
f 42/62/34 50/66/34 49/69/34 43/60/34
f 43/60/35 49/69/35 48/72/35 44/54/35
f 44/54/36 48/72/36 46/73/36 41/55/36
f 51/68/37 56/64/37 58/63/37 53/65/37
f 53/65/38 58/63/38 59/59/38 54/70/38
f 54/70/39 59/59/39 60/58/39 55/71/39
f 55/71/40 60/58/40 57/57/40 52/74/40
f 9/41/41 23/40/41 20/34/41 10/33/41 29/75/41
f 48/72/42 55/71/42 52/74/42 45/76/42 46/73/42
f 40/61/2 56/64/2 51/68/2 47/67/2
f 31/77/41 37/78/41 38/56/41 41/55/41
f 37/78/41 34/79/41 57/57/41 38/56/41
f 10/80/1 31/77/1 41/55/1 46/81/1
f 9/82/17 29/83/17 45/84/17 52/85/17
f 29/83/17 10/80/17 46/81/17 45/84/17
f 34/79/3 9/82/3 52/85/3 57/57/3
f 35/86/17 36/87/17 32/88/17 5/89/17 1/90/17
f 67/91/4 66/92/4 68/93/4 65/94/4
f 65/94/41 78/95/41 64/96/41 63/97/41
f 71/98/2 72/99/2 75/100/2 76/101/2
f 69/102/17 67/91/17 75/100/17 62/103/17
f 65/94/41 63/97/41 61/104/41 76/101/41
f 78/95/2 77/105/2 70/106/2 64/96/2
f 80/107/17 71/98/17 73/108/17 82/109/17
f 74/110/3 73/108/3 68/93/3 66/92/3
f 80/107/2 79/111/2 72/99/2 71/98/2
f 72/99/41 79/111/41 81/112/41 74/110/41
f 68/93/17 71/98/17 76/101/17 65/94/17
f 73/108/4 74/110/4 81/112/4 82/109/4
f 77/105/17 67/91/17 69/102/17 70/106/17
f 67/91/41 75/100/41 72/99/41 66/92/41
f 82/109/1 81/112/1 79/111/1 80/107/1
f 76/101/2 75/100/2 62/103/2 61/104/2
f 67/91/3 77/105/3 78/95/3 65/94/3
f 70/106/1 69/102/1 63/97/1 64/96/1
f 62/103/3 69/102/3 63/97/3 61/104/3
f 89/113/4 88/114/4 90/115/4 87/116/4
f 87/116/17 100/117/17 86/118/17 85/119/17
f 93/120/2 94/121/2 97/122/2 98/123/2
f 91/124/41 89/113/41 97/122/41 84/125/41
f 87/116/17 85/119/17 83/126/17 98/123/17
f 100/117/2 99/127/2 92/128/2 86/118/2
f 102/129/41 93/120/41 95/130/41 104/131/41
f 96/132/1 95/130/1 90/115/1 88/114/1
f 102/129/2 101/133/2 94/121/2 93/120/2
f 94/121/17 101/133/17 103/134/17 96/132/17
f 90/115/41 93/120/41 98/123/41 87/116/41
f 95/130/4 96/132/4 103/134/4 104/131/4
f 99/127/41 89/113/41 91/124/41 92/128/41
f 89/113/17 97/122/17 94/121/17 88/114/17
f 104/131/3 103/134/3 101/133/3 102/129/3
f 98/123/2 97/122/2 84/125/2 83/126/2
f 89/113/1 99/127/1 100/117/1 87/116/1
f 92/128/3 91/124/3 85/119/3 86/118/3
f 84/125/1 91/124/1 85/119/1 83/126/1
