# Blender 5.1.1
# www.blender.org
o Key
v -4.702715 0.071888 -1.882334
v -4.694944 0.170119 0.380977
v -4.679221 0.069575 -1.882334
v -4.652305 0.165919 0.380977
v -4.656630 0.062722 -1.882334
v -4.746016 0.153482 0.380977
v -4.635810 0.051593 -1.882334
v -4.708230 0.133285 0.380977
v -4.617561 0.036617 -1.882334
v -4.675110 0.106104 0.380977
v -4.602584 0.018368 -1.882334
v -4.647930 0.072984 0.380977
v -4.591456 -0.002452 -1.882334
v -4.627732 0.035198 0.380977
v -4.584603 -0.025043 -1.882334
v -4.615295 -0.005802 0.380977
v -4.582289 -0.048537 -1.882334
v -4.611095 -0.048441 0.380977
v -4.584603 -0.072031 -1.882334
v -4.615295 -0.091080 0.380977
v -4.591456 -0.094622 -1.882334
v -4.627732 -0.132080 0.380977
v -4.602584 -0.115442 -1.882334
v -4.647930 -0.169866 0.380977
v -4.617561 -0.133691 -1.882334
v -4.675110 -0.202986 0.380977
v -4.635810 -0.148668 -1.882334
v -4.708230 -0.230167 0.380977
v -4.656630 -0.159796 -1.882334
v -4.746016 -0.250364 0.380977
v -4.679221 -0.166649 -1.882334
v -4.652305 -0.262801 0.380977
v -4.702715 -0.168963 -1.882334
v -4.694944 -0.267001 0.380977
v -4.726209 -0.166649 -1.882334
v -4.737583 -0.262801 0.380977
v -4.748799 -0.159796 -1.882334
v -4.778583 -0.250364 0.380977
v -4.769619 -0.148668 -1.882334
v -4.724291 -0.230167 0.380977
v -4.787869 -0.133691 -1.882334
v -4.757411 -0.202986 0.380977
v -4.802845 -0.115442 -1.882334
v -4.784592 -0.169866 0.380977
v -4.813973 -0.094622 -1.882334
v -4.804788 -0.132080 0.380977
v -4.820827 -0.072031 -1.882334
v -4.817226 -0.091080 0.380977
v -4.823140 -0.048537 -1.882334
v -4.821425 -0.048441 0.380977
v -4.820827 -0.025043 -1.882334
v -4.817226 -0.005802 0.380977
v -4.813973 -0.002452 -1.882334
v -4.804788 0.035198 0.380977
v -4.802845 0.018368 -1.882334
v -4.784592 0.072984 0.380977
v -4.787869 0.036617 -1.882334
v -4.757411 0.106104 0.380977
v -4.769619 0.051593 -1.882334
v -4.724291 0.133285 0.380977
v -4.748799 0.062722 -1.882334
v -4.778583 0.153482 0.380977
v -4.726209 0.069575 -1.882334
v -4.737583 0.165919 0.380977
v -4.694944 0.170119 -0.033761
v -4.652305 0.165919 -0.033761
v -4.611304 0.153482 -0.033761
v -4.573518 0.133285 -0.033761
v -4.540399 0.106104 -0.033761
v -4.513218 0.072984 -0.033761
v -4.493021 0.035198 -0.033761
v -4.480584 -0.005802 -0.033761
v -4.476384 -0.048441 -0.033761
v -4.480584 -0.091080 -0.033761
v -4.493021 -0.132080 -0.033761
v -4.513218 -0.169866 -0.033761
v -4.540399 -0.202986 -0.033761
v -4.573518 -0.230167 -0.033761
v -4.611304 -0.250364 -0.033761
v -4.652305 -0.262801 -0.033761
v -4.694944 -0.267001 -0.033761
v -4.737583 -0.262801 -0.033761
v -4.778583 -0.250364 -0.033761
v -4.816369 -0.230167 -0.033761
v -4.849489 -0.202986 -0.033761
v -4.876670 -0.169866 -0.033761
v -4.896866 -0.132080 -0.033761
v -4.909304 -0.091080 -0.033761
v -4.913503 -0.048441 -0.033761
v -4.909304 -0.005802 -0.033761
v -4.896866 0.035198 -0.033761
v -4.876670 0.072984 -0.033761
v -4.849489 0.106104 -0.033761
v -4.816369 0.133285 -0.033761
v -4.778583 0.153482 -0.033761
v -4.737583 0.165919 -0.033761
v -4.693726 0.155766 0.014167
v -4.655092 0.151961 0.014167
v -4.617943 0.140692 0.014167
v -4.583706 0.122392 0.014167
v -4.553697 0.097764 0.014167
v -4.529069 0.067755 0.014167
v -4.510769 0.033518 0.014167
v -4.499500 -0.003631 0.014167
v -4.495695 -0.042265 0.014167
v -4.499500 -0.080899 0.014167
v -4.510769 -0.118048 0.014167
v -4.529069 -0.152285 0.014167
v -4.553697 -0.182294 0.014167
v -4.583706 -0.206922 0.014167
v -4.617943 -0.225222 0.014167
v -4.655092 -0.236491 0.014167
v -4.693726 -0.240296 0.014167
v -4.732360 -0.236491 0.014167
v -4.769509 -0.225222 0.014167
v -4.803746 -0.206922 0.014167
v -4.833755 -0.182294 0.014167
v -4.858383 -0.152285 0.014167
v -4.876683 -0.118048 0.014167
v -4.887952 -0.080899 0.014167
v -4.891757 -0.042265 0.014167
v -4.887952 -0.003631 0.014167
v -4.876683 0.033518 0.014167
v -4.858383 0.067755 0.014167
v -4.833755 0.097764 0.014167
v -4.803746 0.122392 0.014167
v -4.769509 0.140692 0.014167
v -4.732360 0.151961 0.014167
v -4.654755 0.153426 -0.062509
v -4.616408 0.141793 -0.062509
v -4.581068 0.122904 -0.062509
v -4.550092 0.097482 -0.062509
v -4.524670 0.066506 -0.062509
v -4.505780 0.031165 -0.062509
v -4.494147 -0.007182 -0.062509
v -4.490220 -0.047061 -0.062509
v -4.494147 -0.086941 -0.062509
v -4.505780 -0.125287 -0.062509
v -4.524670 -0.160628 -0.062509
v -4.550092 -0.191604 -0.062509
v -4.581068 -0.217026 -0.062509
v -4.616408 -0.235916 -0.062509
v -4.654755 -0.247548 -0.062509
v -4.694634 -0.251476 -0.062509
v -4.734514 -0.247548 -0.062509
v -4.772861 -0.235916 -0.062509
v -4.808201 -0.217026 -0.062509
v -4.839178 -0.191604 -0.062509
v -4.864599 -0.160628 -0.062509
v -4.883489 -0.125287 -0.062509
v -4.895122 -0.086941 -0.062509
v -4.899049 -0.047061 -0.062509
v -4.895122 -0.007182 -0.062509
v -4.883489 0.031165 -0.062509
v -4.864599 0.066506 -0.062509
v -4.839178 0.097482 -0.062509
v -4.808201 0.122904 -0.062509
v -4.772861 0.141793 -0.062509
v -4.734514 0.153426 -0.062509
v -4.694634 0.157354 -0.062509
v -4.654755 0.153426 -0.145055
v -4.616408 0.141793 -0.145055
v -4.581068 0.122904 -0.145055
v -4.550092 0.097482 -0.145055
v -4.524670 0.066506 -0.145055
v -4.505780 0.031165 -0.145055
v -4.494147 -0.007182 -0.145055
v -4.490220 -0.047061 -0.145055
v -4.494147 -0.086941 -0.145055
v -4.505780 -0.125287 -0.145055
v -4.524670 -0.160628 -0.145055
v -4.550092 -0.191604 -0.145055
v -4.581068 -0.217026 -0.145055
v -4.616408 -0.235916 -0.145055
v -4.654755 -0.247548 -0.145055
v -4.694634 -0.251476 -0.145055
v -4.734514 -0.247548 -0.145055
v -4.772861 -0.235916 -0.145055
v -4.808201 -0.217026 -0.145055
v -4.839178 -0.191604 -0.145055
v -4.864599 -0.160628 -0.145055
v -4.883489 -0.125287 -0.145055
v -4.895122 -0.086941 -0.145055
v -4.899049 -0.047061 -0.145055
v -4.895122 -0.007182 -0.145055
v -4.883489 0.031165 -0.145055
v -4.864599 0.066506 -0.145055
v -4.839178 0.097482 -0.145055
v -4.808201 0.122904 -0.145055
v -4.772861 0.141793 -0.145055
v -4.734514 0.153426 -0.145055
v -4.694634 0.157354 -0.145055
v -4.652305 0.165919 -0.205542
v -4.611304 0.153482 -0.205542
v -4.573518 0.133285 -0.205542
v -4.540399 0.106104 -0.205542
v -4.513218 0.072984 -0.205542
v -4.493021 0.035198 -0.205542
v -4.480584 -0.005802 -0.205542
v -4.476384 -0.048441 -0.205542
v -4.480584 -0.091080 -0.205542
v -4.493021 -0.132080 -0.205542
v -4.513218 -0.169866 -0.205542
v -4.540399 -0.202986 -0.205542
v -4.573518 -0.230167 -0.205542
v -4.611304 -0.250364 -0.205542
v -4.652305 -0.262801 -0.205542
v -4.694944 -0.267001 -0.205542
v -4.737583 -0.262801 -0.205542
v -4.778583 -0.250364 -0.205542
v -4.816369 -0.230167 -0.205542
v -4.849489 -0.202986 -0.205542
v -4.876670 -0.169866 -0.205542
v -4.896866 -0.132080 -0.205542
v -4.909304 -0.091080 -0.205542
v -4.913503 -0.048441 -0.205542
v -4.909304 -0.005802 -0.205542
v -4.896866 0.035198 -0.205542
v -4.876670 0.072984 -0.205542
v -4.849489 0.106104 -0.205542
v -4.816369 0.133285 -0.205542
v -4.778583 0.153482 -0.205542
v -4.737583 0.165919 -0.205542
v -4.694944 0.170119 -0.205542
v -4.679221 0.069575 -0.278403
v -4.656630 0.062722 -0.278403
v -4.635810 0.051593 -0.278403
v -4.617561 0.036617 -0.278403
v -4.602584 0.018368 -0.278403
v -4.591456 -0.002452 -0.278403
v -4.584603 -0.025043 -0.278403
v -4.582289 -0.048537 -0.278403
v -4.584603 -0.072031 -0.278403
v -4.591456 -0.094622 -0.278403
v -4.602584 -0.115442 -0.278403
v -4.617561 -0.133691 -0.278403
v -4.635810 -0.148668 -0.278403
v -4.656630 -0.159796 -0.278403
v -4.679221 -0.166649 -0.278403
v -4.702715 -0.168963 -0.278403
v -4.726209 -0.166649 -0.278403
v -4.748799 -0.159796 -0.278403
v -4.769619 -0.148668 -0.278403
v -4.787869 -0.133691 -0.278403
v -4.802845 -0.115442 -0.278403
v -4.813973 -0.094622 -0.278403
v -4.820827 -0.072031 -0.278403
v -4.823140 -0.048537 -0.278403
v -4.820827 -0.025043 -0.278403
v -4.813973 -0.002452 -0.278403
v -4.802845 0.018368 -0.278403
v -4.787869 0.036617 -0.278403
v -4.769619 0.051593 -0.278403
v -4.748799 0.062722 -0.278403
v -4.726209 0.069575 -0.278403
v -4.702715 0.071888 -0.278403
v -4.693726 0.155766 0.066973
v -4.655092 0.151961 0.066973
v -4.617943 0.140692 0.066973
v -4.583706 0.122392 0.066973
v -4.553697 0.097764 0.066973
v -4.529069 0.067755 0.066973
v -4.510769 0.033518 0.066973
v -4.499500 -0.003631 0.066973
v -4.495695 -0.042265 0.066973
v -4.499500 -0.080899 0.066973
v -4.510769 -0.118048 0.066973
v -4.529069 -0.152285 0.066973
v -4.553697 -0.182294 0.066973
v -4.583706 -0.206922 0.066973
v -4.617943 -0.225222 0.066973
v -4.655092 -0.236491 0.066973
v -4.693726 -0.240296 0.066973
v -4.732360 -0.236491 0.066973
v -4.769509 -0.225222 0.066973
v -4.803746 -0.206922 0.066973
v -4.833755 -0.182294 0.066973
v -4.858383 -0.152285 0.066973
v -4.876683 -0.118048 0.066973
v -4.887952 -0.080899 0.066973
v -4.891757 -0.042265 0.066973
v -4.887952 -0.003631 0.066973
v -4.876683 0.033518 0.066973
v -4.858383 0.067755 0.066973
v -4.833755 0.097764 0.066973
v -4.803746 0.122392 0.066973
v -4.769509 0.140692 0.066973
v -4.732360 0.151961 0.066973
v -4.689100 0.108432 0.279212
v -4.659104 0.105478 0.279212
v -4.630261 0.096728 0.279212
v -4.603680 0.082520 0.279212
v -4.580380 0.063399 0.279212
v -4.561260 0.040100 0.279212
v -4.547051 0.013518 0.279212
v -4.538302 -0.015324 0.279212
v -4.535348 -0.045320 0.279212
v -4.538302 -0.075315 0.279212
v -4.547051 -0.104158 0.279212
v -4.561260 -0.130740 0.279212
v -4.580380 -0.154039 0.279212
v -4.603680 -0.173160 0.279212
v -4.630261 -0.187368 0.279212
v -4.659104 -0.196117 0.279212
v -4.689100 -0.199072 0.279212
v -4.719096 -0.196117 0.279212
v -4.747938 -0.187368 0.279212
v -4.774519 -0.173160 0.279212
v -4.797819 -0.154039 0.279212
v -4.816939 -0.130740 0.279212
v -4.831147 -0.104158 0.279212
v -4.839898 -0.075315 0.279212
v -4.842851 -0.045320 0.279212
v -4.839898 -0.015324 0.279212
v -4.831147 0.013518 0.279212
v -4.816939 0.040100 0.279212
v -4.797819 0.063399 0.279212
v -4.774519 0.082520 0.279212
v -4.747938 0.096728 0.279212
v -4.719096 0.105478 0.279212
v -4.772577 -0.602691 -1.521901
v -4.772577 -0.110524 -1.521901
v -4.772577 -0.602691 -1.834864
v -4.772577 -0.110524 -1.834864
v -4.639490 -0.602691 -1.521901
v -4.639490 -0.110524 -1.521901
v -4.639490 -0.602691 -1.834864
v -4.639490 -0.110524 -1.834864
v -4.772577 -0.553147 -1.636564
v -4.772577 -0.110524 -1.636564
v -4.639490 -0.553147 -1.636564
v -4.639490 -0.110524 -1.636564
v -4.772577 -0.110524 -1.735976
v -4.639490 -0.553147 -1.735976
v -4.772577 -0.553147 -1.735976
v -4.639490 -0.110524 -1.735976
v -4.772577 -0.410925 -1.735976
v -4.772577 -0.410925 -1.636564
v -4.639490 -0.410925 -1.636564
v -4.639490 -0.410925 -1.735976
v -4.828560 -0.038861 0.875518
v -4.828560 0.506266 0.873116
v -4.828560 -0.054774 0.320873
v -4.828560 0.503874 0.324328
v -4.590969 -0.038861 0.875518
v -4.590969 0.506266 0.873116
v -4.590969 -0.054774 0.320873
v -4.590969 0.503874 0.324328
v -4.828560 -0.150640 0.600721
v -4.828560 0.598015 0.600721
v -4.590969 -0.150640 0.600721
v -4.590969 0.598015 0.600721
v -4.828560 0.569194 0.428893
v -4.590969 -0.118120 0.428893
v -4.828560 -0.118120 0.428893
v -4.590969 0.569194 0.428893
v -4.828560 -0.118120 0.772550
v -4.590969 0.569194 0.772550
v -4.828560 0.569194 0.772550
v -4.590969 -0.118120 0.772550
v -4.828560 0.225537 0.982824
v -4.828560 0.225537 0.232711
v -4.590969 0.225537 0.232711
v -4.590969 0.225537 0.982824
v -4.828560 -0.065234 0.879381
v -4.828560 -0.610361 0.881783
v -4.590969 0.225537 0.397477
v -4.828560 0.225537 0.397477
v -4.828560 0.225537 0.810995
v -4.590969 0.225537 0.810995
v -4.828560 0.397365 0.944378
v -4.828560 0.397365 0.257064
v -4.590969 0.397365 0.257064
v -4.590969 0.397365 0.944378
v -4.590969 0.426187 0.600721
v -4.828560 0.426187 0.600721
v -4.590969 0.397365 0.428893
v -4.828560 0.397365 0.428893
v -4.828560 0.397365 0.772550
v -4.590969 0.397365 0.772550
v -4.828560 0.053708 0.257064
v -4.590969 0.053708 0.257064
v -4.590969 0.053708 0.944378
v -4.590969 0.021189 0.600721
v -4.828560 0.021189 0.600721
v -4.590969 0.053708 0.428893
v -4.828560 0.053708 0.428893
v -4.828560 0.053708 0.772550
v -4.590969 0.053708 0.772550
v -4.828560 0.053708 0.944378
v -4.828560 -0.626274 0.327138
v -4.828560 -0.067626 0.330593
v -4.590969 -0.610361 0.881783
v -4.590969 -0.065234 0.879381
v -4.590969 -0.626274 0.327138
v -4.590969 -0.067626 0.330593
v -4.828560 -0.722140 0.606986
v -4.828560 0.026515 0.606986
v -4.590969 -0.722140 0.606986
v -4.590969 0.026515 0.606986
v -4.828560 -0.002306 0.435158
v -4.590969 -0.689620 0.435158
v -4.828560 -0.689620 0.435158
v -4.590969 -0.002306 0.435158
v -4.828560 -0.689620 0.778815
v -4.590969 -0.002306 0.778815
v -4.828560 -0.002306 0.778815
v -4.590969 -0.689620 0.778815
v -4.828560 -0.345963 0.989089
v -4.828560 -0.345963 0.238976
v -4.590969 -0.345963 0.238976
v -4.590969 -0.345963 0.989089
v -4.590969 -0.345963 0.403742
v -4.828560 -0.345963 0.403742
v -4.828560 -0.345963 0.817260
v -4.590969 -0.345963 0.817260
v -4.828560 -0.174135 0.950644
v -4.828560 -0.174135 0.263329
v -4.590969 -0.174135 0.263329
v -4.590969 -0.174135 0.950644
v -4.590969 -0.145313 0.606986
v -4.828560 -0.145313 0.606986
v -4.590969 -0.174135 0.435158
v -4.828560 -0.174135 0.435158
v -4.828560 -0.174135 0.778815
v -4.590969 -0.174135 0.778815
v -4.828560 -0.517792 0.263329
v -4.590969 -0.517792 0.263329
v -4.590969 -0.517792 0.950644
v -4.590969 -0.550311 0.606986
v -4.828560 -0.550311 0.606986
v -4.590969 -0.517792 0.435158
v -4.828560 -0.517792 0.435158
v -4.828560 -0.517792 0.778815
v -4.590969 -0.517792 0.778815
v -4.828560 -0.517792 0.950644
v -4.828560 -0.324996 1.405651
v -4.828560 0.220130 1.403248
v -4.828560 -0.340909 0.851006
v -4.828560 0.217739 0.854461
v -4.590969 -0.324996 1.405651
v -4.590969 0.220130 1.403248
v -4.590969 -0.340909 0.851006
v -4.590969 0.217739 0.854461
v -4.828560 -0.436775 1.130854
v -4.828560 0.311880 1.130854
v -4.590969 -0.436775 1.130854
v -4.590969 0.311880 1.130854
v -4.828560 0.283059 0.959025
v -4.590969 -0.404256 0.959025
v -4.828560 -0.404256 0.959025
v -4.590969 0.283059 0.959025
v -4.828560 -0.404256 1.302682
v -4.590969 0.283059 1.302682
v -4.828560 0.283059 1.302682
v -4.590969 -0.404256 1.302682
v -4.828560 -0.060598 1.512957
v -4.828560 -0.060598 0.762844
v -4.590969 -0.060598 0.762844
v -4.590969 -0.060598 1.512957
v -4.590969 -0.060598 0.927610
v -4.828560 -0.060598 0.927610
v -4.828560 -0.060598 1.341128
v -4.590969 -0.060598 1.341128
v -4.828560 0.111230 1.474511
v -4.828560 0.111230 0.787197
v -4.590969 0.111230 0.787197
v -4.590969 0.111230 1.474511
v -4.590969 0.140052 1.130854
v -4.828560 0.140052 1.130854
v -4.590969 0.111230 0.959025
v -4.828560 0.111230 0.959025
v -4.828560 0.111230 1.302682
v -4.590969 0.111230 1.302682
v -4.828560 -0.232427 0.787197
v -4.590969 -0.232427 0.787197
v -4.590969 -0.232427 1.474511
v -4.590969 -0.264947 1.130854
v -4.828560 -0.264947 1.130854
v -4.590969 -0.232427 0.959025
v -4.828560 -0.232427 0.959025
v -4.828560 -0.232427 1.302682
v -4.590969 -0.232427 1.302682
v -4.828560 -0.232427 1.474511
vn -0.0000 0.7279 -0.6857
vn -0.0026 0.8833 0.4688
vn 0.1420 0.7139 -0.6857
vn 0.8219 0.3578 0.4433
vn 0.2785 0.6725 -0.6857
vn 0.4188 -0.0592 0.9061
vn 0.4044 0.6052 -0.6857
vn 0.3547 0.5971 0.7194
vn 0.5147 0.5147 -0.6857
vn 0.4134 0.4541 0.7892
vn 0.6052 0.4044 -0.6857
vn 0.4444 0.3218 0.8360
vn 0.6725 0.2785 -0.6857
vn 0.4598 0.2046 0.8641
vn 0.7139 0.1420 -0.6857
vn 0.4673 0.0991 0.8785
vn 0.7279 -0.0000 -0.6857
vn 0.4707 -0.0008 0.8823
vn 0.7139 -0.1420 -0.6857
vn 0.4710 -0.1014 0.8763
vn 0.6725 -0.2785 -0.6857
vn 0.4670 -0.2094 0.8591
vn 0.6052 -0.4044 -0.6857
vn 0.4542 -0.3306 0.8273
vn 0.5147 -0.5147 -0.6857
vn 0.4242 -0.4676 0.7755
vn 0.4044 -0.6052 -0.6857
vn 0.3639 -0.6138 0.7005
vn 0.2785 -0.6725 -0.6857
vn 0.4141 0.0631 0.9080
vn 0.1420 -0.7139 -0.6857
vn 0.8251 -0.3722 0.4251
vn -0.0000 -0.7279 -0.6857
vn -0.0025 -0.8930 0.4500
vn -0.1420 -0.7139 -0.6857
vn -0.1767 -0.8770 0.4469
vn -0.2785 -0.6725 -0.6857
vn -0.8940 -0.3922 0.2169
vn -0.4044 -0.6052 -0.6857
vn -0.7238 0.0259 0.6896
vn -0.5147 -0.5147 -0.6857
vn -0.5151 -0.5518 0.6559
vn -0.6052 -0.4044 -0.6857
vn -0.5831 -0.4144 0.6987
vn -0.6725 -0.2785 -0.6857
vn -0.6255 -0.2748 0.7302
vn -0.7139 -0.1420 -0.6857
vn -0.6474 -0.1369 0.7498
vn -0.7279 -0.0000 -0.6857
vn -0.6527 -0.0012 0.7576
vn -0.7139 0.1420 -0.6857
vn -0.6431 0.1335 0.7540
vn -0.6725 0.2785 -0.6857
vn -0.6179 0.2691 0.7388
vn -0.6052 0.4044 -0.6857
vn -0.5736 0.4055 0.7117
vn -0.5147 0.5147 -0.6857
vn -0.5057 0.5399 0.6729
vn -0.4044 0.6052 -0.6857
vn -0.7288 -0.0149 0.6846
vn -0.2785 0.6725 -0.6857
vn -0.8921 0.3866 0.2340
vn -0.1420 0.7139 -0.6857
vn -0.1754 0.8677 0.4651
vn -0.0010 0.9981 -0.0621
vn 0.1947 0.9789 -0.0627
vn 0.3829 0.9217 -0.0618
vn 0.5562 0.8289 -0.0595
vn 0.7080 0.7040 -0.0557
vn 0.8324 0.5518 -0.0508
vn 0.9246 0.3784 -0.0450
vn 0.9810 0.1904 -0.0385
vn 0.9995 -0.0049 -0.0316
vn 0.9795 -0.1999 -0.0247
vn 0.9219 -0.3871 -0.0181
vn 0.8289 -0.5593 -0.0118
vn 0.7042 -0.7099 -0.0063
vn 0.5527 -0.8333 -0.0016
vn 0.3802 -0.9249 0.0021
vn 0.1933 -0.9811 0.0048
vn -0.0009 -1.0000 0.0064
vn -0.1951 -0.9808 0.0069
vn -0.3819 -0.9242 0.0062
vn -0.5541 -0.8325 0.0044
vn -0.7053 -0.7090 0.0015
vn -0.8296 -0.5584 -0.0024
vn -0.9223 -0.3864 -0.0072
vn -0.9798 -0.1995 -0.0129
vn -0.9998 -0.0048 -0.0191
vn -0.9814 0.1901 -0.0258
vn -0.9253 0.3779 -0.0327
vn -0.8334 0.5512 -0.0395
vn -0.7094 0.7033 -0.0459
vn -0.5579 0.8283 -0.0516
vn -0.3848 0.9213 -0.0564
vn -0.1967 0.9786 -0.0599
vn 0.0008 0.9892 0.1463
vn 0.1930 0.9704 0.1451
vn 0.3778 0.9142 0.1463
vn 0.5481 0.8229 0.1497
vn 0.6970 0.7001 0.1552
vn 0.8189 0.5505 0.1626
vn 0.9090 0.3800 0.1715
vn 0.9638 0.1953 0.1815
vn 0.9814 0.0037 0.1922
vn 0.9611 -0.1874 0.2031
vn 0.9039 -0.3705 0.2139
vn 0.8122 -0.5387 0.2241
vn 0.6897 -0.6855 0.2333
vn 0.5412 -0.8055 0.2413
vn 0.3725 -0.8943 0.2477
vn 0.1901 -0.9488 0.2525
vn 0.0007 -0.9669 0.2553
vn -0.1886 -0.9480 0.2563
vn -0.3706 -0.8930 0.2553
vn -0.5387 -0.8038 0.2524
vn -0.6864 -0.6837 0.2476
vn -0.8083 -0.5371 0.2412
vn -0.8995 -0.3694 0.2332
vn -0.9565 -0.1869 0.2239
vn -0.9769 0.0036 0.2137
vn -0.9596 0.1947 0.2029
vn -0.9053 0.3790 0.1920
vn -0.8157 0.5493 0.1813
vn -0.6944 0.6989 0.1713
vn -0.5459 0.8219 0.1624
vn -0.3761 0.9135 0.1551
vn -0.1914 0.9700 0.1496
vn 0.1908 0.9590 -0.2096
vn 0.3739 0.9034 -0.2099
vn 0.5427 0.8130 -0.2110
vn 0.6904 0.6914 -0.2128
vn 0.8115 0.5433 -0.2152
vn 0.9012 0.3745 -0.2182
vn 0.9561 0.1915 -0.2217
vn 0.9743 0.0013 -0.2254
vn 0.9549 -0.1886 -0.2293
vn 0.8989 -0.3709 -0.2331
vn 0.8085 -0.5387 -0.2369
vn 0.6872 -0.6856 -0.2403
vn 0.5397 -0.8060 -0.2433
vn 0.3716 -0.8953 -0.2457
vn 0.1895 -0.9501 -0.2476
vn 0.0003 -0.9686 -0.2488
vn -0.1889 -0.9498 -0.2492
vn -0.3708 -0.8947 -0.2489
vn -0.5386 -0.8052 -0.2479
vn -0.6858 -0.6848 -0.2463
vn -0.8069 -0.5380 -0.2439
vn -0.8970 -0.3704 -0.2411
vn -0.9529 -0.1883 -0.2377
vn -0.9722 0.0013 -0.2341
vn -0.9542 0.1912 -0.2302
vn -0.8994 0.3740 -0.2264
vn -0.8099 0.5427 -0.2226
vn -0.6891 0.6907 -0.2191
vn -0.5416 0.8124 -0.2159
vn -0.3731 0.9029 -0.2133
vn -0.1901 0.9587 -0.2114
vn 0.0003 0.9777 -0.2101
vn 0.1940 0.9754 0.1042
vn 0.3805 0.9189 0.1044
vn 0.5523 0.8270 0.1050
vn 0.7029 0.7034 0.1060
vn 0.8264 0.5528 0.1073
vn 0.9182 0.3809 0.1090
vn 0.9746 0.1945 0.1109
vn 0.9936 0.0007 0.1130
vn 0.9744 -0.1931 0.1151
vn 0.9178 -0.3794 0.1173
vn 0.8259 -0.5510 0.1194
vn 0.7023 -0.7015 0.1214
vn 0.5518 -0.8249 0.1231
vn 0.3801 -0.9165 0.1245
vn 0.1938 -0.9730 0.1256
vn 0.0002 -0.9920 0.1263
vn -0.1935 -0.9729 0.1265
vn -0.3797 -0.9164 0.1264
vn -0.5514 -0.8247 0.1258
vn -0.7018 -0.7013 0.1248
vn -0.8254 -0.5509 0.1235
vn -0.9172 -0.3793 0.1218
vn -0.9738 -0.1930 0.1199
vn -0.9930 0.0007 0.1179
vn -0.9741 0.1945 0.1157
vn -0.9176 0.3809 0.1135
vn -0.8259 0.5527 0.1114
vn -0.7024 0.7033 0.1094
vn -0.5519 0.8269 0.1077
vn -0.3801 0.9188 0.1063
vn -0.1937 0.9754 0.1052
vn 0.0002 0.9945 0.1045
vn 0.1841 0.9195 -0.3473
vn 0.3596 0.8649 -0.3502
vn 0.5210 0.7774 -0.3524
vn 0.6623 0.6604 -0.3539
vn 0.7781 0.5185 -0.3545
vn 0.8643 0.3568 -0.3544
vn 0.9177 0.1815 -0.3535
vn 0.9361 -0.0008 -0.3518
vn 0.9188 -0.1834 -0.3495
vn 0.8665 -0.3593 -0.3466
vn 0.7809 -0.5219 -0.3432
vn 0.6653 -0.6650 -0.3394
vn 0.5238 -0.7831 -0.3354
vn 0.3617 -0.8714 -0.3313
vn 0.1853 -0.9266 -0.3272
vn 0.0011 -0.9463 -0.3233
vn -0.1836 -0.9296 -0.3197
vn -0.3617 -0.8769 -0.3165
vn -0.5263 -0.7902 -0.3139
vn -0.6708 -0.6728 -0.3121
vn -0.7895 -0.5291 -0.3110
vn -0.8777 -0.3648 -0.3109
vn -0.9318 -0.1864 -0.3116
vn -0.9497 -0.0008 -0.3132
vn -0.9308 0.1846 -0.3156
vn -0.8758 0.3625 -0.3188
vn -0.7870 0.5259 -0.3225
vn -0.6681 0.6685 -0.3267
vn -0.5238 0.7849 -0.3311
vn -0.3598 0.8706 -0.3355
vn -0.1826 0.9226 -0.3398
vn 0.0011 0.9390 -0.3438
vn 0.1714 0.8688 -0.4646
vn 0.3370 0.8171 -0.4678
vn 0.4892 0.7342 -0.4707
vn 0.6223 0.6236 -0.4732
vn 0.7312 0.4895 -0.4752
vn 0.8120 0.3369 -0.4766
vn 0.8617 0.1716 -0.4775
vn 0.8785 -0.0000 -0.4778
vn 0.8617 -0.1717 -0.4774
vn 0.8121 -0.3369 -0.4765
vn 0.7313 -0.4895 -0.4750
vn 0.6224 -0.6237 -0.4729
vn 0.4893 -0.7344 -0.4703
vn 0.3371 -0.8173 -0.4674
vn 0.1714 -0.8690 -0.4642
vn -0.0015 -0.8875 -0.4607
vn -0.1749 -0.8720 -0.4572
vn -0.3423 -0.8227 -0.4538
vn -0.4970 -0.7416 -0.4506
vn -0.6330 -0.6315 -0.4478
vn -0.7449 -0.4967 -0.4454
vn -0.8282 -0.3424 -0.4437
vn -0.8795 -0.1746 -0.4426
vn -0.8969 -0.0000 -0.4423
vn -0.8795 0.1746 -0.4427
vn -0.8281 0.3423 -0.4439
vn -0.7448 0.4966 -0.4457
vn -0.6329 0.6313 -0.4481
vn -0.4969 0.7414 -0.4510
vn -0.3422 0.8225 -0.4542
vn -0.1749 0.8717 -0.4577
vn -0.0015 0.8873 -0.4612
vn -0.0006 0.9941 0.1088
vn 0.1933 0.9753 0.1067
vn 0.3799 0.9191 0.1044
vn 0.5520 0.8276 0.1020
vn 0.7031 0.7041 0.0996
vn 0.8271 0.5535 0.0972
vn 0.9194 0.3815 0.0951
vn 0.9764 0.1948 0.0932
vn 0.9958 0.0004 0.0917
vn 0.9768 -0.1940 0.0906
vn 0.9202 -0.3810 0.0899
vn 0.8281 -0.5533 0.0896
vn 0.7041 -0.7044 0.0899
vn 0.5530 -0.8282 0.0906
vn 0.3807 -0.9201 0.0918
vn 0.1937 -0.9766 0.0933
vn -0.0006 -0.9955 0.0952
vn -0.1949 -0.9760 0.0974
vn -0.3815 -0.9190 0.0997
vn -0.5533 -0.8267 0.1021
vn -0.7038 -0.7027 0.1045
vn -0.8271 -0.5518 0.1068
vn -0.9186 -0.3798 0.1089
vn -0.9749 -0.1934 0.1107
vn -0.9937 0.0004 0.1122
vn -0.9744 0.1941 0.1133
vn -0.9178 0.3803 0.1140
vn -0.8260 0.5519 0.1142
vn -0.7026 0.7024 0.1140
vn -0.5522 0.8260 0.1133
vn -0.3807 0.9179 0.1121
vn -0.1944 0.9747 0.1106
vn 0.0022 0.9862 -0.1658
vn 0.3407 0.9078 0.2444
vn 0.4769 0.8508 0.2205
vn 0.5648 0.7989 0.2068
vn 0.6922 0.6624 0.2864
vn 0.7904 0.5091 0.3408
vn 0.8606 0.3451 0.3745
vn 0.9033 0.1744 0.3919
vn 0.9184 0.0001 0.3956
vn 0.9057 -0.1746 0.3864
vn 0.8650 -0.3465 0.3630
vn 0.7959 -0.5122 0.3226
vn 0.6978 -0.6672 0.2607
vn 0.5688 -0.8041 0.1731
vn 0.4781 -0.8588 0.1842
vn 0.3400 -0.9139 0.2218
vn 0.0021 -0.9794 -0.2018
vn -0.1890 -0.9607 -0.2033
vn -0.6367 -0.7669 0.0810
vn -0.7078 -0.6913 0.1456
vn -0.7161 -0.6926 0.0870
vn -0.8306 -0.5389 0.1403
vn -0.9124 -0.3677 0.1796
vn -0.9610 -0.1860 0.2046
vn -0.9765 0.0004 0.2154
vn -0.9592 0.1865 0.2123
vn -0.9094 0.3673 0.1950
vn -0.8273 0.5375 0.1632
vn -0.7136 0.6907 0.1171
vn -0.7086 0.6838 0.1738
vn -0.6329 0.7682 0.0968
vn -0.1901 0.9672 -0.1683
vn -0.5589 -0.6930 0.4555
vn -0.5774 0.5774 0.5774
vn -0.5568 -0.7068 -0.4364
vn -0.5774 0.5774 -0.5774
vn 0.5589 -0.6930 0.4555
vn 0.5774 0.5774 0.5774
vn 0.5568 -0.7068 -0.4364
vn 0.5774 0.5774 -0.5774
vn -0.6019 -0.4386 -0.6673
vn -0.7071 0.7071 -0.0000
vn 0.6019 -0.4386 -0.6673
vn 0.7071 0.7071 -0.0000
vn 0.6058 -0.4180 0.6770
vn -0.6058 -0.4180 0.6770
vn -0.5774 -0.5774 0.5774
vn -0.5774 -0.5774 -0.5774
vn 0.5774 -0.5774 -0.5774
vn 0.5774 -0.5774 0.5774
vn -0.6775 -0.5158 0.5244
vn -0.6619 0.5354 0.5246
vn -0.6546 -0.5349 -0.5342
vn -0.6603 0.5324 -0.5298
vn 0.6775 -0.5158 0.5244
vn 0.6619 0.5354 0.5246
vn 0.6546 -0.5349 -0.5342
vn 0.6603 0.5324 -0.5298
vn -0.6676 -0.7446 -0.0000
vn -0.6717 0.7408 -0.0000
vn 0.6676 -0.7446 -0.0000
vn 0.6717 0.7408 -0.0000
vn -0.6658 0.6977 -0.2644
vn 0.6706 -0.6946 -0.2604
vn -0.6706 -0.6946 -0.2604
vn 0.6658 0.6977 -0.2644
vn -0.6584 -0.6868 0.3080
vn 0.6657 0.6977 0.2647
vn -0.6657 0.6977 0.2647
vn 0.6584 -0.6868 0.3080
vn -0.6611 -0.0000 0.7503
vn -0.6769 -0.0000 -0.7361
vn 0.6769 -0.0000 -0.7361
vn 0.6611 -0.0000 0.7503
vn 0.7499 -0.0000 0.6615
vn -0.7499 -0.0000 0.6615
vn -0.7597 -0.0000 -0.6503
vn 0.7597 -0.0000 -0.6503
vn -0.6690 0.2893 0.6846
vn -0.6628 0.2582 -0.7029
vn 0.6628 0.2582 -0.7029
vn 0.6690 0.2893 0.6846
vn 0.7463 -0.6656 -0.0000
vn -0.7463 -0.6656 -0.0000
vn 0.8616 -0.3615 0.3563
vn -0.8616 -0.3615 0.3563
vn -0.8565 -0.3746 -0.3550
vn 0.8565 -0.3746 -0.3550
vn -0.6659 -0.2462 -0.7043
vn 0.6659 -0.2462 -0.7043
vn 0.6631 -0.3119 0.6804
vn 0.7515 0.6598 -0.0000
vn -0.7515 0.6598 -0.0000
vn 0.8589 0.3610 0.3632
vn -0.8589 0.3610 0.3632
vn -0.8538 0.3741 -0.3619
vn 0.8538 0.3741 -0.3619
vn -0.6631 -0.3119 0.6804
vt 0.908940 0.780645
vt 0.912301 0.780645
vt 0.912301 0.784943
vt 0.908940 0.784943
vt 0.912301 0.789242
vt 0.908940 0.789242
vt 0.912301 0.793540
vt 0.908940 0.793540
vt 0.912301 0.797838
vt 0.908940 0.797838
vt 0.912301 0.802137
vt 0.908940 0.802137
vt 0.912301 0.806435
vt 0.908940 0.806435
vt 0.912301 0.810733
vt 0.908940 0.810733
vt 0.912301 0.815032
vt 0.908940 0.815032
vt 0.912301 0.819330
vt 0.908940 0.819330
vt 0.912301 0.823628
vt 0.908940 0.823628
vt 0.912301 0.827927
vt 0.908940 0.827927
vt 0.912301 0.832225
vt 0.908940 0.832225
vt 0.912301 0.836524
vt 0.908940 0.836524
vt 0.912301 0.840822
vt 0.908940 0.840822
vt 0.912301 0.845120
vt 0.908940 0.845120
vt 0.912301 0.849419
vt 0.908940 0.849419
vt 0.912301 0.853717
vt 0.908940 0.853717
vt 0.912301 0.858015
vt 0.908940 0.858015
vt 0.912301 0.862314
vt 0.908940 0.862314
vt 0.912301 0.866612
vt 0.908940 0.866612
vt 0.912301 0.870910
vt 0.908940 0.870910
vt 0.912301 0.875209
vt 0.908940 0.875209
vt 0.912301 0.879507
vt 0.908940 0.879507
vt 0.912301 0.883805
vt 0.908940 0.883805
vt 0.912301 0.888104
vt 0.908940 0.888104
vt 0.912301 0.892402
vt 0.908940 0.892402
vt 0.912301 0.896700
vt 0.908940 0.896700
vt 0.912301 0.900999
vt 0.908940 0.900999
vt 0.912301 0.905297
vt 0.908940 0.905297
vt 0.912301 0.909595
vt 0.908940 0.909595
vt 0.958327 0.912177
vt 0.951855 0.912177
vt 0.945508 0.910914
vt 0.939530 0.908438
vt 0.934149 0.904842
vt 0.929573 0.900267
vt 0.925978 0.894886
vt 0.923501 0.888907
vt 0.922239 0.882560
vt 0.922239 0.876089
vt 0.923501 0.869742
vt 0.925978 0.863763
vt 0.929573 0.858382
vt 0.934149 0.853806
vt 0.939530 0.850211
vt 0.945508 0.847735
vt 0.951855 0.846472
vt 0.958327 0.846472
vt 0.964674 0.847735
vt 0.970653 0.850211
vt 0.976033 0.853806
vt 0.980609 0.858382
vt 0.984204 0.863763
vt 0.986681 0.869742
vt 0.987943 0.876089
vt 0.987943 0.882560
vt 0.986681 0.888907
vt 0.984204 0.894886
vt 0.980609 0.900267
vt 0.976033 0.904843
vt 0.970653 0.908438
vt 0.964674 0.910914
vt 0.912301 0.913894
vt 0.908940 0.913894
vt 0.912301 0.918192
vt 0.908940 0.918192
vt 0.923501 0.823080
vt 0.925978 0.829059
vt 0.929573 0.834440
vt 0.934149 0.839015
vt 0.939530 0.842611
vt 0.945508 0.845087
vt 0.951855 0.846350
vt 0.958327 0.846350
vt 0.964674 0.845087
vt 0.970653 0.842611
vt 0.976033 0.839015
vt 0.980609 0.834440
vt 0.984204 0.829059
vt 0.986681 0.823080
vt 0.987943 0.816733
vt 0.987943 0.810262
vt 0.986681 0.803915
vt 0.984204 0.797936
vt 0.980609 0.792555
vt 0.976033 0.787979
vt 0.970653 0.784384
vt 0.964674 0.781908
vt 0.958327 0.780645
vt 0.951855 0.780645
vt 0.945508 0.781908
vt 0.939530 0.784384
vt 0.934149 0.787979
vt 0.929573 0.792555
vt 0.925978 0.797936
vt 0.923501 0.803915
vt 0.922239 0.810262
vt 0.922239 0.816733
vt 0.894841 0.913894
vt 0.897335 0.913894
vt 0.897335 0.918192
vt 0.894841 0.918192
vt 0.894841 0.909595
vt 0.897335 0.909595
vt 0.894841 0.905297
vt 0.897335 0.905297
vt 0.894841 0.900999
vt 0.897335 0.900999
vt 0.894841 0.896700
vt 0.897335 0.896700
vt 0.894841 0.892402
vt 0.897335 0.892402
vt 0.894841 0.888104
vt 0.897335 0.888104
vt 0.894841 0.883805
vt 0.897335 0.883805
vt 0.894841 0.879507
vt 0.897335 0.879507
vt 0.894841 0.875209
vt 0.897335 0.875209
vt 0.894841 0.870910
vt 0.897335 0.870910
vt 0.894841 0.866612
vt 0.897335 0.866612
vt 0.894841 0.862314
vt 0.897335 0.862314
vt 0.894841 0.858015
vt 0.897335 0.858015
vt 0.894841 0.853717
vt 0.897335 0.853717
vt 0.894841 0.849419
vt 0.897335 0.849419
vt 0.894841 0.845120
vt 0.897335 0.845120
vt 0.894841 0.840822
vt 0.897335 0.840822
vt 0.894841 0.836524
vt 0.897335 0.836524
vt 0.894841 0.832225
vt 0.897335 0.832225
vt 0.894841 0.827927
vt 0.897335 0.827927
vt 0.894841 0.823628
vt 0.897335 0.823628
vt 0.894841 0.819330
vt 0.897335 0.819330
vt 0.894841 0.815032
vt 0.897335 0.815032
vt 0.894841 0.810733
vt 0.897335 0.810733
vt 0.894841 0.806435
vt 0.897335 0.806435
vt 0.894841 0.802137
vt 0.897335 0.802137
vt 0.894841 0.797838
vt 0.897335 0.797838
vt 0.894841 0.793540
vt 0.897335 0.793540
vt 0.894841 0.789242
vt 0.897335 0.789242
vt 0.894841 0.784943
vt 0.897335 0.784943
vt 0.894841 0.780645
vt 0.897335 0.780645
vt 0.901433 0.913894
vt 0.901433 0.918192
vt 0.901433 0.909595
vt 0.901433 0.905297
vt 0.901433 0.900999
vt 0.901433 0.896700
vt 0.901433 0.892402
vt 0.901433 0.888104
vt 0.901433 0.883805
vt 0.901433 0.879507
vt 0.901433 0.875209
vt 0.901433 0.870910
vt 0.901433 0.866612
vt 0.901433 0.862314
vt 0.901433 0.858015
vt 0.901433 0.853717
vt 0.901433 0.849419
vt 0.901433 0.845120
vt 0.901433 0.840822
vt 0.901433 0.836524
vt 0.901433 0.832225
vt 0.901433 0.827927
vt 0.901433 0.823628
vt 0.901433 0.819330
vt 0.901433 0.815032
vt 0.901433 0.810733
vt 0.901433 0.806435
vt 0.901433 0.802137
vt 0.901433 0.797838
vt 0.901433 0.793540
vt 0.901433 0.789242
vt 0.901433 0.784943
vt 0.901433 0.780645
vt 0.893059 0.780645
vt 0.893059 0.784943
vt 0.893059 0.789242
vt 0.893059 0.793540
vt 0.893059 0.797838
vt 0.893059 0.802137
vt 0.893059 0.806435
vt 0.893059 0.810733
vt 0.893059 0.815032
vt 0.893059 0.819330
vt 0.893059 0.823628
vt 0.893059 0.827927
vt 0.893059 0.832225
vt 0.893059 0.836524
vt 0.893059 0.840822
vt 0.893059 0.845120
vt 0.893059 0.849419
vt 0.893059 0.853717
vt 0.893059 0.858015
vt 0.893059 0.862314
vt 0.893059 0.866612
vt 0.893059 0.870910
vt 0.893059 0.875209
vt 0.893059 0.879507
vt 0.893059 0.883805
vt 0.893059 0.888104
vt 0.893059 0.892402
vt 0.893059 0.896700
vt 0.893059 0.900999
vt 0.893059 0.905297
vt 0.893059 0.909595
vt 0.893059 0.913894
vt 0.893059 0.918192
vt 0.890743 0.913894
vt 0.890743 0.918192
vt 0.890743 0.909595
vt 0.890743 0.905297
vt 0.890743 0.900999
vt 0.890743 0.896700
vt 0.890743 0.892402
vt 0.890743 0.888104
vt 0.890743 0.883805
vt 0.890743 0.879507
vt 0.890743 0.875209
vt 0.890743 0.870910
vt 0.890743 0.866612
vt 0.890743 0.862314
vt 0.890743 0.858015
vt 0.890743 0.853717
vt 0.890743 0.849419
vt 0.890743 0.845120
vt 0.890743 0.840822
vt 0.890743 0.836524
vt 0.890743 0.832225
vt 0.890743 0.827927
vt 0.890743 0.823628
vt 0.890743 0.819330
vt 0.890743 0.815032
vt 0.890743 0.810733
vt 0.890743 0.806435
vt 0.890743 0.802137
vt 0.890743 0.797838
vt 0.890743 0.793540
vt 0.890743 0.789242
vt 0.890743 0.784943
vt 0.890743 0.780645
vt 0.888239 0.780645
vt 0.888239 0.784943
vt 0.888239 0.789242
vt 0.888239 0.793540
vt 0.888239 0.797838
vt 0.888239 0.802137
vt 0.888239 0.806435
vt 0.888239 0.810733
vt 0.888239 0.815032
vt 0.888239 0.819330
vt 0.888239 0.823628
vt 0.888239 0.827927
vt 0.888239 0.832225
vt 0.888239 0.836524
vt 0.888239 0.840822
vt 0.888239 0.845120
vt 0.888239 0.849419
vt 0.888239 0.853717
vt 0.888239 0.858015
vt 0.888239 0.862314
vt 0.888239 0.866612
vt 0.888239 0.870910
vt 0.888239 0.875209
vt 0.888239 0.879507
vt 0.888239 0.883805
vt 0.888239 0.888104
vt 0.888239 0.892402
vt 0.888239 0.896700
vt 0.888239 0.900999
vt 0.888239 0.905297
vt 0.888239 0.909595
vt 0.888239 0.913894
vt 0.888239 0.918192
vt 0.843528 0.913894
vt 0.843528 0.918192
vt 0.843528 0.909595
vt 0.843528 0.905297
vt 0.843528 0.900999
vt 0.843528 0.896700
vt 0.843528 0.892402
vt 0.843528 0.888104
vt 0.843528 0.883805
vt 0.843528 0.879507
vt 0.843528 0.875209
vt 0.843528 0.870910
vt 0.843528 0.866612
vt 0.843528 0.862314
vt 0.843528 0.858015
vt 0.843528 0.853717
vt 0.843528 0.849419
vt 0.843528 0.845120
vt 0.843528 0.840822
vt 0.843528 0.836524
vt 0.843528 0.832225
vt 0.843528 0.827927
vt 0.843528 0.823628
vt 0.843528 0.819330
vt 0.843528 0.815032
vt 0.843528 0.810733
vt 0.843528 0.806435
vt 0.843528 0.802137
vt 0.843528 0.797838
vt 0.843528 0.793540
vt 0.843528 0.789242
vt 0.843528 0.784943
vt 0.843528 0.780645
vt 0.901930 0.913894
vt 0.901930 0.918192
vt 0.901930 0.909595
vt 0.901930 0.905297
vt 0.901930 0.900999
vt 0.901930 0.896700
vt 0.901930 0.892402
vt 0.901930 0.888104
vt 0.901930 0.883805
vt 0.901930 0.879507
vt 0.901930 0.875209
vt 0.901930 0.870910
vt 0.901930 0.866612
vt 0.901930 0.862314
vt 0.901930 0.858015
vt 0.901930 0.853717
vt 0.901930 0.849419
vt 0.901930 0.845120
vt 0.901930 0.840822
vt 0.901930 0.836524
vt 0.901930 0.832225
vt 0.901930 0.827927
vt 0.901930 0.823628
vt 0.901930 0.819330
vt 0.901930 0.815032
vt 0.901930 0.810733
vt 0.901930 0.806435
vt 0.901930 0.802137
vt 0.901930 0.797838
vt 0.901930 0.793540
vt 0.901930 0.789242
vt 0.901930 0.784943
vt 0.901930 0.780645
vt 0.918913 0.824158
vt 0.918140 0.844206
vt 0.918204 0.845845
vt 0.918194 0.824933
vt 0.918631 0.849783
vt 0.916409 0.825040
vt 0.915447 0.798273
vt 0.922116 0.844637
vt 0.921305 0.839207
vt 0.914741 0.789985
vt 0.919357 0.837903
vt 0.916424 0.780645
vt 0.919142 0.795748
vt 0.918465 0.841173
vt 0.921099 0.854320
vt 0.915744 0.824345
vt 0.917687 0.825525
vt 0.918640 0.823855
vt 0.912424 0.820196
vt 0.922116 0.816914
vt 0.800422 0.668766
vt 0.809018 0.668766
vt 0.809018 0.677362
vt 0.800422 0.677362
vt 0.809018 0.711749
vt 0.800422 0.711749
vt 0.800422 0.737539
vt 0.809018 0.737539
vt 0.809018 0.746136
vt 0.800422 0.746136
vt 0.809018 0.780522
vt 0.800422 0.780522
vt 0.740245 0.737539
vt 0.774632 0.737539
vt 0.774632 0.746136
vt 0.740245 0.746136
vt 0.843405 0.737539
vt 0.843405 0.746136
vt 0.809018 0.720346
vt 0.843405 0.720346
vt 0.843405 0.728942
vt 0.809018 0.728942
vt 0.740245 0.720346
vt 0.774632 0.720346
vt 0.774632 0.728942
vt 0.740245 0.728942
vt 0.800422 0.720346
vt 0.800422 0.728942
vt 0.800422 0.651572
vt 0.809018 0.651572
vt 0.809018 0.660169
vt 0.800422 0.660169
vt 0.740245 0.711749
vt 0.774632 0.711749
vt 0.843405 0.711749
vt 0.800422 0.642976
vt 0.809018 0.642976
vt 0.783228 0.737539
vt 0.783228 0.651572
vt 0.791825 0.651572
vt 0.791825 0.737539
vt 0.783228 0.642976
vt 0.791825 0.642976
vt 0.791825 0.668766
vt 0.791825 0.720346
vt 0.783228 0.711749
vt 0.791825 0.711749
vt 0.783228 0.720346
vt 0.783228 0.728942
vt 0.783228 0.660169
vt 0.783228 0.746136
vt 0.791825 0.746136
vt 0.791825 0.780522
vt 0.783228 0.780522
vt 0.783228 0.677362
vt 0.791825 0.677362
vt 0.783228 0.668766
vt 0.774632 0.668766
vt 0.774632 0.677362
vt 0.774632 0.780522
vt 0.774632 0.651572
vt 0.774632 0.660169
vt 0.774632 0.642976
vt 0.903705 0.668766
vt 0.912301 0.668766
vt 0.912301 0.677362
vt 0.903705 0.677362
vt 0.912301 0.711749
vt 0.903705 0.711749
vt 0.903705 0.737539
vt 0.912301 0.737539
vt 0.912301 0.746136
vt 0.903705 0.746136
vt 0.912301 0.780522
vt 0.903705 0.780522
vt 0.843528 0.737539
vt 0.877915 0.737539
vt 0.877915 0.746136
vt 0.843528 0.746136
vt 0.946688 0.737539
vt 0.946688 0.746136
vt 0.912301 0.720346
vt 0.946688 0.720346
vt 0.946688 0.728942
vt 0.912301 0.728942
vt 0.843528 0.720346
vt 0.877915 0.720346
vt 0.877915 0.728942
vt 0.843528 0.728942
vt 0.903705 0.720346
vt 0.903705 0.728942
vt 0.903705 0.651572
vt 0.912301 0.651572
vt 0.912301 0.660169
vt 0.903705 0.660169
vt 0.843528 0.711749
vt 0.877915 0.711749
vt 0.946688 0.711749
vt 0.903705 0.642976
vt 0.912301 0.642976
vt 0.886511 0.737539
vt 0.886511 0.651572
vt 0.895108 0.651572
vt 0.895108 0.737539
vt 0.886511 0.642976
vt 0.895108 0.642976
vt 0.895108 0.668766
vt 0.895108 0.720346
vt 0.886511 0.711749
vt 0.895108 0.711749
vt 0.886511 0.720346
vt 0.886511 0.728942
vt 0.886511 0.660169
vt 0.886511 0.746136
vt 0.895108 0.746136
vt 0.895108 0.780522
vt 0.886511 0.780522
vt 0.886511 0.677362
vt 0.895108 0.677362
vt 0.886511 0.668766
vt 0.877915 0.668766
vt 0.877915 0.677362
vt 0.877915 0.780522
vt 0.877915 0.651572
vt 0.877915 0.660169
vt 0.877915 0.642976
vt 0.800422 0.806435
vt 0.809018 0.806435
vt 0.809018 0.815032
vt 0.800422 0.815032
vt 0.809018 0.849419
vt 0.800422 0.849419
vt 0.800422 0.875209
vt 0.809018 0.875209
vt 0.809018 0.883805
vt 0.800422 0.883805
vt 0.809018 0.918192
vt 0.800422 0.918192
vt 0.740245 0.875209
vt 0.774632 0.875209
vt 0.774632 0.883805
vt 0.740245 0.883805
vt 0.843405 0.875209
vt 0.843405 0.883805
vt 0.809018 0.858015
vt 0.843405 0.858015
vt 0.843405 0.866612
vt 0.809018 0.866612
vt 0.740245 0.858015
vt 0.774632 0.858015
vt 0.774632 0.866612
vt 0.740245 0.866612
vt 0.800422 0.858015
vt 0.800422 0.866612
vt 0.800422 0.789242
vt 0.809018 0.789242
vt 0.809018 0.797838
vt 0.800422 0.797838
vt 0.740245 0.849419
vt 0.774632 0.849419
vt 0.843405 0.849419
vt 0.800422 0.780645
vt 0.809018 0.780645
vt 0.783228 0.875209
vt 0.783228 0.789242
vt 0.791825 0.789242
vt 0.791825 0.875209
vt 0.783228 0.780645
vt 0.791825 0.780645
vt 0.791825 0.806435
vt 0.791825 0.858015
vt 0.783228 0.849419
vt 0.791825 0.849419
vt 0.783228 0.858015
vt 0.783228 0.866612
vt 0.783228 0.797838
vt 0.783228 0.883805
vt 0.791825 0.883805
vt 0.791825 0.918192
vt 0.783228 0.918192
vt 0.783228 0.815032
vt 0.791825 0.815032
vt 0.783228 0.806435
vt 0.774632 0.806435
vt 0.774632 0.815032
vt 0.774632 0.918192
vt 0.774632 0.789242
vt 0.774632 0.797838
vt 0.774632 0.780645
s 1
f 289/1/289 2/2/2 4/3/4 290/4/290
f 290/4/290 4/3/4 6/5/6 291/6/291
f 291/6/291 6/5/6 8/7/8 292/8/292
f 292/8/292 8/7/8 10/9/10 293/10/293
f 293/10/293 10/9/10 12/11/12 294/12/294
f 294/12/294 12/11/12 14/13/14 295/14/295
f 295/14/295 14/13/14 16/15/16 296/16/296
f 296/16/296 16/15/16 18/17/18 297/18/297
f 297/18/297 18/17/18 20/19/20 298/20/298
f 298/20/298 20/19/20 22/21/22 299/22/299
f 299/22/299 22/21/22 24/23/24 300/24/300
f 300/24/300 24/23/24 26/25/26 301/26/301
f 301/26/301 26/25/26 28/27/28 302/28/302
f 302/28/302 28/27/28 30/29/30 303/30/303
f 303/30/303 30/29/30 32/31/32 304/32/304
f 304/32/304 32/31/32 34/33/34 305/34/305
f 305/34/305 34/33/34 36/35/36 306/36/306
f 306/36/306 36/35/36 38/37/38 307/38/307
f 307/38/307 38/37/38 40/39/40 308/40/308
f 308/40/308 40/39/40 42/41/42 309/42/309
f 309/42/309 42/41/42 44/43/44 310/44/310
f 310/44/310 44/43/44 46/45/46 311/46/311
f 311/46/311 46/45/46 48/47/48 312/48/312
f 312/48/312 48/47/48 50/49/50 313/50/313
f 313/50/313 50/49/50 52/51/52 314/52/314
f 314/52/314 52/51/52 54/53/54 315/54/315
f 315/54/315 54/53/54 56/55/56 316/56/316
f 316/56/316 56/55/56 58/57/58 317/58/317
f 317/58/317 58/57/58 60/59/60 318/60/318
f 318/60/318 60/59/60 62/61/62 319/62/319
f 4/63/4 2/64/2 64/65/64 62/66/62 60/67/60 58/68/58 56/69/56 54/70/54 52/71/52 50/72/50 48/73/48 46/74/46 44/75/44 42/76/42 40/77/40 38/78/38 36/79/36 34/80/34 32/81/32 30/82/30 28/83/28 26/84/26 24/85/24 22/86/22 20/87/20 18/88/18 16/89/16 14/90/14 12/91/12 10/92/10 8/93/8 6/94/6
f 319/62/319 62/61/62 64/95/64 320/96/320
f 320/96/320 64/95/64 2/97/2 289/98/289
f 1/99/1 3/100/3 5/101/5 7/102/7 9/103/9 11/104/11 13/105/13 15/106/15 17/107/17 19/108/19 21/109/21 23/110/23 25/111/25 27/112/27 29/113/29 31/114/31 33/115/33 35/116/35 37/117/37 39/118/39 41/119/41 43/120/43 45/121/45 47/122/47 49/123/49 51/124/51 53/125/53 55/126/55 57/127/57 59/128/59 61/129/61 63/130/63
f 159/131/159 96/132/96 65/133/65 160/134/160
f 158/135/158 95/136/95 96/132/96 159/131/159
f 157/137/157 94/138/94 95/136/95 158/135/158
f 156/139/156 93/140/93 94/138/94 157/137/157
f 155/141/155 92/142/92 93/140/93 156/139/156
f 154/143/154 91/144/91 92/142/92 155/141/155
f 153/145/153 90/146/90 91/144/91 154/143/154
f 152/147/152 89/148/89 90/146/90 153/145/153
f 151/149/151 88/150/88 89/148/89 152/147/152
f 150/151/150 87/152/87 88/150/88 151/149/151
f 149/153/149 86/154/86 87/152/87 150/151/150
f 148/155/148 85/156/85 86/154/86 149/153/149
f 147/157/147 84/158/84 85/156/85 148/155/148
f 146/159/146 83/160/83 84/158/84 147/157/147
f 145/161/145 82/162/82 83/160/83 146/159/146
f 144/163/144 81/164/81 82/162/82 145/161/145
f 143/165/143 80/166/80 81/164/81 144/163/144
f 142/167/142 79/168/79 80/166/80 143/165/143
f 141/169/141 78/170/78 79/168/79 142/167/142
f 140/171/140 77/172/77 78/170/78 141/169/141
f 139/173/139 76/174/76 77/172/77 140/171/140
f 138/175/138 75/176/75 76/174/76 139/173/139
f 137/177/137 74/178/74 75/176/75 138/175/138
f 136/179/136 73/180/73 74/178/74 137/177/137
f 135/181/135 72/182/72 73/180/73 136/179/136
f 134/183/134 71/184/71 72/182/72 135/181/135
f 133/185/133 70/186/70 71/184/71 134/183/134
f 132/187/132 69/188/69 70/186/70 133/185/133
f 131/189/131 68/190/68 69/188/69 132/187/132
f 130/191/130 67/192/67 68/190/68 131/189/131
f 129/193/129 66/194/66 67/192/67 130/191/130
f 160/195/160 65/196/65 66/194/66 129/193/129
f 96/132/96 128/197/128 97/198/97 65/133/65
f 95/136/95 127/199/127 128/197/128 96/132/96
f 94/138/94 126/200/126 127/199/127 95/136/95
f 93/140/93 125/201/125 126/200/126 94/138/94
f 92/142/92 124/202/124 125/201/125 93/140/93
f 91/144/91 123/203/123 124/202/124 92/142/92
f 90/146/90 122/204/122 123/203/123 91/144/91
f 89/148/89 121/205/121 122/204/122 90/146/90
f 88/150/88 120/206/120 121/205/121 89/148/89
f 87/152/87 119/207/119 120/206/120 88/150/88
f 86/154/86 118/208/118 119/207/119 87/152/87
f 85/156/85 117/209/117 118/208/118 86/154/86
f 84/158/84 116/210/116 117/209/117 85/156/85
f 83/160/83 115/211/115 116/210/116 84/158/84
f 82/162/82 114/212/114 115/211/115 83/160/83
f 81/164/81 113/213/113 114/212/114 82/162/82
f 80/166/80 112/214/112 113/213/113 81/164/81
f 79/168/79 111/215/111 112/214/112 80/166/80
f 78/170/78 110/216/110 111/215/111 79/168/79
f 77/172/77 109/217/109 110/216/110 78/170/78
f 76/174/76 108/218/108 109/217/109 77/172/77
f 75/176/75 107/219/107 108/218/108 76/174/76
f 74/178/74 106/220/106 107/219/107 75/176/75
f 73/180/73 105/221/105 106/220/106 74/178/74
f 72/182/72 104/222/104 105/221/105 73/180/73
f 71/184/71 103/223/103 104/222/104 72/182/72
f 70/186/70 102/224/102 103/223/103 71/184/71
f 69/188/69 101/225/101 102/224/102 70/186/70
f 68/190/68 100/226/100 101/225/101 69/188/69
f 67/192/67 99/227/99 100/226/100 68/190/68
f 66/194/66 98/228/98 99/227/99 67/192/67
f 65/196/65 97/229/97 98/228/98 66/194/66
f 192/230/192 160/195/160 129/193/129 161/231/161
f 161/231/161 129/193/129 130/191/130 162/232/162
f 162/232/162 130/191/130 131/189/131 163/233/163
f 163/233/163 131/189/131 132/187/132 164/234/164
f 164/234/164 132/187/132 133/185/133 165/235/165
f 165/235/165 133/185/133 134/183/134 166/236/166
f 166/236/166 134/183/134 135/181/135 167/237/167
f 167/237/167 135/181/135 136/179/136 168/238/168
f 168/238/168 136/179/136 137/177/137 169/239/169
f 169/239/169 137/177/137 138/175/138 170/240/170
f 170/240/170 138/175/138 139/173/139 171/241/171
f 171/241/171 139/173/139 140/171/140 172/242/172
f 172/242/172 140/171/140 141/169/141 173/243/173
f 173/243/173 141/169/141 142/167/142 174/244/174
f 174/244/174 142/167/142 143/165/143 175/245/175
f 175/245/175 143/165/143 144/163/144 176/246/176
f 176/246/176 144/163/144 145/161/145 177/247/177
f 177/247/177 145/161/145 146/159/146 178/248/178
f 178/248/178 146/159/146 147/157/147 179/249/179
f 179/249/179 147/157/147 148/155/148 180/250/180
f 180/250/180 148/155/148 149/153/149 181/251/181
f 181/251/181 149/153/149 150/151/150 182/252/182
f 182/252/182 150/151/150 151/149/151 183/253/183
f 183/253/183 151/149/151 152/147/152 184/254/184
f 184/254/184 152/147/152 153/145/153 185/255/185
f 185/255/185 153/145/153 154/143/154 186/256/186
f 186/256/186 154/143/154 155/141/155 187/257/187
f 187/257/187 155/141/155 156/139/156 188/258/188
f 188/258/188 156/139/156 157/137/157 189/259/189
f 189/259/189 157/137/157 158/135/158 190/260/190
f 190/260/190 158/135/158 159/131/159 191/261/191
f 191/261/191 159/131/159 160/134/160 192/262/192
f 223/263/223 191/261/191 192/262/192 224/264/224
f 222/265/222 190/260/190 191/261/191 223/263/223
f 221/266/221 189/259/189 190/260/190 222/265/222
f 220/267/220 188/258/188 189/259/189 221/266/221
f 219/268/219 187/257/187 188/258/188 220/267/220
f 218/269/218 186/256/186 187/257/187 219/268/219
f 217/270/217 185/255/185 186/256/186 218/269/218
f 216/271/216 184/254/184 185/255/185 217/270/217
f 215/272/215 183/253/183 184/254/184 216/271/216
f 214/273/214 182/252/182 183/253/183 215/272/215
f 213/274/213 181/251/181 182/252/182 214/273/214
f 212/275/212 180/250/180 181/251/181 213/274/213
f 211/276/211 179/249/179 180/250/180 212/275/212
f 210/277/210 178/248/178 179/249/179 211/276/211
f 209/278/209 177/247/177 178/248/178 210/277/210
f 208/279/208 176/246/176 177/247/177 209/278/209
f 207/280/207 175/245/175 176/246/176 208/279/208
f 206/281/206 174/244/174 175/245/175 207/280/207
f 205/282/205 173/243/173 174/244/174 206/281/206
f 204/283/204 172/242/172 173/243/173 205/282/205
f 203/284/203 171/241/171 172/242/172 204/283/204
f 202/285/202 170/240/170 171/241/171 203/284/203
f 201/286/201 169/239/169 170/240/170 202/285/202
f 200/287/200 168/238/168 169/239/169 201/286/201
f 199/288/199 167/237/167 168/238/168 200/287/200
f 198/289/198 166/236/166 167/237/167 199/288/199
f 197/290/197 165/235/165 166/236/166 198/289/198
f 196/291/196 164/234/164 165/235/165 197/290/197
f 195/292/195 163/233/163 164/234/164 196/291/196
f 194/293/194 162/232/162 163/233/163 195/292/195
f 193/294/193 161/231/161 162/232/162 194/293/194
f 224/295/224 192/230/192 161/231/161 193/294/193
f 256/296/256 224/295/224 193/294/193 225/297/225
f 225/297/225 193/294/193 194/293/194 226/298/226
f 226/298/226 194/293/194 195/292/195 227/299/227
f 227/299/227 195/292/195 196/291/196 228/300/228
f 228/300/228 196/291/196 197/290/197 229/301/229
f 229/301/229 197/290/197 198/289/198 230/302/230
f 230/302/230 198/289/198 199/288/199 231/303/231
f 231/303/231 199/288/199 200/287/200 232/304/232
f 232/304/232 200/287/200 201/286/201 233/305/233
f 233/305/233 201/286/201 202/285/202 234/306/234
f 234/306/234 202/285/202 203/284/203 235/307/235
f 235/307/235 203/284/203 204/283/204 236/308/236
f 236/308/236 204/283/204 205/282/205 237/309/237
f 237/309/237 205/282/205 206/281/206 238/310/238
f 238/310/238 206/281/206 207/280/207 239/311/239
f 239/311/239 207/280/207 208/279/208 240/312/240
f 240/312/240 208/279/208 209/278/209 241/313/241
f 241/313/241 209/278/209 210/277/210 242/314/242
f 242/314/242 210/277/210 211/276/211 243/315/243
f 243/315/243 211/276/211 212/275/212 244/316/244
f 244/316/244 212/275/212 213/274/213 245/317/245
f 245/317/245 213/274/213 214/273/214 246/318/246
f 246/318/246 214/273/214 215/272/215 247/319/247
f 247/319/247 215/272/215 216/271/216 248/320/248
f 248/320/248 216/271/216 217/270/217 249/321/249
f 249/321/249 217/270/217 218/269/218 250/322/250
f 250/322/250 218/269/218 219/268/219 251/323/251
f 251/323/251 219/268/219 220/267/220 252/324/252
f 252/324/252 220/267/220 221/266/221 253/325/253
f 253/325/253 221/266/221 222/265/222 254/326/254
f 254/326/254 222/265/222 223/263/223 255/327/255
f 255/327/255 223/263/223 224/264/224 256/328/256
f 63/329/63 255/327/255 256/328/256 1/330/1
f 61/331/61 254/326/254 255/327/255 63/329/63
f 59/332/59 253/325/253 254/326/254 61/331/61
f 57/333/57 252/324/252 253/325/253 59/332/59
f 55/334/55 251/323/251 252/324/252 57/333/57
f 53/335/53 250/322/250 251/323/251 55/334/55
f 51/336/51 249/321/249 250/322/250 53/335/53
f 49/337/49 248/320/248 249/321/249 51/336/51
f 47/338/47 247/319/247 248/320/248 49/337/49
f 45/339/45 246/318/246 247/319/247 47/338/47
f 43/340/43 245/317/245 246/318/246 45/339/45
f 41/341/41 244/316/244 245/317/245 43/340/43
f 39/342/39 243/315/243 244/316/244 41/341/41
f 37/343/37 242/314/242 243/315/243 39/342/39
f 35/344/35 241/313/241 242/314/242 37/343/37
f 33/345/33 240/312/240 241/313/241 35/344/35
f 31/346/31 239/311/239 240/312/240 33/345/33
f 29/347/29 238/310/238 239/311/239 31/346/31
f 27/348/27 237/309/237 238/310/238 29/347/29
f 25/349/25 236/308/236 237/309/237 27/348/27
f 23/350/23 235/307/235 236/308/236 25/349/25
f 21/351/21 234/306/234 235/307/235 23/350/23
f 19/352/19 233/305/233 234/306/234 21/351/21
f 17/353/17 232/304/232 233/305/233 19/352/19
f 15/354/15 231/303/231 232/304/232 17/353/17
f 13/355/13 230/302/230 231/303/231 15/354/15
f 11/356/11 229/301/229 230/302/230 13/355/13
f 9/357/9 228/300/228 229/301/229 11/356/11
f 7/358/7 227/299/227 228/300/228 9/357/9
f 5/359/5 226/298/226 227/299/227 7/358/7
f 3/360/3 225/297/225 226/298/226 5/359/5
f 1/361/1 256/296/256 225/297/225 3/360/3
f 128/197/128 288/362/288 257/363/257 97/198/97
f 127/199/127 287/364/287 288/362/288 128/197/128
f 126/200/126 286/365/286 287/364/287 127/199/127
f 125/201/125 285/366/285 286/365/286 126/200/126
f 124/202/124 284/367/284 285/366/285 125/201/125
f 123/203/123 283/368/283 284/367/284 124/202/124
f 122/204/122 282/369/282 283/368/283 123/203/123
f 121/205/121 281/370/281 282/369/282 122/204/122
f 120/206/120 280/371/280 281/370/281 121/205/121
f 119/207/119 279/372/279 280/371/280 120/206/120
f 118/208/118 278/373/278 279/372/279 119/207/119
f 117/209/117 277/374/277 278/373/278 118/208/118
f 116/210/116 276/375/276 277/374/277 117/209/117
f 115/211/115 275/376/275 276/375/276 116/210/116
f 114/212/114 274/377/274 275/376/275 115/211/115
f 113/213/113 273/378/273 274/377/274 114/212/114
f 112/214/112 272/379/272 273/378/273 113/213/113
f 111/215/111 271/380/271 272/379/272 112/214/112
f 110/216/110 270/381/270 271/380/271 111/215/111
f 109/217/109 269/382/269 270/381/270 110/216/110
f 108/218/108 268/383/268 269/382/269 109/217/109
f 107/219/107 267/384/267 268/383/268 108/218/108
f 106/220/106 266/385/266 267/384/267 107/219/107
f 105/221/105 265/386/265 266/385/266 106/220/106
f 104/222/104 264/387/264 265/386/265 105/221/105
f 103/223/103 263/388/263 264/387/264 104/222/104
f 102/224/102 262/389/262 263/388/263 103/223/103
f 101/225/101 261/390/261 262/389/262 102/224/102
f 100/226/100 260/391/260 261/390/261 101/225/101
f 99/227/99 259/392/259 260/391/260 100/226/100
f 98/228/98 258/393/258 259/392/259 99/227/99
f 97/229/97 257/394/257 258/393/258 98/228/98
f 288/362/288 320/96/320 289/98/289 257/363/257
f 287/364/287 319/62/319 320/96/320 288/362/288
f 286/365/286 318/60/318 319/62/319 287/364/287
f 285/366/285 317/58/317 318/60/318 286/365/286
f 284/367/284 316/56/316 317/58/317 285/366/285
f 283/368/283 315/54/315 316/56/316 284/367/284
f 282/369/282 314/52/314 315/54/315 283/368/283
f 281/370/281 313/50/313 314/52/314 282/369/282
f 280/371/280 312/48/312 313/50/313 281/370/281
f 279/372/279 311/46/311 312/48/312 280/371/280
f 278/373/278 310/44/310 311/46/311 279/372/279
f 277/374/277 309/42/309 310/44/310 278/373/278
f 276/375/276 308/40/308 309/42/309 277/374/277
f 275/376/275 307/38/307 308/40/308 276/375/276
f 274/377/274 306/36/306 307/38/307 275/376/275
f 273/378/273 305/34/305 306/36/306 274/377/274
f 272/379/272 304/32/304 305/34/305 273/378/273
f 271/380/271 303/30/303 304/32/304 272/379/272
f 270/381/270 302/28/302 303/30/303 271/380/271
f 269/382/269 301/26/301 302/28/302 270/381/270
f 268/383/268 300/24/300 301/26/301 269/382/269
f 267/384/267 299/22/299 300/24/300 268/383/268
f 266/385/266 298/20/298 299/22/299 267/384/267
f 265/386/265 297/18/297 298/20/298 266/385/266
f 264/387/264 296/16/296 297/18/297 265/386/265
f 263/388/263 295/14/295 296/16/296 264/387/264
f 262/389/262 294/12/294 295/14/295 263/388/263
f 261/390/261 293/10/293 294/12/294 262/389/262
f 260/391/260 292/8/292 293/10/293 261/390/261
f 259/392/259 291/6/291 292/8/292 260/391/260
f 258/393/258 290/4/290 291/6/291 259/392/259
f 257/394/257 289/1/289 290/4/290 258/393/258
f 335/395/334 333/396/330 324/397/324 323/398/323
f 323/398/323 324/397/324 328/399/328 327/400/327
f 331/401/331 332/402/332 326/403/326 325/404/325
f 325/404/325 326/403/326 322/405/322 321/406/321
f 329/407/329 331/401/331 325/404/325 321/406/321
f 332/402/332 330/408/330 322/405/322 326/403/326
f 336/409/332 333/396/330 330/408/330 332/402/332
f 335/395/334 334/410/333 340/411/338 337/412/335
f 321/406/321 322/405/322 330/408/330 329/407/329
f 327/400/327 328/399/328 336/409/332 334/410/333
f 323/398/323 327/400/327 334/410/333 335/395/334
f 328/399/328 324/397/324 333/396/330 336/409/332
f 336/409/332 332/402/332 339/413/337 340/411/338
f 337/412/335 340/411/338 339/413/337 338/414/336
f 338/414/336 330/408/330 333/396/330 337/412/335
f 331/401/331 329/407/329 338/414/336 339/413/337
f 378/415/374 353/416/351 344/417/342 372/418/368
f 372/418/368 344/417/342 348/419/346 373/420/369
f 380/421/376 358/422/356 346/423/344 374/424/370
f 374/424/370 346/423/344 342/425/340 371/426/367
f 357/427/355 360/428/358 345/429/343 341/430/339
f 358/422/356 359/431/357 342/432/340 346/423/344
f 356/433/354 353/434/351 350/435/348 352/436/350
f 355/437/353 354/438/352 351/439/349 349/440/347
f 377/441/373 356/433/354 352/436/350 375/442/371
f 379/443/375 359/444/357 350/445/348 376/446/372
f 373/420/369 348/419/346 356/433/354 377/441/373
f 343/447/341 347/448/345 354/438/352 355/437/353
f 348/419/346 344/449/342 353/434/351 356/433/354
f 376/446/372 350/445/348 353/416/351 378/415/374
f 371/450/367 342/451/340 359/444/357 379/443/375
f 352/436/350 350/435/348 359/431/357 358/422/356
f 349/440/347 351/439/349 360/428/358 357/427/355
f 375/442/371 352/436/350 358/422/356 380/421/376
f 389/452/385 388/453/384 369/454/365 370/455/366
f 390/456/386 361/457/359 369/454/365 388/453/384
f 378/415/374 368/458/364 367/459/363 377/441/373
f 382/460/378 363/461/361 367/459/363 386/462/382
f 378/415/374 377/441/373 375/442/371 376/446/372
f 388/453/384 389/452/385 384/463/380 385/464/381
f 383/465/379 364/466/362 361/467/359 390/468/386
f 389/452/385 370/455/366 364/466/362 383/465/379
f 381/469/377 362/470/360 363/461/361 382/460/378
f 387/471/383 368/458/364 362/470/360 381/469/377
f 385/464/381 384/463/380 386/462/382 387/471/383
f 361/457/359 371/450/367 379/443/375 369/454/365
f 375/442/371 380/421/376 379/443/375 376/446/372
f 363/461/361 373/420/369 377/441/373 367/459/363
f 369/454/365 379/443/375 380/421/376 370/455/366
f 387/471/383 386/462/382 367/459/363 368/458/364
f 364/466/362 374/424/370 371/426/367 361/467/359
f 370/455/366 380/421/376 374/424/370 364/466/362
f 362/470/360 372/418/368 373/420/369 363/461/361
f 368/458/364 378/415/374 372/418/368 362/470/360
f 355/472/353 387/471/383 381/469/377 343/473/341
f 343/473/341 381/469/377 382/460/378 347/448/345
f 360/428/358 389/452/385 383/465/379 345/429/343
f 345/429/343 383/465/379 390/468/386 341/474/339
f 354/438/352 386/462/382 384/463/380 351/439/349
f 357/475/355 388/453/384 385/464/381 349/476/347
f 347/448/345 382/460/378 386/462/382 354/438/352
f 349/476/347 385/464/381 387/471/383 355/472/353
f 341/477/339 390/456/386 388/453/384 357/475/355
f 351/439/349 384/463/380 389/452/385 360/428/358
f 424/478/374 401/479/351 392/480/342 418/481/368
f 418/481/368 392/480/342 396/482/346 419/483/369
f 426/484/376 406/485/356 394/486/344 420/487/370
f 420/487/370 394/486/344 365/488/340 417/489/367
f 405/490/355 408/491/358 393/492/343 366/493/339
f 406/485/356 407/494/357 365/495/340 394/486/344
f 404/496/354 401/497/351 398/498/348 400/499/350
f 403/500/353 402/501/352 399/502/349 397/503/347
f 423/504/373 404/496/354 400/499/350 421/505/371
f 425/506/375 407/507/357 398/508/348 422/509/372
f 419/483/369 396/482/346 404/496/354 423/504/373
f 391/510/341 395/511/345 402/501/352 403/500/353
f 396/482/346 392/512/342 401/497/351 404/496/354
f 422/509/372 398/508/348 401/479/351 424/478/374
f 417/513/367 365/514/340 407/507/357 425/506/375
f 400/499/350 398/498/348 407/494/357 406/485/356
f 397/503/347 399/502/349 408/491/358 405/490/355
f 421/505/371 400/499/350 406/485/356 426/484/376
f 435/515/385 434/516/384 415/517/365 416/518/366
f 436/519/386 409/520/359 415/517/365 434/516/384
f 424/478/374 414/521/364 413/522/363 423/504/373
f 428/523/378 411/524/361 413/522/363 432/525/382
f 424/478/374 423/504/373 421/505/371 422/509/372
f 434/516/384 435/515/385 430/526/380 431/527/381
f 429/528/379 412/529/362 409/530/359 436/531/386
f 435/515/385 416/518/366 412/529/362 429/528/379
f 427/532/377 410/533/360 411/524/361 428/523/378
f 433/534/383 414/521/364 410/533/360 427/532/377
f 431/527/381 430/526/380 432/525/382 433/534/383
f 409/520/359 417/513/367 425/506/375 415/517/365
f 421/505/371 426/484/376 425/506/375 422/509/372
f 411/524/361 419/483/369 423/504/373 413/522/363
f 415/517/365 425/506/375 426/484/376 416/518/366
f 433/534/383 432/525/382 413/522/363 414/521/364
f 412/529/362 420/487/370 417/489/367 409/530/359
f 416/518/366 426/484/376 420/487/370 412/529/362
f 410/533/360 418/481/368 419/483/369 411/524/361
f 414/521/364 424/478/374 418/481/368 410/533/360
f 403/535/353 433/534/383 427/532/377 391/536/341
f 391/536/341 427/532/377 428/523/378 395/511/345
f 408/491/358 435/515/385 429/528/379 393/492/343
f 393/492/343 429/528/379 436/531/386 366/537/339
f 402/501/352 432/525/382 430/526/380 399/502/349
f 405/538/355 434/516/384 431/527/381 397/539/347
f 395/511/345 428/523/378 432/525/382 402/501/352
f 397/539/347 431/527/381 433/534/383 403/535/353
f 366/540/339 436/519/386 434/516/384 405/538/355
f 399/502/349 430/526/380 435/515/385 408/491/358
f 472/541/374 449/542/351 440/543/342 466/544/368
f 466/544/368 440/543/342 444/545/346 467/546/369
f 474/547/376 454/548/356 442/549/344 468/550/370
f 468/550/370 442/549/344 438/551/340 465/552/367
f 453/553/355 456/554/358 441/555/343 437/556/339
f 454/548/356 455/557/357 438/558/340 442/549/344
f 452/559/354 449/560/351 446/561/348 448/562/350
f 451/563/353 450/564/352 447/565/349 445/566/347
f 471/567/373 452/559/354 448/562/350 469/568/371
f 473/569/375 455/570/357 446/571/348 470/572/372
f 467/546/369 444/545/346 452/559/354 471/567/373
f 439/573/341 443/574/345 450/564/352 451/563/353
f 444/545/346 440/575/342 449/560/351 452/559/354
f 470/572/372 446/571/348 449/542/351 472/541/374
f 465/576/367 438/577/340 455/570/357 473/569/375
f 448/562/350 446/561/348 455/557/357 454/548/356
f 445/566/347 447/565/349 456/554/358 453/553/355
f 469/568/371 448/562/350 454/548/356 474/547/376
f 483/578/385 482/579/384 463/580/365 464/581/366
f 484/582/386 457/583/359 463/580/365 482/579/384
f 472/541/374 462/584/364 461/585/363 471/567/373
f 476/586/378 459/587/361 461/585/363 480/588/382
f 472/541/374 471/567/373 469/568/371 470/572/372
f 482/579/384 483/578/385 478/589/380 479/590/381
f 477/591/379 460/592/362 457/593/359 484/594/386
f 483/578/385 464/581/366 460/592/362 477/591/379
f 475/595/377 458/596/360 459/587/361 476/586/378
f 481/597/383 462/584/364 458/596/360 475/595/377
f 479/590/381 478/589/380 480/588/382 481/597/383
f 457/583/359 465/576/367 473/569/375 463/580/365
f 469/568/371 474/547/376 473/569/375 470/572/372
f 459/587/361 467/546/369 471/567/373 461/585/363
f 463/580/365 473/569/375 474/547/376 464/581/366
f 481/597/383 480/588/382 461/585/363 462/584/364
f 460/592/362 468/550/370 465/552/367 457/593/359
f 464/581/366 474/547/376 468/550/370 460/592/362
f 458/596/360 466/544/368 467/546/369 459/587/361
f 462/584/364 472/541/374 466/544/368 458/596/360
f 451/598/353 481/597/383 475/595/377 439/599/341
f 439/599/341 475/595/377 476/586/378 443/574/345
f 456/554/358 483/578/385 477/591/379 441/555/343
f 441/555/343 477/591/379 484/594/386 437/600/339
f 450/564/352 480/588/382 478/589/380 447/565/349
f 453/601/355 482/579/384 479/590/381 445/602/347
f 443/574/345 476/586/378 480/588/382 450/564/352
f 445/602/347 479/590/381 481/597/383 451/598/353
f 437/603/339 484/582/386 482/579/384 453/601/355
f 447/565/349 478/589/380 483/578/385 456/554/358
