# Blender 5.0.1
# www.blender.org
o Cube.001
v -0.042376 0.486923 1.416423
v -0.112166 0.516796 -0.080156
v -0.112166 0.360554 -0.549786
v -0.112166 0.516796 -0.549786
v -0.015716 0.486923 1.416423
v 0.059446 0.371274 -0.080156
v 0.059446 0.360554 -0.549786
v 0.059446 0.516796 -0.549786
v -0.058537 0.005196 0.026719
v -0.058537 0.516796 0.026719
v 0.006975 0.005196 0.026719
v 0.006975 0.516796 0.026719
v -0.112166 0.371274 -0.080156
v 0.059446 0.516796 -0.080156
v -0.112166 0.424702 -0.131328
v -0.112166 0.516796 -0.131328
v 0.059446 0.424702 -0.131328
v 0.059446 0.516796 -0.131328
v -0.112166 0.516796 -0.407094
v 0.059446 0.394411 -0.497381
v -0.112166 0.394411 -0.497381
v 0.059446 0.516796 -0.407094
v 0.043525 0.010090 -0.026719
v -0.092964 0.010090 -0.026719
v -0.050456 0.084523 0.818853
v -0.054506 0.509344 0.373385
v -0.004370 0.084523 0.818853
v 0.001315 0.509344 0.373385
v -0.046416 0.222076 1.224011
v -0.001515 0.505618 0.546717
v -0.052490 0.505618 0.546717
v -0.010043 0.222076 1.224011
v -0.056521 0.513070 0.200052
v 0.001302 0.032407 0.374145
v -0.054497 0.032407 0.374145
v 0.004145 0.513070 0.200052
v 0.043525 0.516796 -0.026719
v -0.092964 0.516796 -0.026719
v -0.026360 0.298004 -0.624186
v -0.026360 0.516796 -0.624186
v -0.029046 0.486066 1.416423
v -0.025781 0.516796 0.026719
v -0.025781 -0.025374 0.026719
v -0.026360 0.371274 -0.080156
v -0.026360 0.516796 -0.080156
v -0.026360 0.516796 -0.131328
v -0.026360 0.424702 -0.131328
v -0.026360 0.430268 -0.497381
v -0.026360 0.516796 -0.407094
v -0.026595 0.509344 0.373385
v -0.027413 0.053953 0.818853
v -0.027003 0.505618 0.546717
v -0.028229 0.191506 1.224011
v -0.026597 0.001837 0.374145
v -0.026188 0.513070 0.200052
v -0.024719 0.010090 -0.026719
v -0.024719 0.516796 -0.026719
vn -0.7638 0.3801 0.5216
vn -0.7310 0.6704 0.1273
vn -0.7424 -0.6697 0.0172
vn -0.7105 0.6245 -0.3243
vn 0.7608 0.3819 0.5247
vn 0.8530 -0.3080 -0.4213
vn 0.7424 -0.6697 0.0172
vn 0.7105 0.6245 -0.3243
vn -0.8264 -0.5584 0.0720
vn -0.6016 0.7761 0.1891
vn 0.8230 -0.5619 0.0838
vn 0.5951 0.7790 0.1977
vn -0.8634 -0.3162 -0.3930
vn 0.7292 0.6760 0.1063
vn -0.7943 -0.5616 -0.2318
vn -0.7071 0.7071 -0.0000
vn 0.7943 -0.5616 -0.2318
vn 0.7071 0.7071 -0.0000
vn 0.7008 -0.6517 0.2901
vn -0.7008 -0.6517 0.2901
vn 0.7791 -0.4984 -0.3804
vn -0.7737 -0.4962 -0.3940
vn -0.9405 -0.3294 0.0831
vn -0.7069 0.7070 0.0222
vn 0.9403 -0.3291 0.0867
vn 0.7067 0.7070 0.0250
vn -0.8694 -0.3395 0.3590
vn 0.7019 0.7118 0.0256
vn -0.7023 0.7115 0.0227
vn 0.8687 -0.3377 0.3623
vn -0.7070 0.7069 0.0229
vn 0.9307 -0.3629 0.0466
vn -0.9308 -0.3629 0.0427
vn 0.7069 0.7068 0.0260
vn 0.6669 0.6739 0.3178
vn -0.6554 0.6825 0.3236
vn -0.0000 -0.8559 -0.5171
vn -0.0000 0.5852 -0.8109
vn -0.0016 0.5390 0.8423
vn -0.0000 0.9999 0.0107
vn -0.0010 -0.9952 -0.0978
vn -0.0000 -0.4398 -0.8981
vn -0.0000 1.0000 -0.0000
vn -0.0000 -0.9244 -0.3815
vn -0.0000 -0.9375 0.3481
vn -0.0000 0.9998 0.0215
vn -0.0002 -0.9778 0.2097
vn -0.0000 0.9998 0.0217
vn -0.0006 -0.8380 0.5456
vn -0.0002 -0.9948 0.1022
vn 0.0020 -0.6522 -0.7581
vt 0.079770 0.263648
vt 0.080018 0.263504
vt 0.079798 0.263704
vt 0.079759 0.263711
vt 0.079754 0.263749
vt 0.079805 0.263740
vt 0.079787 0.263803
vt 0.079738 0.263790
vt 0.113594 0.101808
vt 0.123458 0.070409
vt 0.117662 0.122392
vt 0.068868 0.253763
vt 0.070920 0.268989
vt 0.060928 0.276090
vt 0.060928 0.242269
vt 0.115584 0.100103
vt 0.114839 0.118459
vt 0.066719 0.395791
vt 0.078064 0.421806
vt 0.069861 0.411713
vt 0.065619 0.400115
vt 0.066410 0.413921
vt 0.068878 0.425186
vt 0.063462 0.399555
vt 0.061746 0.400971
vt 0.059023 0.397411
vt 0.062460 0.394592
vt 0.062522 0.413201
vt 0.059023 0.425616
vt 0.120050 0.068063
vt 0.119975 0.058245
vt 0.123458 0.053232
vt 0.121730 0.065727
vt 0.079239 0.249841
vt 0.078595 0.235975
vt 0.080584 0.273717
vt 0.089432 0.267737
vt 0.098327 0.272665
vt 0.081671 0.284581
vt 0.067485 0.410161
vt 0.067033 0.407614
vt 0.080079 0.263843
vt 0.079580 0.263753
vt 0.079723 0.263856
vt 0.079852 0.264023
vt 0.098012 0.240083
vt 0.089908 0.253073
vt 0.063470 0.408350
vt 0.064074 0.410911
vt 0.120454 0.056708
vt 0.117442 0.064075
vt 0.119600 0.063848
vt 0.117477 0.100267
vt 0.115319 0.069907
vt 0.119570 0.080305
vt 0.117789 0.067794
vt 0.115540 0.067703
vt 0.115323 0.080396
vt 0.117464 0.080093
vt 0.120891 0.055289
vt 0.121731 0.063718
vt 0.112131 0.114669
vt 0.119432 0.069855
vt 0.110869 0.062678
vt 0.119512 0.041305
vt 0.116120 0.064933
vt 0.122526 0.047202
vt 0.065251 0.407953
vt 0.065801 0.410554
s 1
f 21/1/20 19/2/16 4/3/4 3/4/3
f 39/5/37 40/6/38 8/7/8 7/8/7
f 32/9/30 30/10/28 5/11/5
f 17/12/17 18/13/18 14/14/14 6/15/6
f 53/16/49 32/9/30 5/11/5 41/17/39
f 9/18/9 10/19/10 38/20/36 24/21/22
f 57/22/43 38/20/36 10/19/10 42/23/40
f 56/24/51 23/25/21 11/26/11 43/27/41
f 23/25/21 37/28/35 12/29/12 11/26/11
f 35/30/33 33/31/31 10/32/10 9/33/9
f 47/34/44 17/12/17 6/15/6 44/35/42
f 46/36/43 16/37/16 2/38/2 45/39/43
f 24/21/22 38/20/36 2/40/2 13/41/13
f 49/42/43 19/2/16 16/37/16 46/36/43
f 48/43/45 20/44/19 17/12/17 47/34/44
f 20/44/19 22/45/18 18/13/18 17/12/17
f 13/46/13 2/38/2 16/37/16 15/47/15
f 7/8/7 8/7/8 22/45/18 20/44/19
f 39/5/37 7/8/7 20/44/19 48/43/45
f 40/6/38 4/3/4 19/2/16 49/42/43
f 15/47/15 16/37/16 19/2/16 21/1/20
f 6/48/6 14/49/14 37/28/35 23/25/21
f 55/50/46 33/31/31 26/51/24 50/52/46
f 29/53/27 31/54/29 26/51/24 25/55/23
f 54/56/50 34/57/32 27/58/25 51/59/47
f 34/57/32 36/60/34 28/61/26 27/58/25
f 1/62/1 31/54/29 29/53/27
f 50/52/46 26/51/24 31/54/29 52/63/48
f 51/59/47 27/58/25 32/9/30 53/16/49
f 27/58/25 28/61/26 30/10/28 32/9/30
f 11/64/11 12/65/12 36/60/34 34/57/32
f 43/66/41 11/64/11 34/57/32 54/56/50
f 42/67/40 10/32/10 33/31/31 55/50/46
f 25/55/23 26/51/24 33/31/31 35/30/33
f 52/63/48 31/54/29 1/62/1 41/17/39
f 44/68/42 6/48/6 23/25/21 56/24/51
f 45/69/43 2/40/2 38/20/36 57/22/43
f 14/49/14 45/69/43 57/22/43 37/28/35
f 13/41/13 44/68/42 56/24/51 24/21/22
f 30/10/28 52/63/48 41/17/39 5/11/5
f 12/65/12 42/67/40 55/50/46 36/60/34
f 9/33/9 43/66/41 54/56/50 35/30/33
f 25/55/23 51/59/47 53/16/49 29/53/27
f 28/61/26 50/52/46 52/63/48 30/10/28
f 35/30/33 54/56/50 51/59/47 25/55/23
f 36/60/34 55/50/46 50/52/46 28/61/26
f 8/7/8 40/6/38 49/42/43 22/45/18
f 3/4/3 39/5/37 48/43/45 21/1/20
f 21/1/20 48/43/45 47/34/44 15/47/15
f 22/45/18 49/42/43 46/36/43 18/13/18
f 18/13/18 46/36/43 45/39/43 14/14/14
f 15/47/15 47/34/44 44/35/42 13/46/13
f 24/21/22 56/24/51 43/27/41 9/18/9
f 37/28/35 57/22/43 42/23/40 12/29/12
f 29/53/27 53/16/49 41/17/39 1/62/1
f 3/4/3 4/3/4 40/6/38 39/5/37
