# Blender 5.0.0
# www.blender.org
o Mesh_Toilet
v -0.396317 0.000000 1.001996
v -0.488114 1.423494 1.433845
v -0.396317 0.000000 -0.333998
v -0.396317 1.431186 -0.333998
v 0.396317 0.000000 1.001996
v 0.502475 1.423494 1.433845
v 0.396317 0.000000 -0.333998
v 0.396317 1.431186 -0.333998
v -0.396317 0.000000 0.333999
v -0.577007 1.419386 0.117461
v 0.396317 0.000000 0.333999
v 0.588673 1.419386 0.117461
v -0.488114 0.676472 1.433845
v -0.396317 0.676472 -0.333998
v 0.396317 0.676472 -0.333998
v 0.502475 0.676472 1.433845
v 0.588673 0.676472 0.333999
v -0.577007 0.676472 0.333999
v -0.496523 2.452582 0.117461
v -0.496523 2.452582 -0.333998
v 0.497003 2.452582 -0.333998
v 0.497003 2.452582 0.117461
v -0.396317 0.000000 0.667997
v 0.588673 1.450815 0.883922
v -0.577007 1.450815 0.883922
v 0.396317 0.000000 0.667997
v -0.577007 0.676472 0.883922
v 0.588673 0.676472 0.883922
vn -0.9506 -0.0444 -0.3073
vn -0.0000 -0.0000 -1.0000
vn 0.9879 -0.0000 0.1549
vn -0.0000 -0.0000 1.0000
vn -0.0000 -1.0000 -0.0000
vn -0.0000 0.9988 0.0496
vn 0.9445 -0.0470 -0.3251
vn -1.0000 -0.0000 -0.0000
vn -0.9661 -0.2581 -0.0000
vn 0.9801 -0.1394 -0.1411
vn -0.0000 -0.5381 0.8429
vn 0.9618 -0.2571 0.0938
vn -0.9824 -0.1312 -0.1329
vn -0.0000 1.0000 -0.0000
vn 0.9780 -0.0043 -0.2084
vn -0.9805 -0.0094 -0.1963
vn 0.9619 -0.2735 -0.0000
vn -0.9657 -0.2410 0.0971
vn -0.9872 -0.0000 0.1596
vn -0.0000 0.9992 -0.0410
vn 1.0000 -0.0000 -0.0000
vt 0.500000 0.125000
vt 0.625000 0.125000
vt 0.625000 0.250000
vt 0.500000 0.250000
vt 0.625000 0.500000
vt 0.500000 0.500000
vt 0.500000 0.687500
vt 0.625000 0.687500
vt 0.625000 0.750000
vt 0.500000 0.750000
vt 0.625000 1.000000
vt 0.500000 1.000000
vt 0.125000 0.687500
vt 0.375000 0.687500
vt 0.375000 0.750000
vt 0.125000 0.750000
vt 0.875000 0.687500
vt 0.875000 0.750000
vt 0.125000 0.500000
vt 0.375000 0.500000
vt 0.375000 0.625000
vt 0.125000 0.625000
vt 0.625000 0.625000
vt 0.500000 0.625000
vt 0.500000 0.062500
vt 0.625000 0.062500
vt 0.375000 0.062500
vt 0.375000 0.125000
vt 0.375000 1.000000
vt 0.375000 0.250000
vt 0.875000 0.500000
vt 0.875000 0.625000
vt 0.375000 0.000000
vt 0.500000 0.000000
vt 0.625000 0.000000
s 0
f 18/1/1 10/2/1 4/3/1 14/4/1
f 14/4/2 4/3/2 8/5/2 15/6/2
f 28/7/3 24/8/3 6/9/3 16/10/3
f 16/10/4 6/9/4 2/11/4 13/12/4
f 23/13/5 26/14/5 5/15/5 1/16/5
f 24/8/6 25/17/6 2/18/6 6/9/6
f 8/5/2 4/3/2 20/3/2 21/5/2
f 3/19/5 7/20/5 11/21/5 9/22/5
f 15/6/7 8/5/7 12/23/7 17/24/7
f 27/25/8 25/26/8 10/2/8 18/1/8
f 23/27/9 27/25/9 18/1/9 9/28/9
f 7/20/10 15/6/10 17/24/10 11/21/10
f 5/15/11 16/10/11 13/12/11 1/29/11
f 26/14/12 28/7/12 16/10/12 5/15/12
f 3/30/2 14/4/2 15/6/2 7/20/2
f 9/28/13 18/1/13 14/4/13 3/30/13
f 21/5/14 20/31/14 19/32/14 22/23/14
f 10/32/4 12/23/4 22/23/4 19/32/4
f 12/23/15 8/5/15 21/5/15 22/23/15
f 4/3/16 10/2/16 19/2/16 20/3/16
f 11/21/17 17/24/17 28/7/17 26/14/17
f 1/33/18 13/34/18 27/25/18 23/27/18
f 13/34/19 2/35/19 25/26/19 27/25/19
f 12/23/20 10/32/20 25/17/20 24/8/20
f 9/22/5 11/21/5 26/14/5 23/13/5
f 17/24/21 12/23/21 24/8/21 28/7/21
