# Blender 5.0.0
# www.blender.org
o Mesh_Desk
v -0.716958 0.000000 5.883736
v -0.716958 2.438415 5.883736
v -0.716958 0.000000 -4.640844
v -0.716958 2.438415 -4.640844
v 2.566815 0.000000 5.883736
v 2.566815 2.438415 5.883736
v 2.566815 0.000000 -4.640844
v 2.566815 2.438415 -4.640844
v -0.716958 0.000000 2.578373
v -0.716958 2.438415 2.578373
v 2.566815 0.000000 2.578373
v 2.566815 2.438415 2.578373
v -4.664345 0.000000 2.578373
v -4.664345 0.000000 5.883736
v -4.664345 2.438415 5.883736
v -4.664345 2.438415 2.578373
v -0.716958 2.438415 -2.578373
v 2.566815 0.000000 -2.578373
v -0.716958 0.000000 -2.578373
v 2.566815 2.438415 -2.578373
v 0.716958 0.000000 -4.640844
v 0.716958 2.438415 -4.640844
v 0.716958 0.000000 5.883736
v 0.716958 2.438415 5.883736
v 0.716958 2.438415 2.578373
v 0.716958 0.000000 2.578373
v 0.716958 0.000000 -2.578373
v 0.716958 2.438415 -2.578373
v 1.270654 4.431559 -4.640844
v 2.566815 4.431559 -4.640844
v 2.566815 4.431559 -2.578373
v 1.270654 4.431559 -2.578373
vn -1.0000 -0.0000 -0.0000
vn -0.0000 -0.0000 -1.0000
vn 1.0000 -0.0000 -0.0000
vn -0.0000 -0.0000 1.0000
vn -0.0000 -1.0000 -0.0000
vn -0.0000 1.0000 -0.0000
vn -0.9635 0.2677 -0.0000
vt 0.375000 0.201008
vt 0.625000 0.201008
vt 0.625000 0.250000
vt 0.375000 0.250000
vt 0.375000 0.359167
vt 0.625000 0.359167
vt 0.625000 0.500000
vt 0.375000 0.500000
vt 0.375000 0.671485
vt 0.625000 0.671485
vt 0.625000 0.750000
vt 0.375000 0.750000
vt 0.375000 0.890833
vt 0.625000 0.890833
vt 0.625000 1.000000
vt 0.375000 1.000000
vt 0.234167 0.671485
vt 0.234167 0.750000
vt 0.765833 0.671485
vt 0.875000 0.671485
vt 0.875000 0.750000
vt 0.765833 0.750000
vt 0.765833 0.548992
vt 0.875000 0.548992
vt 0.234167 0.548992
vt 0.375000 0.548992
vt 0.625000 0.548992
vt 0.375000 0.000000
vt 0.625000 0.000000
vt 0.625000 0.078515
vt 0.375000 0.078515
vt 0.125000 0.671485
vt 0.125000 0.750000
vt 0.234167 0.500000
vt 0.765833 0.500000
vt 0.875000 0.500000
vt 0.125000 0.500000
vt 0.125000 0.548992
s 0
f 19/1/1 17/2/1 4/3/1 3/4/1
f 21/5/2 22/6/2 8/7/2 7/8/2
f 11/9/3 12/10/3 6/11/3 5/12/3
f 23/13/4 24/14/4 2/15/4 1/16/4
f 26/17/5 11/9/5 5/12/5 23/18/5
f 25/19/6 10/20/6 2/21/6 24/22/6
f 28/23/6 17/24/6 10/20/6 25/19/6
f 27/25/5 18/26/5 11/9/5 26/17/5
f 18/26/3 20/27/3 12/10/3 11/9/3
f 1/16/4 2/15/4 15/15/4 14/16/4
f 14/28/1 15/29/1 16/30/1 13/31/1
f 10/30/2 9/31/2 13/31/2 16/30/2
f 2/21/6 10/20/6 16/20/6 15/21/6
f 9/32/5 1/33/5 14/33/5 13/32/5
f 7/8/3 8/7/3 20/27/3 18/26/3
f 21/34/5 7/8/5 18/26/5 27/25/5
f 22/35/6 4/36/6 17/24/6 28/23/6
f 9/31/1 10/30/1 17/2/1 19/1/1
f 22/35/7 28/23/7 32/23/7 29/35/7
f 3/37/5 21/34/5 27/25/5 19/38/5
f 19/38/5 27/25/5 26/17/5 9/32/5
f 20/27/6 28/23/6 25/19/6 12/10/6
f 12/10/6 25/19/6 24/22/6 6/11/6
f 9/32/5 26/17/5 23/18/5 1/33/5
f 5/12/4 6/11/4 24/14/4 23/13/4
f 3/4/2 4/3/2 22/6/2 21/5/2
f 30/7/6 29/35/6 32/23/6 31/27/6
f 20/27/3 8/7/3 30/7/3 31/27/3
f 8/7/2 22/6/2 29/6/2 30/7/2
f 28/23/4 20/27/4 31/27/4 32/23/4
