# Blender 5.0.0
# www.blender.org
o Mesh_Side_Table
v -0.516475 0.002577 0.318620
v -0.301429 2.551503 0.299114
v -0.277486 -0.001328 -0.533616
v -0.221865 2.551503 -0.429450
v 0.266936 0.002758 0.548986
v 0.299078 2.551503 0.344174
v 0.527023 -0.004007 -0.333990
v 0.341551 2.551503 -0.340209
v -0.521606 2.437475 0.320726
v -0.277177 2.437475 -0.538788
v 0.527111 2.437475 -0.323294
v 0.277497 2.437475 0.558233
v 0.811727 2.570603 -0.300319
v 0.778161 2.570603 0.379626
v 0.816228 2.437475 -0.305663
v 0.782465 2.437475 0.385029
v -0.287062 2.437475 0.817876
v -0.281433 2.570603 0.812268
v 0.262966 2.570603 0.817329
v 0.267269 2.437475 0.822732
v 0.541050 2.570603 0.678839
v 0.545353 2.437475 0.684242
v -0.849489 2.437475 0.303534
v -0.843860 2.570603 0.297926
v -0.810883 2.570603 -0.288811
v -0.816617 2.437475 -0.292970
v -0.596910 2.437475 0.635909
v -0.591282 2.570603 0.630300
v -0.272128 2.570603 -0.787202
v 0.324023 2.570603 -0.794466
v -0.277862 2.437475 -0.791361
v 0.328523 2.437475 -0.799810
v 0.643880 2.570603 -0.562996
v 0.648381 2.437475 -0.568340
v -0.639100 2.570603 -0.549625
v -0.644835 2.437475 -0.553784
vn -0.5056 0.0576 0.8609
vn -0.0000 -1.0000 -0.0000
vn 0.0017 0.9993 -0.0387
vn -0.0030 -1.0000 0.0053
vn -0.0000 1.0000 -0.0000
vn -0.2835 -0.0019 0.9590
vn 0.9607 -0.0032 0.2775
vn 0.2498 0.0011 -0.9683
vn -0.9624 -0.0011 -0.2718
vn 0.9983 0.0330 0.0490
vn -0.0300 0.9989 -0.0353
vn -0.8340 0.0531 -0.5493
vn -0.0400 0.9992 -0.0022
vn -0.0090 0.0414 0.9991
vn 0.4452 0.0507 0.8940
vn 0.7827 0.0505 0.6203
vn -0.9976 0.0423 -0.0555
vn -0.7948 0.0590 0.6040
vn 0.0341 0.9994 0.0029
vn 0.0293 0.9991 -0.0320
vn -0.0131 0.0357 -0.9993
vn 0.5855 0.0523 -0.8090
vn -0.5428 0.0496 -0.8384
vn 0.0349 0.9987 0.0377
vn -0.0365 0.9987 0.0361
vn -0.0033 0.9989 0.0473
vn 0.8416 0.0500 -0.5378
vt 0.620122 1.000000
vt 0.625000 1.000000
vt 0.620122 0.250000
vt 0.620122 0.750000
vt 0.620122 0.500000
vt 0.625000 0.750000
vt 0.875000 0.750000
vt 0.125000 0.500000
vt 0.375000 0.500000
vt 0.375000 0.750000
vt 0.125000 0.750000
vt 0.625000 0.500000
vt 0.875000 0.500000
vt 0.375000 1.000000
vt 0.375000 0.250000
vt 0.375000 0.000000
vt 0.620122 0.000000
vt 0.625000 0.250000
vt 0.625000 0.000000
s 0
f 17/1/1 18/2/1 28/2/1 27/1/1
f 10/3/2 26/3/2 36/3/2 31/3/2
f 12/4/2 11/5/2 15/5/2 16/4/2
f 6/6/3 2/7/3 18/7/3 19/6/3
f 3/8/4 7/9/4 5/10/4 1/11/4
f 8/12/5 4/13/5 2/7/5 6/6/5
f 5/10/6 12/4/6 9/1/6 1/14/6
f 7/9/7 11/5/7 12/4/7 5/10/7
f 3/15/8 10/3/8 11/5/8 7/9/8
f 1/16/9 9/17/9 10/3/9 3/15/9
f 15/5/10 13/12/10 14/6/10 16/4/10
f 14/6/11 6/6/11 19/6/11 21/6/11
f 26/3/12 25/18/12 35/18/12 36/3/12
f 8/12/13 6/6/13 14/6/13 13/12/13
f 20/4/14 19/6/14 18/2/14 17/1/14
f 19/6/15 20/4/15 22/4/15 21/6/15
f 16/4/16 14/6/16 21/6/16 22/4/16
f 9/1/2 12/4/2 20/4/2 17/1/2
f 12/4/2 16/4/2 22/4/2 20/4/2
f 9/1/2 17/1/2 27/1/2 23/1/2
f 23/17/17 24/19/17 25/18/17 26/3/17
f 24/19/18 23/17/18 27/17/18 28/19/18
f 2/7/19 4/13/19 25/13/19 24/7/19
f 15/5/2 11/5/2 32/5/2 34/5/2
f 18/7/20 2/7/20 24/7/20 28/7/20
f 10/3/2 9/17/2 23/17/2 26/3/2
f 31/3/21 29/18/21 30/12/21 32/5/21
f 32/5/22 30/12/22 33/12/22 34/5/22
f 29/18/23 31/3/23 36/3/23 35/18/23
f 11/5/2 10/3/2 31/3/2 32/5/2
f 25/13/24 4/13/24 29/13/24 35/13/24
f 8/12/25 13/12/25 33/12/25 30/12/25
f 4/13/26 8/12/26 30/12/26 29/13/26
f 13/12/27 15/5/27 34/5/27 33/12/27
