# Blender 5.0.0
# www.blender.org
o Cube.001
v -2.578219 7.104993 14.951849
v -2.578219 7.968666 14.951849
v -2.428106 0.000000 -0.000001
v -2.428106 0.348755 -0.000001
v 2.277991 7.104993 14.951849
v 2.277991 7.968666 14.951849
v 2.428104 0.000000 -0.000001
v 2.428104 0.348755 -0.000001
v -2.578219 7.104993 17.817375
v -2.578219 7.968666 17.817375
v 2.277991 7.968666 17.817375
v 2.277991 7.104993 17.817375
vn -0.9999 -0.0000 -0.0100
vn -0.0000 -0.0000 -1.0000
vn 0.9999 -0.0000 0.0100
vn -0.0000 1.0000 -0.0000
vn -0.0000 -0.9032 0.4292
vn -0.0000 0.8910 -0.4541
vn -0.0000 -0.0000 1.0000
vn 1.0000 -0.0000 -0.0000
vn -1.0000 -0.0000 -0.0000
vn -0.0000 -1.0000 -0.0000
vt 0.375000 0.000000
vt 0.625000 0.000000
vt 0.625000 0.250000
vt 0.375000 0.250000
vt 0.625000 0.500000
vt 0.375000 0.500000
vt 0.625000 0.750000
vt 0.375000 0.750000
vt 0.875000 0.750000
vt 0.125000 0.500000
vt 0.125000 0.750000
vt 0.875000 0.500000
vt 0.625000 1.000000
vt 0.375000 1.000000
s 0
f 1/1/1 2/2/1 4/3/1 3/4/1
f 3/4/2 4/3/2 8/5/2 7/6/2
f 7/6/3 8/5/3 6/7/3 5/8/3
f 6/7/4 2/9/4 10/9/4 11/7/4
f 3/10/5 7/6/5 5/8/5 1/11/5
f 8/5/6 4/12/6 2/9/6 6/7/6
f 12/8/7 11/7/7 10/13/7 9/14/7
f 5/8/8 6/7/8 11/7/8 12/8/8
f 2/2/9 1/1/9 9/1/9 10/2/9
f 1/11/10 5/8/10 12/8/10 9/11/10
