# Blender 5.0.0
# www.blender.org
o Mesh_Kitchen_Chair
v -0.649549 0.000000 0.200079
v -0.649549 1.074461 0.200079
v -0.649549 0.000000 -0.709955
v -0.649549 1.074461 -0.724637
v 0.507116 0.000000 0.300019
v 0.507116 1.069093 0.300019
v 0.482163 0.000000 -0.815451
v 0.482163 1.069093 -0.830133
v -0.503296 0.000000 -0.723588
v -0.503296 1.074461 -0.738270
v -0.500071 0.000000 0.212995
v -0.500071 1.074461 0.212995
v -0.894560 2.380031 0.045326
v -0.923353 2.386153 -0.603033
v -0.745082 2.380031 0.058241
v -0.777099 2.386153 -0.616667
v -0.649549 0.000000 -0.254938
v -0.649549 1.074461 -0.262279
v 0.494639 0.000000 -0.257716
v 0.494639 1.069093 -0.265057
v -0.501683 1.074461 -0.262638
v -0.501683 0.000000 -0.255297
v -0.954802 2.600271 -0.272726
v -0.806936 2.600271 -0.273085
v -0.802175 1.835889 0.200079
v -0.802175 1.835889 -0.735084
v -0.655922 1.835889 -0.748718
v -0.652697 1.835889 0.212995
v -0.654310 1.835889 -0.267862
v -0.802175 1.835889 -0.267503
vn -1.0000 -0.0000 -0.0000
vn -0.0928 -0.0136 -0.9956
vn 0.9998 -0.0001 -0.0222
vn -0.0861 -0.0000 0.9963
vn -0.0000 -1.0000 -0.0000
vn -0.9832 -0.1811 0.0246
vn 0.0054 1.0000 -0.0001
vn -0.0238 0.8253 0.5643
vn -0.0907 0.2135 -0.9727
vn -0.0831 0.2595 0.9622
vn 0.9784 0.2057 -0.0199
vn 0.9831 0.1807 -0.0278
vn -0.0256 0.8427 -0.5378
vn -0.9785 -0.2054 0.0166
vn 0.9998 -0.0002 -0.0222
vn -0.9805 -0.1965 -0.0000
vn 0.9805 0.1965 -0.0033
vn -0.0861 -0.0173 0.9961
vn -0.0928 -0.0322 -0.9952
vt 0.375000 0.125000
vt 0.625000 0.125000
vt 0.625000 0.250000
vt 0.375000 0.250000
vt 0.375000 0.282308
vt 0.625000 0.282308
vt 0.625000 0.500000
vt 0.375000 0.500000
vt 0.375000 0.625000
vt 0.625000 0.625000
vt 0.625000 0.750000
vt 0.375000 0.750000
vt 0.375000 0.967692
vt 0.625000 0.967692
vt 0.625000 1.000000
vt 0.375000 1.000000
vt 0.157308 0.625000
vt 0.157308 0.750000
vt 0.625000 0.125000
vt 0.625000 0.000000
vt 0.625000 0.125000
vt 0.842692 0.625000
vt 0.842692 0.750000
vt 0.125000 0.625000
vt 0.125000 0.750000
vt 0.875000 0.625000
vt 0.875000 0.750000
vt 0.625000 0.250000
vt 0.842692 0.500000
vt 0.842692 0.500000
vt 0.842692 0.750000
vt 0.875000 0.500000
vt 0.125000 0.500000
vt 0.157308 0.500000
vt 0.375000 0.000000
s 0
f 17/1/1 18/2/1 4/3/1 3/4/1
f 9/5/2 10/6/2 8/7/2 7/8/2
f 19/9/3 20/10/3 6/11/3 5/12/3
f 11/13/4 12/14/4 2/15/4 1/16/4
f 22/17/5 19/9/5 5/12/5 11/18/5
f 30/19/6 25/20/6 13/20/6 23/21/6
f 20/10/7 21/22/7 12/23/7 6/11/7
f 17/24/5 22/17/5 11/18/5 1/25/5
f 5/12/4 6/11/4 12/14/4 11/13/4
f 3/4/2 4/3/2 10/6/2 9/5/2
f 24/22/8 23/26/8 13/27/8 15/23/8
f 27/6/9 26/28/9 14/3/9 16/6/9
f 25/15/10 28/14/10 15/14/10 13/15/10
f 29/22/11 27/29/11 16/30/11 24/22/11
f 28/31/12 29/22/12 24/22/12 15/23/12
f 16/30/13 14/32/13 23/26/13 24/22/13
f 3/33/5 9/34/5 22/17/5 17/24/5
f 8/7/7 10/30/7 21/22/7 20/10/7
f 26/28/14 30/19/14 23/21/14 14/3/14
f 9/34/5 7/8/5 19/9/5 22/17/5
f 7/8/15 8/7/15 20/10/15 19/9/15
f 1/35/1 2/20/1 18/2/1 17/1/1
f 4/3/16 18/2/16 30/19/16 26/28/16
f 12/23/17 21/22/17 29/22/17 28/31/17
f 21/22/17 10/30/17 27/29/17 29/22/17
f 2/15/18 12/14/18 28/14/18 25/15/18
f 10/6/19 4/3/19 26/28/19 27/6/19
f 18/2/16 2/20/16 25/20/16 30/19/16
