# Blender 5.0.0
# www.blender.org
o Mesh_Second_Floor
v -15.187499 0.000000 -25.392988
v -15.187499 0.749356 -25.392988
v 28.518639 0.000000 27.958700
v 28.518639 0.749356 27.958700
v 28.609545 0.000000 -25.392988
v 28.609545 0.749356 -25.392988
v -15.264873 0.000000 6.414455
v 28.518639 0.749356 6.414455
v -15.264873 0.749356 6.414455
v 28.518639 0.000000 6.414455
v 5.582763 0.000000 -25.392988
v 5.582763 0.749356 -25.392988
v 5.582763 0.000000 1.621597
v 5.582763 0.749356 6.414455
v 5.582763 0.000000 6.414455
v 21.779144 0.749356 -25.392988
v 28.609545 0.000000 -5.245793
v 21.753265 0.000000 -25.392988
v 28.609545 0.749356 -5.245793
v 5.582763 0.000000 -5.245793
v 5.582763 0.749356 -5.245793
v -11.165524 0.000000 -25.392988
v -13.137502 0.749356 27.958700
v -12.984208 0.000000 6.414455
v -11.165524 0.749356 -25.392988
v -13.137502 0.000000 27.958700
v -12.984208 0.749356 6.414455
v 21.650221 0.749356 -5.245793
v 21.650221 0.000000 -5.245793
v 21.650221 0.749356 -3.537967
v 28.609545 0.749356 -3.537967
v 28.609545 0.000000 -3.537967
v 21.650221 0.000000 -3.537967
vn -0.0000 1.0000 -0.0000
vn -0.0000 -0.0000 -1.0000
vn 1.0000 -0.0000 -0.0000
vn -1.0000 -0.0000 -0.0071
vn -1.0000 -0.0000 -0.0024
vn -0.0000 -1.0000 -0.0000
vn -0.0000 -0.0000 1.0000
vn -1.0000 -0.0000 -0.0000
vt 0.717189 0.993097
vt 0.010985 0.993097
vt 0.010984 0.432021
vt 0.717189 0.427519
vt 0.375000 0.363910
vt 0.625000 0.363910
vt 0.625000 0.459632
vt 0.375000 0.459479
vt 0.375000 0.648423
vt 0.625000 0.648423
vt 0.625000 0.750000
vt 0.375000 0.750000
vt 0.208646 0.648423
vt 0.208646 0.750000
vt 0.625000 0.916354
vt 0.791354 0.648423
vt 0.625000 0.101577
vt 0.625000 0.250000
vt 0.375000 0.250000
vt 0.375000 0.101577
vt 0.461204 0.033634
vt 0.455841 0.033634
vt 0.473588 0.049220
vt 0.473588 0.033634
vt 0.473588 0.029884
vt 0.473588 0.026190
vt 0.486512 0.026190
vt 0.488270 0.026190
vt 0.488210 0.049220
vt 0.486496 0.049220
vt 0.455911 0.026190
vt 0.455911 0.010760
vt 0.486630 0.010760
vt 0.357799 0.017061
vt 0.357799 0.015852
vt 0.394806 0.015852
vt 0.394806 0.017061
vt 0.375000 0.333646
vt 0.625000 0.333646
vt 0.455841 0.049220
vt 0.461125 0.049220
vt 0.375000 0.500000
vt 0.625000 0.500000
vt 0.625000 0.600916
vt 0.375000 0.600916
vt 0.010984 0.189001
vt 0.717189 0.189001
vt 0.875000 0.648423
vt 0.125000 0.648423
vt 0.413620 0.017061
vt 0.402539 0.015852
vt 0.413620 0.015852
vt 0.678764 0.275578
vt 0.678764 0.990186
vt 0.086954 0.990186
vt 0.008373 0.990186
vt 0.988901 0.988877
vt 0.912500 0.988877
vt 0.350755 0.988877
vt 0.300301 0.990587
vt 0.300301 0.383451
vt 0.630784 0.997387
vt 0.003680 0.997387
vt -0.002053 0.248691
vt 0.375000 0.916354
vt 0.439545 0.015852
vt 0.439545 0.017061
vt 0.315022 0.039468
vt 0.436080 0.039468
vt 0.436080 0.052503
vt 0.315022 0.052503
vt 0.473797 0.045789
vt 0.345041 0.045789
vt 0.345041 0.014192
vt 0.473797 0.014192
vt 0.285315 0.052503
vt 0.285315 0.039468
s 0
f 12/1/1 21/2/1 28/3/1 16/4/1
f 11/5/2 12/6/2 16/7/2 18/8/2
f 10/9/3 8/10/3 4/11/3 3/12/3
f 24/13/4 26/14/4 23/15/4 27/16/4
f 9/17/5 2/18/5 1/19/5 7/20/5
f 29/21/6 17/22/6 32/22/6 33/21/6
f 11/23/6 20/24/6 13/25/6 15/26/6 24/27/6 7/28/6 1/29/6 22/30/6
f 24/27/6 15/26/6 10/31/6 3/32/6 26/33/6
f 8/34/2 10/35/2 15/36/2 14/37/2
f 22/38/2 25/39/2 12/6/2 11/5/2
f 5/40/6 17/22/6 29/21/6 18/41/6
f 5/42/3 6/43/3 19/44/3 17/45/3
f 16/4/1 28/3/1 19/46/1 6/47/1
f 1/19/2 2/18/2 25/39/2 22/38/2
f 9/48/7 7/49/7 24/13/7 27/16/7
f 21/50/3 14/37/3 15/36/3 13/51/3 20/52/3
f 21/53/1 12/54/1 25/55/1 2/56/1 9/57/1 27/58/1 14/59/1
f 4/60/1 8/61/1 14/62/1 27/63/1 23/64/1
f 18/41/6 29/21/6 20/24/6 11/23/6
f 4/11/7 23/15/7 26/65/7 3/12/7
f 18/8/2 16/7/2 6/43/2 5/42/2
f 20/52/7 29/66/7 28/67/7 21/50/7
f 33/68/7 32/69/7 31/70/7 30/71/7
f 17/45/3 19/44/3 31/44/3 32/45/3
f 19/72/1 28/73/1 30/74/1 31/75/1
f 28/76/8 29/77/8 33/68/8 30/71/8
