# Blender 5.0.0
# www.blender.org
o Mesh_Counters
v -1.677722 0.000000 1.567107
v -1.677722 2.000000 1.567107
v -1.677722 0.000000 -1.567106
v -1.677722 2.000000 -1.567106
v 8.357477 0.000000 1.567107
v 8.357477 2.000000 1.567107
v 8.357477 0.000000 -1.567106
v 8.357477 2.000000 -1.567106
v 1.443099 0.000000 -1.567106
v 1.443099 2.000000 -1.567106
v 1.443099 0.000000 1.567107
v 1.443099 2.000000 1.567107
v -1.677722 0.000000 10.557230
v -1.677722 2.000000 10.557230
v 1.443099 2.000000 10.557230
v 1.443099 0.000000 10.557230
v -1.038025 0.000000 -1.567106
v -1.038025 2.000000 1.567107
v -1.038025 2.000000 -1.567106
v -1.038025 0.000000 1.567107
v -1.038025 2.000000 10.557230
v -1.038025 0.000000 10.557230
v 1.038025 2.000000 -1.567106
v 1.038025 0.000000 1.567107
v 1.038025 0.000000 10.557230
v 1.038025 0.000000 -1.567106
v 1.038025 2.000000 1.567107
v 1.038025 2.000000 10.557230
v -1.677722 2.000000 9.543357
v 1.443099 2.000000 9.543357
v 1.443099 0.000000 9.543357
v -1.677722 0.000000 9.543357
v -1.038025 0.000000 9.543357
v -0.939368 2.000000 9.348970
v 0.932888 2.000000 9.348970
v 1.038025 0.000000 9.543357
v 1.443099 2.000000 6.282728
v 1.443099 0.000000 6.282728
v -1.677722 0.000000 6.282728
v -1.677722 2.000000 6.282728
v -1.038025 0.000000 6.282728
v -0.939368 2.000000 6.850152
v 0.932888 2.000000 6.850152
v 1.038025 0.000000 6.282728
v -1.038025 1.390080 6.282728
v -1.038025 1.390080 9.543357
v 1.038025 1.390080 6.282728
v 1.038025 1.390080 9.543357
vn -1.0000 -0.0000 -0.0000
vn -0.0000 -0.0000 -1.0000
vn 1.0000 -0.0000 -0.0000
vn -0.0000 1.0000 -0.0000
vn -0.0000 -1.0000 -0.0000
vn -0.0000 -0.0000 1.0000
vn -0.0000 -0.3037 -0.9528
vn -0.9855 -0.1699 -0.0000
vn -0.0000 -0.6811 0.7322
vn 0.9872 -0.1597 -0.0000
vt 0.375000 0.000000
vt 0.625000 0.000000
vt 0.625000 0.250000
vt 0.375000 0.250000
vt 0.375000 0.330158
vt 0.625000 0.330158
vt 0.625000 0.500000
vt 0.375000 0.500000
vt 0.625000 0.750000
vt 0.375000 0.750000
vt 0.858569 0.750000
vt 0.875000 0.750000
vt 0.205158 0.500000
vt 0.205158 0.750000
vt 0.858569 0.500000
vt 0.875000 0.500000
vt 0.794842 0.500000
vt 0.794842 0.750000
vt 0.194754 0.500000
vt 0.194754 0.750000
vt 0.625000 0.919842
vt 0.375000 0.919842
vt 0.375000 0.319754
vt 0.625000 0.319754
vt 0.375000 0.983569
vt 0.625000 0.983569
vt 0.625000 1.000000
vt 0.375000 1.000000
vt 0.375000 0.919842
vt 0.194754 0.750000
vt 0.194754 0.750000
vt 0.125000 0.750000
vt 0.141431 0.750000
vt 0.375000 0.930246
vt 0.625000 0.930246
vt 0.625000 0.266431
vt 0.375000 0.266431
vt 0.125000 0.500000
vt 0.141431 0.500000
vt 0.805246 0.500000
vt 0.805246 0.750000
vt 0.794842 0.750000
vt 0.375000 0.000000
vt 0.205158 0.750000
vt 0.875000 0.750000
s 0
f 1/1/1 2/2/1 4/3/1 3/4/1
f 9/5/2 10/6/2 8/7/2 7/8/2
f 7/8/3 8/7/3 6/9/3 5/10/3
f 34/11/4 29/12/4 14/12/4 21/11/4
f 9/13/5 7/8/5 5/10/5 11/14/5
f 19/15/4 4/16/4 2/12/4 18/11/4
f 8/7/4 10/17/4 12/18/4 6/9/4
f 26/19/5 9/13/5 11/14/5 24/20/5
f 5/10/6 6/9/6 12/21/6 11/22/6
f 26/23/2 23/24/2 10/6/2 9/5/2
f 22/25/6 21/26/6 14/27/6 13/28/6
f 31/29/3 30/21/3 15/21/3 16/22/3
f 36/30/5 31/14/5 16/14/5 25/31/5
f 29/2/1 32/1/1 13/1/1 14/2/1
f 32/32/5 33/33/5 22/33/5 13/32/5
f 25/34/6 28/35/6 21/26/6 22/25/6
f 3/4/2 4/3/2 19/36/2 17/37/2
f 3/38/5 17/39/5 20/33/5 1/32/5
f 23/40/4 19/15/4 18/11/4 27/41/4
f 35/41/4 34/11/4 21/11/4 28/41/4
f 30/42/4 35/41/4 28/41/4 15/18/4
f 10/17/4 23/40/4 27/41/4 12/18/4
f 16/22/6 15/21/6 28/35/6 25/34/6
f 33/33/5 36/30/5 25/31/5 22/33/5
f 17/37/2 19/36/2 23/24/2 26/23/2
f 17/39/5 26/19/5 24/20/5 20/33/5
f 41/33/5 44/30/5 36/30/5 33/33/5
f 37/18/4 43/41/4 35/41/4 30/42/4
f 34/11/7 35/41/7 48/41/7 46/11/7
f 39/32/5 41/33/5 33/33/5 32/32/5
f 40/2/1 39/43/1 32/1/1 29/2/1
f 44/30/5 38/44/5 31/14/5 36/30/5
f 38/29/3 37/21/3 30/21/3 31/29/3
f 42/11/4 40/45/4 29/12/4 34/11/4
f 18/11/4 2/12/4 40/45/4 42/11/4
f 11/22/3 12/21/3 37/21/3 38/29/3
f 24/20/5 11/14/5 38/44/5 44/30/5
f 2/2/1 1/1/1 39/43/1 40/2/1
f 1/32/5 20/33/5 41/33/5 39/32/5
f 27/41/4 18/11/4 42/11/4 43/41/4
f 12/18/4 27/41/4 43/41/4 37/18/4
f 20/33/5 24/20/5 44/30/5 41/33/5
f 47/41/4 45/11/4 46/11/4 48/41/4
f 35/41/8 43/41/8 47/41/8 48/41/8
f 43/41/9 42/11/9 45/11/9 47/41/9
f 42/11/10 34/11/10 46/11/10 45/11/10
