# Blender 5.0.0
# www.blender.org
o Mesh_Comfy_Chair
v -2.028049 0.000000 2.637148
v -2.128845 2.174094 2.637148
v -2.028049 0.000000 -2.640269
v -2.128845 2.174094 -2.640269
v 1.323918 0.000000 2.656496
v 1.323918 2.174094 2.656496
v 1.323918 0.000000 -2.640269
v 1.323918 2.174094 -2.640269
v -1.323918 0.000000 -2.640269
v -1.323918 2.174094 -2.640269
v -1.323918 0.000000 2.656496
v -1.323918 2.174094 2.656496
v -2.028049 0.000000 2.179094
v -2.128845 2.174094 2.179094
v 1.323918 0.000000 2.179094
v 1.323918 2.174094 1.771058
v -1.323918 2.174094 1.771058
v -1.323918 0.000000 2.179094
v -2.128845 2.174094 -2.179093
v 1.323918 0.000000 -2.179093
v -2.028049 0.000000 -2.179093
v 1.323918 2.174094 -1.745454
v -1.323918 2.174094 -1.745454
v -1.323918 0.000000 -2.179093
v -2.359019 3.978181 -2.179093
v -2.272771 3.682857 -2.499399
v -1.631115 3.726746 2.497666
v -2.272771 3.726746 2.497666
v -1.631115 3.682857 -2.499399
v -1.631115 3.978181 2.179094
v -2.359019 3.978181 2.179094
v -1.631115 3.978181 -2.179093
v -1.323918 3.238578 -2.640269
v 1.323918 3.238578 -2.640269
v 1.323918 3.238578 1.771058
v 1.323918 3.238578 2.637148
v -1.323918 3.238578 2.637148
v -1.323918 3.238578 1.771058
v 1.323918 3.238578 -1.745454
v -1.323918 3.238578 -1.745454
v 1.323918 2.174094 2.879903
v -1.323918 2.174094 2.879903
v 1.323918 3.238578 2.879903
v -1.323918 3.238578 2.879903
v -1.323918 2.174094 -2.851396
v 1.323918 2.174094 -2.851396
v -1.323918 3.238578 -2.851396
v 1.323918 3.238578 -2.851396
vn -0.9989 -0.0463 -0.0000
vn -0.0000 -0.0000 -1.0000
vn 1.0000 -0.0000 -0.0000
vn -0.0256 -0.0006 0.9997
vn -0.0000 -1.0000 -0.0000
vn -0.9914 -0.1074 0.0753
vn -0.0000 -0.0000 1.0000
vn -0.0000 1.0000 -0.0000
vn -0.9920 -0.1266 -0.0000
vn 0.9830 0.1785 -0.0434
vn -0.0000 0.7850 0.6195
vn -0.0000 0.7352 -0.6779
vn 0.9858 0.1679 -0.0000
vn -0.9917 -0.1091 -0.0682
vn -0.0000 0.0930 -0.9957
vn -0.0133 0.0937 0.9955
vn 0.9835 0.1773 0.0370
vn -1.0000 -0.0000 -0.0000
vt 0.375000 0.228153
vt 0.625000 0.228153
vt 0.625000 0.250000
vt 0.375000 0.250000
vt 0.375000 0.295466
vt 0.625000 0.295466
vt 0.625000 0.500000
vt 0.375000 0.500000
vt 0.375000 0.728301
vt 0.625000 0.728301
vt 0.625000 0.750000
vt 0.375000 0.750000
vt 0.375000 0.954534
vt 0.625000 0.954534
vt 0.625000 1.000000
vt 0.375000 1.000000
vt 0.170466 0.728301
vt 0.170466 0.750000
vt 0.625000 0.021699
vt 0.625000 0.000000
vt 0.625000 0.521847
vt 0.125000 0.728301
vt 0.125000 0.750000
vt 0.125000 0.521847
vt 0.170466 0.521847
vt 0.829534 0.521847
vt 0.829534 0.728301
vt 0.375000 0.521847
vt 0.375000 0.000000
vt 0.375000 0.021699
vt 0.170466 0.500000
vt 0.829534 0.500000
vt 0.125000 0.500000
vt 0.875000 0.728301
vt 0.875000 0.750000
vt 0.829534 0.750000
vt 0.875000 0.521847
vt 0.875000 0.500000
s 0
f 21/1/1 19/2/1 4/3/1 3/4/1
f 9/5/2 10/6/2 8/7/2 7/8/2
f 15/9/3 16/10/3 6/11/3 5/12/3
f 11/13/4 12/14/4 2/15/4 1/16/4
f 18/17/5 15/9/5 5/12/5 11/18/5
f 14/19/6 2/20/6 28/20/6 31/19/6
f 22/21/3 8/7/3 34/7/3 39/21/3
f 13/22/5 18/17/5 11/18/5 1/23/5
f 5/12/7 6/11/7 12/14/7 11/13/7
f 3/4/2 4/3/2 10/6/2 9/5/2
f 21/24/5 24/25/5 18/17/5 13/22/5
f 22/21/8 23/26/8 17/27/8 16/10/8
f 19/2/9 14/19/9 31/19/9 25/2/9
f 24/25/5 20/28/5 15/9/5 18/17/5
f 20/28/3 22/21/3 16/10/3 15/9/3
f 1/29/1 2/20/1 14/19/1 13/30/1
f 7/8/3 8/7/3 22/21/3 20/28/3
f 9/31/5 7/8/5 20/28/5 24/25/5
f 23/26/10 10/32/10 29/32/10 32/26/10
f 12/14/5 6/11/5 41/11/5 42/14/5
f 3/33/5 9/31/5 24/25/5 21/24/5
f 13/30/1 14/19/1 19/2/1 21/1/1
f 30/27/11 31/34/11 28/35/11 27/36/11
f 32/26/8 25/37/8 31/34/8 30/27/8
f 29/32/12 26/38/12 25/37/12 32/26/12
f 17/27/13 23/26/13 32/26/13 30/27/13
f 4/3/14 19/2/14 25/2/14 26/3/14
f 10/6/15 4/3/15 26/3/15 29/6/15
f 2/15/16 12/14/16 27/14/16 28/15/16
f 12/36/17 17/27/17 30/27/17 27/36/17
f 35/10/8 38/27/8 37/36/8 36/11/8
f 34/7/8 33/32/8 40/26/8 39/21/8
f 16/10/2 17/27/2 38/27/2 35/10/2
f 34/7/3 8/7/3 46/7/3 48/7/3
f 17/27/18 12/36/18 37/36/18 38/27/18
f 10/32/18 23/26/18 40/26/18 33/32/18
f 23/26/7 22/21/7 39/21/7 40/26/7
f 6/11/3 16/10/3 35/10/3 36/11/3
f 42/14/7 41/11/7 43/11/7 44/14/7
f 6/11/3 36/11/3 43/11/3 41/11/3
f 36/11/8 37/36/8 44/36/8 43/11/8
f 37/36/18 12/36/18 42/36/18 44/36/18
f 46/7/2 45/6/2 47/6/2 48/7/2
f 8/7/5 10/6/5 45/6/5 46/7/5
f 33/32/8 34/7/8 48/7/8 47/32/8
f 10/32/18 33/32/18 47/32/18 45/32/18
