# Blender 5.0.0
# www.blender.org
o Mesh_Sink
v -0.320645 0.000000 0.526052
v -0.320645 3.632422 0.762660
v -0.320645 0.000000 -0.175351
v -0.320645 2.754874 0.170388
v 0.320645 0.000000 0.526052
v 0.320645 3.632422 0.762660
v 0.320645 0.000000 -0.175351
v 0.320645 2.754874 0.170388
v -0.320645 2.560059 0.762660
v -0.320645 2.560059 0.170388
v 0.320645 2.560059 0.170388
v 0.320645 2.560059 0.762660
v 1.012783 3.082565 0.170388
v 1.012783 3.131808 0.762660
v 0.823397 2.560059 0.170388
v 1.012783 2.560059 0.762660
v -0.990103 2.560059 0.762660
v -0.990103 3.131808 0.762660
v -0.947685 3.026533 0.170388
v -0.828483 2.560059 0.170388
v -0.320645 0.000000 0.175351
v -0.320645 3.632422 0.293655
v 0.320645 0.000000 0.175351
v 0.320645 3.632422 0.293655
v 0.320645 2.560059 0.293655
v -0.320645 2.560059 0.293655
v 1.012783 3.131808 0.293655
v 1.012783 2.560059 0.293655
v -0.990103 3.131808 0.293655
v -0.990103 2.560059 0.293655
v -0.320645 3.088796 -1.198521
v 0.320645 3.088796 -1.198521
v -0.320645 2.745504 -0.945847
v 0.320645 2.745504 -0.945847
v 0.896133 3.176440 -0.945752
v 0.751106 2.722423 -0.797388
v -0.919307 3.132314 -0.873880
v -0.771915 2.671703 -0.604598
vn -0.0000 -0.0000 1.0000
vn 0.0018 -0.9863 -0.1647
vn -0.0000 0.9715 0.2370
vn -0.0000 -1.0000 -0.0000
vn -0.0000 1.0000 -0.0000
vn -0.0000 -0.0920 0.9958
vn 1.0000 -0.0000 -0.0000
vn -0.0000 0.1338 -0.9910
vn -1.0000 -0.0000 -0.0000
vn 0.5861 0.8103 -0.0000
vn -0.7858 -0.0902 -0.6118
vn -0.0426 0.2414 -0.9695
vn -0.0000 -0.9865 -0.1639
vn -0.5989 0.8008 -0.0000
vn 0.0321 0.2569 -0.9659
vn 0.7986 -0.1382 -0.5858
vn -0.0000 0.1391 -0.9903
vn -0.0000 -0.5928 -0.8054
vn 0.3527 -0.4709 -0.8086
vn -0.4379 -0.5447 -0.7152
vn 0.0210 -0.9878 -0.1545
vn 0.9325 -0.3385 -0.1262
vn -0.9516 -0.2968 -0.0799
vn 0.2884 0.9414 0.1749
vn -0.3379 0.9248 0.1751
vt 0.607321 1.000000
vt 0.625000 1.000000
vt 0.607321 0.500000
vt 0.875000 0.500000
vt 0.625000 0.500000
vt 0.607321 0.750000
vt 0.625000 0.750000
vt 0.125000 0.625000
vt 0.375000 0.625000
vt 0.375000 0.750000
vt 0.125000 0.750000
vt 0.625000 0.625000
vt 0.875000 0.625000
vt 0.875000 0.750000
vt 0.375000 1.000000
vt 0.607321 0.625000
vt 0.375000 0.250000
vt 0.607321 0.250000
vt 0.375000 0.500000
vt 0.375000 0.125000
vt 0.607321 0.125000
vt 0.607321 0.625000
vt 0.625000 0.125000
vt 0.625000 0.250000
vt 0.607321 0.000000
vt 0.625000 0.000000
vt 0.375000 0.000000
vt 0.125000 0.500000
s 0
f 9/1/1 2/2/1 18/2/1 17/1/1
f 15/3/2 11/3/2 34/3/2 36/3/2
f 4/4/3 8/5/3 32/5/3 31/4/3
f 12/6/1 6/7/1 2/2/1 9/1/1
f 21/8/4 23/9/4 5/10/4 1/11/4
f 24/12/5 22/13/5 2/14/5 6/7/5
f 5/10/6 12/6/6 9/1/6 1/15/6
f 23/9/7 25/16/7 12/6/7 5/10/7
f 3/17/8 10/18/8 11/3/8 7/19/8
f 21/20/9 26/21/9 10/18/9 3/17/9
f 28/22/7 27/12/7 14/7/7 16/6/7
f 24/12/10 6/7/10 14/7/10 27/12/10
f 25/16/4 11/3/4 15/3/4 28/22/4
f 6/7/1 12/6/1 16/6/1 14/7/1
f 30/21/11 29/23/11 19/24/11 20/18/11
f 26/21/4 9/25/4 17/25/4 30/21/4
f 22/13/12 4/4/12 19/4/12 29/13/12
f 11/3/13 10/18/13 33/18/13 34/3/13
f 2/14/14 22/13/14 29/13/14 18/14/14
f 10/18/4 26/21/4 30/21/4 20/18/4
f 17/25/9 18/26/9 29/23/9 30/21/9
f 12/6/4 25/16/4 28/22/4 16/6/4
f 8/5/15 24/12/15 27/12/15 13/5/15
f 15/3/16 13/5/16 27/12/16 28/22/16
f 1/27/9 9/25/9 26/21/9 21/20/9
f 7/19/7 11/3/7 25/16/7 23/9/7
f 8/5/17 4/4/17 22/13/17 24/12/17
f 3/28/4 7/19/4 23/9/4 21/8/4
f 33/18/18 31/24/18 32/5/18 34/3/18
f 34/3/19 32/5/19 35/5/19 36/3/19
f 31/24/20 33/18/20 38/18/20 37/24/20
f 10/18/21 20/18/21 38/18/21 33/18/21
f 13/5/22 15/3/22 36/3/22 35/5/22
f 20/18/23 19/24/23 37/24/23 38/18/23
f 19/4/24 4/4/24 31/4/24 37/4/24
f 8/5/25 13/5/25 35/5/25 32/5/25
