# Blender 5.0.0
# www.blender.org
o Mesh_Coffee_Table
v -2.235329 0.944194 3.652694
v -2.235329 0.000000 3.652694
v -2.235329 0.944194 3.834247
v -2.235329 0.000000 3.834247
v -2.416882 0.944194 3.652694
v -2.416882 0.000000 3.652694
v -2.416882 0.944194 3.834247
v -2.416882 0.000000 3.834247
v 0.024926 0.944194 3.654325
v 0.024926 0.000000 3.654325
v 0.024926 0.944194 3.835878
v 0.024926 0.000000 3.835878
v -0.156626 0.944194 3.654325
v -0.156626 0.000000 3.654325
v -0.156626 0.944194 3.835878
v -0.156626 0.000000 3.835878
v 0.090776 0.944194 -0.090777
v 0.090776 0.000000 -0.090777
v 0.090776 0.944194 0.090776
v 0.090776 0.000000 0.090776
v -0.090776 0.944194 -0.090777
v -0.090776 0.000000 -0.090777
v -0.090776 0.944194 0.090776
v -0.090776 0.000000 0.090776
v -2.342958 0.944194 -0.081151
v -2.342958 0.000000 -0.081151
v -2.342958 0.944194 0.100402
v -2.342958 0.000000 0.100402
v -2.524511 0.944194 -0.081151
v -2.524511 0.000000 -0.081151
v -2.524511 0.944194 0.100402
v -2.524511 0.000000 0.100402
v -0.794944 0.975751 -1.365690
v -0.794944 0.897691 -1.365690
v -0.052442 0.975751 -0.895991
v -0.052442 0.897691 -0.895991
v 0.515844 0.975751 -0.028098
v 0.515844 0.897691 -0.028098
v 0.823399 0.975751 1.105859
v 0.823399 0.897691 1.105859
v 0.823399 0.975751 2.333245
v 0.823399 0.897691 2.333245
v 0.515844 0.975751 3.467202
v 0.515844 0.897691 3.467202
v -0.052442 0.975751 4.335094
v -0.052442 0.897691 4.335094
v -0.794944 0.975751 4.804795
v -0.794944 0.897691 4.804795
v -1.598622 0.975751 4.804795
v -1.598622 0.897691 4.804795
v -2.341124 0.975751 4.335094
v -2.341124 0.897691 4.335094
v -2.909410 0.975751 3.467202
v -2.909410 0.897691 3.467202
v -3.216964 0.975751 2.333245
v -3.216964 0.897691 2.333245
v -3.216964 0.975751 1.105859
v -3.216964 0.897691 1.105859
v -2.909410 0.975751 -0.028098
v -2.909410 0.897691 -0.028098
v -2.341124 0.975751 -0.895991
v -2.341124 0.897691 -0.895991
v -1.598622 0.975751 -1.365690
v -1.598622 0.897691 -1.365690
vn 1.0000 -0.0000 -0.0000
vn -0.0000 -0.0000 1.0000
vn -1.0000 -0.0000 -0.0000
vn -0.0000 -0.0000 -1.0000
vn -0.0000 1.0000 -0.0000
vn -0.0000 -1.0000 -0.0000
vn 0.5346 -0.0000 -0.8451
vn 0.8366 -0.0000 -0.5478
vn 0.9651 -0.0000 -0.2618
vn 0.9651 -0.0000 0.2618
vn 0.8366 -0.0000 0.5478
vn 0.5346 -0.0000 0.8451
vn -0.5346 -0.0000 0.8451
vn -0.8366 -0.0000 0.5478
vn -0.9651 -0.0000 0.2618
vn -0.9651 -0.0000 -0.2618
vn -0.8366 -0.0000 -0.5478
vn -0.5346 -0.0000 -0.8451
vt 0.375000 0.000000
vt 0.625000 0.000000
vt 0.625000 0.250000
vt 0.375000 0.250000
vt 0.625000 0.500000
vt 0.375000 0.500000
vt 0.625000 0.750000
vt 0.375000 0.750000
vt 0.625000 1.000000
vt 0.375000 1.000000
vt 0.125000 0.500000
vt 0.125000 0.750000
vt 0.875000 0.500000
vt 0.875000 0.750000
vt 0.968750 1.000000
vt 0.906250 1.000000
vt 0.906250 0.500000
vt 0.968750 0.500000
vt 0.843750 1.000000
vt 0.843750 0.500000
vt 0.781250 1.000000
vt 0.781250 0.500000
vt 0.718750 1.000000
vt 0.718750 0.500000
vt 0.656250 1.000000
vt 0.656250 0.500000
vt 0.593750 1.000000
vt 0.593750 0.500000
vt 0.531250 1.000000
vt 0.531250 0.500000
vt 0.468750 1.000000
vt 0.468750 0.500000
vt 0.406250 1.000000
vt 0.406250 0.500000
vt 0.343750 1.000000
vt 0.343750 0.500000
vt 0.281250 1.000000
vt 0.281250 0.500000
vt 0.218750 1.000000
vt 0.218750 0.500000
vt 0.156250 1.000000
vt 0.156250 0.500000
vt 0.093750 1.000000
vt 0.093750 0.500000
vt 0.031250 1.000000
vt 0.031250 0.500000
vt 0.296822 0.485388
vt 0.203178 0.485388
vt 0.116663 0.449553
vt 0.050447 0.383337
vt 0.014612 0.296822
vt 0.014612 0.203178
vt 0.050447 0.116663
vt 0.116663 0.050447
vt 0.203178 0.014612
vt 0.296822 0.014612
vt 0.383337 0.050447
vt 0.449553 0.116663
vt 0.485388 0.203178
vt 0.485388 0.296822
vt 0.449553 0.383337
vt 0.383337 0.449553
vt 0.796822 0.485388
vt 0.883337 0.449553
vt 0.949553 0.383337
vt 0.985388 0.296822
vt 0.985388 0.203178
vt 0.949553 0.116663
vt 0.883337 0.050447
vt 0.796822 0.014612
vt 0.703178 0.014612
vt 0.616663 0.050447
vt 0.550447 0.116663
vt 0.514612 0.203178
vt 0.514612 0.296822
vt 0.550447 0.383337
vt 0.616663 0.449553
vt 0.703178 0.485388
s 0
f 1/1/1 3/4/1 4/3/1 2/2/1
f 3/4/2 7/6/2 8/5/2 4/3/2
f 7/6/3 5/8/3 6/7/3 8/5/3
f 5/8/4 1/10/4 2/9/4 6/7/4
f 3/11/5 1/12/5 5/8/5 7/6/5
f 8/5/6 6/7/6 2/14/6 4/13/6
f 9/1/1 11/4/1 12/3/1 10/2/1
f 11/4/2 15/6/2 16/5/2 12/3/2
f 15/6/3 13/8/3 14/7/3 16/5/3
f 13/8/4 9/10/4 10/9/4 14/7/4
f 11/11/5 9/12/5 13/8/5 15/6/5
f 16/5/6 14/7/6 10/14/6 12/13/6
f 17/1/1 19/4/1 20/3/1 18/2/1
f 19/4/2 23/6/2 24/5/2 20/3/2
f 23/6/3 21/8/3 22/7/3 24/5/3
f 21/8/4 17/10/4 18/9/4 22/7/4
f 19/11/5 17/12/5 21/8/5 23/6/5
f 24/5/6 22/7/6 18/14/6 20/13/6
f 25/1/1 27/4/1 28/3/1 26/2/1
f 27/4/2 31/6/2 32/5/2 28/3/2
f 31/6/3 29/8/3 30/7/3 32/5/3
f 29/8/4 25/10/4 26/9/4 30/7/4
f 27/11/5 25/12/5 29/8/5 31/6/5
f 32/5/6 30/7/6 26/14/6 28/13/6
f 34/15/7 33/18/7 35/17/7 36/16/7
f 36/16/8 35/17/8 37/20/8 38/19/8
f 38/19/9 37/20/9 39/22/9 40/21/9
f 40/21/1 39/22/1 41/24/1 42/23/1
f 42/23/10 41/24/10 43/26/10 44/25/10
f 44/25/11 43/26/11 45/28/11 46/27/11
f 46/27/12 45/28/12 47/30/12 48/29/12
f 48/29/2 47/30/2 49/32/2 50/31/2
f 50/31/13 49/32/13 51/34/13 52/33/13
f 52/33/14 51/34/14 53/36/14 54/35/14
f 54/35/15 53/36/15 55/38/15 56/37/15
f 56/37/3 55/38/3 57/40/3 58/39/3
f 58/39/16 57/40/16 59/42/16 60/41/16
f 60/41/17 59/42/17 61/44/17 62/43/17
f 62/43/18 61/44/18 63/46/18 64/45/18
f 34/47/6 36/62/6 38/61/6 40/60/6 42/59/6 44/58/6 46/57/6 48/56/6 50/55/6 52/54/6 54/53/6 56/52/6 58/51/6 60/50/6 62/49/6 64/48/6
f 33/63/5 63/78/5 61/77/5 59/76/5 57/75/5 55/74/5 53/73/5 51/72/5 49/71/5 47/70/5 45/69/5 43/68/5 41/67/5 39/66/5 37/65/5 35/64/5
f 63/46/4 33/18/4 34/15/4 64/45/4
