# Blender 5.0.0
# www.blender.org
o Mesh_Cabinets
v -3.814409 0.000000 0.653977
v -3.814409 2.389469 0.653977
v -3.814409 0.000000 -1.506156
v -3.814409 2.389469 -1.506156
v 2.969543 0.000000 0.757836
v 2.969543 2.389469 0.757836
v 2.969543 0.000000 -0.834051
v 2.969543 2.389469 -0.834051
v -2.443751 0.000000 -0.834051
v -2.443751 2.389469 -0.834051
v -2.443751 0.000000 0.757836
v -2.443751 2.389469 0.757836
v -3.784112 0.006441 0.663952
v -3.784112 2.395910 0.663952
v -5.375999 0.006441 0.663952
v -5.375999 2.395910 0.663952
v -3.784113 0.006441 -9.139156
v -3.784113 2.395910 -9.139156
v -5.376000 0.006441 -9.139156
v -5.376000 2.395910 -9.139156
v -5.376000 0.006441 -7.030269
v -5.376000 2.395910 -7.030269
v -3.784113 0.006441 -7.030269
v -3.784113 2.395910 -7.030269
v -5.375999 0.006441 -3.937016
v -3.784112 2.395910 -3.937016
v -5.375999 2.395910 -3.937016
v -3.784112 0.006441 -3.937016
v -3.784112 1.482973 0.663952
v -5.375999 1.482973 0.663952
v -5.376000 1.482973 -9.139156
v -3.784113 1.482973 -9.139156
v -3.784113 1.482973 -7.030269
v -5.376000 1.482973 -7.030269
v -5.375999 1.482973 -3.937016
v -3.784112 1.482973 -3.937016
vn -1.0000 -0.0000 -0.0000
vn -0.0000 -0.0000 -1.0000
vn 1.0000 -0.0000 -0.0000
vn -0.0756 -0.0000 0.9971
vn -0.0000 -1.0000 -0.0000
vn -0.0000 1.0000 -0.0000
vn -0.0000 -0.0000 1.0000
vn 0.4403 -0.0000 -0.8979
vt 0.375000 0.000000
vt 0.625000 0.000000
vt 0.625000 0.250000
vt 0.375000 0.250000
vt 0.375000 0.301186
vt 0.625000 0.301186
vt 0.625000 0.500000
vt 0.375000 0.500000
vt 0.625000 0.750000
vt 0.375000 0.750000
vt 0.375000 0.948814
vt 0.625000 0.948814
vt 0.625000 1.000000
vt 0.375000 1.000000
vt 0.176186 0.500000
vt 0.176186 0.750000
vt 0.823814 0.500000
vt 0.875000 0.500000
vt 0.875000 0.750000
vt 0.823814 0.750000
vt 0.125000 0.500000
vt 0.125000 0.750000
vt 0.529483 0.000000
vt 0.529483 0.250000
vt 0.529483 0.431578
vt 0.625000 0.431578
vt 0.529483 0.500000
vt 0.529483 0.750000
vt 0.529483 0.918782
vt 0.625000 0.918782
vt 0.529483 1.000000
vt 0.306578 0.500000
vt 0.306578 0.750000
vt 0.793782 0.500000
vt 0.793782 0.750000
vt 0.693422 0.500000
vt 0.693422 0.750000
vt 0.375000 0.918782
vt 0.206218 0.500000
vt 0.529483 0.331218
vt 0.625000 0.818422
vt 0.529483 0.818422
vt 0.625000 0.331218
vt 0.206218 0.750000
vt 0.375000 0.818422
vt 0.375000 0.331218
vt 0.375000 0.431578
s 0
f 1/1/1 2/2/1 4/3/1 3/4/1
f 9/5/2 10/6/2 8/7/2 7/8/2
f 7/8/3 8/7/3 6/9/3 5/10/3
f 11/11/4 12/12/4 2/13/4 1/14/4
f 9/15/5 7/8/5 5/10/5 11/16/5
f 10/17/6 4/18/6 2/19/6 12/20/6
f 8/7/6 10/17/6 12/20/6 6/9/6
f 3/21/5 9/15/5 11/16/5 1/22/5
f 5/10/7 6/9/7 12/12/7 11/11/7
f 3/4/8 4/3/8 10/6/8 9/5/8
f 29/23/7 14/2/7 16/3/7 30/24/7
f 34/25/1 22/26/1 20/7/1 31/27/1
f 31/27/2 20/7/2 18/9/2 32/28/2
f 36/29/3 26/30/3 14/13/3 29/31/3
f 21/32/5 19/8/5 17/10/5 23/33/5
f 27/34/6 16/18/6 14/19/6 26/35/6
f 20/7/6 22/36/6 24/37/6 18/9/6
f 36/29/2 28/38/2 25/39/2 35/40/2
f 32/28/3 18/9/3 24/41/3 33/42/3
f 35/40/1 27/43/1 22/26/1 34/25/1
f 30/24/1 16/3/1 27/43/1 35/40/1
f 15/21/5 25/39/5 28/44/5 13/22/5
f 22/36/6 27/34/6 26/35/6 24/37/6
f 33/42/3 24/41/3 26/30/3 36/29/3
f 33/42/7 34/25/7 21/32/7 23/45/7
f 15/4/1 30/24/1 35/40/1 25/46/1
f 33/42/5 36/29/5 35/40/5 34/25/5
f 17/10/3 32/28/3 33/42/3 23/45/3
f 28/38/3 36/29/3 29/31/3 13/14/3
f 19/8/2 31/27/2 32/28/2 17/10/2
f 21/47/1 34/25/1 31/27/1 19/8/1
f 13/1/7 29/23/7 30/24/7 15/4/7
