# Blender 5.0.0
# www.blender.org
o Mesh_Couch
v -1.912501 0.000000 4.761330
v -2.013297 2.167019 4.761330
v -1.912501 0.000000 -4.766966
v -2.013297 2.167019 -4.766966
v 1.323918 0.000000 4.761330
v 1.323918 2.167019 4.761330
v 1.323918 0.000000 -4.766966
v 1.323918 2.167019 -4.766966
v -1.323918 0.000000 -4.766966
v -1.323918 2.167019 -4.766966
v -1.323918 0.000000 4.761330
v -1.323918 2.167019 4.761330
v -1.912501 0.000000 3.934319
v -2.013297 2.167019 3.934319
v 1.323918 0.000000 3.934319
v 1.323918 2.167019 3.934319
v -1.323918 2.167019 3.934319
v -1.323918 0.000000 3.934319
v -2.013297 2.167019 -3.934319
v 1.323918 0.000000 -3.934319
v -1.912501 0.000000 -3.934319
v 1.323918 2.167019 -3.934319
v -1.323918 2.167019 -3.934319
v -1.323918 0.000000 -3.934319
v -2.272771 3.965236 -3.934319
v -2.272771 3.670872 -4.512627
v -1.631114 3.714618 4.509496
v -2.272771 3.714618 4.509496
v -1.631114 3.670872 -4.512627
v -1.631114 3.965236 3.934319
v -2.272771 3.965236 3.934319
v -1.631114 3.965236 -3.934319
v -1.323918 3.228039 -4.766966
v 1.323918 3.228039 -4.766966
v 1.323918 3.228039 3.934319
v 1.323918 3.228039 4.761330
v -1.323918 3.228039 4.761330
v -1.323918 3.228039 3.934319
v 1.323918 3.228039 -3.934319
v -1.323918 3.228039 -3.934319
v 1.323918 2.167019 4.975016
v -1.323918 2.167019 4.975016
v 1.323918 3.228039 4.975016
v -1.323918 3.228039 4.975016
v -1.323918 2.167019 -4.986786
v 1.323918 2.167019 -4.986786
v -1.323918 3.228039 -4.986786
v 1.323918 3.228039 -4.986786
vn -0.9989 -0.0465 -0.0000
vn -0.0000 -0.0000 -1.0000
vn 1.0000 -0.0000 -0.0000
vn -0.0000 -0.0000 1.0000
vn -0.0000 -1.0000 -0.0000
vn -0.9875 -0.1553 -0.0277
vn -0.0000 1.0000 -0.0000
vn -0.9897 -0.1428 -0.0000
vn 0.9818 0.1857 -0.0387
vn -0.0000 0.9168 0.3995
vn -0.0000 0.8912 -0.4536
vn 0.9857 0.1684 -0.0000
vn -0.9869 -0.1576 0.0329
vn -0.0000 0.1668 -0.9860
vn -0.0000 0.1606 0.9870
vn 0.9826 0.1829 0.0327
vn -1.0000 -0.0000 -0.0000
vt 0.375000 0.228153
vt 0.625000 0.228153
vt 0.625000 0.250000
vt 0.375000 0.250000
vt 0.375000 0.295466
vt 0.625000 0.295466
vt 0.625000 0.500000
vt 0.375000 0.500000
vt 0.375000 0.728301
vt 0.625000 0.728301
vt 0.625000 0.750000
vt 0.375000 0.750000
vt 0.375000 0.954534
vt 0.625000 0.954534
vt 0.625000 1.000000
vt 0.375000 1.000000
vt 0.170466 0.728301
vt 0.170466 0.750000
vt 0.625000 0.021699
vt 0.625000 0.000000
vt 0.625000 0.521847
vt 0.125000 0.728301
vt 0.125000 0.750000
vt 0.125000 0.521847
vt 0.170466 0.521847
vt 0.829534 0.521847
vt 0.829534 0.728301
vt 0.375000 0.521847
vt 0.375000 0.000000
vt 0.375000 0.021699
vt 0.170466 0.500000
vt 0.829534 0.500000
vt 0.125000 0.500000
vt 0.875000 0.728301
vt 0.875000 0.750000
vt 0.829534 0.750000
vt 0.875000 0.521847
vt 0.875000 0.500000
s 0
f 21/1/1 19/2/1 4/3/1 3/4/1
f 9/5/2 10/6/2 8/7/2 7/8/2
f 15/9/3 16/10/3 6/11/3 5/12/3
f 11/13/4 12/14/4 2/15/4 1/16/4
f 18/17/5 15/9/5 5/12/5 11/18/5
f 14/19/6 2/20/6 28/20/6 31/19/6
f 22/21/3 8/7/3 34/7/3 39/21/3
f 13/22/5 18/17/5 11/18/5 1/23/5
f 5/12/4 6/11/4 12/14/4 11/13/4
f 3/4/2 4/3/2 10/6/2 9/5/2
f 21/24/5 24/25/5 18/17/5 13/22/5
f 22/21/7 23/26/7 17/27/7 16/10/7
f 19/2/8 14/19/8 31/19/8 25/2/8
f 24/25/5 20/28/5 15/9/5 18/17/5
f 20/28/3 22/21/3 16/10/3 15/9/3
f 1/29/1 2/20/1 14/19/1 13/30/1
f 7/8/3 8/7/3 22/21/3 20/28/3
f 9/31/5 7/8/5 20/28/5 24/25/5
f 23/26/9 10/32/9 29/32/9 32/26/9
f 12/14/5 6/11/5 41/11/5 42/14/5
f 3/33/5 9/31/5 24/25/5 21/24/5
f 13/30/1 14/19/1 19/2/1 21/1/1
f 30/27/10 31/34/10 28/35/10 27/36/10
f 32/26/7 25/37/7 31/34/7 30/27/7
f 29/32/11 26/38/11 25/37/11 32/26/11
f 17/27/12 23/26/12 32/26/12 30/27/12
f 4/3/13 19/2/13 25/2/13 26/3/13
f 10/6/14 4/3/14 26/3/14 29/6/14
f 2/15/15 12/14/15 27/14/15 28/15/15
f 12/36/16 17/27/16 30/27/16 27/36/16
f 35/10/7 38/27/7 37/36/7 36/11/7
f 34/7/7 33/32/7 40/26/7 39/21/7
f 16/10/2 17/27/2 38/27/2 35/10/2
f 34/7/3 8/7/3 46/7/3 48/7/3
f 17/27/17 12/36/17 37/36/17 38/27/17
f 10/32/17 23/26/17 40/26/17 33/32/17
f 23/26/4 22/21/4 39/21/4 40/26/4
f 6/11/3 16/10/3 35/10/3 36/11/3
f 42/14/4 41/11/4 43/11/4 44/14/4
f 6/11/3 36/11/3 43/11/3 41/11/3
f 36/11/7 37/36/7 44/36/7 43/11/7
f 37/36/17 12/36/17 42/36/17 44/36/17
f 46/7/2 45/6/2 47/6/2 48/7/2
f 8/7/5 10/6/5 45/6/5 46/7/5
f 33/32/7 34/7/7 48/7/7 47/32/7
f 10/32/17 33/32/17 47/32/17 45/32/17
