# Blender 5.0.0
# www.blender.org
o Mesh_Stool
v -0.545299 -0.004062 0.555667
v -0.303251 2.022721 0.314483
v -0.470291 -0.001825 -0.592922
v -0.223688 2.022721 -0.414082
v 0.482304 0.000726 0.591908
v 0.297256 2.022721 0.359543
v 0.533287 0.005161 -0.554655
v 0.339728 2.022721 -0.324840
v -0.307974 1.833110 0.319189
v -0.228499 1.767909 -0.417571
v 0.343505 1.795783 -0.329324
v 0.300866 1.810544 0.364076
v 0.697819 2.022721 -0.252578
v 0.669657 2.022721 0.317925
v 0.701596 1.836443 -0.257062
v 0.673267 1.851203 0.322458
v -0.224111 1.879051 0.685635
v -0.219389 2.022721 0.680930
v 0.237385 2.022721 0.685176
v 0.240996 1.856485 0.689710
v 0.470710 2.022721 0.568977
v 0.474321 1.897144 0.573511
v -0.696011 1.887654 0.254080
v -0.691289 2.022721 0.249375
v -0.663619 2.022721 -0.242923
v -0.668431 1.822453 -0.246412
v -0.484088 1.882673 0.532957
v -0.479365 2.022721 0.528251
v -0.211581 2.022721 -0.661094
v 0.288615 2.022721 -0.667189
v -0.216392 1.802717 -0.664583
v 0.292391 1.830591 -0.671672
v 0.556989 2.022721 -0.472975
v 0.560765 1.871251 -0.477459
v -0.519487 2.022721 -0.461757
v -0.524298 1.857261 -0.465246
vn -0.5056 0.0454 0.8615
vn -0.2485 -0.9423 -0.2242
vn 0.1094 -0.9936 0.0291
vn -0.0000 1.0000 -0.0000
vn 0.0059 -1.0000 -0.0026
vn -0.0477 0.1269 0.9908
vn 0.9935 0.1025 0.0500
vn 0.0771 0.1104 -0.9909
vn -0.9879 0.1298 -0.0853
vn 0.9986 0.0206 0.0488
vn -0.8359 0.0324 -0.5480
vn -0.0083 0.0298 0.9995
vn 0.4427 0.0388 0.8958
vn 0.7849 0.0380 0.6185
vn -0.0477 -0.9900 0.1331
vn 0.1896 -0.9528 0.2369
vn -0.1292 -0.9841 0.1217
vn -0.9980 0.0282 -0.0574
vn -0.7951 0.0480 0.6046
vn 0.2049 -0.9604 -0.1887
vn -0.1182 -0.9885 0.0940
vn -0.0136 0.0194 -0.9997
vn 0.5842 0.0340 -0.8109
vn -0.5414 0.0287 -0.8403
vn 0.0602 -0.9908 -0.1210
vn 0.8434 0.0331 -0.5363
vt 0.620122 1.000000
vt 0.625000 1.000000
vt 0.620122 0.250000
vt 0.620122 0.750000
vt 0.620122 0.500000
vt 0.625000 0.750000
vt 0.875000 0.750000
vt 0.125000 0.500000
vt 0.375000 0.500000
vt 0.375000 0.750000
vt 0.125000 0.750000
vt 0.625000 0.500000
vt 0.875000 0.500000
vt 0.375000 1.000000
vt 0.375000 0.250000
vt 0.375000 0.000000
vt 0.620122 0.000000
vt 0.625000 0.250000
vt 0.625000 0.000000
s 0
f 17/1/1 18/2/1 28/2/1 27/1/1
f 10/3/2 26/3/2 36/3/2 31/3/2
f 12/4/3 11/5/3 15/5/3 16/4/3
f 6/6/4 2/7/4 18/7/4 19/6/4
f 3/8/5 7/9/5 5/10/5 1/11/5
f 8/12/4 4/13/4 2/7/4 6/6/4
f 5/10/6 12/4/6 9/1/6 1/14/6
f 7/9/7 11/5/7 12/4/7 5/10/7
f 3/15/8 10/3/8 11/5/8 7/9/8
f 1/16/9 9/17/9 10/3/9 3/15/9
f 15/5/10 13/12/10 14/6/10 16/4/10
f 14/6/4 6/6/4 19/6/4 21/6/4
f 26/3/11 25/18/11 35/18/11 36/3/11
f 8/12/4 6/6/4 14/6/4 13/12/4
f 20/4/12 19/6/12 18/2/12 17/1/12
f 19/6/13 20/4/13 22/4/13 21/6/13
f 16/4/14 14/6/14 21/6/14 22/4/14
f 9/1/15 12/4/15 20/4/15 17/1/15
f 12/4/16 16/4/16 22/4/16 20/4/16
f 9/1/17 17/1/17 27/1/17 23/1/17
f 23/17/18 24/19/18 25/18/18 26/3/18
f 24/19/19 23/17/19 27/17/19 28/19/19
f 2/7/4 4/13/4 25/13/4 24/7/4
f 15/5/20 11/5/20 32/5/20 34/5/20
f 18/7/4 2/7/4 24/7/4 28/7/4
f 10/3/21 9/17/21 23/17/21 26/3/21
f 31/3/22 29/18/22 30/12/22 32/5/22
f 32/5/23 30/12/23 33/12/23 34/5/23
f 29/18/24 31/3/24 36/3/24 35/18/24
f 11/5/25 10/3/25 31/3/25 32/5/25
f 25/13/4 4/13/4 29/13/4 35/13/4
f 8/12/4 13/12/4 33/12/4 30/12/4
f 4/13/4 8/12/4 30/12/4 29/13/4
f 13/12/26 15/5/26 34/5/26 33/12/26
