# Blender 5.0.0
# www.blender.org
o Mesh_Dining_Table
v -2.578865 2.252685 2.974310
v -2.578865 2.658828 2.974310
v -2.578865 2.252685 -3.034705
v -2.578865 2.658828 -3.034705
v 9.424359 2.252685 2.974310
v 9.424359 2.658828 2.974310
v 9.424359 2.252685 -3.034705
v 9.424359 2.658828 -3.034705
v 6.394231 0.000000 1.000000
v 6.730022 2.247985 0.159913
v 6.394231 0.000000 -1.000000
v 6.730022 2.247985 -0.223009
v 7.444744 0.000000 1.000000
v 7.090453 2.247985 0.159913
v 7.444744 0.000000 -1.000000
v 7.090453 2.247985 -0.223009
v 6.771326 0.316384 0.115799
v 6.771326 0.316384 -0.173716
v 7.047618 0.316384 -0.173716
v 7.047618 0.316384 0.115799
v 6.394231 1.488246 0.488997
v 6.394231 1.488246 -0.537843
v 7.427379 1.488246 -0.537843
v 7.427379 1.488246 0.488997
v 6.771326 0.323064 -1.249218
v 6.394231 0.006679 -1.319508
v 7.444744 0.006679 -1.319508
v 7.047618 0.323064 -1.249218
v 7.047618 0.327608 1.120897
v 7.444744 0.004637 1.200922
v 6.394231 0.004637 1.200922
v 6.771326 0.327608 1.120897
v -0.525256 0.000000 1.000000
v -0.189465 2.247985 0.159913
v -0.525256 0.000000 -1.000000
v -0.189465 2.247985 -0.223009
v 0.525256 0.000000 1.000000
v 0.170965 2.247985 0.159913
v 0.525256 0.000000 -1.000000
v 0.170965 2.247985 -0.223009
v -0.148162 0.316384 0.115799
v -0.148162 0.316384 -0.173716
v 0.128131 0.316384 -0.173716
v 0.128131 0.316384 0.115799
v -0.525256 1.488246 0.488997
v -0.525256 1.488246 -0.537843
v 0.507892 1.488246 -0.537843
v 0.507892 1.488246 0.488997
v -0.148162 0.323064 -1.249218
v -0.525256 0.006679 -1.319508
v 0.525256 0.006679 -1.319508
v 0.128131 0.323064 -1.249218
v 0.128131 0.327608 1.120897
v 0.525256 0.004637 1.200922
v -0.525256 0.004637 1.200922
v -0.148162 0.327608 1.120897
v 0.178890 0.065526 0.468577
v 0.178890 0.213872 0.468577
v 0.178890 0.065526 -0.555014
v 0.178890 0.213872 -0.555014
v 6.632180 0.065526 0.468577
v 6.632180 0.213872 0.468577
v 6.632180 0.065526 -0.555014
v 6.632180 0.213872 -0.555014
vn -1.0000 -0.0000 -0.0000
vn -0.0000 -0.0000 -1.0000
vn 1.0000 -0.0000 -0.0000
vn -0.0000 -0.0000 1.0000
vn -0.0000 -1.0000 -0.0000
vn -0.0000 1.0000 -0.0000
vn -0.9146 0.4043 -0.0000
vn -0.0000 0.3828 -0.9238
vn 0.9141 0.4054 -0.0000
vn -0.0000 0.3975 0.9176
vn 0.6345 0.7729 -0.0102
vn 0.6231 0.7821 -0.0000
vn -0.0000 1.0000 0.0062
vn -0.6427 0.7661 -0.0000
vn -0.0000 -0.3034 0.9528
vn 0.9513 -0.3083 -0.0000
vn -0.0000 -0.2967 -0.9550
vn -0.9519 -0.3063 -0.0000
vn -0.0000 0.2169 -0.9762
vn -0.6478 0.7618 0.0073
vn 0.6282 0.7780 0.0075
vn -0.0000 -0.9998 -0.0209
vn -0.0000 0.2405 0.9706
vn -0.0000 0.9999 -0.0112
vn -0.6540 0.7564 -0.0099
vn -0.0000 -0.9997 0.0231
vt 0.375000 0.000000
vt 0.625000 0.000000
vt 0.625000 0.250000
vt 0.375000 0.250000
vt 0.625000 0.500000
vt 0.375000 0.500000
vt 0.625000 0.750000
vt 0.375000 0.750000
vt 0.625000 1.000000
vt 0.375000 1.000000
vt 0.125000 0.500000
vt 0.125000 0.750000
vt 0.875000 0.500000
vt 0.875000 0.750000
vt 0.541571 0.000000
vt 0.541571 0.250000
vt 0.541571 0.500000
vt 0.541571 0.750000
vt 0.541571 1.000000
vt 0.412886 0.750000
vt 0.412886 0.500000
vt 0.412886 0.250000
vt 0.412886 0.000000
vt 0.412886 1.000000
s 0
f 1/1/1 2/2/1 4/3/1 3/4/1
f 3/4/2 4/3/2 8/5/2 7/6/2
f 7/6/3 8/5/3 6/7/3 5/8/3
f 5/8/4 6/7/4 2/9/4 1/10/4
f 3/11/5 7/6/5 5/8/5 1/12/5
f 8/5/6 4/13/6 2/14/6 6/7/6
f 21/15/7 10/2/7 12/3/7 22/16/7
f 22/16/8 12/3/8 16/5/8 23/17/8
f 23/17/9 16/5/9 14/7/9 24/18/9
f 24/18/10 14/7/10 10/9/10 21/19/10
f 11/11/5 15/6/5 13/8/5 9/12/5
f 16/5/6 12/13/6 10/14/6 14/7/6
f 13/8/11 20/20/11 29/20/11 30/8/11
f 15/6/12 19/21/12 20/20/12 13/8/12
f 18/22/13 19/21/13 28/21/13 25/22/13
f 9/1/14 17/23/14 18/22/14 11/4/14
f 20/20/15 24/18/15 21/19/15 17/24/15
f 19/21/16 23/17/16 24/18/16 20/20/16
f 18/22/17 22/16/17 23/17/17 19/21/17
f 17/23/18 21/15/18 22/16/18 18/22/18
f 26/4/19 25/22/19 28/21/19 27/6/19
f 11/4/20 18/22/20 25/22/20 26/4/20
f 19/21/21 15/6/21 27/6/21 28/21/21
f 15/6/22 11/11/22 26/11/22 27/6/22
f 30/8/23 29/20/23 32/24/23 31/10/23
f 20/20/24 17/24/24 32/24/24 29/20/24
f 17/23/25 9/1/25 31/1/25 32/23/25
f 9/12/26 13/8/26 30/8/26 31/12/26
f 45/15/7 34/2/7 36/3/7 46/16/7
f 46/16/8 36/3/8 40/5/8 47/17/8
f 47/17/9 40/5/9 38/7/9 48/18/9
f 48/18/10 38/7/10 34/9/10 45/19/10
f 35/11/5 39/6/5 37/8/5 33/12/5
f 40/5/6 36/13/6 34/14/6 38/7/6
f 37/8/11 44/20/11 53/20/11 54/8/11
f 39/6/12 43/21/12 44/20/12 37/8/12
f 42/22/13 43/21/13 52/21/13 49/22/13
f 33/1/14 41/23/14 42/22/14 35/4/14
f 44/20/15 48/18/15 45/19/15 41/24/15
f 43/21/16 47/17/16 48/18/16 44/20/16
f 42/22/17 46/16/17 47/17/17 43/21/17
f 41/23/18 45/15/18 46/16/18 42/22/18
f 50/4/19 49/22/19 52/21/19 51/6/19
f 35/4/20 42/22/20 49/22/20 50/4/20
f 43/21/21 39/6/21 51/6/21 52/21/21
f 39/6/22 35/11/22 50/11/22 51/6/22
f 54/8/23 53/20/23 56/24/23 55/10/23
f 44/20/24 41/24/24 56/24/24 53/20/24
f 41/23/25 33/1/25 55/1/25 56/23/25
f 33/12/26 37/8/26 54/8/26 55/12/26
f 57/1/1 58/2/1 60/3/1 59/4/1
f 59/4/2 60/3/2 64/5/2 63/6/2
f 63/6/3 64/5/3 62/7/3 61/8/3
f 61/8/4 62/7/4 58/9/4 57/10/4
f 59/11/5 63/6/5 61/8/5 57/12/5
f 64/5/6 60/13/6 58/14/6 62/7/6
