# Blender 5.0.0
# www.blender.org
o Mesh_Dining_Chair
v -1.016827 0.000000 0.711998
v -1.161237 1.794501 0.883689
v -1.016827 0.000000 -0.723060
v -1.161237 1.794501 -0.859257
v 0.958435 0.000000 0.820519
v 0.792979 1.794501 0.883689
v 0.958435 0.000000 -0.809458
v 0.792979 1.794501 -0.859257
v 0.735356 0.000000 -0.809458
v 0.569901 1.794501 -0.859257
v 0.735356 0.000000 0.820519
v 0.569901 1.794501 0.883689
v -0.735356 0.000000 -0.723060
v -0.879767 1.794501 0.883689
v -0.879767 1.794501 -0.859257
v -0.735356 0.000000 0.711998
v -1.032752 0.197888 0.711998
v -1.032752 0.197888 -0.723060
v 0.940190 0.197888 -0.809458
v 0.940190 0.197888 0.820519
v 0.717111 0.197888 0.820519
v 0.717111 0.197888 -0.809458
v -0.751281 0.197888 -0.723060
v -0.751281 0.197888 0.711998
v 0.832304 3.781104 -0.859257
v 1.055383 3.781104 -0.859257
v 1.055383 3.781104 0.883689
v 0.832304 3.781104 0.883689
v 0.806796 2.787802 0.883689
v 0.583717 2.787802 0.883689
v 0.583717 2.787802 -0.859257
v 0.806796 2.787802 -0.859257
vn -0.9968 -0.0802 -0.0000
vn -0.0000 -0.0312 -0.9995
vn 0.9958 0.0918 -0.0000
vn -0.0000 -0.1069 0.9943
vn -0.0000 -1.0000 -0.0000
vn -0.0000 1.0000 -0.0000
vn -0.0000 -0.0000 1.0000
vn -0.0000 -0.0395 0.9992
vn -0.0295 -0.0607 -0.9977
vn -0.0000 -0.0850 -0.9964
vn -0.0371 -0.0765 0.9964
vn -0.0736 -0.0064 0.9973
vn -0.0000 -0.0000 -1.0000
vn -0.0587 -0.0051 -0.9983
vn -0.9701 0.2428 -0.0000
vn 0.9701 -0.2428 -0.0000
vn 0.9999 -0.0139 -0.0000
vn -0.9999 0.0139 -0.0000
vt 0.402569 0.000000
vt 0.625000 0.000000
vt 0.625000 0.250000
vt 0.402569 0.250000
vt 0.402569 0.471462
vt 0.625000 0.471462
vt 0.625000 0.500000
vt 0.402569 0.500000
vt 0.625000 0.750000
vt 0.402569 0.750000
vt 0.402569 0.963992
vt 0.625000 0.963992
vt 0.625000 1.000000
vt 0.402569 1.000000
vt 0.346462 0.500000
vt 0.375000 0.500000
vt 0.375000 0.750000
vt 0.346462 0.750000
vt 0.838992 0.500000
vt 0.875000 0.500000
vt 0.875000 0.750000
vt 0.838992 0.750000
vt 0.625000 0.778538
vt 0.625000 0.750000
vt 0.161008 0.500000
vt 0.161008 0.750000
vt 0.402569 0.778538
vt 0.402569 0.286008
vt 0.625000 0.286008
vt 0.125000 0.500000
vt 0.125000 0.750000
vt 0.653538 0.500000
vt 0.653538 0.750000
vt 0.375000 0.778538
vt 0.375000 0.963992
vt 0.375000 0.250000
vt 0.375000 0.286008
vt 0.375000 0.471462
vt 0.375000 1.000000
vt 0.375000 0.000000
vt 0.653538 0.750000
s 0
f 17/1/1 2/2/1 4/3/1 18/4/1
f 22/5/2 10/6/2 8/7/2 19/8/2
f 19/8/3 8/7/3 6/9/3 20/10/3
f 24/11/4 14/12/4 2/13/4 17/14/4
f 9/15/5 7/16/5 5/17/5 11/18/5
f 15/19/6 4/20/6 2/21/6 14/22/6
f 30/23/7 29/24/7 27/9/7 28/23/7
f 13/25/5 9/15/5 11/18/5 16/26/5
f 20/10/8 6/9/8 12/23/8 21/27/8
f 23/28/9 15/29/9 10/6/9 22/5/9
f 18/4/10 4/3/10 15/29/10 23/28/10
f 3/30/5 13/25/5 16/26/5 1/31/5
f 10/32/6 15/19/6 14/22/6 12/33/6
f 21/27/11 12/23/11 14/12/11 24/11/11
f 11/34/12 21/27/12 24/11/12 16/35/12
f 3/36/13 18/4/13 23/28/13 13/37/13
f 13/37/14 23/28/14 22/5/14 9/38/14
f 5/17/7 20/10/7 21/27/7 11/34/7
f 16/35/7 24/11/7 17/14/7 1/39/7
f 7/16/3 19/8/3 20/10/3 5/17/3
f 9/38/13 22/5/13 19/8/13 7/16/13
f 1/40/1 17/1/1 18/4/1 3/36/1
f 26/7/6 25/32/6 28/33/6 27/9/6
f 32/7/13 31/6/13 25/6/13 26/7/13
f 31/32/15 30/41/15 28/33/15 25/32/15
f 29/24/16 32/7/16 26/7/16 27/9/16
f 6/9/17 8/7/17 32/7/17 29/24/17
f 10/32/18 12/33/18 30/41/18 31/32/18
f 8/7/13 10/6/13 31/6/13 32/7/13
f 12/23/7 6/9/7 29/24/7 30/23/7
