# Blender 5.0.0
# www.blender.org
o Plane
v -0.036834 1.946129 1.000000
v -0.036834 -0.053871 1.000000
v -0.036834 1.946129 -1.000000
v -0.036834 -0.053871 -1.000000
v 0.036834 1.838387 -0.892258
v 0.036834 1.838387 0.892258
v 0.036834 0.053871 0.892258
v 0.036834 0.053871 -0.892258
v 0.007173 1.838387 -0.892258
v 0.007173 1.838387 0.892258
v 0.007173 0.053871 0.892258
v 0.007173 0.053871 -0.892258
vn -0.0000 -0.0000 -1.0000
vn 0.8255 0.5644 -0.0000
vn 0.8255 -0.0000 0.5644
vn 0.8255 -0.5644 -0.0000
vn 0.8255 -0.0000 -0.5644
vn 1.0000 -0.0000 -0.0000
vn -0.0000 1.0000 -0.0000
vn -0.0000 -1.0000 -0.0000
vn -0.0000 -0.0000 1.0000
vt 0.814249 0.107651
vt 0.819518 0.107274
vt 0.819439 0.107387
vt 0.814355 0.107725
vt 0.814287 0.112849
vt 0.813930 0.113208
vt 0.813930 0.107355
vt 0.819900 0.106860
vt 0.819551 0.112558
vt 0.819899 0.112908
vt 0.253552 0.964356
vt 0.253552 0.612724
vt 0.604855 0.612724
vt 0.604855 0.964356
vt 0.819444 0.112483
vt 0.814365 0.112738
s 0
f 6/1/1 7/2/1 11/3/1 10/4/1
f 6/1/2 5/5/2 3/6/2 1/7/2
f 7/2/3 6/1/3 1/7/3 2/8/3
f 8/9/4 7/2/4 2/8/4 4/10/4
f 5/5/5 8/9/5 4/10/5 3/6/5
f 10/11/6 11/12/6 12/13/6 9/14/6
f 7/2/7 8/9/7 12/15/7 11/3/7
f 5/5/8 6/1/8 10/4/8 9/16/8
f 8/9/9 5/5/9 9/16/9 12/15/9
