# Blender 5.0.0
# www.blender.org
o Plane.004
v -0.056967 0.987284 0.574231
v -0.056967 -0.462516 0.574231
v -0.056967 0.987284 -0.574231
v -0.056967 -0.462516 -0.574231
v -0.014665 0.925415 -0.512362
v -0.014665 0.925415 0.512362
v -0.014665 -0.400647 0.512362
v -0.014665 -0.400647 -0.512362
v -0.031697 0.925415 -0.512362
v -0.031697 0.925415 0.512362
v -0.031697 -0.400647 0.512362
v -0.031697 -0.400647 -0.512362
vn -0.0000 -0.0000 -1.0000
vn 0.8255 0.5644 -0.0000
vn 0.8255 -0.0000 0.5644
vn 0.8255 -0.5644 -0.0000
vn 0.8255 -0.0000 -0.5644
vn 1.0000 -0.0000 -0.0000
vn -0.0000 1.0000 -0.0000
vn -0.0000 -1.0000 -0.0000
vn -0.0000 -0.0000 1.0000
vt 0.817800 0.123446
vt 0.817754 0.110501
vt 0.817959 0.110668
vt 0.817955 0.123245
vt 0.828171 0.123977
vt 0.828827 0.124720
vt 0.817098 0.124080
vt 0.817098 0.109758
vt 0.828125 0.111033
vt 0.828827 0.110399
vt 0.011221 0.531698
vt 0.011221 0.288735
vt 0.183469 0.288735
vt 0.183469 0.531698
vt 0.827970 0.111233
vt 0.827965 0.123811
s 0
f 6/1/1 7/2/1 11/3/1 10/4/1
f 6/1/2 5/5/2 3/6/2 1/7/2
f 7/2/3 6/1/3 1/7/3 2/8/3
f 8/9/4 7/2/4 2/8/4 4/10/4
f 5/5/5 8/9/5 4/10/5 3/6/5
f 10/11/6 11/12/6 12/13/6 9/14/6
f 7/2/7 8/9/7 12/15/7 11/3/7
f 5/5/8 6/1/8 10/4/8 9/16/8
f 8/9/9 5/5/9 9/16/9 12/15/9
