# Blender 5.0.0
# www.blender.org
o Plane.007
v -0.073668 1.000000 1.000000
v -0.073668 -1.000000 1.000000
v -0.073668 1.000000 -1.000000
v -0.073668 -1.000000 -1.000000
v 0.000000 0.892258 -0.892258
v 0.000000 0.892258 0.892258
v -0.000000 -0.892258 0.892258
v -0.000000 -0.892258 -0.892258
v -0.029661 0.892258 -0.892258
v -0.029661 0.892258 0.892258
v -0.029661 -0.892258 0.892258
v -0.029661 -0.892258 -0.892258
vn -0.0000 -0.0000 -1.0000
vn 0.8255 0.5644 -0.0000
vn 0.8255 -0.0000 0.5644
vn 0.8255 -0.5644 -0.0000
vn 0.8255 -0.0000 -0.5644
vn 1.0000 -0.0000 -0.0000
vn -0.0000 1.0000 -0.0000
vn -0.0000 -1.0000 -0.0000
vn -0.0000 -0.0000 1.0000
vt 0.938064 0.100677
vt 0.947271 0.101178
vt 0.947129 0.101357
vt 0.938253 0.100827
vt 0.938105 0.109959
vt 0.937463 0.110529
vt 0.937463 0.100006
vt 0.947913 0.100608
vt 0.947312 0.110460
vt 0.947913 0.111131
vt 0.006855 0.782140
vt 0.216553 0.782140
vt 0.216553 0.991838
vt 0.006855 0.991838
vt 0.947123 0.110310
vt 0.938247 0.109780
s 0
f 6/1/1 7/2/1 11/3/1 10/4/1
f 6/1/2 5/5/2 3/6/2 1/7/2
f 7/2/3 6/1/3 1/7/3 2/8/3
f 8/9/4 7/2/4 2/8/4 4/10/4
f 5/5/5 8/9/5 4/10/5 3/6/5
f 10/11/6 11/12/6 12/13/6 9/14/6
f 7/2/7 8/9/7 12/15/7 11/3/7
f 5/5/8 6/1/8 10/4/8 9/16/8
f 8/9/9 5/5/9 9/16/9 12/15/9
