# Blender 5.0.0
# www.blender.org
o Plane.005
v -0.114097 1.548812 1.548812
v -0.114098 -1.548812 1.548812
v -0.114097 1.548812 -1.548812
v -0.114098 -1.548812 -1.548812
v 0.000000 1.381940 -1.381940
v 0.000000 1.381940 1.381940
v -0.000000 -1.381940 1.381940
v -0.000000 -1.381940 -1.381940
v -0.045939 1.381940 -1.381940
v -0.045939 1.381940 1.381940
v -0.045939 -1.381940 1.381940
v -0.045939 -1.381940 -1.381940
vn -0.0000 -0.0000 -1.0000
vn 0.8255 0.5644 -0.0000
vn 0.8255 -0.0000 0.5644
vn 0.8255 -0.5644 -0.0000
vn 0.8255 -0.0000 -0.5644
vn 1.0000 -0.0000 -0.0000
vn -0.0000 1.0000 -0.0000
vn -0.0000 -1.0000 -0.0000
vn -0.0000 -0.0000 1.0000
vt 0.942972 0.051250
vt 0.973784 0.052929
vt 0.973308 0.053526
vt 0.943604 0.051752
vt 0.943108 0.082316
vt 0.940960 0.084223
vt 0.940960 0.049004
vt 0.975932 0.051021
vt 0.973920 0.083994
vt 0.975932 0.086241
vt 0.023698 0.263043
vt 0.023698 0.009239
vt 0.277264 0.009239
vt 0.277264 0.263043
vt 0.973288 0.083493
vt 0.943584 0.081718
s 0
f 6/1/1 7/2/1 11/3/1 10/4/1
f 6/1/2 5/5/2 3/6/2 1/7/2
f 7/2/3 6/1/3 1/7/3 2/8/3
f 8/9/4 7/2/4 2/8/4 4/10/4
f 5/5/5 8/9/5 4/10/5 3/6/5
f 10/11/6 11/12/6 12/13/6 9/14/6
f 7/2/7 8/9/7 12/15/7 11/3/7
f 5/5/8 6/1/8 10/4/8 9/16/8
f 8/9/9 5/5/9 9/16/9 12/15/9
