# Blender 5.0.0
# www.blender.org
o Plane.006
v -0.073668 1.000000 1.000000
v -0.073668 -1.000000 1.000000
v -0.073668 1.000000 -1.000000
v -0.073668 -1.000000 -1.000000
v 0.000000 0.892258 -0.892258
v 0.000000 0.892258 0.892258
v -0.000000 -0.892258 0.892258
v -0.000000 -0.892258 -0.892258
v -0.029661 0.892258 -0.892258
v -0.029661 0.892258 0.892258
v -0.029661 -0.892258 0.892258
v -0.029661 -0.892258 -0.892258
vn -0.0000 -0.0000 -1.0000
vn 0.8255 0.5644 -0.0000
vn 0.8255 -0.0000 0.5644
vn 0.8255 -0.5644 -0.0000
vn 0.8255 -0.0000 -0.5644
vn 1.0000 -0.0000 -0.0000
vn -0.0000 1.0000 -0.0000
vn -0.0000 -1.0000 -0.0000
vn -0.0000 -0.0000 1.0000
vt 0.934319 0.077364
vt 0.950983 0.078272
vt 0.950726 0.078595
vt 0.934661 0.077635
vt 0.934393 0.094166
vt 0.933231 0.095197
vt 0.933231 0.076149
vt 0.952145 0.077241
vt 0.951057 0.095074
vt 0.952145 0.096289
vt 0.006995 0.559015
vt 0.210463 0.559015
vt 0.210463 0.762483
vt 0.006995 0.762483
vt 0.950715 0.094803
vt 0.934650 0.093843
s 0
f 6/1/1 7/2/1 11/3/1 10/4/1
f 6/1/2 5/5/2 3/6/2 1/7/2
f 7/2/3 6/1/3 1/7/3 2/8/3
f 8/9/4 7/2/4 2/8/4 4/10/4
f 5/5/5 8/9/5 4/10/5 3/6/5
f 10/11/6 11/12/6 12/13/6 9/14/6
f 7/2/7 8/9/7 12/15/7 11/3/7
f 5/5/8 6/1/8 10/4/8 9/16/8
f 8/9/9 5/5/9 9/16/9 12/15/9
