# Blender 5.0.0
# www.blender.org
o Plane.003
v -0.073668 1.000000 1.000000
v -0.073668 -1.000000 1.000000
v -0.073668 1.000000 -1.815650
v -0.073668 -1.000000 -1.815650
v 0.000000 0.892258 -1.707907
v 0.000000 0.892258 0.892258
v -0.000000 -0.892258 0.892258
v -0.000000 -0.892258 -1.707907
v -0.029661 0.892258 -1.707907
v -0.029661 0.892258 0.892258
v -0.029661 -0.892258 0.892258
v -0.029661 -0.892258 -1.707907
vn -0.0000 -0.0000 -1.0000
vn 0.8255 0.5644 -0.0000
vn 0.8255 -0.0000 0.5644
vn 0.8255 -0.5644 -0.0000
vn 0.8255 -0.0000 -0.5644
vn 1.0000 -0.0000 -0.0000
vn -0.0000 1.0000 -0.0000
vn -0.0000 -1.0000 -0.0000
vn -0.0000 -0.0000 1.0000
vt 0.928992 0.046339
vt 0.959226 0.047986
vt 0.958759 0.048572
vt 0.929612 0.046831
vt 0.929126 0.076822
vt 0.927018 0.078694
vt 0.927018 0.044135
vt 0.961334 0.046115
vt 0.959360 0.078470
vt 0.961334 0.080674
vt 0.697674 0.566925
vt 0.697674 0.373539
vt 0.988167 0.373539
vt 0.988167 0.566925
vt 0.958740 0.077977
vt 0.929592 0.076236
s 0
f 6/1/1 7/2/1 11/3/1 10/4/1
f 6/1/2 5/5/2 3/6/2 1/7/2
f 7/2/3 6/1/3 1/7/3 2/8/3
f 8/9/4 7/2/4 2/8/4 4/10/4
f 5/5/5 8/9/5 4/10/5 3/6/5
f 10/11/6 11/12/6 12/13/6 9/14/6
f 7/2/7 8/9/7 12/15/7 11/3/7
f 5/5/8 6/1/8 10/4/8 9/16/8
f 8/9/9 5/5/9 9/16/9 12/15/9
