# Blender 5.0.0
# www.blender.org
o Plane.001
v -0.073668 1.000000 1.000000
v -0.073668 -1.000000 1.000000
v -0.073668 1.000000 -1.844838
v -0.073668 -1.000000 -1.844838
v 0.000000 0.892258 -1.737096
v 0.000000 0.892258 0.892258
v -0.000000 -0.892258 0.892258
v -0.000000 -0.892258 -1.737096
v -0.029661 0.892258 -1.737096
v -0.029661 0.892258 0.892258
v -0.029661 -0.892258 0.892258
v -0.029661 -0.892258 -1.737096
vn -0.0000 -0.0000 -1.0000
vn 0.8255 0.5644 -0.0000
vn 0.8255 -0.0000 0.5644
vn 0.8255 -0.5644 -0.0000
vn 0.8255 -0.0000 -0.5644
vn 1.0000 -0.0000 -0.0000
vn -0.0000 1.0000 -0.0000
vn -0.0000 -1.0000 -0.0000
vn -0.0000 -0.0000 1.0000
vt 0.833197 0.056004
vt 0.862063 0.057576
vt 0.861617 0.058135
vt 0.833789 0.056474
vt 0.833325 0.085094
vt 0.831313 0.086880
vt 0.831313 0.053901
vt 0.864075 0.055790
vt 0.862191 0.086666
vt 0.864075 0.088769
vt 0.649446 0.811096
vt 0.649446 0.587801
vt 0.990275 0.587801
vt 0.990275 0.811096
vt 0.861598 0.086196
vt 0.833770 0.084534
s 0
f 6/1/1 7/2/1 11/3/1 10/4/1
f 6/1/2 5/5/2 3/6/2 1/7/2
f 7/2/3 6/1/3 1/7/3 2/8/3
f 8/9/4 7/2/4 2/8/4 4/10/4
f 5/5/5 8/9/5 4/10/5 3/6/5
f 10/11/6 11/12/6 12/13/6 9/14/6
f 7/2/7 8/9/7 12/15/7 11/3/7
f 5/5/8 6/1/8 10/4/8 9/16/8
f 8/9/9 5/5/9 9/16/9 12/15/9
