# Blender 5.0.0
# www.blender.org
o Second_Floor
v -15.187499 0.000000 -25.392988
v -15.187499 0.749356 -25.392988
v 28.518639 0.000000 27.958700
v 28.518639 0.749356 27.958700
v 28.609545 0.000000 -25.392988
v 28.609545 0.749356 -25.392988
v -15.187499 0.000000 1.621597
v -15.187499 0.749356 1.621597
v -15.264873 0.000000 6.414455
v 28.518639 0.749356 6.414455
v -15.264873 0.749356 6.414455
v 28.518639 0.000000 6.414455
v 5.582763 0.000000 -25.392988
v 5.582763 0.749356 -25.392988
v 5.582763 0.000000 27.958700
v 5.582763 0.749356 27.958700
v 5.582763 0.000000 1.621597
v 5.582763 0.749356 6.414455
v 5.582763 0.000000 6.414455
v -15.187499 0.749356 -3.306556
v 28.609545 0.000000 -5.245793
v -15.187499 0.000000 -3.306556
v 28.609545 0.749356 -5.245793
v 5.582763 0.000000 -5.245793
v 5.582763 0.749356 -5.245793
v -11.165524 0.000000 -25.392988
v -13.137502 0.749356 27.958700
v -11.165524 0.000000 1.621597
v -12.984208 0.000000 6.414455
v -11.165524 0.749356 -25.392988
v -13.137502 0.000000 27.958700
v -12.984208 0.749356 6.414455
v -11.165524 0.000000 -3.260028
v 21.650221 0.749356 -5.245793
v 21.650221 0.000000 -5.245793
v 21.650221 0.749356 -3.537967
v 28.609545 0.749356 -3.537967
v 28.609545 0.000000 -3.537967
v 21.650221 0.000000 -3.537967
vn -1.0000 -0.0000 -0.0000
vn -0.0000 -0.0000 -1.0000
vn 1.0000 -0.0000 -0.0000
vn -1.0000 -0.0000 -0.0071
vn -0.0000 -1.0000 -0.0000
vn -0.9999 -0.0000 -0.0161
vn -0.0000 1.0000 -0.0000
vn -0.0000 -0.0000 1.0000
vt 0.375000 0.149084
vt 0.625000 0.149084
vt 0.625000 0.250000
vt 0.375000 0.250000
vt 0.375000 0.363910
vt 0.625000 0.363910
vt 0.625000 0.500000
vt 0.375000 0.500000
vt 0.375000 0.648423
vt 0.625000 0.648423
vt 0.625000 0.750000
vt 0.375000 0.750000
vt 0.208646 0.648423
vt 0.208646 0.750000
vt 0.625000 0.916354
vt 0.791354 0.648423
vt 0.455911 0.026190
vt 0.473588 0.010760
vt 0.473588 0.026190
vt 0.375000 0.101577
vt 0.625000 0.101577
vt 0.625000 0.125000
vt 0.375000 0.125000
vt 0.461204 0.033634
vt 0.455841 0.033634
vt 0.486496 0.029884
vt 0.486512 0.026190
vt 0.473588 0.033634
vt 0.486496 0.033647
vt 0.995857 0.383451
vt 0.300301 0.990587
vt 0.300301 0.383451
vt 0.486630 0.010760
vt 0.625000 0.886090
vt 0.375000 0.886090
vt 0.375000 0.333646
vt 0.625000 0.333646
vt 0.717189 0.993097
vt 0.010984 0.189001
vt 0.717189 0.189001
vt 0.473588 0.049220
vt 0.486496 0.049220
vt 0.625000 0.600916
vt 0.375000 0.600916
vt 0.455841 0.049220
vt 0.394806 0.017061
vt 0.394806 0.015852
vt 0.402539 0.015852
vt 0.488210 0.033683
vt 0.488210 0.049220
vt 0.875000 0.648423
vt 0.125000 0.648423
vt 0.488210 0.029884
vt 0.488270 0.026190
vt 0.678764 0.275578
vt 0.086954 0.990186
vt 0.008373 0.277818
vt 0.003680 0.997387
vt 0.630784 0.248691
vt 0.630784 0.997387
vt 0.375000 0.916354
vt 0.357799 0.017061
vt 0.413620 0.015852
vt 0.413620 0.017061
vt 0.986309 0.828320
vt 0.988901 0.988877
vt 0.912500 0.988877
vt 0.350755 0.988877
vt 0.350755 0.665353
vt 0.678764 0.990186
vt 0.008373 0.990186
vt 0.986309 0.663230
vt -0.002053 0.248691
vt 0.995857 0.990587
vt 0.010985 0.993097
vt 0.010984 0.432021
vt 0.455911 0.010760
vt 0.473588 0.029884
vt 0.357799 0.015852
vt 0.439545 0.015852
vt 0.439545 0.017061
vt 0.315022 0.039468
vt 0.436080 0.039468
vt 0.436080 0.052503
vt 0.315022 0.052503
vt 0.473797 0.045789
vt 0.345041 0.045789
vt 0.345041 0.014192
vt 0.473797 0.014192
vt 0.285315 0.052503
vt 0.285315 0.039468
s 0
f 22/1/1 20/2/1 2/3/1 1/4/1
f 13/5/2 14/6/2 6/7/2 5/8/2
f 12/9/3 10/10/3 4/11/3 3/12/3
f 29/13/4 31/14/4 27/15/4 32/16/4
f 12/17/5 15/18/5 19/19/5
f 9/20/6 11/21/6 8/22/6 7/23/6
f 35/24/5 21/25/5 38/25/5 39/24/5
f 28/26/5 19/19/5 29/27/5
f 24/28/5 28/26/5 33/29/5
f 18/30/7 4/31/7 10/32/7
f 29/27/5 15/18/5 31/33/5
f 3/12/8 4/11/8 16/34/8 15/35/8
f 26/36/2 30/37/2 14/6/2 13/5/2
f 14/38/7 23/39/7 6/40/7
f 13/41/5 33/29/5 26/42/5
f 5/8/3 6/7/3 23/43/3 21/44/3
f 5/45/5 24/28/5 13/41/5
f 7/23/1 8/22/1 20/2/1 22/1/1
f 18/46/3 19/47/3 17/48/3
f 26/42/5 22/49/5 1/50/5
f 1/4/2 2/3/2 30/37/2 26/36/2
f 11/51/8 9/52/8 29/13/8 32/16/8
f 33/29/5 7/53/5 22/49/5
f 7/53/5 29/27/5 9/54/5
f 25/55/7 30/56/7 20/57/7
f 32/58/7 16/59/7 18/60/7
f 15/35/8 16/34/8 27/15/8 31/61/8
f 10/62/2 19/47/2 18/46/2
f 17/48/3 24/63/3 25/64/3
f 25/64/3 18/46/3 17/48/3
f 8/65/7 11/66/7 32/67/7
f 32/67/7 18/68/7 25/69/7
f 25/55/7 14/70/7 30/56/7
f 30/56/7 2/71/7 20/57/7
f 20/72/7 8/65/7 25/69/7
f 8/65/7 32/67/7 25/69/7
f 32/58/7 27/73/7 16/59/7
f 18/30/7 16/74/7 4/31/7
f 14/38/7 25/75/7 34/76/7 23/39/7
f 29/27/5 19/19/5 15/18/5
f 12/17/5 3/77/5 15/18/5
f 28/26/5 17/78/5 19/19/5
f 24/28/5 17/78/5 28/26/5
f 7/53/5 28/26/5 29/27/5
f 33/29/5 28/26/5 7/53/5
f 13/41/5 24/28/5 33/29/5
f 26/42/5 33/29/5 22/49/5
f 5/45/5 21/25/5 35/24/5 24/28/5
f 10/62/2 12/79/2 19/47/2
f 24/63/8 35/80/8 34/81/8 25/64/8
f 39/82/8 38/83/8 37/84/8 36/85/8
f 21/44/3 23/43/3 37/43/3 38/44/3
f 23/86/7 34/87/7 36/88/7 37/89/7
f 34/90/1 35/91/1 39/82/1 36/85/1
