# Blender 5.0.0
# www.blender.org
o Cube.002
v -0.071462 0.027686 0.707989
v -0.120513 3.681213 0.761142
v -0.101009 0.027686 -0.372656
v -0.143279 3.681213 -0.411139
v 0.975817 0.027686 0.673695
v 1.020162 3.681213 0.718373
v 0.993475 0.027686 -0.411533
v 1.051280 3.681213 -0.473012
v 0.471568 0.027686 -0.566724
v 0.475389 3.681213 -0.626498
v 0.471568 0.027686 0.879007
v 0.476471 3.681213 0.917446
v -0.251297 0.027686 0.156141
v -0.287138 3.681213 0.150338
v 1.194433 0.027686 0.156141
v 1.238331 3.681213 0.163946
v 0.916055 2.545229 -0.608853
v 0.475855 0.027686 0.157439
v -0.275365 2.681213 0.920856
v -0.316239 2.681213 -0.574091
v 1.197852 2.681213 -0.627873
v 1.173425 2.681213 0.873414
v 0.475855 2.681213 1.157439
v 0.475855 2.681213 -0.842561
v 1.475855 2.681213 0.157439
v -0.524145 2.681213 0.157439
v 0.031390 0.269768 -0.240080
v 0.860936 0.269768 -0.279148
v 0.843192 0.269768 0.541097
v 0.471623 0.269768 0.747419
v 0.471623 0.269768 -0.435103
v 1.062884 0.269768 0.156158
v -0.119638 0.269768 0.156158
v 0.061082 0.269768 0.575560
v 0.052810 3.181213 0.592681
v 0.011936 3.181213 -0.245917
v 0.869677 3.181213 -0.299698
v 0.845250 3.181213 0.545240
v 0.475855 3.181213 0.829264
v 0.475855 3.181213 -0.514387
v 1.147680 3.181213 0.157439
v -0.195971 3.181213 0.157439
v -0.250845 1.442540 0.900276
v -0.296697 1.442540 -0.548488
v 1.173542 1.442540 -0.608819
v 1.146139 1.442540 0.847057
v 0.477738 1.442540 1.165670
v 0.477738 1.442540 -0.849652
v 1.485400 1.442540 0.158009
v -0.529923 1.442540 0.158009
v 1.078839 3.681213 0.777818
v 0.100782 2.857616 -0.697464
v 0.473803 3.681213 1.024167
v -0.177766 3.681213 0.818966
v 0.035655 2.545229 -0.691346
v -0.393546 3.681213 0.156818
v -0.213218 3.681213 -0.477674
v 0.100782 2.857616 -0.466914
v 0.473803 3.681213 -0.710531
v 1.100026 3.681213 -0.524321
v 1.341151 3.681213 0.156818
v 0.035655 2.545229 -0.608853
v -0.088888 3.241055 0.151029
v 0.017156 3.387355 -0.262856
v 0.473996 3.241055 0.716492
v 0.033938 3.387355 0.601274
v 1.035590 3.241055 0.161060
v 0.874770 3.387355 0.569748
v 0.530302 3.241055 0.213117
v 0.473542 3.241055 0.156263
v 0.420082 3.241055 0.209559
v 0.473198 3.241055 -0.421605
v 0.410393 3.241055 0.093219
v 0.519926 3.241055 0.109735
v 0.897708 3.387355 -0.308464
v 0.816301 2.885114 -0.492960
v 0.916055 2.545229 -0.679257
v 0.816301 2.885114 -0.723511
v 0.100782 2.857616 -0.582189
v 0.035655 2.545229 -0.648850
v 0.916055 2.545229 -0.638844
v 0.816301 2.885114 -0.608235
v 0.471146 2.934127 -0.925572
v 0.471146 2.934127 -0.608853
v 0.471146 3.033972 -0.724128
v 0.100782 2.857616 -0.639827
v 0.916055 2.545229 -0.661024
v 0.035655 2.545229 -0.670114
v 0.816301 2.885114 -0.665873
v 0.471146 3.033972 -0.781765
v 0.693601 2.934127 -0.925572
v 0.641470 2.545229 -0.608853
v 0.693601 3.033972 -0.724128
v 0.641470 2.545229 -0.679257
v 0.693601 2.934127 -0.608853
v 0.641470 2.545229 -0.638844
v 0.693601 3.033972 -0.781765
v 0.641470 2.545229 -0.661024
v 0.286450 2.545229 -0.691346
v 0.253401 2.934127 -0.608853
v 0.286450 2.545229 -0.648850
v 0.253401 2.934127 -0.925572
v 0.286450 2.545229 -0.608853
v 0.253401 3.033972 -0.724128
v 0.286450 2.545229 -0.670114
v 0.253401 3.033972 -0.781765
v 0.035655 2.739678 -0.839403
v 0.035655 2.739678 -0.608853
v 0.916055 2.739678 -0.839403
v 0.916055 2.739678 -0.608853
v 0.916055 2.739678 -0.724128
v 0.035655 2.739678 -0.724128
v 0.471146 2.894078 -0.608853
v 0.471146 2.894078 -0.925572
v 0.916055 2.739678 -0.781765
v 0.035655 2.739678 -0.781765
v 0.693601 2.820938 -0.608853
v 0.693601 2.820938 -0.925572
v 0.253401 2.820938 -0.925572
v 0.253401 2.820938 -0.608853
v 0.024048 2.545229 0.938398
v 0.839320 2.857616 1.027010
v 0.904448 2.545229 1.020892
v 0.839320 2.857616 0.796460
v 0.904448 2.545229 0.938398
v 0.123802 2.885114 0.822506
v 0.024048 2.545229 1.008803
v 0.123802 2.885114 1.053056
v 0.839320 2.857616 0.911735
v 0.904448 2.545229 0.978395
v 0.024048 2.545229 0.968390
v 0.123802 2.885114 0.937781
v 0.468956 2.934127 1.255117
v 0.468956 2.934127 0.938398
v 0.468956 3.033972 1.053673
v 0.839320 2.857616 0.969373
v 0.024048 2.545229 0.990570
v 0.904448 2.545229 0.999660
v 0.123802 2.885114 0.995419
v 0.468956 3.033972 1.111311
v 0.246502 2.934127 1.255117
v 0.298633 2.545229 0.938398
v 0.246502 3.033972 1.053673
v 0.298633 2.545229 1.008803
v 0.246502 2.934127 0.938398
v 0.298633 2.545229 0.968390
v 0.246502 3.033972 1.111311
v 0.298633 2.545229 0.990570
v 0.653652 2.545229 1.020892
v 0.686702 2.934127 0.938398
v 0.653652 2.545229 0.978395
v 0.686702 2.934127 1.255117
v 0.653652 2.545229 0.938398
v 0.686702 3.033972 1.053673
v 0.653652 2.545229 0.999660
v 0.686702 3.033972 1.111311
v 0.904448 2.739678 1.168948
v 0.904448 2.739678 0.938398
v 0.024048 2.739678 1.168948
v 0.024048 2.739678 0.938398
v 0.024048 2.739678 1.053673
v 0.904448 2.739678 1.053673
v 0.468956 2.894078 0.938398
v 0.468956 2.894078 1.255117
v 0.024048 2.739678 1.111311
v 0.904448 2.739678 1.111311
v 0.246502 2.820938 0.938398
v 0.246502 2.820938 1.255117
v 0.686702 2.820938 1.255117
v 0.686702 2.820938 0.938398
v 0.565501 3.149947 0.173241
v 0.229200 7.245267 -0.375051
v 0.565686 3.147541 0.147285
v 0.229653 7.229147 -0.436574
v 0.591491 3.151950 0.173241
v 0.292613 7.250087 -0.375848
v 0.591677 3.149544 0.147285
v 0.293066 7.233967 -0.437371
v 0.419878 5.054121 0.084612
v 0.420063 5.049179 0.059017
v 0.446054 5.051172 0.058821
v 0.445868 5.056114 0.084415
v 0.347066 5.993595 -0.065643
v 0.347252 5.986988 -0.090859
v 0.373242 5.988964 -0.091186
v 0.373057 5.995570 -0.065970
v 0.492875 4.099321 0.124054
v 0.518865 4.101322 0.123973
v 0.518680 4.104775 0.149811
v 0.492689 4.102774 0.149892
v 0.318025 6.125470 -0.081008
v 0.318478 6.109351 -0.142531
v 0.381890 6.114172 -0.143328
v 0.381438 6.130291 -0.081805
v 0.527279 3.201948 0.224916
v -0.073358 7.678883 -0.005210
v 0.511620 3.199542 0.204214
v -0.110464 7.662763 -0.054287
v 0.547894 3.203951 0.209089
v -0.023543 7.683702 -0.044457
v 0.532236 3.201545 0.188388
v -0.060649 7.667583 -0.093533
v 0.357798 5.487737 0.243290
v 0.342360 5.482795 0.222875
v 0.362856 5.484787 0.206892
v 0.378294 5.489729 0.227307
v 0.208546 6.427210 0.168443
v 0.193338 6.420604 0.148329
v 0.213755 6.422580 0.132243
v 0.228963 6.429186 0.152358
v 0.439718 4.532937 0.230125
v 0.460285 4.534938 0.214234
v 0.475872 4.538390 0.234842
v 0.455305 4.536389 0.250733
v 0.176154 6.559086 0.173940
v 0.139049 6.542967 0.124864
v 0.188864 6.547788 0.085617
v 0.225969 6.563907 0.134693
v 0.590530 2.679522 0.142458
v 0.848216 6.774841 0.731797
v 0.586776 2.677116 0.168142
v 0.839306 6.758722 0.792673
v 0.564787 2.681525 0.138884
v 0.785296 6.779662 0.723864
v 0.561033 2.679119 0.164567
v 0.776386 6.763542 0.784740
v 0.722578 4.583696 0.250276
v 0.718874 4.578754 0.275602
v 0.693104 4.580747 0.272221
v 0.696808 4.585689 0.246896
v 0.774030 5.523170 0.409118
v 0.770378 5.516563 0.434069
v 0.744590 5.518538 0.430817
v 0.748242 5.525146 0.405866
v 0.655700 3.628896 0.201168
v 0.629946 3.630898 0.197673
v 0.633683 3.634350 0.172106
v 0.659438 3.632349 0.175601
v 0.800681 5.655046 0.428331
v 0.791771 5.638926 0.489207
v 0.728851 5.643746 0.481274
v 0.737762 5.659866 0.420398
vn -0.6471 -0.3944 0.6525
vn 0.2464 0.9366 -0.2492
vn -0.6638 -0.3929 -0.6364
vn 0.2660 0.9318 0.2470
vn 0.6414 -0.4104 0.6483
vn -0.2746 0.9197 -0.2806
vn 0.6354 -0.3954 -0.6633
vn -0.2463 0.9359 0.2518
vn -0.0150 -0.4158 -0.9093
vn 0.0122 0.9065 0.4220
vn 0.0376 -0.4055 0.9133
vn -0.0195 0.9059 -0.4231
vn -0.9077 -0.4193 0.0162
vn 0.4386 0.8987 -0.0015
vn 0.9168 -0.3983 0.0280
vn -0.4143 0.9099 -0.0187
vn 0.5774 -0.5774 0.5774
vn -0.0000 -1.0000 -0.0000
vn -0.6722 0.2971 0.6781
vn -0.6906 0.2973 -0.6593
vn 0.6589 0.2975 -0.6909
vn 0.6721 0.2931 0.6800
vn 0.0424 0.3082 0.9504
vn -0.0168 0.3058 -0.9519
vn 0.9503 0.3098 0.0317
vn -0.9522 0.3048 0.0181
vn -0.7201 0.1340 -0.6808
vn 0.6807 0.1303 -0.7209
vn 0.6965 0.1287 0.7059
vn 0.0528 0.1282 0.9903
vn -0.0207 0.1233 -0.9922
vn 0.9907 0.1302 0.0402
vn -0.9921 0.1232 0.0218
vn -0.6975 0.1328 0.7042
vn -0.6984 0.1064 0.7078
vn -0.7247 0.1069 -0.6807
vn 0.6808 0.1073 -0.7246
vn 0.6992 0.0970 0.7083
vn 0.0605 0.1199 0.9909
vn -0.0185 0.1161 -0.9931
vn 0.9914 0.1223 0.0463
vn -0.9932 0.1143 0.0228
vn -0.6920 -0.1750 0.7004
vn -0.7145 -0.1751 -0.6774
vn 0.6771 -0.1758 -0.7146
vn 0.6924 -0.1694 0.7013
vn 0.0453 -0.1735 0.9838
vn -0.0173 -0.1720 -0.9850
vn 0.9840 -0.1749 0.0334
vn -0.9851 -0.1708 0.0195
vn 0.6299 0.4456 0.6362
vn -0.8161 0.5304 -0.2293
vn 0.0425 0.4518 0.8911
vn -0.6363 0.4301 0.6405
vn -0.6252 -0.7051 -0.3346
vn -0.8858 0.4638 0.0166
vn -0.6520 0.4283 -0.6257
vn -0.1586 0.1884 0.9692
vn -0.0148 0.4611 -0.8872
vn 0.6240 0.4320 -0.6511
vn 0.8949 0.4451 0.0328
vn -0.5774 -0.5774 0.5774
vn 0.5822 0.8131 -0.0022
vn 0.5213 0.7025 0.4845
vn -0.0257 0.8089 -0.5874
vn 0.5004 0.7055 -0.5019
vn -0.5917 0.8057 -0.0271
vn -0.5039 0.6936 -0.5148
vn -0.0570 0.9967 -0.0576
vn -0.0000 1.0000 -0.0000
vn 0.0523 0.9973 -0.0521
vn 0.0190 0.8129 0.5820
vn 0.0550 0.9970 0.0540
vn -0.0510 0.9975 0.0492
vn -0.4961 0.7104 0.4992
vn 0.2040 0.2489 0.9468
vn 0.6265 -0.7092 -0.3234
vn 0.7910 0.5572 -0.2527
vn -0.7254 0.6754 0.1324
vn -0.7071 -0.7071 -0.0000
vn 0.7071 -0.7071 -0.0000
vn 0.6887 0.7129 0.1322
vn -0.0000 0.4635 -0.8861
vn -0.0000 0.4155 0.9096
vn -0.0000 0.9370 0.3494
vn -0.8290 0.5575 -0.0450
vn 0.8063 0.5898 -0.0447
vn -0.0000 0.9543 -0.2988
vn 0.3604 0.5438 -0.7579
vn -0.6336 -0.5251 0.5682
vn 0.3580 0.9011 0.2445
vn -0.6869 -0.6452 -0.3346
vn 0.0447 0.4973 0.8664
vn 0.4114 0.8723 -0.2644
vn 0.6600 -0.6686 -0.3427
vn -0.0516 0.5072 0.8603
vn -0.3682 0.5513 -0.7487
vn 0.6139 -0.5447 0.5713
vn -0.3531 0.9035 0.2431
vn -0.4064 0.8745 -0.2648
vn -0.7394 -0.0724 -0.6694
vn -0.7619 0.1421 0.6319
vn 0.7498 -0.0703 -0.6580
vn 0.7468 0.2011 0.6339
vn 0.9552 0.2961 -0.0000
vn -0.9683 0.2496 -0.0000
vn 0.0020 -0.6189 0.7854
vn 0.0020 -0.6189 -0.7854
vn -0.5281 -0.3975 0.7504
vn -0.0140 -0.3417 -0.9397
vn 0.0140 -0.3390 -0.9407
vn 0.5525 -0.4343 0.7115
vn -0.5774 -0.5774 -0.5774
vn 0.8161 0.5304 0.2293
vn 0.6252 -0.7051 0.3346
vn 0.1586 0.1884 -0.9692
vn 0.5774 -0.5774 -0.5774
vn -0.2040 0.2489 -0.9468
vn -0.6265 -0.7092 0.3234
vn -0.7910 0.5572 0.2527
vn 0.7254 0.6754 -0.1324
vn -0.6887 0.7129 -0.1322
vn -0.0000 0.4635 0.8861
vn -0.0000 0.4155 -0.9096
vn -0.0000 0.9370 -0.3494
vn 0.8290 0.5575 0.0450
vn -0.8063 0.5898 0.0447
vn -0.0000 0.9543 0.2988
vn -0.3604 0.5438 0.7579
vn 0.6336 -0.5251 -0.5682
vn -0.3580 0.9011 -0.2445
vn 0.6869 -0.6452 0.3346
vn -0.0447 0.4973 -0.8664
vn -0.4114 0.8723 0.2644
vn -0.6600 -0.6686 0.3427
vn 0.0516 0.5072 -0.8603
vn 0.3682 0.5513 0.7487
vn -0.6139 -0.5447 -0.5713
vn 0.3531 0.9035 -0.2431
vn 0.4064 0.8745 0.2648
vn 0.7394 -0.0724 0.6694
vn 0.7619 0.1421 -0.6319
vn -0.7498 -0.0703 0.6580
vn -0.7468 0.2011 -0.6339
vn -0.9552 0.2961 -0.0000
vn 0.9683 0.2496 -0.0000
vn -0.0020 -0.6189 -0.7854
vn -0.0020 -0.6189 0.7854
vn 0.5281 -0.3975 -0.7504
vn 0.0140 -0.3417 0.9397
vn -0.0140 -0.3390 0.9407
vn -0.5525 -0.4343 -0.7115
vn -0.5371 -0.5836 0.6090
vn -0.6239 0.6594 0.4195
vn -0.5262 -0.6541 -0.5433
vn -0.6157 0.3667 -0.6975
vn 0.6215 -0.4947 0.6074
vn 0.5274 0.7469 0.4050
vn 0.6181 -0.5664 -0.5451
vn 0.5356 0.4542 -0.7119
vn -0.6958 0.0283 0.7177
vn -0.7145 -0.1333 -0.6869
vn 0.7161 -0.0244 -0.6976
vn 0.6944 0.1341 0.7069
vn -0.6838 -0.0049 0.7297
vn -0.7034 -0.2966 -0.6460
vn 0.7255 -0.1880 -0.6620
vn 0.6931 0.0997 0.7139
vn -0.7099 -0.0868 -0.6990
vn 0.7102 0.0216 -0.7037
vn 0.7001 0.0866 0.7088
vn -0.7002 -0.0203 0.7136
vn -0.6997 0.0343 0.7136
vn -0.6897 -0.3225 -0.6483
vn 0.7141 -0.2158 -0.6660
vn 0.7041 0.1411 0.6960
vn -0.0636 -0.5803 0.8119
vn -0.2394 0.6594 0.7127
vn -0.7546 -0.6473 -0.1077
vn -0.9131 0.3667 -0.1783
vn 0.8577 -0.5029 0.1067
vn 0.6650 0.7469 0.0001
vn 0.1513 -0.5707 -0.8071
vn -0.0087 0.4542 -0.8909
vn -0.1149 0.0283 0.9930
vn -0.9850 -0.1333 -0.1098
vn 0.1432 -0.0244 -0.9894
vn 0.9813 0.1341 0.1379
vn -0.0981 -0.0049 0.9952
vn -0.9513 -0.2966 -0.0841
vn 0.1724 -0.1880 -0.9669
vn 0.9845 0.0997 0.1442
vn -0.9893 -0.0760 -0.1248
vn 0.1402 0.0161 -0.9900
vn 0.9880 0.0771 0.1339
vn -0.1171 -0.0154 0.9930
vn -0.1205 0.0343 0.9921
vn -0.9419 -0.3225 -0.0943
vn 0.1609 -0.2158 -0.9631
vn 0.9823 0.1411 0.1233
vn 0.6158 -0.5836 -0.5294
vn 0.6757 0.6593 -0.3297
vn 0.4465 -0.6541 0.6105
vn 0.5139 0.3667 0.7755
vn -0.5321 -0.4947 -0.6871
vn -0.4666 0.7469 -0.4737
vn -0.6872 -0.5664 0.4549
vn -0.6284 0.4542 0.6315
vn 0.7879 0.0283 -0.6152
vn 0.6132 -0.1333 0.7786
vn -0.8052 -0.0244 0.5925
vn -0.5906 0.1341 -0.7957
vn 0.7777 -0.0049 -0.6287
vn 0.6079 -0.2966 0.7366
vn -0.8097 -0.1880 0.5559
vn -0.5883 0.0997 -0.8024
vn 0.6070 -0.0868 0.7900
vn -0.8002 0.0216 0.5993
vn -0.5959 0.0866 -0.7984
vn 0.7917 -0.0203 -0.6105
vn 0.7912 0.0343 -0.6106
vn 0.5940 -0.3225 0.7370
vn -0.7989 -0.2158 0.5614
vn -0.6017 0.1411 -0.7862
vt 0.600247 0.821684
vt 0.564739 0.832723
vt 0.555358 0.782187
vt 0.599038 0.782800
vt 0.767334 0.717894
vt 0.812884 0.701273
vt 0.827218 0.765412
vt 0.770067 0.768284
vt 0.707143 0.818075
vt 0.674451 0.830544
vt 0.666725 0.781686
vt 0.706202 0.781044
vt 0.734702 0.723944
vt 0.775760 0.710792
vt 0.787145 0.771808
vt 0.736424 0.772015
vt 0.850570 0.701852
vt 0.833492 0.759945
vt 0.802231 0.728109
vt 0.799806 0.681746
vt 0.924443 0.715313
vt 0.941231 0.700551
vt 0.945394 0.715804
vt 0.934775 0.721246
vt 0.975032 0.744839
vt 0.959002 0.759694
vt 0.954328 0.744370
vt 0.964627 0.738975
vt 0.868035 0.643137
vt 0.824836 0.642555
vt 0.673478 0.734178
vt 0.706412 0.745956
vt 0.564857 0.726312
vt 0.600024 0.737124
vt 0.901721 0.669761
vt 0.901721 0.721336
vt 0.960935 0.702026
vt 0.974678 0.719059
vt 0.961543 0.725031
vt 0.956147 0.713582
vt 0.936746 0.758428
vt 0.942140 0.746775
vt 0.878311 0.759254
vt 0.819550 0.838388
vt 0.773108 0.828087
vt 0.776743 0.834293
vt 0.735552 0.821713
vt 0.601155 0.773746
vt 0.683434 0.772887
vt 0.690459 0.838473
vt 0.598562 0.838473
vt 0.615466 0.772347
vt 0.710564 0.771020
vt 0.718632 0.851021
vt 0.612065 0.850423
vt 0.715062 0.781041
vt 0.644623 0.781474
vt 0.638525 0.722895
vt 0.717487 0.722895
vt 0.815191 0.779688
vt 0.746812 0.780703
vt 0.742786 0.730489
vt 0.816792 0.730489
vt 0.597333 0.710547
vt 0.689139 0.708406
vt 0.817916 0.830655
vt 0.743836 0.832635
vt 0.611431 0.703649
vt 0.715992 0.701273
vt 0.718214 0.832960
vt 0.639659 0.834814
vt 0.817610 0.821068
vt 0.800598 0.815485
vt 0.802353 0.780002
vt 0.824390 0.779401
vt 0.478320 0.718808
vt 0.501060 0.726480
vt 0.498720 0.773247
vt 0.469319 0.773916
vt 0.905353 0.815913
vt 0.889978 0.810004
vt 0.891108 0.778559
vt 0.909857 0.778366
vt 0.481903 0.725654
vt 0.501679 0.732345
vt 0.499628 0.775629
vt 0.474010 0.776057
vt 0.889326 0.748469
vt 0.904574 0.742151
vt 0.799574 0.739770
vt 0.816362 0.733429
vt 0.502064 0.826770
vt 0.479555 0.835231
vt 0.502655 0.819965
vt 0.483052 0.827277
vt 0.944831 0.695589
vt 0.958520 0.682328
vt 0.960781 0.683586
vt 0.945621 0.699025
vt 0.958942 0.662371
vt 0.961957 0.661103
vt 0.948724 0.644607
vt 0.949818 0.642098
vt 0.929712 0.645926
vt 0.928869 0.642380
vt 0.915104 0.656838
vt 0.912533 0.655291
vt 0.914943 0.679424
vt 0.912533 0.680302
vt 0.924877 0.696530
vt 0.923886 0.698690
vt 0.924443 0.740213
vt 0.937872 0.734766
vt 0.992171 0.802980
vt 0.993819 0.802250
vt 0.993857 0.804129
vt 0.992434 0.804973
vt 0.990070 0.803400
vt 0.991803 0.803105
vt 0.990924 0.804883
vt 0.990070 0.801436
vt 0.991447 0.800615
vt 0.991749 0.802695
vt 0.993137 0.800701
vt 0.992103 0.802522
vt 0.991945 0.802828
vt 0.500000 0.801669
vt 0.500423 0.801669
vt 0.500423 0.801881
vt 0.500000 0.801881
vt 0.500000 0.802514
vt 0.500423 0.802514
vt 0.500423 0.802728
vt 0.500000 0.802728
vt 0.500000 0.803151
vt 0.500423 0.803151
vt 0.500423 0.803574
vt 0.500000 0.803574
vt 0.500000 0.804212
vt 0.500423 0.804212
vt 0.500423 0.804421
vt 0.500000 0.804421
vt 0.499363 0.803151
vt 0.499577 0.803151
vt 0.499577 0.803574
vt 0.499363 0.803574
vt 0.501061 0.803151
vt 0.501270 0.803151
vt 0.501270 0.803574
vt 0.501061 0.803574
vt 0.501061 0.802939
vt 0.501270 0.802939
vt 0.499363 0.802939
vt 0.499577 0.802939
vt 0.500000 0.802939
vt 0.500423 0.802939
vt 0.500000 0.801034
vt 0.500423 0.801034
vt 0.500423 0.801457
vt 0.500000 0.801457
vt 0.500637 0.802939
vt 0.500851 0.802939
vt 0.500851 0.803151
vt 0.500637 0.803151
vt 0.500851 0.803574
vt 0.500637 0.803574
vt 0.500000 0.803788
vt 0.500423 0.803788
vt 0.500423 0.804002
vt 0.500000 0.804002
vt 0.500000 0.802090
vt 0.500423 0.802090
vt 0.500423 0.802300
vt 0.500000 0.802300
vt 0.500637 0.802728
vt 0.500851 0.802728
vt 0.499363 0.802728
vt 0.499577 0.802728
vt 0.501061 0.802728
vt 0.501270 0.802728
vt 0.498730 0.802728
vt 0.498939 0.802728
vt 0.498939 0.802939
vt 0.498730 0.802939
vt 0.498730 0.803151
vt 0.498939 0.803151
vt 0.498939 0.803574
vt 0.498730 0.803574
vt 0.499577 0.801881
vt 0.499577 0.802090
vt 0.499577 0.803788
vt 0.499577 0.801457
vt 0.499577 0.801669
vt 0.499577 0.801034
vt 0.499577 0.804212
vt 0.499577 0.804421
vt 0.499577 0.802514
vt 0.500000 0.802133
vt 0.500554 0.802133
vt 0.500554 0.802410
vt 0.500000 0.802410
vt 0.500000 0.803239
vt 0.500554 0.803239
vt 0.500554 0.803519
vt 0.500000 0.803519
vt 0.500000 0.804073
vt 0.500554 0.804073
vt 0.500554 0.804627
vt 0.500000 0.804627
vt 0.500000 0.805461
vt 0.500554 0.805461
vt 0.500554 0.805735
vt 0.500000 0.805735
vt 0.499166 0.804073
vt 0.499446 0.804073
vt 0.499446 0.804627
vt 0.499166 0.804627
vt 0.501388 0.804073
vt 0.501663 0.804073
vt 0.501663 0.804627
vt 0.501388 0.804627
vt 0.501388 0.803796
vt 0.501663 0.803796
vt 0.499166 0.803796
vt 0.499446 0.803796
vt 0.500000 0.803796
vt 0.500554 0.803796
vt 0.500000 0.801302
vt 0.500554 0.801302
vt 0.500554 0.801856
vt 0.500000 0.801856
vt 0.500834 0.803796
vt 0.501114 0.803796
vt 0.501114 0.804073
vt 0.500834 0.804073
vt 0.501114 0.804627
vt 0.500834 0.804627
vt 0.500000 0.804907
vt 0.500554 0.804907
vt 0.500554 0.805187
vt 0.500000 0.805187
vt 0.500000 0.802684
vt 0.500554 0.802684
vt 0.500554 0.802959
vt 0.500000 0.802959
vt 0.500834 0.803519
vt 0.501114 0.803519
vt 0.499166 0.803519
vt 0.499446 0.803519
vt 0.501388 0.803519
vt 0.501663 0.803519
vt 0.498337 0.803519
vt 0.498612 0.803519
vt 0.498612 0.803796
vt 0.498337 0.803796
vt 0.498337 0.804073
vt 0.498612 0.804073
vt 0.498612 0.804627
vt 0.498337 0.804627
vt 0.499446 0.802410
vt 0.499446 0.802684
vt 0.499446 0.804907
vt 0.499446 0.801856
vt 0.499446 0.802133
vt 0.499446 0.801302
vt 0.499446 0.805461
vt 0.499446 0.805735
vt 0.499446 0.803239
vt 0.935777 0.484976
vt 0.937732 0.484976
vt 0.937732 0.500610
vt 0.935777 0.500610
vt 0.937732 0.516244
vt 0.935777 0.516244
vt 0.937732 0.531878
vt 0.935777 0.531878
vt 0.937732 0.547512
vt 0.935777 0.547512
vt 0.906463 0.516244
vt 0.922097 0.516244
vt 0.922097 0.531878
vt 0.906463 0.531878
vt 0.953366 0.516244
vt 0.953366 0.531878
vt 0.926006 0.531878
vt 0.929914 0.531878
vt 0.929914 0.547512
vt 0.926006 0.547512
vt 0.926006 0.516244
vt 0.929914 0.516244
vt 0.926006 0.500610
vt 0.929914 0.500610
vt 0.926006 0.484976
vt 0.929914 0.484976
vt 0.933823 0.531878
vt 0.933823 0.547512
vt 0.933823 0.516244
vt 0.933823 0.500610
vt 0.933823 0.484976
vt 0.922097 0.484976
vt 0.922097 0.500610
vt 0.922097 0.547512
vt 0.959583 0.478852
vt 0.961920 0.478852
vt 0.961920 0.497548
vt 0.959583 0.497548
vt 0.961920 0.516244
vt 0.959583 0.516244
vt 0.961920 0.534940
vt 0.959583 0.534940
vt 0.961920 0.553636
vt 0.959583 0.553636
vt 0.924527 0.516244
vt 0.943223 0.516244
vt 0.943223 0.534940
vt 0.924527 0.534940
vt 0.980616 0.516244
vt 0.980616 0.534940
vt 0.947897 0.534940
vt 0.952572 0.534940
vt 0.952572 0.553636
vt 0.947897 0.553636
vt 0.947897 0.516244
vt 0.952572 0.516244
vt 0.947897 0.497548
vt 0.952572 0.497548
vt 0.947897 0.478852
vt 0.952572 0.478852
vt 0.957246 0.534940
vt 0.957246 0.553636
vt 0.957246 0.516244
vt 0.957246 0.497548
vt 0.957246 0.478852
vt 0.943223 0.478852
vt 0.943223 0.497548
vt 0.943223 0.553636
vt 0.941432 0.449618
vt 0.944412 0.449618
vt 0.944412 0.473456
vt 0.941432 0.473456
vt 0.944412 0.497293
vt 0.941432 0.497293
vt 0.944412 0.521130
vt 0.941432 0.521130
vt 0.944412 0.544967
vt 0.941432 0.544967
vt 0.896738 0.497293
vt 0.920575 0.497293
vt 0.920575 0.521130
vt 0.896738 0.521130
vt 0.968249 0.497293
vt 0.968249 0.521130
vt 0.926534 0.521130
vt 0.932493 0.521130
vt 0.932493 0.544967
vt 0.926534 0.544967
vt 0.926534 0.497293
vt 0.932493 0.497293
vt 0.926534 0.473456
vt 0.932493 0.473456
vt 0.926534 0.449618
vt 0.932493 0.449618
vt 0.938452 0.521130
vt 0.938452 0.544967
vt 0.938452 0.497293
vt 0.938452 0.473456
vt 0.938452 0.449618
vt 0.920575 0.449618
vt 0.920575 0.473456
vt 0.920575 0.544967
s 1
f 42/1/42 56/2/56 57/3/57 36/4/36
f 40/5/40 59/6/59 60/7/60 37/8/37
f 41/9/41 61/10/61 51/11/51 38/12/38
f 39/13/39 53/14/53 54/15/54 35/16/35
f 18/17/18 15/18/15 5/19/5 11/20/11
f 2/21/2 12/22/12 65/23/65 66/24/66
f 8/25/8 10/26/10 72/27/72 75/28/75
f 13/29/13 18/17/18 11/20/11 1/30/1
f 38/12/38 51/11/51 53/31/53 39/32/39
f 36/4/36 57/3/57 59/33/59 40/34/40
f 3/35/3 9/36/9 18/17/18 13/29/13
f 6/37/6 16/38/16 67/39/67 68/40/68
f 10/26/10 4/41/4 64/42/64 72/27/72
f 9/36/9 7/43/7 15/18/15 18/17/18
f 37/8/37 60/7/60 61/44/61 41/45/41
f 35/16/35 54/15/54 56/46/56 42/47/42
f 43/48/43 19/49/19 26/50/26 50/51/50
f 45/52/45 21/53/21 25/54/25 49/55/49
f 44/56/44 20/57/20 24/58/24 48/59/48
f 46/60/46 22/61/22 23/62/23 47/63/47
f 47/64/47 23/65/23 19/49/19 43/48/43
f 49/66/49 25/67/25 22/61/22 46/60/46
f 48/68/48 24/69/24 21/53/21 45/52/45
f 50/70/50 26/71/26 20/57/20 44/56/44
f 13/72/13 33/73/33 27/74/27 3/75/3
f 9/76/9 31/77/31 28/78/28 7/79/7
f 15/80/15 32/81/32 29/82/29 5/83/5
f 11/84/11 30/85/30 34/86/34 1/87/1
f 5/83/5 29/82/29 30/88/30 11/89/11
f 3/75/3 27/74/27 31/90/31 9/91/9
f 7/79/7 28/78/28 32/92/32 15/93/15
f 1/87/1 34/86/34 33/94/33 13/95/13
f 19/49/19 35/16/35 42/47/42 26/50/26
f 21/53/21 37/8/37 41/45/41 25/54/25
f 20/57/20 36/4/36 40/34/40 24/58/24
f 22/61/22 38/12/38 39/32/39 23/62/23
f 23/65/23 39/13/39 35/16/35 19/49/19
f 25/67/25 41/9/41 38/12/38 22/61/22
f 24/69/24 40/5/40 37/8/37 21/53/21
f 26/71/26 42/1/42 36/4/36 20/57/20
f 33/73/33 50/70/50 44/56/44 27/74/27
f 31/77/31 48/68/48 45/52/45 28/78/28
f 32/81/32 49/66/49 46/60/46 29/82/29
f 30/85/30 47/64/47 43/48/43 34/86/34
f 29/82/29 46/60/46 47/63/47 30/88/30
f 27/74/27 44/56/44 48/59/48 31/90/31
f 28/78/28 45/52/45 49/55/49 32/92/32
f 34/86/34 43/48/43 50/51/50 33/94/33
f 16/96/16 6/97/6 51/98/51 61/99/61
f 6/97/6 12/100/12 53/101/53 51/98/51
f 12/100/12 2/102/2 54/103/54 53/101/53
f 2/102/2 14/104/14 56/105/56 54/103/54
f 16/38/16 8/25/8 75/28/75 67/39/67
f 14/104/14 4/106/4 57/107/57 56/105/56
f 4/106/4 10/108/10 59/109/59 57/107/57
f 10/108/10 8/110/8 60/111/60 59/109/59
f 8/110/8 16/96/16 61/99/61 60/111/60
f 4/41/4 14/112/14 63/113/63 64/42/64
f 14/112/14 2/21/2 66/24/66 63/113/63
f 12/22/12 6/37/6 68/40/68 65/23/65
f 71/114/71 63/115/63 66/116/66 65/117/65
f 67/118/67 69/119/69 65/117/65 68/120/68
f 75/121/75 72/122/72 74/123/74 67/118/67
f 72/122/72 64/124/64 63/115/63 73/125/73
f 71/114/71 65/117/65 69/119/69 70/126/70
f 74/123/74 72/122/72 73/125/73 70/126/70
f 73/125/73 63/115/63 71/114/71 70/126/70
f 67/118/67 74/123/74 70/126/70 69/119/69
f 116/127/106 86/128/86 52/129/52 107/130/101
f 118/131/110 91/132/89 78/133/78 109/134/103
f 111/135/105 82/136/82 76/137/76 110/138/104
f 120/139/112 100/140/96 58/141/58 108/142/102
f 96/143/18 81/144/81 17/145/17 92/146/90
f 104/147/99 79/148/79 58/149/58 100/150/96
f 106/151/100 86/152/86 79/148/79 104/147/99
f 98/153/18 87/154/81 81/144/81 96/143/18
f 115/155/105 89/156/87 82/136/82 111/135/105
f 108/157/102 58/158/58 79/159/79 112/160/106
f 97/161/94 90/162/88 85/163/85 93/164/91
f 93/164/91 85/163/85 84/165/84 95/166/93
f 117/167/109 95/168/93 84/169/84 113/170/107
f 119/171/111 102/172/97 83/173/83 114/174/108
f 91/175/89 83/176/83 90/162/88 97/161/94
f 109/134/103 78/133/78 89/156/87 115/155/105
f 94/177/92 77/178/77 87/154/81 98/153/18
f 102/179/97 52/180/52 86/152/86 106/151/100
f 112/160/106 79/159/79 86/128/86 116/127/106
f 78/133/78 91/175/89 97/161/94 89/156/87
f 110/138/104 76/137/76 95/168/93 117/167/109
f 82/136/82 93/164/91 95/166/93 76/137/76
f 89/156/87 97/161/94 93/164/91 82/136/82
f 114/174/108 83/173/83 91/132/89 118/131/110
f 83/176/83 102/179/97 106/151/100 90/162/88
f 55/181/55 99/182/95 105/183/18 88/184/80
f 107/130/101 52/129/52 102/172/97 119/171/111
f 80/185/80 101/186/18 103/187/98 62/188/62
f 88/184/80 105/183/18 101/186/18 80/185/80
f 90/162/88 106/151/100 104/147/99 85/163/85
f 85/163/85 104/147/99 100/150/96 84/165/84
f 113/170/107 84/169/84 100/140/96 120/139/112
f 55/189/55 107/130/101 119/171/111 99/190/95
f 17/145/17 110/138/104 117/167/109 92/191/90
f 80/192/80 112/160/106 116/127/106 88/193/80
f 77/178/77 109/134/103 115/155/105 87/154/81
f 62/194/62 108/157/102 112/160/106 80/192/80
f 87/154/81 115/155/105 111/135/105 81/144/81
f 103/195/98 120/139/112 108/142/102 62/196/62
f 81/144/81 111/135/105 110/138/104 17/145/17
f 94/197/92 118/131/110 109/134/103 77/178/77
f 88/193/80 116/127/106 107/130/101 55/189/55
f 92/191/90 117/167/109 118/131/110 94/197/92
f 114/174/108 118/131/110 117/167/109 113/170/107
f 113/170/107 120/139/112 119/171/111 114/174/108
f 99/190/95 119/171/111 120/139/112 103/195/98
f 166/198/146 136/199/126 122/200/114 157/201/141
f 168/202/150 141/203/129 128/204/120 159/205/143
f 161/206/145 132/207/122 126/208/118 160/209/144
f 170/210/152 150/211/136 124/212/116 158/213/142
f 146/214/18 131/215/80 121/216/113 142/217/130
f 154/218/139 129/219/121 124/220/116 150/221/136
f 156/222/140 136/223/126 129/219/121 154/218/139
f 148/224/18 137/225/80 131/215/80 146/214/18
f 165/226/145 139/227/127 132/207/122 161/206/145
f 158/228/142 124/229/116 129/230/121 162/231/146
f 147/232/134 140/233/128 135/234/125 143/235/131
f 143/235/131 135/234/125 134/236/124 145/237/133
f 167/238/149 145/239/133 134/240/124 163/241/147
f 169/242/151 152/243/137 133/244/123 164/245/148
f 141/246/129 133/247/123 140/233/128 147/232/134
f 159/205/143 128/204/120 139/227/127 165/226/145
f 144/248/132 127/249/119 137/225/80 148/224/18
f 152/250/137 122/251/114 136/223/126 156/222/140
f 162/231/146 129/230/121 136/199/126 166/198/146
f 128/204/120 141/246/129 147/232/134 139/227/127
f 160/209/144 126/208/118 145/239/133 167/238/149
f 132/207/122 143/235/131 145/237/133 126/208/118
f 139/227/127 147/232/134 143/235/131 132/207/122
f 164/245/148 133/244/123 141/203/129 168/202/150
f 133/247/123 152/250/137 156/222/140 140/233/128
f 123/252/115 149/253/135 155/254/18 138/255/81
f 157/201/141 122/200/114 152/243/137 169/242/151
f 130/256/81 151/257/18 153/258/138 125/259/117
f 138/255/81 155/254/18 151/257/18 130/256/81
f 140/233/128 156/222/140 154/218/139 135/234/125
f 135/234/125 154/218/139 150/221/136 134/236/124
f 163/241/147 134/240/124 150/211/136 170/210/152
f 123/260/115 157/201/141 169/242/151 149/261/135
f 121/216/113 160/209/144 167/238/149 142/262/130
f 130/263/81 162/231/146 166/198/146 138/264/81
f 127/249/119 159/205/143 165/226/145 137/225/80
f 125/265/117 158/228/142 162/231/146 130/263/81
f 137/225/80 165/226/145 161/206/145 131/215/80
f 153/266/138 170/210/152 158/213/142 125/267/117
f 131/215/80 161/206/145 160/209/144 121/216/113
f 144/268/132 168/202/150 159/205/143 127/249/119
f 138/264/81 166/198/146 157/201/141 123/260/115
f 142/262/130 167/238/149 168/202/150 144/268/132
f 164/245/148 168/202/150 167/238/149 163/241/147
f 163/241/147 170/210/152 169/242/151 164/245/148
f 149/261/135 169/242/151 170/210/152 153/266/138
f 191/269/173 172/270/154 174/271/156 192/272/174
f 192/272/174 174/271/156 178/273/160 193/274/175
f 193/274/175 178/273/160 176/275/158 194/276/176
f 194/276/176 176/275/158 172/277/154 191/278/173
f 173/279/155 177/280/159 175/281/157 171/282/153
f 178/273/160 174/283/156 172/284/154 176/275/158
f 189/285/171 182/286/164 179/287/161 190/288/172
f 188/289/170 181/290/163 182/286/164 189/285/171
f 187/291/169 180/292/162 181/290/163 188/289/170
f 190/293/172 179/294/161 180/292/162 187/291/169
f 182/286/164 186/295/168 183/296/165 179/287/161
f 181/290/163 185/297/167 186/295/168 182/286/164
f 180/292/162 184/298/166 185/297/167 181/290/163
f 179/294/161 183/299/165 184/298/166 180/292/162
f 171/300/153 190/293/172 187/291/169 173/301/155
f 173/301/155 187/291/169 188/289/170 177/280/159
f 177/280/159 188/289/170 189/285/171 175/281/157
f 175/281/157 189/285/171 190/288/172 171/302/153
f 186/295/168 194/276/176 191/278/173 183/296/165
f 185/297/167 193/274/175 194/276/176 186/295/168
f 184/298/166 192/272/174 193/274/175 185/297/167
f 183/299/165 191/269/173 192/272/174 184/298/166
f 215/303/197 196/304/178 198/305/180 216/306/198
f 216/306/198 198/305/180 202/307/184 217/308/199
f 217/308/199 202/307/184 200/309/182 218/310/200
f 218/310/200 200/309/182 196/311/178 215/312/197
f 197/313/179 201/314/183 199/315/181 195/316/177
f 202/307/184 198/317/180 196/318/178 200/309/182
f 213/319/195 206/320/188 203/321/185 214/322/196
f 212/323/194 205/324/187 206/320/188 213/319/195
f 211/325/193 204/326/186 205/324/187 212/323/194
f 214/327/196 203/328/185 204/326/186 211/325/193
f 206/320/188 210/329/192 207/330/189 203/321/185
f 205/324/187 209/331/191 210/329/192 206/320/188
f 204/326/186 208/332/190 209/331/191 205/324/187
f 203/328/185 207/333/189 208/332/190 204/326/186
f 195/334/177 214/327/196 211/325/193 197/335/179
f 197/335/179 211/325/193 212/323/194 201/314/183
f 201/314/183 212/323/194 213/319/195 199/315/181
f 199/315/181 213/319/195 214/322/196 195/336/177
f 210/329/192 218/310/200 215/312/197 207/330/189
f 209/331/191 217/308/199 218/310/200 210/329/192
f 208/332/190 216/306/198 217/308/199 209/331/191
f 207/333/189 215/303/197 216/306/198 208/332/190
f 239/337/221 220/338/202 222/339/204 240/340/222
f 240/340/222 222/339/204 226/341/208 241/342/223
f 241/342/223 226/341/208 224/343/206 242/344/224
f 242/344/224 224/343/206 220/345/202 239/346/221
f 221/347/203 225/348/207 223/349/205 219/350/201
f 226/341/208 222/351/204 220/352/202 224/343/206
f 237/353/219 230/354/212 227/355/209 238/356/220
f 236/357/218 229/358/211 230/354/212 237/353/219
f 235/359/217 228/360/210 229/358/211 236/357/218
f 238/361/220 227/362/209 228/360/210 235/359/217
f 230/354/212 234/363/216 231/364/213 227/355/209
f 229/358/211 233/365/215 234/363/216 230/354/212
f 228/360/210 232/366/214 233/365/215 229/358/211
f 227/362/209 231/367/213 232/366/214 228/360/210
f 219/368/201 238/361/220 235/359/217 221/369/203
f 221/369/203 235/359/217 236/357/218 225/348/207
f 225/348/207 236/357/218 237/353/219 223/349/205
f 223/349/205 237/353/219 238/356/220 219/370/201
f 234/363/216 242/344/224 239/346/221 231/364/213
f 233/365/215 241/342/223 242/344/224 234/363/216
f 232/366/214 240/340/222 241/342/223 233/365/215
f 231/367/213 239/337/221 240/340/222 232/366/214
