# Blender 5.0.0
# www.blender.org
o Sideboard
v -0.123320 0.766698 0.265474
v -0.123320 2.329767 0.265474
v -0.047729 0.782661 -1.647507
v -0.047729 2.254177 -1.647507
v 5.876680 0.766698 0.265474
v 5.876680 2.329767 0.265474
v 5.801090 0.782661 -1.647507
v 5.801090 2.254177 -1.647507
v -0.123320 2.329767 -1.734526
v -0.123320 0.766698 -1.734526
v 5.876680 0.766698 -1.734526
v 5.876680 2.329767 -1.734526
v 4.236862 0.766698 -1.734526
v 4.236862 2.329767 -1.734526
v 4.236862 0.766698 0.265474
v 4.236862 2.329767 0.265474
v 4.202590 0.782661 -1.647507
v 4.202590 2.254177 -1.647507
v 1.469485 0.766698 -1.734526
v 1.469485 2.329767 0.265474
v 1.504942 0.782661 -1.647507
v 1.469485 2.329767 -1.734526
v 1.469485 0.766698 0.265474
v 1.504942 2.254177 -1.647507
v -0.047729 2.254177 -1.715078
v -0.047729 0.782661 -1.715078
v 1.466756 0.782661 -1.715078
v 4.251890 2.254177 -1.715078
v 5.801090 2.254177 -1.715078
v 5.801090 0.782661 -1.715078
v 4.251890 0.782661 -1.715078
v 1.466756 2.254177 -1.715078
v 1.504942 2.254177 -1.704340
v 4.202590 2.254177 -1.704340
v 4.202590 0.782661 -1.704340
v 1.504942 0.782661 -1.704340
v 5.495592 0.739621 -1.615071
v 5.790462 -0.000000 -1.490704
v 5.433051 0.739621 -1.627512
v 5.779435 -0.000000 -1.492897
v 5.799809 -0.000000 -1.484457
v 5.548613 0.739621 -1.579645
v 5.806056 -0.000000 -1.475110
v 5.584039 0.739621 -1.526625
v 5.808249 -0.000000 -1.464083
v 5.596478 0.739621 -1.464084
v 5.806056 -0.000000 -1.453056
v 5.584039 0.739621 -1.401543
v 5.799809 -0.000000 -1.443708
v 5.548613 0.739621 -1.348523
v 5.790462 -0.000000 -1.437462
v 5.495592 0.739621 -1.313097
v 5.779435 -0.000000 -1.435269
v 5.433051 0.739621 -1.300657
v 5.403463 0.687170 -1.535517
v 5.378379 0.687170 -1.518756
v 5.768408 -0.000000 -1.437462
v 5.370511 0.739621 -1.313097
v 5.361618 0.687170 -1.493672
v 5.355733 0.687170 -1.464084
v 5.759060 -0.000000 -1.443708
v 5.317491 0.739621 -1.348523
v 5.361618 0.687170 -1.434495
v 5.378379 0.687170 -1.409411
v 5.752814 -0.000000 -1.453056
v 5.282064 0.739621 -1.401543
v 5.403463 0.687170 -1.392650
v 5.433052 0.687170 -1.386765
v 5.750621 -0.000000 -1.464083
v 5.269624 0.739621 -1.464084
v 5.462641 0.687170 -1.392650
v 5.487724 0.687170 -1.409411
v 5.752814 -0.000000 -1.475110
v 5.282064 0.739621 -1.526625
v 5.504485 0.687170 -1.434495
v 5.510370 0.687170 -1.464084
v 5.759060 -0.000000 -1.484457
v 5.317491 0.739621 -1.579645
v 5.504485 0.687170 -1.493672
v 5.487724 0.687170 -1.518756
v 5.768408 -0.000000 -1.490704
v 5.370511 0.739621 -1.615071
v 5.462641 0.687170 -1.535517
v 5.433052 0.687170 -1.541403
v 5.495592 0.778112 -1.615071
v 5.433051 0.778112 -1.627512
v 5.548613 0.778112 -1.579645
v 5.584039 0.778112 -1.526625
v 5.596478 0.778112 -1.464084
v 5.584039 0.778112 -1.401543
v 5.548613 0.778112 -1.348523
v 5.495592 0.778112 -1.313097
v 5.433051 0.778112 -1.300657
v 5.370511 0.778112 -1.313097
v 5.317491 0.778112 -1.348523
v 5.282064 0.778112 -1.401543
v 5.269624 0.778112 -1.464084
v 5.282064 0.778112 -1.526625
v 5.317491 0.778112 -1.579645
v 5.370511 0.778112 -1.615071
v 5.495592 0.739621 -0.150987
v 5.790462 -0.000000 -0.026619
v 5.433051 0.739621 -0.163427
v 5.779435 -0.000000 -0.028812
v 5.799809 -0.000000 -0.020373
v 5.548613 0.739621 -0.115560
v 5.806056 -0.000000 -0.011025
v 5.584039 0.739621 -0.062541
v 5.808249 -0.000000 0.000001
v 5.596478 0.739621 0.000000
v 5.806056 -0.000000 0.011028
v 5.584039 0.739621 0.062541
v 5.799809 -0.000000 0.020376
v 5.548613 0.739621 0.115561
v 5.790462 -0.000000 0.026622
v 5.495592 0.739621 0.150988
v 5.779435 -0.000000 0.028816
v 5.433051 0.739621 0.163428
v 5.403463 0.687170 -0.071433
v 5.378379 0.687170 -0.054672
v 5.768408 -0.000000 0.026622
v 5.370511 0.739621 0.150988
v 5.361618 0.687170 -0.029588
v 5.355733 0.687170 0.000001
v 5.759060 -0.000000 0.020376
v 5.317491 0.739621 0.115561
v 5.361618 0.687170 0.029590
v 5.378379 0.687170 0.054674
v 5.752814 -0.000000 0.011028
v 5.282064 0.739621 0.062541
v 5.403463 0.687170 0.071434
v 5.433052 0.687170 0.077320
v 5.750621 -0.000000 0.000001
v 5.269624 0.739621 0.000000
v 5.462641 0.687170 0.071434
v 5.487724 0.687170 0.054674
v 5.752814 -0.000000 -0.011025
v 5.282064 0.739621 -0.062541
v 5.504485 0.687170 0.029590
v 5.510370 0.687170 0.000001
v 5.759060 -0.000000 -0.020373
v 5.317491 0.739621 -0.115560
v 5.504485 0.687170 -0.029588
v 5.487724 0.687170 -0.054672
v 5.768408 -0.000000 -0.026619
v 5.370511 0.739621 -0.150987
v 5.462641 0.687170 -0.071433
v 5.433052 0.687170 -0.077318
v 5.495592 0.778112 -0.150987
v 5.433051 0.778112 -0.163427
v 5.548613 0.778112 -0.115560
v 5.584039 0.778112 -0.062541
v 5.596478 0.778112 0.000000
v 5.584039 0.778112 0.062541
v 5.548613 0.778112 0.115561
v 5.495592 0.778112 0.150988
v 5.433051 0.778112 0.163428
v 5.370511 0.778112 0.150988
v 5.317491 0.778112 0.115561
v 5.282064 0.778112 0.062541
v 5.269624 0.778112 0.000000
v 5.282064 0.778112 -0.062541
v 5.317491 0.778112 -0.115560
v 5.370511 0.778112 -0.150987
v 0.283843 0.739621 0.150988
v -0.011026 -0.000000 0.026621
v 0.346384 0.739621 0.163428
v 0.000000 -0.000000 0.028814
v -0.020375 -0.000000 0.020374
v 0.230823 0.739621 0.115561
v -0.026621 -0.000000 0.011026
v 0.195396 0.739621 0.062542
v -0.028814 -0.000000 -0.000000
v 0.182956 0.739621 0.000001
v -0.026621 -0.000000 -0.011027
v 0.195396 0.739621 -0.062540
v -0.020375 -0.000000 -0.020375
v 0.230823 0.739621 -0.115560
v -0.011026 -0.000000 -0.026621
v 0.283843 0.739621 -0.150986
v 0.000000 -0.000000 -0.028814
v 0.346384 0.739621 -0.163427
v 0.375972 0.687170 0.071434
v 0.401056 0.687170 0.054673
v 0.011027 -0.000000 -0.026621
v 0.408924 0.739621 -0.150986
v 0.417817 0.687170 0.029589
v 0.423702 0.687170 0.000000
v 0.020375 -0.000000 -0.020375
v 0.461944 0.739621 -0.115560
v 0.417817 0.687170 -0.029588
v 0.401057 0.687170 -0.054673
v 0.026621 -0.000000 -0.011027
v 0.497371 0.739621 -0.062540
v 0.375972 0.687170 -0.071433
v 0.346383 0.687170 -0.077319
v 0.028815 -0.000000 -0.000000
v 0.509811 0.739621 0.000001
v 0.316795 0.687170 -0.071433
v 0.291711 0.687170 -0.054673
v 0.026621 -0.000000 0.011026
v 0.497371 0.739621 0.062542
v 0.274950 0.687170 -0.029588
v 0.269064 0.687170 0.000000
v 0.020375 -0.000000 0.020374
v 0.461944 0.739621 0.115561
v 0.274950 0.687170 0.029589
v 0.291710 0.687170 0.054673
v 0.011027 -0.000000 0.026621
v 0.408924 0.739621 0.150988
v 0.316794 0.687170 0.071434
v 0.346383 0.687170 0.077320
v 0.283843 0.778112 0.150988
v 0.346384 0.778112 0.163428
v 0.230823 0.778112 0.115561
v 0.195396 0.778112 0.062542
v 0.182956 0.778112 0.000001
v 0.195396 0.778112 -0.062540
v 0.230823 0.778112 -0.115560
v 0.283843 0.778112 -0.150986
v 0.346384 0.778112 -0.163427
v 0.408924 0.778112 -0.150986
v 0.461944 0.778112 -0.115560
v 0.497371 0.778112 -0.062540
v 0.509811 0.778112 0.000001
v 0.497371 0.778112 0.062542
v 0.461944 0.778112 0.115561
v 0.408924 0.778112 0.150988
v 0.283843 0.739621 -1.313097
v -0.011026 -0.000000 -1.437464
v 0.346384 0.739621 -1.300656
v 0.000000 -0.000000 -1.435271
v -0.020375 -0.000000 -1.443710
v 0.230823 0.739621 -1.348523
v -0.026621 -0.000000 -1.453058
v 0.195396 0.739621 -1.401543
v -0.028814 -0.000000 -1.464085
v 0.182956 0.739621 -1.464084
v -0.026621 -0.000000 -1.475111
v 0.195396 0.739621 -1.526625
v -0.020375 -0.000000 -1.484459
v 0.230823 0.739621 -1.579644
v -0.011026 -0.000000 -1.490705
v 0.283843 0.739621 -1.615071
v 0.000000 -0.000000 -1.492899
v 0.346384 0.739621 -1.627511
v 0.375972 0.687170 -1.392651
v 0.401057 0.687170 -1.409411
v 0.011027 -0.000000 -1.490705
v 0.408924 0.739621 -1.615071
v 0.417817 0.687170 -1.434495
v 0.423702 0.687170 -1.464084
v 0.020375 -0.000000 -1.484459
v 0.461944 0.739621 -1.579644
v 0.417817 0.687170 -1.493673
v 0.401057 0.687170 -1.518757
v 0.026621 -0.000000 -1.475111
v 0.497371 0.739621 -1.526625
v 0.375972 0.687170 -1.535518
v 0.346383 0.687170 -1.541403
v 0.028815 -0.000000 -1.464085
v 0.509811 0.739621 -1.464084
v 0.316795 0.687170 -1.535518
v 0.291711 0.687170 -1.518757
v 0.026621 -0.000000 -1.453058
v 0.497371 0.739621 -1.401543
v 0.274950 0.687170 -1.493673
v 0.269065 0.687170 -1.464084
v 0.020375 -0.000000 -1.443710
v 0.461944 0.739621 -1.348523
v 0.274950 0.687170 -1.434495
v 0.291711 0.687170 -1.409411
v 0.011027 -0.000000 -1.437464
v 0.408924 0.739621 -1.313097
v 0.316795 0.687170 -1.392651
v 0.346383 0.687170 -1.386765
v 0.283843 0.778112 -1.313097
v 0.346384 0.778112 -1.300656
v 0.230823 0.778112 -1.348523
v 0.195396 0.778112 -1.401543
v 0.182956 0.778112 -1.464084
v 0.195396 0.778112 -1.526625
v 0.230823 0.778112 -1.579644
v 0.283843 0.778112 -1.615071
v 0.346384 0.778112 -1.627511
v 0.408924 0.778112 -1.615071
v 0.461944 0.778112 -1.579644
v 0.497371 0.778112 -1.526625
v 0.509811 0.778112 -1.464084
v 0.497371 0.778112 -1.401543
v 0.461944 0.778112 -1.348523
v 0.408924 0.778112 -1.313097
vn -1.0000 -0.0000 -0.0000
vn 1.0000 -0.0000 -0.0000
vn -0.0000 -0.0000 1.0000
vn -0.0000 -1.0000 -0.0000
vn -0.0000 1.0000 -0.0000
vn 0.7549 -0.0000 -0.6558
vn -0.0000 0.9836 -0.1804
vn -0.0000 -0.7549 -0.6558
vn -0.7549 -0.0000 -0.6558
vn -0.0000 -0.0000 -1.0000
vn -0.8078 -0.0000 -0.5894
vn 0.8706 -0.0000 -0.4920
vn 0.5436 0.2063 -0.8136
vn 0.7848 0.3303 -0.5244
vn 0.2931 -0.8495 -0.4387
vn 0.9026 0.3913 -0.1795
vn 0.4387 -0.8495 -0.2931
vn 0.9026 0.3913 0.1795
vn 0.5175 -0.8495 -0.1029
vn 0.7848 0.3303 0.5244
vn 0.5175 -0.8495 0.1029
vn 0.5436 0.2063 0.8136
vn 0.4387 -0.8495 0.2931
vn 0.1950 0.0291 0.9804
vn 0.2931 -0.8495 0.4387
vn -0.1924 -0.1653 0.9673
vn 0.1029 -0.8495 0.5175
vn -0.5245 -0.3297 0.7850
vn -0.1029 -0.8495 0.5175
vn -0.7471 -0.4388 0.4992
vn -0.2931 -0.8495 0.4387
vn -0.8544 -0.4910 0.1700
vn -0.4387 -0.8495 0.2931
vn -0.8544 -0.4910 -0.1700
vn -0.5175 -0.8495 0.1029
vn -0.7471 -0.4388 -0.4992
vn -0.5175 -0.8495 -0.1029
vn -0.5245 -0.3297 -0.7850
vn -0.4387 -0.8495 -0.2931
vn -0.1924 -0.1653 -0.9673
vn -0.2931 -0.8495 -0.4387
vn 0.1950 0.0291 -0.9804
vn 0.1029 -0.8495 -0.5175
vn -0.1029 -0.8495 -0.5175
vn 0.8315 -0.0000 -0.5556
vn 0.8315 -0.0000 0.5556
vn -0.1951 -0.0000 0.9808
vn -0.9808 -0.0000 0.1951
vn -0.5556 -0.0000 -0.8315
vn 0.1951 -0.0000 -0.9808
vn 0.5556 -0.0000 -0.8315
vn 0.9808 -0.0000 0.1951
vn 0.1951 -0.0000 0.9808
vn -0.8315 -0.0000 0.5556
vn -0.8315 -0.0000 -0.5556
vn 0.9808 -0.0000 -0.1951
vn 0.5556 -0.0000 0.8315
vn -0.5556 -0.0000 0.8315
vn -0.9808 -0.0000 -0.1951
vn -0.1951 -0.0000 -0.9808
vn -0.5436 0.2063 0.8136
vn -0.7848 0.3303 0.5244
vn -0.9026 0.3913 0.1795
vn -0.9026 0.3913 -0.1795
vn -0.7848 0.3303 -0.5244
vn -0.5436 0.2063 -0.8136
vn -0.1950 0.0291 -0.9804
vn 0.1924 -0.1653 -0.9673
vn 0.5245 -0.3297 -0.7850
vn 0.7471 -0.4388 -0.4992
vn 0.8544 -0.4910 -0.1700
vn 0.8544 -0.4910 0.1700
vn 0.7471 -0.4388 0.4992
vn 0.5174 -0.8495 0.1029
vn 0.5245 -0.3297 0.7850
vn 0.1924 -0.1653 0.9673
vn -0.1950 0.0291 0.9804
vn 0.1029 -0.8495 0.5174
vt 0.375463 0.712808
vt 0.042829 0.712808
vt 0.042829 0.287192
vt 0.375463 0.287192
vt 0.244714 0.169416
vt 0.208454 0.169416
vt 0.100672 0.304271
vt 0.403557 0.304271
vt 0.403557 0.691823
vt 0.100672 0.691823
vt 0.206513 0.239551
vt 0.246656 0.239551
vt 0.246656 0.250207
vt 0.206513 0.250207
vt 0.195542 0.169922
vt 0.206513 0.169922
vt 0.206513 0.210065
vt 0.195542 0.210065
vt 0.084042 0.265495
vt 0.084042 0.000058
vt 0.417337 0.000058
vt 0.417337 0.265495
vt 0.244714 0.130285
vt 0.208454 0.130285
vt 0.206513 0.129779
vt 0.246656 0.129779
vt 0.208454 0.158721
vt 0.206513 0.158951
vt 0.244714 0.140673
vt 0.246656 0.140436
vt 0.246656 0.169922
vt 0.244714 0.158721
vt 0.246656 0.158951
vt 0.208454 0.140673
vt 0.206513 0.140436
vt 0.084042 0.999942
vt 0.084042 0.726671
vt 0.417337 0.726671
vt 0.417337 0.999942
vt 0.177027 0.169922
vt 0.177027 0.210065
vt 0.246656 0.210065
vt 0.246656 0.221036
vt 0.206513 0.221036
vt 0.166370 0.169922
vt 0.166370 0.210065
vt 0.411226 0.713604
vt 0.042545 0.713604
vt 0.042545 0.325459
vt 0.411226 0.325459
vt 0.391154 0.685549
vt 0.060948 0.685549
vt 0.060948 0.345701
vt 0.391154 0.345701
vt 0.077459 0.257170
vt 0.374339 0.257170
vt 0.374339 0.801423
vt 0.077459 0.801423
vt 0.104557 0.027873
vt 0.104557 0.036331
vt 0.041691 0.036332
vt 0.041691 0.027873
vt 0.104557 0.044790
vt 0.041691 0.044790
vt 0.109355 0.027873
vt 0.109355 0.036331
vt 0.104557 0.053248
vt 0.041691 0.053248
vt 0.109355 0.044790
vt 0.104557 0.061706
vt 0.041691 0.061706
vt 0.109355 0.053248
vt 0.104557 0.070164
vt 0.041691 0.070164
vt 0.109355 0.061706
vt 0.104557 0.078622
vt 0.041691 0.078622
vt 0.109355 0.070164
vt 0.104557 0.087080
vt 0.041691 0.087080
vt 0.109355 0.078622
vt 0.104557 0.095538
vt 0.041691 0.095538
vt 0.109355 0.087080
vt 0.104557 0.103996
vt 0.041691 0.103996
vt 0.109355 0.095538
vt 0.104557 0.112454
vt 0.041691 0.112454
vt 0.109355 0.103996
vt 0.104557 0.120912
vt 0.041691 0.120912
vt 0.109355 0.112454
vt 0.104557 0.129370
vt 0.041691 0.129370
vt 0.109355 0.120912
vt 0.104557 0.137828
vt 0.041691 0.137828
vt 0.109355 0.129370
vt 0.104557 0.146287
vt 0.041691 0.146287
vt 0.109355 0.137828
vt 0.104557 0.154745
vt 0.041691 0.154745
vt 0.109355 0.146287
vt 0.109399 0.090740
vt 0.109399 0.027873
vt 0.114249 0.145481
vt 0.123210 0.154442
vt 0.134918 0.159292
vt 0.147591 0.159292
vt 0.159299 0.154442
vt 0.168260 0.145481
vt 0.173109 0.133773
vt 0.173109 0.121101
vt 0.168260 0.109393
vt 0.159299 0.100432
vt 0.147591 0.095582
vt 0.134918 0.095582
vt 0.123210 0.100432
vt 0.114249 0.109393
vt 0.109399 0.121101
vt 0.109399 0.133773
vt 0.109399 0.095538
vt 0.109355 0.154745
vt 0.147635 0.091583
vt 0.134962 0.091583
vt 0.123254 0.086734
vt 0.114293 0.077773
vt 0.109443 0.066065
vt 0.109443 0.053392
vt 0.114293 0.041684
vt 0.123254 0.032723
vt 0.134962 0.027873
vt 0.147635 0.027873
vt 0.159343 0.032723
vt 0.168304 0.041684
vt 0.173153 0.053392
vt 0.173153 0.066065
vt 0.168304 0.077773
vt 0.159343 0.086734
vt 0.408223 0.176909
vt 0.397859 0.176909
vt 0.397859 0.099874
vt 0.408223 0.099874
vt 0.387495 0.176909
vt 0.387495 0.099874
vt 0.408223 0.182789
vt 0.397859 0.182789
vt 0.377130 0.176909
vt 0.377130 0.099874
vt 0.387495 0.182789
vt 0.366766 0.176909
vt 0.366766 0.099874
vt 0.377130 0.182789
vt 0.356402 0.176909
vt 0.356402 0.099874
vt 0.366766 0.182789
vt 0.346037 0.176909
vt 0.346037 0.099874
vt 0.356402 0.182789
vt 0.335673 0.176909
vt 0.335673 0.099874
vt 0.346037 0.182789
vt 0.325309 0.176909
vt 0.325309 0.099874
vt 0.335673 0.182789
vt 0.314944 0.176909
vt 0.314944 0.099874
vt 0.325309 0.182789
vt 0.304580 0.176909
vt 0.304580 0.099874
vt 0.314944 0.182789
vt 0.294216 0.176909
vt 0.294216 0.099874
vt 0.304580 0.182789
vt 0.283851 0.176909
vt 0.283851 0.099874
vt 0.294216 0.182789
vt 0.273487 0.176909
vt 0.273487 0.099874
vt 0.283851 0.182789
vt 0.263122 0.176909
vt 0.263122 0.099874
vt 0.273487 0.182789
vt 0.252758 0.176909
vt 0.252758 0.099874
vt 0.263122 0.182789
vt 0.413406 0.176909
vt 0.413406 0.176909
vt 0.413406 0.099874
vt 0.377130 0.098216
vt 0.392361 0.095186
vt 0.405273 0.086559
vt 0.413900 0.073647
vt 0.416929 0.058417
vt 0.413900 0.043186
vt 0.405273 0.030274
vt 0.392361 0.021647
vt 0.377130 0.018617
vt 0.361900 0.021647
vt 0.348988 0.030274
vt 0.340361 0.043186
vt 0.337331 0.058417
vt 0.340361 0.073647
vt 0.348988 0.086559
vt 0.361900 0.095186
vt 0.413406 0.182789
vt 0.252758 0.182789
vt 0.309446 0.095186
vt 0.294216 0.098216
vt 0.278985 0.095186
vt 0.266073 0.086559
vt 0.257446 0.073647
vt 0.254416 0.058417
vt 0.257446 0.043186
vt 0.266073 0.030274
vt 0.278985 0.021647
vt 0.294216 0.018617
vt 0.309446 0.021647
vt 0.322358 0.030274
vt 0.330985 0.043186
vt 0.334015 0.058417
vt 0.330985 0.073647
vt 0.322358 0.086559
vt 0.207607 0.970753
vt 0.203234 0.970753
vt 0.203234 0.938244
vt 0.207607 0.938244
vt 0.198860 0.970753
vt 0.198860 0.938244
vt 0.207607 0.973234
vt 0.203234 0.973234
vt 0.194486 0.970753
vt 0.194486 0.938244
vt 0.198860 0.973234
vt 0.190112 0.970753
vt 0.190112 0.938244
vt 0.194486 0.973234
vt 0.185738 0.970753
vt 0.185738 0.938244
vt 0.190112 0.973234
vt 0.181364 0.970753
vt 0.181364 0.938244
vt 0.185738 0.973234
vt 0.176991 0.970753
vt 0.176991 0.938244
vt 0.181364 0.973234
vt 0.172617 0.970753
vt 0.172617 0.938244
vt 0.176991 0.973234
vt 0.168243 0.970753
vt 0.168243 0.938244
vt 0.172617 0.973234
vt 0.163869 0.970753
vt 0.163869 0.938244
vt 0.168243 0.973234
vt 0.159495 0.970753
vt 0.159495 0.938244
vt 0.163869 0.973234
vt 0.155121 0.970753
vt 0.155121 0.938244
vt 0.159495 0.973234
vt 0.150748 0.970753
vt 0.150748 0.938244
vt 0.155121 0.973234
vt 0.146374 0.970753
vt 0.146374 0.938244
vt 0.150748 0.973234
vt 0.142000 0.970753
vt 0.142000 0.938244
vt 0.146374 0.973234
vt 0.209794 0.970753
vt 0.209794 0.938244
vt 0.194486 0.937544
vt 0.200913 0.936265
vt 0.206362 0.932625
vt 0.210003 0.927176
vt 0.211281 0.920749
vt 0.210003 0.914321
vt 0.206362 0.908872
vt 0.200913 0.905231
vt 0.194486 0.903953
vt 0.188059 0.905231
vt 0.182610 0.908872
vt 0.178969 0.914321
vt 0.177690 0.920749
vt 0.178969 0.927176
vt 0.182610 0.932625
vt 0.188059 0.936265
vt 0.209794 0.973234
vt 0.142000 0.973234
vt 0.165923 0.936265
vt 0.159495 0.937544
vt 0.153068 0.936265
vt 0.147619 0.932625
vt 0.143978 0.927176
vt 0.142700 0.920749
vt 0.143978 0.914321
vt 0.147619 0.908872
vt 0.153068 0.905231
vt 0.159495 0.903953
vt 0.165923 0.905231
vt 0.171371 0.908872
vt 0.175012 0.914321
vt 0.176291 0.920749
vt 0.175012 0.927176
vt 0.171371 0.932625
vt 0.401549 0.167497
vt 0.394058 0.167497
vt 0.394058 0.111823
vt 0.401549 0.111823
vt 0.386568 0.167497
vt 0.386568 0.111823
vt 0.401549 0.171747
vt 0.394058 0.171747
vt 0.379077 0.167497
vt 0.379077 0.111823
vt 0.386568 0.171747
vt 0.371586 0.167497
vt 0.371586 0.111823
vt 0.379077 0.171747
vt 0.364096 0.167497
vt 0.364096 0.111823
vt 0.371586 0.171747
vt 0.356605 0.167497
vt 0.356605 0.111823
vt 0.364096 0.171747
vt 0.349115 0.167497
vt 0.349115 0.111823
vt 0.356605 0.171747
vt 0.341624 0.167497
vt 0.341624 0.111823
vt 0.349115 0.171747
vt 0.334134 0.167497
vt 0.334134 0.111823
vt 0.341624 0.171747
vt 0.326643 0.167497
vt 0.326643 0.111823
vt 0.334134 0.171747
vt 0.319153 0.167497
vt 0.319153 0.111823
vt 0.326643 0.171747
vt 0.311662 0.167497
vt 0.311662 0.111823
vt 0.319153 0.171747
vt 0.304172 0.167497
vt 0.304172 0.111823
vt 0.311662 0.171747
vt 0.296681 0.167497
vt 0.296681 0.111823
vt 0.304172 0.171747
vt 0.289191 0.167497
vt 0.289191 0.111823
vt 0.296681 0.171747
vt 0.405294 0.167497
vt 0.405294 0.111823
vt 0.379077 0.110624
vt 0.390084 0.108435
vt 0.399416 0.102199
vt 0.405651 0.092868
vt 0.407841 0.081861
vt 0.405651 0.070853
vt 0.399416 0.061522
vt 0.390084 0.055286
vt 0.379077 0.053097
vt 0.368070 0.055286
vt 0.358738 0.061522
vt 0.352503 0.070853
vt 0.350313 0.081861
vt 0.352503 0.092868
vt 0.358738 0.102199
vt 0.368070 0.108435
vt 0.405294 0.171747
vt 0.289191 0.171747
vt 0.330160 0.108435
vt 0.319153 0.110624
vt 0.308145 0.108435
vt 0.298814 0.102199
vt 0.292579 0.092868
vt 0.290389 0.081861
vt 0.292579 0.070853
vt 0.298814 0.061522
vt 0.308145 0.055286
vt 0.319153 0.053097
vt 0.330160 0.055286
vt 0.339492 0.061522
vt 0.345727 0.070853
vt 0.347916 0.081861
vt 0.345727 0.092868
vt 0.339492 0.102199
s 0
f 1/1/1 2/2/1 9/3/1 10/4/1
f 8/5/2 7/6/2 30/6/2 29/5/2
f 11/7/2 12/8/2 6/9/2 5/10/2
f 23/11/3 20/12/3 2/13/3 1/14/3
f 13/15/4 11/16/4 5/17/4 15/18/4
f 22/19/5 9/20/5 2/21/5 20/22/5
f 4/23/6 3/24/6 10/25/6 9/26/6
f 17/27/7 7/6/7 11/16/7 13/28/7
f 24/29/8 4/23/8 9/26/8 22/30/8
f 7/6/9 8/5/9 12/31/9 11/16/9
f 8/5/8 18/32/8 14/33/8 12/31/8
f 21/34/7 17/27/7 13/28/7 19/35/7
f 12/36/5 14/37/5 16/38/5 6/39/5
f 19/40/4 13/15/4 15/18/4 23/41/4
f 5/17/3 6/42/3 16/43/3 15/44/3
f 18/32/2 17/27/2 35/27/2 34/32/2
f 4/23/5 24/29/5 32/29/5 25/23/5
f 10/45/4 19/40/4 23/41/4 1/46/4
f 3/24/7 21/34/7 19/35/7 10/25/7
f 18/32/8 24/29/8 22/30/8 14/33/8
f 14/37/5 22/19/5 20/22/5 16/38/5
f 15/44/3 16/43/3 20/12/3 23/11/3
f 31/47/10 28/48/10 29/49/10 30/50/10
f 26/51/10 25/52/10 32/53/10 27/54/10
f 7/6/4 17/27/4 31/27/4 30/6/4
f 21/34/4 3/24/4 26/24/4 27/34/4
f 17/27/11 18/32/11 28/32/11 31/27/11
f 24/29/12 21/34/12 27/34/12 32/29/12
f 18/32/5 8/5/5 29/5/5 28/32/5
f 3/24/1 4/23/1 25/23/1 26/24/1
f 36/55/10 33/56/10 34/57/10 35/58/10
f 21/34/1 24/29/1 33/29/1 36/34/1
f 24/29/5 18/32/5 34/32/5 33/29/5
f 17/27/4 21/34/4 36/34/4 35/27/4
f 83/59/13 80/60/13 41/61/13 38/62/13
f 80/60/14 79/63/14 43/64/14 41/61/14
f 37/65/15 42/66/15 80/60/15 83/59/15
f 79/63/16 76/67/16 45/68/16 43/64/16
f 42/66/17 44/69/17 79/63/17 80/60/17
f 76/67/18 75/70/18 47/71/18 45/68/18
f 44/69/19 46/72/19 76/67/19 79/63/19
f 75/70/20 72/73/20 49/74/20 47/71/20
f 46/72/21 48/75/21 75/70/21 76/67/21
f 72/73/22 71/76/22 51/77/22 49/74/22
f 48/75/23 50/78/23 72/73/23 75/70/23
f 71/76/24 68/79/24 53/80/24 51/77/24
f 50/78/25 52/81/25 71/76/25 72/73/25
f 68/79/26 67/82/26 57/83/26 53/80/26
f 52/81/27 54/84/27 68/79/27 71/76/27
f 67/82/28 64/85/28 61/86/28 57/83/28
f 54/84/29 58/87/29 67/82/29 68/79/29
f 64/85/30 63/88/30 65/89/30 61/86/30
f 58/87/31 62/90/31 64/85/31 67/82/31
f 63/88/32 60/91/32 69/92/32 65/89/32
f 62/90/33 66/93/33 63/88/33 64/85/33
f 60/91/34 59/94/34 73/95/34 69/92/34
f 66/93/35 70/96/35 60/91/35 63/88/35
f 59/94/36 56/97/36 77/98/36 73/95/36
f 70/96/37 74/99/37 59/94/37 60/91/37
f 56/97/38 55/100/38 81/101/38 77/98/38
f 74/99/39 78/102/39 56/97/39 59/94/39
f 55/100/40 84/103/40 40/104/40 81/101/40
f 78/102/41 82/105/41 55/100/41 56/97/41
f 84/106/42 83/106/42 38/107/42 40/107/42
f 40/108/4 38/109/4 41/110/4 43/111/4 45/112/4 47/113/4 49/114/4 51/115/4 53/116/4 57/117/4 61/118/4 65/119/4 69/120/4 73/121/4 77/122/4 81/123/4
f 39/124/43 37/124/43 83/106/43 84/106/43
f 82/105/44 39/125/44 84/103/44 55/100/44
f 44/69/45 42/66/45 87/66/45 88/69/45
f 85/126/5 86/127/5 100/128/5 99/129/5 98/130/5 97/131/5 96/132/5 95/133/5 94/134/5 93/135/5 92/136/5 91/137/5 90/138/5 89/139/5 88/140/5 87/141/5
f 50/78/46 48/75/46 90/75/46 91/78/46
f 58/87/47 54/84/47 93/84/47 94/87/47
f 70/96/48 66/93/48 96/93/48 97/96/48
f 82/105/49 78/102/49 99/102/49 100/105/49
f 37/124/50 39/124/50 86/124/50 85/124/50
f 42/66/51 37/65/51 85/65/51 87/66/51
f 48/75/52 46/72/52 89/72/52 90/75/52
f 54/84/53 52/81/53 92/81/53 93/84/53
f 66/93/54 62/90/54 95/90/54 96/93/54
f 78/102/55 74/99/55 98/99/55 99/102/55
f 46/72/56 44/69/56 88/69/56 89/72/56
f 52/81/57 50/78/57 91/78/57 92/81/57
f 62/90/58 58/87/58 94/87/58 95/90/58
f 74/99/59 70/96/59 97/96/59 98/99/59
f 39/125/60 82/105/60 100/105/60 86/125/60
f 147/142/13 144/143/13 105/144/13 102/145/13
f 144/143/14 143/146/14 107/147/14 105/144/14
f 101/148/15 106/149/15 144/143/15 147/142/15
f 143/146/16 140/150/16 109/151/16 107/147/16
f 106/149/17 108/152/17 143/146/17 144/143/17
f 140/150/18 139/153/18 111/154/18 109/151/18
f 108/152/19 110/155/19 140/150/19 143/146/19
f 139/153/20 136/156/20 113/157/20 111/154/20
f 110/155/21 112/158/21 139/153/21 140/150/21
f 136/156/22 135/159/22 115/160/22 113/157/22
f 112/158/23 114/161/23 136/156/23 139/153/23
f 135/159/24 132/162/24 117/163/24 115/160/24
f 114/161/25 116/164/25 135/159/25 136/156/25
f 132/162/26 131/165/26 121/166/26 117/163/26
f 116/164/27 118/167/27 132/162/27 135/159/27
f 131/165/28 128/168/28 125/169/28 121/166/28
f 118/167/29 122/170/29 131/165/29 132/162/29
f 128/168/30 127/171/30 129/172/30 125/169/30
f 122/170/31 126/173/31 128/168/31 131/165/31
f 127/171/32 124/174/32 133/175/32 129/172/32
f 126/173/33 130/176/33 127/171/33 128/168/33
f 124/174/34 123/177/34 137/178/34 133/175/34
f 130/176/35 134/179/35 124/174/35 127/171/35
f 123/177/36 120/180/36 141/181/36 137/178/36
f 134/179/37 138/182/37 123/177/37 124/174/37
f 120/180/38 119/183/38 145/184/38 141/181/38
f 138/182/39 142/185/39 120/180/39 123/177/39
f 119/183/40 148/186/40 104/187/40 145/184/40
f 142/185/41 146/188/41 119/183/41 120/180/41
f 148/189/42 147/190/42 102/191/42 104/191/42
f 104/192/4 102/193/4 105/194/4 107/195/4 109/196/4 111/197/4 113/198/4 115/199/4 117/200/4 121/201/4 125/202/4 129/203/4 133/204/4 137/205/4 141/206/4 145/207/4
f 103/208/43 101/208/43 147/190/43 148/189/43
f 146/188/44 103/209/44 148/186/44 119/183/44
f 108/152/45 106/149/45 151/149/45 152/152/45
f 149/210/5 150/211/5 164/212/5 163/213/5 162/214/5 161/215/5 160/216/5 159/217/5 158/218/5 157/219/5 156/220/5 155/221/5 154/222/5 153/223/5 152/224/5 151/225/5
f 114/161/46 112/158/46 154/158/46 155/161/46
f 122/170/47 118/167/47 157/167/47 158/170/47
f 134/179/48 130/176/48 160/176/48 161/179/48
f 146/188/49 142/185/49 163/185/49 164/188/49
f 101/208/50 103/208/50 150/208/50 149/208/50
f 106/149/51 101/148/51 149/148/51 151/149/51
f 112/158/52 110/155/52 153/155/52 154/158/52
f 118/167/53 116/164/53 156/164/53 157/167/53
f 130/176/54 126/173/54 159/173/54 160/176/54
f 142/185/55 138/182/55 162/182/55 163/185/55
f 110/155/56 108/152/56 152/152/56 153/155/56
f 116/164/57 114/161/57 155/161/57 156/164/57
f 126/173/58 122/170/58 158/170/58 159/173/58
f 138/182/59 134/179/59 161/179/59 162/182/59
f 103/209/60 146/188/60 164/188/60 150/209/60
f 211/226/61 208/227/61 169/228/61 166/229/61
f 208/227/62 207/230/62 171/231/62 169/228/62
f 165/232/31 170/233/31 208/227/31 211/226/31
f 207/230/63 204/234/63 173/235/63 171/231/63
f 170/233/33 172/236/33 207/230/33 208/227/33
f 204/234/64 203/237/64 175/238/64 173/235/64
f 172/236/35 174/239/35 204/234/35 207/230/35
f 203/237/65 200/240/65 177/241/65 175/238/65
f 174/239/37 176/242/37 203/237/37 204/234/37
f 200/240/66 199/243/66 179/244/66 177/241/66
f 176/242/39 178/245/39 200/240/39 203/237/39
f 199/243/67 196/246/67 181/247/67 179/244/67
f 178/245/41 180/248/41 199/243/41 200/240/41
f 196/246/68 195/249/68 185/250/68 181/247/68
f 180/248/44 182/251/44 196/246/44 199/243/44
f 195/249/69 192/252/69 189/253/69 185/250/69
f 182/251/43 186/254/43 195/249/43 196/246/43
f 192/252/70 191/255/70 193/256/70 189/253/70
f 186/254/15 190/257/15 192/252/15 195/249/15
f 191/255/71 188/258/71 197/259/71 193/256/71
f 190/257/17 194/260/17 191/255/17 192/252/17
f 188/258/72 187/261/72 201/262/72 197/259/72
f 194/260/19 198/263/19 188/258/19 191/255/19
f 187/261/73 184/264/73 205/265/73 201/262/73
f 198/263/74 202/266/74 187/261/74 188/258/74
f 184/264/75 183/267/75 209/268/75 205/265/75
f 202/266/23 206/269/23 184/264/23 187/261/23
f 183/267/76 212/270/76 168/271/76 209/268/76
f 206/269/25 210/272/25 183/267/25 184/264/25
f 212/273/77 211/273/77 166/274/77 168/274/77
f 168/275/4 166/276/4 169/277/4 171/278/4 173/279/4 175/280/4 177/281/4 179/282/4 181/283/4 185/284/4 189/285/4 193/286/4 197/287/4 201/288/4 205/289/4 209/290/4
f 167/291/29 165/291/29 211/273/29 212/273/29
f 210/272/78 167/292/78 212/270/78 183/267/78
f 172/236/54 170/233/54 215/233/54 216/236/54
f 213/293/5 214/294/5 228/295/5 227/296/5 226/297/5 225/298/5 224/299/5 223/300/5 222/301/5 221/302/5 220/303/5 219/304/5 218/305/5 217/306/5 216/307/5 215/308/5
f 178/245/55 176/242/55 218/242/55 219/245/55
f 186/254/50 182/251/50 221/251/50 222/254/50
f 198/263/56 194/260/56 224/260/56 225/263/56
f 210/272/57 206/269/57 227/269/57 228/272/57
f 165/291/47 167/291/47 214/291/47 213/291/47
f 170/233/58 165/232/58 213/232/58 215/233/58
f 176/242/59 174/239/59 217/239/59 218/242/59
f 182/251/60 180/248/60 220/248/60 221/251/60
f 194/260/45 190/257/45 223/257/45 224/260/45
f 206/269/46 202/266/46 226/266/46 227/269/46
f 174/239/48 172/236/48 216/236/48 217/239/48
f 180/248/49 178/245/49 219/245/49 220/248/49
f 190/257/51 186/254/51 222/254/51 223/257/51
f 202/266/52 198/263/52 225/263/52 226/266/52
f 167/292/53 210/272/53 228/272/53 214/292/53
f 275/309/61 272/310/61 233/311/61 230/312/61
f 272/310/62 271/313/62 235/314/62 233/311/62
f 229/315/31 234/316/31 272/310/31 275/309/31
f 271/313/63 268/317/63 237/318/63 235/314/63
f 234/316/33 236/319/33 271/313/33 272/310/33
f 268/317/64 267/320/64 239/321/64 237/318/64
f 236/319/35 238/322/35 268/317/35 271/313/35
f 267/320/65 264/323/65 241/324/65 239/321/65
f 238/322/37 240/325/37 267/320/37 268/317/37
f 264/323/66 263/326/66 243/327/66 241/324/66
f 240/325/39 242/328/39 264/323/39 267/320/39
f 263/326/67 260/329/67 245/330/67 243/327/67
f 242/328/41 244/331/41 263/326/41 264/323/41
f 260/329/68 259/332/68 249/333/68 245/330/68
f 244/331/44 246/334/44 260/329/44 263/326/44
f 259/332/69 256/335/69 253/336/69 249/333/69
f 246/334/43 250/337/43 259/332/43 260/329/43
f 256/335/70 255/338/70 257/339/70 253/336/70
f 250/337/15 254/340/15 256/335/15 259/332/15
f 255/338/71 252/341/71 261/342/71 257/339/71
f 254/340/17 258/343/17 255/338/17 256/335/17
f 252/341/72 251/344/72 265/345/72 261/342/72
f 258/343/19 262/346/19 252/341/19 255/338/19
f 251/344/73 248/347/73 269/348/73 265/345/73
f 262/346/21 266/349/21 251/344/21 252/341/21
f 248/347/75 247/350/75 273/351/75 269/348/75
f 266/349/23 270/352/23 248/347/23 251/344/23
f 247/350/76 276/353/76 232/354/76 273/351/76
f 270/352/25 274/355/25 247/350/25 248/347/25
f 276/356/77 275/356/77 230/357/77 232/357/77
f 232/358/4 230/359/4 233/360/4 235/361/4 237/362/4 239/363/4 241/364/4 243/365/4 245/366/4 249/367/4 253/368/4 257/369/4 261/370/4 265/371/4 269/372/4 273/373/4
f 231/374/29 229/374/29 275/356/29 276/356/29
f 274/355/78 231/375/78 276/353/78 247/350/78
f 236/319/54 234/316/54 279/316/54 280/319/54
f 277/376/5 278/377/5 292/378/5 291/379/5 290/380/5 289/381/5 288/382/5 287/383/5 286/384/5 285/385/5 284/386/5 283/387/5 282/388/5 281/389/5 280/390/5 279/391/5
f 242/328/55 240/325/55 282/325/55 283/328/55
f 250/337/50 246/334/50 285/334/50 286/337/50
f 262/346/56 258/343/56 288/343/56 289/346/56
f 274/355/57 270/352/57 291/352/57 292/355/57
f 229/374/47 231/374/47 278/374/47 277/374/47
f 234/316/58 229/315/58 277/315/58 279/316/58
f 240/325/59 238/322/59 281/322/59 282/325/59
f 246/334/60 244/331/60 284/331/60 285/334/60
f 258/343/45 254/340/45 287/340/45 288/343/45
f 270/352/46 266/349/46 290/349/46 291/352/46
f 238/322/48 236/319/48 280/319/48 281/322/48
f 244/331/49 242/328/49 283/328/49 284/331/49
f 254/340/51 250/337/51 286/337/51 287/340/51
f 266/349/52 262/346/52 289/346/52 290/349/52
f 231/375/53 274/355/53 292/355/53 278/375/53
