# Blender 5.0.0
# www.blender.org
o Side_Table_2
v 0.463458 2.435097 -0.005187
v 0.464693 2.530715 -0.006145
v 0.556380 2.435168 0.125439
v 0.557615 2.530786 0.124480
v 0.620567 2.435649 0.271747
v 0.621802 2.531267 0.270789
v 0.653552 2.436521 0.428116
v 0.654787 2.532139 0.427158
v 0.654068 2.437751 0.588536
v 0.655303 2.533369 0.587578
v 0.622095 2.439291 0.746842
v 0.623330 2.534909 0.745884
v 0.558862 2.441082 0.896951
v 0.560097 2.536700 0.895993
v 0.466798 2.443056 1.033094
v 0.468034 2.538674 1.032136
v 0.349442 2.445136 1.150039
v 0.350678 2.540755 1.149081
v 0.211304 2.447243 1.243292
v 0.212539 2.542861 1.242334
v 0.057692 2.449296 1.309269
v 0.058927 2.544914 1.308311
v -0.105491 2.451215 1.345435
v -0.104255 2.546833 1.344477
v -0.271973 2.452927 1.350400
v -0.270738 2.548545 1.349442
v -0.435357 2.454366 1.323973
v -0.434122 2.549984 1.323015
v -0.589364 2.455477 1.267171
v -0.588129 2.551095 1.266212
v -0.728076 2.456217 1.182174
v -0.726840 2.551836 1.181216
v -0.846162 2.456558 1.072251
v -0.844926 2.552176 1.071293
v -0.939083 2.456487 0.941625
v -0.937848 2.552105 0.940667
v -1.003270 2.456006 0.795317
v -1.002035 2.551624 0.794359
v -1.036255 2.455134 0.638948
v -1.035020 2.550752 0.637990
v -1.036771 2.453904 0.478528
v -1.035536 2.549522 0.477570
v -1.004798 2.452364 0.320222
v -1.003563 2.547982 0.319264
v -0.941565 2.450572 0.170113
v -0.940330 2.546191 0.169155
v -0.849502 2.448599 0.033970
v -0.848266 2.544217 0.033012
v -0.732146 2.446518 -0.082975
v -0.730910 2.542137 -0.083933
v -0.594007 2.444412 -0.176228
v -0.592772 2.540030 -0.177185
v -0.440396 2.442359 -0.242205
v -0.439160 2.537978 -0.243163
v -0.277213 2.440440 -0.278371
v -0.275977 2.536058 -0.279329
v -0.110731 2.438728 -0.283336
v -0.109495 2.534346 -0.284294
v 0.052654 2.437289 -0.256909
v 0.053889 2.532907 -0.257868
v 0.206661 2.436178 -0.200107
v 0.207896 2.531796 -0.201065
v 0.345372 2.435437 -0.115110
v 0.346608 2.531056 -0.116068
v 0.331902 2.496367 0.652471
v 0.331902 0.000000 0.652471
v -0.750559 2.496367 0.368040
v -0.750559 0.000000 0.368040
v 0.328201 2.496367 0.664944
v 0.328201 0.000000 0.664944
v 0.329556 2.496367 0.677884
v 0.329556 0.000000 0.677884
v 0.335759 2.496367 0.689321
v 0.335759 0.000000 0.689321
v -0.754259 2.496367 0.380514
v -0.754259 0.000000 0.380514
v -0.388598 0.000000 1.021756
v -0.388598 2.496367 1.021756
v -0.752905 2.496367 0.393454
v -0.752905 0.000000 0.393454
v 0.345866 2.496367 0.697513
v 0.345866 0.000000 0.697513
v -0.746702 2.496367 0.404891
v -0.746702 0.000000 0.404891
v 0.358339 2.496367 0.701214
v 0.358339 0.000000 0.701214
v -0.736595 2.496367 0.413083
v -0.736595 0.000000 0.413083
v -0.724121 2.496367 0.416784
v -0.724121 0.000000 0.416784
v 0.371279 2.496367 0.699860
v 0.371279 0.000000 0.699860
v -0.711181 2.496367 0.415430
v -0.711181 0.000000 0.415430
v 0.382716 2.496367 0.693657
v 0.382716 0.000000 0.693657
v -0.699744 2.496367 0.409227
v -0.699744 0.000000 0.409227
v 0.390909 2.496367 0.683549
v 0.390909 0.000000 0.683549
v -0.691552 2.496367 0.399119
v -0.691552 0.000000 0.399119
v 0.394610 2.496367 0.671076
v 0.394610 0.000000 0.671076
v -0.687851 2.496367 0.386646
v -0.687851 0.000000 0.386646
v 0.364472 0.000000 0.634806
v 0.364472 2.496367 0.634806
v -0.717989 0.000000 0.350376
v -0.717989 2.496367 0.350376
v 0.376945 0.000000 0.638507
v 0.376945 2.496367 0.638507
v -0.705516 0.000000 0.354077
v -0.705516 2.496367 0.354077
v 0.387053 0.000000 0.646699
v 0.387053 2.496367 0.646699
v -0.695408 0.000000 0.362269
v -0.695408 2.496367 0.362269
v 0.393256 0.000000 0.658136
v 0.393256 2.496367 0.658136
v -0.689205 0.000000 0.373706
v -0.689205 2.496367 0.373706
v 0.340095 0.000000 0.642363
v 0.340095 2.496367 0.642363
v -0.742366 0.000000 0.357933
v -0.742366 2.496367 0.357933
v 0.351532 2.496367 0.636160
v 0.351532 0.000000 0.636160
v -0.400035 2.496367 1.027959
v -0.400035 0.000000 1.027959
v -0.346874 2.496367 1.043732
v -0.346874 0.000000 1.043732
v -0.353077 2.496367 1.032295
v -0.353077 0.000000 1.032295
v -0.363184 2.496367 1.024103
v -0.363184 0.000000 1.024103
v -0.375658 2.496367 1.020402
v -0.375658 0.000000 1.020402
v -0.345520 0.000000 1.056672
v -0.345520 2.496367 1.056672
v -0.349221 0.000000 1.069146
v -0.349221 2.496367 1.069146
v -0.357413 0.000000 1.079253
v -0.357413 2.496367 1.079253
v -0.368850 0.000000 1.085456
v -0.368850 2.496367 1.085456
v -0.381790 0.000000 1.086810
v -0.381790 2.496367 1.086810
v -0.394263 0.000000 1.083109
v -0.394263 2.496367 1.083109
v -0.404371 0.000000 1.074917
v -0.404371 2.496367 1.074917
v -0.410574 0.000000 1.063480
v -0.410574 2.496367 1.063480
v -0.411928 0.000000 1.050540
v -0.411928 2.496367 1.050540
v -0.408227 0.000000 1.038067
v -0.408227 2.496367 1.038067
v -0.009874 0.000000 -0.031850
v -0.009874 2.496367 -0.031850
v -0.021311 2.496367 -0.025647
v -0.021311 0.000000 -0.025647
v 0.031850 2.496367 -0.009874
v 0.031850 0.000000 -0.009874
v 0.025647 2.496367 -0.021311
v 0.025647 0.000000 -0.021311
v 0.015539 2.496367 -0.029503
v 0.015539 0.000000 -0.029503
v 0.003066 2.496367 -0.033204
v 0.003066 0.000000 -0.033204
v 0.033204 0.000000 0.003066
v 0.033204 2.496367 0.003066
v 0.029503 0.000000 0.015539
v 0.029503 2.496367 0.015539
v 0.021311 0.000000 0.025647
v 0.021311 2.496367 0.025647
v 0.009874 0.000000 0.031850
v 0.009874 2.496367 0.031850
v -0.003066 0.000000 0.033204
v -0.003066 2.496367 0.033204
v -0.015539 0.000000 0.029503
v -0.015539 2.496367 0.029503
v -0.730929 2.496367 0.351730
v -0.730929 0.000000 0.351730
v -0.025647 0.000000 0.021311
v -0.025647 2.496367 0.021311
v -0.031850 0.000000 0.009874
v -0.031850 2.496367 0.009874
v -0.033204 0.000000 -0.003066
v -0.033204 2.496367 -0.003066
v -0.029503 0.000000 -0.015539
v -0.029503 2.496367 -0.015539
v 0.348907 1.270216 0.663975
v 0.009402 1.270216 0.026103
v 0.343722 1.265046 0.666769
v 0.004217 1.265047 0.028897
v 0.340257 1.257310 0.668635
v 0.000752 1.257310 0.030763
v 0.339041 1.248183 0.669291
v -0.000464 1.248183 0.031419
v 0.340257 1.239057 0.668635
v 0.000752 1.239057 0.030763
v 0.343722 1.231320 0.666769
v 0.004217 1.231320 0.028897
v 0.348907 1.226151 0.663975
v 0.009402 1.226151 0.026103
v 0.355024 1.224335 0.660679
v 0.015518 1.224335 0.022807
v 0.361140 1.226151 0.657384
v 0.021635 1.226151 0.019512
v 0.366325 1.231320 0.654590
v 0.026820 1.231320 0.016718
v 0.026820 1.265047 0.016718
v 0.366325 1.265047 0.654590
v 0.030284 1.257310 0.014852
v 0.369790 1.257310 0.652724
v 0.031501 1.248183 0.014196
v 0.371006 1.248183 0.652068
v 0.030284 1.239057 0.014852
v 0.369790 1.239057 0.652724
v 0.015518 1.272032 0.022807
v 0.355024 1.272031 0.660679
v 0.361140 1.270216 0.657384
v 0.021635 1.270216 0.019512
v -0.393939 1.270216 1.039328
v -0.723097 1.270216 0.396056
v -0.399168 1.265046 1.042038
v -0.728327 1.265047 0.398765
v -0.402663 1.257310 1.043848
v -0.731821 1.257310 0.400576
v -0.403890 1.248183 1.044484
v -0.733048 1.248183 0.401212
v -0.402663 1.239057 1.043848
v -0.731821 1.239057 0.400576
v -0.399168 1.231320 1.042038
v -0.728327 1.231320 0.398765
v -0.393939 1.226151 1.039328
v -0.723097 1.226151 0.396056
v -0.387770 1.224335 1.036132
v -0.716929 1.224335 0.392859
v -0.381601 1.226151 1.032936
v -0.710760 1.226151 0.389663
v -0.376372 1.231320 1.030226
v -0.705530 1.231320 0.386954
v -0.705530 1.265047 0.386954
v -0.376372 1.265047 1.030226
v -0.702036 1.257310 0.385143
v -0.372877 1.257310 1.028415
v -0.700809 1.248183 0.384507
v -0.371650 1.248183 1.027780
v -0.702036 1.239057 0.385143
v -0.372877 1.239057 1.028415
v -0.716929 1.272032 0.392860
v -0.387770 1.272031 1.036132
v -0.381601 1.270216 1.032936
v -0.710760 1.270216 0.389663
v -0.013035 1.270216 0.011192
v -0.688891 1.270216 0.372670
v -0.009874 1.265046 0.016839
v -0.685731 1.265047 0.378316
v -0.007762 1.257310 0.020612
v -0.683619 1.257310 0.382090
v -0.007021 1.248183 0.021937
v -0.682878 1.248183 0.383414
v -0.007762 1.239057 0.020612
v -0.683619 1.239057 0.382090
v -0.009874 1.231320 0.016839
v -0.685731 1.231320 0.378316
v -0.013035 1.226151 0.011192
v -0.688891 1.226151 0.372670
v -0.016763 1.224335 0.004531
v -0.692619 1.224335 0.366008
v -0.020491 1.226151 -0.002130
v -0.696348 1.226151 0.359348
v -0.023651 1.231320 -0.007777
v -0.699508 1.231320 0.353701
v -0.699508 1.265047 0.353701
v -0.023651 1.265047 -0.007777
v -0.701620 1.257310 0.349927
v -0.025763 1.257310 -0.011550
v -0.702361 1.248183 0.348602
v -0.026504 1.248183 -0.012875
v -0.701620 1.239057 0.349927
v -0.025763 1.239057 -0.011550
v -0.692619 1.272032 0.366008
v -0.016763 1.272031 0.004531
v -0.020491 1.270216 -0.002130
v -0.696348 1.270216 0.359348
v 0.348696 1.270216 0.690843
v -0.373987 1.270216 1.056165
v 0.351256 1.265046 0.696338
v -0.371427 1.265047 1.061660
v 0.352967 1.257310 0.700010
v -0.369717 1.257310 1.065332
v 0.353568 1.248183 0.701299
v -0.369116 1.248183 1.066621
v 0.352967 1.239057 0.700010
v -0.369717 1.239057 1.065332
v 0.351256 1.231320 0.696338
v -0.371427 1.231320 1.061660
v 0.348696 1.226151 0.690843
v -0.373987 1.226151 1.056165
v 0.345676 1.224335 0.684361
v -0.377007 1.224335 1.049683
v 0.342656 1.226151 0.677878
v -0.380028 1.226151 1.043201
v 0.340096 1.231320 0.672383
v -0.382588 1.231320 1.037705
v -0.382588 1.265047 1.037705
v 0.340096 1.265047 0.672383
v -0.384298 1.257310 1.034034
v 0.338385 1.257310 0.668711
v -0.384899 1.248183 1.032744
v 0.337784 1.248183 0.667422
v -0.384298 1.239057 1.034034
v 0.338385 1.239057 0.668711
v -0.377007 1.272032 1.049683
v 0.345676 1.272031 0.684361
v 0.342656 1.270216 0.677878
v -0.380028 1.270216 1.043201
vn 0.8148 -0.0163 -0.5796
vn 0.9157 -0.0159 -0.4017
vn 0.9784 -0.0147 -0.2063
vn 0.9999 -0.0129 -0.0031
vn 0.9801 -0.0107 0.1981
vn 0.9215 -0.0080 0.3883
vn 0.8283 -0.0051 0.5602
vn 0.7058 -0.0020 0.7084
vn 0.5595 0.0011 0.8288
vn 0.3947 0.0041 0.9188
vn 0.2165 0.0070 0.9763
vn 0.0299 0.0096 0.9995
vn -0.1596 0.0120 0.9871
vn -0.3459 0.0139 0.9382
vn -0.5224 0.0153 0.8526
vn -0.6812 0.0161 0.7319
vn -0.8148 0.0163 0.5796
vn -0.9157 0.0159 0.4017
vn -0.9784 0.0147 0.2063
vn -0.9999 0.0129 0.0031
vn -0.9801 0.0107 -0.1981
vn -0.9215 0.0080 -0.3883
vn -0.8283 0.0051 -0.5602
vn -0.7058 0.0020 -0.7084
vn -0.5595 -0.0011 -0.8288
vn -0.3947 -0.0041 -0.9188
vn -0.2165 -0.0070 -0.9763
vn -0.0299 -0.0096 -0.9995
vn 0.1596 -0.0120 -0.9871
vn 0.3459 -0.0139 -0.9382
vn 0.0101 0.9999 -0.0077
vn 0.5223 -0.0153 -0.8526
vn 0.6812 -0.0161 -0.7319
vn -0.0101 -0.9999 0.0077
vn -0.2844 -0.0000 0.9587
vn 0.7769 -0.0000 0.6297
vn -0.8790 -0.0000 0.4768
vn -0.6297 -0.0000 0.7769
vn -0.9946 -0.0000 0.1041
vn -0.9587 -0.0000 -0.2844
vn 0.9587 -0.0000 0.2845
vn 0.1041 -0.0000 0.9946
vn -0.7769 -0.0000 -0.6297
vn 0.2844 -0.0000 -0.9587
vn -0.4768 -0.0000 -0.8790
vn -0.0000 -1.0000 -0.0000
vn 0.9946 -0.0000 -0.1041
vn 0.4768 -0.0000 0.8790
vn -0.1041 -0.0000 -0.9946
vn 0.6297 -0.0000 -0.7769
vn -0.0000 1.0000 -0.0000
vn 0.8790 -0.0000 -0.4768
vn -0.2845 -0.0000 0.9587
vn 0.9587 -0.0000 0.2844
vn -0.7868 -0.4534 0.4188
vn -0.8728 0.1497 0.4645
vn -0.8728 -0.1497 0.4645
vn -0.7868 0.4534 0.4188
vn -0.5823 0.7516 0.3099
vn -0.2231 0.9675 0.1188
vn 0.7868 0.4534 -0.4188
vn 0.2232 0.9675 -0.1188
vn -0.4743 -0.0000 -0.8804
vn 0.5823 0.7516 -0.3099
vn 0.8728 0.1497 -0.4645
vn 0.4743 -0.0000 0.8804
vn 0.8728 -0.1497 -0.4645
vn -0.2232 -0.9675 0.1188
vn 0.7868 -0.4534 -0.4188
vn -0.5823 -0.7516 0.3099
vn 0.5823 -0.7516 -0.3099
vn 0.2231 -0.9675 -0.1188
vn -0.7935 -0.4534 0.4060
vn -0.8802 0.1497 0.4504
vn -0.8802 -0.1497 0.4504
vn -0.7935 0.4534 0.4060
vn -0.5873 0.7516 0.3005
vn -0.2250 0.9675 0.1152
vn 0.7935 0.4534 -0.4060
vn 0.2251 0.9675 -0.1152
vn -0.4600 -0.0000 -0.8879
vn 0.5872 0.7516 -0.3005
vn 0.8802 0.1497 -0.4504
vn 0.4600 -0.0000 0.8879
vn 0.8802 -0.1497 -0.4504
vn -0.2250 -0.9675 0.1152
vn 0.7935 -0.4534 -0.4060
vn -0.5872 -0.7516 0.3005
vn 0.5872 -0.7516 -0.3005
vn 0.2250 -0.9675 -0.1152
vn 0.4117 -0.4878 0.7698
vn 0.4652 0.1641 0.8698
vn 0.4652 -0.1641 0.8698
vn 0.4117 0.4878 0.7698
vn 0.2944 0.7812 0.5504
vn 0.1091 0.9729 0.2040
vn -0.4117 0.4878 -0.7698
vn -0.1091 0.9729 -0.2041
vn -0.8726 -0.0000 0.4884
vn -0.2944 0.7813 -0.5504
vn -0.4652 0.1641 -0.8698
vn 0.8726 -0.0000 -0.4884
vn -0.4652 -0.1641 -0.8698
vn 0.1091 -0.9729 0.2040
vn -0.4117 -0.4878 -0.7698
vn 0.2944 -0.7812 0.5504
vn -0.2944 -0.7812 -0.5504
vn -0.1091 -0.9729 -0.2040
vn 0.3997 -0.4637 0.7907
vn 0.4458 0.1539 0.8818
vn 0.4458 -0.1539 0.8818
vn 0.3997 0.4637 0.7907
vn 0.2928 0.7607 0.5793
vn 0.1111 0.9692 0.2197
vn -0.3997 0.4637 -0.7907
vn -0.1111 0.9692 -0.2197
vn -0.9064 -0.0000 0.4223
vn -0.2928 0.7608 -0.5792
vn -0.4458 0.1539 -0.8818
vn 0.9065 -0.0000 -0.4223
vn -0.4458 -0.1539 -0.8818
vn 0.1110 -0.9692 0.2197
vn -0.3997 -0.4637 -0.7907
vn 0.2928 -0.7607 0.5792
vn -0.2928 -0.7608 -0.5792
vn -0.1111 -0.9692 -0.2197
vt 0.058219 0.578112
vt 0.097295 0.578112
vt 0.097295 0.580554
vt 0.058219 0.580554
vt 0.097295 0.582996
vt 0.058219 0.582996
vt 0.097295 0.585438
vt 0.058219 0.585438
vt 0.097295 0.587881
vt 0.058219 0.587881
vt 0.097295 0.590323
vt 0.058219 0.590323
vt 0.097295 0.592765
vt 0.058219 0.592765
vt 0.097295 0.595207
vt 0.058219 0.595207
vt 0.097295 0.597649
vt 0.058219 0.597649
vt 0.097295 0.600092
vt 0.058219 0.600092
vt 0.097295 0.602534
vt 0.058219 0.602534
vt 0.097295 0.604976
vt 0.058219 0.604976
vt 0.097295 0.607418
vt 0.058219 0.607418
vt 0.097295 0.609861
vt 0.058219 0.609861
vt 0.097295 0.612303
vt 0.058219 0.612303
vt 0.097295 0.614745
vt 0.058219 0.614745
vt 0.097295 0.617187
vt 0.058219 0.617187
vt 0.097295 0.619630
vt 0.058219 0.619630
vt 0.097295 0.622072
vt 0.058219 0.622072
vt 0.097295 0.624514
vt 0.058219 0.624514
vt 0.097295 0.626956
vt 0.058219 0.626956
vt 0.097295 0.629399
vt 0.058219 0.629399
vt 0.097295 0.631841
vt 0.058219 0.631841
vt 0.097295 0.634283
vt 0.058219 0.634283
vt 0.097295 0.636725
vt 0.058219 0.636725
vt 0.097295 0.639168
vt 0.058219 0.639168
vt 0.097295 0.641610
vt 0.058219 0.641610
vt 0.097295 0.644052
vt 0.058219 0.644052
vt 0.097295 0.646494
vt 0.058219 0.646494
vt 0.097295 0.648937
vt 0.058219 0.648937
vt 0.097295 0.651379
vt 0.058219 0.651379
vt 0.110321 0.713930
vt 0.106009 0.712999
vt 0.101946 0.711207
vt 0.098290 0.708622
vt 0.095181 0.705345
vt 0.092738 0.701500
vt 0.091056 0.697236
vt 0.090198 0.692716
vt 0.090198 0.688114
vt 0.091056 0.683608
vt 0.092738 0.679370
vt 0.095181 0.675563
vt 0.098290 0.672333
vt 0.101946 0.669805
vt 0.106009 0.668075
vt 0.110321 0.667210
vt 0.114718 0.667244
vt 0.119031 0.668175
vt 0.123093 0.669968
vt 0.126749 0.672552
vt 0.129858 0.675830
vt 0.132301 0.679675
vt 0.133984 0.683939
vt 0.134842 0.688459
vt 0.134842 0.693060
vt 0.133984 0.697566
vt 0.132301 0.701805
vt 0.129858 0.705612
vt 0.126749 0.708842
vt 0.123093 0.711370
vt 0.119031 0.713100
vt 0.114718 0.713964
vt 0.097295 0.653821
vt 0.058219 0.653821
vt 0.097295 0.656263
vt 0.058219 0.656263
vt 0.121432 0.614726
vt 0.124829 0.613319
vt 0.127886 0.611277
vt 0.130486 0.608677
vt 0.132529 0.605619
vt 0.133936 0.602222
vt 0.134653 0.598616
vt 0.134653 0.594939
vt 0.133936 0.591333
vt 0.132529 0.587936
vt 0.130486 0.584879
vt 0.127886 0.582279
vt 0.124829 0.580236
vt 0.121432 0.578829
vt 0.117826 0.578112
vt 0.114149 0.578112
vt 0.110542 0.578829
vt 0.107145 0.580236
vt 0.104088 0.582279
vt 0.101488 0.584879
vt 0.099445 0.587936
vt 0.098038 0.591333
vt 0.097321 0.594939
vt 0.097321 0.598616
vt 0.098038 0.602222
vt 0.099445 0.605619
vt 0.101488 0.608677
vt 0.104088 0.611277
vt 0.107145 0.613319
vt 0.110542 0.614726
vt 0.114149 0.615444
vt 0.117826 0.615444
vt 0.896729 0.845267
vt 0.896729 0.846988
vt 0.882967 0.846988
vt 0.882967 0.845267
vt 0.896729 0.862548
vt 0.896729 0.864268
vt 0.882967 0.864268
vt 0.882967 0.862548
vt 0.896729 0.848708
vt 0.896729 0.850428
vt 0.882967 0.850428
vt 0.882967 0.848708
vt 0.896729 0.890150
vt 0.896729 0.891870
vt 0.882967 0.891870
vt 0.882967 0.890150
vt 0.896729 0.852148
vt 0.882967 0.852148
vt 0.896729 0.853868
vt 0.882967 0.853868
vt 0.896729 0.893590
vt 0.896729 0.895310
vt 0.882967 0.895310
vt 0.882967 0.893590
vt 0.896729 0.860828
vt 0.882967 0.860828
vt 0.896729 0.865988
vt 0.896729 0.867709
vt 0.882967 0.867709
vt 0.882967 0.865988
vt 0.896729 0.855589
vt 0.882967 0.855589
vt 0.896729 0.897030
vt 0.882967 0.897030
vt 0.896807 0.891870
vt 0.896807 0.878108
vt 0.896886 0.891870
vt 0.896886 0.878108
vt 0.909764 0.899716
vt 0.909764 0.897138
vt 0.908778 0.894757
vt 0.906956 0.892935
vt 0.904575 0.891949
vt 0.901997 0.891949
vt 0.899616 0.892935
vt 0.897794 0.894757
vt 0.896807 0.897138
vt 0.896807 0.899716
vt 0.897794 0.902097
vt 0.899616 0.903919
vt 0.901997 0.904906
vt 0.904575 0.904906
vt 0.906956 0.903919
vt 0.908778 0.902097
vt 0.896729 0.898751
vt 0.882967 0.898751
vt 0.896729 0.859108
vt 0.882967 0.859108
vt 0.896965 0.891870
vt 0.896965 0.878108
vt 0.896729 0.833226
vt 0.896729 0.834946
vt 0.882967 0.834946
vt 0.882967 0.833226
vt 0.917610 0.917942
vt 0.915033 0.917942
vt 0.912652 0.916955
vt 0.910829 0.915133
vt 0.909843 0.912752
vt 0.909843 0.910174
vt 0.910829 0.907793
vt 0.912652 0.905971
vt 0.915033 0.904984
vt 0.917610 0.904984
vt 0.919992 0.905971
vt 0.921814 0.907793
vt 0.922800 0.910174
vt 0.922800 0.912752
vt 0.921814 0.915133
vt 0.919992 0.916955
vt 0.896729 0.900471
vt 0.882967 0.900471
vt 0.896729 0.836666
vt 0.882967 0.836666
vt 0.896729 0.841827
vt 0.896729 0.843547
vt 0.882967 0.843547
vt 0.882967 0.841827
vt 0.896729 0.838387
vt 0.882967 0.838387
vt 0.896729 0.840107
vt 0.882967 0.840107
vt 0.896729 0.857387
vt 0.882967 0.857387
vt 0.918415 0.846183
vt 0.915837 0.846183
vt 0.913456 0.845197
vt 0.911634 0.843374
vt 0.910647 0.840993
vt 0.910647 0.838416
vt 0.911634 0.836035
vt 0.913456 0.834212
vt 0.915837 0.833226
vt 0.918415 0.833226
vt 0.920796 0.834212
vt 0.922618 0.836035
vt 0.923605 0.838416
vt 0.923605 0.840993
vt 0.922618 0.843374
vt 0.920796 0.845197
vt 0.897043 0.891870
vt 0.897043 0.878108
vt 0.897122 0.891870
vt 0.897122 0.878108
vt 0.896729 0.855667
vt 0.882967 0.855667
vt 0.897201 0.891870
vt 0.897201 0.878108
vt 0.911652 0.885876
vt 0.911652 0.883298
vt 0.910666 0.880917
vt 0.908844 0.879095
vt 0.906462 0.878108
vt 0.903885 0.878108
vt 0.901504 0.879095
vt 0.899682 0.880917
vt 0.898695 0.883298
vt 0.898695 0.885876
vt 0.899682 0.888257
vt 0.901504 0.890079
vt 0.903885 0.891066
vt 0.906462 0.891066
vt 0.908844 0.890079
vt 0.910666 0.888257
vt 0.895924 0.908317
vt 0.895924 0.905740
vt 0.894938 0.903358
vt 0.893116 0.901536
vt 0.890734 0.900550
vt 0.888157 0.900550
vt 0.885776 0.901536
vt 0.883953 0.903358
vt 0.882967 0.905740
vt 0.882967 0.908317
vt 0.883953 0.910698
vt 0.885776 0.912521
vt 0.888157 0.913507
vt 0.890734 0.913507
vt 0.893116 0.912520
vt 0.894938 0.910698
vt 0.897279 0.891870
vt 0.897279 0.878108
vt 0.897358 0.891870
vt 0.897358 0.878108
vt 0.897437 0.891870
vt 0.897437 0.878108
vt 0.896729 0.876310
vt 0.896729 0.878030
vt 0.882967 0.878030
vt 0.882967 0.876310
vt 0.896729 0.874589
vt 0.882967 0.874589
vt 0.896729 0.872869
vt 0.882967 0.872869
vt 0.896729 0.878108
vt 0.896729 0.879829
vt 0.882967 0.879829
vt 0.882967 0.878108
vt 0.918415 0.859219
vt 0.915837 0.859219
vt 0.913456 0.858233
vt 0.911634 0.856410
vt 0.910647 0.854029
vt 0.910647 0.851452
vt 0.911634 0.849071
vt 0.913456 0.847248
vt 0.915837 0.846262
vt 0.918415 0.846262
vt 0.920796 0.847248
vt 0.922618 0.849071
vt 0.923605 0.851452
vt 0.923605 0.854029
vt 0.922618 0.856410
vt 0.920796 0.858233
vt 0.896729 0.869429
vt 0.896729 0.871149
vt 0.882967 0.871149
vt 0.882967 0.869429
vt 0.896729 0.881549
vt 0.882967 0.881549
vt 0.852006 0.886939
vt 0.852006 0.888659
vt 0.838245 0.888659
vt 0.838245 0.886939
vt 0.852006 0.885219
vt 0.838245 0.885219
vt 0.852006 0.890379
vt 0.852006 0.892100
vt 0.838245 0.892100
vt 0.838245 0.890379
vt 0.852006 0.883499
vt 0.838245 0.883499
vt 0.852006 0.881778
vt 0.838245 0.881778
vt 0.918415 0.872255
vt 0.915837 0.872255
vt 0.913456 0.871269
vt 0.911634 0.869446
vt 0.910647 0.867065
vt 0.910647 0.864488
vt 0.911634 0.862107
vt 0.913456 0.860284
vt 0.915837 0.859298
vt 0.918415 0.859298
vt 0.920796 0.860284
vt 0.922618 0.862107
vt 0.923605 0.864488
vt 0.923605 0.867065
vt 0.922618 0.869446
vt 0.920796 0.871269
vt 0.852006 0.880058
vt 0.838245 0.880058
vt 0.897515 0.891870
vt 0.897515 0.878108
vt 0.896729 0.886709
vt 0.896729 0.888430
vt 0.882967 0.888430
vt 0.882967 0.886709
vt 0.896729 0.883269
vt 0.882967 0.883269
vt 0.851202 0.910267
vt 0.851202 0.907689
vt 0.850216 0.905308
vt 0.848393 0.903486
vt 0.846012 0.902499
vt 0.843435 0.902499
vt 0.841053 0.903486
vt 0.839231 0.905308
vt 0.838245 0.907689
vt 0.838245 0.910267
vt 0.839231 0.912648
vt 0.841053 0.914470
vt 0.843435 0.915457
vt 0.846012 0.915457
vt 0.848393 0.914470
vt 0.850216 0.912648
vt 0.897594 0.891870
vt 0.897594 0.878108
vt 0.897673 0.891870
vt 0.897673 0.878108
vt 0.852006 0.900701
vt 0.852006 0.902421
vt 0.838245 0.902421
vt 0.838245 0.900701
vt 0.896729 0.884989
vt 0.882967 0.884989
vt 0.852006 0.898980
vt 0.838245 0.898980
vt 0.852006 0.897260
vt 0.838245 0.897260
vt 0.852006 0.893820
vt 0.852006 0.895540
vt 0.838245 0.895540
vt 0.838245 0.893820
vt 0.865846 0.892100
vt 0.865846 0.893820
vt 0.852085 0.893820
vt 0.852085 0.892100
vt 0.865846 0.895540
vt 0.865846 0.897260
vt 0.852085 0.897260
vt 0.852085 0.895540
vt 0.865846 0.898980
vt 0.852085 0.898980
vt 0.865846 0.900701
vt 0.852085 0.900701
vt 0.865846 0.902421
vt 0.852085 0.902421
vt 0.897751 0.891870
vt 0.897751 0.878108
vt 0.897830 0.891870
vt 0.897830 0.878108
vt 0.865042 0.910267
vt 0.865042 0.907689
vt 0.864056 0.905308
vt 0.862233 0.903486
vt 0.859852 0.902499
vt 0.857275 0.902499
vt 0.854894 0.903486
vt 0.853071 0.905308
vt 0.852085 0.907689
vt 0.852085 0.910267
vt 0.853071 0.912648
vt 0.854894 0.914470
vt 0.857275 0.915457
vt 0.859852 0.915457
vt 0.862233 0.914470
vt 0.864056 0.912648
vt 0.897909 0.891870
vt 0.897909 0.878108
vt 0.865846 0.880058
vt 0.865846 0.881778
vt 0.852085 0.881778
vt 0.852085 0.880058
vt 0.919498 0.891066
vt 0.916921 0.891066
vt 0.914540 0.890079
vt 0.912717 0.888257
vt 0.911731 0.885876
vt 0.911731 0.883298
vt 0.912717 0.880917
vt 0.914540 0.879095
vt 0.916921 0.878108
vt 0.919498 0.878108
vt 0.921880 0.879095
vt 0.923702 0.880917
vt 0.924688 0.883298
vt 0.924688 0.885876
vt 0.923702 0.888257
vt 0.921880 0.890079
vt 0.865846 0.883499
vt 0.852085 0.883499
vt 0.865846 0.888659
vt 0.865846 0.890379
vt 0.852085 0.890379
vt 0.852085 0.888659
vt 0.865846 0.885219
vt 0.852085 0.885219
vt 0.865846 0.886939
vt 0.852085 0.886939
vt 0.879687 0.892100
vt 0.879687 0.893820
vt 0.865925 0.893820
vt 0.865925 0.892100
vt 0.879687 0.895540
vt 0.879687 0.897260
vt 0.865925 0.897260
vt 0.865925 0.895540
vt 0.879687 0.898980
vt 0.865925 0.898980
vt 0.879687 0.900701
vt 0.865925 0.900701
vt 0.879687 0.902421
vt 0.865925 0.902421
vt 0.897987 0.891870
vt 0.897987 0.878108
vt 0.898066 0.891870
vt 0.898066 0.878108
vt 0.878078 0.910267
vt 0.878078 0.907689
vt 0.877092 0.905308
vt 0.875269 0.903486
vt 0.872888 0.902499
vt 0.870311 0.902499
vt 0.867930 0.903486
vt 0.866107 0.905308
vt 0.865121 0.907689
vt 0.865121 0.910267
vt 0.866107 0.912648
vt 0.867930 0.914470
vt 0.870311 0.915457
vt 0.872888 0.915457
vt 0.875269 0.914470
vt 0.877092 0.912648
vt 0.898145 0.891870
vt 0.898145 0.878108
vt 0.879687 0.880058
vt 0.879687 0.881778
vt 0.865925 0.881778
vt 0.865925 0.880058
vt 0.890734 0.926543
vt 0.888157 0.926543
vt 0.885776 0.925556
vt 0.883953 0.923734
vt 0.882967 0.921353
vt 0.882967 0.918775
vt 0.883953 0.916394
vt 0.885776 0.914572
vt 0.888157 0.913585
vt 0.890734 0.913585
vt 0.893116 0.914572
vt 0.894938 0.916394
vt 0.895924 0.918775
vt 0.895924 0.921353
vt 0.894938 0.923734
vt 0.893116 0.925556
vt 0.879687 0.883499
vt 0.865925 0.883499
vt 0.879687 0.888659
vt 0.879687 0.890379
vt 0.865925 0.890379
vt 0.865925 0.888659
vt 0.879687 0.885219
vt 0.865925 0.885219
vt 0.879687 0.886939
vt 0.865925 0.886939
vt 0.910569 0.845267
vt 0.910569 0.846988
vt 0.896807 0.846988
vt 0.896807 0.845267
vt 0.910569 0.848708
vt 0.910569 0.850428
vt 0.896807 0.850428
vt 0.896807 0.848708
vt 0.910569 0.852148
vt 0.896807 0.852148
vt 0.910569 0.853868
vt 0.896807 0.853868
vt 0.910569 0.855589
vt 0.896807 0.855589
vt 0.898223 0.891870
vt 0.898223 0.878108
vt 0.898302 0.891870
vt 0.898302 0.878108
vt 0.922800 0.899716
vt 0.922800 0.897138
vt 0.921814 0.894757
vt 0.919992 0.892935
vt 0.917610 0.891949
vt 0.915033 0.891949
vt 0.912652 0.892935
vt 0.910829 0.894757
vt 0.909843 0.897138
vt 0.909843 0.899716
vt 0.910829 0.902097
vt 0.912652 0.903919
vt 0.915033 0.904906
vt 0.917610 0.904906
vt 0.919992 0.903919
vt 0.921814 0.902097
vt 0.898381 0.891870
vt 0.898381 0.878108
vt 0.910569 0.833226
vt 0.910569 0.834946
vt 0.896807 0.834946
vt 0.896807 0.833226
vt 0.846012 0.928493
vt 0.843435 0.928493
vt 0.841053 0.927506
vt 0.839231 0.925684
vt 0.838245 0.923303
vt 0.838245 0.920725
vt 0.839231 0.918344
vt 0.841053 0.916522
vt 0.843435 0.915535
vt 0.846012 0.915535
vt 0.848393 0.916522
vt 0.850216 0.918344
vt 0.851202 0.920725
vt 0.851202 0.923303
vt 0.850216 0.925684
vt 0.848393 0.927506
vt 0.910569 0.836666
vt 0.896807 0.836666
vt 0.910569 0.841827
vt 0.910569 0.843547
vt 0.896807 0.843547
vt 0.896807 0.841827
vt 0.910569 0.838387
vt 0.896807 0.838387
vt 0.910569 0.840107
vt 0.896807 0.840107
vt 0.910569 0.867709
vt 0.910569 0.869429
vt 0.896807 0.869429
vt 0.896807 0.867709
vt 0.910569 0.871149
vt 0.910569 0.872869
vt 0.896807 0.872869
vt 0.896807 0.871149
vt 0.910569 0.874589
vt 0.896807 0.874589
vt 0.910569 0.876310
vt 0.896807 0.876310
vt 0.910569 0.878030
vt 0.896807 0.878030
vt 0.898459 0.891870
vt 0.898459 0.878108
vt 0.898538 0.891870
vt 0.898538 0.878108
vt 0.909764 0.912752
vt 0.909764 0.910174
vt 0.908778 0.907793
vt 0.906956 0.905971
vt 0.904575 0.904984
vt 0.901997 0.904984
vt 0.899616 0.905971
vt 0.897794 0.907793
vt 0.896807 0.910174
vt 0.896807 0.912752
vt 0.897794 0.915133
vt 0.899616 0.916955
vt 0.901997 0.917942
vt 0.904575 0.917942
vt 0.906956 0.916955
vt 0.908778 0.915133
vt 0.898617 0.891870
vt 0.898617 0.878108
vt 0.910569 0.855667
vt 0.910569 0.857387
vt 0.896807 0.857387
vt 0.896807 0.855667
vt 0.859048 0.928493
vt 0.856470 0.928493
vt 0.854089 0.927506
vt 0.852267 0.925684
vt 0.851281 0.923303
vt 0.851281 0.920725
vt 0.852267 0.918344
vt 0.854089 0.916522
vt 0.856470 0.915535
vt 0.859048 0.915535
vt 0.861429 0.916522
vt 0.863251 0.918344
vt 0.864238 0.920725
vt 0.864238 0.923303
vt 0.863251 0.925684
vt 0.861429 0.927506
vt 0.910569 0.859108
vt 0.896807 0.859108
vt 0.910569 0.864268
vt 0.910569 0.865988
vt 0.896807 0.865988
vt 0.896807 0.864268
vt 0.910569 0.860828
vt 0.896807 0.860828
vt 0.910569 0.862548
vt 0.896807 0.862548
s 0
f 1/1/1 2/2/1 4/3/1 3/4/1
f 3/4/2 4/3/2 6/5/2 5/6/2
f 5/6/3 6/5/3 8/7/3 7/8/3
f 7/8/4 8/7/4 10/9/4 9/10/4
f 9/10/5 10/9/5 12/11/5 11/12/5
f 11/12/6 12/11/6 14/13/6 13/14/6
f 13/14/7 14/13/7 16/15/7 15/16/7
f 15/16/8 16/15/8 18/17/8 17/18/8
f 17/18/9 18/17/9 20/19/9 19/20/9
f 19/20/10 20/19/10 22/21/10 21/22/10
f 21/22/11 22/21/11 24/23/11 23/24/11
f 23/24/12 24/23/12 26/25/12 25/26/12
f 25/26/13 26/25/13 28/27/13 27/28/13
f 27/28/14 28/27/14 30/29/14 29/30/14
f 29/30/15 30/29/15 32/31/15 31/32/15
f 31/32/16 32/31/16 34/33/16 33/34/16
f 33/34/17 34/33/17 36/35/17 35/36/17
f 35/36/18 36/35/18 38/37/18 37/38/18
f 37/38/19 38/37/19 40/39/19 39/40/19
f 39/40/20 40/39/20 42/41/20 41/42/20
f 41/42/21 42/41/21 44/43/21 43/44/21
f 43/44/22 44/43/22 46/45/22 45/46/22
f 45/46/23 46/45/23 48/47/23 47/48/23
f 47/48/24 48/47/24 50/49/24 49/50/24
f 49/50/25 50/49/25 52/51/25 51/52/25
f 51/52/26 52/51/26 54/53/26 53/54/26
f 53/54/27 54/53/27 56/55/27 55/56/27
f 55/56/28 56/55/28 58/57/28 57/58/28
f 57/58/29 58/57/29 60/59/29 59/60/29
f 59/60/30 60/59/30 62/61/30 61/62/30
f 4/63/31 2/64/31 64/65/31 62/66/31 60/67/31 58/68/31 56/69/31 54/70/31 52/71/31 50/72/31 48/73/31 46/74/31 44/75/31 42/76/31 40/77/31 38/78/31 36/79/31 34/80/31 32/81/31 30/82/31 28/83/31 26/84/31 24/85/31 22/86/31 20/87/31 18/88/31 16/89/31 14/90/31 12/91/31 10/92/31 8/93/31 6/94/31
f 61/62/32 62/61/32 64/95/32 63/96/32
f 63/96/33 64/95/33 2/97/33 1/98/33
f 1/99/34 3/100/34 5/101/34 7/102/34 9/103/34 11/104/34 13/105/34 15/106/34 17/107/34 19/108/34 21/109/34 23/110/34 25/111/34 27/112/34 29/113/34 31/114/34 33/115/34 35/116/34 37/117/34 39/118/34 41/119/34 43/120/34 45/121/34 47/122/34 49/123/34 51/124/34 53/125/34 55/126/34 57/127/34 59/128/34 61/129/34 63/130/34
f 85/131/35 81/132/35 82/133/35 86/134/35
f 142/135/36 144/136/36 143/137/36 141/138/36
f 73/139/37 71/140/37 72/141/37 74/142/37
f 89/143/35 87/144/35 88/145/35 90/146/35
f 81/132/38 73/139/38 74/142/38 82/133/38
f 71/140/39 69/147/39 70/148/39 72/141/39
f 69/147/40 65/149/40 66/150/40 70/148/40
f 83/151/37 79/152/37 80/153/37 84/154/37
f 140/155/41 142/135/41 141/138/41 139/156/41
f 146/157/42 148/158/42 147/159/42 145/160/42
f 65/149/43 124/161/43 123/162/43 66/150/43
f 87/144/38 83/151/38 84/154/38 88/145/38
f 79/152/39 75/163/39 76/164/39 80/153/39
f 108/165/44 112/165/44 111/166/44 107/166/44
f 124/167/45 127/167/45 128/168/45 123/168/45
f 123/169/46 128/170/46 107/171/46 111/172/46 115/173/46 119/174/46 104/175/46 100/176/46 96/177/46 92/178/46 86/179/46 82/180/46 74/181/46 72/182/46 70/183/46 66/184/46
f 75/163/40 67/185/40 68/186/40 76/164/40
f 131/187/47 140/155/47 139/156/47 132/188/47
f 144/136/48 146/157/48 145/160/48 143/137/48
f 127/189/49 108/189/49 107/190/49 128/190/49
f 112/191/50 116/192/50 115/193/50 111/194/50
f 127/195/51 124/196/51 65/197/51 69/198/51 71/199/51 73/200/51 81/201/51 85/202/51 91/203/51 95/204/51 99/205/51 103/206/51 120/207/51 116/208/51 112/209/51 108/210/51
f 67/185/43 126/211/43 125/212/43 68/186/43
f 116/192/52 120/213/52 119/214/52 115/193/52
f 95/215/48 91/216/48 92/217/48 96/218/48
f 120/213/47 103/219/47 104/220/47 119/214/47
f 91/216/42 85/131/42 86/134/42 92/217/42
f 103/219/41 99/221/41 100/222/41 104/220/41
f 99/221/36 95/215/36 96/218/36 100/222/36
f 133/223/52 131/187/52 132/188/52 134/224/52
f 78/225/51 129/226/51 158/227/51 156/228/51 154/229/51 152/230/51 150/231/51 148/232/51 146/233/51 144/234/51 142/235/51 140/236/51 131/237/51 133/238/51 135/239/51 137/240/51
f 110/241/44 114/241/44 113/242/44 109/242/44
f 126/243/45 183/243/45 184/244/45 125/244/45
f 135/245/50 133/223/50 134/224/50 136/246/50
f 78/247/49 137/247/49 138/248/49 77/248/49
f 130/249/46 77/250/46 138/251/46 136/252/46 134/253/46 132/254/46 139/255/46 141/256/46 143/257/46 145/258/46 147/259/46 149/260/46 151/261/46 153/262/46 155/263/46 157/264/46
f 125/265/46 184/266/46 109/267/46 113/268/46 117/269/46 121/270/46 106/271/46 102/272/46 98/273/46 94/274/46 90/275/46 88/276/46 84/277/46 80/278/46 76/279/46 68/280/46
f 129/281/45 78/281/45 77/282/45 130/282/45
f 137/283/44 135/283/44 136/284/44 138/284/44
f 183/285/49 110/285/49 109/286/49 184/286/49
f 158/287/43 129/288/43 130/289/43 157/290/43
f 156/291/40 158/287/40 157/290/40 155/292/40
f 154/293/39 156/291/39 155/292/39 153/294/39
f 114/295/50 118/296/50 117/297/50 113/298/50
f 183/299/51 126/300/51 67/301/51 75/302/51 79/303/51 83/304/51 87/305/51 89/306/51 93/307/51 97/308/51 101/309/51 105/310/51 122/311/51 118/312/51 114/313/51 110/314/51
f 150/315/38 152/316/38 151/317/38 149/318/38
f 152/316/37 154/293/37 153/294/37 151/317/37
f 148/158/53 150/315/53 149/318/53 147/159/53
f 118/296/52 122/319/52 121/320/52 117/297/52
f 174/321/36 176/322/36 175/323/36 173/324/36
f 172/325/41 174/321/41 173/324/41 171/326/41
f 178/327/42 180/328/42 179/329/42 177/330/42
f 163/331/47 172/325/47 171/326/47 164/332/47
f 176/322/48 178/327/48 177/330/48 175/323/48
f 165/333/52 163/331/52 164/332/52 166/334/52
f 160/335/51 161/336/51 192/337/51 190/338/51 188/339/51 186/340/51 182/341/51 180/342/51 178/343/51 176/344/51 174/345/51 172/346/51 163/347/51 165/348/51 167/349/51 169/350/51
f 167/351/50 165/333/50 166/334/50 168/352/50
f 160/353/49 169/353/49 170/354/49 159/354/49
f 97/355/48 93/356/48 94/357/48 98/358/48
f 122/319/47 105/359/47 106/360/47 121/320/47
f 162/361/46 159/362/46 170/363/46 168/364/46 166/365/46 164/366/46 171/367/46 173/368/46 175/369/46 177/370/46 179/371/46 181/372/46 185/373/46 187/374/46 189/375/46 191/376/46
f 161/377/45 160/377/45 159/378/45 162/378/45
f 169/379/44 167/379/44 168/380/44 170/380/44
f 192/381/43 161/382/43 162/383/43 191/384/43
f 93/356/42 89/143/42 90/146/42 94/357/42
f 105/359/54 101/385/54 102/386/54 106/360/54
f 190/387/40 192/381/40 191/384/40 189/388/40
f 188/389/39 190/387/39 189/388/39 187/390/39
f 182/391/38 186/392/38 185/393/38 181/394/38
f 186/392/37 188/389/37 187/390/37 185/393/37
f 101/385/36 97/355/36 98/358/36 102/386/36
f 180/328/35 182/391/35 181/394/35 179/329/35
f 203/395/55 201/396/55 202/397/55 204/398/55
f 199/399/56 197/400/56 198/401/56 200/402/56
f 201/396/57 199/399/57 200/402/57 202/397/57
f 197/400/58 195/403/58 196/404/58 198/401/58
f 195/403/59 193/405/59 194/406/59 196/404/59
f 193/405/60 222/407/60 221/408/60 194/406/60
f 214/409/61 216/409/61 215/410/61 213/410/61
f 222/411/62 223/411/62 224/412/62 221/412/62
f 221/413/63 224/414/63 213/415/63 215/416/63 217/417/63 219/418/63 212/419/63 210/420/63 208/421/63 206/422/63 204/423/63 202/424/63 200/425/63 198/426/63 196/427/63 194/428/63
f 223/429/64 214/429/64 213/430/64 224/430/64
f 216/431/65 218/432/65 217/433/65 215/434/65
f 223/435/66 222/436/66 193/437/66 195/438/66 197/439/66 199/440/66 201/441/66 203/442/66 205/443/66 207/444/66 209/445/66 211/446/66 220/447/66 218/448/66 216/449/66 214/450/66
f 218/432/67 220/451/67 219/452/67 217/433/67
f 207/453/68 205/454/68 206/455/68 208/456/68
f 220/451/69 211/457/69 212/458/69 219/452/69
f 205/454/70 203/395/70 204/398/70 206/455/70
f 211/457/71 209/459/71 210/460/71 212/458/71
f 209/459/72 207/453/72 208/456/72 210/460/72
f 235/461/73 233/462/73 234/463/73 236/464/73
f 231/465/74 229/466/74 230/467/74 232/468/74
f 233/462/75 231/465/75 232/468/75 234/463/75
f 229/466/76 227/469/76 228/470/76 230/467/76
f 227/469/77 225/471/77 226/472/77 228/470/77
f 225/471/78 254/473/78 253/474/78 226/472/78
f 246/475/79 248/475/79 247/476/79 245/476/79
f 254/477/80 255/477/80 256/478/80 253/478/80
f 253/479/81 256/480/81 245/481/81 247/482/81 249/483/81 251/484/81 244/485/81 242/486/81 240/487/81 238/488/81 236/489/81 234/490/81 232/491/81 230/492/81 228/493/81 226/494/81
f 255/495/82 246/495/82 245/496/82 256/496/82
f 248/497/83 250/498/83 249/499/83 247/500/83
f 255/501/84 254/502/84 225/503/84 227/504/84 229/505/84 231/506/84 233/507/84 235/508/84 237/509/84 239/510/84 241/511/84 243/512/84 252/513/84 250/514/84 248/515/84 246/516/84
f 250/498/85 252/517/85 251/518/85 249/499/85
f 239/519/86 237/520/86 238/521/86 240/522/86
f 252/517/87 243/523/87 244/524/87 251/518/87
f 237/520/88 235/461/88 236/464/88 238/521/88
f 243/523/89 241/525/89 242/526/89 244/524/89
f 241/525/90 239/519/90 240/522/90 242/526/90
f 267/527/91 265/528/91 266/529/91 268/530/91
f 263/531/92 261/532/92 262/533/92 264/534/92
f 265/528/93 263/531/93 264/534/93 266/529/93
f 261/532/94 259/535/94 260/536/94 262/533/94
f 259/535/95 257/537/95 258/538/95 260/536/95
f 257/537/96 286/539/96 285/540/96 258/538/96
f 278/541/97 280/541/97 279/542/97 277/542/97
f 286/543/98 287/543/98 288/544/98 285/544/98
f 285/545/99 288/546/99 277/547/99 279/548/99 281/549/99 283/550/99 276/551/99 274/552/99 272/553/99 270/554/99 268/555/99 266/556/99 264/557/99 262/558/99 260/559/99 258/560/99
f 287/561/100 278/561/100 277/562/100 288/562/100
f 280/563/101 282/564/101 281/565/101 279/566/101
f 287/567/102 286/568/102 257/569/102 259/570/102 261/571/102 263/572/102 265/573/102 267/574/102 269/575/102 271/576/102 273/577/102 275/578/102 284/579/102 282/580/102 280/581/102 278/582/102
f 282/564/103 284/583/103 283/584/103 281/565/103
f 271/585/104 269/586/104 270/587/104 272/588/104
f 284/583/105 275/589/105 276/590/105 283/584/105
f 269/586/106 267/527/106 268/530/106 270/587/106
f 275/589/107 273/591/107 274/592/107 276/590/107
f 273/591/108 271/585/108 272/588/108 274/592/108
f 299/593/109 297/594/109 298/595/109 300/596/109
f 295/597/110 293/598/110 294/599/110 296/600/110
f 297/594/111 295/597/111 296/600/111 298/595/111
f 293/598/112 291/601/112 292/602/112 294/599/112
f 291/601/113 289/603/113 290/604/113 292/602/113
f 289/603/114 318/605/114 317/606/114 290/604/114
f 310/607/115 312/607/115 311/608/115 309/608/115
f 318/609/116 319/609/116 320/610/116 317/610/116
f 317/611/117 320/612/117 309/613/117 311/614/117 313/615/117 315/616/117 308/617/117 306/618/117 304/619/117 302/620/117 300/621/117 298/622/117 296/623/117 294/624/117 292/625/117 290/626/117
f 319/627/118 310/627/118 309/628/118 320/628/118
f 312/629/119 314/630/119 313/631/119 311/632/119
f 319/633/120 318/634/120 289/635/120 291/636/120 293/637/120 295/638/120 297/639/120 299/640/120 301/641/120 303/642/120 305/643/120 307/644/120 316/645/120 314/646/120 312/647/120 310/648/120
f 314/630/121 316/649/121 315/650/121 313/631/121
f 303/651/122 301/652/122 302/653/122 304/654/122
f 316/649/123 307/655/123 308/656/123 315/650/123
f 301/652/124 299/593/124 300/596/124 302/653/124
f 307/655/125 305/657/125 306/658/125 308/656/125
f 305/657/126 303/651/126 304/654/126 306/658/126
