# Blender 5.0.0
# www.blender.org
o Couch_Table
v -0.001540 2.572763 1.319870
v -0.067107 2.851132 1.270691
v -0.001540 2.572763 -0.021884
v -0.067107 2.851132 0.027295
v 8.699633 2.572763 1.319870
v 8.765201 2.851132 1.270691
v 8.699633 2.572763 -0.021884
v 8.765201 2.851132 0.027295
v -0.137206 2.512560 -0.042804
v -0.137206 2.512560 1.340790
v 8.835299 2.512560 -0.042804
v 8.835299 2.512560 1.340790
v 0.134022 0.000000 1.257914
v 0.134022 2.590746 1.257914
v 0.134022 0.000000 1.337610
v 0.134022 2.590746 1.337610
v -0.124389 0.000000 1.257914
v -0.124389 2.590746 1.257914
v -0.124389 0.000000 1.337610
v -0.124389 2.590746 1.337610
v 0.129206 0.000000 -0.039848
v 0.129206 2.590746 -0.039848
v 0.129206 0.000000 0.039848
v 0.129206 2.590746 0.039848
v -0.129205 0.000000 -0.039848
v -0.129205 2.590746 -0.039848
v -0.129205 0.000000 0.039848
v -0.129205 2.590746 0.039848
v 0.129206 2.590746 -0.039848
v 0.129206 2.590746 0.039848
v -0.129205 2.590746 -0.039848
v -0.129205 2.590746 0.039848
v 8.822770 0.000000 1.257914
v 8.822770 2.590746 1.257914
v 8.822770 0.000000 1.337610
v 8.822770 2.590746 1.337610
v 8.564360 0.000000 1.257914
v 8.564360 2.590746 1.257914
v 8.564360 0.000000 1.337610
v 8.564360 2.590746 1.337610
v 8.817954 0.000000 -0.039849
v 8.817954 2.590746 -0.039849
v 8.817954 0.000000 0.039847
v 8.817954 2.590746 0.039847
v 8.559544 0.000000 -0.039849
v 8.559544 2.590746 -0.039849
v 8.559544 0.000000 0.039847
v 8.559544 2.590746 0.039847
v -0.137206 2.824618 1.340790
v -0.137206 2.824618 -0.042804
v 8.835299 2.824618 -0.042804
v 8.835299 2.824618 1.340790
v -0.003065 0.353132 0.035597
v -0.003065 0.353132 1.262389
v 8.701159 0.353132 0.035597
v 8.701159 0.353132 1.262389
v -0.003065 0.437129 1.262389
v -0.003065 0.437129 0.035597
v 8.701159 0.437129 0.035597
v 8.701159 0.437129 1.262389
vn -1.0000 -0.0000 -0.0000
vn -0.0000 -0.0000 -1.0000
vn 1.0000 -0.0000 -0.0000
vn -0.0000 -0.0000 1.0000
vn -0.0000 -1.0000 -0.0000
vn -0.0000 1.0000 -0.0000
vn 0.4056 -0.9140 -0.0000
vn -0.0000 -0.3282 0.9446
vn -0.4056 -0.9140 -0.0000
vn -0.0000 -0.3282 -0.9446
vn -0.3538 0.9353 -0.0000
vn -0.0000 0.9353 -0.3538
vn 0.3538 0.9353 -0.0000
vn -0.0000 0.9353 0.3538
vt 0.165807 0.335017
vt 0.287361 0.335017
vt 0.287361 0.456571
vt 0.165807 0.456571
vt 0.287361 0.578125
vt 0.165807 0.578125
vt 0.287361 0.699679
vt 0.165807 0.699679
vt 0.287361 0.821233
vt 0.165807 0.821233
vt 0.046091 0.579963
vt 0.163969 0.579963
vt 0.163969 0.697841
vt 0.046091 0.697841
vt 0.288311 0.584283
vt 0.407966 0.584283
vt 0.407966 0.693521
vt 0.288311 0.693521
vt 0.044253 0.699679
vt 0.044253 0.578125
vt 0.176674 0.425448
vt 0.288169 0.425448
vt 0.288169 0.536943
vt 0.176674 0.536943
vt 0.288169 0.648438
vt 0.176674 0.648438
vt 0.288169 0.759932
vt 0.176674 0.759932
vt 0.288169 0.871427
vt 0.176674 0.871427
vt 0.065179 0.648438
vt 0.065179 0.759932
vt 0.399664 0.648438
vt 0.399664 0.759932
vt 0.201055 0.349140
vt 0.283321 0.349140
vt 0.283321 0.431406
vt 0.201055 0.431406
vt 0.283321 0.513672
vt 0.201055 0.513672
vt 0.201055 0.595938
vt 0.283321 0.595938
vt 0.283321 0.678204
vt 0.201055 0.678204
vt 0.118789 0.513672
vt 0.118789 0.595938
vt 0.365586 0.513672
vt 0.365586 0.595938
vt 0.243378 0.535156
vt 0.319933 0.535156
vt 0.319933 0.611712
vt 0.243378 0.611712
vt 0.200814 0.355989
vt 0.283561 0.355989
vt 0.283561 0.438736
vt 0.200814 0.438736
vt 0.283561 0.521484
vt 0.200814 0.521484
vt 0.283561 0.604232
vt 0.200814 0.604232
vt 0.283561 0.686980
vt 0.200814 0.686980
vt 0.118066 0.521484
vt 0.118066 0.604232
vt 0.366309 0.521484
vt 0.366309 0.604232
vt 0.161258 0.387220
vt 0.229367 0.387220
vt 0.229367 0.455329
vt 0.161258 0.455329
vt 0.229367 0.523438
vt 0.161258 0.523438
vt 0.229367 0.591546
vt 0.161258 0.591546
vt 0.229367 0.659655
vt 0.161258 0.659655
vt 0.093149 0.523438
vt 0.093149 0.591546
vt 0.297476 0.523438
vt 0.297476 0.591546
vt 0.408915 0.578125
vt 0.408915 0.699679
vt 0.211462 0.345763
vt 0.296394 0.345763
vt 0.296394 0.430694
vt 0.211462 0.430694
vt 0.296394 0.515625
vt 0.211462 0.515625
vt 0.296394 0.600556
vt 0.211462 0.600556
vt 0.296394 0.685487
vt 0.211462 0.685487
vt 0.126531 0.600556
vt 0.126531 0.515625
vt 0.381325 0.600556
vt 0.381325 0.515625
s 0
f 10/1/1 49/2/1 50/3/1 9/4/1
f 9/4/2 50/3/2 51/5/2 11/6/2
f 11/6/3 51/5/3 52/7/3 12/8/3
f 12/8/4 52/7/4 49/9/4 10/10/4
f 3/11/5 7/12/5 5/13/5 1/14/5
f 8/15/6 4/16/6 2/17/6 6/18/6
f 3/11/7 1/14/7 10/19/7 9/20/7
f 7/12/8 3/11/8 9/20/8 11/6/8
f 5/13/9 7/12/9 11/6/9 12/8/9
f 1/14/10 5/13/10 12/8/10 10/19/10
f 13/21/3 14/22/3 16/23/3 15/24/3
f 15/24/4 16/23/4 20/25/4 19/26/4
f 19/26/1 20/25/1 18/27/1 17/28/1
f 17/28/2 18/27/2 14/29/2 13/30/2
f 15/31/5 19/26/5 17/28/5 13/32/5
f 20/25/6 16/33/6 14/34/6 18/27/6
f 21/35/3 22/36/3 24/37/3 23/38/3
f 23/38/4 24/37/4 28/39/4 27/40/4
f 25/41/2 26/42/2 22/43/2 21/44/2
f 23/45/5 27/40/5 25/41/5 21/46/5
f 28/39/6 24/47/6 22/48/6 26/42/6
f 27/40/1 28/39/1 26/42/1 25/41/1
f 32/49/6 30/50/6 29/51/6 31/52/6
f 33/53/3 34/54/3 36/55/3 35/56/3
f 35/56/4 36/55/4 40/57/4 39/58/4
f 39/58/1 40/57/1 38/59/1 37/60/1
f 37/60/2 38/59/2 34/61/2 33/62/2
f 35/63/5 39/58/5 37/60/5 33/64/5
f 40/57/6 36/65/6 34/66/6 38/59/6
f 41/67/3 42/68/3 44/69/3 43/70/3
f 43/70/4 44/69/4 48/71/4 47/72/4
f 47/72/1 48/71/1 46/73/1 45/74/1
f 45/74/2 46/73/2 42/75/2 41/76/2
f 43/77/5 47/72/5 45/74/5 41/78/5
f 48/71/6 44/79/6 42/80/6 46/73/6
f 2/17/11 4/16/11 50/81/11 49/82/11
f 4/16/12 8/15/12 51/5/12 50/81/12
f 8/15/13 6/18/13 52/7/13 51/5/13
f 6/18/14 2/17/14 49/82/14 52/7/14
f 54/83/1 57/84/1 58/85/1 53/86/1
f 53/86/2 58/85/2 59/87/2 55/88/2
f 55/88/3 59/87/3 60/89/3 56/90/3
f 56/90/4 60/89/4 57/91/4 54/92/4
f 54/93/5 53/94/5 55/88/5 56/90/5
f 57/95/6 60/89/6 59/87/6 58/96/6
