# Blender 5.0.0
# www.blender.org
o Staircase
v -2.264078 0.000000 0.340367
v -2.264078 0.502326 0.340367
v -2.264078 0.000000 -0.659633
v -2.264078 0.502326 -0.659633
v 2.597444 0.000000 0.340367
v 2.597444 0.502326 0.340367
v 2.597444 0.000000 -0.659633
v 2.597444 0.502326 -0.659633
v -2.263731 0.002326 1.337177
v -2.263731 1.002326 1.337177
v -2.263731 0.002326 0.337177
v -2.263731 1.002326 0.337177
v 2.597792 0.002326 1.337177
v 2.597792 1.002326 1.337177
v 2.597792 0.002326 0.337177
v 2.597792 1.002326 0.337177
v -2.270335 0.502326 2.332886
v -2.270335 1.502326 2.332886
v -2.270335 0.502326 1.332886
v -2.270335 1.502326 1.332886
v 2.591187 0.502326 2.332886
v 2.591187 1.502326 2.332886
v 2.591187 0.502326 1.332886
v 2.591187 1.502326 1.332886
v -2.267698 1.002326 3.327662
v -2.267698 2.002326 3.327662
v -2.267698 1.002326 2.327662
v -2.267698 2.002326 2.327662
v 2.593825 1.002326 3.327662
v 2.593825 2.002326 3.327662
v 2.593825 1.002326 2.327662
v 2.593825 2.002326 2.327662
v -2.265840 1.502326 4.331531
v -2.265840 2.502326 4.331531
v -2.265840 1.502326 3.331531
v -2.265840 2.502326 3.331531
v 2.595683 1.502326 4.331531
v 2.595683 2.502326 4.331531
v 2.595683 1.502326 3.331531
v 2.595683 2.502326 3.331531
v -2.265620 2.002326 5.327848
v -2.265620 3.002326 5.327848
v -2.265620 2.002326 4.327848
v -2.265620 3.002326 4.327848
v 2.595903 2.002326 5.327848
v 2.595903 3.002326 5.327848
v 2.595903 2.002326 4.327848
v 2.595903 3.002326 4.327848
v -2.268395 2.502326 6.326708
v -2.268395 3.502326 6.326708
v -2.268395 2.502326 5.326708
v -2.268395 3.502326 5.326708
v 2.593128 2.502326 6.326708
v 2.593128 3.502326 6.326708
v 2.593128 2.502326 5.326708
v 2.593128 3.502326 5.326708
v -2.280876 3.002326 7.318349
v -2.280876 4.002326 7.318349
v -2.280876 3.002326 6.318349
v -2.280876 4.002326 6.318349
v 2.580646 3.002326 7.318349
v 2.580646 4.002326 7.318349
v 2.580646 3.002326 6.318349
v 2.580646 4.002326 6.318349
v -2.281332 3.502326 8.318136
v -2.281332 4.502326 8.318136
v -2.281332 3.502326 7.318136
v -2.281332 4.502326 7.318136
v 2.580191 3.502326 8.318136
v 2.580191 4.502326 8.318136
v 2.580191 3.502326 7.318136
v 2.580191 4.502326 7.318136
v -2.291782 4.002326 9.317262
v -2.291782 5.002326 9.317262
v -2.291782 4.002326 8.317262
v -2.291782 5.002326 8.317262
v 2.569741 4.002326 9.317262
v 2.569741 5.002326 9.317262
v 2.569741 4.002326 8.317262
v 2.569741 5.002326 8.317262
v -2.301873 4.502326 10.310122
v -2.301873 5.502326 10.310122
v -2.301873 4.502326 9.310122
v -2.301873 5.502326 9.310122
v 2.559650 4.502326 10.310122
v 2.559650 5.502326 10.310122
v 2.559650 4.502326 9.310122
v 2.559650 5.502326 9.310122
v -2.315127 5.002326 11.312553
v -2.315127 6.002326 11.312553
v -2.315127 5.002326 10.312553
v -2.315127 6.002326 10.312553
v 2.546396 5.002326 11.312553
v 2.546396 6.002326 11.312553
v 2.546396 5.002326 10.312553
v 2.546396 6.002326 10.312553
v -2.316615 5.502326 12.314849
v -2.316615 6.502326 12.314849
v -2.316615 5.502326 11.314849
v -2.316615 6.502326 11.314849
v 2.544907 5.502326 12.314849
v 2.544907 6.502326 12.314849
v 2.544907 5.502326 11.314849
v 2.544907 6.502326 11.314849
v -2.301353 6.002326 13.305832
v -2.301353 7.002326 13.305832
v -2.301353 6.002326 12.305832
v -2.301353 7.002326 12.305832
v 2.560170 6.002326 13.305832
v 2.560170 7.002326 13.305832
v 2.560170 6.002326 12.305832
v 2.560170 7.002326 12.305832
v -2.309373 6.502326 14.304699
v -2.309373 7.502326 14.304699
v -2.309373 6.502326 13.304699
v -2.309373 7.502326 13.304699
v 2.552150 6.502326 14.304699
v 2.552150 7.502326 14.304699
v 2.552150 6.502326 13.304699
v 2.552150 7.502326 13.304699
v -2.322406 7.002326 17.082277
v -2.322406 8.002326 17.082277
v -2.322406 7.002326 15.307314
v -2.322406 8.002326 15.307314
v 2.539117 7.002326 17.082277
v 2.539117 8.002326 17.082277
v 2.539117 7.002326 15.307314
v 2.539117 8.002326 15.307314
v 1.836994 0.524274 0.399687
v 1.836994 0.495096 0.399687
v 1.836994 0.524274 -0.688766
v 1.836994 0.495096 -0.688766
v -1.742562 0.495096 -0.688766
v -1.742562 0.524274 -0.688766
v -1.742561 0.495096 0.399687
v -1.742561 0.524274 0.399687
v 1.836994 0.507765 -0.685906
v 1.836994 0.507765 -0.656728
v 1.836994 0.009347 -0.685906
v 1.836994 0.009347 -0.656728
v -1.742562 0.009347 -0.656729
v -1.742562 0.009347 -0.685906
v -1.742561 0.507765 -0.656729
v -1.742561 0.507765 -0.685906
v 1.836994 1.000834 0.314231
v 1.836994 1.000834 0.343409
v 1.836994 0.502417 0.314231
v 1.836994 0.502417 0.343409
v -1.742562 0.502417 0.343408
v -1.742562 0.502417 0.314231
v -1.742561 1.000834 0.343408
v -1.742561 1.000834 0.314231
v 1.836994 1.027806 1.404535
v 1.836994 0.998629 1.404535
v 1.836994 1.027806 0.316083
v 1.836994 0.998629 0.316083
v -1.742562 0.998629 0.316082
v -1.742562 1.027806 0.316082
v -1.742561 0.998629 1.404535
v -1.742561 1.027806 1.404535
v 1.836994 1.520326 2.381415
v 1.836994 1.491149 2.381415
v 1.836994 1.520326 1.292963
v 1.836994 1.491149 1.292963
v -1.742562 1.491149 1.292962
v -1.742562 1.520326 1.292962
v -1.742562 1.491149 2.381415
v -1.742562 1.520326 2.381415
v 1.836994 1.503817 1.295822
v 1.836994 1.503817 1.325000
v 1.836994 1.005400 1.295822
v 1.836994 1.005400 1.325000
v -1.742562 1.005400 1.324999
v -1.742562 1.005400 1.295822
v -1.742561 1.503817 1.324999
v -1.742561 1.503817 1.295822
v 1.836994 1.996887 2.295959
v 1.836994 1.996887 2.325137
v 1.836994 1.498470 2.295959
v 1.836994 1.498470 2.325137
v -1.742562 1.498470 2.325136
v -1.742562 1.498470 2.295959
v -1.742562 1.996887 2.325136
v -1.742562 1.996887 2.295959
v 1.836994 2.023859 3.386264
v 1.836994 1.994682 3.386264
v 1.836994 2.023859 2.297811
v 1.836994 1.994682 2.297811
v -1.742562 1.994682 2.297811
v -1.742562 2.023859 2.297811
v -1.742562 1.994682 3.386263
v -1.742562 2.023859 3.386263
v 1.836994 2.522332 4.389048
v 1.836994 2.493154 4.389048
v 1.836994 2.522332 3.300595
v 1.836994 2.493154 3.300595
v -1.742562 2.493154 3.300595
v -1.742562 2.522332 3.300595
v -1.742562 2.493154 4.389047
v -1.742562 2.522332 4.389047
v 1.836994 2.505822 3.303455
v 1.836994 2.505822 3.332632
v 1.836993 2.007405 3.303455
v 1.836993 2.007405 3.332632
v -1.742562 2.007405 3.332632
v -1.742562 2.007405 3.303454
v -1.742562 2.505822 3.332632
v -1.742562 2.505822 3.303454
v 1.836994 2.998892 4.303592
v 1.836994 2.998892 4.332769
v 1.836993 2.500475 4.303592
v 1.836993 2.500475 4.332769
v -1.742562 2.500475 4.332769
v -1.742562 2.500475 4.303592
v -1.742562 2.998892 4.332769
v -1.742562 2.998892 4.303592
v 1.836994 3.025865 5.393896
v 1.836994 2.996687 5.393896
v 1.836993 3.025865 4.305443
v 1.836993 2.996687 4.305443
v -1.742562 2.996687 4.305443
v -1.742562 3.025865 4.305443
v -1.742562 2.996687 5.393896
v -1.742562 3.025865 5.393896
v 1.836994 3.537509 6.392078
v 1.836994 3.508332 6.392078
v 1.836993 3.537509 5.303626
v 1.836993 3.508332 5.303626
v -1.742562 3.508332 5.303625
v -1.742562 3.537509 5.303625
v -1.742562 3.508332 6.392078
v -1.742562 3.537509 6.392078
v 1.836994 3.521000 5.306485
v 1.836994 3.521000 5.335663
v 1.836993 3.022583 5.306485
v 1.836993 3.022583 5.335663
v -1.742562 3.022583 5.335662
v -1.742562 3.022583 5.306485
v -1.742562 3.521000 5.335662
v -1.742562 3.521000 5.306485
v 1.836993 4.014069 6.306623
v 1.836993 4.014069 6.335800
v 1.836993 3.515652 6.306623
v 1.836993 3.515652 6.335800
v -1.742562 3.515652 6.335800
v -1.742562 3.515652 6.306622
v -1.742562 4.014069 6.335799
v -1.742562 4.014069 6.306622
v 1.836994 4.041041 7.396926
v 1.836994 4.011864 7.396926
v 1.836993 4.041041 6.308474
v 1.836993 4.011864 6.308474
v -1.742562 4.011864 6.308474
v -1.742562 4.041041 6.308474
v -1.742562 4.011864 7.396926
v -1.742562 4.041041 7.396926
v 1.836993 4.533561 8.373805
v 1.836993 4.504384 8.373805
v 1.836993 4.533561 7.285354
v 1.836993 4.504384 7.285354
v -1.742563 4.504384 7.285353
v -1.742563 4.533561 7.285353
v -1.742562 4.504384 8.373805
v -1.742562 4.533561 8.373805
v 1.836993 4.517052 7.288213
v 1.836993 4.517052 7.317390
v 1.836993 4.018635 7.288213
v 1.836993 4.018635 7.317391
v -1.742562 4.018635 7.317390
v -1.742562 4.018635 7.288213
v -1.742562 4.517052 7.317390
v -1.742562 4.517052 7.288213
v 1.836993 5.010122 8.288349
v 1.836993 5.010122 8.317527
v 1.836993 4.511704 8.288349
v 1.836993 4.511704 8.317527
v -1.742563 4.511704 8.317527
v -1.742563 4.511704 8.288349
v -1.742562 5.010122 8.317527
v -1.742562 5.010122 8.288349
v 1.836993 5.037094 9.378654
v 1.836993 5.007916 9.378654
v 1.836993 5.037094 8.290201
v 1.836993 5.007916 8.290201
v -1.742563 5.007916 8.290201
v -1.742563 5.037094 8.290201
v -1.742562 5.007916 9.378654
v -1.742562 5.037094 9.378654
v 1.836993 5.535566 10.381437
v 1.836993 5.506389 10.381437
v 1.836993 5.535566 9.292985
v 1.836993 5.506389 9.292985
v -1.742563 5.506389 9.292985
v -1.742563 5.535566 9.292985
v -1.742562 5.506389 10.381437
v -1.742562 5.535566 10.381437
v 1.836993 5.519057 9.295845
v 1.836993 5.519057 9.325022
v 1.836993 5.020640 9.295845
v 1.836993 5.020640 9.325022
v -1.742563 5.020640 9.325022
v -1.742563 5.020640 9.295845
v -1.742562 5.519057 9.325022
v -1.742562 5.519057 9.295845
v 1.836993 6.012127 10.295982
v 1.836993 6.012127 10.325159
v 1.836993 5.513710 10.295982
v 1.836993 5.513710 10.325159
v -1.742563 5.513710 10.325159
v -1.742563 5.513710 10.295982
v -1.742562 6.012127 10.325159
v -1.742562 6.012127 10.295982
v 1.836993 6.039100 11.386286
v 1.836993 6.009922 11.386286
v 1.836993 6.039100 10.297833
v 1.836993 6.009922 10.297833
v -1.742563 6.009922 10.297832
v -1.742563 6.039100 10.297832
v -1.742563 6.009922 11.386286
v -1.742563 6.039100 11.386286
v 1.836993 6.500955 11.285632
v 1.836993 6.500955 11.314810
v 1.836993 6.002537 11.285632
v 1.836993 6.002537 11.314810
v -1.742563 6.002537 11.314810
v -1.742563 6.002537 11.285632
v -1.742562 6.500955 11.314810
v -1.742562 6.500955 11.285632
v 1.836993 6.527927 12.375937
v 1.836993 6.498749 12.375937
v 1.836993 6.527927 11.287484
v 1.836993 6.498749 11.287484
v -1.742563 6.498749 11.287484
v -1.742563 6.527927 11.287484
v -1.742563 6.498749 12.375937
v -1.742563 6.527927 12.375937
v 1.836993 7.026399 13.378720
v 1.836993 6.997222 13.378720
v 1.836993 7.026399 12.290268
v 1.836993 6.997222 12.290268
v -1.742563 6.997222 12.290268
v -1.742563 7.026399 12.290268
v -1.742563 6.997222 13.378720
v -1.742563 7.026399 13.378720
v 1.836993 7.009890 12.293128
v 1.836993 7.009890 12.322305
v 1.836993 6.511473 12.293128
v 1.836993 6.511473 12.322305
v -1.742563 6.511473 12.322305
v -1.742563 6.511473 12.293128
v -1.742563 7.009890 12.322305
v -1.742563 7.009890 12.293128
v 1.836993 7.502960 13.293265
v 1.836993 7.502960 13.322442
v 1.836993 7.004543 13.293265
v 1.836993 7.004543 13.322442
v -1.742563 7.004543 13.322442
v -1.742563 7.004543 13.293265
v -1.742563 7.502960 13.322442
v -1.742563 7.502960 13.293265
v 1.836993 7.529932 14.383569
v 1.836993 7.500755 14.383569
v 1.836993 7.529932 13.295116
v 1.836993 7.500755 13.295116
v -1.742563 7.500755 13.295115
v -1.742563 7.529932 13.295115
v -1.742563 7.500755 14.383569
v -1.742563 7.529932 14.383569
v 1.836993 8.010351 14.282152
v 1.836993 8.010351 14.311329
v 1.836992 7.511934 14.282152
v 1.836992 7.511934 14.311329
v -1.742563 7.511934 14.311329
v -1.742563 7.511934 14.282152
v -1.742563 8.010351 14.311329
v -1.742563 8.010351 14.282152
v -2.309373 6.992235 15.303875
v -2.309373 7.992235 15.303875
v -2.309373 6.992235 14.303875
v -2.309373 7.992235 14.303875
v 2.552150 6.992235 15.303875
v 2.552150 7.992235 15.303875
v 2.552150 6.992235 14.303875
v 2.552150 7.992235 14.303875
v 1.836993 8.011158 15.386951
v 1.836993 7.981980 15.386951
v 1.836993 8.011158 14.298499
v 1.836993 7.981980 14.298499
v -1.742563 7.981980 14.298498
v -1.742563 8.011158 14.298498
v -1.742563 7.981980 15.386951
v -1.742563 8.011158 15.386951
vn -1.0000 -0.0000 -0.0000
vn -0.0000 -0.0000 -1.0000
vn 1.0000 -0.0000 -0.0000
vn -0.0000 -0.0000 1.0000
vn -0.0000 -1.0000 -0.0000
vn -0.0000 1.0000 -0.0000
vt 0.546670 0.006993
vt 0.558799 0.006993
vt 0.558799 0.019122
vt 0.546670 0.019122
vt 0.558799 0.031250
vt 0.546670 0.031250
vt 0.558799 0.043379
vt 0.546670 0.043379
vt 0.558799 0.055507
vt 0.546670 0.055507
vt 0.534542 0.031250
vt 0.534542 0.043379
vt 0.570927 0.031250
vt 0.570927 0.043379
vt 0.892291 0.014222
vt 0.895331 0.014222
vt 0.895331 0.017261
vt 0.892291 0.017261
vt 0.895331 0.020301
vt 0.892291 0.020301
vt 0.895331 0.023341
vt 0.892291 0.023341
vt 0.895331 0.026381
vt 0.892291 0.026381
vt 0.889251 0.020301
vt 0.889251 0.023341
vt 0.898371 0.020301
vt 0.898371 0.023341
vt 0.901440 0.014222
vt 0.904480 0.014222
vt 0.904480 0.017261
vt 0.901440 0.017261
vt 0.904480 0.020301
vt 0.901440 0.020301
vt 0.904480 0.023341
vt 0.901440 0.023341
vt 0.904480 0.026381
vt 0.901440 0.026381
vt 0.898400 0.020301
vt 0.898400 0.023341
vt 0.907520 0.020301
vt 0.907520 0.023341
vt 0.892291 0.026410
vt 0.895331 0.026410
vt 0.895331 0.029450
vt 0.892291 0.029450
vt 0.895331 0.032490
vt 0.892291 0.032490
vt 0.895331 0.035530
vt 0.892291 0.035530
vt 0.895331 0.038570
vt 0.892291 0.038570
vt 0.889251 0.032490
vt 0.889251 0.035530
vt 0.898371 0.032490
vt 0.898371 0.035530
vt 0.901440 0.026410
vt 0.904480 0.026410
vt 0.904480 0.029450
vt 0.901440 0.029450
vt 0.904480 0.032490
vt 0.901440 0.032490
vt 0.904480 0.035530
vt 0.901440 0.035530
vt 0.904480 0.038570
vt 0.901440 0.038570
vt 0.898400 0.032490
vt 0.898400 0.035530
vt 0.907520 0.032490
vt 0.907520 0.035530
vt 0.910589 0.014222
vt 0.913629 0.014222
vt 0.913629 0.017261
vt 0.910589 0.017261
vt 0.913629 0.020301
vt 0.910589 0.020301
vt 0.913629 0.023341
vt 0.910589 0.023341
vt 0.913629 0.026381
vt 0.910589 0.026381
vt 0.907550 0.020301
vt 0.907550 0.023341
vt 0.916669 0.020301
vt 0.916669 0.023341
vt 0.910589 0.026410
vt 0.913629 0.026410
vt 0.913629 0.029450
vt 0.910589 0.029450
vt 0.913629 0.032490
vt 0.910589 0.032490
vt 0.913629 0.035530
vt 0.910589 0.035530
vt 0.913629 0.038570
vt 0.910589 0.038570
vt 0.907550 0.032490
vt 0.907550 0.035530
vt 0.916669 0.032490
vt 0.916669 0.035530
vt 0.892291 0.038599
vt 0.895331 0.038599
vt 0.895331 0.041639
vt 0.892291 0.041639
vt 0.895331 0.044679
vt 0.892291 0.044679
vt 0.895331 0.047719
vt 0.892291 0.047719
vt 0.895331 0.050759
vt 0.892291 0.050759
vt 0.889251 0.044679
vt 0.889251 0.047719
vt 0.898371 0.044679
vt 0.898371 0.047719
vt 0.901440 0.038599
vt 0.904480 0.038599
vt 0.904480 0.041639
vt 0.901440 0.041639
vt 0.904480 0.044679
vt 0.901440 0.044679
vt 0.904480 0.047719
vt 0.901440 0.047719
vt 0.904480 0.050759
vt 0.901440 0.050759
vt 0.898400 0.044679
vt 0.898400 0.047719
vt 0.907520 0.044679
vt 0.907520 0.047719
vt 0.910589 0.038599
vt 0.913629 0.038599
vt 0.913629 0.041639
vt 0.910589 0.041639
vt 0.913629 0.044679
vt 0.910589 0.044679
vt 0.913629 0.047719
vt 0.910589 0.047719
vt 0.913629 0.050759
vt 0.910589 0.050759
vt 0.907550 0.044679
vt 0.907550 0.047719
vt 0.916669 0.044679
vt 0.916669 0.047719
vt 0.919738 0.014222
vt 0.922778 0.014222
vt 0.922778 0.017261
vt 0.919738 0.017261
vt 0.922778 0.020301
vt 0.919738 0.020301
vt 0.922778 0.023341
vt 0.919738 0.023341
vt 0.922778 0.026381
vt 0.919738 0.026381
vt 0.916699 0.020301
vt 0.916699 0.023341
vt 0.925818 0.020301
vt 0.925818 0.023341
vt 0.919738 0.026410
vt 0.922778 0.026410
vt 0.922778 0.029450
vt 0.919738 0.029450
vt 0.922778 0.032490
vt 0.919738 0.032490
vt 0.922778 0.035530
vt 0.919738 0.035530
vt 0.922778 0.038570
vt 0.919738 0.038570
vt 0.916699 0.032490
vt 0.916699 0.035530
vt 0.925818 0.032490
vt 0.925818 0.035530
vt 0.919738 0.038599
vt 0.922778 0.038599
vt 0.922778 0.041639
vt 0.919738 0.041639
vt 0.922778 0.044679
vt 0.919738 0.044679
vt 0.922778 0.047719
vt 0.919738 0.047719
vt 0.922778 0.050759
vt 0.919738 0.050759
vt 0.916699 0.044679
vt 0.916699 0.047719
vt 0.925818 0.044679
vt 0.925818 0.047719
vt 0.928887 0.014222
vt 0.931927 0.014222
vt 0.931927 0.017261
vt 0.928887 0.017261
vt 0.931927 0.020301
vt 0.928887 0.020301
vt 0.931927 0.023341
vt 0.928887 0.023341
vt 0.931927 0.026381
vt 0.928887 0.026381
vt 0.925848 0.020301
vt 0.925848 0.023341
vt 0.934967 0.020301
vt 0.934967 0.023341
vt 0.928887 0.026410
vt 0.931927 0.026410
vt 0.931927 0.029450
vt 0.928887 0.029450
vt 0.931927 0.032490
vt 0.928887 0.032490
vt 0.931927 0.035530
vt 0.928887 0.035530
vt 0.931927 0.038570
vt 0.928887 0.038570
vt 0.925848 0.032490
vt 0.925848 0.035530
vt 0.934967 0.032490
vt 0.934967 0.035530
vt 0.457961 0.043379
vt 0.457961 0.033827
vt 0.474916 0.033827
vt 0.474916 0.043379
vt 0.594343 0.020321
vt 0.601591 0.012514
vt 0.601591 0.050730
vt 0.595501 0.040938
vt 0.394569 0.043379
vt 0.394569 0.033827
vt 0.411524 0.033827
vt 0.411524 0.043379
vt 0.586576 0.042179
vt 0.585418 0.021562
vt 0.514379 0.104940
vt 0.514379 0.659265
vt 0.311993 0.659265
vt 0.311993 0.104940
vt 0.984047 0.488552
vt 0.984047 0.732625
vt 0.739972 0.732625
vt 0.739972 0.488552
vt 0.495897 0.732625
vt 0.495897 0.488552
vt 0.251823 0.732625
vt 0.251823 0.488552
vt 0.007748 0.732625
vt 0.007748 0.488552
vt 0.495897 0.244477
vt 0.251823 0.244477
vt 0.495897 0.976700
vt 0.251823 0.976700
vt 0.116857 0.730022
vt 0.116857 0.519017
vt 0.327862 0.519017
vt 0.327862 0.730022
vt 0.538867 0.519017
vt 0.538867 0.730022
vt 0.749871 0.519017
vt 0.749871 0.730022
vt 0.960876 0.519017
vt 0.960876 0.730022
vt 0.538867 0.941027
vt 0.749871 0.941027
vt 0.538867 0.308012
vt 0.749871 0.308012
vt 0.633047 0.655921
vt 0.633047 0.812385
vt 0.476581 0.812385
vt 0.476581 0.655921
vt 0.320116 0.812385
vt 0.320116 0.655921
vt 0.163651 0.812385
vt 0.163651 0.655921
vt 0.007186 0.812385
vt 0.007186 0.655921
vt 0.320116 0.499456
vt 0.163651 0.499456
vt 0.320116 0.968851
vt 0.163651 0.968851
vt 0.045107 0.478458
vt 0.045107 0.298961
vt 0.224604 0.298961
vt 0.224604 0.478458
vt 0.404101 0.298961
vt 0.404101 0.478458
vt 0.583598 0.298961
vt 0.583598 0.478458
vt 0.763095 0.298961
vt 0.763095 0.478458
vt 0.404101 0.657955
vt 0.583598 0.657955
vt 0.404101 0.119464
vt 0.583598 0.119464
vt 0.037176 0.450914
vt 0.037176 0.280148
vt 0.207944 0.280148
vt 0.207944 0.450914
vt 0.378710 0.280148
vt 0.378710 0.450914
vt 0.549477 0.280148
vt 0.549477 0.450914
vt 0.720244 0.280148
vt 0.720244 0.450914
vt 0.378710 0.621681
vt 0.549477 0.621681
vt 0.378710 0.109381
vt 0.549477 0.109381
vt 0.237480 0.778050
vt 0.237480 0.601966
vt 0.413564 0.601966
vt 0.413564 0.778050
vt 0.589647 0.601966
vt 0.589647 0.778050
vt 0.765731 0.601966
vt 0.765731 0.778050
vt 0.941815 0.601966
vt 0.941815 0.778050
vt 0.589647 0.954134
vt 0.765731 0.954134
vt 0.589647 0.425883
vt 0.765731 0.425883
vt 0.384718 0.806219
vt 0.384718 0.661052
vt 0.529886 0.661052
vt 0.529886 0.806219
vt 0.675053 0.661052
vt 0.675053 0.806219
vt 0.820220 0.661052
vt 0.820220 0.806219
vt 0.965388 0.661052
vt 0.965388 0.806219
vt 0.675053 0.951386
vt 0.820220 0.951386
vt 0.675053 0.515885
vt 0.820220 0.515885
vt 0.174626 0.483025
vt 0.174626 0.281639
vt 0.376012 0.281639
vt 0.376012 0.483025
vt 0.577397 0.281639
vt 0.577397 0.483025
vt 0.778781 0.281639
vt 0.778781 0.483025
vt 0.980167 0.281639
vt 0.980167 0.483025
vt 0.577397 0.684410
vt 0.778781 0.684410
vt 0.577397 0.080254
vt 0.778781 0.080254
vt 0.587706 0.681283
vt 0.587706 0.822180
vt 0.446810 0.822180
vt 0.446810 0.681283
vt 0.305912 0.822181
vt 0.305912 0.681283
vt 0.165016 0.822181
vt 0.165016 0.681283
vt 0.024118 0.822181
vt 0.024118 0.681283
vt 0.305912 0.540386
vt 0.165016 0.540386
vt 0.305912 0.963077
vt 0.165016 0.963077
vt 0.239177 0.466428
vt 0.239177 0.283646
vt 0.421959 0.283646
vt 0.421959 0.466428
vt 0.604741 0.283646
vt 0.604741 0.466428
vt 0.787521 0.283646
vt 0.787521 0.466428
vt 0.970303 0.283646
vt 0.970303 0.466428
vt 0.604741 0.649210
vt 0.787521 0.649210
vt 0.604741 0.100865
vt 0.787521 0.100865
vt 0.508697 0.840714
vt 0.508697 0.722380
vt 0.627032 0.722380
vt 0.627032 0.840714
vt 0.745365 0.722380
vt 0.745365 0.840714
vt 0.863699 0.722380
vt 0.863699 0.840714
vt 0.982033 0.722380
vt 0.982033 0.840714
vt 0.745365 0.959047
vt 0.863699 0.959047
vt 0.745365 0.604046
vt 0.863699 0.604046
vt 0.386095 0.408244
vt 0.386095 0.256928
vt 0.537410 0.256928
vt 0.537410 0.408244
vt 0.688724 0.256928
vt 0.688724 0.408244
vt 0.840040 0.256928
vt 0.840040 0.408244
vt 0.991355 0.256928
vt 0.991355 0.408244
vt 0.688724 0.559559
vt 0.840040 0.559559
vt 0.688724 0.105614
vt 0.840040 0.105614
vt 0.336376 0.419246
vt 0.336376 0.258963
vt 0.496659 0.258963
vt 0.496659 0.419246
vt 0.656943 0.258963
vt 0.656943 0.419246
vt 0.817227 0.258963
vt 0.817227 0.419246
vt 0.977510 0.258963
vt 0.977510 0.419246
vt 0.656943 0.579529
vt 0.817227 0.579529
vt 0.656943 0.098679
vt 0.817227 0.098679
vt 0.336512 0.423866
vt 0.336512 0.262673
vt 0.497703 0.262673
vt 0.497703 0.423866
vt 0.658896 0.262673
vt 0.658896 0.423866
vt 0.820088 0.262673
vt 0.820088 0.423866
vt 0.981280 0.262673
vt 0.981280 0.423866
vt 0.658896 0.585058
vt 0.820088 0.585058
vt 0.658896 0.101481
vt 0.820088 0.101481
vt 0.377483 0.396303
vt 0.377483 0.247785
vt 0.526002 0.247785
vt 0.526002 0.396303
vt 0.674521 0.247785
vt 0.674521 0.396303
vt 0.823040 0.247785
vt 0.823040 0.396303
vt 0.971558 0.247785
vt 0.971558 0.396303
vt 0.674521 0.544822
vt 0.823040 0.544822
vt 0.674521 0.099266
vt 0.823040 0.099266
vt 0.654193 0.244377
vt 0.654193 0.396323
vt 0.502248 0.396323
vt 0.502248 0.244377
vt 0.350302 0.396323
vt 0.350302 0.244377
vt 0.198356 0.396323
vt 0.198356 0.244377
vt 0.046411 0.396323
vt 0.046411 0.244377
vt 0.350302 0.092432
vt 0.198356 0.092432
vt 0.350302 0.548268
vt 0.198356 0.548268
vt 0.710923 0.624007
vt 0.710923 0.794552
vt 0.540379 0.794552
vt 0.540379 0.624007
vt 0.369833 0.794552
vt 0.369833 0.624007
vt 0.199288 0.794552
vt 0.199288 0.624007
vt 0.028743 0.794552
vt 0.028743 0.624007
vt 0.369833 0.453463
vt 0.199288 0.453463
vt 0.369833 0.965098
vt 0.199288 0.965098
vt 0.438918 0.378792
vt 0.438918 0.243412
vt 0.574297 0.243412
vt 0.574297 0.378792
vt 0.709677 0.243412
vt 0.709677 0.378792
vt 0.845057 0.243412
vt 0.845057 0.378792
vt 0.980436 0.243412
vt 0.980436 0.378792
vt 0.709677 0.514171
vt 0.845057 0.514171
vt 0.709677 0.108033
vt 0.845057 0.108033
vt 0.293437 0.792152
vt 0.293437 0.616526
vt 0.469064 0.616526
vt 0.469064 0.792152
vt 0.644691 0.616526
vt 0.644691 0.792152
vt 0.820319 0.616526
vt 0.820319 0.792152
vt 0.995946 0.616526
vt 0.995946 0.792152
vt 0.644691 0.967779
vt 0.820319 0.967779
vt 0.644691 0.440898
vt 0.820319 0.440898
vt 0.022824 0.433307
vt 0.022824 0.272764
vt 0.183367 0.272764
vt 0.183367 0.433307
vt 0.343910 0.272764
vt 0.343910 0.433307
vt 0.504453 0.272764
vt 0.504453 0.433307
vt 0.664996 0.272764
vt 0.664996 0.433307
vt 0.343910 0.593849
vt 0.504453 0.593849
vt 0.343910 0.112221
vt 0.504453 0.112221
vt 0.766263 0.270656
vt 0.766263 0.451557
vt 0.585361 0.451557
vt 0.585361 0.270656
vt 0.404458 0.451557
vt 0.404458 0.270656
vt 0.223555 0.451557
vt 0.223555 0.270656
vt 0.042652 0.451557
vt 0.042652 0.270656
vt 0.404458 0.089753
vt 0.223555 0.089753
vt 0.404458 0.632460
vt 0.223555 0.632460
vt 0.226778 0.457055
vt 0.226778 0.277395
vt 0.406437 0.277395
vt 0.406437 0.457055
vt 0.586098 0.277395
vt 0.586098 0.457055
vt 0.765758 0.277395
vt 0.765758 0.457055
vt 0.945418 0.277395
vt 0.945418 0.457055
vt 0.586098 0.636715
vt 0.765758 0.636715
vt 0.586098 0.097735
vt 0.765758 0.097735
vt 0.050623 0.501353
vt 0.050623 0.331272
vt 0.220704 0.331272
vt 0.220704 0.501353
vt 0.390785 0.331272
vt 0.390785 0.501352
vt 0.560867 0.331272
vt 0.560867 0.501352
vt 0.730948 0.331272
vt 0.730948 0.501352
vt 0.390785 0.671433
vt 0.560867 0.671433
vt 0.390785 0.161191
vt 0.560867 0.161191
vt 0.248622 0.787072
vt 0.248622 0.604662
vt 0.431031 0.604662
vt 0.431031 0.787072
vt 0.613441 0.604662
vt 0.613441 0.787072
vt 0.795851 0.604662
vt 0.795851 0.787072
vt 0.978261 0.604662
vt 0.978261 0.787072
vt 0.613441 0.969482
vt 0.795851 0.969482
vt 0.613441 0.422253
vt 0.795851 0.422253
vt 0.636618 0.117858
vt 0.803354 0.117858
vt 0.803354 0.284595
vt 0.636618 0.284595
vt 0.803354 0.451331
vt 0.636618 0.451331
vt 0.803354 0.618067
vt 0.636618 0.618067
vt 0.803354 0.784802
vt 0.636618 0.784802
vt 0.469881 0.451331
vt 0.469881 0.618067
vt 0.970089 0.451331
vt 0.970089 0.618067
vt 0.576088 0.091504
vt 0.751119 0.091504
vt 0.751119 0.266535
vt 0.576088 0.266535
vt 0.751119 0.441566
vt 0.576088 0.441566
vt 0.751119 0.616596
vt 0.576088 0.616596
vt 0.751119 0.791625
vt 0.576088 0.791625
vt 0.401058 0.441566
vt 0.401058 0.616596
vt 0.926149 0.441566
vt 0.926149 0.616596
vt 0.632659 0.094094
vt 0.808348 0.094094
vt 0.808348 0.269783
vt 0.632659 0.269783
vt 0.808348 0.445472
vt 0.632659 0.445472
vt 0.808348 0.621160
vt 0.632659 0.621160
vt 0.808348 0.796848
vt 0.632659 0.796848
vt 0.456970 0.445472
vt 0.456970 0.621160
vt 0.984036 0.445472
vt 0.984036 0.621160
vt 0.633015 0.092529
vt 0.808510 0.092529
vt 0.808510 0.268024
vt 0.633015 0.268024
vt 0.808510 0.443519
vt 0.633015 0.443519
vt 0.808510 0.619013
vt 0.633015 0.619013
vt 0.808510 0.794506
vt 0.633015 0.794506
vt 0.457520 0.443519
vt 0.457520 0.619013
vt 0.984004 0.443519
vt 0.984004 0.619013
vt 0.640895 0.282242
vt 0.812275 0.282242
vt 0.812275 0.453622
vt 0.640895 0.453622
vt 0.812275 0.625001
vt 0.640895 0.625001
vt 0.812275 0.796380
vt 0.640895 0.796380
vt 0.812275 0.967758
vt 0.640895 0.967758
vt 0.469516 0.625001
vt 0.469516 0.796380
vt 0.983654 0.625001
vt 0.983654 0.796380
vt 0.233352 0.175403
vt 0.431863 0.175403
vt 0.431863 0.373914
vt 0.233352 0.373914
vt 0.431863 0.572425
vt 0.233352 0.572425
vt 0.431863 0.770936
vt 0.233352 0.770936
vt 0.431863 0.969445
vt 0.233352 0.969445
vt 0.034842 0.572425
vt 0.034842 0.770936
vt 0.630374 0.572425
vt 0.630374 0.770936
vt 0.187110 0.283512
vt 0.363714 0.283512
vt 0.363714 0.460116
vt 0.187110 0.460116
vt 0.363714 0.636720
vt 0.187110 0.636720
vt 0.363714 0.813323
vt 0.187110 0.813323
vt 0.363714 0.989926
vt 0.187110 0.989926
vt 0.010507 0.636720
vt 0.010507 0.813323
vt 0.540317 0.636720
vt 0.540317 0.813323
s 0
f 1/1/1 2/2/1 4/3/1 3/4/1
f 3/4/2 4/3/2 8/5/2 7/6/2
f 7/6/3 8/5/3 6/7/3 5/8/3
f 5/8/4 6/7/4 2/9/4 1/10/4
f 3/11/5 7/6/5 5/8/5 1/12/5
f 8/5/6 4/13/6 2/14/6 6/7/6
f 9/15/1 10/16/1 12/17/1 11/18/1
f 11/18/2 12/17/2 16/19/2 15/20/2
f 15/20/3 16/19/3 14/21/3 13/22/3
f 13/22/4 14/21/4 10/23/4 9/24/4
f 11/25/5 15/20/5 13/22/5 9/26/5
f 16/19/6 12/27/6 10/28/6 14/21/6
f 17/29/1 18/30/1 20/31/1 19/32/1
f 19/32/2 20/31/2 24/33/2 23/34/2
f 23/34/3 24/33/3 22/35/3 21/36/3
f 21/36/4 22/35/4 18/37/4 17/38/4
f 19/39/5 23/34/5 21/36/5 17/40/5
f 24/33/6 20/41/6 18/42/6 22/35/6
f 25/43/1 26/44/1 28/45/1 27/46/1
f 27/46/2 28/45/2 32/47/2 31/48/2
f 31/48/3 32/47/3 30/49/3 29/50/3
f 29/50/4 30/49/4 26/51/4 25/52/4
f 27/53/5 31/48/5 29/50/5 25/54/5
f 32/47/6 28/55/6 26/56/6 30/49/6
f 33/57/1 34/58/1 36/59/1 35/60/1
f 35/60/2 36/59/2 40/61/2 39/62/2
f 39/62/3 40/61/3 38/63/3 37/64/3
f 37/64/4 38/63/4 34/65/4 33/66/4
f 35/67/5 39/62/5 37/64/5 33/68/5
f 40/61/6 36/69/6 34/70/6 38/63/6
f 41/71/1 42/72/1 44/73/1 43/74/1
f 43/74/2 44/73/2 48/75/2 47/76/2
f 47/76/3 48/75/3 46/77/3 45/78/3
f 45/78/4 46/77/4 42/79/4 41/80/4
f 43/81/5 47/76/5 45/78/5 41/82/5
f 48/75/6 44/83/6 42/84/6 46/77/6
f 49/85/1 50/86/1 52/87/1 51/88/1
f 51/88/2 52/87/2 56/89/2 55/90/2
f 55/90/3 56/89/3 54/91/3 53/92/3
f 53/92/4 54/91/4 50/93/4 49/94/4
f 51/95/5 55/90/5 53/92/5 49/96/5
f 56/89/6 52/97/6 50/98/6 54/91/6
f 57/99/1 58/100/1 60/101/1 59/102/1
f 59/102/2 60/101/2 64/103/2 63/104/2
f 63/104/3 64/103/3 62/105/3 61/106/3
f 61/106/4 62/105/4 58/107/4 57/108/4
f 59/109/5 63/104/5 61/106/5 57/110/5
f 64/103/6 60/111/6 58/112/6 62/105/6
f 65/113/1 66/114/1 68/115/1 67/116/1
f 67/116/2 68/115/2 72/117/2 71/118/2
f 71/118/3 72/117/3 70/119/3 69/120/3
f 69/120/4 70/119/4 66/121/4 65/122/4
f 67/123/5 71/118/5 69/120/5 65/124/5
f 72/117/6 68/125/6 66/126/6 70/119/6
f 73/127/1 74/128/1 76/129/1 75/130/1
f 75/130/2 76/129/2 80/131/2 79/132/2
f 79/132/3 80/131/3 78/133/3 77/134/3
f 77/134/4 78/133/4 74/135/4 73/136/4
f 75/137/5 79/132/5 77/134/5 73/138/5
f 80/131/6 76/139/6 74/140/6 78/133/6
f 81/141/1 82/142/1 84/143/1 83/144/1
f 83/144/2 84/143/2 88/145/2 87/146/2
f 87/146/3 88/145/3 86/147/3 85/148/3
f 85/148/4 86/147/4 82/149/4 81/150/4
f 83/151/5 87/146/5 85/148/5 81/152/5
f 88/145/6 84/153/6 82/154/6 86/147/6
f 89/155/1 90/156/1 92/157/1 91/158/1
f 91/158/2 92/157/2 96/159/2 95/160/2
f 95/160/3 96/159/3 94/161/3 93/162/3
f 93/162/4 94/161/4 90/163/4 89/164/4
f 91/165/5 95/160/5 93/162/5 89/166/5
f 96/159/6 92/167/6 90/168/6 94/161/6
f 97/169/1 98/170/1 100/171/1 99/172/1
f 99/172/2 100/171/2 104/173/2 103/174/2
f 103/174/3 104/173/3 102/175/3 101/176/3
f 101/176/4 102/175/4 98/177/4 97/178/4
f 99/179/5 103/174/5 101/176/5 97/180/5
f 104/173/6 100/181/6 98/182/6 102/175/6
f 105/183/1 106/184/1 108/185/1 107/186/1
f 107/186/2 108/185/2 112/187/2 111/188/2
f 111/188/3 112/187/3 110/189/3 109/190/3
f 109/190/4 110/189/4 106/191/4 105/192/4
f 107/193/5 111/188/5 109/190/5 105/194/5
f 112/187/6 108/195/6 106/196/6 110/189/6
f 113/197/1 114/198/1 116/199/1 115/200/1
f 115/200/2 116/199/2 120/201/2 119/202/2
f 119/202/3 120/201/3 118/203/3 117/204/3
f 117/204/4 118/203/4 114/205/4 113/206/4
f 115/207/5 119/202/5 117/204/5 113/208/5
f 120/201/6 116/209/6 114/210/6 118/203/6
f 121/211/1 122/212/1 124/213/1 123/214/1
f 123/215/2 124/216/2 128/217/2 127/218/2
f 127/219/3 128/220/3 126/221/3 125/222/3
f 125/222/4 126/221/4 122/212/4 121/211/4
f 123/215/5 127/218/5 125/223/5 121/224/5
f 128/225/6 124/226/6 122/227/6 126/228/6
f 132/229/3 131/230/3 129/231/3 130/232/3
f 130/232/4 129/231/4 136/233/4 135/234/4
f 135/234/1 136/233/1 134/235/1 133/236/1
f 133/236/2 134/235/2 131/237/2 132/238/2
f 130/239/5 135/234/5 133/236/5 132/240/5
f 136/233/6 129/241/6 131/242/6 134/235/6
f 140/243/3 139/244/3 137/245/3 138/246/3
f 138/246/6 137/245/6 144/247/6 143/248/6
f 143/248/1 144/247/1 142/249/1 141/250/1
f 141/250/5 142/249/5 139/251/5 140/252/5
f 138/253/4 143/248/4 141/250/4 140/254/4
f 144/247/2 137/255/2 139/256/2 142/249/2
f 148/257/3 147/258/3 145/259/3 146/260/3
f 146/260/6 145/259/6 152/261/6 151/262/6
f 151/262/1 152/261/1 150/263/1 149/264/1
f 149/264/5 150/263/5 147/265/5 148/266/5
f 146/267/4 151/262/4 149/264/4 148/268/4
f 152/261/2 145/269/2 147/270/2 150/263/2
f 156/271/3 155/272/3 153/273/3 154/274/3
f 154/274/4 153/273/4 160/275/4 159/276/4
f 159/276/1 160/275/1 158/277/1 157/278/1
f 157/278/2 158/277/2 155/279/2 156/280/2
f 154/281/5 159/276/5 157/278/5 156/282/5
f 160/275/6 153/283/6 155/284/6 158/277/6
f 164/285/3 163/286/3 161/287/3 162/288/3
f 162/288/4 161/287/4 168/289/4 167/290/4
f 167/290/1 168/289/1 166/291/1 165/292/1
f 165/292/2 166/291/2 163/293/2 164/294/2
f 162/295/5 167/290/5 165/292/5 164/296/5
f 168/289/6 161/297/6 163/298/6 166/291/6
f 172/299/3 171/300/3 169/301/3 170/302/3
f 170/302/6 169/301/6 176/303/6 175/304/6
f 175/304/1 176/303/1 174/305/1 173/306/1
f 173/306/5 174/305/5 171/307/5 172/308/5
f 170/309/4 175/304/4 173/306/4 172/310/4
f 176/303/2 169/311/2 171/312/2 174/305/2
f 180/313/3 179/314/3 177/315/3 178/316/3
f 178/316/6 177/315/6 184/317/6 183/318/6
f 183/318/1 184/317/1 182/319/1 181/320/1
f 181/320/5 182/319/5 179/321/5 180/322/5
f 178/323/4 183/318/4 181/320/4 180/324/4
f 184/317/2 177/325/2 179/326/2 182/319/2
f 188/327/3 187/328/3 185/329/3 186/330/3
f 186/330/4 185/329/4 192/331/4 191/332/4
f 191/332/1 192/331/1 190/333/1 189/334/1
f 189/334/2 190/333/2 187/335/2 188/336/2
f 186/337/5 191/332/5 189/334/5 188/338/5
f 192/331/6 185/339/6 187/340/6 190/333/6
f 196/341/3 195/342/3 193/343/3 194/344/3
f 194/344/4 193/343/4 200/345/4 199/346/4
f 199/346/1 200/345/1 198/347/1 197/348/1
f 197/348/2 198/347/2 195/349/2 196/350/2
f 194/351/5 199/346/5 197/348/5 196/352/5
f 200/345/6 193/353/6 195/354/6 198/347/6
f 204/355/3 203/356/3 201/357/3 202/358/3
f 202/358/6 201/357/6 208/359/6 207/360/6
f 207/360/1 208/359/1 206/361/1 205/362/1
f 205/362/5 206/361/5 203/363/5 204/364/5
f 202/365/4 207/360/4 205/362/4 204/366/4
f 208/359/2 201/367/2 203/368/2 206/361/2
f 212/369/3 211/370/3 209/371/3 210/372/3
f 210/372/6 209/371/6 216/373/6 215/374/6
f 215/374/1 216/373/1 214/375/1 213/376/1
f 213/376/5 214/375/5 211/377/5 212/378/5
f 210/379/4 215/374/4 213/376/4 212/380/4
f 216/373/2 209/381/2 211/382/2 214/375/2
f 220/383/3 219/384/3 217/385/3 218/386/3
f 218/386/4 217/385/4 224/387/4 223/388/4
f 223/388/1 224/387/1 222/389/1 221/390/1
f 221/390/2 222/389/2 219/391/2 220/392/2
f 218/393/5 223/388/5 221/390/5 220/394/5
f 224/387/6 217/395/6 219/396/6 222/389/6
f 228/397/3 227/398/3 225/399/3 226/400/3
f 226/400/4 225/399/4 232/401/4 231/402/4
f 231/402/1 232/401/1 230/403/1 229/404/1
f 229/404/2 230/403/2 227/405/2 228/406/2
f 226/407/5 231/402/5 229/404/5 228/408/5
f 232/401/6 225/409/6 227/410/6 230/403/6
f 236/411/3 235/412/3 233/413/3 234/414/3
f 234/414/6 233/413/6 240/415/6 239/416/6
f 239/416/1 240/415/1 238/417/1 237/418/1
f 237/418/5 238/417/5 235/419/5 236/420/5
f 234/421/4 239/416/4 237/418/4 236/422/4
f 240/415/2 233/423/2 235/424/2 238/417/2
f 244/425/3 243/426/3 241/427/3 242/428/3
f 242/428/6 241/427/6 248/429/6 247/430/6
f 247/430/1 248/429/1 246/431/1 245/432/1
f 245/432/5 246/431/5 243/433/5 244/434/5
f 242/435/4 247/430/4 245/432/4 244/436/4
f 248/429/2 241/437/2 243/438/2 246/431/2
f 252/439/3 251/440/3 249/441/3 250/442/3
f 250/442/4 249/441/4 256/443/4 255/444/4
f 255/444/1 256/443/1 254/445/1 253/446/1
f 253/446/2 254/445/2 251/447/2 252/448/2
f 250/449/5 255/444/5 253/446/5 252/450/5
f 256/443/6 249/451/6 251/452/6 254/445/6
f 260/453/3 259/454/3 257/455/3 258/456/3
f 258/456/4 257/455/4 264/457/4 263/458/4
f 263/458/1 264/457/1 262/459/1 261/460/1
f 261/460/2 262/459/2 259/461/2 260/462/2
f 258/463/5 263/458/5 261/460/5 260/464/5
f 264/457/6 257/465/6 259/466/6 262/459/6
f 268/467/3 267/468/3 265/469/3 266/470/3
f 266/470/6 265/469/6 272/471/6 271/472/6
f 271/472/1 272/471/1 270/473/1 269/474/1
f 269/474/5 270/473/5 267/475/5 268/476/5
f 266/477/4 271/472/4 269/474/4 268/478/4
f 272/471/2 265/479/2 267/480/2 270/473/2
f 276/481/3 275/482/3 273/483/3 274/484/3
f 274/484/6 273/483/6 280/485/6 279/486/6
f 279/486/1 280/485/1 278/487/1 277/488/1
f 277/488/5 278/487/5 275/489/5 276/490/5
f 274/491/4 279/486/4 277/488/4 276/492/4
f 280/485/2 273/493/2 275/494/2 278/487/2
f 284/495/3 283/496/3 281/497/3 282/498/3
f 282/498/4 281/497/4 288/499/4 287/500/4
f 287/500/1 288/499/1 286/501/1 285/502/1
f 285/502/2 286/501/2 283/503/2 284/504/2
f 282/505/5 287/500/5 285/502/5 284/506/5
f 288/499/6 281/507/6 283/508/6 286/501/6
f 292/509/3 291/510/3 289/511/3 290/512/3
f 290/512/4 289/511/4 296/513/4 295/514/4
f 295/514/1 296/513/1 294/515/1 293/516/1
f 293/516/2 294/515/2 291/517/2 292/518/2
f 290/519/5 295/514/5 293/516/5 292/520/5
f 296/513/6 289/521/6 291/522/6 294/515/6
f 300/523/3 299/524/3 297/525/3 298/526/3
f 298/526/6 297/525/6 304/527/6 303/528/6
f 303/528/1 304/527/1 302/529/1 301/530/1
f 301/530/5 302/529/5 299/531/5 300/532/5
f 298/533/4 303/528/4 301/530/4 300/534/4
f 304/527/2 297/535/2 299/536/2 302/529/2
f 308/537/3 307/538/3 305/539/3 306/540/3
f 306/540/6 305/539/6 312/541/6 311/542/6
f 311/542/1 312/541/1 310/543/1 309/544/1
f 309/544/5 310/543/5 307/545/5 308/546/5
f 306/547/4 311/542/4 309/544/4 308/548/4
f 312/541/2 305/549/2 307/550/2 310/543/2
f 316/551/3 315/552/3 313/553/3 314/554/3
f 314/554/4 313/553/4 320/555/4 319/556/4
f 319/556/1 320/555/1 318/557/1 317/558/1
f 317/558/2 318/557/2 315/559/2 316/560/2
f 314/561/5 319/556/5 317/558/5 316/562/5
f 320/555/6 313/563/6 315/564/6 318/557/6
f 324/565/3 323/566/3 321/567/3 322/568/3
f 322/568/6 321/567/6 328/569/6 327/570/6
f 327/570/1 328/569/1 326/571/1 325/572/1
f 325/572/5 326/571/5 323/573/5 324/574/5
f 322/575/4 327/570/4 325/572/4 324/576/4
f 328/569/2 321/577/2 323/578/2 326/571/2
f 332/579/3 331/580/3 329/581/3 330/582/3
f 330/582/4 329/581/4 336/583/4 335/584/4
f 335/584/1 336/583/1 334/585/1 333/586/1
f 333/586/2 334/585/2 331/587/2 332/588/2
f 330/589/5 335/584/5 333/586/5 332/590/5
f 336/583/6 329/591/6 331/592/6 334/585/6
f 340/593/3 339/594/3 337/595/3 338/596/3
f 338/596/4 337/595/4 344/597/4 343/598/4
f 343/598/1 344/597/1 342/599/1 341/600/1
f 341/600/2 342/599/2 339/601/2 340/602/2
f 338/603/5 343/598/5 341/600/5 340/604/5
f 344/597/6 337/605/6 339/606/6 342/599/6
f 348/607/3 347/608/3 345/609/3 346/610/3
f 346/610/6 345/609/6 352/611/6 351/612/6
f 351/612/1 352/611/1 350/613/1 349/614/1
f 349/614/5 350/613/5 347/615/5 348/616/5
f 346/617/4 351/612/4 349/614/4 348/618/4
f 352/611/2 345/619/2 347/620/2 350/613/2
f 356/621/3 355/622/3 353/623/3 354/624/3
f 354/624/6 353/623/6 360/625/6 359/626/6
f 359/626/1 360/625/1 358/627/1 357/628/1
f 357/628/5 358/627/5 355/629/5 356/630/5
f 354/631/4 359/626/4 357/628/4 356/632/4
f 360/625/2 353/633/2 355/634/2 358/627/2
f 364/635/3 363/636/3 361/637/3 362/638/3
f 362/638/4 361/637/4 368/639/4 367/640/4
f 367/640/1 368/639/1 366/641/1 365/642/1
f 365/642/2 366/641/2 363/643/2 364/644/2
f 362/645/5 367/640/5 365/642/5 364/646/5
f 368/639/6 361/647/6 363/648/6 366/641/6
f 372/649/3 371/650/3 369/651/3 370/652/3
f 370/652/6 369/651/6 376/653/6 375/654/6
f 375/654/1 376/653/1 374/655/1 373/656/1
f 373/656/5 374/655/5 371/657/5 372/658/5
f 370/659/4 375/654/4 373/656/4 372/660/4
f 376/653/2 369/661/2 371/662/2 374/655/2
f 377/197/1 378/198/1 380/199/1 379/200/1
f 379/200/2 380/199/2 384/201/2 383/202/2
f 383/202/3 384/201/3 382/203/3 381/204/3
f 381/204/4 382/203/4 378/205/4 377/206/4
f 379/207/5 383/202/5 381/204/5 377/208/5
f 384/201/6 380/209/6 378/210/6 382/203/6
f 388/635/3 387/636/3 385/637/3 386/638/3
f 386/638/4 385/637/4 392/639/4 391/640/4
f 391/640/1 392/639/1 390/641/1 389/642/1
f 389/642/2 390/641/2 387/643/2 388/644/2
f 386/645/5 391/640/5 389/642/5 388/646/5
f 392/639/6 385/647/6 387/648/6 390/641/6
