# Blender 5.1.2
# www.blender.org
o Cube.001
v -0.305098 0.851162 0.184806
v -0.146804 -0.000000 -0.142650
v -0.305098 0.851162 0.375244
v -0.146804 -0.000000 0.142650
v -0.932456 0.818104 0.695835
v -0.932456 0.978193 0.695835
v 0.246500 0.818104 0.695835
v 0.246500 0.978193 0.695835
v -0.932456 0.818104 -0.114381
v -0.742673 0.818104 -0.304165
v -0.907030 0.818104 -0.209273
v -0.837564 0.818104 -0.278738
v -0.742673 0.978193 -0.304165
v -0.932456 0.978193 -0.114381
v -0.837564 0.978193 -0.278738
v -0.907030 0.978193 -0.209273
v 0.056717 0.818104 -0.304165
v 0.246500 0.818104 -0.114381
v 0.151608 0.818104 -0.278738
v 0.221074 0.818104 -0.209273
v 0.246500 0.978193 -0.114381
v 0.056717 0.978193 -0.304165
v 0.221074 0.978193 -0.209273
v 0.151608 0.978193 -0.278738
v 0.146804 -0.000000 0.142650
v -0.011490 0.851162 0.375244
v 0.146804 -0.000000 -0.142650
v -0.011490 0.851162 0.184806
v -0.388455 0.851162 0.374248
v -0.546749 0.000000 0.141654
v -0.388455 0.851162 0.183810
v -0.546749 0.000000 -0.143646
v -0.840357 0.000000 -0.143646
v -0.682063 0.851162 0.183810
v -0.840357 0.000000 0.141654
v -0.682063 0.851162 0.374248
v -0.628800 0.327514 0.203852
v -0.628800 0.529476 0.255969
v -0.628800 0.361441 0.072379
v -0.628800 0.563403 0.124496
v -0.119690 0.327514 0.203852
v -0.119690 0.529476 0.255969
v -0.119690 0.361441 0.072379
v -0.119690 0.563403 0.124496
v -0.305098 0.851162 1.206865
v -0.146804 -0.000000 1.534321
v -0.305098 0.851162 1.016427
v -0.146804 -0.000000 1.249021
v -0.932456 0.818104 1.506052
v -0.742673 0.818104 1.695835
v -0.907030 0.818104 1.600944
v -0.837564 0.818104 1.670409
v -0.742673 0.978193 1.695835
v -0.932456 0.978193 1.506052
v -0.837564 0.978193 1.670409
v -0.907030 0.978193 1.600944
v 0.056717 0.818104 1.695835
v 0.246500 0.818104 1.506052
v 0.151608 0.818104 1.670409
v 0.221074 0.818104 1.600944
v 0.246500 0.978193 1.506052
v 0.056717 0.978193 1.695835
v 0.221074 0.978193 1.600944
v 0.151608 0.978193 1.670409
v 0.146804 -0.000000 1.249021
v -0.011490 0.851162 1.016427
v 0.146804 -0.000000 1.534321
v -0.011490 0.851162 1.206865
v -0.388455 0.851162 1.017423
v -0.546749 0.000000 1.250017
v -0.388455 0.851162 1.207861
v -0.546749 0.000000 1.535317
v -0.840357 0.000000 1.535317
v -0.682063 0.851162 1.207861
v -0.840357 0.000000 1.250017
v -0.682063 0.851162 1.017423
v -0.628800 0.327514 1.187819
v -0.628800 0.529476 1.135702
v -0.628800 0.361441 1.319291
v -0.628800 0.563403 1.267174
v -0.119690 0.327514 1.187819
v -0.119690 0.529476 1.135702
v -0.119690 0.361441 1.319291
v -0.119690 0.563403 1.267174
vn -0.0000 -0.2636 0.9646
vn 0.9831 0.1828 -0.0000
vn -0.0000 0.3591 -0.9333
vn -0.9831 -0.1828 -0.0000
vn -0.0000 -1.0000 -0.0000
vn -0.2588 -0.0000 -0.9659
vn -0.7071 -0.0000 -0.7071
vn -0.9659 -0.0000 -0.2588
vn 0.9659 -0.0000 -0.2588
vn 0.7071 -0.0000 -0.7071
vn 0.2588 -0.0000 -0.9659
vn -0.0000 -0.0000 -1.0000
vn -1.0000 -0.0000 -0.0000
vn -0.0000 1.0000 -0.0000
vn 1.0000 -0.0000 -0.0000
vn -0.9831 0.1828 -0.0000
vn 0.9831 -0.1828 -0.0000
vn -0.0000 0.2499 -0.9683
vn -0.0000 -0.2499 0.9683
vn -0.0000 -0.9683 -0.2499
vn -0.0000 0.9683 0.2499
vn -0.0000 -0.2636 -0.9646
vn -0.0000 0.3591 0.9333
vn -0.2588 -0.0000 0.9659
vn -0.7071 -0.0000 0.7071
vn -0.9659 -0.0000 0.2588
vn 0.9659 -0.0000 0.2588
vn 0.7071 -0.0000 0.7071
vn 0.2588 -0.0000 0.9659
vn -0.0000 -0.0000 1.0000
vn -0.0000 0.2499 0.9683
vn -0.0000 -0.2499 -0.9683
vn -0.0000 -0.9683 0.2499
vn -0.0000 0.9683 -0.2499
vt 0.165794 0.032170
vt 0.292107 0.032170
vt 0.292107 0.158482
vt 0.165794 0.158482
vt 0.292107 0.284795
vt 0.165794 0.284795
vt 0.292107 0.411108
vt 0.165794 0.411108
vt 0.292107 0.537420
vt 0.165794 0.537420
vt 0.039482 0.284795
vt 0.039482 0.411108
vt 0.138479 0.441489
vt 0.138479 0.626613
vt 0.123579 0.626613
vt 0.123579 0.441489
vt 0.099896 0.626613
vt 0.099896 0.441489
vt 0.091112 0.626613
vt 0.091112 0.441489
vt 0.311370 0.441489
vt 0.311370 0.626613
vt 0.302586 0.627944
vt 0.302586 0.440159
vt 0.284654 0.631580
vt 0.284654 0.436523
vt 0.273936 0.636547
vt 0.273936 0.431556
vt 0.311370 0.811738
vt 0.302586 0.807745
vt 0.296156 0.796837
vt 0.293803 0.781937
vt 0.386365 0.626613
vt 0.386365 0.811738
vt 0.016117 0.626613
vt 0.016117 0.441489
vt 0.161362 0.721120
vt 0.140390 0.717943
vt 0.097574 0.709261
vt 0.071983 0.697403
vt 0.119419 0.350264
vt 0.125038 0.314687
vt 0.140390 0.288644
vt 0.161362 0.279111
vt 0.340423 0.279111
vt 0.340423 0.721120
vt 0.386365 0.441489
vt 0.418420 0.284795
vt 0.418420 0.411108
vt 0.226128 0.054215
vt 0.318945 0.054215
vt 0.318945 0.147031
vt 0.226128 0.147031
vt 0.318945 0.239847
vt 0.226128 0.239847
vt 0.318945 0.332663
vt 0.226128 0.332663
vt 0.318945 0.425479
vt 0.226128 0.425479
vt 0.133312 0.239847
vt 0.133312 0.332663
vt 0.411761 0.239847
vt 0.411761 0.332663
vt 0.342151 0.792078
vt 0.382714 0.792078
vt 0.382714 0.832641
vt 0.342151 0.832641
vt 0.382714 0.873204
vt 0.342151 0.873204
vt 0.382714 0.913767
vt 0.342151 0.913767
vt 0.382714 0.954330
vt 0.342151 0.954330
vt 0.301588 0.873204
vt 0.301588 0.913767
vt 0.423277 0.873204
vt 0.423277 0.913767
vt 0.268926 0.046975
vt 0.268926 0.105954
vt 0.327905 0.105954
vt 0.327905 0.046975
vt 0.268926 0.164934
vt 0.327905 0.164934
vt 0.268926 0.223913
vt 0.327905 0.223913
vt 0.268926 0.282893
vt 0.327905 0.282893
vt 0.209946 0.164934
vt 0.209946 0.223913
vt 0.386885 0.223913
vt 0.386885 0.164934
vt 0.156983 0.020079
vt 0.156983 0.153118
vt 0.290022 0.153118
vt 0.290022 0.020079
vt 0.156983 0.286157
vt 0.290022 0.286157
vt 0.156983 0.419196
vt 0.290022 0.419196
vt 0.156983 0.552235
vt 0.290022 0.552235
vt 0.023944 0.286157
vt 0.023944 0.419196
vt 0.423061 0.419196
vt 0.423061 0.286157
vt 0.237596 0.211774
vt 0.237596 0.265310
vt 0.291132 0.265310
vt 0.291132 0.211774
vt 0.237596 0.318846
vt 0.291132 0.318846
vt 0.237596 0.372382
vt 0.291132 0.372382
vt 0.237596 0.425918
vt 0.291132 0.425918
vt 0.184060 0.318846
vt 0.184060 0.372382
vt 0.344668 0.372382
vt 0.344668 0.318846
s 0
f 25/1/1 26/2/1 3/3/1 4/4/1
f 27/4/2 28/3/2 26/5/2 25/6/2
f 2/6/3 1/5/3 28/7/3 27/8/3
f 4/8/4 3/7/4 1/9/4 2/10/4
f 2/11/5 27/6/5 25/8/5 4/12/5
f 13/13/6 10/14/6 12/15/6 15/16/6
f 15/16/7 12/15/7 11/17/7 16/18/7
f 16/18/8 11/17/8 9/19/8 14/20/8
f 21/21/9 18/22/9 20/23/9 23/24/9
f 23/24/10 20/23/10 19/25/10 24/26/10
f 24/26/11 19/25/11 17/27/11 22/28/11
f 10/14/12 13/13/12 22/28/12 17/27/12
f 9/29/5 11/30/5 12/31/5 10/32/5 17/27/5 19/25/5 20/23/5 18/22/5 7/33/5 5/34/5
f 5/35/13 6/36/13 14/20/13 9/19/13
f 21/37/14 23/38/14 24/39/14 22/40/14 13/41/14 15/42/14 16/43/14 14/44/14 6/45/14 8/46/14
f 18/22/15 21/21/15 8/47/15 7/33/15
f 28/5/14 1/48/14 3/49/14 26/7/14
f 33/50/3 34/51/3 31/52/3 32/53/3
f 35/53/16 36/52/16 34/54/16 33/55/16
f 30/55/1 29/54/1 36/56/1 35/57/1
f 32/57/17 31/56/17 29/58/17 30/59/17
f 30/60/5 35/55/5 33/57/5 32/61/5
f 36/54/14 29/62/14 31/63/14 34/56/14
f 37/64/13 38/65/13 40/66/13 39/67/13
f 39/67/18 40/66/18 44/68/18 43/69/18
f 43/69/15 44/68/15 42/70/15 41/71/15
f 41/71/19 42/70/19 38/72/19 37/73/19
f 39/74/20 43/69/20 41/71/20 37/75/20
f 44/68/21 40/76/21 38/77/21 42/70/21
f 65/78/22 48/79/22 47/80/22 66/81/22
f 67/79/2 65/82/2 66/83/2 68/80/2
f 46/82/23 67/84/23 68/85/23 45/83/23
f 48/84/4 46/86/4 45/87/4 47/85/4
f 46/88/5 48/89/5 65/84/5 67/82/5
f 53/13/24 55/16/24 52/15/24 50/14/24
f 55/16/25 56/18/25 51/17/25 52/15/25
f 56/18/26 54/20/26 49/19/26 51/17/26
f 61/21/27 63/24/27 60/23/27 58/22/27
f 63/24/28 64/26/28 59/25/28 60/23/28
f 64/26/29 62/28/29 57/27/29 59/25/29
f 50/14/30 57/27/30 62/28/30 53/13/30
f 49/29/5 5/34/5 7/33/5 58/22/5 60/23/5 59/25/5 57/27/5 50/32/5 52/31/5 51/30/5
f 5/35/13 49/19/13 54/20/13 6/36/13
f 61/37/14 8/46/14 6/45/14 54/44/14 56/43/14 55/42/14 53/41/14 62/40/14 64/39/14 63/38/14
f 58/22/15 7/33/15 8/47/15 61/21/15
f 68/83/14 66/85/14 47/90/14 45/91/14
f 73/92/23 72/93/23 71/94/23 74/95/23
f 75/93/16 73/96/16 74/97/16 76/94/16
f 70/96/22 75/98/22 76/99/22 69/97/22
f 72/98/17 70/100/17 69/101/17 71/99/17
f 70/102/5 72/103/5 73/98/5 75/96/5
f 76/97/14 74/99/14 71/104/14 69/105/14
f 77/106/13 79/107/13 80/108/13 78/109/13
f 79/107/31 83/110/31 84/111/31 80/108/31
f 83/110/15 81/112/15 82/113/15 84/111/15
f 81/112/32 77/114/32 78/115/32 82/113/32
f 79/116/33 77/117/33 81/112/33 83/110/33
f 84/111/34 82/113/34 78/118/34 80/119/34
