# Blender 5.0.0
# www.blender.org
o Stool_2
v 0.444088 1.862173 0.187978
v 0.445108 1.989882 0.187191
v 0.526040 1.862268 0.302085
v 0.527059 1.989978 0.301299
v 0.584114 1.862911 0.428851
v 0.585133 1.990620 0.428064
v 0.616077 1.864075 0.563403
v 0.617096 1.991785 0.562616
v 0.620702 1.865718 0.700570
v 0.621721 1.993428 0.699783
v 0.597810 1.867775 0.835083
v 0.598829 1.995485 0.834296
v 0.548282 1.870167 0.961770
v 0.549301 1.997877 0.960983
v 0.474021 1.872804 1.075764
v 0.475040 2.000514 1.074978
v 0.377880 1.875582 1.172685
v 0.378899 2.003292 1.171898
v 0.263555 1.878396 1.248806
v 0.264574 2.006106 1.248019
v 0.135438 1.881137 1.301204
v 0.136457 2.008847 1.300417
v -0.001547 1.883700 1.327864
v -0.000528 2.011410 1.327078
v -0.142135 1.885987 1.327762
v -0.141116 2.013697 1.326976
v -0.280925 1.887909 1.300903
v -0.279905 2.015619 1.300116
v -0.412581 1.889394 1.248317
v -0.411562 2.017103 1.247530
v -0.532045 1.890382 1.172026
v -0.531026 2.018092 1.171239
v -0.634726 1.890838 1.074962
v -0.633707 2.018548 1.074175
v -0.716679 1.890742 0.960854
v -0.715659 2.018452 0.960068
v -0.774752 1.890100 0.834089
v -0.773733 2.017810 0.833302
v -0.806715 1.888935 0.699537
v -0.805696 2.016645 0.698750
v -0.811340 1.887293 0.562369
v -0.810321 2.015002 0.561583
v -0.788449 1.885236 0.427857
v -0.787430 2.012945 0.427070
v -0.738920 1.882843 0.301170
v -0.737901 2.010552 0.300383
v -0.664659 1.880207 0.187176
v -0.663640 2.007916 0.186389
v -0.568518 1.877428 0.090255
v -0.567499 2.005138 0.089468
v -0.454193 1.874614 0.014134
v -0.453174 2.002324 0.013347
v -0.326076 1.871873 -0.038264
v -0.325057 1.999583 -0.039051
v -0.189091 1.869310 -0.064924
v -0.188072 1.997020 -0.065711
v -0.048503 1.867023 -0.064823
v -0.047484 1.994733 -0.065610
v 0.090286 1.865101 -0.037963
v 0.091306 1.992811 -0.038750
v 0.221943 1.863617 0.014623
v 0.222962 1.991327 0.013836
v 0.341407 1.862628 0.090914
v 0.342427 1.990338 0.090127
v -0.157734 1.898755 0.754057
v -0.147180 -0.002948 1.083322
v -0.042665 1.938652 0.889936
v -0.037063 0.003393 1.228683
v -0.285638 1.942597 0.867109
v -0.279342 -0.003393 1.199920
v -0.170569 1.982494 1.002988
v -0.169226 0.002948 1.345281
v -0.233613 1.898756 0.610838
v -0.562649 0.002448 0.618378
v -0.369492 1.938652 0.725908
v -0.705494 -0.001748 0.731838
v -0.346665 1.942597 0.482934
v -0.682221 0.001748 0.488901
v -0.482544 1.982494 0.598004
v -0.825066 -0.002448 0.602361
v 0.666783 0.000422 0.613474
v 0.324341 1.982494 0.616298
v 0.522572 -0.001143 0.725260
v 0.188463 1.942597 0.731367
v 0.548739 0.001143 0.482603
v 0.211289 1.938652 0.488394
v 0.404527 -0.000422 0.594389
v 0.075410 1.898756 0.603463
v 0.004099 -0.001764 -0.131400
v 0.012366 1.982494 0.211314
v 0.121744 0.002709 0.008011
v 0.127435 1.942597 0.347192
v -0.121744 -0.002709 -0.008011
v -0.115538 1.938652 0.324366
v -0.004099 0.001764 0.131400
v -0.000468 1.898755 0.460244
v -0.136532 0.741074 1.124212
v -0.140875 0.831545 1.106640
v -0.199100 0.724790 1.058570
v -0.203443 0.815261 1.040997
v 0.438006 0.739985 0.646065
v 0.433663 0.830455 0.628492
v 0.375439 0.723701 0.580423
v 0.371095 0.814171 0.562850
v -0.545270 0.719468 0.618227
v -0.529604 0.810158 0.624736
v -0.607977 0.734495 0.552418
v -0.592310 0.825185 0.558926
v 0.029056 0.718635 0.139824
v 0.044722 0.809325 0.146333
v -0.033651 0.733662 0.074015
v -0.017984 0.824352 0.080524
v -0.648611 0.625991 0.589860
v -0.631131 0.716461 0.585159
v -0.584260 0.609707 0.525966
v -0.566779 0.700177 0.521265
v -0.158838 0.624901 1.154521
v -0.141358 0.715371 1.149820
v -0.094486 0.608617 1.090627
v -0.077006 0.699088 1.085925
v -0.054628 0.604384 0.095316
v -0.060736 0.695075 0.111143
v 0.009564 0.619411 0.030956
v 0.003457 0.710101 0.046783
v 0.438230 0.603551 0.657286
v 0.432122 0.694241 0.673113
v 0.502423 0.618578 0.592926
v 0.496314 0.709268 0.608753
vn 0.8122 -0.0101 -0.5833
vn 0.9091 -0.0098 -0.4164
vn 0.9729 -0.0092 -0.2310
vn 0.9994 -0.0082 -0.0336
vn 0.9858 -0.0068 0.1679
vn 0.9313 -0.0052 0.3642
vn 0.8378 -0.0033 0.5459
vn 0.7099 -0.0013 0.7043
vn 0.5542 0.0007 0.8324
vn 0.3786 0.0027 0.9256
vn 0.1911 0.0045 0.9816
vn -0.0006 0.0062 1.0000
vn -0.1899 0.0076 0.9818
vn -0.3708 0.0087 0.9287
vn -0.5381 0.0095 0.8428
vn -0.6869 0.0100 0.7267
vn -0.8122 0.0101 0.5833
vn -0.9091 0.0098 0.4164
vn -0.9729 0.0092 0.2310
vn -0.9994 0.0082 0.0336
vn -0.9858 0.0068 -0.1679
vn -0.9313 0.0052 -0.3642
vn -0.8378 0.0033 -0.5459
vn -0.7099 0.0013 -0.7043
vn -0.5542 -0.0007 -0.8324
vn -0.3786 -0.0027 -0.9256
vn -0.1911 -0.0045 -0.9816
vn 0.0006 -0.0062 -1.0000
vn 0.1899 -0.0076 -0.9818
vn 0.3708 -0.0087 -0.9287
vn 0.0163 0.9998 -0.0125
vn 0.5381 -0.0095 -0.8428
vn 0.6869 -0.0100 -0.7267
vn -0.0163 -0.9998 0.0125
vn 0.0451 0.9475 -0.3164
vn 0.0251 -0.9994 0.0246
vn 0.6684 0.1286 0.7326
vn 0.7846 -0.1031 -0.6113
vn -0.6684 -0.1290 -0.7325
vn -0.7846 0.1036 0.6112
vn 0.3164 0.9475 0.0451
vn 0.0194 -0.9997 -0.0125
vn -0.7252 0.1271 0.6767
vn 0.6224 -0.1052 0.7756
vn 0.7250 -0.1280 -0.6767
vn -0.6224 0.1055 -0.7756
vn 0.6166 0.1045 0.7803
vn -0.7290 -0.1285 0.6724
vn -0.6166 -0.1041 -0.7803
vn 0.7291 0.1279 -0.6724
vn 0.0039 -1.0000 -0.0090
vn -0.3164 0.9475 -0.0451
vn 0.7660 0.1074 -0.6338
vn 0.6881 -0.1261 0.7146
vn -0.7660 -0.1072 0.6338
vn -0.6881 0.1254 -0.7147
vn 0.0213 -0.9997 0.0141
vn -0.0451 0.9475 0.3164
vn -0.7323 0.0958 0.6742
vn -0.6298 -0.1771 -0.7563
vn 0.7323 -0.0958 -0.6742
vn 0.6298 0.1771 0.7563
vn 0.1123 -0.9842 0.1371
vn -0.1123 0.9842 -0.1371
vn -0.7136 0.0733 0.6967
vn -0.6313 0.1635 -0.7581
vn 0.7136 -0.0733 -0.6967
vn 0.6313 -0.1635 0.7581
vn -0.1054 -0.9866 -0.1248
vn 0.1054 0.9866 0.1248
vn -0.6890 0.0958 -0.7184
vn 0.7433 -0.1771 -0.6451
vn 0.6890 -0.0958 0.7184
vn -0.7433 0.1771 0.6451
vn -0.1348 -0.9842 0.1150
vn 0.1348 0.9842 -0.1150
vn -0.7146 0.0733 -0.6957
vn 0.7418 0.1635 -0.6504
vn 0.7146 -0.0733 0.6957
vn -0.7418 -0.1635 0.6504
vn 0.1221 -0.9866 -0.1086
vn -0.1221 0.9866 0.1086
vt 1.000000 0.500000
vt 1.000000 1.000000
vt 0.968750 1.000000
vt 0.968750 0.500000
vt 0.937500 1.000000
vt 0.937500 0.500000
vt 0.906250 1.000000
vt 0.906250 0.500000
vt 0.875000 1.000000
vt 0.875000 0.500000
vt 0.843750 1.000000
vt 0.843750 0.500000
vt 0.812500 1.000000
vt 0.812500 0.500000
vt 0.781250 1.000000
vt 0.781250 0.500000
vt 0.750000 1.000000
vt 0.750000 0.500000
vt 0.718750 1.000000
vt 0.718750 0.500000
vt 0.687500 1.000000
vt 0.687500 0.500000
vt 0.656250 1.000000
vt 0.656250 0.500000
vt 0.625000 1.000000
vt 0.625000 0.500000
vt 0.593750 1.000000
vt 0.593750 0.500000
vt 0.562500 1.000000
vt 0.562500 0.500000
vt 0.531250 1.000000
vt 0.531250 0.500000
vt 0.500000 1.000000
vt 0.500000 0.500000
vt 0.468750 1.000000
vt 0.468750 0.500000
vt 0.437500 1.000000
vt 0.437500 0.500000
vt 0.406250 1.000000
vt 0.406250 0.500000
vt 0.375000 1.000000
vt 0.375000 0.500000
vt 0.343750 1.000000
vt 0.343750 0.500000
vt 0.312500 1.000000
vt 0.312500 0.500000
vt 0.281250 1.000000
vt 0.281250 0.500000
vt 0.250000 1.000000
vt 0.250000 0.500000
vt 0.218750 1.000000
vt 0.218750 0.500000
vt 0.187500 1.000000
vt 0.187500 0.500000
vt 0.156250 1.000000
vt 0.156250 0.500000
vt 0.125000 1.000000
vt 0.125000 0.500000
vt 0.093750 1.000000
vt 0.093750 0.500000
vt 0.062500 1.000000
vt 0.062500 0.500000
vt 0.296822 0.485388
vt 0.250000 0.490000
vt 0.203178 0.485388
vt 0.158156 0.471731
vt 0.116663 0.449553
vt 0.080294 0.419706
vt 0.050447 0.383337
vt 0.028269 0.341844
vt 0.014612 0.296822
vt 0.010000 0.250000
vt 0.014612 0.203178
vt 0.028269 0.158156
vt 0.050447 0.116663
vt 0.080294 0.080294
vt 0.116663 0.050447
vt 0.158156 0.028269
vt 0.203178 0.014612
vt 0.250000 0.010000
vt 0.296822 0.014612
vt 0.341844 0.028269
vt 0.383337 0.050447
vt 0.419706 0.080294
vt 0.449553 0.116663
vt 0.471731 0.158156
vt 0.485388 0.203178
vt 0.490000 0.250000
vt 0.485388 0.296822
vt 0.471731 0.341844
vt 0.449553 0.383337
vt 0.419706 0.419706
vt 0.383337 0.449553
vt 0.341844 0.471731
vt 0.031250 1.000000
vt 0.031250 0.500000
vt 0.000000 1.000000
vt 0.000000 0.500000
vt 0.814453 0.314036
vt 0.840663 0.311455
vt 0.865866 0.303809
vt 0.889093 0.291394
vt 0.909452 0.274686
vt 0.926160 0.254328
vt 0.938575 0.231100
vt 0.946220 0.205898
vt 0.948802 0.179688
vt 0.946220 0.153477
vt 0.938575 0.128275
vt 0.926160 0.105047
vt 0.909452 0.084689
vt 0.889093 0.067981
vt 0.865866 0.055566
vt 0.840663 0.047920
vt 0.814453 0.045339
vt 0.788243 0.047920
vt 0.763040 0.055566
vt 0.739813 0.067981
vt 0.719454 0.084689
vt 0.702746 0.105047
vt 0.690331 0.128275
vt 0.682686 0.153477
vt 0.680105 0.179688
vt 0.682686 0.205898
vt 0.690331 0.231100
vt 0.702746 0.254328
vt 0.719454 0.274686
vt 0.739813 0.291394
vt 0.763040 0.303809
vt 0.788243 0.311455
vt 0.299550 0.755859
vt 0.383025 0.755859
vt 0.383025 0.839334
vt 0.299550 0.839334
vt 0.132600 0.755859
vt 0.216075 0.755859
vt 0.216075 0.839334
vt 0.132600 0.839334
vt 0.299550 0.922810
vt 0.216075 0.922810
vt 0.216075 0.672384
vt 0.299550 0.672384
vt 0.216075 0.588909
vt 0.299550 0.588909
vt 0.279715 0.732422
vt 0.362581 0.732422
vt 0.362581 0.815289
vt 0.279715 0.815289
vt 0.113981 0.732422
vt 0.196848 0.732422
vt 0.196848 0.815289
vt 0.113981 0.815289
vt 0.279715 0.898155
vt 0.196848 0.898155
vt 0.196848 0.649555
vt 0.279715 0.649555
vt 0.196848 0.566688
vt 0.279715 0.566688
vt 0.154817 0.507941
vt 0.270964 0.507941
vt 0.270964 0.624088
vt 0.154817 0.624088
vt 0.270964 0.740234
vt 0.154817 0.740234
vt 0.270964 0.856381
vt 0.154817 0.856381
vt 0.270964 0.972528
vt 0.154817 0.972528
vt 0.038670 0.740234
vt 0.038670 0.856381
vt 0.387111 0.740234
vt 0.387111 0.856381
vt 0.185465 0.618813
vt 0.263754 0.618813
vt 0.263754 0.697102
vt 0.185465 0.697102
vt 0.263754 0.775391
vt 0.185465 0.775391
vt 0.263754 0.853680
vt 0.185465 0.853680
vt 0.263754 0.931969
vt 0.185465 0.931969
vt 0.107176 0.775391
vt 0.107176 0.853680
vt 0.342043 0.775391
vt 0.342043 0.853680
vt 0.698802 0.603802
vt 0.742604 0.603802
vt 0.742604 0.647604
vt 0.698802 0.647604
vt 0.742604 0.691406
vt 0.698802 0.691406
vt 0.742604 0.735208
vt 0.698802 0.735208
vt 0.742604 0.779011
vt 0.698802 0.779011
vt 0.655000 0.691406
vt 0.655000 0.735208
vt 0.786406 0.691406
vt 0.786406 0.735208
vt 0.704843 0.543981
vt 0.763907 0.543981
vt 0.763907 0.603045
vt 0.704843 0.603045
vt 0.763907 0.662109
vt 0.704843 0.662109
vt 0.763907 0.721174
vt 0.704843 0.721174
vt 0.763907 0.780238
vt 0.704843 0.780238
vt 0.645779 0.662109
vt 0.645779 0.721174
vt 0.822971 0.662109
vt 0.822971 0.721174
vt 0.749178 0.570931
vt 0.793791 0.570931
vt 0.793791 0.615544
vt 0.749178 0.615544
vt 0.793791 0.660156
vt 0.749178 0.660156
vt 0.793791 0.704769
vt 0.749178 0.704769
vt 0.793791 0.749381
vt 0.749178 0.749381
vt 0.704566 0.660156
vt 0.704566 0.704769
vt 0.838403 0.660156
vt 0.838403 0.704769
vt 0.686534 0.474652
vt 0.809560 0.474652
vt 0.809560 0.597677
vt 0.686534 0.597677
vt 0.809560 0.720703
vt 0.686534 0.720703
vt 0.809560 0.843729
vt 0.686534 0.843729
vt 0.809560 0.966755
vt 0.686534 0.966755
vt 0.563508 0.720703
vt 0.563508 0.843729
vt 0.932585 0.720703
vt 0.932585 0.843729
s 0
f 1/1/1 2/2/1 4/3/1 3/4/1
f 3/4/2 4/3/2 6/5/2 5/6/2
f 5/6/3 6/5/3 8/7/3 7/8/3
f 7/8/4 8/7/4 10/9/4 9/10/4
f 9/10/5 10/9/5 12/11/5 11/12/5
f 11/12/6 12/11/6 14/13/6 13/14/6
f 13/14/7 14/13/7 16/15/7 15/16/7
f 15/16/8 16/15/8 18/17/8 17/18/8
f 17/18/9 18/17/9 20/19/9 19/20/9
f 19/20/10 20/19/10 22/21/10 21/22/10
f 21/22/11 22/21/11 24/23/11 23/24/11
f 23/24/12 24/23/12 26/25/12 25/26/12
f 25/26/13 26/25/13 28/27/13 27/28/13
f 27/28/14 28/27/14 30/29/14 29/30/14
f 29/30/15 30/29/15 32/31/15 31/32/15
f 31/32/16 32/31/16 34/33/16 33/34/16
f 33/34/17 34/33/17 36/35/17 35/36/17
f 35/36/18 36/35/18 38/37/18 37/38/18
f 37/38/19 38/37/19 40/39/19 39/40/19
f 39/40/20 40/39/20 42/41/20 41/42/20
f 41/42/21 42/41/21 44/43/21 43/44/21
f 43/44/22 44/43/22 46/45/22 45/46/22
f 45/46/23 46/45/23 48/47/23 47/48/23
f 47/48/24 48/47/24 50/49/24 49/50/24
f 49/50/25 50/49/25 52/51/25 51/52/25
f 51/52/26 52/51/26 54/53/26 53/54/26
f 53/54/27 54/53/27 56/55/27 55/56/27
f 55/56/28 56/55/28 58/57/28 57/58/28
f 57/58/29 58/57/29 60/59/29 59/60/29
f 59/60/30 60/59/30 62/61/30 61/62/30
f 4/63/31 2/64/31 64/65/31 62/66/31 60/67/31 58/68/31 56/69/31 54/70/31 52/71/31 50/72/31 48/73/31 46/74/31 44/75/31 42/76/31 40/77/31 38/78/31 36/79/31 34/80/31 32/81/31 30/82/31 28/83/31 26/84/31 24/85/31 22/86/31 20/87/31 18/88/31 16/89/31 14/90/31 12/91/31 10/92/31 8/93/31 6/94/31
f 61/62/32 62/61/32 64/95/32 63/96/32
f 63/96/33 64/95/33 2/97/33 1/98/33
f 1/99/34 3/100/34 5/101/34 7/102/34 9/103/34 11/104/34 13/105/34 15/106/34 17/107/34 19/108/34 21/109/34 23/110/34 25/111/34 27/112/34 29/113/34 31/114/34 33/115/34 35/116/34 37/117/34 39/118/34 41/119/34 43/120/34 45/121/34 47/122/34 49/123/34 51/124/34 53/125/34 55/126/34 57/127/34 59/128/34 61/129/34 63/130/34
f 65/131/35 69/132/35 71/133/35 67/134/35
f 70/135/36 66/136/36 68/137/36 72/138/36
f 68/137/37 67/134/37 71/139/37 72/140/37
f 66/136/38 65/131/38 67/134/38 68/137/38
f 70/141/39 69/142/39 65/131/39 66/136/39
f 72/143/40 71/144/40 69/142/40 70/141/40
f 73/145/41 77/146/41 79/147/41 75/148/41
f 78/149/42 74/150/42 76/151/42 80/152/42
f 76/151/43 75/148/43 79/153/43 80/154/43
f 74/150/44 73/145/44 75/148/44 76/151/44
f 78/155/45 77/156/45 73/145/45 74/150/45
f 80/157/46 79/158/46 77/156/46 78/155/46
f 81/159/47 82/160/47 84/161/47 83/162/47
f 83/162/48 84/161/48 88/163/48 87/164/48
f 87/164/49 88/163/49 86/165/49 85/166/49
f 85/166/50 86/165/50 82/167/50 81/168/50
f 83/169/51 87/164/51 85/166/51 81/170/51
f 88/163/52 84/171/52 82/172/52 86/165/52
f 89/173/53 90/174/53 92/175/53 91/176/53
f 91/176/54 92/175/54 96/177/54 95/178/54
f 95/178/55 96/177/55 94/179/55 93/180/55
f 93/180/56 94/179/56 90/181/56 89/182/56
f 91/183/57 95/178/57 93/180/57 89/184/57
f 96/177/58 92/185/58 90/186/58 94/179/58
f 97/187/59 98/188/59 100/189/59 99/190/59
f 99/190/60 100/189/60 104/191/60 103/192/60
f 103/192/61 104/191/61 102/193/61 101/194/61
f 101/194/62 102/193/62 98/195/62 97/196/62
f 99/197/63 103/192/63 101/194/63 97/198/63
f 104/191/64 100/199/64 98/200/64 102/193/64
f 105/201/65 106/202/65 108/203/65 107/204/65
f 107/204/66 108/203/66 112/205/66 111/206/66
f 111/206/67 112/205/67 110/207/67 109/208/67
f 109/208/68 110/207/68 106/209/68 105/210/68
f 107/211/69 111/206/69 109/208/69 105/212/69
f 112/205/70 108/213/70 106/214/70 110/207/70
f 113/215/71 114/216/71 116/217/71 115/218/71
f 115/218/72 116/217/72 120/219/72 119/220/72
f 119/220/73 120/219/73 118/221/73 117/222/73
f 117/222/74 118/221/74 114/223/74 113/224/74
f 115/225/75 119/220/75 117/222/75 113/226/75
f 120/219/76 116/227/76 114/228/76 118/221/76
f 121/229/77 122/230/77 124/231/77 123/232/77
f 123/232/78 124/231/78 128/233/78 127/234/78
f 127/234/79 128/233/79 126/235/79 125/236/79
f 125/236/80 126/235/80 122/237/80 121/238/80
f 123/239/81 127/234/81 125/236/81 121/240/81
f 128/233/82 124/241/82 122/242/82 126/235/82
