# Blender 5.0.0
# www.blender.org
o Toilet
v 0.384110 0.000000 0.218911
v 0.384110 1.053145 0.218911
v 0.262136 0.000000 -0.850873
v 0.000863 0.000000 0.425437
v -0.001726 1.053145 0.425437
v -0.001726 1.053145 -0.821105
v 0.199097 0.000000 0.375489
v 0.196770 1.053145 -0.820249
v 0.199097 1.053145 0.375489
v 0.238251 0.000000 -0.850873
v 0.558134 0.946323 0.285230
v 0.492878 1.323690 0.555347
v 0.230787 0.825537 -0.260265
v 0.289031 1.323690 0.816462
v 0.382175 0.901960 -0.260265
v 0.411711 1.323690 -0.236100
v 0.203698 1.323690 -0.429282
v 0.327382 0.869900 0.561799
v -0.001726 0.831760 0.636341
v 0.000063 1.323690 0.886838
v -0.298788 2.307848 -0.492173
v 0.000063 1.323690 -0.429282
v 0.454501 0.910988 0.455360
v 0.353528 0.866625 -0.260265
v 0.401328 1.323690 0.715970
v 0.312128 1.323690 -0.429282
v 0.076303 1.323690 -0.429282
v 0.148885 1.323690 0.867254
v -0.298788 2.362531 -0.492173
v 0.168739 0.839165 0.615598
v 0.343905 0.764188 0.238576
v 0.000275 1.429350 -0.401597
v 0.549437 0.926721 0.238576
v 0.548069 1.323690 0.234866
v -0.466192 1.429350 0.683124
v -0.001726 0.726049 0.238576
v -0.242038 1.429350 -0.402262
v 0.480944 0.830948 0.238576
v 0.168739 1.429350 0.845554
v 0.168739 0.733454 0.238576
v 0.558134 1.181101 0.543999
v 0.230787 1.155261 -0.464881
v 0.327382 1.155261 0.820568
v 0.466254 1.181100 -0.260265
v -0.001726 1.142366 -0.464881
v -0.001726 1.142366 0.895109
v 0.454501 1.169153 0.714129
v 0.353527 1.169153 -0.464881
v 0.168739 1.144870 0.874366
v 0.086578 1.144870 -0.464881
v 0.620609 1.169038 0.238576
v -0.332625 1.429350 0.787800
v 0.500878 0.884122 -0.010845
v 0.462991 1.429350 0.681152
v -0.536167 1.429350 -0.010845
v -0.095731 1.429350 -0.401860
v 0.287346 0.794862 -0.010845
v 0.495407 1.323690 -0.000617
v -0.233382 2.362531 -0.459475
v 0.436299 0.848786 -0.010845
v -0.467038 2.307848 -0.443555
v 0.560997 1.175069 -0.010845
v 0.373831 0.000000 -0.256183
v 0.373831 1.053145 -0.256183
v -0.453061 2.353762 -0.507569
v 0.048087 0.000000 -0.212718
v 0.218674 1.053145 -0.237692
v 0.218674 0.000000 -0.237692
v 0.245750 0.000000 -0.582902
v 0.002606 1.053145 -0.531169
v 0.189620 1.053145 -0.575718
v 0.228443 0.000000 -0.543680
v -0.004451 2.435563 -0.457986
v -0.004451 2.435563 -0.822250
v 0.238251 2.435563 -0.822250
v 0.228443 2.435563 -0.470498
v -0.001726 1.360092 -0.792481
v 0.233471 1.360092 -0.791625
v 0.000596 1.360092 -0.457986
v 0.223663 1.360092 -0.503038
v 0.430164 2.435563 -0.523193
v 0.477121 2.435563 -0.814623
v 0.444797 1.405918 -0.814623
v 0.397841 1.405918 -0.523193
v 0.347878 2.435563 -0.488360
v 0.357686 2.435563 -0.818437
v 0.285523 1.383005 -0.803124
v 0.275715 1.383005 -0.504630
v 0.253943 0.000000 -0.716888
v 0.191866 1.053145 -0.698235
v 0.233347 0.000000 -0.697277
v -0.004451 2.435563 -0.617839
v 0.233347 2.435563 -0.624094
v 0.228567 1.360092 -0.698235
v 0.472217 2.435563 -0.616468
v 0.439893 1.405918 -0.616468
v 0.280619 1.383005 -0.693943
v 0.352782 2.435563 -0.620281
v -0.387561 0.000000 0.218911
v -0.387561 1.053145 0.218911
v -0.257824 0.000000 -0.850873
v -0.467038 2.335190 -0.451456
v -0.202548 0.000000 0.375489
v -0.200221 1.053145 -0.820249
v -0.202548 1.053145 0.375489
v -0.241702 0.000000 -0.850873
v -0.561585 0.946323 0.285230
v -0.496287 1.323690 0.555347
v -0.234238 0.825537 -0.260265
v -0.292440 1.323690 0.816462
v -0.385627 0.901960 -0.260265
v -0.415120 1.323690 -0.236100
v -0.207107 1.323690 -0.429282
v -0.330834 0.869900 0.561799
v -0.233382 2.335190 -0.473283
v -0.366402 2.307848 -0.507569
v -0.467038 2.335190 -0.473283
v -0.366402 2.362531 -0.473283
v -0.457952 0.910988 0.455360
v -0.356979 0.866625 -0.260265
v -0.404737 1.323690 0.715970
v -0.315537 1.323690 -0.429282
v -0.079712 1.323690 -0.429282
v -0.152294 1.323690 0.867254
v -0.459080 2.313440 -0.507569
v -0.172190 0.839165 0.615598
v -0.347356 0.764188 0.238576
v 0.000275 1.429350 0.861706
v -0.552889 0.926721 0.238576
v -0.551478 1.323690 0.234866
v -0.366402 2.319326 -0.459475
v -0.453061 2.353762 -0.473283
v 0.511009 1.429350 -0.010845
v -0.484395 0.830948 0.238576
v 0.328857 1.429350 0.799608
v -0.172190 0.733454 0.238576
v -0.561585 1.181101 0.543999
v -0.234238 1.155261 -0.464881
v -0.330834 1.155261 0.820568
v -0.469705 1.181100 -0.260265
v -0.233382 2.362531 -0.473283
v -0.366402 2.307848 -0.473283
v -0.457952 1.169153 0.714129
v -0.356979 1.169153 -0.464881
v -0.172190 1.144870 0.874366
v -0.090029 1.144870 -0.464881
v -0.624060 1.169038 0.238576
v 0.238751 1.429350 -0.400942
v -0.504330 0.884122 -0.010845
v -0.366402 2.350295 -0.459475
v -0.368331 1.429350 -0.402609
v 0.092327 1.429350 -0.401344
v -0.290797 0.794862 -0.010845
v -0.498816 1.323690 -0.000617
v -0.459080 2.313440 -0.473283
v -0.439750 0.848786 -0.010845
v -0.467038 2.362531 -0.446898
v -0.564448 1.175069 -0.010845
v -0.377282 0.000000 -0.256183
v -0.377282 1.053145 -0.256183
v -0.233382 2.307848 -0.473283
v -0.048950 0.000000 -0.212718
v -0.222125 1.053145 -0.237692
v -0.222125 0.000000 -0.237692
v -0.241438 0.000000 -0.582902
v -0.193071 1.053145 -0.575718
v -0.231894 0.000000 -0.543680
v -0.233382 2.307848 -0.459475
v -0.298788 2.335190 -0.492173
v -0.241702 2.435563 -0.822250
v -0.231894 2.435563 -0.470498
v -0.467038 2.335190 -0.507569
v -0.236922 1.360092 -0.791625
v -0.227115 1.360092 -0.503038
v -0.433616 2.435563 -0.523193
v -0.480572 2.435563 -0.814623
v -0.448249 1.405918 -0.814623
v -0.401292 1.405918 -0.523193
v -0.351329 2.435563 -0.488360
v -0.361137 2.435563 -0.818437
v -0.288974 1.383005 -0.803124
v -0.279166 1.383005 -0.504630
v -0.249631 0.000000 -0.716888
v -0.195317 1.053145 -0.698235
v -0.236798 0.000000 -0.697277
v -0.233382 2.335190 -0.459475
v -0.236798 2.435563 -0.624094
v -0.232019 1.360092 -0.698235
v -0.475668 2.435563 -0.616468
v -0.443345 1.405918 -0.616468
v -0.284070 1.383005 -0.693943
v -0.356233 2.435563 -0.620281
v -0.366402 2.335190 -0.459475
v -0.366402 2.335190 -0.507569
v -0.366402 2.362531 -0.507569
v 0.287346 1.440344 -0.010845
v 0.230787 1.395158 -0.464881
v 0.454501 1.395158 0.748155
v 0.327382 1.395158 0.854594
v 0.353527 1.395158 -0.464881
v 0.466254 1.395158 -0.260265
v 0.620609 1.395158 0.238576
v 0.558134 1.395158 0.578025
v 0.086578 1.395158 -0.464881
v 0.168739 1.395158 0.908392
v 0.000275 1.395158 0.929135
v 0.000275 1.451631 -0.010845
v 0.000275 1.395158 -0.464881
v 0.436299 1.435641 -0.010845
v 0.127658 1.451631 -0.010845
v 0.343905 1.447175 0.238576
v 0.560997 1.395158 -0.010845
v 0.000275 1.468079 0.238576
v 0.519070 1.435060 0.238576
v 0.168739 1.458463 0.238576
v -0.290797 1.440344 -0.010845
v -0.234238 1.395158 -0.464881
v -0.457952 1.395158 0.748155
v -0.330834 1.395158 0.854594
v -0.356979 1.395158 -0.464881
v -0.469705 1.395158 -0.260265
v -0.624060 1.395158 0.238576
v -0.561585 1.395158 0.578025
v -0.090029 1.395158 -0.464881
v -0.439750 1.438936 -0.010845
v -0.131110 1.451631 -0.010845
v -0.172190 1.395158 0.908392
v -0.347356 1.447175 0.238576
v -0.564448 1.395158 -0.010845
v -0.522522 1.434157 0.238576
v -0.172190 1.458463 0.238576
v -0.172190 1.429350 0.848166
v 0.585049 1.429350 0.238576
v 0.365247 1.429350 -0.400595
v -0.597120 1.429350 0.238576
v -0.004435 2.396455 -0.827377
v -0.004347 2.396455 -0.451083
v 0.246746 2.396455 -0.827345
v 0.236584 2.396455 -0.465272
v 0.493203 2.398180 -0.820596
v 0.444551 2.398180 -0.518644
v 0.367956 2.397317 -0.823970
v 0.357794 2.397317 -0.483166
v 0.488122 2.398180 -0.615287
v -0.250174 2.396455 -0.827345
v -0.240012 2.396455 -0.465272
v -0.496631 2.398180 -0.820596
v -0.447979 2.398180 -0.518644
v -0.371384 2.397317 -0.823970
v -0.361223 2.397317 -0.483166
v -0.491550 2.398180 -0.615287
vn 0.7140 -0.6218 0.3218
vn 0.9117 -0.0000 0.4109
vn 0.6116 -0.5484 -0.5703
vn 0.0014 -0.6566 0.7543
vn 0.0011 -0.0000 1.0000
vn -0.0000 -0.6726 -0.7400
vn 0.3429 -0.6597 0.6688
vn 0.6965 0.0261 -0.7171
vn 0.4563 0.0002 0.8898
vn -0.0000 -1.0000 -0.0000
vn 0.8704 -0.4185 0.2592
vn 0.9095 -0.2115 0.3577
vn 0.1592 -0.7212 -0.6741
vn 0.4628 -0.2575 0.8482
vn 0.7954 -0.4318 -0.4253
vn 0.9003 -0.1573 -0.4059
vn -0.0053 -0.1271 -0.9919
vn 0.4136 -0.7595 0.5021
vn -0.0000 -0.8344 0.5512
vn 0.0013 -0.2492 0.9685
vn -0.1783 0.7007 0.6908
vn -0.0000 -0.1331 -0.9911
vn 0.6509 -0.6357 0.4150
vn 0.4357 -0.7482 -0.5003
vn 0.7296 -0.2420 0.6396
vn 0.4429 -0.1763 -0.8791
vn -0.0028 -0.1316 -0.9913
vn 0.2141 -0.2500 0.9443
vn -0.1783 -0.7007 0.6908
vn 0.1842 -0.8240 0.5359
vn 0.3661 -0.9202 0.1388
vn 0.0004 0.9621 -0.2727
vn 0.8766 -0.4787 0.0482
vn 0.9820 -0.1864 -0.0291
vn -0.3505 0.9218 0.1654
vn -0.0000 -0.9647 0.2633
vn -0.0110 0.9641 -0.2654
vn 0.5952 -0.7988 0.0875
vn 0.0757 0.9554 0.2854
vn 0.1369 -0.9515 0.2755
vn 0.9317 -0.0017 0.3633
vn 0.0390 -0.1814 -0.9826
vn 0.5114 -0.2409 0.8249
vn 0.8985 0.0690 -0.4335
vn -0.0000 -0.1915 -0.9815
vn -0.0001 -0.3135 0.9496
vn 0.7697 -0.1357 0.6238
vn 0.5070 -0.0677 -0.8593
vn 0.2374 -0.3034 0.9228
vn 0.0104 -0.1851 -0.9827
vn 0.9963 0.0847 -0.0145
vn -0.1870 0.9428 0.2759
vn 0.8247 -0.5086 -0.2472
vn 0.3387 0.9276 0.1579
vn -0.4542 0.8771 -0.1560
vn -0.0085 0.9625 -0.2713
vn 0.3511 -0.9200 -0.1744
vn 0.9449 -0.1652 -0.2825
vn -0.5074 -0.4838 -0.7131
vn 0.5094 -0.8389 -0.1915
vn 0.4545 0.5540 -0.6975
vn 0.9536 0.0896 -0.2874
vn 0.7242 -0.6673 -0.1740
vn 0.9049 0.3658 -0.2175
vn 0.3825 -0.6786 0.6270
vn -0.0000 1.0000 -0.0000
vn 0.6507 -0.7472 -0.1354
vn 0.0032 0.6761 0.7368
vn 0.9485 0.2600 0.1810
vn -0.0005 0.7502 0.6612
vn -0.0000 0.7515 -0.6597
vn 0.0084 0.7502 -0.6612
vn 0.0632 0.7526 0.6554
vn -0.0000 0.0293 -0.9996
vn 0.4651 -0.3606 -0.8085
vn 0.0013 -0.1306 0.9914
vn 0.4888 -0.3733 0.7885
vn 0.4375 0.7497 0.4965
vn 0.4572 0.7148 -0.5291
vn 0.5995 -0.5379 -0.5927
vn 0.5554 -0.5616 0.6133
vn 0.1659 0.7495 0.6409
vn 0.0190 0.7583 -0.6516
vn 0.1435 -0.6524 -0.7441
vn 0.3057 -0.6298 0.7141
vn 0.7263 -0.6865 0.0334
vn 0.9987 -0.0309 0.0399
vn 0.8048 -0.5929 0.0281
vn 0.5821 0.8014 0.1376
vn 0.7573 -0.6324 0.1631
vn 0.2782 -0.9604 0.0137
vn -0.7140 -0.6218 0.3218
vn -0.9117 -0.0000 0.4109
vn -0.6094 -0.5504 -0.5707
vn 0.7989 -0.0802 -0.5961
vn -0.3422 -0.6591 0.6697
vn -0.6974 0.0234 -0.7163
vn -0.4549 -0.0002 0.8905
vn -0.8704 -0.4185 0.2592
vn -0.9095 -0.2116 0.3578
vn -0.1592 -0.7212 -0.6741
vn -0.4628 -0.2575 0.8482
vn -0.7954 -0.4318 -0.4253
vn -0.9002 -0.1574 -0.4059
vn 0.0053 -0.1271 -0.9919
vn -0.4136 -0.7595 0.5021
vn -0.7992 -0.0000 0.6011
vn -0.0602 0.6906 0.7207
vn 0.9857 -0.1035 0.1327
vn 0.0305 -0.9914 -0.1271
vn -0.6509 -0.6357 0.4150
vn -0.4357 -0.7482 -0.5003
vn -0.7296 -0.2420 0.6396
vn -0.4428 -0.1763 -0.8791
vn 0.0027 -0.1316 -0.9913
vn -0.2130 -0.2497 0.9446
vn 0.4769 0.6403 0.6021
vn -0.1842 -0.8240 0.5359
vn -0.3661 -0.9202 0.1388
vn 0.0014 0.9603 0.2790
vn -0.8766 -0.4787 0.0482
vn -0.9820 -0.1864 -0.0291
vn -0.0378 0.5482 -0.8355
vn 0.4818 -0.8748 0.0516
vn 0.3690 0.9203 -0.1299
vn -0.5952 -0.7988 0.0875
vn 0.2035 0.9317 0.3007
vn -0.1369 -0.9515 0.2755
vn -0.9317 -0.0016 0.3633
vn -0.0390 -0.1814 -0.9826
vn -0.5115 -0.2409 0.8249
vn -0.8985 0.0691 -0.4334
vn -0.7099 -0.6277 0.3195
vn 0.0151 0.9910 -0.1330
vn -0.7697 -0.1356 0.6238
vn -0.5070 -0.0677 -0.8593
vn -0.2371 -0.3031 0.9230
vn -0.0104 -0.1851 -0.9827
vn -0.9963 0.0848 -0.0145
vn 0.0146 0.9653 -0.2608
vn -0.8247 -0.5086 -0.2472
vn -0.0275 -0.5607 -0.8276
vn -0.3334 0.9002 -0.2801
vn 0.0092 0.9630 -0.2694
vn -0.3511 -0.9200 -0.1744
vn -0.9449 -0.1653 -0.2825
vn 0.5922 0.8058 0.0044
vn -0.5094 -0.8389 -0.1915
vn 0.4713 -0.6223 -0.6250
vn -0.9536 0.0897 -0.2874
vn -0.7248 -0.6656 -0.1779
vn -0.9043 0.3647 -0.2220
vn -0.7054 0.6279 0.3290
vn -0.6455 -0.7513 -0.1375
vn -0.9490 0.2591 0.1795
vn -0.5104 0.4905 -0.7063
vn -0.2498 -0.0000 0.9683
vn -0.0084 0.7502 -0.6612
vn -0.0637 0.7527 0.6552
vn 0.7810 -0.1158 0.6138
vn -0.4651 -0.3606 -0.8085
vn -0.4873 -0.3740 0.7891
vn -0.4376 0.7496 0.4966
vn -0.4574 0.7147 -0.5291
vn -0.5995 -0.5378 -0.5927
vn -0.5554 -0.5616 0.6133
vn -0.1659 0.7494 0.6410
vn -0.0190 0.7583 -0.6516
vn -0.1435 -0.6524 -0.7441
vn -0.3057 -0.6298 0.7141
vn -0.7238 -0.6892 0.0333
vn -0.9986 -0.0346 0.0399
vn -0.7071 -0.0000 -0.7071
vn -0.8048 -0.5929 0.0281
vn -0.5823 0.8013 0.1376
vn -0.7573 -0.6324 0.1631
vn -0.2782 -0.9604 0.0137
vn -0.0506 -0.0183 -0.9986
vn -0.1117 -0.0000 0.9937
vn -0.0455 -0.6953 0.7173
vn 0.0434 0.9985 -0.0347
vn 0.0005 0.3038 -0.9527
vn 0.7517 0.0986 0.6521
vn 0.4796 0.1621 0.8624
vn 0.4691 0.2011 -0.8599
vn 0.9143 0.0749 -0.3980
vn 0.9973 0.0731 -0.0070
vn 0.9441 0.0722 0.3216
vn 0.0005 0.3027 -0.9531
vn 0.2159 0.2346 0.9478
vn 0.0024 0.2541 0.9672
vn 0.0002 0.9986 -0.0531
vn 0.0005 0.3019 -0.9534
vn 0.0597 0.9978 -0.0274
vn 0.0338 0.9983 -0.0484
vn 0.0514 0.9987 0.0004
vn 0.9529 0.0624 -0.2969
vn 0.0005 1.0000 0.0029
vn 0.0705 0.9975 -0.0004
vn 0.0434 0.9991 0.0017
vn -0.0386 0.9987 -0.0331
vn 0.0005 0.2999 -0.9540
vn -0.7475 0.1157 0.6541
vn -0.4821 0.1763 0.8582
vn -0.4786 0.1766 -0.8601
vn -0.9131 0.0050 -0.4078
vn -0.9999 0.0113 -0.0083
vn -0.9445 0.0507 0.3246
vn 0.0005 0.3010 -0.9536
vn -0.0588 0.9979 -0.0257
vn -0.0335 0.9983 -0.0483
vn -0.2184 0.2386 0.9462
vn -0.0502 0.9987 0.0034
vn -0.9547 -0.0254 -0.2965
vn -0.0632 0.9980 0.0035
vn -0.0434 0.9991 0.0018
vn -0.0798 0.9553 0.2848
vn 0.3940 0.9191 0.0007
vn 0.2919 0.9242 -0.2462
vn -0.4506 0.8927 0.0017
vn -0.0000 0.0479 -0.9989
vn -0.0005 0.0686 0.9976
vn -0.0023 0.0537 -0.9986
vn 0.1139 0.0671 0.9912
vn 0.7280 0.1658 -0.6652
vn 0.6791 0.1458 0.7194
vn -0.0032 0.0676 -0.9977
vn 0.2334 0.0871 0.9685
vn 0.9616 0.1704 0.2153
vn 0.0023 0.0537 -0.9986
vn -0.1143 0.0669 0.9912
vn -0.7280 0.1657 -0.6653
vn -0.6791 0.1456 0.7194
vn 0.0032 0.0676 -0.9977
vn -0.2334 0.0870 0.9685
vn -0.9616 0.1702 0.2153
vt 0.058256 0.758377
vt 0.067360 0.781620
vt 0.043303 0.774421
vt 0.057419 0.758210
vt 0.059003 0.758194
vt 0.059168 0.758140
vt 0.059171 0.758151
vt 0.059037 0.758207
vt 0.099379 0.745881
vt 0.104949 0.740240
vt 0.100046 0.747099
vt 0.057215 0.757777
vt 0.038560 0.766043
vt 0.037280 0.758428
vt 0.057200 0.757383
vt 0.104949 0.756041
vt 0.100049 0.749182
vt 0.100429 0.748143
vt 0.092050 0.745061
vt 0.092421 0.745703
vt 0.091942 0.746329
vt 0.091437 0.745883
vt 0.098515 0.747470
vt 0.098261 0.746478
vt 0.098666 0.745230
vt 0.097980 0.745764
vt 0.096944 0.745161
vt 0.097399 0.744129
vt 0.093499 0.743919
vt 0.093822 0.744825
vt 0.096026 0.737970
vt 0.100918 0.740782
vt 0.100099 0.741280
vt 0.095657 0.739525
vt 0.096466 0.971281
vt 0.078967 0.946834
vt 0.086103 0.945450
vt 0.071857 0.758657
vt 0.080026 0.758657
vt 0.080026 0.766826
vt 0.071857 0.766826
vt 0.091705 0.746894
vt 0.091097 0.746595
vt 0.090880 0.747346
vt 0.091588 0.747499
vt 0.091553 0.748133
vt 0.090825 0.748139
vt 0.130929 0.861903
vt 0.143996 0.868654
vt 0.139784 0.876126
vt 0.129507 0.869855
vt 0.098024 0.732101
vt 0.117047 0.859346
vt 0.117457 0.867109
vt 0.047350 0.735283
vt 0.055519 0.735283
vt 0.055519 0.742319
vt 0.047350 0.742319
vt 0.098574 0.748123
vt 0.088002 0.748139
vt 0.075296 0.748138
vt 0.078261 0.740056
vt 0.088200 0.746367
vt 0.133019 0.983342
vt 0.125706 0.985058
vt 0.124346 0.977289
vt 0.131737 0.975405
vt 0.088976 0.744738
vt 0.085447 0.734846
vt 0.091091 0.739710
vt 0.090164 0.743315
vt 0.103377 0.860725
vt 0.104658 0.867765
vt 0.117968 0.986309
vt 0.105150 0.986269
vt 0.104185 0.978101
vt 0.116467 0.978417
vt 0.144981 0.978404
vt 0.143097 0.970409
vt 0.092333 0.741415
vt 0.092008 0.742004
vt 0.095352 0.743537
vt 0.095312 0.744696
vt 0.063688 0.735283
vt 0.063688 0.742319
vt 0.055519 0.750488
vt 0.063688 0.750488
vt 0.063688 0.758657
vt 0.055519 0.758657
vt 0.061287 0.931175
vt 0.061287 0.901220
vt 0.070061 0.903382
vt 0.069308 0.929093
vt 0.156439 0.881732
vt 0.166914 0.909751
vt 0.158674 0.910924
vt 0.148998 0.887217
vt 0.069136 0.952435
vt 0.075753 0.947815
vt 0.166884 0.932732
vt 0.159051 0.930994
vt 0.047350 0.750488
vt 0.047350 0.758657
vt 0.047350 0.782032
vt 0.055519 0.782032
vt 0.055519 0.791333
vt 0.047350 0.791333
vt 0.058283 0.757797
vt 0.058267 0.758100
vt 0.047350 0.767958
vt 0.055519 0.767958
vt 0.055519 0.774995
vt 0.047350 0.774995
vt 0.063025 0.760799
vt 0.075282 0.774526
vt 0.058831 0.758280
vt 0.928895 0.942215
vt 0.927840 0.924366
vt 0.930492 0.924277
vt 0.931442 0.941324
vt 0.058744 0.758238
vt 0.944007 0.923828
vt 0.954547 0.923472
vt 0.954012 0.939679
vt 0.944042 0.940061
vt 0.944439 0.947969
vt 0.952575 0.947737
vt 0.950226 0.952842
vt 0.944853 0.955755
vt 0.957230 0.923387
vt 0.956612 0.940552
vt 0.065574 0.758242
vt 0.062144 0.758142
vt 0.062204 0.758094
vt 0.061598 0.759385
vt 0.061279 0.758821
vt 0.061980 0.758125
vt 0.062032 0.758178
vt 0.061286 0.757980
vt 0.061966 0.758009
vt 0.945279 0.958532
vt 0.933355 0.957995
vt 0.934553 0.955757
vt 0.062071 0.758152
vt 0.062055 0.758089
vt 0.062146 0.758085
vt 0.062156 0.758115
vt 0.062242 0.758060
vt 0.062151 0.758139
vt 0.062158 0.758114
vt 0.062247 0.758065
vt 0.930303 0.950701
vt 0.932599 0.949327
vt 0.062229 0.758060
vt 0.951719 0.955178
vt 0.058566 0.757120
vt 0.057865 0.756906
vt 0.042016 0.741987
vt 0.065544 0.732101
vt 0.059074 0.757669
vt 0.059102 0.757668
vt 0.059226 0.757735
vt 0.059225 0.757763
vt 0.099380 0.750400
vt 0.057473 0.757063
vt 0.038483 0.750912
vt 0.092049 0.751219
vt 0.091437 0.750396
vt 0.091942 0.749950
vt 0.092421 0.750576
vt 0.098261 0.749802
vt 0.098515 0.748808
vt 0.098666 0.751050
vt 0.097398 0.752151
vt 0.096943 0.751119
vt 0.097979 0.750516
vt 0.093498 0.752360
vt 0.093822 0.751454
vt 0.096025 0.758310
vt 0.095656 0.756755
vt 0.100098 0.755001
vt 0.100918 0.755499
vt 0.094404 0.982434
vt 0.096802 0.975210
vt 0.063688 0.766826
vt 0.071857 0.774995
vt 0.063688 0.774995
vt 0.081701 0.969527
vt 0.086925 0.964497
vt 0.091097 0.749684
vt 0.091705 0.749385
vt 0.090880 0.748932
vt 0.091589 0.748780
vt 0.098022 0.764181
vt 0.153707 0.970699
vt 0.148994 0.964884
vt 0.063688 0.767958
vt 0.088200 0.749912
vt 0.078260 0.756221
vt 0.088975 0.751541
vt 0.090163 0.752964
vt 0.091090 0.756569
vt 0.085444 0.761432
vt 0.161136 0.953788
vt 0.154528 0.951144
vt 0.068178 0.884188
vt 0.074714 0.889453
vt 0.092007 0.754275
vt 0.092332 0.754864
vt 0.095351 0.752743
vt 0.095312 0.751584
vt 0.063688 0.782032
vt 0.063688 0.791333
vt 0.089922 0.864904
vt 0.092253 0.872269
vt 0.077937 0.872739
vt 0.082049 0.879561
vt 0.039181 0.767958
vt 0.039181 0.774995
vt 0.080026 0.774995
vt 0.058446 0.757381
vt 0.058318 0.757652
vt 0.063224 0.754698
vt 0.075282 0.738858
vt 0.058945 0.757601
vt 0.927840 0.906866
vt 0.930434 0.907584
vt 0.058872 0.757539
vt 0.943085 0.907999
vt 0.953058 0.907711
vt 0.943008 0.900081
vt 0.942956 0.892285
vt 0.948492 0.894831
vt 0.951140 0.899765
vt 0.955601 0.906665
vt 0.062202 0.758005
vt 0.061639 0.756391
vt 0.062112 0.757906
vt 0.062037 0.757923
vt 0.061228 0.757045
vt 0.943215 0.889486
vt 0.932680 0.892975
vt 0.931351 0.890822
vt 0.062125 0.757941
vt 0.062160 0.758004
vt 0.062139 0.758013
vt 0.062083 0.757976
vt 0.062183 0.758040
vt 0.062177 0.758043
vt 0.062166 0.758008
vt 0.062187 0.758002
vt 0.928740 0.898304
vt 0.931113 0.899520
vt 0.062192 0.758041
vt 0.949842 0.892400
vt 0.031012 0.767958
vt 0.031012 0.774995
vt 0.031012 0.758657
vt 0.039181 0.758657
vt 0.055519 0.725981
vt 0.063688 0.725981
vt 0.047350 0.725981
vt 0.150522 0.913075
vt 0.140360 0.881822
vt 0.155085 0.911893
vt 0.126090 0.918346
vt 0.118108 0.872889
vt 0.129849 0.874815
vt 0.138322 0.915749
vt 0.114298 0.920772
vt 0.105761 0.873841
vt 0.117671 0.939574
vt 0.126770 0.937660
vt 0.138116 0.935179
vt 0.149001 0.932860
vt 0.154516 0.931719
vt 0.147981 0.960989
vt 0.130364 0.969059
vt 0.140770 0.964731
vt 0.123208 0.970904
vt 0.077772 0.927873
vt 0.072538 0.928672
vt 0.076193 0.894821
vt 0.102213 0.923185
vt 0.089998 0.925549
vt 0.083575 0.885078
vt 0.093644 0.877714
vt 0.108270 0.941364
vt 0.096913 0.943432
vt 0.104432 0.972015
vt 0.115597 0.972017
vt 0.062174 0.758047
vt 0.953356 0.898110
vt 0.062172 0.758055
vt 0.062175 0.758057
vt 0.062173 0.758052
vt 0.062204 0.758046
vt 0.062180 0.758066
vt 0.062245 0.758067
vt 0.954885 0.949241
vt 0.062229 0.758074
vt 0.062235 0.758070
vt 0.062243 0.758069
s 1
f 63/1/63 64/2/64 2/3/2 1/4/1
f 91/5/10 10/6/10 3/7/3 89/8/86
f 42/9/42 13/10/13 50/11/50
f 7/12/7 9/13/9 5/14/5 4/15/4
f 1/4/1 2/3/2 9/13/9 7/12/7
f 109/16/101 146/17/138 45/18/45
f 41/19/41 12/20/12 25/21/25 47/22/47
f 50/11/50 27/23/27 17/24/17 42/9/42
f 48/25/48 26/26/26 16/27/16 44/28/44
f 51/29/51 34/30/34 12/20/12 41/19/41
f 60/31/60 24/32/24 15/33/15 53/34/53
f 151/35/143 55/36/55 225/37/210
f 102/38/95 61/39/61 155/40/147 117/41/109
f 47/22/47 25/21/25 14/42/14 43/43/43
f 49/44/49 28/45/28 20/46/20 46/47/46
f 14/48/14 25/49/25 198/50/183 199/51/184
f 57/52/57 13/10/13 24/32/24 60/31/60
f 42/9/42 17/24/17 26/26/26 48/25/48
f 43/43/43 14/42/14 28/45/28 49/44/49
f 28/53/28 14/48/14 199/51/184 205/54/190
f 150/55/142 193/56/178 102/57/95 157/58/149
f 45/18/45 22/59/22 27/23/27 50/11/50
f 19/60/19 36/61/36 40/62/40 30/63/30
f 27/64/27 22/65/22 208/66/193 204/67/189
f 18/68/18 31/69/31 38/70/38 23/71/23
f 20/72/20 28/53/28 205/54/190 206/73/191
f 123/74/115 113/75/105 217/76/202 224/77/209
f 30/63/30 40/62/40 31/69/31 18/68/18
f 17/78/17 27/64/27 204/67/189 197/79/182
f 23/71/23 38/70/38 33/80/33 11/81/11
f 62/82/62 58/83/58 34/30/34 51/29/51
f 53/34/53 62/82/62 51/29/51 33/80/33
f 193/56/178 131/84/123 61/85/61 102/57/95
f 18/68/18 43/43/43 49/44/49 30/63/30
f 13/10/13 42/9/42 48/25/48 24/32/24
f 30/63/30 49/44/49 46/47/46 19/60/19
f 23/71/23 47/22/47 43/43/43 18/68/18
f 33/80/33 51/29/51 41/19/41 11/81/11
f 24/32/24 48/25/48 44/28/44 15/33/15
f 115/86/107 161/87/153 168/88/156 186/89/173
f 11/81/11 41/19/41 47/22/47 23/71/23
f 15/33/15 44/28/44 62/82/62 53/34/53
f 44/28/44 16/27/16 58/83/58 62/82/62
f 130/90/122 108/91/100 223/92/208 222/93/207
f 12/94/12 34/95/34 202/96/187 203/97/188
f 154/98/146 130/90/122 222/93/207 229/99/214
f 34/95/34 58/100/58 212/101/197 202/96/187
f 141/102/133 115/86/107 186/89/173 59/103/59
f 31/69/31 57/52/57 60/31/60 38/70/38
f 195/104/180 194/105/179 169/106/157 29/107/29
f 38/70/38 60/31/60 53/34/53 33/80/33
f 4/15/4 66/108/10 68/109/10 7/12/7
f 131/110/123 142/111/134 155/112/147 61/113/61
f 71/114/69 67/115/66 64/2/64
f 7/12/7 68/109/10 63/1/63 1/4/1
f 69/116/67 71/114/69 64/2/64 63/1/63
f 238/117/223 236/118/221 74/119/71 75/120/72
f 68/109/10 72/121/10 69/116/67 63/1/63
f 92/122/66 73/123/70 76/124/73 93/125/66
f 98/126/66 85/127/82 81/128/78 95/129/89
f 237/130/222 239/131/224 76/124/73 73/123/70
f 70/132/68 71/114/69 80/133/77 79/134/76
f 90/135/87 8/136/8 78/137/75 94/138/88
f 8/136/8 6/139/6 77/140/74 78/137/75
f 244/141/229 240/142/225 82/143/79 95/129/89
f 97/144/91 87/145/84 83/146/80 96/147/90
f 243/148/228 88/149/85 84/150/81 241/151/226
f 242/152/227 86/153/83 82/143/79 240/142/225
f 238/117/223 75/120/72 86/153/83 242/152/227
f 239/154/224 80/133/77 88/149/85 243/148/228
f 94/138/88 78/137/75 87/145/84 97/144/91
f 93/125/66 76/124/73 85/127/82 98/126/66
f 75/120/72 93/125/66 98/126/66 86/153/83
f 80/133/77 94/138/88 97/144/91 88/149/85
f 88/149/85 97/144/91 96/147/90 84/150/81
f 241/155/226 244/141/229 95/129/89 81/128/78
f 71/114/69 90/135/87 94/138/88 80/133/77
f 86/153/83 98/126/66 95/129/89 82/143/79
f 74/119/71 92/122/66 93/125/66 75/120/72
f 90/135/87 71/114/69 69/116/67 89/8/86
f 72/121/10 91/5/10 89/8/86 69/116/67
f 3/7/3 8/136/8 90/135/87 89/8/86
f 159/156/151 99/157/92 100/158/93 160/159/152
f 185/160/10 183/161/171 101/162/94 106/163/10
f 138/164/130 146/17/138 109/16/101
f 103/165/96 4/15/4 5/14/5 105/166/98
f 99/157/92 103/165/96 105/166/98 100/158/93
f 50/11/50 13/10/13 45/18/45
f 137/167/129 143/168/135 121/169/113 108/170/100
f 146/17/138 138/164/130 113/171/105 123/172/115
f 144/173/136 140/174/132 112/175/104 122/176/114
f 147/177/139 137/167/129 108/170/100 130/178/122
f 156/179/148 149/180/141 111/181/103 120/182/112
f 113/75/105 122/183/114 220/184/205 217/76/202
f 132/185/124 117/41/109 172/186/160 65/187/65
f 122/183/114 112/188/104 221/189/206 220/184/205
f 143/168/135 139/190/131 110/191/102 121/169/113
f 145/192/137 46/47/46 20/46/20 124/193/116
f 112/188/104 154/98/146 229/99/214 221/189/206
f 153/194/145 156/179/148 120/182/112 109/16/101
f 138/164/130 144/173/136 122/176/114 113/171/105
f 139/190/131 145/192/137 124/193/116 110/191/102
f 26/195/26 17/78/17 197/79/182 200/196/185
f 142/111/134 116/197/108 125/187/117 155/112/147
f 45/18/45 146/17/138 123/172/115 22/59/22
f 19/60/19 126/198/118 136/199/128 36/61/36
f 22/65/22 123/74/115 224/77/209 208/66/193
f 114/200/106 119/201/111 134/202/126 127/203/119
f 58/100/58 16/204/16 201/205/186 212/101/197
f 16/204/16 26/195/26 200/196/185 201/205/186
f 126/198/118 114/200/106 127/203/119 136/199/128
f 108/91/100 121/206/113 218/207/203 223/92/208
f 119/201/111 107/208/99 129/209/121 134/202/126
f 158/210/150 147/177/139 130/178/122 154/211/146
f 149/180/141 129/209/121 147/177/139 158/210/150
f 194/105/179 116/212/108 21/213/21 169/106/157
f 114/200/106 126/198/118 145/192/137 139/190/131
f 109/16/101 120/182/112 144/173/136 138/164/130
f 126/198/118 19/60/19 46/47/46 145/192/137
f 119/201/111 114/200/106 139/190/131 143/168/135
f 129/209/121 107/208/99 137/167/129 147/177/139
f 120/182/112 111/181/103 140/174/132 144/173/136
f 109/16/101 45/18/45 13/10/13
f 107/208/99 119/201/111 143/168/135 137/167/129
f 111/181/103 149/180/141 158/210/150 140/174/132
f 140/174/132 158/210/150 154/211/146 112/175/104
f 124/214/116 20/72/20 206/73/191 227/215/212
f 121/206/113 110/216/102 219/217/204 218/207/203
f 25/49/25 12/94/12 203/97/188 198/50/183
f 110/216/102 124/214/116 227/215/212 219/217/204
f 118/218/110 150/110/142 157/113/149 132/219/124
f 127/203/119 134/202/126 156/179/148 153/194/145
f 117/41/109 155/40/147 125/220/117 172/186/160
f 134/202/126 129/209/121 149/180/141 156/179/148
f 4/15/4 103/165/96 164/221/10 162/222/10
f 157/88/149 102/38/95 117/41/109 132/185/124
f 166/223/155 160/159/152 163/224/66
f 103/165/96 99/157/92 159/156/151 164/221/10
f 165/225/154 159/156/151 160/159/152 166/223/155
f 245/226/230 170/227/158 74/119/71 236/118/221
f 164/221/10 159/156/151 165/225/154 167/228/10
f 92/122/66 187/229/66 171/230/159 73/123/70
f 192/231/66 189/232/175 175/233/163 179/234/167
f 237/130/222 73/123/70 171/230/159 246/235/231
f 70/132/68 79/134/76 174/236/162 166/223/155
f 184/237/172 188/238/174 173/239/161 104/240/97
f 104/240/97 173/239/161 77/140/74 6/139/6
f 251/241/236 189/232/175 176/242/164 247/243/232
f 191/244/177 190/245/176 177/246/165 181/247/169
f 250/248/235 248/249/233 178/250/166 182/251/170
f 249/252/234 247/243/232 176/242/164 180/253/168
f 245/226/230 249/252/234 180/253/168 170/227/158
f 246/254/231 250/248/235 182/251/170 174/236/162
f 188/238/174 191/244/177 181/247/169 173/239/161
f 187/229/66 192/231/66 179/234/167 171/230/159
f 170/227/158 180/253/168 192/231/66 187/229/66
f 174/236/162 182/251/170 191/244/177 188/238/174
f 182/251/170 178/250/166 190/245/176 191/244/177
f 248/255/233 175/233/163 189/232/175 251/241/236
f 166/223/155 174/236/162 188/238/174 184/237/172
f 180/253/168 176/242/164 189/232/175 192/231/66
f 74/119/71 170/227/158 187/229/66 92/122/66
f 184/237/172 183/161/171 165/225/154 166/223/155
f 167/228/10 165/225/154 183/161/171 185/160/10
f 101/162/94 183/161/171 184/237/172 104/240/97
f 195/256/180 118/218/110 132/219/124 65/257/65
f 29/58/29 169/57/157 115/86/107 141/102/133
f 169/57/157 21/85/21 161/87/153 115/86/107
f 71/114/69 70/132/68 67/115/66
f 166/223/155 163/224/66 70/132/68
f 70/132/68 163/224/66 67/115/66
f 4/15/4 162/222/10 66/108/10
f 68/109/10 66/108/10 72/121/10
f 164/221/10 167/228/10 162/222/10
f 162/222/10 167/228/10 72/121/10 66/108/10
f 72/121/10 167/228/10 185/160/10 91/5/10
f 91/5/10 185/160/10 106/163/10 10/6/10
f 3/7/3 101/162/94 104/240/97 8/136/8
f 8/136/8 104/240/97 6/139/6
f 29/258/29 141/259/133 118/218/110 195/256/180
f 141/259/133 59/103/59 150/110/142 118/218/110
f 172/112/160 125/187/117 116/212/108 194/105/179
f 161/89/153 21/88/21 116/197/108 142/111/134
f 168/103/156 161/89/153 142/111/134 131/110/123
f 65/113/65 172/112/160 194/105/179 195/104/180
f 186/260/173 168/261/156 131/84/123 193/56/178
f 59/262/59 186/260/173 193/56/178 150/55/142
f 214/263/199 54/264/54 233/265/218
f 215/266/200 39/267/39 135/268/127 211/269/196
f 211/269/196 135/268/127 54/264/54 214/263/199
f 213/270/198 128/271/120 39/267/39 215/266/200
f 207/272/192 213/270/198 215/266/200 210/273/195
f 196/274/181 211/269/196 214/263/199 209/275/194
f 210/273/195 215/266/200 211/269/196 196/274/181
f 209/275/194 214/263/199 233/265/218 133/276/125
f 200/196/185 234/277/219 133/276/125 212/101/197 201/205/186
f 204/67/189 152/278/144 148/279/140 197/79/182
f 197/79/182 148/279/140 234/277/219 200/196/185
f 208/66/193 32/280/32 152/278/144 204/67/189
f 230/281/215 235/282/220 35/283/35
f 231/284/216 228/285/213 52/286/52 232/287/217
f 228/285/213 230/281/215 35/283/35 52/286/52
f 213/270/198 231/284/216 232/287/217 128/271/120
f 207/272/192 226/288/211 231/284/216 213/270/198
f 216/289/201 225/37/210 230/281/215 228/285/213
f 226/288/211 216/289/201 228/285/213 231/284/216
f 225/37/210 55/36/55 235/282/220 230/281/215
f 220/184/205 221/189/206 229/99/214 55/36/55 151/35/143
f 224/77/209 217/76/202 37/290/37 56/291/56
f 217/76/202 220/184/205 151/35/143 37/290/37
f 208/66/193 224/77/209 56/291/56 32/280/32
f 54/264/54 135/268/127 199/51/184 198/50/183
f 56/291/56 37/290/37 216/289/201 226/288/211
f 39/267/39 128/271/120 206/73/191 205/54/190
f 37/290/37 151/35/143 225/37/210 216/289/201
f 32/280/32 56/291/56 226/288/211 207/272/192
f 133/276/125 233/265/218 202/96/187 212/101/197
f 133/276/125 234/277/219 209/275/194
f 148/279/140 152/278/144 210/273/195 196/274/181
f 234/277/219 148/279/140 196/274/181 209/275/194
f 152/278/144 32/280/32 207/272/192 210/273/195
f 35/283/35 235/282/220 222/93/207 223/92/208 218/207/203
f 232/287/217 52/286/52 219/217/204 227/215/212
f 52/286/52 35/283/35 218/207/203 219/217/204
f 128/271/120 232/287/217 227/215/212 206/73/191
f 233/265/218 54/264/54 198/50/183 203/97/188 202/96/187
f 235/282/220 55/36/55 229/99/214 222/93/207
f 135/268/127 39/267/39 205/54/190 199/51/184
f 178/250/166 248/249/233 251/292/236 190/245/176
f 171/230/159 179/234/167 250/293/235 246/235/231
f 173/239/161 181/247/169 249/294/234 245/295/230
f 181/247/169 177/246/165 247/296/232 249/294/234
f 179/234/167 175/233/163 248/255/233 250/293/235
f 190/245/176 251/292/236 247/296/232 177/246/165
f 79/134/76 237/297/222 246/254/231 174/236/162
f 173/239/161 245/295/230 236/298/221 77/140/74
f 84/150/81 96/147/90 244/299/229 241/151/226
f 76/124/73 239/131/224 243/300/228 85/127/82
f 78/137/75 238/301/223 242/302/227 87/145/84
f 87/145/84 242/302/227 240/303/225 83/146/80
f 85/127/82 243/300/228 241/155/226 81/128/78
f 96/147/90 83/146/80 240/303/225 244/299/229
f 79/134/76 80/133/77 239/154/224 237/297/222
f 78/137/75 77/140/74 236/298/221 238/301/223
