# Blender 5.0.0
# www.blender.org
o Television
v -1.891894 0.502843 0.002091
v -1.891894 2.502843 0.002091
v -1.802916 0.549689 -0.298204
v -1.802916 2.455998 -0.298204
v 1.906921 0.502843 0.002091
v 1.906921 2.502843 0.002091
v 1.817943 0.549689 -0.298204
v 1.817943 2.455998 -0.298204
v -1.891894 2.502843 -0.298204
v -1.891894 0.502843 -0.298204
v 1.906921 0.502843 -0.298204
v 1.906921 2.502843 -0.298204
v -1.802916 2.455998 -0.246701
v -1.802916 0.549689 -0.246701
v 1.817943 0.549689 -0.246701
v 1.817943 2.455998 -0.246701
v 0.341391 0.864095 -0.159515
v 0.341391 0.084375 -0.159515
v 0.341391 0.864095 0.159513
v 0.341391 0.084375 0.159513
v -0.341380 0.864095 -0.159515
v -0.341380 0.084375 -0.159515
v -0.341380 0.864095 0.159513
v -0.341380 0.084375 0.159513
v 0.721140 0.112031 -0.249399
v 0.721140 0.000000 -0.249399
v 0.721140 0.112031 0.249399
v 0.721140 0.000000 0.249399
v -0.721140 0.112031 -0.249399
v -0.721140 0.000000 -0.249399
v -0.721140 0.112031 0.249399
v -0.721140 0.000000 0.249399
vn -1.0000 -0.0000 -0.0000
vn 1.0000 -0.0000 -0.0000
vn -0.0000 -0.0000 1.0000
vn -0.0000 -1.0000 -0.0000
vn -0.0000 1.0000 -0.0000
vn -0.0000 -0.0000 -1.0000
vt 0.054599 0.261278
vt 0.066538 0.261278
vt 0.066538 0.273217
vt 0.054599 0.273217
vt 0.054879 0.273497
vt 0.066258 0.273497
vt 0.054599 0.285156
vt 0.066538 0.285156
vt 0.066538 0.297095
vt 0.054599 0.297095
vt 0.066538 0.309034
vt 0.054599 0.309034
vt 0.042660 0.285156
vt 0.042660 0.297095
vt 0.078477 0.285156
vt 0.078477 0.297095
vt 0.054879 0.284877
vt 0.066258 0.284877
vt 0.958869 0.267284
vt 0.864577 0.267284
vt 0.864577 0.088184
vt 0.958869 0.088184
vt 0.042690 0.223607
vt 0.042690 0.242406
vt 0.061489 0.242406
vt 0.061489 0.223607
vt 0.042690 0.261205
vt 0.061489 0.261205
vt 0.042690 0.280005
vt 0.061489 0.280005
vt 0.042690 0.298804
vt 0.061489 0.298804
vt 0.023891 0.261205
vt 0.023891 0.280005
vt 0.080288 0.280005
vt 0.080288 0.261205
vt 0.168086 0.262100
vt 0.168086 0.269722
vt 0.175708 0.269722
vt 0.175708 0.262100
vt 0.168086 0.277344
vt 0.175708 0.277344
vt 0.168086 0.284966
vt 0.175708 0.284966
vt 0.168086 0.292588
vt 0.175708 0.292588
vt 0.160464 0.277344
vt 0.160464 0.284966
vt 0.183330 0.284966
vt 0.183330 0.277344
s 0
f 1/1/1 2/2/1 9/3/1 10/4/1
f 3/5/2 4/6/2 13/6/2 14/5/2
f 11/7/2 12/8/2 6/9/2 5/10/2
f 5/10/3 6/9/3 2/11/3 1/12/3
f 10/13/4 11/7/4 5/10/4 1/14/4
f 12/8/5 9/15/5 2/16/5 6/9/5
f 4/6/6 3/5/6 10/4/6 9/3/6
f 3/5/6 7/17/6 11/7/6 10/4/6
f 8/18/6 4/6/6 9/3/6 12/8/6
f 7/17/6 8/18/6 12/8/6 11/7/6
f 14/19/6 13/20/6 16/21/6 15/22/6
f 8/18/1 7/17/1 15/17/1 16/18/1
f 7/17/5 3/5/5 14/5/5 15/17/5
f 4/6/4 8/18/4 16/18/4 13/6/4
f 17/23/2 19/24/2 20/25/2 18/26/2
f 19/24/3 23/27/3 24/28/3 20/25/3
f 23/27/1 21/29/1 22/30/1 24/28/1
f 21/29/6 17/31/6 18/32/6 22/30/6
f 19/33/5 17/34/5 21/29/5 23/27/5
f 24/28/4 22/30/4 18/35/4 20/36/4
f 25/37/2 27/38/2 28/39/2 26/40/2
f 27/38/3 31/41/3 32/42/3 28/39/3
f 31/41/1 29/43/1 30/44/1 32/42/1
f 29/43/6 25/45/6 26/46/6 30/44/6
f 27/47/5 25/48/5 29/43/5 31/41/5
f 32/42/4 30/44/4 26/49/4 28/50/4
