# Blender 5.0.0
# www.blender.org
o Plane.001
v 0.152112 -0.332802 1.880952
v 0.206131 -0.332802 -0.119451
v 0.152112 5.089431 1.880952
v 0.206131 5.089431 -0.130745
v 0.152112 -0.332802 0.776307
v 0.152112 5.089431 0.776307
v 0.234672 5.089431 1.279032
v 0.234672 -0.332802 1.279032
v 0.113597 -0.332802 0.336264
v 0.113597 5.089431 0.336264
v 0.214120 5.089431 1.646956
v 0.214119 -0.332802 1.646956
v 0.244007 -0.332802 1.073720
v 0.244007 5.089431 1.073720
v 0.155389 5.089431 0.558970
v 0.155389 -0.332802 0.558970
v 0.096549 -0.332802 0.124656
v 0.211808 5.089431 0.124656
v 0.314191 5.089431 1.744201
v 0.314191 -0.332802 1.744201
v 0.109961 -0.332802 1.460157
v 0.199034 5.089431 1.460157
v 0.331223 5.089431 1.158157
v 0.331223 -0.332802 1.158157
v 0.115429 -0.332802 0.889073
v 0.246363 5.084222 0.839299
v 0.269548 5.089431 0.636732
v 0.269548 -0.332802 0.636732
v 0.083158 -0.332802 0.426657
v 0.237124 5.089431 0.439571
v 0.241871 5.089431 0.273653
v 0.241871 -0.332802 0.273653
v 0.077081 -0.332802 0.003854
v 0.192339 5.089431 0.003854
v 0.213023 5.089431 1.553557
v 0.123950 -0.332802 1.553557
v 0.297407 -0.332802 1.695579
v 0.297408 5.089431 1.695579
v 0.278943 5.089431 1.812576
v 0.278943 -0.332802 1.812576
v 0.306281 5.089431 1.218594
v 0.306281 -0.332802 1.218594
v 0.131036 -0.332802 1.369595
v 0.220110 5.089431 1.369595
v 0.267637 5.084222 0.931622
v 0.136703 -0.332802 0.981396
v 0.320731 -0.332802 1.115938
v 0.320731 5.089431 1.115938
v 0.265876 5.089431 0.703964
v 0.265876 -0.332802 0.703964
v 0.238263 -0.332802 0.609322
v 0.238263 5.089431 0.609322
v 0.258401 5.089431 0.505728
v 0.104435 -0.332802 0.492813
v 0.220378 5.089431 0.304959
v 0.220377 -0.332802 0.304959
v 0.230927 -0.332802 0.230373
v 0.230927 5.089431 0.230373
v 0.115720 -0.332802 -0.074951
v 0.230979 5.089431 -0.086245
v 0.098378 -0.332802 0.381460
v 0.252343 5.089431 0.394375
v 0.194733 -0.332802 0.182084
v 0.194733 5.089431 0.182084
v 0.087646 5.066147 -0.050368
v -0.087645 -0.000000 -0.050368
v 0.006441 5.066147 1.898799
v -0.087645 -0.000000 1.898799
v 0.006441 4.860486 -0.050368
v -0.087645 -0.000000 0.151108
v 0.006441 5.066147 0.151108
v -0.127734 4.860486 0.151108
v 0.087646 4.963316 -0.050368
v 0.006441 4.963316 1.898799
v 0.006441 4.963316 0.151108
v -0.087645 -0.000000 0.050370
v 0.006441 4.860486 0.050370
v 0.087646 5.066147 0.050370
v 0.087646 4.963316 0.050370
v 0.087645 -0.000000 -0.050368
v 0.006441 -0.000000 1.898799
v 0.006441 -0.000000 0.151108
v 0.087645 -0.000000 0.050370
v 0.006441 0.246594 -0.050368
v -0.127734 0.246594 0.151108
v 0.006441 0.246594 0.050370
v 0.087645 0.123297 -0.050368
v 0.006441 0.123297 1.898799
v 0.006441 0.123297 0.151108
v 0.087645 0.123297 0.050370
v 0.006441 3.494385 -0.050368
v -0.127734 3.494385 0.151108
v 0.006441 3.494385 0.050370
v 0.006441 3.350640 -0.050368
v -0.127734 3.350640 0.151108
v 0.006441 3.350640 0.050370
v 0.006441 5.066147 1.856432
v -0.087645 -0.000000 1.856432
v -0.127734 4.860486 1.856432
v 0.006441 4.963316 1.856432
v 0.006441 -0.000000 1.856432
v -0.127734 0.246594 1.856432
v 0.006441 0.123297 1.856432
v -0.127734 3.494385 1.856432
v -0.127734 3.350640 1.856432
v 0.006441 1.798617 -0.050368
v -0.127734 1.798617 0.151108
v 0.006441 1.798617 0.050370
v -0.127734 1.798617 1.856432
v 0.006441 1.679971 -0.050368
v -0.127734 1.679971 0.151108
v 0.006441 1.679971 0.050370
v -0.127734 1.679971 1.856432
v -0.019541 3.493771 1.898799
v -0.019541 4.859871 1.898799
v 0.004234 4.962702 1.898799
v 0.008732 0.122683 1.898799
v -0.019541 0.245980 1.898799
v -0.019541 3.350026 1.898799
v -0.019541 1.798003 1.898799
v -0.019541 4.859871 1.856432
v 0.004234 4.962702 1.856432
v -0.019541 0.245980 1.856432
v 0.008732 0.122683 1.856432
v -0.019541 3.493771 1.856432
v -0.019541 3.350026 1.856432
v -0.019541 1.798003 1.856432
v -0.019541 1.679357 1.898799
v -0.019541 1.679357 1.856432
v -0.014390 3.350640 0.207744
v -0.014390 3.494385 0.207744
v 0.001617 3.350640 0.107006
v 0.001617 3.494385 0.107006
v -0.014390 3.494385 1.861737
v -0.014390 3.350640 1.861737
v -0.014390 1.679971 0.207744
v -0.014390 1.798617 0.207744
v 0.002222 1.679971 0.107006
v 0.002222 1.798617 0.107006
v -0.014390 1.679971 1.863839
v -0.014390 1.798617 1.863839
v 0.087646 5.066147 3.847967
v -0.087645 -0.000000 3.847967
v 0.006441 4.860486 3.847967
v -0.087645 -0.000000 3.646491
v 0.006441 5.066147 3.646491
v -0.127734 4.860486 3.646491
v 0.087646 4.963316 3.847967
v 0.006441 4.963316 3.646491
v -0.087645 -0.000000 3.747229
v 0.006441 4.860486 3.747229
v 0.087646 5.066147 3.747229
v 0.087646 4.963316 3.747229
v 0.087645 -0.000000 3.847967
v 0.006441 -0.000000 3.646491
v 0.087645 -0.000000 3.747229
v 0.006441 0.246594 3.847967
v -0.127734 0.246594 3.646491
v 0.006441 0.246594 3.747229
v 0.087645 0.123297 3.847967
v 0.006441 0.123297 3.646491
v 0.087645 0.123297 3.747229
v 0.006441 3.494385 3.841059
v -0.127734 3.494385 3.646491
v 0.006441 3.494385 3.747229
v 0.032894 3.254758 3.843260
v -0.127734 3.350640 3.646491
v 0.006441 3.350640 3.747229
v 0.006441 5.066147 1.941167
v -0.087645 -0.000000 1.941167
v -0.127734 4.860486 1.941167
v 0.006441 4.963316 1.941167
v 0.006441 -0.000000 1.941167
v -0.127734 0.246594 1.941167
v 0.006441 0.123297 1.941167
v -0.127734 3.494385 1.941167
v -0.127734 3.350640 1.941167
v 0.032894 1.702735 3.843260
v -0.127734 1.798617 3.646491
v 0.006441 1.798617 3.747229
v -0.127734 1.798617 1.941167
v 0.006441 1.679971 3.847967
v -0.127734 1.679971 3.646491
v 0.006441 1.679971 3.747229
v -0.127734 1.679971 1.941167
v -0.019541 4.859871 1.941167
v 0.004234 4.962702 1.941167
v -0.019541 0.245980 1.941167
v 0.008732 0.122683 1.941167
v -0.019541 3.493771 1.941167
v -0.019541 3.350026 1.941167
v -0.019541 1.798003 1.941167
v -0.019541 1.679357 1.941167
v -0.014390 3.350640 3.589855
v -0.014390 3.494385 3.589855
v 0.001617 3.350640 3.690593
v 0.001617 3.494385 3.690593
v -0.014390 3.494385 1.935861
v -0.014390 3.350640 1.935861
v -0.014390 1.679971 3.589855
v -0.014390 1.798617 3.589855
v 0.002222 1.679971 3.690593
v 0.002222 1.798617 3.690593
v -0.014390 1.679971 1.933760
v -0.014390 1.798617 1.933760
v 0.283132 5.094857 4.106865
v 0.282960 5.098333 -0.273984
v 0.260634 5.099333 4.106865
v 0.261836 5.102535 -0.273984
v 0.241560 5.112076 4.106865
v 0.243927 5.114501 -0.273984
v 0.228815 5.131150 4.106865
v 0.231961 5.132410 -0.273984
v 0.224340 5.153648 4.106865
v 0.227760 5.153533 -0.273984
v 0.228815 5.176147 4.106865
v 0.231961 5.174658 -0.273984
v 0.241560 5.195221 4.106865
v 0.243927 5.192566 -0.273984
v 0.260634 5.207966 4.106865
v 0.261836 5.204532 -0.273984
v 0.283132 5.212441 4.106865
v 0.282960 5.208734 -0.273984
v 0.305631 5.207966 4.106865
v 0.304084 5.204532 -0.273984
v 0.324705 5.195221 4.106865
v 0.321993 5.192566 -0.273984
v 0.337450 5.176147 4.106865
v 0.333959 5.174658 -0.273984
v 0.341925 5.153648 4.106865
v 0.338161 5.153533 -0.273984
v 0.337450 5.131150 4.106865
v 0.333959 5.132410 -0.273984
v 0.324705 5.112076 4.106865
v 0.321993 5.114501 -0.273984
v 0.305631 5.099333 4.106865
v 0.304084 5.102535 -0.273984
v 0.281674 5.124293 4.010196
v 0.270813 5.126453 4.010196
v 0.261605 5.132606 4.010196
v 0.255453 5.141813 4.010196
v 0.253292 5.152674 4.010196
v 0.255453 5.163535 4.010196
v 0.261605 5.172743 4.010196
v 0.270813 5.178895 4.010196
v 0.281674 5.181055 4.010196
v 0.292535 5.178895 4.010196
v 0.301742 5.172743 4.010196
v 0.307894 5.163535 4.010196
v 0.310055 5.152674 4.010196
v 0.307894 5.141813 4.010196
v 0.301742 5.132606 4.010196
v 0.292535 5.126453 4.010196
v 0.281674 5.124292 -0.178514
v 0.270813 5.126452 -0.178514
v 0.261605 5.132605 -0.178514
v 0.255453 5.141813 -0.178514
v 0.253292 5.152674 -0.178514
v 0.255453 5.163535 -0.178514
v 0.261605 5.172743 -0.178514
v 0.270813 5.178895 -0.178514
v 0.281674 5.181055 -0.178514
v 0.292535 5.178895 -0.178514
v 0.301742 5.172743 -0.178514
v 0.307894 5.163535 -0.178514
v 0.310055 5.152674 -0.178514
v 0.307894 5.141813 -0.178514
v 0.301742 5.132605 -0.178514
v 0.292535 5.126452 -0.178514
v 0.235188 5.121614 4.106865
v 0.237944 5.123455 -0.273984
v 0.258529 5.137209 4.010196
v 0.258529 5.137209 -0.178514
v 0.190938 5.091319 1.797926
v 0.199802 5.091319 1.781327
v 0.200934 5.063960 1.803264
v 0.209798 5.063960 1.786665
v 0.219405 5.043021 1.813128
v 0.228269 5.043021 1.796529
v 0.243538 5.031688 1.826015
v 0.252402 5.031688 1.809417
v 0.269659 5.031688 1.839965
v 0.278524 5.031688 1.823366
v 0.293793 5.043021 1.852853
v 0.302657 5.043021 1.836254
v 0.312263 5.063960 1.862717
v 0.321128 5.063960 1.846118
v 0.322260 5.091319 1.868055
v 0.331124 5.091319 1.851457
v 0.322260 5.120932 1.868055
v 0.331124 5.120932 1.851457
v 0.312263 5.148291 1.862717
v 0.321128 5.148291 1.846118
v 0.293793 5.169230 1.852853
v 0.302657 5.169230 1.836254
v 0.269659 5.180562 1.839965
v 0.278524 5.180562 1.823366
v 0.243538 5.180562 1.826015
v 0.252402 5.180562 1.809417
v 0.219405 5.169230 1.813128
v 0.228269 5.169230 1.796529
v 0.200934 5.148291 1.803264
v 0.209798 5.148291 1.786665
v 0.190938 5.120932 1.797926
v 0.199802 5.120932 1.781327
v 0.173027 5.087280 1.788361
v 0.185750 5.052458 1.795155
v 0.194614 5.052458 1.778556
v 0.181891 5.087280 1.771762
v 0.209259 5.025807 1.807710
v 0.218123 5.025807 1.791111
v 0.239975 5.011384 1.824113
v 0.248839 5.011384 1.807514
v 0.273222 5.011384 1.841868
v 0.282086 5.011384 1.825269
v 0.303938 5.025807 1.858271
v 0.312802 5.025807 1.841672
v 0.327447 5.052458 1.870826
v 0.336311 5.052458 1.854227
v 0.340170 5.087280 1.877620
v 0.349034 5.087280 1.861021
v 0.340170 5.124970 1.877620
v 0.349034 5.124970 1.861021
v 0.327447 5.159792 1.870826
v 0.336311 5.159792 1.854227
v 0.303938 5.186443 1.858271
v 0.312802 5.186443 1.841672
v 0.273222 5.200867 1.841868
v 0.282086 5.200867 1.825269
v 0.239975 5.200867 1.824113
v 0.248839 5.200867 1.807514
v 0.209259 5.186443 1.807710
v 0.218123 5.186443 1.791111
v 0.185750 5.159792 1.795155
v 0.194614 5.159792 1.778556
v 0.173027 5.124970 1.788361
v 0.181891 5.124970 1.771762
v 0.194213 5.090117 1.748334
v 0.190790 5.090117 1.729831
v 0.205356 5.062758 1.746273
v 0.201934 5.062758 1.727770
v 0.225947 5.041819 1.742464
v 0.222524 5.041819 1.723960
v 0.252849 5.030487 1.737488
v 0.249426 5.030487 1.718984
v 0.281968 5.030487 1.732101
v 0.278545 5.030487 1.713598
v 0.308870 5.041819 1.727124
v 0.305447 5.041819 1.708621
v 0.329460 5.062758 1.723316
v 0.326038 5.062758 1.704812
v 0.340604 5.090117 1.721254
v 0.337181 5.090117 1.702751
v 0.340604 5.119730 1.721254
v 0.337181 5.119730 1.702751
v 0.329460 5.147089 1.723316
v 0.326038 5.147089 1.704812
v 0.308870 5.168029 1.727124
v 0.305447 5.168029 1.708621
v 0.281968 5.179361 1.732101
v 0.278545 5.179361 1.713598
v 0.252849 5.179361 1.737488
v 0.249426 5.179361 1.718984
v 0.225947 5.168029 1.742464
v 0.222524 5.168029 1.723960
v 0.205356 5.147089 1.746273
v 0.201934 5.147089 1.727770
v 0.194213 5.119730 1.748334
v 0.190790 5.119730 1.729831
v 0.174247 5.086078 1.752028
v 0.188430 5.051257 1.749404
v 0.185007 5.051257 1.730901
v 0.170824 5.086078 1.733525
v 0.214637 5.024605 1.744556
v 0.211214 5.024605 1.726053
v 0.248878 5.010181 1.738222
v 0.245455 5.010181 1.719718
v 0.285939 5.010181 1.731366
v 0.282517 5.010181 1.712863
v 0.320180 5.024605 1.725032
v 0.316757 5.024605 1.706529
v 0.346387 5.051257 1.720184
v 0.342964 5.051257 1.701681
v 0.360570 5.086078 1.717561
v 0.357147 5.086078 1.699057
v 0.360570 5.123769 1.717561
v 0.357147 5.123769 1.699057
v 0.346387 5.158591 1.720184
v 0.342964 5.158591 1.701681
v 0.320180 5.185242 1.725032
v 0.316757 5.185242 1.706529
v 0.285939 5.199666 1.731366
v 0.282516 5.199666 1.712863
v 0.248878 5.199666 1.738222
v 0.245455 5.199666 1.719718
v 0.214637 5.185242 1.744556
v 0.211214 5.185242 1.726053
v 0.188430 5.158591 1.749404
v 0.185007 5.158591 1.730901
v 0.174247 5.123769 1.752028
v 0.170824 5.123769 1.733525
v 0.174818 5.088192 1.418362
v 0.180974 5.088192 1.400579
v 0.185527 5.060833 1.422069
v 0.191683 5.060833 1.404287
v 0.205314 5.039893 1.428920
v 0.211470 5.039893 1.411138
v 0.231167 5.028561 1.437870
v 0.237323 5.028561 1.420089
v 0.259150 5.028561 1.447558
v 0.265307 5.028561 1.429776
v 0.285004 5.039893 1.456509
v 0.291160 5.039893 1.438727
v 0.304791 5.060833 1.463360
v 0.310947 5.060833 1.445578
v 0.315500 5.088192 1.467067
v 0.321656 5.088192 1.449285
v 0.315500 5.117804 1.467067
v 0.321656 5.117804 1.449285
v 0.304791 5.145163 1.463360
v 0.310947 5.145163 1.445578
v 0.285004 5.166102 1.456509
v 0.291160 5.166102 1.438727
v 0.259150 5.177434 1.447558
v 0.265307 5.177434 1.429776
v 0.231167 5.177434 1.437870
v 0.237323 5.177434 1.420089
v 0.205314 5.166102 1.428920
v 0.211470 5.166102 1.411138
v 0.185527 5.145163 1.422069
v 0.191683 5.145163 1.404287
v 0.174818 5.117804 1.418362
v 0.180974 5.117804 1.400579
v 0.155631 5.084152 1.411719
v 0.169260 5.049330 1.416437
v 0.175417 5.049330 1.398656
v 0.161787 5.084152 1.393937
v 0.194445 5.022679 1.425157
v 0.200601 5.022679 1.407375
v 0.227351 5.008255 1.436549
v 0.233507 5.008255 1.418767
v 0.262967 5.008255 1.448880
v 0.269123 5.008255 1.431098
v 0.295872 5.022679 1.460272
v 0.302029 5.022679 1.442490
v 0.321057 5.049330 1.468991
v 0.327213 5.049330 1.451209
v 0.334687 5.084152 1.473710
v 0.340843 5.084152 1.455928
v 0.334687 5.121843 1.473710
v 0.340843 5.121843 1.455928
v 0.321057 5.156665 1.468991
v 0.327213 5.156665 1.451209
v 0.295872 5.183316 1.460272
v 0.302029 5.183316 1.442490
v 0.262967 5.197740 1.448880
v 0.269123 5.197740 1.431098
v 0.227351 5.197740 1.436549
v 0.233507 5.197740 1.418767
v 0.194445 5.183316 1.425157
v 0.200601 5.183316 1.407375
v 0.169260 5.156665 1.416437
v 0.175417 5.156665 1.398656
v 0.155631 5.121843 1.411719
v 0.161787 5.121843 1.393937
v 0.221317 5.088192 1.157615
v 0.221317 5.088192 1.138798
v 0.232649 5.060833 1.157615
v 0.232649 5.060833 1.138798
v 0.253589 5.039893 1.157615
v 0.253589 5.039893 1.138798
v 0.280948 5.028561 1.157615
v 0.280948 5.028561 1.138798
v 0.310561 5.028561 1.157615
v 0.310561 5.028561 1.138798
v 0.337920 5.039893 1.157615
v 0.337920 5.039893 1.138798
v 0.358859 5.060833 1.157615
v 0.358859 5.060833 1.138798
v 0.370191 5.088192 1.157615
v 0.370191 5.088192 1.138798
v 0.370191 5.117804 1.157615
v 0.370191 5.117804 1.138798
v 0.358859 5.145163 1.157615
v 0.358859 5.145163 1.138798
v 0.337920 5.166102 1.157615
v 0.337920 5.166102 1.138798
v 0.310561 5.177434 1.157615
v 0.310561 5.177434 1.138798
v 0.280948 5.177434 1.157615
v 0.280948 5.177434 1.138798
v 0.253589 5.166102 1.157615
v 0.253589 5.166102 1.138798
v 0.232649 5.145163 1.157615
v 0.232649 5.145163 1.138798
v 0.221317 5.117804 1.157615
v 0.221317 5.117804 1.138798
v 0.201012 5.084152 1.157615
v 0.215436 5.049330 1.157615
v 0.215436 5.049330 1.138798
v 0.201012 5.084152 1.138798
v 0.242087 5.022679 1.157615
v 0.242087 5.022679 1.138798
v 0.276909 5.008255 1.157615
v 0.276909 5.008255 1.138798
v 0.314600 5.008255 1.157615
v 0.314600 5.008255 1.138798
v 0.349421 5.022679 1.157615
v 0.349421 5.022679 1.138798
v 0.376073 5.049330 1.157615
v 0.376073 5.049330 1.138798
v 0.390496 5.084152 1.157615
v 0.390496 5.084152 1.138798
v 0.390496 5.121843 1.157615
v 0.390496 5.121843 1.138798
v 0.376073 5.156665 1.157615
v 0.376073 5.156665 1.138798
v 0.349421 5.183316 1.157615
v 0.349421 5.183316 1.138798
v 0.314600 5.197740 1.157615
v 0.314600 5.197740 1.138798
v 0.276909 5.197740 1.157615
v 0.276909 5.197740 1.138798
v 0.242087 5.183316 1.157615
v 0.242087 5.183316 1.138798
v 0.215436 5.156665 1.157615
v 0.215436 5.156665 1.138798
v 0.201012 5.121843 1.157615
v 0.201012 5.121843 1.138798
v 0.195115 5.088192 0.901434
v 0.186964 5.088192 0.884474
v 0.205329 5.060833 0.896525
v 0.197178 5.060833 0.879564
v 0.224202 5.039893 0.887454
v 0.216051 5.039893 0.870494
v 0.248861 5.028561 0.875603
v 0.240710 5.028561 0.858643
v 0.275552 5.028561 0.862776
v 0.267401 5.028561 0.845816
v 0.300211 5.039893 0.850925
v 0.292059 5.039893 0.833965
v 0.319084 5.060833 0.841855
v 0.310932 5.060833 0.824894
v 0.329298 5.088192 0.836946
v 0.321146 5.088192 0.819985
v 0.329298 5.117804 0.836946
v 0.321146 5.117804 0.819985
v 0.319084 5.145163 0.841855
v 0.310932 5.145163 0.824894
v 0.300211 5.166102 0.850925
v 0.292059 5.166102 0.833965
v 0.275552 5.177434 0.862776
v 0.267401 5.177434 0.845816
v 0.248861 5.177434 0.875603
v 0.240710 5.177434 0.858643
v 0.224202 5.166102 0.887454
v 0.216051 5.166102 0.870494
v 0.205329 5.145163 0.896525
v 0.197178 5.145163 0.879564
v 0.195115 5.117804 0.901434
v 0.186964 5.117804 0.884474
v 0.176815 5.084152 0.910229
v 0.189815 5.049330 0.903981
v 0.181664 5.049330 0.887021
v 0.168663 5.084152 0.893269
v 0.213836 5.022679 0.892437
v 0.205685 5.022679 0.875476
v 0.245221 5.008255 0.877353
v 0.237070 5.008255 0.860393
v 0.279192 5.008255 0.861027
v 0.271041 5.008255 0.844066
v 0.310577 5.022679 0.845943
v 0.302426 5.022679 0.828983
v 0.334598 5.049330 0.834398
v 0.326447 5.049330 0.817438
v 0.347598 5.084152 0.828150
v 0.339447 5.084152 0.811190
v 0.347598 5.121843 0.828150
v 0.339447 5.121843 0.811190
v 0.334598 5.156665 0.834398
v 0.326447 5.156665 0.817438
v 0.310577 5.183316 0.845943
v 0.302426 5.183316 0.828983
v 0.279192 5.197740 0.861027
v 0.271041 5.197740 0.844066
v 0.245221 5.197740 0.877353
v 0.237070 5.197740 0.860393
v 0.213836 5.183316 0.892437
v 0.205685 5.183316 0.875476
v 0.189815 5.156665 0.903981
v 0.181663 5.156665 0.887021
v 0.176815 5.121843 0.910229
v 0.168663 5.121843 0.893269
v 0.178329 5.083560 0.684001
v 0.178329 5.083560 0.665184
v 0.189662 5.056201 0.684001
v 0.189662 5.056201 0.665184
v 0.210601 5.035262 0.684001
v 0.210601 5.035262 0.665184
v 0.237960 5.023930 0.684001
v 0.237960 5.023930 0.665184
v 0.267573 5.023930 0.684001
v 0.267573 5.023930 0.665184
v 0.294932 5.035262 0.684001
v 0.294932 5.035262 0.665184
v 0.315871 5.056201 0.684001
v 0.315871 5.056201 0.665184
v 0.327204 5.083560 0.684001
v 0.327204 5.083560 0.665184
v 0.327204 5.113173 0.684001
v 0.327204 5.113173 0.665184
v 0.315871 5.140532 0.684001
v 0.315871 5.140532 0.665184
v 0.294932 5.161471 0.684001
v 0.294932 5.161471 0.665184
v 0.267573 5.172804 0.684001
v 0.267573 5.172804 0.665184
v 0.237960 5.172804 0.684001
v 0.237960 5.172804 0.665184
v 0.210601 5.161471 0.684001
v 0.210601 5.161471 0.665184
v 0.189662 5.140532 0.684001
v 0.189662 5.140532 0.665184
v 0.178329 5.113173 0.684001
v 0.178329 5.113173 0.665184
v 0.158024 5.079521 0.684001
v 0.172448 5.044700 0.684001
v 0.172448 5.044700 0.665184
v 0.158024 5.079521 0.665184
v 0.199099 5.018049 0.684001
v 0.199099 5.018049 0.665184
v 0.233921 5.003625 0.684001
v 0.233921 5.003625 0.665184
v 0.271612 5.003625 0.684001
v 0.271612 5.003625 0.665184
v 0.306433 5.018049 0.684001
v 0.306433 5.018049 0.665184
v 0.333085 5.044700 0.684001
v 0.333085 5.044700 0.665184
v 0.347508 5.079521 0.684001
v 0.347508 5.079521 0.665184
v 0.347508 5.117212 0.684001
v 0.347508 5.117212 0.665184
v 0.333085 5.152034 0.684001
v 0.333085 5.152034 0.665184
v 0.306433 5.178685 0.684001
v 0.306433 5.178685 0.665184
v 0.271612 5.193109 0.684001
v 0.271612 5.193109 0.665184
v 0.233921 5.193109 0.684001
v 0.233921 5.193109 0.665184
v 0.199099 5.178685 0.684001
v 0.199099 5.178685 0.665184
v 0.172448 5.152034 0.684001
v 0.172448 5.152034 0.665184
v 0.158024 5.117212 0.684001
v 0.158024 5.117212 0.665184
v 0.174930 5.088192 0.481425
v 0.177974 5.088192 0.462855
v 0.186113 5.060833 0.483258
v 0.189158 5.060833 0.464688
v 0.206777 5.039893 0.486645
v 0.209821 5.039893 0.468076
v 0.233775 5.028561 0.491071
v 0.236820 5.028561 0.472502
v 0.262998 5.028561 0.495862
v 0.266043 5.028561 0.477293
v 0.289997 5.039893 0.500288
v 0.293041 5.039893 0.481719
v 0.310660 5.060833 0.503676
v 0.313705 5.060833 0.485106
v 0.321843 5.088192 0.505509
v 0.324888 5.088192 0.486940
v 0.321843 5.117804 0.505509
v 0.324888 5.117804 0.486940
v 0.310660 5.145163 0.503676
v 0.313705 5.145163 0.485106
v 0.289997 5.166102 0.500288
v 0.293041 5.166102 0.481719
v 0.262998 5.177434 0.495862
v 0.266042 5.177434 0.477293
v 0.233775 5.177434 0.491071
v 0.236820 5.177434 0.472502
v 0.206777 5.166102 0.486645
v 0.209821 5.166102 0.468076
v 0.186113 5.145163 0.483258
v 0.189158 5.145163 0.464688
v 0.174930 5.117804 0.481425
v 0.177974 5.117804 0.462855
v 0.154893 5.084152 0.478140
v 0.169127 5.049330 0.480473
v 0.172171 5.049330 0.461904
v 0.157937 5.084152 0.459570
v 0.195427 5.022679 0.484785
v 0.198471 5.022679 0.466215
v 0.229790 5.008255 0.490418
v 0.232834 5.008255 0.471848
v 0.266984 5.008255 0.496515
v 0.270028 5.008255 0.477946
v 0.301347 5.022679 0.502149
v 0.304391 5.022679 0.483579
v 0.327647 5.049330 0.506460
v 0.330691 5.049330 0.487891
v 0.341881 5.084152 0.508794
v 0.344925 5.084152 0.490225
v 0.341881 5.121843 0.508794
v 0.344925 5.121843 0.490225
v 0.327647 5.156665 0.506460
v 0.330691 5.156665 0.487891
v 0.301347 5.183316 0.502149
v 0.304391 5.183316 0.483579
v 0.266984 5.197740 0.496515
v 0.270028 5.197740 0.477946
v 0.229790 5.197740 0.490418
v 0.232834 5.197740 0.471848
v 0.195427 5.183316 0.484785
v 0.198471 5.183316 0.466215
v 0.169126 5.156665 0.480473
v 0.172171 5.156665 0.461904
v 0.154893 5.121843 0.478140
v 0.157937 5.121843 0.459570
v 0.179488 5.088192 0.269409
v 0.179488 5.088192 0.250592
v 0.190820 5.060833 0.269409
v 0.190820 5.060833 0.250592
v 0.211760 5.039893 0.269409
v 0.211759 5.039893 0.250592
v 0.239118 5.028561 0.269409
v 0.239118 5.028561 0.250592
v 0.268731 5.028561 0.269409
v 0.268731 5.028561 0.250592
v 0.296090 5.039893 0.269409
v 0.296090 5.039893 0.250592
v 0.317030 5.060833 0.269409
v 0.317030 5.060833 0.250592
v 0.328362 5.088192 0.269409
v 0.328362 5.088192 0.250592
v 0.328362 5.117804 0.269409
v 0.328362 5.117804 0.250592
v 0.317030 5.145163 0.269409
v 0.317030 5.145163 0.250592
v 0.296090 5.166102 0.269409
v 0.296090 5.166102 0.250592
v 0.268731 5.177434 0.269409
v 0.268731 5.177434 0.250592
v 0.239118 5.177434 0.269409
v 0.239118 5.177434 0.250592
v 0.211760 5.166102 0.269409
v 0.211759 5.166102 0.250592
v 0.190820 5.145163 0.269409
v 0.190820 5.145163 0.250592
v 0.179488 5.117804 0.269409
v 0.179488 5.117804 0.250592
v 0.159183 5.084152 0.269409
v 0.173607 5.049330 0.269409
v 0.173607 5.049330 0.250592
v 0.159183 5.084152 0.250592
v 0.200258 5.022679 0.269409
v 0.200258 5.022679 0.250592
v 0.235079 5.008255 0.269409
v 0.235079 5.008255 0.250592
v 0.272770 5.008255 0.269409
v 0.272770 5.008255 0.250592
v 0.307592 5.022679 0.269409
v 0.307592 5.022679 0.250592
v 0.334243 5.049330 0.269409
v 0.334243 5.049330 0.250592
v 0.348667 5.084152 0.269409
v 0.348667 5.084152 0.250592
v 0.348667 5.121843 0.269409
v 0.348667 5.121843 0.250592
v 0.334243 5.156665 0.269409
v 0.334243 5.156665 0.250592
v 0.307592 5.183316 0.269409
v 0.307592 5.183316 0.250592
v 0.272770 5.197740 0.269409
v 0.272770 5.197740 0.250592
v 0.235079 5.197740 0.269409
v 0.235079 5.197740 0.250592
v 0.200258 5.183316 0.269409
v 0.200258 5.183316 0.250592
v 0.173607 5.156665 0.269409
v 0.173607 5.156665 0.250592
v 0.159183 5.121843 0.269409
v 0.159183 5.121843 0.250592
v 0.182936 5.088192 0.069201
v 0.177049 5.088192 0.051328
v 0.193699 5.060833 0.065656
v 0.187813 5.060833 0.047783
v 0.213588 5.039893 0.059106
v 0.207702 5.039893 0.041233
v 0.239574 5.028561 0.050548
v 0.233688 5.028561 0.032675
v 0.267701 5.028561 0.041285
v 0.261814 5.028561 0.023412
v 0.293686 5.039893 0.032727
v 0.287800 5.039893 0.014854
v 0.313575 5.060833 0.026177
v 0.307689 5.060833 0.008304
v 0.324339 5.088192 0.022632
v 0.318453 5.088192 0.004759
v 0.324339 5.117804 0.022632
v 0.318453 5.117804 0.004759
v 0.313575 5.145163 0.026177
v 0.307689 5.145163 0.008304
v 0.293687 5.166102 0.032727
v 0.287800 5.166102 0.014854
v 0.267701 5.177434 0.041285
v 0.261814 5.177434 0.023412
v 0.239574 5.177434 0.050548
v 0.233688 5.177434 0.032675
v 0.213588 5.166102 0.059106
v 0.207702 5.166102 0.041233
v 0.193699 5.145163 0.065656
v 0.187813 5.145163 0.047783
v 0.182936 5.117804 0.069201
v 0.177049 5.117804 0.051328
v 0.163650 5.084152 0.075553
v 0.177350 5.049330 0.071041
v 0.171463 5.049330 0.053168
v 0.157764 5.084152 0.057680
v 0.202663 5.022679 0.062704
v 0.196777 5.022679 0.044831
v 0.235738 5.008255 0.051812
v 0.229851 5.008255 0.033939
v 0.271537 5.008255 0.040022
v 0.265651 5.008255 0.022149
v 0.304611 5.022679 0.029129
v 0.298725 5.022679 0.011256
v 0.329925 5.049330 0.020792
v 0.324039 5.049330 0.002919
v 0.343625 5.084152 0.016281
v 0.337738 5.084152 -0.001592
v 0.343625 5.121843 0.016281
v 0.337738 5.121843 -0.001592
v 0.329925 5.156665 0.020792
v 0.324039 5.156665 0.002919
v 0.304611 5.183316 0.029129
v 0.298725 5.183316 0.011256
v 0.271537 5.197740 0.040022
v 0.265651 5.197740 0.022149
v 0.235738 5.197740 0.051812
v 0.229851 5.197740 0.033939
v 0.202663 5.183316 0.062704
v 0.196777 5.183316 0.044831
v 0.177350 5.156665 0.071041
v 0.171463 5.156665 0.053168
v 0.163650 5.121843 0.075553
v 0.157764 5.121843 0.057680
v 0.196227 5.088192 -0.089605
v 0.201157 5.088192 -0.107766
v 0.207164 5.060833 -0.086636
v 0.212094 5.060833 -0.104796
v 0.227372 5.039893 -0.081150
v 0.232302 5.039893 -0.099310
v 0.253775 5.028561 -0.073982
v 0.258705 5.028561 -0.092142
v 0.282353 5.028561 -0.066223
v 0.287284 5.028561 -0.084383
v 0.308756 5.039893 -0.059055
v 0.313687 5.039893 -0.077215
v 0.328964 5.060833 -0.053569
v 0.333895 5.060833 -0.071729
v 0.339901 5.088192 -0.050600
v 0.344831 5.088192 -0.068760
v 0.339901 5.117804 -0.050600
v 0.344831 5.117804 -0.068760
v 0.328964 5.145163 -0.053569
v 0.333895 5.145163 -0.071729
v 0.308756 5.166102 -0.059055
v 0.313687 5.166102 -0.077215
v 0.282353 5.177434 -0.066223
v 0.287284 5.177434 -0.084383
v 0.253775 5.177434 -0.073982
v 0.258705 5.177434 -0.092142
v 0.227372 5.166102 -0.081150
v 0.232302 5.166102 -0.099310
v 0.207164 5.145163 -0.086636
v 0.212094 5.145163 -0.104796
v 0.196227 5.117804 -0.089605
v 0.201157 5.117804 -0.107766
v 0.176632 5.084152 -0.094925
v 0.190552 5.049330 -0.091146
v 0.195482 5.049330 -0.109306
v 0.181562 5.084152 -0.113085
v 0.216272 5.022679 -0.084164
v 0.221202 5.022679 -0.102324
v 0.249877 5.008255 -0.075040
v 0.254807 5.008255 -0.093200
v 0.286251 5.008255 -0.065165
v 0.291181 5.008255 -0.083325
v 0.319856 5.022679 -0.056042
v 0.324787 5.022679 -0.074202
v 0.345577 5.049330 -0.049059
v 0.350507 5.049330 -0.067219
v 0.359496 5.084152 -0.045280
v 0.364427 5.084152 -0.063440
v 0.359496 5.121843 -0.045280
v 0.364427 5.121843 -0.063440
v 0.345577 5.156665 -0.049059
v 0.350507 5.156665 -0.067219
v 0.319856 5.183316 -0.056042
v 0.324787 5.183316 -0.074202
v 0.286251 5.197740 -0.065165
v 0.291181 5.197740 -0.083325
v 0.249877 5.197740 -0.075040
v 0.254807 5.197740 -0.093200
v 0.216272 5.183316 -0.084164
v 0.221202 5.183316 -0.102324
v 0.190552 5.156665 -0.091146
v 0.195482 5.156665 -0.109306
v 0.176632 5.121843 -0.094925
v 0.181562 5.121843 -0.113085
v -0.225459 5.137063 3.846968
v -0.400750 0.070915 3.846968
v -0.306663 4.931401 3.846968
v -0.225459 5.034232 3.846968
v -0.225459 0.070915 3.846968
v -0.306663 0.317509 3.846968
v -0.225459 0.194212 3.846968
v -0.306663 3.565300 3.840060
v -0.280210 3.325673 3.842261
v -0.280211 1.773650 3.842261
v -0.306663 1.750886 3.846968
v -0.317584 5.101963 0.052052
v -0.398789 5.101963 2.001220
v -0.398789 5.101963 0.253529
v -0.317584 5.101963 0.152790
v -0.398789 5.101963 1.958852
v -0.317584 5.101963 3.950387
v -0.398789 5.101963 3.748911
v -0.317584 5.101963 3.849649
v -0.398789 5.101963 2.043587
v -0.630689 5.172878 3.949389
v -0.317264 5.002223 -0.039745
v -0.492555 -0.063925 -0.039745
v -0.398468 4.796561 -0.039745
v -0.317264 4.899392 -0.039745
v -0.317264 -0.063925 -0.039745
v -0.398468 0.182669 -0.039745
v -0.317264 0.059372 -0.039745
v -0.398468 3.430460 -0.039745
v -0.398468 3.286716 -0.039745
v -0.398468 1.734692 -0.039745
v -0.398468 1.616046 -0.039745
v -0.722494 5.038038 0.062675
v -0.249465 0.057252 0.106782
v -0.249465 0.057252 2.055949
v -0.249465 0.057252 0.308258
v -0.249465 0.057252 0.207520
v -0.249465 0.057252 2.013582
v -0.249465 0.057252 4.005117
v -0.249465 0.057252 3.803641
v -0.249465 0.057252 3.904379
v -0.249465 0.057252 2.098317
v -0.562569 0.128167 4.004118
v -0.654374 -0.006673 0.117405
vn 0.8622 -0.0132 0.5063
vn 0.8051 -0.0073 0.5931
vn 0.8617 -0.0132 0.5073
vn 0.9632 -0.0193 -0.2680
vn 0.9415 -0.0082 0.3370
vn 0.9375 -0.0081 0.3479
vn 0.9630 -0.0192 -0.2688
vn 0.9200 -0.0116 0.3917
vn 0.7492 -0.0035 0.6624
vn 0.9195 -0.0116 0.3929
vn 0.9630 -0.0218 -0.2685
vn 0.9789 -0.0087 0.2042
vn 0.9634 -0.0218 -0.2671
vn 0.7729 -0.0000 -0.6345
vn 0.7328 -0.0039 -0.6805
vn 0.7926 -0.0000 -0.6097
vn 0.7615 -0.0069 -0.6482
vn 0.7586 -0.0068 -0.6515
vn 0.5913 -0.0000 -0.8064
vn 0.9532 -0.0090 -0.3021
vn 0.8086 -0.0043 -0.5884
vn 0.9264 -0.0153 -0.3762
vn 0.9259 -0.0152 -0.3775
vn 0.7136 -0.0000 0.7005
vn 0.9974 -0.0000 0.0717
vn 0.9550 -0.0120 -0.2964
vn 0.9991 -0.0164 0.0399
vn 0.9991 -0.0164 0.0401
vn 0.9548 -0.0119 -0.2971
vn 0.8077 -0.0000 0.5896
vn 0.9973 -0.0000 0.0738
vn 0.9597 -0.0193 -0.2805
vn 0.9595 -0.0193 -0.2810
vn 0.8631 -0.0000 0.5051
vn 0.9217 -0.0000 -0.3879
vn 0.9987 -0.0213 0.0464
vn 0.9996 -0.0284 0.0072
vn 0.9996 -0.0284 0.0064
vn 0.9986 -0.0213 0.0484
vn 0.5869 -0.0000 0.8097
vn 0.9844 -0.0000 0.1761
vn 0.9908 -0.0208 0.1337
vn 0.9907 -0.0208 0.1347
vn 0.4745 -0.0000 0.8802
vn 0.9024 -0.0000 -0.4309
vn -0.0000 -1.0000 -0.0000
vn 0.7848 -0.6197 -0.0000
vn 0.6083 -0.7937 -0.0000
vn 1.0000 -0.0000 -0.0000
vn 0.7785 -0.0000 0.6276
vn 0.5556 -0.5819 0.5939
vn 0.6004 -0.0000 0.7997
vn 0.8351 0.5500 -0.0000
vn 0.6766 0.7363 -0.0000
vn 0.5867 0.5124 0.6271
vn 0.9964 -0.0000 0.0849
vn -0.0000 1.0000 -0.0000
vn -0.0000 -0.0000 -1.0000
vn -0.2588 -0.9659 -0.0000
vn 0.9747 0.2235 -0.0000
vn 0.9743 -0.2253 -0.0000
vn 0.2683 -0.9633 -0.0000
vn 0.9876 -0.0000 0.1569
vn 0.9867 -0.0000 0.1627
vn 0.9972 -0.0000 0.0743
vn 0.7785 -0.0000 -0.6276
vn 0.5556 -0.5818 -0.5939
vn 0.6004 -0.0000 -0.7997
vn 0.5867 0.5124 -0.6271
vn 0.9964 -0.0000 -0.0849
vn 0.9923 0.0679 -0.1040
vn -0.0000 -0.0000 1.0000
vn 0.9641 -0.0000 -0.2656
vn 0.9576 -0.1864 -0.2196
vn 0.2681 -0.9634 -0.0000
vn 0.9876 -0.0000 -0.1569
vn 0.9867 -0.0000 -0.1627
vn 0.9972 -0.0000 -0.0743
vn 0.5333 0.7982 0.2801
vn 0.7985 0.5336 0.2789
vn 0.9415 0.1873 0.2801
vn 0.9405 -0.1871 0.2836
vn 0.7961 -0.5319 0.2888
vn 0.5309 -0.7945 0.2948
vn 0.1860 -0.9353 0.3009
vn -0.1857 -0.9338 0.3060
vn -0.5283 -0.7907 0.3094
vn -0.7904 -0.5281 0.3105
vn -0.9327 -0.1855 0.3094
vn -0.9337 0.1857 0.3060
vn -0.7929 0.5298 0.3009
vn -0.5309 0.7945 0.2948
vn -0.1868 0.9390 0.2887
vn 0.1871 0.9405 0.2836
vn 0.1951 0.9808 -0.0000
vn -0.1951 0.9808 -0.0000
vn -0.5556 0.8314 -0.0000
vn -0.8315 0.5556 -0.0000
vn -0.9808 0.1951 -0.0000
vn -0.9808 -0.1951 -0.0000
vn -0.8315 -0.5555 -0.0000
vn -0.5556 -0.8315 -0.0000
vn -0.1950 -0.9808 -0.0000
vn 0.1950 -0.9808 -0.0000
vn 0.5556 -0.8315 -0.0000
vn 0.8315 -0.5555 -0.0000
vn 0.9808 -0.1951 -0.0000
vn 0.9808 0.1951 -0.0000
vn 0.8315 0.5556 -0.0000
vn 0.5556 0.8315 -0.0000
vn 0.5376 0.8046 -0.2521
vn 0.8049 0.5378 -0.2510
vn 0.9491 0.1888 -0.2521
vn 0.9483 -0.1886 -0.2553
vn 0.8029 -0.5364 -0.2601
vn 0.5356 -0.8016 -0.2656
vn 0.1878 -0.9440 -0.2712
vn -0.1875 -0.9427 -0.2758
vn -0.5335 -0.7985 -0.2790
vn -0.7982 -0.5333 -0.2801
vn -0.9418 -0.1874 -0.2790
vn -0.9427 0.1875 -0.2758
vn -0.8003 0.5347 -0.2712
vn -0.5356 0.8016 -0.2656
vn -0.1883 0.9471 -0.2601
vn 0.1886 0.9483 -0.2553
vn 0.8048 0.5378 -0.2510
vn 0.7985 0.5335 0.2789
vn -0.3320 -0.1456 -0.9320
vn -0.2337 -0.4146 -0.8795
vn -0.8609 -0.4146 0.2950
vn -0.9592 -0.1456 0.2425
vn -0.0521 -0.6204 -0.7825
vn -0.6793 -0.6204 0.3919
vn 0.1852 -0.7319 -0.6558
vn -0.4420 -0.7319 0.5187
vn 0.4420 -0.7319 -0.5187
vn -0.1852 -0.7319 0.6558
vn 0.6793 -0.6204 -0.3919
vn 0.0521 -0.6204 0.7825
vn 0.8609 -0.4146 -0.2950
vn 0.2337 -0.4146 0.8795
vn 0.9592 -0.1456 -0.2425
vn 0.3320 -0.1456 0.9320
vn 0.9592 0.1456 -0.2425
vn 0.3320 0.1456 0.9320
vn 0.8609 0.4146 -0.2950
vn 0.2337 0.4146 0.8795
vn 0.6793 0.6204 -0.3919
vn 0.0521 0.6204 0.7825
vn 0.4420 0.7319 -0.5186
vn -0.1852 0.7319 0.6558
vn 0.1852 0.7319 -0.6558
vn -0.4420 0.7319 0.5187
vn -0.0521 0.6204 -0.7825
vn -0.6793 0.6204 0.3919
vn -0.2337 0.4146 -0.8795
vn -0.8609 0.4146 0.2950
vn -0.3320 0.1456 -0.9320
vn -0.9592 0.1456 0.2425
vn -0.4711 -0.0000 0.8821
vn 0.4711 -0.0000 -0.8821
vn -0.8408 -0.1456 -0.5215
vn -0.7312 -0.4146 -0.5417
vn -0.4890 -0.4146 0.7675
vn -0.5986 -0.1456 0.7877
vn -0.5288 -0.6204 -0.5792
vn -0.2866 -0.6204 0.7300
vn -0.2642 -0.7319 -0.6281
vn -0.0221 -0.7319 0.6811
vn 0.0221 -0.7319 -0.6811
vn 0.2642 -0.7319 0.6281
vn 0.2866 -0.6204 -0.7300
vn 0.5288 -0.6204 0.5792
vn 0.4890 -0.4146 -0.7675
vn 0.7312 -0.4146 0.5418
vn 0.5986 -0.1456 -0.7877
vn 0.8407 -0.1456 0.5215
vn 0.5986 0.1456 -0.7877
vn 0.8407 0.1456 0.5215
vn 0.4890 0.4146 -0.7675
vn 0.7312 0.4146 0.5418
vn 0.2866 0.6204 -0.7300
vn 0.5287 0.6204 0.5792
vn 0.0221 0.7319 -0.6811
vn 0.2642 0.7319 0.6281
vn -0.2642 0.7319 -0.6281
vn -0.0221 0.7319 0.6811
vn -0.5287 0.6204 -0.5792
vn -0.2866 0.6204 0.7300
vn -0.7312 0.4146 -0.5417
vn -0.4890 0.4146 0.7675
vn -0.8408 0.1456 -0.5215
vn -0.5986 0.1456 0.7877
vn 0.1819 -0.0000 0.9833
vn -0.1819 -0.0000 -0.9833
vn -0.4738 -0.1456 -0.8685
vn -0.3685 -0.4146 -0.8321
vn -0.8041 -0.4146 0.4261
vn -0.9094 -0.1456 0.3896
vn -0.1740 -0.6204 -0.7647
vn -0.6095 -0.6204 0.4935
vn 0.0802 -0.7319 -0.6767
vn -0.3554 -0.7319 0.5815
vn 0.3554 -0.7319 -0.5815
vn -0.0802 -0.7319 0.6767
vn 0.6095 -0.6204 -0.4935
vn 0.1740 -0.6204 0.7647
vn 0.8041 -0.4146 -0.4261
vn 0.3685 -0.4146 0.8321
vn 0.9094 -0.1456 -0.3897
vn 0.4738 -0.1456 0.8685
vn 0.9094 0.1456 -0.3897
vn 0.4738 0.1456 0.8685
vn 0.8041 0.4146 -0.4261
vn 0.3685 0.4146 0.8321
vn 0.6096 0.6204 -0.4935
vn 0.1740 0.6204 0.7647
vn 0.3554 0.7319 -0.5815
vn -0.0802 0.7319 0.6767
vn 0.0802 0.7319 -0.6767
vn -0.3554 0.7319 0.5815
vn -0.1740 0.6204 -0.7647
vn -0.6096 0.6204 0.4935
vn -0.3685 0.4146 -0.8321
vn -0.8041 0.4146 0.4261
vn -0.4738 0.1456 -0.8685
vn -0.9094 0.1456 0.3896
vn -0.3272 -0.0000 0.9450
vn 0.3272 -0.0000 -0.9450
vn 0.3271 -0.0000 -0.9450
vn -0.7319 -0.1456 -0.6657
vn -0.6204 -0.4146 -0.6657
vn -0.6204 -0.4146 0.6657
vn -0.7319 -0.1456 0.6657
vn -0.4146 -0.6204 -0.6657
vn -0.4146 -0.6204 0.6657
vn -0.1456 -0.7319 -0.6657
vn -0.1456 -0.7319 0.6657
vn 0.1456 -0.7319 -0.6657
vn 0.1456 -0.7319 0.6657
vn 0.4146 -0.6204 -0.6657
vn 0.4146 -0.6204 0.6657
vn 0.6204 -0.4146 -0.6657
vn 0.6204 -0.4146 0.6657
vn 0.7319 -0.1456 -0.6657
vn 0.7319 -0.1456 0.6657
vn 0.7319 0.1456 -0.6657
vn 0.7319 0.1456 0.6657
vn 0.6204 0.4146 -0.6657
vn 0.6204 0.4146 0.6657
vn 0.4146 0.6204 -0.6657
vn 0.4146 0.6204 0.6657
vn 0.1456 0.7319 -0.6657
vn 0.1456 0.7319 0.6657
vn -0.1456 0.7319 -0.6657
vn -0.1456 0.7319 0.6657
vn -0.4146 0.6204 -0.6657
vn -0.4146 0.6204 0.6657
vn -0.6204 0.4146 -0.6657
vn -0.6204 0.4146 0.6657
vn -0.7319 0.1456 -0.6657
vn -0.7319 0.1456 0.6657
vn -0.9480 -0.1456 -0.2830
vn -0.8476 -0.4146 -0.3313
vn -0.2708 -0.4146 0.8688
vn -0.3713 -0.1456 0.9170
vn -0.6620 -0.6204 -0.4204
vn -0.0853 -0.6204 0.7796
vn -0.4196 -0.7319 -0.5370
vn 0.1572 -0.7319 0.6631
vn -0.1572 -0.7319 -0.6631
vn 0.4196 -0.7319 0.5370
vn 0.0853 -0.6204 -0.7796
vn 0.6620 -0.6204 0.4204
vn 0.2708 -0.4146 -0.8688
vn 0.8476 -0.4146 0.3313
vn 0.3713 -0.1456 -0.9170
vn 0.9480 -0.1456 0.2830
vn 0.3713 0.1456 -0.9170
vn 0.9480 0.1456 0.2830
vn 0.2708 0.4146 -0.8688
vn 0.8476 0.4146 0.3313
vn 0.0853 0.6204 -0.7796
vn 0.6620 0.6204 0.4204
vn -0.1572 0.7319 -0.6631
vn 0.4196 0.7319 0.5370
vn -0.4196 0.7319 -0.5370
vn 0.1572 0.7319 0.6631
vn -0.6620 0.6204 -0.4204
vn -0.0853 0.6204 0.7796
vn -0.8476 0.4146 -0.3313
vn -0.2708 0.4146 0.8688
vn -0.9480 0.1456 -0.2830
vn -0.3713 0.1456 0.9170
vn 0.4332 -0.0000 0.9013
vn -0.4332 -0.0000 -0.9013
vn -0.6145 -0.1456 -0.7754
vn -0.5046 -0.4146 -0.7573
vn -0.7200 -0.4146 0.5566
vn -0.8299 -0.1456 0.5386
vn -0.3014 -0.6204 -0.7240
vn -0.5168 -0.6204 0.5899
vn -0.0360 -0.7319 -0.6805
vn -0.2514 -0.7319 0.6334
vn 0.2514 -0.7319 -0.6334
vn 0.0360 -0.7319 0.6805
vn 0.5168 -0.6204 -0.5899
vn 0.3014 -0.6204 0.7240
vn 0.7200 -0.4146 -0.5566
vn 0.5046 -0.4146 0.7573
vn 0.8299 -0.1456 -0.5386
vn 0.6145 -0.1456 0.7754
vn 0.8299 0.1456 -0.5386
vn 0.6145 0.1456 0.7754
vn 0.7200 0.4146 -0.5566
vn 0.5046 0.4146 0.7573
vn 0.5168 0.6204 -0.5899
vn 0.3014 0.6204 0.7240
vn 0.2514 0.7319 -0.6334
vn 0.0360 0.7319 0.6805
vn -0.0360 0.7319 -0.6805
vn -0.2514 0.7319 0.6334
vn -0.3014 0.6204 -0.7240
vn -0.5168 0.6204 0.5899
vn -0.5046 0.4146 -0.7573
vn -0.7200 0.4146 0.5566
vn -0.6145 0.1456 -0.7754
vn -0.8299 0.1456 0.5386
vn -0.1618 -0.0000 0.9868
vn 0.1618 -0.0000 -0.9868
vn -0.9034 -0.1456 -0.4034
vn -0.7975 -0.4146 -0.4382
vn -0.3811 -0.4146 0.8264
vn -0.4869 -0.1456 0.8612
vn -0.6020 -0.6204 -0.5026
vn -0.1855 -0.6204 0.7620
vn -0.3465 -0.7319 -0.5868
vn 0.0700 -0.7319 0.6779
vn -0.0700 -0.7319 -0.6778
vn 0.3465 -0.7319 0.5868
vn 0.1855 -0.6204 -0.7620
vn 0.6020 -0.6204 0.5026
vn 0.3811 -0.4146 -0.8264
vn 0.7975 -0.4146 0.4382
vn 0.4869 -0.1456 -0.8612
vn 0.9034 -0.1456 0.4034
vn 0.4869 0.1456 -0.8612
vn 0.9034 0.1456 0.4034
vn 0.3811 0.4146 -0.8264
vn 0.7976 0.4146 0.4382
vn 0.1855 0.6204 -0.7620
vn 0.6020 0.6204 0.5026
vn -0.0700 0.7319 -0.6778
vn 0.3465 0.7319 0.5868
vn -0.3465 0.7319 -0.5868
vn 0.0700 0.7319 0.6779
vn -0.6020 0.6204 -0.5026
vn -0.1855 0.6204 0.7620
vn -0.7976 0.4146 -0.4382
vn -0.3811 0.4146 0.8264
vn -0.9034 0.1456 -0.4034
vn -0.4869 0.1456 0.8612
vn 0.3128 -0.0000 0.9498
vn -0.3128 -0.0000 -0.9498
vn -0.5319 -0.1456 -0.8342
vn -0.4243 -0.4146 -0.8050
vn -0.7732 -0.4146 0.4799
vn -0.8807 -0.1456 0.4507
vn -0.2257 -0.6204 -0.7511
vn -0.5745 -0.6204 0.5338
vn 0.0339 -0.7319 -0.6806
vn -0.3149 -0.7319 0.6043
vn 0.3149 -0.7319 -0.6043
vn -0.0339 -0.7319 0.6806
vn 0.5745 -0.6204 -0.5338
vn 0.2257 -0.6204 0.7511
vn 0.7732 -0.4146 -0.4799
vn 0.4243 -0.4146 0.8050
vn 0.8807 -0.1456 -0.4507
vn 0.5319 -0.1456 0.8342
vn 0.8807 0.1456 -0.4507
vn 0.5319 0.1456 0.8342
vn 0.7732 0.4146 -0.4799
vn 0.4244 0.4146 0.8050
vn 0.5745 0.6204 -0.5338
vn 0.2257 0.6204 0.7511
vn 0.3149 0.7319 -0.6043
vn -0.0339 0.7319 0.6806
vn 0.0339 0.7319 -0.6806
vn -0.3149 0.7319 0.6043
vn -0.2257 0.6204 -0.7511
vn -0.5745 0.6204 0.5338
vn -0.4244 0.4146 -0.8050
vn -0.7732 0.4146 0.4799
vn -0.5319 0.1456 -0.8342
vn -0.8807 0.1456 0.4507
vn -0.2620 -0.0000 0.9651
vn 0.2620 -0.0000 -0.9651
vn -0.0043 -0.0051 1.0000
vn -0.0027 0.0021 1.0000
vn -0.0037 -0.0025 1.0000
vn -0.0032 -0.0000 1.0000
vn -0.0000 0.0141 0.9999
vn 0.0341 0.1643 0.9858
vn -0.0011 0.0091 1.0000
vn 0.0880 0.9961 -0.0000
vn 0.1099 0.9900 0.0886
vn -0.1940 -0.8633 -0.4659
vn 0.0731 0.9956 -0.0589
vn -0.0238 -0.0156 -0.9996
vn -0.0262 -0.0000 -0.9997
vn -0.1252 0.6717 -0.7302
vn -0.0300 0.0237 -0.9993
vn -0.0000 0.1639 0.9865
vn 0.1496 -0.8695 0.4708
vn -0.3335 -0.9427 -0.0000
vn 0.2195 0.9674 -0.1264
vt 0.850004 0.431002
vt 0.852083 0.431002
vt 0.852083 0.499614
vt 0.850004 0.499614
vt 0.813489 0.431002
vt 0.817777 0.431002
vt 0.817777 0.499614
vt 0.813489 0.499614
vt 0.798480 0.431002
vt 0.800624 0.431002
vt 0.800624 0.499614
vt 0.798480 0.499614
vt 0.832793 0.431002
vt 0.834939 0.431002
vt 0.834939 0.499614
vt 0.832793 0.499614
vt 0.789904 0.431002
vt 0.792048 0.431002
vt 0.792048 0.499614
vt 0.789904 0.499614
vt 0.807057 0.431002
vt 0.809201 0.431002
vt 0.809201 0.499614
vt 0.807057 0.499614
vt 0.824213 0.431002
vt 0.826358 0.431002
vt 0.826358 0.499614
vt 0.824213 0.499614
vt 0.842439 0.431002
vt 0.843511 0.431002
vt 0.843511 0.499614
vt 0.842439 0.499614
vt 0.785615 0.431002
vt 0.787759 0.431002
vt 0.787759 0.499614
vt 0.785615 0.499614
vt 0.794192 0.431002
vt 0.796336 0.431002
vt 0.796336 0.499614
vt 0.794192 0.499614
vt 0.802768 0.431002
vt 0.804913 0.431002
vt 0.804913 0.499614
vt 0.802768 0.499614
vt 0.811345 0.431002
vt 0.811345 0.499614
vt 0.819922 0.431002
vt 0.822068 0.431002
vt 0.822068 0.499614
vt 0.819922 0.499614
vt 0.828503 0.431002
vt 0.830648 0.431002
vt 0.830648 0.499614
vt 0.828503 0.499614
vt 0.837082 0.431002
vt 0.839225 0.431002
vt 0.839225 0.499614
vt 0.837082 0.499614
vt 0.847797 0.431002
vt 0.847797 0.499614
vt 0.783471 0.431002
vt 0.783471 0.499614
vt 0.841368 0.431002
vt 0.841368 0.499614
vt 0.056007 0.782192
vt 0.056263 0.783915
vt 0.055401 0.785021
vt 0.055028 0.782838
vt 0.081698 0.778657
vt 0.080872 0.777362
vt 0.081632 0.777308
vt 0.082729 0.778228
vt 0.082103 0.773367
vt 0.082055 0.777002
vt 0.079561 0.777112
vt 0.080382 0.778750
vt 0.053163 0.776939
vt 0.052835 0.774898
vt 0.056551 0.783060
vt 0.056911 0.782220
vt 0.081760 0.770751
vt 0.080967 0.780136
vt 0.082082 0.779799
vt 0.083758 0.780019
vt 0.057438 0.780670
vt 0.056455 0.780771
vt 0.053594 0.779649
vt 0.055860 0.780547
vt 0.064163 0.778386
vt 0.057062 0.779279
vt 0.056510 0.779158
vt 0.064251 0.777877
vt 0.180089 0.000814
vt 0.180089 0.212115
vt 0.002552 0.212115
vt 0.002552 0.000814
vt 0.063600 0.779577
vt 0.058043 0.778968
vt 0.054755 0.782921
vt 0.075682 0.778363
vt 0.075057 0.777396
vt 0.578622 0.000774
vt 0.578622 0.226840
vt 0.432718 0.226840
vt 0.432718 0.000774
vt 0.074890 0.776805
vt 0.073968 0.777319
vt 0.074984 0.777752
vt 0.074097 0.777614
vt 0.065129 0.777858
vt 0.065734 0.778509
vt 0.065108 0.779196
vt 0.065028 0.778390
vt 0.073999 0.777089
vt 0.082108 0.773235
vt 0.083078 0.775369
vt 0.061788 0.789111
vt 0.061401 0.790573
vt 0.053310 0.782171
vt 0.052615 0.779235
vt 0.052458 0.776702
vt 0.082383 0.769028
vt 0.082937 0.772202
vt 0.051854 0.773783
vt 0.053538 0.779545
vt 0.052677 0.779219
vt 0.073378 0.777698
vt 0.149244 0.203630
vt 0.149244 0.001088
vt 0.286614 0.001088
vt 0.286614 0.203630
vt 0.064961 0.777117
vt 0.061277 0.788560
vt 0.064389 0.779544
vt 0.062811 0.788825
vt 0.079576 0.786473
vt 0.078217 0.788194
vt 0.077939 0.787655
vt 0.079197 0.786014
vt 0.083724 0.774300
vt 0.052412 0.781584
vt 0.061187 0.791231
vt 0.082851 0.772299
vt 0.062692 0.791959
vt 0.062811 0.791303
vt 0.078445 0.784941
vt 0.063069 0.789852
vt 0.077340 0.786439
vt 0.074930 0.778465
vt 0.074083 0.778300
vt 0.077449 0.785336
vt 0.075866 0.786631
vt 0.064270 0.778754
vt 0.064656 0.789189
vt 0.065940 0.788955
vt 0.078756 0.784119
vt 0.074703 0.787232
vt 0.046612 0.754207
vt 0.047132 0.753775
vt 0.047983 0.753445
vt 0.046922 0.755425
vt 0.084543 0.746730
vt 0.084659 0.746822
vt 0.084296 0.746783
vt 0.084602 0.746607
vt 0.083612 0.771353
vt 0.084689 0.746944
vt 0.085397 0.746096
vt 0.085397 0.772622
vt 0.051854 0.776620
vt 0.045674 0.754961
vt 0.045019 0.756637
vt 0.051797 0.774566
vt 0.082808 0.769276
vt 0.084401 0.747308
vt 0.084367 0.746570
vt 0.084956 0.746090
vt 0.045868 0.753904
vt 0.046627 0.753775
vt 0.051742 0.778815
vt 0.047139 0.753640
vt 0.059107 0.748439
vt 0.059377 0.749882
vt 0.047683 0.752990
vt 0.046582 0.752997
vt 0.440785 0.151165
vt 0.295340 0.151165
vt 0.295340 0.005825
vt 0.440785 0.005825
vt 0.058394 0.746465
vt 0.045160 0.752711
vt 0.050273 0.780805
vt 0.074036 0.746637
vt 0.074354 0.744869
vt 0.519423 0.014390
vt 0.705070 0.014390
vt 0.705070 0.191196
vt 0.519423 0.191196
vt 0.073980 0.747988
vt 0.072628 0.746692
vt 0.072803 0.745920
vt 0.073839 0.745863
vt 0.060476 0.748271
vt 0.060176 0.747453
vt 0.059983 0.746361
vt 0.060643 0.746534
vt 0.072671 0.747975
vt 0.084247 0.773292
vt 0.083533 0.771525
vt 0.051615 0.780939
vt 0.060927 0.791898
vt 0.060156 0.793016
vt 0.051876 0.778884
vt 0.072282 0.745057
vt 0.331563 0.201697
vt 0.144550 0.201697
vt 0.144550 -0.000650
vt 0.331563 -0.000650
vt 0.060637 0.749735
vt 0.059307 0.732989
vt 0.059978 0.733002
vt 0.059254 0.746328
vt 0.079996 0.786917
vt 0.078492 0.788804
vt 0.062606 0.792680
vt 0.080985 0.787433
vt 0.062840 0.794331
vt 0.078725 0.790454
vt 0.073670 0.744839
vt 0.072908 0.744909
vt 0.072928 0.733390
vt 0.072277 0.733461
vt 0.059194 0.747538
vt 0.060601 0.733067
vt 0.061265 0.733192
vt 0.073503 0.733361
vt 0.071707 0.733559
vt 0.737303 0.190713
vt 0.734659 0.190713
vt 0.734659 0.190247
vt 0.737303 0.190247
vt 0.733338 0.190713
vt 0.732016 0.190713
vt 0.732016 0.190247
vt 0.733338 0.190247
vt 0.729372 0.190713
vt 0.729372 0.190247
vt 0.726728 0.190713
vt 0.726728 0.190247
vt 0.724085 0.190713
vt 0.724085 0.190247
vt 0.721441 0.190713
vt 0.721441 0.190247
vt 0.718797 0.190713
vt 0.718797 0.190247
vt 0.716154 0.190713
vt 0.716154 0.190247
vt 0.713510 0.190713
vt 0.713510 0.190247
vt 0.710867 0.190713
vt 0.710867 0.190247
vt 0.708223 0.190713
vt 0.708223 0.190247
vt 0.705579 0.190713
vt 0.705579 0.190247
vt 0.702936 0.190713
vt 0.702936 0.190247
vt 0.700292 0.190713
vt 0.700292 0.190247
vt 0.697648 0.190713
vt 0.697648 0.190247
vt 0.708223 0.189824
vt 0.704338 0.189051
vt 0.701045 0.186850
vt 0.698844 0.183557
vt 0.698071 0.179672
vt 0.698844 0.175787
vt 0.701045 0.172494
vt 0.704338 0.170293
vt 0.708223 0.169520
vt 0.712108 0.170293
vt 0.715401 0.172494
vt 0.717602 0.175787
vt 0.718374 0.179672
vt 0.717602 0.183557
vt 0.716501 0.185204
vt 0.715401 0.186850
vt 0.712108 0.189051
vt 0.729372 0.189824
vt 0.733257 0.189051
vt 0.736550 0.186850
vt 0.737651 0.185204
vt 0.738751 0.183557
vt 0.739524 0.179672
vt 0.738751 0.175787
vt 0.736550 0.172494
vt 0.733257 0.170293
vt 0.729372 0.169520
vt 0.725487 0.170293
vt 0.722194 0.172494
vt 0.719993 0.175787
vt 0.719220 0.179672
vt 0.719993 0.183557
vt 0.722194 0.186850
vt 0.725487 0.189051
vt 0.739947 0.190713
vt 0.739947 0.190247
vt 0.739947 0.210935
vt 0.737303 0.210935
vt 0.700292 0.210935
vt 0.697648 0.210935
vt 0.702936 0.210935
vt 0.705579 0.210935
vt 0.708223 0.210935
vt 0.710867 0.210935
vt 0.713510 0.210935
vt 0.716154 0.210935
vt 0.718797 0.210935
vt 0.721441 0.210935
vt 0.724085 0.210935
vt 0.726728 0.210935
vt 0.729372 0.210935
vt 0.732016 0.210935
vt 0.733338 0.210935
vt 0.734659 0.210935
vt 0.737303 0.211396
vt 0.734659 0.211396
vt 0.733338 0.211396
vt 0.732016 0.211396
vt 0.729372 0.211396
vt 0.726728 0.211396
vt 0.724085 0.211396
vt 0.721441 0.211396
vt 0.718797 0.211396
vt 0.716154 0.211396
vt 0.713510 0.211396
vt 0.710867 0.211396
vt 0.708223 0.211396
vt 0.705579 0.211396
vt 0.702936 0.211396
vt 0.700292 0.211396
vt 0.697648 0.211396
vt 0.739947 0.211396
vt 0.322856 0.168061
vt 0.321704 0.168532
vt 0.321332 0.167551
vt 0.322814 0.167013
vt 0.320684 0.169582
vt 0.320051 0.168887
vt 0.320000 0.171185
vt 0.319236 0.170851
vt 0.319834 0.173023
vt 0.319005 0.173084
vt 0.320136 0.174806
vt 0.319397 0.175256
vt 0.320935 0.176200
vt 0.320376 0.177054
vt 0.321993 0.177060
vt 0.321775 0.178090
vt 0.323182 0.177236
vt 0.323288 0.178279
vt 0.324347 0.176765
vt 0.324743 0.177686
vt 0.325345 0.175674
vt 0.325981 0.176339
vt 0.325995 0.174082
vt 0.326766 0.174379
vt 0.326169 0.172256
vt 0.326960 0.172194
vt 0.325830 0.170522
vt 0.326580 0.170055
vt 0.325092 0.169107
vt 0.325625 0.168296
vt 0.324048 0.168220
vt 0.324294 0.167261
vt 0.320668 0.166085
vt 0.322685 0.165185
vt 0.322881 0.169036
vt 0.321962 0.169418
vt 0.319079 0.167960
vt 0.321169 0.170277
vt 0.318170 0.170428
vt 0.320650 0.171510
vt 0.317996 0.173053
vt 0.320515 0.172924
vt 0.318254 0.175750
vt 0.320758 0.174300
vt 0.319357 0.178270
vt 0.321362 0.175410
vt 0.321234 0.180112
vt 0.322208 0.176096
vt 0.323468 0.180112
vt 0.323159 0.176250
vt 0.325433 0.179105
vt 0.324079 0.175867
vt 0.326951 0.177222
vt 0.324853 0.174997
vt 0.327815 0.174771
vt 0.325352 0.173755
vt 0.327950 0.172211
vt 0.325489 0.172353
vt 0.327693 0.169576
vt 0.325234 0.170999
vt 0.326624 0.167139
vt 0.324652 0.169884
vt 0.324859 0.165315
vt 0.323825 0.169194
vt 0.293581 0.183454
vt 0.292386 0.183648
vt 0.292105 0.182647
vt 0.293636 0.182363
vt 0.291272 0.184503
vt 0.290730 0.183718
vt 0.290442 0.185910
vt 0.289727 0.185435
vt 0.290030 0.187679
vt 0.289232 0.187551
vt 0.290159 0.189513
vt 0.289343 0.189825
vt 0.290739 0.191107
vt 0.290113 0.191789
vt 0.291717 0.192127
vt 0.291353 0.193100
vt 0.292849 0.192558
vt 0.292825 0.193598
vt 0.294051 0.192355
vt 0.294301 0.193317
vt 0.295147 0.191471
vt 0.295651 0.192281
vt 0.295970 0.190067
vt 0.296667 0.190595
vt 0.296365 0.188319
vt 0.297194 0.188466
vt 0.296312 0.186478
vt 0.297093 0.186198
vt 0.295701 0.184899
vt 0.296352 0.184234
vt 0.294735 0.183843
vt 0.295126 0.182908
vt 0.291582 0.181090
vt 0.293692 0.180490
vt 0.293492 0.184409
vt 0.292538 0.184590
vt 0.289881 0.182681
vt 0.291671 0.185275
vt 0.288824 0.184900
vt 0.291031 0.186377
vt 0.288136 0.187321
vt 0.290723 0.187735
vt 0.288143 0.190104
vt 0.290817 0.189153
vt 0.288975 0.192783
vt 0.291275 0.190390
vt 0.290591 0.194973
vt 0.292030 0.191240
vt 0.292792 0.195424
vt 0.292943 0.191592
vt 0.294810 0.194825
vt 0.293888 0.191407
vt 0.296475 0.193317
vt 0.294743 0.190712
vt 0.297562 0.191152
vt 0.295382 0.189607
vt 0.298291 0.188712
vt 0.295695 0.188247
vt 0.298291 0.185937
vt 0.295632 0.186835
vt 0.297497 0.183271
vt 0.295174 0.185608
vt 0.295918 0.181036
vt 0.294416 0.184757
vt 0.322693 0.183389
vt 0.321526 0.183858
vt 0.321145 0.182931
vt 0.322613 0.182317
vt 0.320552 0.185015
vt 0.319892 0.184318
vt 0.319920 0.186631
vt 0.319124 0.186349
vt 0.319770 0.188469
vt 0.318965 0.188586
vt 0.320122 0.190218
vt 0.319401 0.190713
vt 0.320901 0.191629
vt 0.320381 0.192425
vt 0.321984 0.192405
vt 0.321747 0.193430
vt 0.323160 0.192583
vt 0.323247 0.193600
vt 0.324304 0.192054
vt 0.324690 0.193000
vt 0.325304 0.190976
vt 0.325918 0.191638
vt 0.325923 0.189345
vt 0.326691 0.189681
vt 0.326085 0.187523
vt 0.326891 0.187478
vt 0.325743 0.185774
vt 0.326494 0.185334
vt 0.324954 0.184396
vt 0.325515 0.183556
vt 0.323892 0.183531
vt 0.324130 0.182534
vt 0.320437 0.181484
vt 0.322442 0.180469
vt 0.322741 0.184370
vt 0.321816 0.184773
vt 0.318888 0.183432
vt 0.321052 0.185671
vt 0.318042 0.185983
vt 0.320566 0.186931
vt 0.317964 0.188613
vt 0.320453 0.188350
vt 0.318298 0.191235
vt 0.320724 0.189714
vt 0.319403 0.193620
vt 0.321330 0.190810
vt 0.321225 0.195417
vt 0.322177 0.191464
vt 0.323429 0.195417
vt 0.323119 0.191592
vt 0.325384 0.194408
vt 0.324030 0.191179
vt 0.326889 0.192512
vt 0.324799 0.190299
vt 0.327742 0.190071
vt 0.325282 0.189049
vt 0.327886 0.187495
vt 0.325404 0.187638
vt 0.327620 0.184838
vt 0.325141 0.186280
vt 0.326522 0.182356
vt 0.324534 0.185182
vt 0.324678 0.180525
vt 0.323693 0.184510
vt 0.293065 0.168452
vt 0.291855 0.168859
vt 0.291462 0.167872
vt 0.293024 0.167349
vt 0.290803 0.169965
vt 0.290143 0.169268
vt 0.290138 0.171607
vt 0.289337 0.171306
vt 0.289966 0.173461
vt 0.289150 0.173568
vt 0.290309 0.175225
vt 0.289576 0.175727
vt 0.291089 0.176632
vt 0.290567 0.177475
vt 0.292150 0.177468
vt 0.291939 0.178481
vt 0.293325 0.177634
vt 0.293431 0.178662
vt 0.294476 0.177165
vt 0.294866 0.178074
vt 0.295466 0.176087
vt 0.296089 0.176747
vt 0.296120 0.174501
vt 0.296867 0.174820
vt 0.296282 0.172702
vt 0.297086 0.172648
vt 0.296005 0.170965
vt 0.296720 0.170547
vt 0.295259 0.169589
vt 0.295817 0.168809
vt 0.294252 0.168679
vt 0.294539 0.167715
vt 0.290717 0.166322
vt 0.292907 0.165185
vt 0.293072 0.169444
vt 0.292114 0.169802
vt 0.289118 0.168348
vt 0.291303 0.170671
vt 0.288244 0.170917
vt 0.290789 0.171925
vt 0.288136 0.173577
vt 0.290657 0.173349
vt 0.288453 0.176250
vt 0.290919 0.174723
vt 0.289579 0.178684
vt 0.291520 0.175836
vt 0.291417 0.180465
vt 0.292359 0.176513
vt 0.293610 0.180465
vt 0.293299 0.176663
vt 0.295546 0.179473
vt 0.294209 0.176277
vt 0.297043 0.177620
vt 0.294980 0.175415
vt 0.297903 0.175218
vt 0.295480 0.174188
vt 0.298061 0.172675
vt 0.295616 0.172792
vt 0.297811 0.170086
vt 0.295395 0.171438
vt 0.296777 0.167708
vt 0.294828 0.170338
vt 0.295090 0.166001
vt 0.294023 0.169636
vt 0.313916 0.198830
vt 0.312673 0.198613
vt 0.312578 0.197494
vt 0.314193 0.197771
vt 0.311385 0.199131
vt 0.310962 0.198158
vt 0.310313 0.200328
vt 0.309653 0.199666
vt 0.309660 0.201975
vt 0.308875 0.201674
vt 0.309473 0.203793
vt 0.308671 0.203865
vt 0.309841 0.205461
vt 0.309099 0.205982
vt 0.310583 0.206754
vt 0.310108 0.207592
vt 0.311624 0.207484
vt 0.311438 0.208477
vt 0.312821 0.207623
vt 0.312909 0.208625
vt 0.314025 0.207076
vt 0.314384 0.208006
vt 0.315041 0.205958
vt 0.315644 0.206665
vt 0.315750 0.204416
vt 0.316486 0.204783
vt 0.315968 0.202627
vt 0.316771 0.202616
vt 0.315673 0.200952
vt 0.316412 0.200539
vt 0.314953 0.199632
vt 0.315521 0.198871
vt 0.312306 0.195674
vt 0.314687 0.195674
vt 0.313648 0.199762
vt 0.312653 0.199623
vt 0.310253 0.196804
vt 0.311657 0.200036
vt 0.308743 0.198784
vt 0.310833 0.200956
vt 0.307935 0.201193
vt 0.310321 0.202218
vt 0.307490 0.203794
vt 0.310185 0.203615
vt 0.307845 0.206622
vt 0.310446 0.204936
vt 0.309080 0.209187
vt 0.311039 0.205975
vt 0.311119 0.210226
vt 0.311867 0.206574
vt 0.313158 0.210227
vt 0.312814 0.206659
vt 0.315015 0.209245
vt 0.313757 0.206226
vt 0.316415 0.207451
vt 0.314560 0.205341
vt 0.317487 0.205331
vt 0.315103 0.204138
vt 0.317940 0.202716
vt 0.315272 0.202765
vt 0.317621 0.199980
vt 0.315051 0.201455
vt 0.316520 0.197534
vt 0.314486 0.200408
vt 0.313462 0.168427
vt 0.312225 0.168603
vt 0.311942 0.167555
vt 0.313537 0.167334
vt 0.311069 0.169497
vt 0.310492 0.168682
vt 0.310235 0.170994
vt 0.309475 0.170544
vt 0.309866 0.172795
vt 0.309047 0.172745
vt 0.310015 0.174608
vt 0.309235 0.174965
vt 0.310637 0.176152
vt 0.310027 0.176887
vt 0.311598 0.177186
vt 0.311279 0.178150
vt 0.312746 0.177580
vt 0.312739 0.178619
vt 0.313937 0.177335
vt 0.314227 0.178312
vt 0.315034 0.176450
vt 0.315585 0.177223
vt 0.315849 0.174995
vt 0.316560 0.175449
vt 0.316191 0.173237
vt 0.317000 0.173321
vt 0.316082 0.171475
vt 0.316844 0.171155
vt 0.315516 0.169952
vt 0.316123 0.169285
vt 0.314606 0.168871
vt 0.314989 0.167980
vt 0.311375 0.165885
vt 0.313653 0.165185
vt 0.313365 0.169405
vt 0.312383 0.169582
vt 0.309578 0.167578
vt 0.311488 0.170290
vt 0.308436 0.169950
vt 0.310845 0.171432
vt 0.308042 0.172560
vt 0.310561 0.172816
vt 0.308066 0.175267
vt 0.310673 0.174226
vt 0.308917 0.177894
vt 0.311151 0.175444
vt 0.310545 0.180017
vt 0.311910 0.176279
vt 0.312719 0.180444
vt 0.312826 0.176611
vt 0.314752 0.179833
vt 0.313768 0.176405
vt 0.316442 0.178274
vt 0.314621 0.175693
vt 0.317554 0.176038
vt 0.315246 0.174570
vt 0.317971 0.173520
vt 0.315520 0.173208
vt 0.317971 0.170886
vt 0.315436 0.171819
vt 0.317176 0.168375
vt 0.315000 0.170616
vt 0.315708 0.166404
vt 0.314280 0.169772
vt 0.322921 0.198304
vt 0.321784 0.198793
vt 0.321409 0.197828
vt 0.322875 0.197266
vt 0.320783 0.199841
vt 0.320160 0.199166
vt 0.320109 0.201411
vt 0.319357 0.201060
vt 0.319925 0.203241
vt 0.319086 0.203283
vt 0.320221 0.205058
vt 0.319473 0.205516
vt 0.321031 0.206463
vt 0.320470 0.207322
vt 0.322092 0.207325
vt 0.321873 0.208348
vt 0.323290 0.207513
vt 0.323369 0.208534
vt 0.324444 0.206997
vt 0.324825 0.207952
vt 0.325455 0.205928
vt 0.326069 0.206603
vt 0.326078 0.204308
vt 0.326863 0.204637
vt 0.326262 0.202494
vt 0.327054 0.202429
vt 0.325927 0.200737
vt 0.326670 0.200307
vt 0.325154 0.199359
vt 0.325714 0.198539
vt 0.324112 0.198481
vt 0.324356 0.197506
vt 0.320731 0.196394
vt 0.322729 0.195441
vt 0.322962 0.199289
vt 0.322043 0.199670
vt 0.319206 0.198296
vt 0.321264 0.200526
vt 0.318395 0.200700
vt 0.320751 0.201740
vt 0.317964 0.203275
vt 0.320610 0.203152
vt 0.318307 0.206053
vt 0.320852 0.204547
vt 0.319461 0.208556
vt 0.321461 0.205669
vt 0.321341 0.210357
vt 0.322308 0.206357
vt 0.323546 0.210357
vt 0.323259 0.206510
vt 0.325510 0.209376
vt 0.324176 0.206116
vt 0.327042 0.207497
vt 0.324951 0.205244
vt 0.327920 0.205031
vt 0.325441 0.203991
vt 0.328047 0.202441
vt 0.325580 0.202585
vt 0.327782 0.199825
vt 0.325327 0.201232
vt 0.326715 0.197370
vt 0.324731 0.200131
vt 0.324916 0.195542
vt 0.323904 0.199446
vt 0.303526 0.168440
vt 0.302287 0.168608
vt 0.302011 0.167558
vt 0.303611 0.167341
vt 0.301114 0.169498
vt 0.300562 0.168680
vt 0.300306 0.171034
vt 0.299529 0.170551
vt 0.299932 0.172833
vt 0.299103 0.172787
vt 0.300088 0.174653
vt 0.299306 0.175020
vt 0.300721 0.176194
vt 0.300115 0.176938
vt 0.301690 0.177214
vt 0.301379 0.178182
vt 0.302839 0.177589
vt 0.302841 0.178627
vt 0.304027 0.177329
vt 0.304323 0.178299
vt 0.305115 0.176436
vt 0.305667 0.177199
vt 0.305918 0.174981
vt 0.306627 0.175427
vt 0.306253 0.173230
vt 0.307056 0.173313
vt 0.306147 0.171477
vt 0.306901 0.171166
vt 0.305591 0.169940
vt 0.306197 0.169314
vt 0.304661 0.168896
vt 0.305068 0.167998
vt 0.301446 0.165883
vt 0.303734 0.165185
vt 0.303428 0.169416
vt 0.302443 0.169592
vt 0.299646 0.167565
vt 0.301547 0.170301
vt 0.298479 0.169949
vt 0.300914 0.171459
vt 0.298085 0.172608
vt 0.300630 0.172852
vt 0.298131 0.175341
vt 0.300746 0.174266
vt 0.299011 0.177966
vt 0.301230 0.175480
vt 0.300662 0.180060
vt 0.301994 0.176303
vt 0.302838 0.180448
vt 0.302911 0.176620
vt 0.304858 0.179806
vt 0.303852 0.176402
vt 0.306526 0.178233
vt 0.304701 0.175686
vt 0.307614 0.176001
vt 0.305317 0.174561
vt 0.308017 0.173507
vt 0.305586 0.173202
vt 0.308017 0.170908
vt 0.305502 0.171818
vt 0.307249 0.168419
vt 0.305069 0.170619
vt 0.305796 0.166425
vt 0.304346 0.169783
vt 0.314050 0.182432
vt 0.315418 0.183362
vt 0.314923 0.184208
vt 0.313842 0.183409
vt 0.316442 0.185032
vt 0.315734 0.185563
vt 0.316933 0.187144
vt 0.316121 0.187300
vt 0.316840 0.189410
vt 0.316022 0.189140
vt 0.316106 0.191481
vt 0.315454 0.190831
vt 0.314870 0.192936
vt 0.314449 0.192003
vt 0.313376 0.193564
vt 0.313268 0.192523
vt 0.311877 0.193358
vt 0.312087 0.192349
vt 0.310546 0.192401
vt 0.311034 0.191568
vt 0.309537 0.190763
vt 0.310236 0.190233
vt 0.309043 0.188670
vt 0.309844 0.188517
vt 0.309150 0.186420
vt 0.309955 0.186673
vt 0.309884 0.184349
vt 0.310560 0.185034
vt 0.311125 0.182919
vt 0.311510 0.183864
vt 0.312569 0.182279
vt 0.312650 0.183308
vt 0.314518 0.185016
vt 0.313671 0.184384
vt 0.314534 0.180469
vt 0.316355 0.182139
vt 0.315146 0.186088
vt 0.317529 0.184455
vt 0.315446 0.187435
vt 0.317940 0.187067
vt 0.315365 0.188866
vt 0.317940 0.189728
vt 0.314915 0.190164
vt 0.317147 0.192325
vt 0.314150 0.191089
vt 0.315657 0.194389
vt 0.313216 0.191523
vt 0.313597 0.195650
vt 0.312268 0.191407
vt 0.311437 0.195094
vt 0.311436 0.190775
vt 0.309661 0.193604
vt 0.310820 0.189712
vt 0.308467 0.191351
vt 0.310521 0.188370
vt 0.308042 0.188749
vt 0.310607 0.186951
vt 0.308050 0.186092
vt 0.311074 0.185673
vt 0.308858 0.183480
vt 0.311819 0.184743
vt 0.310404 0.181489
vt 0.312727 0.184294
vt 0.312375 0.180473
vt 0.291927 0.197492
vt 0.293504 0.197225
vt 0.293423 0.198353
vt 0.292176 0.198484
vt 0.295104 0.197891
vt 0.294689 0.198854
vt 0.296395 0.199369
vt 0.295768 0.200033
vt 0.297179 0.201343
vt 0.296410 0.201690
vt 0.297401 0.203534
vt 0.296582 0.203492
vt 0.296984 0.205665
vt 0.296233 0.205163
vt 0.295986 0.207289
vt 0.295497 0.206489
vt 0.294643 0.208212
vt 0.294423 0.207183
vt 0.293128 0.208366
vt 0.293221 0.207336
vt 0.291615 0.207717
vt 0.292015 0.206766
vt 0.290357 0.206309
vt 0.290986 0.205644
vt 0.289545 0.204376
vt 0.290317 0.204050
vt 0.289309 0.202175
vt 0.290111 0.202258
vt 0.289706 0.200128
vt 0.290409 0.200575
vt 0.290614 0.198502
vt 0.291144 0.199301
vt 0.293428 0.199329
vt 0.292445 0.199433
vt 0.291476 0.195448
vt 0.293775 0.195448
vt 0.294419 0.199752
vt 0.295797 0.196555
vt 0.295244 0.200665
vt 0.297288 0.198490
vt 0.295750 0.201923
vt 0.298108 0.200849
vt 0.295881 0.203318
vt 0.298582 0.203445
vt 0.295623 0.204640
vt 0.298250 0.206286
vt 0.295029 0.205681
vt 0.297041 0.208886
vt 0.294187 0.206278
vt 0.294984 0.209999
vt 0.293232 0.206363
vt 0.292871 0.210021
vt 0.292284 0.205920
vt 0.290951 0.208976
vt 0.291483 0.205026
vt 0.289554 0.207079
vt 0.290964 0.203791
vt 0.288520 0.204886
vt 0.290808 0.202402
vt 0.288136 0.202227
vt 0.291036 0.201091
vt 0.288522 0.199526
vt 0.291611 0.200056
vt 0.289666 0.197162
s 1
f 59/1/1 2/2/2 4/3/2 60/4/3
f 25/5/4 5/6/5 6/7/6 26/8/7
f 43/9/8 8/10/9 7/11/9 44/12/10
f 61/13/11 9/14/12 10/15/12 62/16/13
f 37/17/14 12/18/15 11/19/15 38/20/14
f 47/21/16 13/22/17 14/23/18 48/24/16
f 51/25/19 16/26/20 15/27/20 52/28/19
f 63/29/21 17/30/22 18/31/23 64/32/21
f 40/33/24 20/34/25 19/35/25 39/36/24
f 36/37/26 21/38/27 22/39/28 35/40/29
f 42/41/30 24/42/31 23/43/31 41/44/30
f 46/45/32 25/5/4 26/8/7 45/46/33
f 50/47/34 28/48/35 27/49/35 49/50/34
f 54/51/36 29/52/37 30/53/38 53/54/39
f 56/55/40 32/56/41 31/57/41 55/58/40
f 17/30/22 33/59/42 34/60/43 18/31/23
f 12/18/15 36/37/26 35/40/29 11/19/15
f 20/34/25 37/17/14 38/20/14 19/35/25
f 1/61/44 40/33/24 39/36/24 3/62/44
f 8/10/9 42/41/30 41/44/30 7/11/9
f 21/38/27 43/9/8 44/12/10 22/39/28
f 13/22/17 46/45/32 45/46/33 14/23/18
f 24/42/31 47/21/16 48/24/16 23/43/31
f 5/6/5 50/47/34 49/50/34 6/7/6
f 28/48/35 51/25/19 52/28/19 27/49/35
f 16/26/20 54/51/36 53/54/39 15/27/20
f 9/14/12 56/55/40 55/58/40 10/15/12
f 32/56/41 57/63/45 58/64/45 31/57/41
f 33/59/42 59/1/1 60/4/3 34/60/43
f 29/52/37 61/13/11 62/16/13 30/53/38
f 57/63/45 63/29/21 64/32/21 58/64/45
s 0
f 83/65/46 76/66/46 66/67/46 80/68/46
f 79/69/47 77/70/47 69/71/47 73/72/47
f 100/73/48 99/74/48 72/75/48 75/76/48
f 101/77/46 98/78/46 70/79/46 82/80/46
f 97/81/49 100/73/49 75/76/49 71/82/49
f 78/83/49 79/69/49 73/72/49 65/84/49
f 71/82/50 75/76/50 79/69/50 78/83/50
f 75/76/51 72/75/51 77/70/51 79/69/51
f 82/80/46 70/79/46 76/66/46 83/65/46
f 89/85/50 82/80/50 83/65/50 90/86/50
f 103/87/49 101/77/49 82/80/49 89/85/49
f 90/86/49 83/65/49 80/68/49 87/88/49
f 112/89/49 86/90/49 84/91/49 110/92/49
f 113/93/49 102/94/49 85/95/49 111/96/49
f 111/97/52 85/98/52 86/90/52 112/89/52
f 86/90/53 90/86/53 87/88/53 84/91/53
f 102/99/54 103/87/54 89/85/54 85/98/54
f 85/98/55 89/85/55 90/86/55 86/90/55
f 72/75/52 92/100/52 93/101/52 77/70/52
f 99/102/49 104/103/49 92/104/49 72/105/49
f 77/70/49 93/101/49 91/106/49 69/71/49
f 96/107/56 93/101/56 133/108/56 132/109/56
f 108/110/57 107/111/57 137/112/57 139/113/57
f 93/101/49 96/107/49 94/114/49 91/106/49
f 99/74/58 100/73/58 122/115/58 121/116/58
f 102/99/58 113/117/58 129/118/58 123/119/58
f 88/120/49 81/121/49 101/77/49 103/87/49
f 67/122/49 74/123/49 100/73/49 97/81/49
f 81/121/46 68/124/46 98/78/46 101/77/46
f 88/120/59 103/87/59 124/125/59 117/126/59
f 95/127/52 107/111/52 108/110/52 96/107/52
f 105/128/49 109/129/49 107/130/49 95/131/49
f 96/107/49 108/110/49 106/132/49 94/114/49
f 113/133/46 111/97/46 136/134/46 140/135/46
f 108/110/49 112/89/49 110/92/49 106/132/49
f 114/136/49 119/137/49 126/138/49 125/139/49
f 115/140/49 114/136/49 125/139/49 121/116/49
f 118/141/60 117/126/60 124/125/60 123/119/60
f 128/142/49 118/141/49 123/119/49 129/118/49
f 116/143/61 115/140/61 121/116/61 122/115/61
f 119/137/49 120/144/49 127/145/49 126/138/49
f 120/144/49 128/142/49 129/118/49 127/145/49
f 104/146/58 99/74/58 121/116/58 125/139/58
f 100/73/62 74/123/62 116/143/62 122/115/62
f 103/87/58 102/99/58 123/119/58 124/125/58
f 109/147/58 105/148/58 126/138/58 127/145/58
f 131/149/63 130/150/63 132/109/63 133/108/63
f 134/151/49 135/152/49 130/150/49 131/149/49
f 137/112/64 136/134/64 138/153/64 139/113/64
f 141/154/49 140/135/49 136/134/49 137/112/49
f 112/89/65 108/110/65 139/113/65 138/153/65
f 107/111/57 109/155/57 141/154/57 137/112/57
f 93/101/57 92/100/57 131/149/57 133/108/57
f 95/127/46 96/107/46 132/109/46 130/150/46
f 92/100/57 104/156/57 134/151/57 131/149/57
f 111/97/46 112/89/46 138/153/46 136/134/46
f 105/157/46 95/127/46 130/150/46 135/152/46
f 156/158/46 154/159/46 143/160/46 150/161/46
f 153/162/47 148/163/47 144/164/47 151/165/47
f 172/166/48 149/167/48 147/168/48 171/169/48
f 173/170/46 155/171/46 145/172/46 170/173/46
f 169/174/49 146/175/49 149/167/49 172/166/49
f 152/176/49 142/177/49 148/163/49 153/162/49
f 146/175/66 152/176/66 153/162/66 149/167/66
f 149/167/67 153/162/67 151/165/67 147/168/67
f 155/171/46 156/158/46 150/161/46 145/172/46
f 161/178/66 162/179/66 156/158/66 155/171/66
f 175/180/49 161/178/49 155/171/49 173/170/49
f 162/179/49 160/181/49 154/159/49 156/158/49
f 184/182/49 182/183/49 157/184/49 159/185/49
f 185/186/49 183/187/49 158/188/49 174/189/49
f 183/190/68 184/182/68 159/185/68 158/191/68
f 159/185/53 157/184/53 160/181/53 162/179/53
f 174/192/54 158/191/54 161/178/54 175/180/54
f 158/191/69 159/185/69 162/179/69 161/178/69
f 147/168/68 151/165/68 165/193/68 164/194/68
f 171/195/49 147/196/49 164/197/49 176/198/49
f 151/165/49 144/164/49 163/199/49 165/193/49
f 168/200/70 196/201/70 197/202/70 165/193/70
f 180/203/57 203/204/57 201/205/57 179/206/57
f 165/193/71 163/199/71 166/207/71 168/200/71
f 171/169/72 186/208/72 187/209/72 172/166/72
f 174/192/72 188/210/72 193/211/72 185/212/72
f 88/120/49 175/180/49 173/170/49 81/121/49
f 67/122/49 169/174/49 172/166/49 74/123/49
f 81/121/46 173/170/46 170/173/46 68/124/46
f 88/120/59 117/126/59 189/213/59 175/180/59
f 167/214/68 168/200/68 180/203/68 179/206/68
f 177/215/49 167/216/49 179/217/49 181/218/49
f 168/200/73 166/207/73 178/219/73 180/203/73
f 185/220/46 204/221/46 200/222/46 183/190/46
f 180/203/74 178/219/74 182/183/74 184/182/74
f 114/136/49 190/223/49 191/224/49 119/137/49
f 115/140/49 186/208/49 190/223/49 114/136/49
f 118/141/60 188/210/60 189/213/60 117/126/60
f 128/142/49 193/211/49 188/210/49 118/141/49
f 116/143/61 187/209/61 186/208/61 115/140/61
f 119/137/49 191/224/49 192/225/49 120/144/49
f 120/144/49 192/225/49 193/211/49 128/142/49
f 176/226/72 190/223/72 186/208/72 171/169/72
f 172/166/75 187/209/75 116/143/75 74/123/75
f 175/180/72 189/213/72 188/210/72 174/192/72
f 181/227/72 192/225/72 191/224/72 177/228/72
f 195/229/76 197/202/76 196/201/76 194/230/76
f 198/231/49 195/229/49 194/230/49 199/232/49
f 201/205/77 203/204/77 202/233/77 200/222/77
f 205/234/49 201/205/49 200/222/49 204/221/49
f 184/182/78 202/233/78 203/204/78 180/203/78
f 179/206/57 201/205/57 205/234/57 181/235/57
f 165/193/57 197/202/57 195/229/57 164/194/57
f 167/214/46 194/230/46 196/201/46 168/200/46
f 164/194/57 195/229/57 198/231/57 176/236/57
f 183/190/46 200/222/46 202/233/46 184/182/46
f 177/237/46 199/232/46 194/230/46 167/214/46
f 239/238/79 240/239/79 210/240/79 208/241/79
f 272/242/80 241/243/80 212/244/80 270/245/80
f 241/243/81 242/246/81 214/247/81 212/244/81
f 242/246/82 243/248/82 216/249/82 214/247/82
f 243/248/83 244/250/83 218/251/83 216/249/83
f 244/250/84 245/252/84 220/253/84 218/251/84
f 245/252/85 246/254/85 222/255/85 220/253/85
f 246/254/86 247/256/86 224/257/86 222/255/86
f 247/256/87 248/258/87 226/259/87 224/257/87
f 248/258/88 249/260/88 228/261/88 226/259/88
f 249/260/89 250/262/89 230/263/89 228/261/89
f 250/262/90 251/264/90 232/265/90 230/263/90
f 251/264/91 252/266/91 234/267/91 232/265/91
f 252/266/92 253/268/92 236/269/92 234/267/92
f 253/268/93 238/270/93 206/271/93 236/269/93
f 207/272/72 237/273/72 235/274/72 233/275/72 231/276/72 229/277/72 227/278/72 225/279/72 223/280/72 221/281/72 219/282/72 217/283/72 215/284/72 213/285/72 271/286/72 211/287/72 209/288/72
f 206/289/58 208/290/58 210/291/58 270/292/58 212/293/58 214/294/58 216/295/58 218/296/58 220/297/58 222/298/58 224/299/58 226/300/58 228/301/58 230/302/58 232/303/58 234/304/58 236/305/58
f 238/306/94 239/238/94 208/241/94 206/307/94
f 254/308/95 255/309/95 239/238/95 238/306/95
f 269/310/96 254/311/96 238/270/96 253/268/96
f 268/312/97 269/310/97 253/268/97 252/266/97
f 267/313/98 268/312/98 252/266/98 251/264/98
f 266/314/99 267/313/99 251/264/99 250/262/99
f 265/315/100 266/314/100 250/262/100 249/260/100
f 264/316/101 265/315/101 249/260/101 248/258/101
f 263/317/102 264/316/102 248/258/102 247/256/102
f 262/318/103 263/317/103 247/256/103 246/254/103
f 261/319/104 262/318/104 246/254/104 245/252/104
f 260/320/105 261/319/105 245/252/105 244/250/105
f 259/321/106 260/320/106 244/250/106 243/248/106
f 258/322/107 259/321/107 243/248/107 242/246/107
f 257/323/108 258/322/108 242/246/108 241/243/108
f 273/324/109 257/323/109 241/243/109 272/242/109
f 255/309/110 256/325/110 240/239/110 239/238/110
f 209/326/111 211/327/111 256/325/111 255/309/111
f 271/328/112 213/329/112 257/323/112 273/324/112
f 213/329/113 215/330/113 258/322/113 257/323/113
f 215/330/114 217/331/114 259/321/114 258/322/114
f 217/331/115 219/332/115 260/320/115 259/321/115
f 219/332/116 221/333/116 261/319/116 260/320/116
f 221/333/117 223/334/117 262/318/117 261/319/117
f 223/334/118 225/335/118 263/317/118 262/318/118
f 225/335/119 227/336/119 264/316/119 263/317/119
f 227/336/120 229/337/120 265/315/120 264/316/120
f 229/337/121 231/338/121 266/314/121 265/315/121
f 231/338/122 233/339/122 267/313/122 266/314/122
f 233/339/123 235/340/123 268/312/123 267/313/123
f 235/340/124 237/341/124 269/310/124 268/312/124
f 237/341/125 207/342/125 254/311/125 269/310/125
f 207/343/126 209/326/126 255/309/126 254/308/126
f 211/327/127 271/328/127 273/324/127 256/325/127
f 256/325/109 273/324/109 272/242/109 240/239/109
f 240/239/128 272/242/128 270/245/128 210/240/128
s 1
f 309/344/129 308/345/130 307/346/131 306/347/132
f 308/345/130 311/348/133 310/349/134 307/346/131
f 311/348/133 313/350/135 312/351/136 310/349/134
f 313/350/135 315/352/137 314/353/138 312/351/136
f 315/352/137 317/354/139 316/355/140 314/353/138
f 317/354/139 319/356/141 318/357/142 316/355/140
f 319/356/141 321/358/143 320/359/144 318/357/142
f 321/358/143 323/360/145 322/361/146 320/359/144
f 323/360/145 325/362/147 324/363/148 322/361/146
f 325/362/147 327/364/149 326/365/150 324/363/148
f 327/364/149 329/366/151 328/367/152 326/365/150
f 329/366/151 331/368/153 330/369/154 328/367/152
f 331/368/153 333/370/155 332/371/156 330/369/154
f 333/370/155 335/372/157 334/373/158 332/371/156
f 335/372/157 337/374/159 336/375/160 334/373/158
f 336/375/160 337/374/159 309/344/129 306/347/132
f 276/376/161 274/377/161 306/347/132 307/346/131
f 275/378/162 277/379/162 308/345/130 309/344/129
f 278/380/161 276/376/161 307/346/131 310/349/134
f 277/379/162 279/381/162 311/348/133 308/345/130
f 280/382/161 278/380/161 310/349/134 312/351/136
f 279/381/162 281/383/162 313/350/135 311/348/133
f 282/384/161 280/382/161 312/351/136 314/353/138
f 281/383/162 283/385/162 315/352/137 313/350/135
f 284/386/161 282/384/161 314/353/138 316/355/140
f 283/385/162 285/387/162 317/354/139 315/352/137
f 286/388/161 284/386/161 316/355/140 318/357/142
f 285/387/162 287/389/162 319/356/141 317/354/139
f 288/390/161 286/388/161 318/357/142 320/359/144
f 287/389/162 289/391/162 321/358/143 319/356/141
f 290/392/161 288/390/161 320/359/144 322/361/146
f 289/391/162 291/393/162 323/360/145 321/358/143
f 292/394/161 290/392/161 322/361/146 324/363/148
f 291/393/162 293/395/162 325/362/147 323/360/145
f 294/396/161 292/394/161 324/363/148 326/365/150
f 293/395/162 295/397/162 327/364/149 325/362/147
f 296/398/161 294/396/161 326/365/150 328/367/152
f 295/397/162 297/399/162 329/366/151 327/364/149
f 298/400/161 296/398/161 328/367/152 330/369/154
f 297/399/162 299/401/162 331/368/153 329/366/151
f 300/402/161 298/400/161 330/369/154 332/371/156
f 299/401/162 301/403/162 333/370/155 331/368/153
f 302/404/161 300/402/161 332/371/156 334/373/158
f 301/403/162 303/405/162 335/372/157 333/370/155
f 304/406/161 302/404/161 334/373/158 336/375/160
f 303/405/162 305/407/162 337/374/159 335/372/157
f 274/377/161 304/406/161 336/375/160 306/347/132
f 305/407/162 275/378/162 309/344/129 337/374/159
f 373/408/163 372/409/164 371/410/165 370/411/166
f 372/409/164 375/412/167 374/413/168 371/410/165
f 375/412/167 377/414/169 376/415/170 374/413/168
f 377/414/169 379/416/171 378/417/172 376/415/170
f 379/416/171 381/418/173 380/419/174 378/417/172
f 381/418/173 383/420/175 382/421/176 380/419/174
f 383/420/175 385/422/177 384/423/178 382/421/176
f 385/422/177 387/424/179 386/425/180 384/423/178
f 387/424/179 389/426/181 388/427/182 386/425/180
f 389/426/181 391/428/183 390/429/184 388/427/182
f 391/428/183 393/430/185 392/431/186 390/429/184
f 393/430/185 395/432/187 394/433/188 392/431/186
f 395/432/187 397/434/189 396/435/190 394/433/188
f 397/434/189 399/436/191 398/437/192 396/435/190
f 399/436/191 401/438/193 400/439/194 398/437/192
f 400/439/194 401/438/193 373/408/163 370/411/166
f 340/440/195 338/441/195 370/411/166 371/410/165
f 339/442/196 341/443/196 372/409/164 373/408/163
f 342/444/195 340/440/195 371/410/165 374/413/168
f 341/443/196 343/445/196 375/412/167 372/409/164
f 344/446/195 342/444/195 374/413/168 376/415/170
f 343/445/196 345/447/196 377/414/169 375/412/167
f 346/448/195 344/446/195 376/415/170 378/417/172
f 345/447/196 347/449/196 379/416/171 377/414/169
f 348/450/195 346/448/195 378/417/172 380/419/174
f 347/449/196 349/451/196 381/418/173 379/416/171
f 350/452/195 348/450/195 380/419/174 382/421/176
f 349/451/196 351/453/196 383/420/175 381/418/173
f 352/454/195 350/452/195 382/421/176 384/423/178
f 351/453/196 353/455/196 385/422/177 383/420/175
f 354/456/195 352/454/195 384/423/178 386/425/180
f 353/455/196 355/457/196 387/424/179 385/422/177
f 356/458/195 354/456/195 386/425/180 388/427/182
f 355/457/196 357/459/196 389/426/181 387/424/179
f 358/460/195 356/458/195 388/427/182 390/429/184
f 357/459/196 359/461/196 391/428/183 389/426/181
f 360/462/195 358/460/195 390/429/184 392/431/186
f 359/461/196 361/463/196 393/430/185 391/428/183
f 362/464/195 360/462/195 392/431/186 394/433/188
f 361/463/196 363/465/196 395/432/187 393/430/185
f 364/466/195 362/464/195 394/433/188 396/435/190
f 363/465/196 365/467/196 397/434/189 395/432/187
f 366/468/195 364/466/195 396/435/190 398/437/192
f 365/467/196 367/469/196 399/436/191 397/434/189
f 368/470/195 366/468/195 398/437/192 400/439/194
f 367/469/196 369/471/196 401/438/193 399/436/191
f 338/441/195 368/470/195 400/439/194 370/411/166
f 369/471/196 339/442/196 373/408/163 401/438/193
f 437/472/197 436/473/198 435/474/199 434/475/200
f 436/473/198 439/476/201 438/477/202 435/474/199
f 439/476/201 441/478/203 440/479/204 438/477/202
f 441/478/203 443/480/205 442/481/206 440/479/204
f 443/480/205 445/482/207 444/483/208 442/481/206
f 445/482/207 447/484/209 446/485/210 444/483/208
f 447/484/209 449/486/211 448/487/212 446/485/210
f 449/486/211 451/488/213 450/489/214 448/487/212
f 451/488/213 453/490/215 452/491/216 450/489/214
f 453/490/215 455/492/217 454/493/218 452/491/216
f 455/492/217 457/494/219 456/495/220 454/493/218
f 457/494/219 459/496/221 458/497/222 456/495/220
f 459/496/221 461/498/223 460/499/224 458/497/222
f 461/498/223 463/500/225 462/501/226 460/499/224
f 463/500/225 465/502/227 464/503/228 462/501/226
f 464/503/228 465/502/227 437/472/197 434/475/200
f 404/504/229 402/505/229 434/475/200 435/474/199
f 403/506/230 405/507/231 436/473/198 437/472/197
f 406/508/229 404/504/229 435/474/199 438/477/202
f 405/507/231 407/509/230 439/476/201 436/473/198
f 408/510/229 406/508/229 438/477/202 440/479/204
f 407/509/230 409/511/230 441/478/203 439/476/201
f 410/512/229 408/510/229 440/479/204 442/481/206
f 409/511/230 411/513/230 443/480/205 441/478/203
f 412/514/229 410/512/229 442/481/206 444/483/208
f 411/513/230 413/515/230 445/482/207 443/480/205
f 414/516/229 412/514/229 444/483/208 446/485/210
f 413/515/230 415/517/230 447/484/209 445/482/207
f 416/518/229 414/516/229 446/485/210 448/487/212
f 415/517/230 417/519/230 449/486/211 447/484/209
f 418/520/229 416/518/229 448/487/212 450/489/214
f 417/519/230 419/521/230 451/488/213 449/486/211
f 420/522/229 418/520/229 450/489/214 452/491/216
f 419/521/230 421/523/230 453/490/215 451/488/213
f 422/524/229 420/522/229 452/491/216 454/493/218
f 421/523/230 423/525/230 455/492/217 453/490/215
f 424/526/229 422/524/229 454/493/218 456/495/220
f 423/525/230 425/527/230 457/494/219 455/492/217
f 426/528/229 424/526/229 456/495/220 458/497/222
f 425/527/230 427/529/230 459/496/221 457/494/219
f 428/530/229 426/528/229 458/497/222 460/499/224
f 427/529/230 429/531/230 461/498/223 459/496/221
f 430/532/229 428/530/229 460/499/224 462/501/226
f 429/531/230 431/533/230 463/500/225 461/498/223
f 432/534/229 430/532/229 462/501/226 464/503/228
f 431/533/230 433/535/230 465/502/227 463/500/225
f 402/505/229 432/534/229 464/503/228 434/475/200
f 433/535/230 403/506/230 437/472/197 465/502/227
f 501/536/232 500/537/233 499/538/234 498/539/235
f 500/537/233 503/540/236 502/541/237 499/538/234
f 503/540/236 505/542/238 504/543/239 502/541/237
f 505/542/238 507/544/240 506/545/241 504/543/239
f 507/544/240 509/546/242 508/547/243 506/545/241
f 509/546/242 511/548/244 510/549/245 508/547/243
f 511/548/244 513/550/246 512/551/247 510/549/245
f 513/550/246 515/552/248 514/553/249 512/551/247
f 515/552/248 517/554/250 516/555/251 514/553/249
f 517/554/250 519/556/252 518/557/253 516/555/251
f 519/556/252 521/558/254 520/559/255 518/557/253
f 521/558/254 523/560/256 522/561/257 520/559/255
f 523/560/256 525/562/258 524/563/259 522/561/257
f 525/562/258 527/564/260 526/565/261 524/563/259
f 527/564/260 529/566/262 528/567/263 526/565/261
f 528/567/263 529/566/262 501/536/232 498/539/235
f 468/568/72 466/569/72 498/539/235 499/538/234
f 467/570/58 469/571/58 500/537/233 501/536/232
f 470/572/72 468/568/72 499/538/234 502/541/237
f 469/571/58 471/573/58 503/540/236 500/537/233
f 472/574/72 470/572/72 502/541/237 504/543/239
f 471/573/58 473/575/58 505/542/238 503/540/236
f 474/576/72 472/574/72 504/543/239 506/545/241
f 473/575/58 475/577/58 507/544/240 505/542/238
f 476/578/72 474/576/72 506/545/241 508/547/243
f 475/577/58 477/579/58 509/546/242 507/544/240
f 478/580/72 476/578/72 508/547/243 510/549/245
f 477/579/58 479/581/58 511/548/244 509/546/242
f 480/582/72 478/580/72 510/549/245 512/551/247
f 479/581/58 481/583/58 513/550/246 511/548/244
f 482/584/72 480/582/72 512/551/247 514/553/249
f 481/583/58 483/585/58 515/552/248 513/550/246
f 484/586/72 482/584/72 514/553/249 516/555/251
f 483/585/58 485/587/58 517/554/250 515/552/248
f 486/588/72 484/586/72 516/555/251 518/557/253
f 485/587/58 487/589/58 519/556/252 517/554/250
f 488/590/72 486/588/72 518/557/253 520/559/255
f 487/589/58 489/591/58 521/558/254 519/556/252
f 490/592/72 488/590/72 520/559/255 522/561/257
f 489/591/58 491/593/58 523/560/256 521/558/254
f 492/594/72 490/592/72 522/561/257 524/563/259
f 491/593/58 493/595/58 525/562/258 523/560/256
f 494/596/72 492/594/72 524/563/259 526/565/261
f 493/595/58 495/597/58 527/564/260 525/562/258
f 496/598/72 494/596/72 526/565/261 528/567/263
f 495/597/58 497/599/58 529/566/262 527/564/260
f 466/569/72 496/598/72 528/567/263 498/539/235
f 497/599/58 467/570/58 501/536/232 529/566/262
f 565/600/264 564/601/265 563/602/266 562/603/267
f 564/601/265 567/604/268 566/605/269 563/602/266
f 567/604/268 569/606/270 568/607/271 566/605/269
f 569/606/270 571/608/272 570/609/273 568/607/271
f 571/608/272 573/610/274 572/611/275 570/609/273
f 573/610/274 575/612/276 574/613/277 572/611/275
f 575/612/276 577/614/278 576/615/279 574/613/277
f 577/614/278 579/616/280 578/617/281 576/615/279
f 579/616/280 581/618/282 580/619/283 578/617/281
f 581/618/282 583/620/284 582/621/285 580/619/283
f 583/620/284 585/622/286 584/623/287 582/621/285
f 585/622/286 587/624/288 586/625/289 584/623/287
f 587/624/288 589/626/290 588/627/291 586/625/289
f 589/626/290 591/628/292 590/629/293 588/627/291
f 591/628/292 593/630/294 592/631/295 590/629/293
f 592/631/295 593/630/294 565/600/264 562/603/267
f 532/632/296 530/633/296 562/603/267 563/602/266
f 531/634/297 533/635/297 564/601/265 565/600/264
f 534/636/296 532/632/296 563/602/266 566/605/269
f 533/635/297 535/637/297 567/604/268 564/601/265
f 536/638/296 534/636/296 566/605/269 568/607/271
f 535/637/297 537/639/297 569/606/270 567/604/268
f 538/640/296 536/638/296 568/607/271 570/609/273
f 537/639/297 539/641/297 571/608/272 569/606/270
f 540/642/296 538/640/296 570/609/273 572/611/275
f 539/641/297 541/643/297 573/610/274 571/608/272
f 542/644/296 540/642/296 572/611/275 574/613/277
f 541/643/297 543/645/297 575/612/276 573/610/274
f 544/646/296 542/644/296 574/613/277 576/615/279
f 543/645/297 545/647/297 577/614/278 575/612/276
f 546/648/296 544/646/296 576/615/279 578/617/281
f 545/647/297 547/649/297 579/616/280 577/614/278
f 548/650/296 546/648/296 578/617/281 580/619/283
f 547/649/297 549/651/297 581/618/282 579/616/280
f 550/652/296 548/650/296 580/619/283 582/621/285
f 549/651/297 551/653/297 583/620/284 581/618/282
f 552/654/296 550/652/296 582/621/285 584/623/287
f 551/653/297 553/655/297 585/622/286 583/620/284
f 554/656/296 552/654/296 584/623/287 586/625/289
f 553/655/297 555/657/297 587/624/288 585/622/286
f 556/658/296 554/656/296 586/625/289 588/627/291
f 555/657/297 557/659/297 589/626/290 587/624/288
f 558/660/296 556/658/296 588/627/291 590/629/293
f 557/659/297 559/661/297 591/628/292 589/626/290
f 560/662/296 558/660/296 590/629/293 592/631/295
f 559/661/297 561/663/297 593/630/294 591/628/292
f 530/633/296 560/662/296 592/631/295 562/603/267
f 561/663/297 531/634/297 565/600/264 593/630/294
f 629/664/232 628/665/233 627/666/234 626/667/235
f 628/665/233 631/668/236 630/669/237 627/666/234
f 631/668/236 633/670/238 632/671/239 630/669/237
f 633/670/238 635/672/240 634/673/241 632/671/239
f 635/672/240 637/674/242 636/675/243 634/673/241
f 637/674/242 639/676/244 638/677/245 636/675/243
f 639/676/244 641/678/246 640/679/247 638/677/245
f 641/678/246 643/680/248 642/681/249 640/679/247
f 643/680/248 645/682/250 644/683/251 642/681/249
f 645/682/250 647/684/252 646/685/253 644/683/251
f 647/684/252 649/686/254 648/687/255 646/685/253
f 649/686/254 651/688/256 650/689/257 648/687/255
f 651/688/256 653/690/258 652/691/259 650/689/257
f 653/690/258 655/692/260 654/693/261 652/691/259
f 655/692/260 657/694/262 656/695/263 654/693/261
f 656/695/263 657/694/262 629/664/232 626/667/235
f 596/696/72 594/697/72 626/667/235 627/666/234
f 595/698/58 597/699/58 628/665/233 629/664/232
f 598/700/72 596/696/72 627/666/234 630/669/237
f 597/699/58 599/701/58 631/668/236 628/665/233
f 600/702/72 598/700/72 630/669/237 632/671/239
f 599/701/58 601/703/58 633/670/238 631/668/236
f 602/704/72 600/702/72 632/671/239 634/673/241
f 601/703/58 603/705/58 635/672/240 633/670/238
f 604/706/72 602/704/72 634/673/241 636/675/243
f 603/705/58 605/707/58 637/674/242 635/672/240
f 606/708/72 604/706/72 636/675/243 638/677/245
f 605/707/58 607/709/58 639/676/244 637/674/242
f 608/710/72 606/708/72 638/677/245 640/679/247
f 607/709/58 609/711/58 641/678/246 639/676/244
f 610/712/72 608/710/72 640/679/247 642/681/249
f 609/711/58 611/713/58 643/680/248 641/678/246
f 612/714/72 610/712/72 642/681/249 644/683/251
f 611/713/58 613/715/58 645/682/250 643/680/248
f 614/716/72 612/714/72 644/683/251 646/685/253
f 613/715/58 615/717/58 647/684/252 645/682/250
f 616/718/72 614/716/72 646/685/253 648/687/255
f 615/717/58 617/719/58 649/686/254 647/684/252
f 618/720/72 616/718/72 648/687/255 650/689/257
f 617/719/58 619/721/58 651/688/256 649/686/254
f 620/722/72 618/720/72 650/689/257 652/691/259
f 619/721/58 621/723/58 653/690/258 651/688/256
f 622/724/72 620/722/72 652/691/259 654/693/261
f 621/723/58 623/725/58 655/692/260 653/690/258
f 624/726/72 622/724/72 654/693/261 656/695/263
f 623/725/58 625/727/58 657/694/262 655/692/260
f 594/697/72 624/726/72 656/695/263 626/667/235
f 625/727/58 595/698/58 629/664/232 657/694/262
f 693/728/298 692/729/299 691/730/300 690/731/301
f 692/729/299 695/732/302 694/733/303 691/730/300
f 695/732/302 697/734/304 696/735/305 694/733/303
f 697/734/304 699/736/306 698/737/307 696/735/305
f 699/736/306 701/738/308 700/739/309 698/737/307
f 701/738/308 703/740/310 702/741/311 700/739/309
f 703/740/310 705/742/312 704/743/313 702/741/311
f 705/742/312 707/744/314 706/745/315 704/743/313
f 707/744/314 709/746/316 708/747/317 706/745/315
f 709/746/316 711/748/318 710/749/319 708/747/317
f 711/748/318 713/750/320 712/751/321 710/749/319
f 713/750/320 715/752/322 714/753/323 712/751/321
f 715/752/322 717/754/324 716/755/325 714/753/323
f 717/754/324 719/756/326 718/757/327 716/755/325
f 719/756/326 721/758/328 720/759/329 718/757/327
f 720/759/329 721/758/328 693/728/298 690/731/301
f 660/760/330 658/761/330 690/731/301 691/730/300
f 659/762/331 661/763/331 692/729/299 693/728/298
f 662/764/330 660/760/330 691/730/300 694/733/303
f 661/763/331 663/765/331 695/732/302 692/729/299
f 664/766/330 662/764/330 694/733/303 696/735/305
f 663/765/331 665/767/331 697/734/304 695/732/302
f 666/768/330 664/766/330 696/735/305 698/737/307
f 665/767/331 667/769/331 699/736/306 697/734/304
f 668/770/330 666/768/330 698/737/307 700/739/309
f 667/769/331 669/771/331 701/738/308 699/736/306
f 670/772/330 668/770/330 700/739/309 702/741/311
f 669/771/331 671/773/331 703/740/310 701/738/308
f 672/774/330 670/772/330 702/741/311 704/743/313
f 671/773/331 673/775/331 705/742/312 703/740/310
f 674/776/330 672/774/330 704/743/313 706/745/315
f 673/775/331 675/777/331 707/744/314 705/742/312
f 676/778/330 674/776/330 706/745/315 708/747/317
f 675/777/331 677/779/331 709/746/316 707/744/314
f 678/780/330 676/778/330 708/747/317 710/749/319
f 677/779/331 679/781/331 711/748/318 709/746/316
f 680/782/330 678/780/330 710/749/319 712/751/321
f 679/781/331 681/783/331 713/750/320 711/748/318
f 682/784/330 680/782/330 712/751/321 714/753/323
f 681/783/331 683/785/331 715/752/322 713/750/320
f 684/786/330 682/784/330 714/753/323 716/755/325
f 683/785/331 685/787/331 717/754/324 715/752/322
f 686/788/330 684/786/330 716/755/325 718/757/327
f 685/787/331 687/789/331 719/756/326 717/754/324
f 688/790/330 686/788/330 718/757/327 720/759/329
f 687/789/331 689/791/331 721/758/328 719/756/326
f 658/761/330 688/790/330 720/759/329 690/731/301
f 689/791/331 659/762/331 693/728/298 721/758/328
f 757/792/232 756/793/233 755/794/234 754/795/235
f 756/793/233 759/796/236 758/797/237 755/794/234
f 759/796/236 761/798/238 760/799/239 758/797/237
f 761/798/238 763/800/240 762/801/241 760/799/239
f 763/800/240 765/802/242 764/803/243 762/801/241
f 765/802/242 767/804/244 766/805/245 764/803/243
f 767/804/244 769/806/246 768/807/247 766/805/245
f 769/806/246 771/808/248 770/809/249 768/807/247
f 771/808/248 773/810/250 772/811/251 770/809/249
f 773/810/250 775/812/252 774/813/253 772/811/251
f 775/812/252 777/814/254 776/815/255 774/813/253
f 777/814/254 779/816/256 778/817/257 776/815/255
f 779/816/256 781/818/258 780/819/259 778/817/257
f 781/818/258 783/820/260 782/821/261 780/819/259
f 783/820/260 785/822/262 784/823/263 782/821/261
f 784/823/263 785/822/262 757/792/232 754/795/235
f 724/824/72 722/825/72 754/795/235 755/794/234
f 723/826/58 725/827/58 756/793/233 757/792/232
f 726/828/72 724/824/72 755/794/234 758/797/237
f 725/827/58 727/829/58 759/796/236 756/793/233
f 728/830/72 726/828/72 758/797/237 760/799/239
f 727/829/58 729/831/58 761/798/238 759/796/236
f 730/832/72 728/830/72 760/799/239 762/801/241
f 729/831/58 731/833/58 763/800/240 761/798/238
f 732/834/72 730/832/72 762/801/241 764/803/243
f 731/833/58 733/835/58 765/802/242 763/800/240
f 734/836/72 732/834/72 764/803/243 766/805/245
f 733/835/58 735/837/58 767/804/244 765/802/242
f 736/838/72 734/836/72 766/805/245 768/807/247
f 735/837/58 737/839/58 769/806/246 767/804/244
f 738/840/72 736/838/72 768/807/247 770/809/249
f 737/839/58 739/841/58 771/808/248 769/806/246
f 740/842/72 738/840/72 770/809/249 772/811/251
f 739/841/58 741/843/58 773/810/250 771/808/248
f 742/844/72 740/842/72 772/811/251 774/813/253
f 741/843/58 743/845/58 775/812/252 773/810/250
f 744/846/72 742/844/72 774/813/253 776/815/255
f 743/845/58 745/847/58 777/814/254 775/812/252
f 746/848/72 744/846/72 776/815/255 778/817/257
f 745/847/58 747/849/58 779/816/256 777/814/254
f 748/850/72 746/848/72 778/817/257 780/819/259
f 747/849/58 749/851/58 781/818/258 779/816/256
f 750/852/72 748/850/72 780/819/259 782/821/261
f 749/851/58 751/853/58 783/820/260 781/818/258
f 752/854/72 750/852/72 782/821/261 784/823/263
f 751/853/58 753/855/58 785/822/262 783/820/260
f 722/825/72 752/854/72 784/823/263 754/795/235
f 753/855/58 723/826/58 757/792/232 785/822/262
f 821/856/332 820/857/333 819/858/334 818/859/335
f 820/857/333 823/860/336 822/861/337 819/858/334
f 823/860/336 825/862/338 824/863/339 822/861/337
f 825/862/338 827/864/340 826/865/341 824/863/339
f 827/864/340 829/866/342 828/867/343 826/865/341
f 829/866/342 831/868/344 830/869/345 828/867/343
f 831/868/344 833/870/346 832/871/347 830/869/345
f 833/870/346 835/872/348 834/873/349 832/871/347
f 835/872/348 837/874/350 836/875/351 834/873/349
f 837/874/350 839/876/352 838/877/353 836/875/351
f 839/876/352 841/878/354 840/879/355 838/877/353
f 841/878/354 843/880/356 842/881/357 840/879/355
f 843/880/356 845/882/358 844/883/359 842/881/357
f 845/882/358 847/884/360 846/885/361 844/883/359
f 847/884/360 849/886/362 848/887/363 846/885/361
f 848/887/363 849/886/362 821/856/332 818/859/335
f 788/888/364 786/889/364 818/859/335 819/858/334
f 787/890/365 789/891/365 820/857/333 821/856/332
f 790/892/364 788/888/364 819/858/334 822/861/337
f 789/891/365 791/893/365 823/860/336 820/857/333
f 792/894/364 790/892/364 822/861/337 824/863/339
f 791/893/365 793/895/365 825/862/338 823/860/336
f 794/896/364 792/894/364 824/863/339 826/865/341
f 793/895/365 795/897/365 827/864/340 825/862/338
f 796/898/364 794/896/364 826/865/341 828/867/343
f 795/897/365 797/899/365 829/866/342 827/864/340
f 798/900/364 796/898/364 828/867/343 830/869/345
f 797/899/365 799/901/365 831/868/344 829/866/342
f 800/902/364 798/900/364 830/869/345 832/871/347
f 799/901/365 801/903/365 833/870/346 831/868/344
f 802/904/364 800/902/364 832/871/347 834/873/349
f 801/903/365 803/905/365 835/872/348 833/870/346
f 804/906/364 802/904/364 834/873/349 836/875/351
f 803/905/365 805/907/365 837/874/350 835/872/348
f 806/908/364 804/906/364 836/875/351 838/877/353
f 805/907/365 807/909/365 839/876/352 837/874/350
f 808/910/364 806/908/364 838/877/353 840/879/355
f 807/909/365 809/911/365 841/878/354 839/876/352
f 810/912/364 808/910/364 840/879/355 842/881/357
f 809/911/365 811/913/365 843/880/356 841/878/354
f 812/914/364 810/912/364 842/881/357 844/883/359
f 811/913/365 813/915/365 845/882/358 843/880/356
f 814/916/364 812/914/364 844/883/359 846/885/361
f 813/915/365 815/917/365 847/884/360 845/882/358
f 816/918/364 814/916/364 846/885/361 848/887/363
f 815/917/365 817/919/365 849/886/362 847/884/360
f 786/889/364 816/918/364 848/887/363 818/859/335
f 817/919/365 787/890/365 821/856/332 849/886/362
f 885/920/366 884/921/367 883/922/368 882/923/369
f 884/921/367 887/924/370 886/925/371 883/922/368
f 887/924/370 889/926/372 888/927/373 886/925/371
f 889/926/372 891/928/374 890/929/375 888/927/373
f 891/928/374 893/930/376 892/931/377 890/929/375
f 893/930/376 895/932/378 894/933/379 892/931/377
f 895/932/378 897/934/380 896/935/381 894/933/379
f 897/934/380 899/936/382 898/937/383 896/935/381
f 899/936/382 901/938/384 900/939/385 898/937/383
f 901/938/384 903/940/386 902/941/387 900/939/385
f 903/940/386 905/942/388 904/943/389 902/941/387
f 905/942/388 907/944/390 906/945/391 904/943/389
f 907/944/390 909/946/392 908/947/393 906/945/391
f 909/946/392 911/948/394 910/949/395 908/947/393
f 911/948/394 913/950/396 912/951/397 910/949/395
f 912/951/397 913/950/396 885/920/366 882/923/369
f 852/952/398 850/953/398 882/923/369 883/922/368
f 851/954/399 853/955/399 884/921/367 885/920/366
f 854/956/398 852/952/398 883/922/368 886/925/371
f 853/955/399 855/957/399 887/924/370 884/921/367
f 856/958/398 854/956/398 886/925/371 888/927/373
f 855/957/399 857/959/399 889/926/372 887/924/370
f 858/960/398 856/958/398 888/927/373 890/929/375
f 857/959/399 859/961/399 891/928/374 889/926/372
f 860/962/398 858/960/398 890/929/375 892/931/377
f 859/961/399 861/963/399 893/930/376 891/928/374
f 862/964/398 860/962/398 892/931/377 894/933/379
f 861/963/399 863/965/399 895/932/378 893/930/376
f 864/966/398 862/964/398 894/933/379 896/935/381
f 863/965/399 865/967/399 897/934/380 895/932/378
f 866/968/398 864/966/398 896/935/381 898/937/383
f 865/967/399 867/969/399 899/936/382 897/934/380
f 868/970/398 866/968/398 898/937/383 900/939/385
f 867/969/399 869/971/399 901/938/384 899/936/382
f 870/972/398 868/970/398 900/939/385 902/941/387
f 869/971/399 871/973/399 903/940/386 901/938/384
f 872/974/398 870/972/398 902/941/387 904/943/389
f 871/973/399 873/975/399 905/942/388 903/940/386
f 874/976/398 872/974/398 904/943/389 906/945/391
f 873/975/399 875/977/399 907/944/390 905/942/388
f 876/978/398 874/976/398 906/945/391 908/947/393
f 875/977/399 877/979/399 909/946/392 907/944/390
f 878/980/398 876/978/398 908/947/393 910/949/395
f 877/979/399 879/981/399 911/948/394 909/946/392
f 880/982/398 878/980/398 910/949/395 912/951/397
f 879/981/399 881/983/399 913/950/396 911/948/394
f 850/953/398 880/982/398 912/951/397 882/923/369
f 881/983/399 851/954/399 885/920/366 913/950/396
s 0
f 163/199/400 144/164/400 916/164/400 921/199/400
f 144/164/401 148/163/401 917/163/401 916/164/401
f 160/181/402 157/184/402 919/184/402 920/181/402
f 157/184/403 182/183/403 924/183/403 919/184/403
f 143/160/404 154/159/404 918/159/404 915/160/404
f 178/219/403 166/207/403 922/207/403 923/219/403
f 148/163/403 142/177/403 914/177/403 917/163/403
f 182/183/405 178/219/405 923/219/405 924/183/405
f 166/207/406 163/199/406 921/199/406 922/207/406
f 154/159/403 160/181/403 920/181/403 918/159/403
f 67/122/407 97/81/407 929/81/407 926/122/407
f 146/175/407 169/174/407 933/174/407 931/175/407
f 97/81/407 71/82/407 927/82/407 929/81/407
f 78/83/407 65/84/407 925/84/407 928/83/407
f 71/82/408 78/83/408 928/83/408 927/82/408
f 914/177/409 142/177/409 930/177/409 934/177/409
f 169/174/407 67/122/407 926/122/407 933/174/407
f 142/177/407 152/176/407 932/176/407 930/177/407
f 152/176/410 146/175/410 931/175/410 932/176/410
f 84/91/411 87/88/411 941/88/411 940/91/411
f 106/132/412 110/92/412 945/92/412 944/132/412
f 110/92/412 84/91/412 940/91/412 945/92/412
f 925/84/413 65/84/413 935/84/413 946/84/413
f 94/114/412 106/132/412 944/132/412 943/114/412
f 69/71/412 91/106/412 942/106/412 937/71/412
f 73/72/414 69/71/414 937/71/414 938/72/414
f 87/88/412 80/68/412 939/68/412 941/88/412
f 65/84/412 73/72/412 938/72/412 935/84/412
f 91/106/412 94/114/412 943/114/412 942/106/412
f 80/68/415 66/67/415 936/67/415 939/68/415
f 936/67/416 66/67/416 947/67/416 957/67/416
f 150/161/417 143/160/417 952/160/417 954/161/417
f 70/79/417 98/78/417 951/78/417 949/79/417
f 145/172/417 150/161/417 954/161/417 953/172/417
f 66/67/417 76/66/417 950/66/417 947/67/417
f 68/124/417 170/173/417 955/173/417 948/124/417
f 143/160/418 915/160/418 956/160/418 952/160/418
f 98/78/417 68/124/417 948/124/417 951/78/417
f 170/173/417 145/172/417 953/172/417 955/173/417
f 76/66/417 70/79/417 949/79/417 950/66/417
