# Blender 5.0.0
# www.blender.org
o Plane.005
v 0.419768 4.367568 1.938105
v 0.244478 4.367568 -0.789930
v 0.338564 2.176189 1.938105
v 0.244478 2.176189 -0.789930
v 0.338564 4.367568 1.770458
v 0.244478 4.141055 -0.789930
v 0.338564 4.141055 1.938105
v 0.204389 4.141055 1.770458
v 0.419768 4.367568 1.854281
v 0.338564 2.176189 1.854281
v 0.338564 4.141055 1.854281
v 0.244478 4.254312 -0.789930
v 0.338564 4.254312 1.770458
v 0.419769 4.254312 1.938105
v 0.419768 4.254312 1.854281
v 0.419768 4.367568 -0.789930
v 0.338564 2.176189 -0.789930
v 0.338564 4.141055 -0.789930
v 0.419768 4.254312 -0.789930
v 0.338564 4.367568 -0.626347
v 0.204389 4.141055 -0.626347
v 0.338564 4.254312 -0.626347
v 0.419768 4.367568 -0.726854
v 0.338564 2.176189 -0.726854
v 0.338564 4.141055 -0.726854
v 0.419768 4.254312 -0.726854
v 0.338564 4.367568 0.656871
v 0.204389 4.141055 0.656871
v 0.338564 4.254312 0.656871
v 0.338564 4.367568 0.539696
v 0.204389 4.141055 0.539696
v 0.338564 4.254312 0.539696
v 0.338564 2.223822 1.938105
v 0.244478 2.223822 -0.789930
v 0.204389 2.223822 1.770458
v 0.338564 2.223822 1.854281
v 0.338564 2.223822 -0.789930
v 0.204389 2.223822 -0.626347
v 0.338564 2.223822 -0.726854
v 0.204389 2.223822 0.656871
v 0.204389 2.223822 0.539696
v 0.338564 4.367568 0.542081
v 0.204389 4.141055 0.542081
v 0.338564 4.254312 0.542081
v 0.204389 2.223822 0.542081
v 0.312582 2.176189 0.656370
v 0.312582 2.176189 1.769957
v 0.336357 2.176189 1.853780
v 0.340855 2.176189 -0.727354
v 0.312582 2.176189 -0.626848
v 0.312582 2.176189 0.539196
v 0.312582 2.223822 1.769957
v 0.336357 2.223822 1.853780
v 0.312582 2.223822 -0.626848
v 0.340855 2.223822 -0.727354
v 0.312582 2.223822 0.656370
v 0.312582 2.223822 0.539196
v 0.312582 2.176189 0.541580
v 0.312582 2.223822 0.541580
v 0.317733 4.077382 0.539696
v 0.317733 4.077382 0.656871
v 0.333740 4.190638 0.539696
v 0.333740 4.190638 0.656871
v 0.317733 2.217857 0.656871
v 0.317733 2.217857 0.539696
v 0.419768 -0.015190 1.938105
v 0.244478 -0.015189 -0.789930
v 0.338564 -0.015190 1.770458
v 0.244478 0.211323 -0.789930
v 0.338564 0.211323 1.938105
v 0.204389 0.211323 1.770458
v 0.419768 -0.015190 1.854281
v 0.338564 0.211323 1.854281
v 0.244478 0.098067 -0.789930
v 0.338564 0.098067 1.770458
v 0.419769 0.098067 1.938105
v 0.419768 0.098067 1.854281
v 0.419768 -0.015189 -0.789930
v 0.338564 0.211323 -0.789930
v 0.419768 0.098067 -0.789930
v 0.338564 -0.015189 -0.626348
v 0.204389 0.211323 -0.626348
v 0.338564 0.098067 -0.626348
v 0.419768 -0.015189 -0.726854
v 0.338564 0.211323 -0.726854
v 0.419768 0.098067 -0.726854
v 0.338564 -0.015189 0.656870
v 0.204389 0.211323 0.656870
v 0.338564 0.098067 0.656870
v 0.338564 -0.015189 0.539696
v 0.204389 0.211323 0.539696
v 0.338564 0.098067 0.539696
v 0.338564 2.128557 1.938105
v 0.244478 2.128557 -0.789930
v 0.204389 2.128557 1.770458
v 0.338564 2.128557 1.854281
v 0.338564 2.128557 -0.789930
v 0.204389 2.128557 -0.626347
v 0.338564 2.128557 -0.726854
v 0.204389 2.128557 0.656871
v 0.204389 2.128557 0.539696
v 0.338564 -0.015189 0.542081
v 0.204389 0.211323 0.542081
v 0.338564 0.098067 0.542081
v 0.204389 2.128557 0.542081
v 0.312582 2.128557 1.769957
v 0.336357 2.128557 1.853780
v 0.312582 2.128557 -0.626848
v 0.340855 2.128557 -0.727354
v 0.312582 2.128557 0.656370
v 0.312582 2.128557 0.539196
v 0.312582 2.128557 0.541580
v 0.317733 0.274997 0.539696
v 0.317733 0.274997 0.656870
v 0.333740 0.161741 0.539696
v 0.333740 0.161741 0.656870
v 0.317733 2.134522 0.656871
v 0.317733 2.134522 0.539696
v -0.067598 4.359310 1.928014
v -0.242889 4.359310 -0.837452
v -0.148802 4.359310 1.760367
v -0.067598 4.359310 1.844191
v -0.067598 4.359310 -0.837452
v -0.148802 4.359310 -0.636438
v -0.067598 4.359310 -0.736945
v -0.148802 4.359310 0.646780
v -0.148802 4.359310 0.529605
v -0.148802 4.359310 0.531990
v 0.011882 4.369285 1.918536
v -0.069323 2.177906 1.918536
v -0.069323 4.142772 1.918536
v 0.011882 4.256028 1.918536
v -0.069323 2.225538 1.918536
v 0.011882 -0.013473 1.918536
v -0.069323 2.569023 1.918536
v 0.011882 0.099783 1.918536
v -0.069323 4.486256 1.918536
v -0.475485 4.361027 1.908445
v -0.257360 0.015189 2.022372
v -0.432650 0.015189 -0.743094
v -0.338564 0.015189 1.854725
v -0.257360 0.015189 1.938548
v -0.257360 0.015189 -0.743094
v -0.338564 0.015189 -0.542081
v -0.257360 0.015189 -0.642587
v -0.338564 0.015189 0.741137
v -0.338564 0.015189 0.623963
v -0.338564 0.015189 0.626348
v -0.665246 0.016906 2.002803
v -0.085785 4.371214 -0.790524
v -0.085785 2.179836 -0.790524
v -0.085785 4.144702 -0.790524
v -0.085785 4.257958 -0.790524
v -0.085785 2.227468 -0.790524
v -0.085785 -0.011543 -0.790524
v -0.085785 0.214970 -0.790524
v -0.085785 0.101713 -0.790524
v -0.085785 2.132203 -0.790524
v -0.573151 4.362957 -0.838046
v -0.762913 0.018836 -0.743688
vn -0.0000 -0.0000 -1.0000
vn 0.7182 -0.0000 -0.6958
vn 0.5298 -0.0000 -0.8481
vn 1.0000 -0.0000 -0.0000
vn 0.8127 -0.5827 -0.0000
vn 0.5304 -0.5043 -0.6814
vn 0.6450 -0.7642 -0.0000
vn 0.7778 -0.0000 0.6285
vn 0.5995 -0.0000 0.8004
vn 0.5724 -0.5443 0.6133
vn 0.9971 -0.0755 -0.0000
vn -0.0000 1.0000 -0.0000
vn -0.2134 -0.0000 -0.9770
vn 0.9626 -0.0000 0.2708
vn 0.9621 -0.0000 -0.2729
vn 0.2213 -0.0000 -0.9752
vn 0.9902 -0.1399 -0.0000
vn -0.0000 -0.0000 1.0000
vn 0.8127 0.5827 -0.0000
vn 0.5304 0.5043 -0.6814
vn 0.6450 0.7642 -0.0000
vn 0.5724 0.5443 0.6133
vn 0.9971 0.0755 -0.0000
vn -0.0000 -1.0000 -0.0000
vn 0.9902 0.1399 -0.0000
vn -0.0169 0.9999 -0.0000
vn -0.0000 -0.9852 0.1712
vn -0.0167 0.9998 -0.0135
vn -0.0173 0.9997 0.0167
vn 0.0479 -0.0000 -0.9989
vn -0.0479 -0.0000 0.9989
vn -0.0585 -0.0037 0.9983
vn 0.0261 -0.7899 -0.6127
vn -0.0477 0.0342 0.9983
vn -0.0448 -0.9990 -0.0000
vn -0.0400 -0.9985 0.0387
vn -0.0498 -0.9980 -0.0402
vn 0.0151 0.9732 -0.2295
vn -0.0000 -0.8390 0.5442
vn 0.0018 -0.0000 -1.0000
vn -0.0111 -0.9598 0.2806
vn -0.0107 -0.9027 0.4302
vt 0.056007 0.782192
vt 0.056263 0.783915
vt 0.055401 0.785021
vt 0.055028 0.782838
vt 0.081698 0.778657
vt 0.080872 0.777362
vt 0.081632 0.777308
vt 0.082729 0.778228
vt 0.082103 0.773367
vt 0.082055 0.777002
vt 0.079561 0.777112
vt 0.080382 0.778750
vt 0.053163 0.776939
vt 0.052835 0.774898
vt 0.056551 0.783060
vt 0.056911 0.782220
vt 0.081760 0.770751
vt 0.080967 0.780136
vt 0.082082 0.779799
vt 0.083758 0.780019
vt 0.057438 0.780670
vt 0.056455 0.780771
vt 0.053594 0.779649
vt 0.055860 0.780547
vt 0.064163 0.778386
vt 0.057062 0.779279
vt 0.056510 0.779158
vt 0.064251 0.777877
vt 0.180089 0.000814
vt 0.180089 0.212115
vt 0.002552 0.212115
vt 0.002552 0.000814
vt 0.063600 0.779577
vt 0.058043 0.778968
vt 0.054755 0.782921
vt 0.075682 0.778363
vt 0.075057 0.777396
vt 0.578622 0.000774
vt 0.578622 0.226840
vt 0.432718 0.226840
vt 0.432718 0.000774
vt 0.074890 0.776805
vt 0.073968 0.777319
vt 0.074984 0.777752
vt 0.074097 0.777614
vt 0.073999 0.777089
vt 0.082108 0.773235
vt 0.083078 0.775369
vt 0.061788 0.789111
vt 0.061401 0.790573
vt 0.053310 0.782171
vt 0.052615 0.779235
vt 0.052458 0.776702
vt 0.082383 0.769028
vt 0.082937 0.772202
vt 0.051854 0.773783
vt 0.053538 0.779545
vt 0.052677 0.779219
vt 0.079576 0.786473
vt 0.078217 0.788194
vt 0.077939 0.787655
vt 0.079197 0.786014
vt 0.083724 0.774300
vt 0.052412 0.781584
vt 0.061187 0.791231
vt 0.082851 0.772299
vt 0.078445 0.784941
vt 0.074930 0.778465
vt 0.074083 0.778300
vt 0.077449 0.785336
vt 0.075866 0.786631
vt 0.073378 0.777698
vt 0.078756 0.784119
vt 0.074703 0.787232
vt 0.046612 0.754207
vt 0.047132 0.753775
vt 0.047983 0.753445
vt 0.046922 0.755425
vt 0.084543 0.746730
vt 0.084659 0.746822
vt 0.084296 0.746783
vt 0.084602 0.746607
vt 0.083612 0.771353
vt 0.084689 0.746944
vt 0.085397 0.746096
vt 0.085397 0.772622
vt 0.051854 0.776620
vt 0.045674 0.754961
vt 0.045019 0.756637
vt 0.051797 0.774566
vt 0.082808 0.769276
vt 0.084401 0.747308
vt 0.084367 0.746570
vt 0.084956 0.746090
vt 0.045868 0.753904
vt 0.046627 0.753775
vt 0.051742 0.778815
vt 0.047139 0.753640
vt 0.059107 0.748439
vt 0.059377 0.749882
vt 0.047683 0.752990
vt 0.046582 0.752997
vt 0.440785 0.151165
vt 0.295340 0.151165
vt 0.295340 0.005825
vt 0.440785 0.005825
vt 0.058394 0.746465
vt 0.045160 0.752711
vt 0.050273 0.780805
vt 0.074036 0.746637
vt 0.074354 0.744869
vt 0.519423 0.014390
vt 0.705070 0.014390
vt 0.705070 0.191196
vt 0.519423 0.191196
vt 0.073980 0.747988
vt 0.072628 0.746692
vt 0.072803 0.745920
vt 0.073839 0.745863
vt 0.072671 0.747975
vt 0.084247 0.773292
vt 0.083533 0.771525
vt 0.051615 0.780939
vt 0.060927 0.791898
vt 0.060156 0.793016
vt 0.051876 0.778884
vt 0.079996 0.786917
vt 0.078492 0.788804
vt 0.080985 0.787433
vt 0.073670 0.744839
vt 0.072908 0.744909
vt 0.072928 0.733390
vt 0.072277 0.733461
vt 0.072282 0.745057
vt 0.073503 0.733361
vt 0.071707 0.733559
s 0
f 19/1/1 12/2/1 2/3/1 16/4/1
f 15/5/2 13/6/2 5/7/2 9/8/2
f 36/9/3 35/10/3 8/11/3 11/12/3
f 37/13/1 34/14/1 6/15/1 18/16/1
f 33/17/4 36/9/4 11/12/4 7/18/4
f 14/19/4 15/5/4 9/8/4 1/20/4
f 7/18/5 11/12/5 15/5/5 14/19/5
f 11/12/6 8/11/6 13/6/6 15/5/6
f 18/16/1 6/15/1 12/2/1 19/1/1
f 25/21/5 18/16/5 19/1/5 26/22/5
f 39/23/4 37/13/4 18/16/4 25/21/4
f 26/22/4 19/1/4 16/4/4 23/24/4
f 44/25/4 22/26/4 20/27/4 42/28/4
f 45/29/4 38/30/4 21/31/4 43/32/4
f 43/33/7 21/34/7 22/26/7 44/25/7
f 22/26/8 26/22/8 23/24/8 20/27/8
f 38/35/9 39/23/9 25/21/9 21/34/9
f 21/34/10 25/21/10 26/22/10 22/26/10
f 8/11/7 28/36/7 29/37/7 13/6/7
f 35/38/4 40/39/4 28/40/4 8/41/4
f 13/6/4 29/37/4 27/42/4 5/7/4
f 32/43/11 29/37/11 63/44/11 62/45/11
f 29/37/4 32/43/4 30/46/4 27/42/4
f 35/10/12 36/9/12 53/47/12 52/48/12
f 38/35/12 45/49/12 59/50/12 54/51/12
f 24/52/4 17/53/4 37/13/4 39/23/4
f 3/54/4 10/55/4 36/9/4 33/17/4
f 17/53/1 4/56/1 34/14/1 37/13/1
f 24/52/13 39/23/13 55/57/13 49/58/13
f 46/59/4 51/60/4 57/61/4 56/62/4
f 47/63/4 46/59/4 56/62/4 52/48/4
f 50/64/14 49/58/14 55/57/14 54/51/14
f 58/65/4 50/64/4 54/51/4 59/50/4
f 48/66/15 47/63/15 52/48/15 53/47/15
f 40/67/12 35/10/12 52/48/12 56/62/12
f 36/9/16 10/55/16 48/66/16 53/47/16
f 39/23/12 38/35/12 54/51/12 55/57/12
f 61/68/17 60/69/17 62/45/17 63/44/17
f 64/70/4 65/71/4 60/69/4 61/68/4
f 29/37/18 28/36/18 61/68/18 63/44/18
f 31/72/1 32/43/1 62/45/1 60/69/1
f 28/36/18 40/73/18 64/70/18 61/68/18
f 41/74/1 31/72/1 60/69/1 65/71/1
f 80/75/1 78/76/1 67/77/1 74/78/1
f 77/79/2 72/80/2 68/81/2 75/82/2
f 96/83/3 73/84/3 71/85/3 95/86/3
f 97/87/1 79/88/1 69/89/1 94/90/1
f 93/91/4 70/92/4 73/84/4 96/83/4
f 76/93/4 66/94/4 72/80/4 77/79/4
f 70/92/19 76/93/19 77/79/19 73/84/19
f 73/84/20 77/79/20 75/82/20 71/85/20
f 79/88/1 80/75/1 74/78/1 69/89/1
f 85/95/19 86/96/19 80/75/19 79/88/19
f 99/97/4 85/95/4 79/88/4 97/87/4
f 86/96/4 84/98/4 78/76/4 80/75/4
f 104/99/4 102/100/4 81/101/4 83/102/4
f 105/103/4 103/104/4 82/105/4 98/106/4
f 103/107/21 104/99/21 83/102/21 82/108/21
f 83/102/8 81/101/8 84/98/8 86/96/8
f 98/109/9 82/108/9 85/95/9 99/97/9
f 82/108/22 83/102/22 86/96/22 85/95/22
f 71/85/21 75/82/21 89/110/21 88/111/21
f 95/112/4 71/113/4 88/114/4 100/115/4
f 75/82/4 68/81/4 87/116/4 89/110/4
f 92/117/23 115/118/23 116/119/23 89/110/23
f 89/110/4 87/116/4 90/120/4 92/117/4
f 95/86/24 106/121/24 107/122/24 96/83/24
f 98/109/24 108/123/24 112/124/24 105/125/24
f 24/52/4 99/97/4 97/87/4 17/53/4
f 3/54/4 93/91/4 96/83/4 10/55/4
f 17/53/1 97/87/1 94/90/1 4/56/1
f 24/52/13 49/58/13 109/126/13 99/97/13
f 46/59/4 110/127/4 111/128/4 51/60/4
f 47/63/4 106/121/4 110/127/4 46/59/4
f 50/64/14 108/123/14 109/126/14 49/58/14
f 58/65/4 112/124/4 108/123/4 50/64/4
f 48/66/15 107/122/15 106/121/15 47/63/15
f 100/129/24 110/127/24 106/121/24 95/86/24
f 96/83/16 107/122/16 48/66/16 10/55/16
f 99/97/24 109/126/24 108/123/24 98/109/24
f 114/130/25 116/119/25 115/118/25 113/131/25
f 117/132/4 114/130/4 113/131/4 118/133/4
f 89/110/18 116/119/18 114/130/18 88/111/18
f 91/134/1 113/131/1 115/118/1 92/117/1
f 88/111/18 114/130/18 117/132/18 100/135/18
f 101/136/1 118/133/1 113/131/1 91/134/1
f 23/24/26 16/4/26 123/4/26 125/24/26
f 1/20/26 9/8/26 122/8/26 119/20/26
f 27/42/26 30/46/26 127/46/26 126/42/26
f 16/4/27 2/3/27 120/3/27 123/4/27
f 20/27/28 23/24/28 125/24/28 124/27/28
f 42/28/26 20/27/26 124/27/26 128/28/26
f 5/7/26 27/42/26 126/42/26 121/7/26
f 9/8/29 5/7/29 121/7/29 122/8/29
f 93/91/30 3/54/30 130/54/30 137/91/30
f 66/94/31 76/93/31 136/93/31 134/94/31
f 76/93/32 70/92/32 135/92/32 136/93/32
f 3/54/31 33/17/31 133/17/31 130/54/31
f 70/92/31 93/91/31 137/91/31 135/92/31
f 1/20/33 119/20/33 138/20/33 129/20/33
f 33/17/31 7/18/31 131/18/31 133/17/31
f 14/19/31 1/20/31 129/20/31 132/19/31
f 7/18/34 14/19/34 132/19/34 131/18/34
f 78/76/35 84/98/35 145/98/35 143/76/35
f 87/116/35 68/81/35 141/81/35 146/116/35
f 68/81/36 72/80/36 142/80/36 141/81/36
f 84/98/37 81/101/37 144/101/37 145/98/37
f 66/94/38 134/94/38 149/94/38 139/94/38
f 81/101/35 102/100/35 148/100/35 144/101/35
f 67/77/39 78/76/39 143/76/39 140/77/39
f 72/80/35 66/94/35 139/94/35 142/80/35
f 90/120/35 87/116/35 146/116/35 147/120/35
f 12/2/40 6/15/40 152/15/40 153/2/40
f 74/78/40 67/77/40 155/77/40 157/78/40
f 6/15/40 34/14/40 154/14/40 152/15/40
f 69/89/40 74/78/40 157/78/40 156/89/40
f 2/3/40 12/2/40 153/2/40 150/3/40
f 4/56/40 94/90/40 158/90/40 151/56/40
f 120/3/41 2/3/41 150/3/41 159/3/41
f 67/77/42 140/77/42 160/77/42 155/77/42
f 34/14/40 4/56/40 151/56/40 154/14/40
f 94/90/40 69/89/40 156/89/40 158/90/40
