# Blender 5.0.0
# www.blender.org
o Plane.004
v 0.152112 -0.332802 1.903120
v 0.206131 -0.332802 -0.097283
v 0.152112 5.089431 1.903120
v 0.206131 5.089431 -0.108577
v 0.152112 -0.332802 0.798475
v 0.152112 5.089431 0.798475
v 0.234672 5.089431 1.301200
v 0.234672 -0.332802 1.301200
v 0.113597 -0.332802 0.358432
v 0.113597 5.089431 0.358432
v 0.214120 5.089431 1.669125
v 0.214119 -0.332802 1.669125
v 0.244007 -0.332802 1.095888
v 0.244007 5.089431 1.095888
v 0.155389 5.089431 0.581138
v 0.155389 -0.332802 0.581138
v 0.136309 -0.332802 0.146824
v 0.211808 5.089431 0.146824
v 0.314191 5.089431 1.766369
v 0.314191 -0.332802 1.766369
v 0.109961 -0.332802 1.482325
v 0.199034 5.089431 1.482325
v 0.331223 5.089431 1.180325
v 0.331223 -0.332802 1.180325
v 0.115429 -0.332802 0.911242
v 0.246363 5.084222 0.861467
v 0.269548 5.089431 0.658900
v 0.269548 -0.332802 0.658900
v 0.083158 -0.332802 0.448825
v 0.237124 5.089431 0.461740
v 0.241871 5.089431 0.295821
v 0.241871 -0.332802 0.295821
v 0.116840 -0.332802 0.026022
v 0.192339 5.089431 0.026022
v 0.213023 5.089431 1.575725
v 0.123950 -0.332802 1.575725
v 0.297407 -0.332802 1.717747
v 0.297408 5.089431 1.717747
v 0.278943 5.089431 1.834744
v 0.278943 -0.332802 1.834744
v 0.306281 5.089431 1.240762
v 0.306281 -0.332802 1.240762
v 0.131036 -0.332802 1.391763
v 0.220110 5.089431 1.391763
v 0.267637 5.084222 0.953790
v 0.136703 -0.332802 1.003564
v 0.320731 -0.332802 1.138106
v 0.320731 5.089431 1.138106
v 0.265876 5.089431 0.726132
v 0.265876 -0.332802 0.726132
v 0.238263 -0.332802 0.631490
v 0.238263 5.089431 0.631490
v 0.258401 5.089431 0.527896
v 0.104435 -0.332802 0.514982
v 0.220378 5.089431 0.327127
v 0.220377 -0.332802 0.327127
v 0.230927 -0.332802 0.252541
v 0.230927 5.089431 0.252541
v 0.115720 -0.332802 -0.052783
v 0.230979 5.089431 -0.064077
v 0.098378 -0.332802 0.403629
v 0.252343 5.089431 0.416543
v 0.194733 -0.332802 0.204252
v 0.194733 5.089431 0.204252
v 0.087646 5.066147 -0.050368
v -0.087645 -0.000000 -0.050368
v 0.006441 5.066147 1.898799
v -0.087645 -0.000000 1.898799
v 0.006441 4.860486 -0.050368
v -0.087645 -0.000000 0.151108
v 0.006441 5.066147 0.151108
v -0.127734 4.860486 0.151108
v 0.087646 4.963316 -0.050368
v 0.006441 4.963316 1.898799
v 0.006441 4.963316 0.151108
v -0.087645 -0.000000 0.050370
v 0.006441 4.860486 0.050370
v 0.087646 5.066147 0.050370
v 0.087646 4.963316 0.050370
v 0.087645 -0.000000 -0.050368
v 0.006441 -0.000000 1.898799
v 0.006441 -0.000000 0.151108
v 0.087645 -0.000000 0.050370
v 0.006441 0.246594 -0.050368
v -0.127734 0.246594 0.151108
v 0.006441 0.246594 0.050370
v 0.087645 0.123297 -0.050368
v 0.006441 0.123297 1.898799
v 0.006441 0.123297 0.151108
v 0.087645 0.123297 0.050370
v 0.006441 3.494385 -0.050368
v -0.127734 3.494385 0.151108
v 0.006441 3.494385 0.050370
v 0.006441 3.350640 -0.050368
v -0.127734 3.350640 0.151108
v 0.006441 3.350640 0.050370
v 0.006441 5.066147 1.856432
v -0.087645 -0.000000 1.856432
v -0.127734 4.860486 1.856432
v 0.006441 4.963316 1.856432
v 0.006441 -0.000000 1.856432
v -0.127734 0.246594 1.856432
v 0.006441 0.123297 1.856432
v -0.127734 3.494385 1.856432
v -0.127734 3.350640 1.856432
v 0.006441 1.798617 -0.050368
v -0.127734 1.798617 0.151108
v 0.006441 1.798617 0.050370
v -0.127734 1.798617 1.856432
v 0.006441 1.679971 -0.050368
v -0.127734 1.679971 0.151108
v 0.006441 1.679971 0.050370
v -0.127734 1.679971 1.856432
v -0.019541 3.493771 1.898799
v -0.019541 4.859871 1.898799
v 0.004234 4.962702 1.898799
v 0.008732 0.122683 1.898799
v -0.019541 0.245980 1.898799
v -0.019541 3.350026 1.898799
v -0.019541 1.798003 1.898799
v -0.019541 4.859871 1.856432
v 0.004234 4.962702 1.856432
v -0.019541 0.245980 1.856432
v 0.008732 0.122683 1.856432
v -0.019541 3.493771 1.856432
v -0.019541 3.350026 1.856432
v -0.019541 1.798003 1.856432
v -0.019541 1.679357 1.898799
v -0.019541 1.679357 1.856432
v -0.014390 3.350640 0.207744
v -0.014390 3.494385 0.207744
v 0.001617 3.350640 0.107006
v 0.001617 3.494385 0.107006
v -0.014390 3.494385 1.861737
v -0.014390 3.350640 1.861737
v -0.014390 1.679971 0.207744
v -0.014390 1.798617 0.207744
v 0.002222 1.679971 0.107006
v 0.002222 1.798617 0.107006
v -0.014390 1.679971 1.863839
v -0.014390 1.798617 1.863839
v 0.087646 5.066147 3.847967
v -0.087645 -0.000000 3.847967
v 0.006441 4.860486 3.847967
v -0.087645 -0.000000 3.646491
v 0.006441 5.066147 3.646491
v -0.127734 4.860486 3.646491
v 0.087646 4.963316 3.847967
v 0.006441 4.963316 3.646491
v -0.087645 -0.000000 3.747229
v 0.006441 4.860486 3.747229
v 0.087646 5.066147 3.747229
v 0.087646 4.963316 3.747229
v 0.087645 -0.000000 3.847967
v 0.006441 -0.000000 3.646491
v 0.087645 -0.000000 3.747229
v 0.006441 0.246594 3.847967
v -0.127734 0.246594 3.646491
v 0.006441 0.246594 3.747229
v 0.087645 0.123297 3.847967
v 0.006441 0.123297 3.646491
v 0.087645 0.123297 3.747229
v 0.006441 3.494385 3.847967
v -0.127734 3.494385 3.646491
v 0.006441 3.494385 3.747229
v 0.006441 3.350640 3.847967
v -0.127734 3.350640 3.646491
v 0.006441 3.350640 3.747229
v 0.006441 5.066147 1.941167
v -0.087645 -0.000000 1.941167
v -0.127734 4.860486 1.941167
v 0.006441 4.963316 1.941167
v 0.006441 -0.000000 1.941167
v -0.127734 0.246594 1.941167
v 0.006441 0.123297 1.941167
v -0.127734 3.494385 1.941167
v -0.127734 3.350640 1.941167
v 0.006441 1.798617 3.847967
v -0.127734 1.798617 3.646491
v 0.006441 1.798617 3.747229
v -0.127734 1.798617 1.941167
v 0.006441 1.679971 3.847967
v -0.127734 1.679971 3.646491
v 0.006441 1.679971 3.747229
v -0.127734 1.679971 1.941167
v -0.019541 4.859871 1.941167
v 0.004234 4.962702 1.941167
v -0.019541 0.245980 1.941167
v 0.008732 0.122683 1.941167
v -0.019541 3.493771 1.941167
v -0.019541 3.350026 1.941167
v -0.019541 1.798003 1.941167
v -0.019541 1.679357 1.941167
v -0.014390 3.350640 3.589855
v -0.014390 3.494385 3.589855
v 0.001617 3.350640 3.690593
v 0.001617 3.494385 3.690593
v -0.014390 3.494385 1.935861
v -0.014390 3.350640 1.935861
v -0.014390 1.679971 3.589855
v -0.014390 1.798617 3.589855
v 0.002222 1.679971 3.690593
v 0.002222 1.798617 3.690593
v -0.014390 1.679971 1.933760
v -0.014390 1.798617 1.933760
v 0.283132 5.094857 4.106865
v 0.282960 5.098333 -0.273984
v 0.260634 5.099333 4.106865
v 0.261836 5.102535 -0.273984
v 0.241560 5.112076 4.106865
v 0.243927 5.114501 -0.273984
v 0.228815 5.131150 4.106865
v 0.231961 5.132410 -0.273984
v 0.224340 5.153648 4.106865
v 0.227760 5.153533 -0.273984
v 0.228815 5.176147 4.106865
v 0.231961 5.174658 -0.273984
v 0.241560 5.195221 4.106865
v 0.243927 5.192566 -0.273984
v 0.260634 5.207966 4.106865
v 0.261836 5.204532 -0.273984
v 0.283132 5.212441 4.106865
v 0.282960 5.208734 -0.273984
v 0.305631 5.207966 4.106865
v 0.304084 5.204532 -0.273984
v 0.324705 5.195221 4.106865
v 0.321993 5.192566 -0.273984
v 0.337450 5.176147 4.106865
v 0.333959 5.174658 -0.273984
v 0.341925 5.153648 4.106865
v 0.338161 5.153533 -0.273984
v 0.337450 5.131150 4.106865
v 0.333959 5.132410 -0.273984
v 0.324705 5.112076 4.106865
v 0.321993 5.114501 -0.273984
v 0.305631 5.099333 4.106865
v 0.304084 5.102535 -0.273984
v 0.281674 5.124293 4.010196
v 0.270813 5.126453 4.010196
v 0.261605 5.132606 4.010196
v 0.255453 5.141813 4.010196
v 0.253292 5.152674 4.010196
v 0.255453 5.163535 4.010196
v 0.261605 5.172743 4.010196
v 0.270813 5.178895 4.010196
v 0.281674 5.181055 4.010196
v 0.292535 5.178895 4.010196
v 0.301742 5.172743 4.010196
v 0.307894 5.163535 4.010196
v 0.310055 5.152674 4.010196
v 0.307894 5.141813 4.010196
v 0.301742 5.132606 4.010196
v 0.292535 5.126453 4.010196
v 0.281674 5.124292 -0.178514
v 0.270813 5.126452 -0.178514
v 0.261605 5.132605 -0.178514
v 0.255453 5.141813 -0.178514
v 0.253292 5.152674 -0.178514
v 0.255453 5.163535 -0.178514
v 0.261605 5.172743 -0.178514
v 0.270813 5.178895 -0.178514
v 0.281674 5.181055 -0.178514
v 0.292535 5.178895 -0.178514
v 0.301742 5.172743 -0.178514
v 0.307894 5.163535 -0.178514
v 0.310055 5.152674 -0.178514
v 0.307894 5.141813 -0.178514
v 0.301742 5.132605 -0.178514
v 0.292535 5.126452 -0.178514
v 0.235188 5.121614 4.106865
v 0.237944 5.123455 -0.273984
v 0.258529 5.137209 4.010196
v 0.258529 5.137209 -0.178514
v 0.190938 5.091319 1.820094
v 0.199802 5.091319 1.803495
v 0.200934 5.063960 1.825432
v 0.209798 5.063960 1.808833
v 0.219405 5.043021 1.835296
v 0.228269 5.043021 1.818697
v 0.243538 5.031688 1.848184
v 0.252402 5.031688 1.831585
v 0.269659 5.031688 1.862133
v 0.278524 5.031688 1.845534
v 0.293793 5.043021 1.875021
v 0.302657 5.043021 1.858422
v 0.312263 5.063960 1.884885
v 0.321128 5.063960 1.868286
v 0.322260 5.091319 1.890223
v 0.331124 5.091319 1.873625
v 0.322260 5.120932 1.890223
v 0.331124 5.120932 1.873625
v 0.312263 5.148291 1.884885
v 0.321128 5.148291 1.868286
v 0.293793 5.169230 1.875021
v 0.302657 5.169230 1.858422
v 0.269659 5.180562 1.862133
v 0.278524 5.180562 1.845534
v 0.243538 5.180562 1.848184
v 0.252402 5.180562 1.831585
v 0.219405 5.169230 1.835296
v 0.228269 5.169230 1.818697
v 0.200934 5.148291 1.825432
v 0.209798 5.148291 1.808833
v 0.190938 5.120932 1.820094
v 0.199802 5.120932 1.803495
v 0.173027 5.087280 1.810529
v 0.185750 5.052458 1.817323
v 0.194614 5.052458 1.800725
v 0.181891 5.087280 1.793930
v 0.209259 5.025807 1.829878
v 0.218123 5.025807 1.813279
v 0.239975 5.011384 1.846281
v 0.248839 5.011384 1.829683
v 0.273222 5.011384 1.864036
v 0.282086 5.011384 1.847437
v 0.303938 5.025807 1.880439
v 0.312802 5.025807 1.863841
v 0.327447 5.052458 1.892994
v 0.336311 5.052458 1.876395
v 0.340170 5.087280 1.899788
v 0.349034 5.087280 1.883189
v 0.340170 5.124970 1.899788
v 0.349034 5.124970 1.883189
v 0.327447 5.159792 1.892994
v 0.336311 5.159792 1.876395
v 0.303938 5.186443 1.880439
v 0.312802 5.186443 1.863841
v 0.273222 5.200867 1.864036
v 0.282086 5.200867 1.847437
v 0.239975 5.200867 1.846281
v 0.248839 5.200867 1.829683
v 0.209259 5.186443 1.829878
v 0.218123 5.186443 1.813279
v 0.185750 5.159792 1.817323
v 0.194614 5.159792 1.800725
v 0.173027 5.124970 1.810529
v 0.181891 5.124970 1.793930
v 0.194213 5.090117 1.770503
v 0.190790 5.090117 1.751999
v 0.205356 5.062758 1.768441
v 0.201934 5.062758 1.749938
v 0.225947 5.041819 1.764632
v 0.222524 5.041819 1.746129
v 0.252849 5.030487 1.759656
v 0.249426 5.030487 1.741152
v 0.281968 5.030487 1.754269
v 0.278545 5.030487 1.735766
v 0.308870 5.041819 1.749293
v 0.305447 5.041819 1.730789
v 0.329460 5.062758 1.745484
v 0.326038 5.062758 1.726980
v 0.340604 5.090117 1.743422
v 0.337181 5.090117 1.724919
v 0.340604 5.119730 1.743422
v 0.337181 5.119730 1.724919
v 0.329460 5.147089 1.745484
v 0.326038 5.147089 1.726980
v 0.308870 5.168029 1.749293
v 0.305447 5.168029 1.730789
v 0.281968 5.179361 1.754269
v 0.278545 5.179361 1.735766
v 0.252849 5.179361 1.759656
v 0.249426 5.179361 1.741152
v 0.225947 5.168029 1.764632
v 0.222524 5.168029 1.746129
v 0.205356 5.147089 1.768441
v 0.201934 5.147089 1.749938
v 0.194213 5.119730 1.770503
v 0.190790 5.119730 1.751999
v 0.174247 5.086078 1.774196
v 0.188430 5.051257 1.771572
v 0.185007 5.051257 1.753069
v 0.170824 5.086078 1.755693
v 0.214637 5.024605 1.766724
v 0.211214 5.024605 1.748221
v 0.248878 5.010181 1.760390
v 0.245455 5.010181 1.741887
v 0.285939 5.010181 1.753535
v 0.282517 5.010181 1.735031
v 0.320180 5.024605 1.747200
v 0.316757 5.024605 1.728697
v 0.346387 5.051257 1.742352
v 0.342964 5.051257 1.723849
v 0.360570 5.086078 1.739729
v 0.357147 5.086078 1.721226
v 0.360570 5.123769 1.739729
v 0.357147 5.123769 1.721226
v 0.346387 5.158591 1.742352
v 0.342964 5.158591 1.723849
v 0.320180 5.185242 1.747200
v 0.316757 5.185242 1.728697
v 0.285939 5.199666 1.753535
v 0.282516 5.199666 1.735031
v 0.248878 5.199666 1.760390
v 0.245455 5.199666 1.741887
v 0.214637 5.185242 1.766724
v 0.211214 5.185242 1.748221
v 0.188430 5.158591 1.771572
v 0.185007 5.158591 1.753069
v 0.174247 5.123769 1.774196
v 0.170824 5.123769 1.755693
v 0.174818 5.088192 1.440530
v 0.180974 5.088192 1.422748
v 0.185527 5.060833 1.444237
v 0.191683 5.060833 1.426455
v 0.205314 5.039893 1.451088
v 0.211470 5.039893 1.433306
v 0.231167 5.028561 1.460038
v 0.237323 5.028561 1.442257
v 0.259150 5.028561 1.469726
v 0.265307 5.028561 1.451945
v 0.285004 5.039893 1.478677
v 0.291160 5.039893 1.460895
v 0.304791 5.060833 1.485528
v 0.310947 5.060833 1.467746
v 0.315500 5.088192 1.489235
v 0.321656 5.088192 1.471453
v 0.315500 5.117804 1.489235
v 0.321656 5.117804 1.471453
v 0.304791 5.145163 1.485528
v 0.310947 5.145163 1.467746
v 0.285004 5.166102 1.478677
v 0.291160 5.166102 1.460895
v 0.259150 5.177434 1.469726
v 0.265307 5.177434 1.451945
v 0.231167 5.177434 1.460038
v 0.237323 5.177434 1.442257
v 0.205314 5.166102 1.451088
v 0.211470 5.166102 1.433306
v 0.185527 5.145163 1.444237
v 0.191683 5.145163 1.426455
v 0.174818 5.117804 1.440530
v 0.180974 5.117804 1.422748
v 0.155631 5.084152 1.433887
v 0.169260 5.049330 1.438606
v 0.175417 5.049330 1.420824
v 0.161787 5.084152 1.416105
v 0.194445 5.022679 1.447325
v 0.200601 5.022679 1.429543
v 0.227351 5.008255 1.458717
v 0.233507 5.008255 1.440935
v 0.262967 5.008255 1.471048
v 0.269123 5.008255 1.453266
v 0.295872 5.022679 1.482440
v 0.302029 5.022679 1.464658
v 0.321057 5.049330 1.491159
v 0.327213 5.049330 1.473377
v 0.334687 5.084152 1.495878
v 0.340843 5.084152 1.478096
v 0.334687 5.121843 1.495878
v 0.340843 5.121843 1.478096
v 0.321057 5.156665 1.491159
v 0.327213 5.156665 1.473377
v 0.295872 5.183316 1.482440
v 0.302029 5.183316 1.464658
v 0.262967 5.197740 1.471048
v 0.269123 5.197740 1.453266
v 0.227351 5.197740 1.458717
v 0.233507 5.197740 1.440935
v 0.194445 5.183316 1.447325
v 0.200601 5.183316 1.429543
v 0.169260 5.156665 1.438606
v 0.175417 5.156665 1.420824
v 0.155631 5.121843 1.433887
v 0.161787 5.121843 1.416105
v 0.221317 5.088192 1.179784
v 0.221317 5.088192 1.160966
v 0.232649 5.060833 1.179784
v 0.232649 5.060833 1.160966
v 0.253589 5.039893 1.179784
v 0.253589 5.039893 1.160966
v 0.280948 5.028561 1.179784
v 0.280948 5.028561 1.160966
v 0.310561 5.028561 1.179784
v 0.310561 5.028561 1.160966
v 0.337920 5.039893 1.179784
v 0.337920 5.039893 1.160966
v 0.358859 5.060833 1.179784
v 0.358859 5.060833 1.160966
v 0.370191 5.088192 1.179784
v 0.370191 5.088192 1.160966
v 0.370191 5.117804 1.179784
v 0.370191 5.117804 1.160966
v 0.358859 5.145163 1.179784
v 0.358859 5.145163 1.160966
v 0.337920 5.166102 1.179784
v 0.337920 5.166102 1.160966
v 0.310561 5.177434 1.179784
v 0.310561 5.177434 1.160966
v 0.280948 5.177434 1.179784
v 0.280948 5.177434 1.160966
v 0.253589 5.166102 1.179784
v 0.253589 5.166102 1.160966
v 0.232649 5.145163 1.179784
v 0.232649 5.145163 1.160966
v 0.221317 5.117804 1.179784
v 0.221317 5.117804 1.160966
v 0.201012 5.084152 1.179784
v 0.215436 5.049330 1.179784
v 0.215436 5.049330 1.160966
v 0.201012 5.084152 1.160966
v 0.242087 5.022679 1.179784
v 0.242087 5.022679 1.160966
v 0.276909 5.008255 1.179784
v 0.276909 5.008255 1.160966
v 0.314600 5.008255 1.179784
v 0.314600 5.008255 1.160966
v 0.349421 5.022679 1.179784
v 0.349421 5.022679 1.160966
v 0.376073 5.049330 1.179784
v 0.376073 5.049330 1.160966
v 0.390496 5.084152 1.179784
v 0.390496 5.084152 1.160966
v 0.390496 5.121843 1.179784
v 0.390496 5.121843 1.160966
v 0.376073 5.156665 1.179784
v 0.376073 5.156665 1.160966
v 0.349421 5.183316 1.179784
v 0.349421 5.183316 1.160966
v 0.314600 5.197740 1.179784
v 0.314600 5.197740 1.160966
v 0.276909 5.197740 1.179784
v 0.276909 5.197740 1.160966
v 0.242087 5.183316 1.179784
v 0.242087 5.183316 1.160966
v 0.215436 5.156665 1.179784
v 0.215436 5.156665 1.160966
v 0.201012 5.121843 1.179784
v 0.201012 5.121843 1.160966
v 0.195115 5.088192 0.923602
v 0.186964 5.088192 0.906642
v 0.205329 5.060833 0.918693
v 0.197178 5.060833 0.901733
v 0.224202 5.039893 0.909623
v 0.216051 5.039893 0.892662
v 0.248861 5.028561 0.897772
v 0.240710 5.028561 0.880811
v 0.275552 5.028561 0.884944
v 0.267401 5.028561 0.867984
v 0.300211 5.039893 0.873093
v 0.292059 5.039893 0.856133
v 0.319084 5.060833 0.864023
v 0.310932 5.060833 0.847063
v 0.329298 5.088192 0.859114
v 0.321146 5.088192 0.842154
v 0.329298 5.117804 0.859114
v 0.321146 5.117804 0.842154
v 0.319084 5.145163 0.864023
v 0.310932 5.145163 0.847063
v 0.300211 5.166102 0.873093
v 0.292059 5.166102 0.856133
v 0.275552 5.177434 0.884944
v 0.267401 5.177434 0.867984
v 0.248861 5.177434 0.897772
v 0.240710 5.177434 0.880811
v 0.224202 5.166102 0.909623
v 0.216051 5.166102 0.892662
v 0.205329 5.145163 0.918693
v 0.197178 5.145163 0.901733
v 0.195115 5.117804 0.923602
v 0.186964 5.117804 0.906642
v 0.176815 5.084152 0.932397
v 0.189815 5.049330 0.926149
v 0.181664 5.049330 0.909189
v 0.168663 5.084152 0.915437
v 0.213836 5.022679 0.914605
v 0.205685 5.022679 0.897644
v 0.245221 5.008255 0.899521
v 0.237070 5.008255 0.882561
v 0.279192 5.008255 0.883195
v 0.271041 5.008255 0.866235
v 0.310577 5.022679 0.868111
v 0.302426 5.022679 0.851151
v 0.334598 5.049330 0.856566
v 0.326447 5.049330 0.839606
v 0.347598 5.084152 0.850319
v 0.339447 5.084152 0.833358
v 0.347598 5.121843 0.850319
v 0.339447 5.121843 0.833358
v 0.334598 5.156665 0.856566
v 0.326447 5.156665 0.839606
v 0.310577 5.183316 0.868111
v 0.302426 5.183316 0.851151
v 0.279192 5.197740 0.883195
v 0.271041 5.197740 0.866235
v 0.245221 5.197740 0.899521
v 0.237070 5.197740 0.882561
v 0.213836 5.183316 0.914605
v 0.205685 5.183316 0.897644
v 0.189815 5.156665 0.926149
v 0.181663 5.156665 0.909189
v 0.176815 5.121843 0.932397
v 0.168663 5.121843 0.915437
v 0.178329 5.083560 0.706170
v 0.178329 5.083560 0.687352
v 0.189662 5.056201 0.706170
v 0.189662 5.056201 0.687352
v 0.210601 5.035262 0.706170
v 0.210601 5.035262 0.687352
v 0.237960 5.023930 0.706170
v 0.237960 5.023930 0.687352
v 0.267573 5.023930 0.706170
v 0.267573 5.023930 0.687352
v 0.294932 5.035262 0.706170
v 0.294932 5.035262 0.687352
v 0.315871 5.056201 0.706170
v 0.315871 5.056201 0.687352
v 0.327204 5.083560 0.706170
v 0.327204 5.083560 0.687352
v 0.327204 5.113173 0.706170
v 0.327204 5.113173 0.687352
v 0.315871 5.140532 0.706170
v 0.315871 5.140532 0.687352
v 0.294932 5.161471 0.706170
v 0.294932 5.161471 0.687352
v 0.267573 5.172804 0.706170
v 0.267573 5.172804 0.687352
v 0.237960 5.172804 0.706170
v 0.237960 5.172804 0.687352
v 0.210601 5.161471 0.706170
v 0.210601 5.161471 0.687352
v 0.189662 5.140532 0.706170
v 0.189662 5.140532 0.687352
v 0.178329 5.113173 0.706170
v 0.178329 5.113173 0.687352
v 0.158024 5.079521 0.706170
v 0.172448 5.044700 0.706170
v 0.172448 5.044700 0.687352
v 0.158024 5.079521 0.687352
v 0.199099 5.018049 0.706170
v 0.199099 5.018049 0.687352
v 0.233921 5.003625 0.706170
v 0.233921 5.003625 0.687352
v 0.271612 5.003625 0.706170
v 0.271612 5.003625 0.687352
v 0.306433 5.018049 0.706170
v 0.306433 5.018049 0.687352
v 0.333085 5.044700 0.706170
v 0.333085 5.044700 0.687352
v 0.347508 5.079521 0.706170
v 0.347508 5.079521 0.687352
v 0.347508 5.117212 0.706170
v 0.347508 5.117212 0.687352
v 0.333085 5.152034 0.706170
v 0.333085 5.152034 0.687352
v 0.306433 5.178685 0.706170
v 0.306433 5.178685 0.687352
v 0.271612 5.193109 0.706170
v 0.271612 5.193109 0.687352
v 0.233921 5.193109 0.706170
v 0.233921 5.193109 0.687352
v 0.199099 5.178685 0.706170
v 0.199099 5.178685 0.687352
v 0.172448 5.152034 0.706170
v 0.172448 5.152034 0.687352
v 0.158024 5.117212 0.706170
v 0.158024 5.117212 0.687352
v 0.174930 5.088192 0.503593
v 0.177974 5.088192 0.485023
v 0.186113 5.060833 0.505426
v 0.189158 5.060833 0.486856
v 0.206777 5.039893 0.508814
v 0.209821 5.039893 0.490244
v 0.233775 5.028561 0.513240
v 0.236820 5.028561 0.494670
v 0.262998 5.028561 0.518030
v 0.266043 5.028561 0.499461
v 0.289997 5.039893 0.522456
v 0.293041 5.039893 0.503887
v 0.310660 5.060833 0.525844
v 0.313705 5.060833 0.507274
v 0.321843 5.088192 0.527677
v 0.324888 5.088192 0.509108
v 0.321843 5.117804 0.527677
v 0.324888 5.117804 0.509108
v 0.310660 5.145163 0.525844
v 0.313705 5.145163 0.507274
v 0.289997 5.166102 0.522456
v 0.293041 5.166102 0.503887
v 0.262998 5.177434 0.518030
v 0.266042 5.177434 0.499461
v 0.233775 5.177434 0.513240
v 0.236820 5.177434 0.494670
v 0.206777 5.166102 0.508814
v 0.209821 5.166102 0.490244
v 0.186113 5.145163 0.505426
v 0.189158 5.145163 0.486856
v 0.174930 5.117804 0.503593
v 0.177974 5.117804 0.485023
v 0.154893 5.084152 0.500308
v 0.169127 5.049330 0.502641
v 0.172171 5.049330 0.484072
v 0.157937 5.084152 0.481738
v 0.195427 5.022679 0.506953
v 0.198471 5.022679 0.488383
v 0.229790 5.008255 0.512586
v 0.232834 5.008255 0.494017
v 0.266984 5.008255 0.518684
v 0.270028 5.008255 0.500114
v 0.301347 5.022679 0.524317
v 0.304391 5.022679 0.505748
v 0.327647 5.049330 0.528629
v 0.330691 5.049330 0.510059
v 0.341881 5.084152 0.530962
v 0.344925 5.084152 0.512393
v 0.341881 5.121843 0.530962
v 0.344925 5.121843 0.512393
v 0.327647 5.156665 0.528629
v 0.330691 5.156665 0.510059
v 0.301347 5.183316 0.524317
v 0.304391 5.183316 0.505748
v 0.266984 5.197740 0.518684
v 0.270028 5.197740 0.500114
v 0.229790 5.197740 0.512586
v 0.232834 5.197740 0.494017
v 0.195427 5.183316 0.506953
v 0.198471 5.183316 0.488383
v 0.169126 5.156665 0.502641
v 0.172171 5.156665 0.484072
v 0.154893 5.121843 0.500308
v 0.157937 5.121843 0.481738
v 0.179488 5.088192 0.291578
v 0.179488 5.088192 0.272760
v 0.190820 5.060833 0.291578
v 0.190820 5.060833 0.272760
v 0.211760 5.039893 0.291578
v 0.211759 5.039893 0.272760
v 0.239118 5.028561 0.291578
v 0.239118 5.028561 0.272760
v 0.268731 5.028561 0.291578
v 0.268731 5.028561 0.272760
v 0.296090 5.039893 0.291578
v 0.296090 5.039893 0.272760
v 0.317030 5.060833 0.291578
v 0.317030 5.060833 0.272760
v 0.328362 5.088192 0.291578
v 0.328362 5.088192 0.272760
v 0.328362 5.117804 0.291578
v 0.328362 5.117804 0.272760
v 0.317030 5.145163 0.291578
v 0.317030 5.145163 0.272760
v 0.296090 5.166102 0.291578
v 0.296090 5.166102 0.272760
v 0.268731 5.177434 0.291578
v 0.268731 5.177434 0.272760
v 0.239118 5.177434 0.291578
v 0.239118 5.177434 0.272760
v 0.211760 5.166102 0.291578
v 0.211759 5.166102 0.272760
v 0.190820 5.145163 0.291578
v 0.190820 5.145163 0.272760
v 0.179488 5.117804 0.291578
v 0.179488 5.117804 0.272760
v 0.159183 5.084152 0.291578
v 0.173607 5.049330 0.291578
v 0.173607 5.049330 0.272760
v 0.159183 5.084152 0.272760
v 0.200258 5.022679 0.291578
v 0.200258 5.022679 0.272760
v 0.235079 5.008255 0.291578
v 0.235079 5.008255 0.272760
v 0.272770 5.008255 0.291578
v 0.272770 5.008255 0.272760
v 0.307592 5.022679 0.291578
v 0.307592 5.022679 0.272760
v 0.334243 5.049330 0.291578
v 0.334243 5.049330 0.272760
v 0.348667 5.084152 0.291578
v 0.348667 5.084152 0.272760
v 0.348667 5.121843 0.291578
v 0.348667 5.121843 0.272760
v 0.334243 5.156665 0.291578
v 0.334243 5.156665 0.272760
v 0.307592 5.183316 0.291578
v 0.307592 5.183316 0.272760
v 0.272770 5.197740 0.291578
v 0.272770 5.197740 0.272760
v 0.235079 5.197740 0.291578
v 0.235079 5.197740 0.272760
v 0.200258 5.183316 0.291578
v 0.200258 5.183316 0.272760
v 0.173607 5.156665 0.291578
v 0.173607 5.156665 0.272760
v 0.159183 5.121843 0.291578
v 0.159183 5.121843 0.272760
v 0.182936 5.088192 0.091369
v 0.177049 5.088192 0.073496
v 0.193699 5.060833 0.087825
v 0.187813 5.060833 0.069952
v 0.213588 5.039893 0.081275
v 0.207702 5.039893 0.063401
v 0.239574 5.028561 0.072716
v 0.233688 5.028561 0.054843
v 0.267701 5.028561 0.063453
v 0.261814 5.028561 0.045580
v 0.293686 5.039893 0.054895
v 0.287800 5.039893 0.037022
v 0.313575 5.060833 0.048345
v 0.307689 5.060833 0.030472
v 0.324339 5.088192 0.044801
v 0.318453 5.088192 0.026927
v 0.324339 5.117804 0.044801
v 0.318453 5.117804 0.026927
v 0.313575 5.145163 0.048345
v 0.307689 5.145163 0.030472
v 0.293687 5.166102 0.054895
v 0.287800 5.166102 0.037022
v 0.267701 5.177434 0.063453
v 0.261814 5.177434 0.045580
v 0.239574 5.177434 0.072716
v 0.233688 5.177434 0.054843
v 0.213588 5.166102 0.081275
v 0.207702 5.166102 0.063401
v 0.193699 5.145163 0.087825
v 0.187813 5.145163 0.069952
v 0.182936 5.117804 0.091369
v 0.177049 5.117804 0.073496
v 0.163650 5.084152 0.097721
v 0.177350 5.049330 0.093209
v 0.171463 5.049330 0.075336
v 0.157764 5.084152 0.079848
v 0.202663 5.022679 0.084872
v 0.196777 5.022679 0.066999
v 0.235738 5.008255 0.073980
v 0.229851 5.008255 0.056107
v 0.271537 5.008255 0.062190
v 0.265651 5.008255 0.044317
v 0.304611 5.022679 0.051297
v 0.298725 5.022679 0.033424
v 0.329925 5.049330 0.042961
v 0.324039 5.049330 0.025088
v 0.343625 5.084152 0.038449
v 0.337738 5.084152 0.020576
v 0.343625 5.121843 0.038449
v 0.337738 5.121843 0.020576
v 0.329925 5.156665 0.042961
v 0.324039 5.156665 0.025088
v 0.304611 5.183316 0.051297
v 0.298725 5.183316 0.033424
v 0.271537 5.197740 0.062190
v 0.265651 5.197740 0.044317
v 0.235738 5.197740 0.073980
v 0.229851 5.197740 0.056107
v 0.202663 5.183316 0.084872
v 0.196777 5.183316 0.066999
v 0.177350 5.156665 0.093209
v 0.171463 5.156665 0.075336
v 0.163650 5.121843 0.097721
v 0.157764 5.121843 0.079848
v 0.196227 5.088192 -0.067437
v 0.201157 5.088192 -0.085598
v 0.207164 5.060833 -0.064468
v 0.212094 5.060833 -0.082628
v 0.227372 5.039893 -0.058982
v 0.232302 5.039893 -0.077142
v 0.253775 5.028561 -0.051814
v 0.258705 5.028561 -0.069974
v 0.282353 5.028561 -0.044055
v 0.287284 5.028561 -0.062215
v 0.308756 5.039893 -0.036887
v 0.313687 5.039893 -0.055047
v 0.328964 5.060833 -0.031400
v 0.333895 5.060833 -0.049561
v 0.339901 5.088192 -0.028432
v 0.344831 5.088192 -0.046592
v 0.339901 5.117804 -0.028432
v 0.344831 5.117804 -0.046592
v 0.328964 5.145163 -0.031400
v 0.333895 5.145163 -0.049561
v 0.308756 5.166102 -0.036887
v 0.313687 5.166102 -0.055047
v 0.282353 5.177434 -0.044055
v 0.287284 5.177434 -0.062215
v 0.253775 5.177434 -0.051814
v 0.258705 5.177434 -0.069974
v 0.227372 5.166102 -0.058982
v 0.232302 5.166102 -0.077142
v 0.207164 5.145163 -0.064468
v 0.212094 5.145163 -0.082628
v 0.196227 5.117804 -0.067437
v 0.201157 5.117804 -0.085598
v 0.176632 5.084152 -0.072757
v 0.190552 5.049330 -0.068978
v 0.195482 5.049330 -0.087138
v 0.181562 5.084152 -0.090917
v 0.216272 5.022679 -0.061996
v 0.221202 5.022679 -0.080155
v 0.249877 5.008255 -0.052872
v 0.254807 5.008255 -0.071032
v 0.286251 5.008255 -0.042997
v 0.291181 5.008255 -0.061157
v 0.319856 5.022679 -0.033873
v 0.324787 5.022679 -0.052033
v 0.345577 5.049330 -0.026891
v 0.350507 5.049330 -0.045051
v 0.359496 5.084152 -0.023112
v 0.364427 5.084152 -0.041272
v 0.359496 5.121843 -0.023112
v 0.364427 5.121843 -0.041272
v 0.345577 5.156665 -0.026891
v 0.350507 5.156665 -0.045051
v 0.319856 5.183316 -0.033873
v 0.324787 5.183316 -0.052033
v 0.286251 5.197740 -0.042997
v 0.291181 5.197740 -0.061157
v 0.249877 5.197740 -0.052872
v 0.254807 5.197740 -0.071032
v 0.216272 5.183316 -0.061996
v 0.221202 5.183316 -0.080155
v 0.190552 5.156665 -0.068978
v 0.195482 5.156665 -0.087138
v 0.176632 5.121843 -0.072757
v 0.181562 5.121843 -0.090917
v -0.399721 5.053768 -0.043024
v -0.575012 -0.012380 -0.043024
v -0.480925 4.848106 -0.043024
v -0.399721 4.950937 -0.043024
v -0.399721 -0.012380 -0.043024
v -0.480925 0.234215 -0.043024
v -0.399721 0.110918 -0.043024
v -0.480925 3.482006 -0.043024
v -0.480925 3.338261 -0.043024
v -0.480925 1.786238 -0.043024
v -0.480925 1.667592 -0.043024
v -0.320241 5.042141 -0.051895
v -0.401446 5.042141 1.897272
v -0.401446 5.042141 0.149581
v -0.320241 5.042141 0.048843
v -0.401446 5.042141 1.854905
v -0.320241 5.042141 3.846440
v -0.401446 5.042141 1.549385
v -0.320241 5.042141 3.745702
v -0.401446 5.042141 -0.155938
v -0.807608 5.029762 -0.044551
v -0.589482 5.169522 3.820946
v -0.764773 0.103374 3.820946
v -0.670687 4.963861 3.820946
v -0.589482 5.066691 3.820946
v -0.589483 0.103374 3.820946
v -0.670687 0.349969 3.820946
v -0.589483 0.226672 3.820946
v -0.670687 3.597760 3.820946
v -0.670687 3.454015 3.820946
v -0.670687 1.901992 3.820946
v -0.670687 1.783346 3.820946
v -0.997369 5.145516 3.819419
v -0.417908 -0.000729 -0.053612
v -0.417908 -0.000729 1.895556
v -0.417908 -0.000729 0.147865
v -0.417908 -0.000729 0.047127
v -0.417908 -0.000729 1.853188
v -0.417908 -0.000729 3.844724
v -0.417908 -0.000729 3.643248
v -0.417908 -0.000729 3.743986
v -0.417908 -0.000729 1.937924
v -0.905274 -0.013108 -0.046267
v -1.095036 0.102646 3.817703
vn 0.9108 -0.0124 0.4126
vn 0.8051 -0.0073 0.5931
vn 0.9102 -0.0124 0.4140
vn 0.9632 -0.0193 -0.2680
vn 0.9415 -0.0082 0.3370
vn 0.9375 -0.0081 0.3479
vn 0.9630 -0.0192 -0.2688
vn 0.9200 -0.0116 0.3917
vn 0.7492 -0.0035 0.6624
vn 0.9195 -0.0116 0.3929
vn 0.9630 -0.0218 -0.2685
vn 0.9789 -0.0087 0.2042
vn 0.9634 -0.0218 -0.2671
vn 0.7729 -0.0000 -0.6345
vn 0.7328 -0.0039 -0.6805
vn 0.7926 -0.0000 -0.6097
vn 0.7615 -0.0069 -0.6482
vn 0.7586 -0.0068 -0.6515
vn 0.5913 -0.0000 -0.8064
vn 0.9532 -0.0090 -0.3021
vn 0.8803 -0.0033 -0.4745
vn 0.9683 -0.0102 -0.2496
vn 0.9682 -0.0102 -0.2499
vn 0.7136 -0.0000 0.7005
vn 0.9974 -0.0000 0.0717
vn 0.9550 -0.0120 -0.2964
vn 0.9991 -0.0164 0.0399
vn 0.9991 -0.0164 0.0401
vn 0.9548 -0.0119 -0.2971
vn 0.8077 -0.0000 0.5896
vn 0.9973 -0.0000 0.0738
vn 0.9597 -0.0193 -0.2805
vn 0.9595 -0.0193 -0.2810
vn 0.8631 -0.0000 0.5051
vn 0.9217 -0.0000 -0.3879
vn 0.9987 -0.0213 0.0464
vn 0.9996 -0.0284 0.0072
vn 0.9996 -0.0284 0.0064
vn 0.9986 -0.0213 0.0484
vn 0.5869 -0.0000 0.8097
vn 0.9844 -0.0000 0.1761
vn 0.9994 -0.0156 0.0295
vn 0.9994 -0.0156 0.0296
vn 0.4745 -0.0000 0.8802
vn 0.9024 -0.0000 -0.4309
vn -0.0000 -1.0000 -0.0000
vn 0.7848 -0.6197 -0.0000
vn 0.6083 -0.7937 -0.0000
vn 1.0000 -0.0000 -0.0000
vn 0.7785 -0.0000 0.6276
vn 0.5556 -0.5819 0.5939
vn 0.6004 -0.0000 0.7997
vn 0.8351 0.5500 -0.0000
vn 0.6766 0.7363 -0.0000
vn 0.5867 0.5124 0.6271
vn 0.9964 -0.0000 0.0849
vn -0.0000 1.0000 -0.0000
vn -0.0000 -0.0000 -1.0000
vn -0.2588 -0.9659 -0.0000
vn 0.9747 0.2235 -0.0000
vn 0.9743 -0.2253 -0.0000
vn 0.2683 -0.9633 -0.0000
vn 0.9876 -0.0000 0.1569
vn 0.9867 -0.0000 0.1627
vn 0.9972 -0.0000 0.0743
vn 0.7785 -0.0000 -0.6276
vn 0.5556 -0.5818 -0.5939
vn 0.6004 -0.0000 -0.7997
vn 0.5867 0.5124 -0.6271
vn 0.9964 -0.0000 -0.0849
vn -0.0000 -0.0000 1.0000
vn 0.2681 -0.9634 -0.0000
vn 0.9876 -0.0000 -0.1569
vn 0.9867 -0.0000 -0.1627
vn 0.9972 -0.0000 -0.0743
vn 0.5333 0.7982 0.2801
vn 0.7985 0.5336 0.2789
vn 0.9415 0.1873 0.2801
vn 0.9405 -0.1871 0.2836
vn 0.7961 -0.5319 0.2888
vn 0.5309 -0.7945 0.2948
vn 0.1860 -0.9353 0.3009
vn -0.1857 -0.9338 0.3060
vn -0.5283 -0.7907 0.3094
vn -0.7904 -0.5281 0.3105
vn -0.9327 -0.1855 0.3094
vn -0.9337 0.1857 0.3060
vn -0.7929 0.5298 0.3009
vn -0.5309 0.7945 0.2948
vn -0.1868 0.9390 0.2887
vn 0.1871 0.9405 0.2836
vn 0.1951 0.9808 -0.0000
vn -0.1951 0.9808 -0.0000
vn -0.5556 0.8314 -0.0000
vn -0.8315 0.5556 -0.0000
vn -0.9808 0.1951 -0.0000
vn -0.9808 -0.1951 -0.0000
vn -0.8315 -0.5555 -0.0000
vn -0.5556 -0.8315 -0.0000
vn -0.1950 -0.9808 -0.0000
vn 0.1950 -0.9808 -0.0000
vn 0.5556 -0.8315 -0.0000
vn 0.8315 -0.5555 -0.0000
vn 0.9808 -0.1951 -0.0000
vn 0.9808 0.1951 -0.0000
vn 0.8315 0.5556 -0.0000
vn 0.5556 0.8315 -0.0000
vn 0.5376 0.8046 -0.2521
vn 0.8049 0.5378 -0.2510
vn 0.9491 0.1888 -0.2521
vn 0.9483 -0.1886 -0.2553
vn 0.8029 -0.5364 -0.2601
vn 0.5356 -0.8016 -0.2656
vn 0.1878 -0.9440 -0.2712
vn -0.1875 -0.9427 -0.2758
vn -0.5335 -0.7985 -0.2790
vn -0.7982 -0.5333 -0.2801
vn -0.9418 -0.1874 -0.2790
vn -0.9427 0.1875 -0.2758
vn -0.8003 0.5347 -0.2712
vn -0.5356 0.8016 -0.2656
vn -0.1883 0.9471 -0.2601
vn 0.1886 0.9483 -0.2553
vn 0.8048 0.5378 -0.2510
vn 0.7985 0.5335 0.2789
vn -0.3320 -0.1456 -0.9320
vn -0.2337 -0.4146 -0.8795
vn -0.8609 -0.4146 0.2950
vn -0.9592 -0.1456 0.2425
vn -0.0521 -0.6204 -0.7825
vn -0.6793 -0.6204 0.3919
vn 0.1852 -0.7319 -0.6558
vn -0.4420 -0.7319 0.5187
vn 0.4420 -0.7319 -0.5187
vn -0.1852 -0.7319 0.6558
vn 0.6793 -0.6204 -0.3919
vn 0.0521 -0.6204 0.7825
vn 0.8609 -0.4146 -0.2950
vn 0.2337 -0.4146 0.8795
vn 0.9592 -0.1456 -0.2425
vn 0.3320 -0.1456 0.9320
vn 0.9592 0.1456 -0.2425
vn 0.3320 0.1456 0.9320
vn 0.8609 0.4146 -0.2950
vn 0.2337 0.4146 0.8795
vn 0.6793 0.6204 -0.3919
vn 0.0521 0.6204 0.7825
vn 0.4420 0.7319 -0.5187
vn -0.1852 0.7319 0.6558
vn 0.1852 0.7319 -0.6558
vn -0.4420 0.7319 0.5187
vn -0.0521 0.6204 -0.7825
vn -0.6793 0.6204 0.3919
vn -0.2337 0.4146 -0.8795
vn -0.8609 0.4146 0.2950
vn -0.3320 0.1456 -0.9320
vn -0.9592 0.1456 0.2425
vn -0.4711 -0.0000 0.8821
vn 0.4711 -0.0000 -0.8821
vn -0.8408 -0.1456 -0.5215
vn -0.7312 -0.4146 -0.5418
vn -0.4890 -0.4146 0.7675
vn -0.5986 -0.1456 0.7877
vn -0.5288 -0.6204 -0.5792
vn -0.2866 -0.6204 0.7300
vn -0.2642 -0.7319 -0.6281
vn -0.0221 -0.7319 0.6811
vn 0.0221 -0.7319 -0.6811
vn 0.2642 -0.7319 0.6281
vn 0.2866 -0.6204 -0.7300
vn 0.5287 -0.6204 0.5792
vn 0.4890 -0.4146 -0.7675
vn 0.7312 -0.4146 0.5418
vn 0.5986 -0.1456 -0.7877
vn 0.8407 -0.1456 0.5215
vn 0.5986 0.1456 -0.7877
vn 0.8407 0.1456 0.5215
vn 0.4890 0.4146 -0.7675
vn 0.7312 0.4146 0.5418
vn 0.2866 0.6204 -0.7300
vn 0.5287 0.6204 0.5792
vn 0.0221 0.7319 -0.6811
vn 0.2642 0.7319 0.6281
vn -0.2642 0.7319 -0.6281
vn -0.0221 0.7319 0.6811
vn -0.5287 0.6204 -0.5792
vn -0.2866 0.6204 0.7300
vn -0.7312 0.4146 -0.5417
vn -0.4890 0.4146 0.7675
vn -0.8408 0.1456 -0.5215
vn -0.5986 0.1456 0.7877
vn 0.1819 -0.0000 0.9833
vn -0.1819 -0.0000 -0.9833
vn -0.4738 -0.1456 -0.8685
vn -0.3685 -0.4146 -0.8321
vn -0.8041 -0.4146 0.4261
vn -0.9094 -0.1456 0.3896
vn -0.1740 -0.6204 -0.7647
vn -0.6095 -0.6204 0.4935
vn 0.0802 -0.7319 -0.6767
vn -0.3554 -0.7319 0.5815
vn 0.3554 -0.7319 -0.5815
vn -0.0802 -0.7319 0.6767
vn 0.6095 -0.6204 -0.4935
vn 0.1740 -0.6204 0.7647
vn 0.8041 -0.4146 -0.4261
vn 0.3685 -0.4146 0.8321
vn 0.9094 -0.1456 -0.3897
vn 0.4738 -0.1456 0.8685
vn 0.9094 0.1456 -0.3897
vn 0.4738 0.1456 0.8685
vn 0.8041 0.4146 -0.4261
vn 0.3685 0.4146 0.8321
vn 0.6096 0.6204 -0.4935
vn 0.1740 0.6204 0.7647
vn 0.3554 0.7319 -0.5815
vn -0.0802 0.7319 0.6767
vn 0.0802 0.7319 -0.6767
vn -0.3554 0.7319 0.5815
vn -0.1740 0.6204 -0.7647
vn -0.6096 0.6204 0.4935
vn -0.3685 0.4146 -0.8321
vn -0.8041 0.4146 0.4261
vn -0.4738 0.1456 -0.8685
vn -0.9094 0.1456 0.3896
vn -0.3272 -0.0000 0.9450
vn 0.3272 -0.0000 -0.9450
vn 0.3271 -0.0000 -0.9450
vn -0.7319 -0.1456 -0.6657
vn -0.6204 -0.4146 -0.6657
vn -0.6204 -0.4146 0.6657
vn -0.7319 -0.1456 0.6657
vn -0.4146 -0.6204 -0.6657
vn -0.4146 -0.6204 0.6657
vn -0.1456 -0.7319 -0.6657
vn -0.1456 -0.7319 0.6657
vn 0.1456 -0.7319 -0.6657
vn 0.1456 -0.7319 0.6657
vn 0.4146 -0.6204 -0.6657
vn 0.4146 -0.6204 0.6657
vn 0.6204 -0.4146 -0.6657
vn 0.6204 -0.4146 0.6657
vn 0.7319 -0.1456 -0.6657
vn 0.7319 -0.1456 0.6657
vn 0.7319 0.1456 -0.6657
vn 0.7319 0.1456 0.6657
vn 0.6204 0.4146 -0.6657
vn 0.6204 0.4146 0.6657
vn 0.4146 0.6204 -0.6657
vn 0.4146 0.6204 0.6657
vn 0.1456 0.7319 -0.6657
vn 0.1456 0.7319 0.6657
vn -0.1456 0.7319 -0.6657
vn -0.1456 0.7319 0.6657
vn -0.4146 0.6204 -0.6657
vn -0.4146 0.6204 0.6657
vn -0.6204 0.4146 -0.6657
vn -0.6204 0.4146 0.6657
vn -0.7319 0.1456 -0.6657
vn -0.7319 0.1456 0.6657
vn -0.9480 -0.1456 -0.2830
vn -0.8476 -0.4146 -0.3313
vn -0.2708 -0.4146 0.8688
vn -0.3713 -0.1456 0.9170
vn -0.6620 -0.6204 -0.4204
vn -0.0853 -0.6204 0.7796
vn -0.4196 -0.7319 -0.5370
vn 0.1572 -0.7319 0.6631
vn -0.1572 -0.7319 -0.6631
vn 0.4196 -0.7319 0.5370
vn 0.0853 -0.6204 -0.7796
vn 0.6620 -0.6204 0.4204
vn 0.2708 -0.4146 -0.8688
vn 0.8476 -0.4146 0.3313
vn 0.3713 -0.1456 -0.9170
vn 0.9480 -0.1456 0.2830
vn 0.3713 0.1456 -0.9170
vn 0.9480 0.1456 0.2830
vn 0.2708 0.4146 -0.8688
vn 0.8476 0.4146 0.3313
vn 0.0853 0.6204 -0.7796
vn 0.6620 0.6204 0.4204
vn -0.1572 0.7319 -0.6631
vn 0.4196 0.7319 0.5370
vn -0.4196 0.7319 -0.5370
vn 0.1572 0.7319 0.6631
vn -0.6620 0.6204 -0.4204
vn -0.0853 0.6204 0.7796
vn -0.8476 0.4146 -0.3313
vn -0.2708 0.4146 0.8688
vn -0.9480 0.1456 -0.2830
vn -0.3713 0.1456 0.9170
vn 0.4332 -0.0000 0.9013
vn -0.4332 -0.0000 -0.9013
vn -0.6145 -0.1456 -0.7754
vn -0.5046 -0.4146 -0.7573
vn -0.7200 -0.4146 0.5566
vn -0.8299 -0.1456 0.5386
vn -0.3014 -0.6204 -0.7240
vn -0.5168 -0.6204 0.5899
vn -0.0360 -0.7319 -0.6805
vn -0.2514 -0.7319 0.6334
vn 0.2514 -0.7319 -0.6334
vn 0.0360 -0.7319 0.6805
vn 0.5168 -0.6204 -0.5899
vn 0.3014 -0.6204 0.7240
vn 0.7200 -0.4146 -0.5566
vn 0.5046 -0.4146 0.7573
vn 0.8299 -0.1456 -0.5386
vn 0.6145 -0.1456 0.7754
vn 0.8299 0.1456 -0.5386
vn 0.6145 0.1456 0.7754
vn 0.7200 0.4146 -0.5566
vn 0.5046 0.4146 0.7573
vn 0.5168 0.6204 -0.5899
vn 0.3014 0.6204 0.7240
vn 0.2514 0.7319 -0.6334
vn 0.0360 0.7319 0.6805
vn -0.0360 0.7319 -0.6805
vn -0.2514 0.7319 0.6334
vn -0.3014 0.6204 -0.7240
vn -0.5168 0.6204 0.5899
vn -0.5046 0.4146 -0.7573
vn -0.7200 0.4146 0.5566
vn -0.6145 0.1456 -0.7754
vn -0.8299 0.1456 0.5386
vn -0.1618 -0.0000 0.9868
vn 0.1618 -0.0000 -0.9868
vn -0.9034 -0.1456 -0.4034
vn -0.7975 -0.4146 -0.4382
vn -0.3811 -0.4146 0.8264
vn -0.4869 -0.1456 0.8612
vn -0.6020 -0.6204 -0.5026
vn -0.1855 -0.6204 0.7620
vn -0.3465 -0.7319 -0.5868
vn 0.0700 -0.7319 0.6779
vn -0.0700 -0.7319 -0.6778
vn 0.3465 -0.7319 0.5868
vn 0.1855 -0.6204 -0.7620
vn 0.6020 -0.6204 0.5026
vn 0.3811 -0.4146 -0.8264
vn 0.7975 -0.4146 0.4382
vn 0.4869 -0.1456 -0.8612
vn 0.9034 -0.1456 0.4034
vn 0.4869 0.1456 -0.8612
vn 0.9034 0.1456 0.4034
vn 0.3811 0.4146 -0.8264
vn 0.7976 0.4146 0.4382
vn 0.1855 0.6204 -0.7620
vn 0.6020 0.6204 0.5026
vn -0.0700 0.7319 -0.6778
vn 0.3465 0.7319 0.5868
vn -0.3465 0.7319 -0.5868
vn 0.0700 0.7319 0.6779
vn -0.6020 0.6204 -0.5026
vn -0.1855 0.6204 0.7620
vn -0.7976 0.4146 -0.4382
vn -0.3811 0.4146 0.8264
vn -0.9034 0.1456 -0.4034
vn -0.4869 0.1456 0.8612
vn 0.3128 -0.0000 0.9498
vn -0.3128 -0.0000 -0.9498
vn -0.5319 -0.1456 -0.8342
vn -0.4243 -0.4146 -0.8050
vn -0.7732 -0.4146 0.4799
vn -0.8807 -0.1456 0.4507
vn -0.2257 -0.6204 -0.7511
vn -0.5745 -0.6204 0.5338
vn 0.0339 -0.7319 -0.6806
vn -0.3149 -0.7319 0.6043
vn 0.3149 -0.7319 -0.6043
vn -0.0339 -0.7319 0.6806
vn 0.5745 -0.6204 -0.5338
vn 0.2257 -0.6204 0.7511
vn 0.7732 -0.4146 -0.4799
vn 0.4243 -0.4146 0.8050
vn 0.8807 -0.1456 -0.4507
vn 0.5319 -0.1456 0.8342
vn 0.8807 0.1456 -0.4507
vn 0.5319 0.1456 0.8342
vn 0.7732 0.4146 -0.4799
vn 0.4244 0.4146 0.8050
vn 0.5745 0.6204 -0.5338
vn 0.2257 0.6204 0.7511
vn 0.3149 0.7319 -0.6043
vn -0.0339 0.7319 0.6806
vn 0.0339 0.7319 -0.6806
vn -0.3149 0.7319 0.6043
vn -0.2257 0.6204 -0.7511
vn -0.5745 0.6204 0.5338
vn -0.4244 0.4146 -0.8050
vn -0.7732 0.4146 0.4799
vn -0.5319 0.1456 -0.8342
vn -0.8807 0.1456 0.4507
vn -0.2620 -0.0000 0.9651
vn 0.2620 -0.0000 -0.9651
vn -0.0151 -0.0000 -0.9999
vn -0.0000 0.5103 0.8600
vn -0.0148 -0.0098 -0.9998
vn -0.0154 0.0121 -0.9998
vn 0.0588 -0.9983 -0.0000
vn -0.0588 0.9983 -0.0000
vn -0.0718 0.9974 0.0051
vn 0.0256 -0.4900 0.8713
vn -0.0585 0.9972 -0.0472
vn -0.0399 -0.0000 0.9992
vn -0.0356 0.0281 0.9990
vn -0.0443 -0.0292 0.9986
vn 0.0136 -0.1685 -0.9856
vn -0.0000 0.2529 0.9675
vn 0.0022 -1.0000 -0.0000
vn -0.0083 0.7316 0.6817
vn -0.0101 0.1907 0.9816
vt 0.889944 0.875061
vt 0.892022 0.875061
vt 0.892022 0.943673
vt 0.889944 0.943673
vt 0.853428 0.875061
vt 0.857716 0.875061
vt 0.857716 0.943673
vt 0.853428 0.943673
vt 0.838419 0.875061
vt 0.840563 0.875061
vt 0.840563 0.943673
vt 0.838419 0.943673
vt 0.872733 0.875061
vt 0.874878 0.875061
vt 0.874878 0.943673
vt 0.872733 0.943673
vt 0.829843 0.875061
vt 0.831987 0.875061
vt 0.831987 0.943673
vt 0.829843 0.943673
vt 0.846996 0.875061
vt 0.849140 0.875061
vt 0.849140 0.943673
vt 0.846996 0.943673
vt 0.864152 0.875061
vt 0.866297 0.875061
vt 0.866297 0.943673
vt 0.864152 0.943673
vt 0.882379 0.875061
vt 0.883450 0.875061
vt 0.883450 0.943673
vt 0.882379 0.943673
vt 0.825555 0.875061
vt 0.827699 0.875061
vt 0.827699 0.943673
vt 0.825555 0.943673
vt 0.834131 0.875061
vt 0.836275 0.875061
vt 0.836275 0.943673
vt 0.834131 0.943673
vt 0.842708 0.875061
vt 0.844852 0.875061
vt 0.844852 0.943673
vt 0.842708 0.943673
vt 0.851284 0.875061
vt 0.851284 0.943673
vt 0.859861 0.875061
vt 0.862007 0.875061
vt 0.862007 0.943673
vt 0.859861 0.943673
vt 0.868442 0.875061
vt 0.870587 0.875061
vt 0.870587 0.943673
vt 0.868442 0.943673
vt 0.877021 0.875061
vt 0.879164 0.875061
vt 0.879164 0.943673
vt 0.877021 0.943673
vt 0.887736 0.875061
vt 0.887736 0.943673
vt 0.823410 0.875061
vt 0.823410 0.943673
vt 0.881307 0.875061
vt 0.881307 0.943673
vt 0.056007 0.782192
vt 0.056263 0.783915
vt 0.055401 0.785021
vt 0.055028 0.782838
vt 0.081698 0.778657
vt 0.080872 0.777362
vt 0.081632 0.777308
vt 0.082729 0.778228
vt 0.082103 0.773367
vt 0.082055 0.777002
vt 0.079561 0.777112
vt 0.080382 0.778750
vt 0.053163 0.776939
vt 0.052835 0.774898
vt 0.056551 0.783060
vt 0.056911 0.782220
vt 0.081760 0.770751
vt 0.080967 0.780136
vt 0.082082 0.779799
vt 0.083758 0.780019
vt 0.057438 0.780670
vt 0.056455 0.780771
vt 0.053594 0.779649
vt 0.055860 0.780547
vt 0.064163 0.778386
vt 0.057062 0.779279
vt 0.056510 0.779158
vt 0.064251 0.777877
vt 0.180089 0.000814
vt 0.180089 0.212115
vt 0.002552 0.212115
vt 0.002552 0.000814
vt 0.063600 0.779577
vt 0.058043 0.778968
vt 0.054755 0.782921
vt 0.075682 0.778363
vt 0.075057 0.777396
vt 0.578622 0.000774
vt 0.578622 0.226840
vt 0.432718 0.226840
vt 0.432718 0.000774
vt 0.074890 0.776805
vt 0.073968 0.777319
vt 0.074984 0.777752
vt 0.074097 0.777614
vt 0.065129 0.777858
vt 0.065734 0.778509
vt 0.065108 0.779196
vt 0.065028 0.778390
vt 0.073999 0.777089
vt 0.082108 0.773235
vt 0.083078 0.775369
vt 0.061788 0.789111
vt 0.061401 0.790573
vt 0.053310 0.782171
vt 0.052615 0.779235
vt 0.052458 0.776702
vt 0.082383 0.769028
vt 0.082937 0.772202
vt 0.051854 0.773783
vt 0.053538 0.779545
vt 0.052677 0.779219
vt 0.073378 0.777698
vt 0.149244 0.203630
vt 0.149244 0.001088
vt 0.286614 0.001088
vt 0.286614 0.203630
vt 0.064961 0.777117
vt 0.061277 0.788560
vt 0.064389 0.779544
vt 0.062811 0.788825
vt 0.079576 0.786473
vt 0.078217 0.788194
vt 0.077939 0.787655
vt 0.079197 0.786014
vt 0.083724 0.774300
vt 0.052412 0.781584
vt 0.061187 0.791231
vt 0.082851 0.772299
vt 0.062692 0.791959
vt 0.062811 0.791303
vt 0.078445 0.784941
vt 0.063069 0.789852
vt 0.077340 0.786439
vt 0.074930 0.778465
vt 0.074083 0.778300
vt 0.077449 0.785336
vt 0.075866 0.786631
vt 0.064270 0.778754
vt 0.064656 0.789189
vt 0.065940 0.788955
vt 0.078756 0.784119
vt 0.074703 0.787232
vt 0.046612 0.754207
vt 0.047132 0.753775
vt 0.047983 0.753445
vt 0.046922 0.755425
vt 0.084543 0.746730
vt 0.084659 0.746822
vt 0.084296 0.746783
vt 0.084602 0.746607
vt 0.083612 0.771353
vt 0.084689 0.746944
vt 0.085397 0.746096
vt 0.085397 0.772622
vt 0.051854 0.776620
vt 0.045674 0.754961
vt 0.045019 0.756637
vt 0.051797 0.774566
vt 0.082808 0.769276
vt 0.084401 0.747308
vt 0.084367 0.746570
vt 0.084956 0.746090
vt 0.045868 0.753904
vt 0.046627 0.753775
vt 0.051742 0.778815
vt 0.047139 0.753640
vt 0.059107 0.748439
vt 0.059377 0.749882
vt 0.047683 0.752990
vt 0.046582 0.752997
vt 0.440785 0.151165
vt 0.295340 0.151165
vt 0.295340 0.005825
vt 0.440785 0.005825
vt 0.058394 0.746465
vt 0.045160 0.752711
vt 0.050273 0.780805
vt 0.074036 0.746637
vt 0.074354 0.744869
vt 0.519423 0.014390
vt 0.705070 0.014390
vt 0.705070 0.191196
vt 0.519423 0.191196
vt 0.073980 0.747988
vt 0.072628 0.746692
vt 0.072803 0.745920
vt 0.073839 0.745863
vt 0.060476 0.748271
vt 0.060176 0.747453
vt 0.059983 0.746361
vt 0.060643 0.746534
vt 0.072671 0.747975
vt 0.084247 0.773292
vt 0.083533 0.771525
vt 0.051615 0.780939
vt 0.060927 0.791898
vt 0.060156 0.793016
vt 0.051876 0.778884
vt 0.072282 0.745057
vt 0.331563 0.201697
vt 0.144550 0.201697
vt 0.144550 -0.000650
vt 0.331563 -0.000650
vt 0.060637 0.749735
vt 0.059307 0.732989
vt 0.059978 0.733002
vt 0.059254 0.746328
vt 0.079996 0.786917
vt 0.078492 0.788804
vt 0.062606 0.792680
vt 0.080985 0.787433
vt 0.062840 0.794331
vt 0.078725 0.790454
vt 0.073670 0.744839
vt 0.072908 0.744909
vt 0.072928 0.733390
vt 0.072277 0.733461
vt 0.059194 0.747538
vt 0.060601 0.733067
vt 0.061265 0.733192
vt 0.073503 0.733361
vt 0.071707 0.733559
vt 0.737303 0.190713
vt 0.734659 0.190713
vt 0.734659 0.190247
vt 0.737303 0.190247
vt 0.733338 0.190713
vt 0.732016 0.190713
vt 0.732016 0.190247
vt 0.733338 0.190247
vt 0.729372 0.190713
vt 0.729372 0.190247
vt 0.726728 0.190713
vt 0.726728 0.190247
vt 0.724085 0.190713
vt 0.724085 0.190247
vt 0.721441 0.190713
vt 0.721441 0.190247
vt 0.718797 0.190713
vt 0.718797 0.190247
vt 0.716154 0.190713
vt 0.716154 0.190247
vt 0.713510 0.190713
vt 0.713510 0.190247
vt 0.710867 0.190713
vt 0.710867 0.190247
vt 0.708223 0.190713
vt 0.708223 0.190247
vt 0.705579 0.190713
vt 0.705579 0.190247
vt 0.702936 0.190713
vt 0.702936 0.190247
vt 0.700292 0.190713
vt 0.700292 0.190247
vt 0.697648 0.190713
vt 0.697648 0.190247
vt 0.708223 0.189824
vt 0.704338 0.189051
vt 0.701045 0.186850
vt 0.698844 0.183557
vt 0.698071 0.179672
vt 0.698844 0.175787
vt 0.701045 0.172494
vt 0.704338 0.170293
vt 0.708223 0.169520
vt 0.712108 0.170293
vt 0.715401 0.172494
vt 0.717602 0.175787
vt 0.718374 0.179672
vt 0.717602 0.183557
vt 0.716501 0.185204
vt 0.715401 0.186850
vt 0.712108 0.189051
vt 0.729372 0.189824
vt 0.733257 0.189051
vt 0.736550 0.186850
vt 0.737651 0.185204
vt 0.738751 0.183557
vt 0.739524 0.179672
vt 0.738751 0.175787
vt 0.736550 0.172494
vt 0.733257 0.170293
vt 0.729372 0.169520
vt 0.725487 0.170293
vt 0.722194 0.172494
vt 0.719993 0.175787
vt 0.719220 0.179672
vt 0.719993 0.183557
vt 0.722194 0.186850
vt 0.725487 0.189051
vt 0.739947 0.190713
vt 0.739947 0.190247
vt 0.739947 0.210935
vt 0.737303 0.210935
vt 0.700292 0.210935
vt 0.697648 0.210935
vt 0.702936 0.210935
vt 0.705579 0.210935
vt 0.708223 0.210935
vt 0.710867 0.210935
vt 0.713510 0.210935
vt 0.716154 0.210935
vt 0.718797 0.210935
vt 0.721441 0.210935
vt 0.724085 0.210935
vt 0.726728 0.210935
vt 0.729372 0.210935
vt 0.732016 0.210935
vt 0.733338 0.210935
vt 0.734659 0.210935
vt 0.737303 0.211396
vt 0.734659 0.211396
vt 0.733338 0.211396
vt 0.732016 0.211396
vt 0.729372 0.211396
vt 0.726728 0.211396
vt 0.724085 0.211396
vt 0.721441 0.211396
vt 0.718797 0.211396
vt 0.716154 0.211396
vt 0.713510 0.211396
vt 0.710867 0.211396
vt 0.708223 0.211396
vt 0.705579 0.211396
vt 0.702936 0.211396
vt 0.700292 0.211396
vt 0.697648 0.211396
vt 0.739947 0.211396
vt 0.322856 0.168061
vt 0.321704 0.168532
vt 0.321332 0.167551
vt 0.322814 0.167013
vt 0.320684 0.169582
vt 0.320051 0.168887
vt 0.320000 0.171185
vt 0.319236 0.170851
vt 0.319834 0.173023
vt 0.319005 0.173084
vt 0.320136 0.174806
vt 0.319397 0.175256
vt 0.320935 0.176200
vt 0.320376 0.177054
vt 0.321993 0.177060
vt 0.321775 0.178090
vt 0.323182 0.177236
vt 0.323288 0.178279
vt 0.324347 0.176765
vt 0.324743 0.177686
vt 0.325345 0.175674
vt 0.325981 0.176339
vt 0.325995 0.174082
vt 0.326766 0.174379
vt 0.326169 0.172256
vt 0.326960 0.172194
vt 0.325830 0.170522
vt 0.326580 0.170055
vt 0.325092 0.169107
vt 0.325625 0.168296
vt 0.324048 0.168220
vt 0.324294 0.167261
vt 0.320668 0.166085
vt 0.322685 0.165185
vt 0.322881 0.169036
vt 0.321962 0.169418
vt 0.319079 0.167960
vt 0.321169 0.170277
vt 0.318170 0.170428
vt 0.320650 0.171510
vt 0.317996 0.173053
vt 0.320515 0.172924
vt 0.318254 0.175750
vt 0.320758 0.174300
vt 0.319357 0.178270
vt 0.321362 0.175410
vt 0.321234 0.180112
vt 0.322208 0.176096
vt 0.323468 0.180112
vt 0.323159 0.176250
vt 0.325433 0.179105
vt 0.324079 0.175867
vt 0.326951 0.177222
vt 0.324853 0.174997
vt 0.327815 0.174771
vt 0.325352 0.173755
vt 0.327950 0.172211
vt 0.325489 0.172353
vt 0.327693 0.169576
vt 0.325234 0.170999
vt 0.326624 0.167139
vt 0.324652 0.169884
vt 0.324859 0.165315
vt 0.323825 0.169194
vt 0.293581 0.183454
vt 0.292386 0.183648
vt 0.292105 0.182647
vt 0.293636 0.182363
vt 0.291272 0.184503
vt 0.290730 0.183718
vt 0.290442 0.185910
vt 0.289727 0.185435
vt 0.290030 0.187679
vt 0.289232 0.187551
vt 0.290159 0.189513
vt 0.289343 0.189825
vt 0.290739 0.191107
vt 0.290113 0.191789
vt 0.291717 0.192127
vt 0.291353 0.193100
vt 0.292849 0.192558
vt 0.292825 0.193598
vt 0.294051 0.192355
vt 0.294301 0.193317
vt 0.295147 0.191471
vt 0.295651 0.192281
vt 0.295970 0.190067
vt 0.296667 0.190595
vt 0.296365 0.188319
vt 0.297194 0.188466
vt 0.296312 0.186478
vt 0.297093 0.186198
vt 0.295701 0.184899
vt 0.296352 0.184234
vt 0.294735 0.183843
vt 0.295126 0.182908
vt 0.291582 0.181090
vt 0.293692 0.180490
vt 0.293492 0.184409
vt 0.292538 0.184590
vt 0.289881 0.182681
vt 0.291671 0.185275
vt 0.288824 0.184900
vt 0.291031 0.186377
vt 0.288136 0.187321
vt 0.290723 0.187735
vt 0.288143 0.190104
vt 0.290817 0.189153
vt 0.288975 0.192783
vt 0.291275 0.190390
vt 0.290591 0.194973
vt 0.292030 0.191240
vt 0.292792 0.195424
vt 0.292943 0.191592
vt 0.294810 0.194825
vt 0.293888 0.191407
vt 0.296475 0.193317
vt 0.294743 0.190712
vt 0.297562 0.191152
vt 0.295382 0.189607
vt 0.298291 0.188712
vt 0.295695 0.188247
vt 0.298291 0.185937
vt 0.295632 0.186835
vt 0.297497 0.183271
vt 0.295174 0.185608
vt 0.295918 0.181036
vt 0.294416 0.184757
vt 0.322693 0.183389
vt 0.321526 0.183858
vt 0.321145 0.182931
vt 0.322613 0.182317
vt 0.320552 0.185015
vt 0.319892 0.184318
vt 0.319920 0.186631
vt 0.319124 0.186349
vt 0.319770 0.188469
vt 0.318965 0.188586
vt 0.320122 0.190218
vt 0.319401 0.190713
vt 0.320901 0.191629
vt 0.320381 0.192425
vt 0.321984 0.192405
vt 0.321747 0.193430
vt 0.323160 0.192583
vt 0.323247 0.193600
vt 0.324304 0.192054
vt 0.324690 0.193000
vt 0.325304 0.190976
vt 0.325918 0.191638
vt 0.325923 0.189345
vt 0.326691 0.189681
vt 0.326085 0.187523
vt 0.326891 0.187478
vt 0.325743 0.185774
vt 0.326494 0.185334
vt 0.324954 0.184396
vt 0.325515 0.183556
vt 0.323892 0.183531
vt 0.324130 0.182534
vt 0.320437 0.181484
vt 0.322442 0.180469
vt 0.322741 0.184370
vt 0.321816 0.184773
vt 0.318888 0.183432
vt 0.321052 0.185671
vt 0.318042 0.185983
vt 0.320566 0.186931
vt 0.317964 0.188613
vt 0.320453 0.188350
vt 0.318298 0.191235
vt 0.320724 0.189714
vt 0.319403 0.193620
vt 0.321330 0.190810
vt 0.321225 0.195417
vt 0.322177 0.191464
vt 0.323429 0.195417
vt 0.323119 0.191592
vt 0.325384 0.194408
vt 0.324030 0.191179
vt 0.326889 0.192512
vt 0.324799 0.190299
vt 0.327742 0.190071
vt 0.325282 0.189049
vt 0.327886 0.187495
vt 0.325404 0.187638
vt 0.327620 0.184838
vt 0.325141 0.186280
vt 0.326522 0.182356
vt 0.324534 0.185182
vt 0.324678 0.180525
vt 0.323693 0.184510
vt 0.293065 0.168452
vt 0.291855 0.168859
vt 0.291462 0.167872
vt 0.293024 0.167349
vt 0.290803 0.169965
vt 0.290143 0.169268
vt 0.290138 0.171607
vt 0.289337 0.171306
vt 0.289966 0.173461
vt 0.289150 0.173568
vt 0.290309 0.175225
vt 0.289576 0.175727
vt 0.291089 0.176632
vt 0.290567 0.177475
vt 0.292150 0.177468
vt 0.291939 0.178481
vt 0.293325 0.177634
vt 0.293431 0.178662
vt 0.294476 0.177165
vt 0.294866 0.178074
vt 0.295466 0.176087
vt 0.296089 0.176747
vt 0.296120 0.174501
vt 0.296867 0.174820
vt 0.296282 0.172702
vt 0.297086 0.172648
vt 0.296005 0.170965
vt 0.296720 0.170547
vt 0.295259 0.169589
vt 0.295817 0.168809
vt 0.294252 0.168679
vt 0.294539 0.167715
vt 0.290717 0.166322
vt 0.292907 0.165185
vt 0.293072 0.169444
vt 0.292114 0.169802
vt 0.289118 0.168348
vt 0.291303 0.170671
vt 0.288244 0.170917
vt 0.290789 0.171925
vt 0.288136 0.173577
vt 0.290657 0.173349
vt 0.288453 0.176250
vt 0.290919 0.174723
vt 0.289579 0.178684
vt 0.291520 0.175836
vt 0.291417 0.180465
vt 0.292359 0.176513
vt 0.293610 0.180465
vt 0.293299 0.176663
vt 0.295546 0.179473
vt 0.294209 0.176277
vt 0.297043 0.177620
vt 0.294980 0.175415
vt 0.297903 0.175218
vt 0.295480 0.174188
vt 0.298061 0.172675
vt 0.295616 0.172792
vt 0.297811 0.170086
vt 0.295395 0.171438
vt 0.296777 0.167708
vt 0.294828 0.170338
vt 0.295090 0.166001
vt 0.294023 0.169636
vt 0.313916 0.198830
vt 0.312673 0.198613
vt 0.312578 0.197494
vt 0.314193 0.197771
vt 0.311385 0.199131
vt 0.310962 0.198158
vt 0.310313 0.200328
vt 0.309653 0.199666
vt 0.309660 0.201975
vt 0.308875 0.201674
vt 0.309473 0.203793
vt 0.308671 0.203865
vt 0.309841 0.205461
vt 0.309099 0.205982
vt 0.310583 0.206754
vt 0.310108 0.207592
vt 0.311624 0.207484
vt 0.311438 0.208477
vt 0.312821 0.207623
vt 0.312909 0.208625
vt 0.314025 0.207076
vt 0.314384 0.208006
vt 0.315041 0.205958
vt 0.315644 0.206665
vt 0.315750 0.204416
vt 0.316486 0.204783
vt 0.315968 0.202627
vt 0.316771 0.202616
vt 0.315673 0.200952
vt 0.316412 0.200539
vt 0.314953 0.199632
vt 0.315521 0.198871
vt 0.312306 0.195674
vt 0.314687 0.195674
vt 0.313648 0.199762
vt 0.312653 0.199623
vt 0.310253 0.196804
vt 0.311657 0.200036
vt 0.308743 0.198784
vt 0.310833 0.200956
vt 0.307935 0.201193
vt 0.310321 0.202218
vt 0.307490 0.203794
vt 0.310185 0.203615
vt 0.307845 0.206622
vt 0.310446 0.204936
vt 0.309080 0.209187
vt 0.311039 0.205975
vt 0.311119 0.210226
vt 0.311867 0.206574
vt 0.313158 0.210227
vt 0.312814 0.206659
vt 0.315015 0.209245
vt 0.313757 0.206226
vt 0.316415 0.207451
vt 0.314560 0.205341
vt 0.317487 0.205331
vt 0.315103 0.204138
vt 0.317940 0.202716
vt 0.315272 0.202765
vt 0.317621 0.199980
vt 0.315051 0.201455
vt 0.316520 0.197534
vt 0.314486 0.200408
vt 0.313462 0.168427
vt 0.312225 0.168603
vt 0.311942 0.167555
vt 0.313537 0.167334
vt 0.311069 0.169497
vt 0.310492 0.168682
vt 0.310235 0.170994
vt 0.309475 0.170544
vt 0.309866 0.172795
vt 0.309047 0.172745
vt 0.310015 0.174608
vt 0.309235 0.174965
vt 0.310637 0.176152
vt 0.310027 0.176887
vt 0.311598 0.177186
vt 0.311279 0.178150
vt 0.312746 0.177580
vt 0.312739 0.178619
vt 0.313937 0.177335
vt 0.314227 0.178312
vt 0.315034 0.176450
vt 0.315585 0.177223
vt 0.315849 0.174995
vt 0.316560 0.175449
vt 0.316191 0.173237
vt 0.317000 0.173321
vt 0.316082 0.171475
vt 0.316844 0.171155
vt 0.315516 0.169952
vt 0.316123 0.169285
vt 0.314606 0.168871
vt 0.314989 0.167980
vt 0.311375 0.165885
vt 0.313653 0.165185
vt 0.313365 0.169405
vt 0.312383 0.169582
vt 0.309578 0.167578
vt 0.311488 0.170290
vt 0.308436 0.169950
vt 0.310845 0.171432
vt 0.308042 0.172560
vt 0.310561 0.172816
vt 0.308066 0.175267
vt 0.310673 0.174226
vt 0.308917 0.177894
vt 0.311151 0.175444
vt 0.310545 0.180017
vt 0.311910 0.176279
vt 0.312719 0.180444
vt 0.312826 0.176611
vt 0.314752 0.179833
vt 0.313768 0.176405
vt 0.316442 0.178274
vt 0.314621 0.175693
vt 0.317554 0.176038
vt 0.315246 0.174570
vt 0.317971 0.173520
vt 0.315520 0.173208
vt 0.317971 0.170886
vt 0.315436 0.171819
vt 0.317176 0.168375
vt 0.315000 0.170616
vt 0.315708 0.166404
vt 0.314280 0.169772
vt 0.322921 0.198304
vt 0.321784 0.198793
vt 0.321409 0.197828
vt 0.322875 0.197266
vt 0.320783 0.199841
vt 0.320160 0.199166
vt 0.320109 0.201411
vt 0.319357 0.201060
vt 0.319925 0.203241
vt 0.319086 0.203283
vt 0.320221 0.205058
vt 0.319473 0.205516
vt 0.321031 0.206463
vt 0.320470 0.207322
vt 0.322092 0.207325
vt 0.321873 0.208348
vt 0.323290 0.207513
vt 0.323369 0.208534
vt 0.324444 0.206997
vt 0.324825 0.207952
vt 0.325455 0.205928
vt 0.326069 0.206603
vt 0.326078 0.204308
vt 0.326863 0.204637
vt 0.326262 0.202494
vt 0.327054 0.202429
vt 0.325927 0.200737
vt 0.326670 0.200307
vt 0.325154 0.199359
vt 0.325714 0.198539
vt 0.324112 0.198481
vt 0.324356 0.197506
vt 0.320731 0.196394
vt 0.322729 0.195441
vt 0.322962 0.199289
vt 0.322043 0.199670
vt 0.319206 0.198296
vt 0.321264 0.200526
vt 0.318395 0.200700
vt 0.320751 0.201740
vt 0.317964 0.203275
vt 0.320610 0.203152
vt 0.318307 0.206053
vt 0.320852 0.204547
vt 0.319461 0.208556
vt 0.321461 0.205669
vt 0.321341 0.210357
vt 0.322308 0.206357
vt 0.323546 0.210357
vt 0.323259 0.206510
vt 0.325510 0.209376
vt 0.324176 0.206116
vt 0.327042 0.207497
vt 0.324951 0.205244
vt 0.327920 0.205031
vt 0.325441 0.203991
vt 0.328047 0.202441
vt 0.325580 0.202585
vt 0.327782 0.199825
vt 0.325327 0.201232
vt 0.326715 0.197370
vt 0.324731 0.200131
vt 0.324916 0.195542
vt 0.323904 0.199446
vt 0.303526 0.168440
vt 0.302287 0.168608
vt 0.302011 0.167558
vt 0.303611 0.167341
vt 0.301114 0.169498
vt 0.300562 0.168680
vt 0.300306 0.171034
vt 0.299529 0.170551
vt 0.299932 0.172833
vt 0.299103 0.172787
vt 0.300088 0.174653
vt 0.299306 0.175020
vt 0.300721 0.176194
vt 0.300115 0.176938
vt 0.301690 0.177214
vt 0.301379 0.178182
vt 0.302839 0.177589
vt 0.302841 0.178627
vt 0.304027 0.177329
vt 0.304323 0.178299
vt 0.305115 0.176436
vt 0.305667 0.177199
vt 0.305918 0.174981
vt 0.306627 0.175427
vt 0.306253 0.173230
vt 0.307056 0.173313
vt 0.306147 0.171477
vt 0.306901 0.171166
vt 0.305591 0.169940
vt 0.306197 0.169314
vt 0.304661 0.168896
vt 0.305068 0.167998
vt 0.301446 0.165883
vt 0.303734 0.165185
vt 0.303428 0.169416
vt 0.302443 0.169592
vt 0.299646 0.167565
vt 0.301547 0.170301
vt 0.298479 0.169949
vt 0.300914 0.171459
vt 0.298085 0.172608
vt 0.300630 0.172852
vt 0.298131 0.175341
vt 0.300746 0.174266
vt 0.299011 0.177966
vt 0.301230 0.175480
vt 0.300662 0.180060
vt 0.301994 0.176303
vt 0.302838 0.180448
vt 0.302911 0.176620
vt 0.304858 0.179806
vt 0.303852 0.176402
vt 0.306526 0.178233
vt 0.304701 0.175686
vt 0.307614 0.176001
vt 0.305317 0.174561
vt 0.308017 0.173507
vt 0.305586 0.173202
vt 0.308017 0.170908
vt 0.305502 0.171818
vt 0.307249 0.168419
vt 0.305069 0.170619
vt 0.305796 0.166425
vt 0.304346 0.169783
vt 0.314050 0.182432
vt 0.315418 0.183362
vt 0.314923 0.184208
vt 0.313842 0.183409
vt 0.316442 0.185032
vt 0.315734 0.185563
vt 0.316933 0.187144
vt 0.316121 0.187300
vt 0.316840 0.189410
vt 0.316022 0.189140
vt 0.316106 0.191481
vt 0.315454 0.190831
vt 0.314870 0.192936
vt 0.314449 0.192003
vt 0.313376 0.193564
vt 0.313268 0.192523
vt 0.311877 0.193358
vt 0.312087 0.192349
vt 0.310546 0.192401
vt 0.311034 0.191568
vt 0.309537 0.190763
vt 0.310236 0.190233
vt 0.309043 0.188670
vt 0.309844 0.188517
vt 0.309150 0.186420
vt 0.309955 0.186673
vt 0.309884 0.184349
vt 0.310560 0.185034
vt 0.311125 0.182919
vt 0.311510 0.183864
vt 0.312569 0.182279
vt 0.312650 0.183308
vt 0.314518 0.185016
vt 0.313671 0.184384
vt 0.314534 0.180469
vt 0.316355 0.182139
vt 0.315146 0.186088
vt 0.317529 0.184455
vt 0.315446 0.187435
vt 0.317940 0.187067
vt 0.315365 0.188866
vt 0.317940 0.189728
vt 0.314915 0.190164
vt 0.317147 0.192325
vt 0.314150 0.191089
vt 0.315657 0.194389
vt 0.313216 0.191523
vt 0.313597 0.195650
vt 0.312268 0.191407
vt 0.311437 0.195094
vt 0.311436 0.190775
vt 0.309661 0.193604
vt 0.310820 0.189712
vt 0.308467 0.191351
vt 0.310521 0.188370
vt 0.308042 0.188749
vt 0.310607 0.186951
vt 0.308050 0.186092
vt 0.311074 0.185673
vt 0.308858 0.183480
vt 0.311819 0.184743
vt 0.310404 0.181489
vt 0.312727 0.184294
vt 0.312375 0.180473
vt 0.291927 0.197492
vt 0.293504 0.197225
vt 0.293423 0.198353
vt 0.292176 0.198484
vt 0.295104 0.197891
vt 0.294689 0.198854
vt 0.296395 0.199369
vt 0.295768 0.200033
vt 0.297179 0.201343
vt 0.296410 0.201690
vt 0.297401 0.203534
vt 0.296582 0.203492
vt 0.296984 0.205665
vt 0.296233 0.205163
vt 0.295986 0.207289
vt 0.295497 0.206489
vt 0.294643 0.208212
vt 0.294423 0.207183
vt 0.293128 0.208366
vt 0.293221 0.207336
vt 0.291615 0.207717
vt 0.292015 0.206766
vt 0.290357 0.206309
vt 0.290986 0.205644
vt 0.289545 0.204376
vt 0.290317 0.204050
vt 0.289309 0.202175
vt 0.290111 0.202258
vt 0.289706 0.200128
vt 0.290409 0.200575
vt 0.290614 0.198502
vt 0.291144 0.199301
vt 0.293428 0.199329
vt 0.292445 0.199433
vt 0.291476 0.195448
vt 0.293775 0.195448
vt 0.294419 0.199752
vt 0.295797 0.196555
vt 0.295244 0.200665
vt 0.297288 0.198490
vt 0.295750 0.201923
vt 0.298108 0.200849
vt 0.295881 0.203318
vt 0.298582 0.203445
vt 0.295623 0.204640
vt 0.298250 0.206286
vt 0.295029 0.205681
vt 0.297041 0.208886
vt 0.294187 0.206278
vt 0.294984 0.209999
vt 0.293232 0.206363
vt 0.292871 0.210021
vt 0.292284 0.205920
vt 0.290951 0.208976
vt 0.291483 0.205026
vt 0.289554 0.207079
vt 0.290964 0.203791
vt 0.288520 0.204886
vt 0.290808 0.202402
vt 0.288136 0.202227
vt 0.291036 0.201091
vt 0.288522 0.199526
vt 0.291611 0.200056
vt 0.289666 0.197162
s 1
f 59/1/1 2/2/2 4/3/2 60/4/3
f 25/5/4 5/6/5 6/7/6 26/8/7
f 43/9/8 8/10/9 7/11/9 44/12/10
f 61/13/11 9/14/12 10/15/12 62/16/13
f 37/17/14 12/18/15 11/19/15 38/20/14
f 47/21/16 13/22/17 14/23/18 48/24/16
f 51/25/19 16/26/20 15/27/20 52/28/19
f 63/29/21 17/30/22 18/31/23 64/32/21
f 40/33/24 20/34/25 19/35/25 39/36/24
f 36/37/26 21/38/27 22/39/28 35/40/29
f 42/41/30 24/42/31 23/43/31 41/44/30
f 46/45/32 25/5/4 26/8/7 45/46/33
f 50/47/34 28/48/35 27/49/35 49/50/34
f 54/51/36 29/52/37 30/53/38 53/54/39
f 56/55/40 32/56/41 31/57/41 55/58/40
f 17/30/22 33/59/42 34/60/43 18/31/23
f 12/18/15 36/37/26 35/40/29 11/19/15
f 20/34/25 37/17/14 38/20/14 19/35/25
f 1/61/44 40/33/24 39/36/24 3/62/44
f 8/10/9 42/41/30 41/44/30 7/11/9
f 21/38/27 43/9/8 44/12/10 22/39/28
f 13/22/17 46/45/32 45/46/33 14/23/18
f 24/42/31 47/21/16 48/24/16 23/43/31
f 5/6/5 50/47/34 49/50/34 6/7/6
f 28/48/35 51/25/19 52/28/19 27/49/35
f 16/26/20 54/51/36 53/54/39 15/27/20
f 9/14/12 56/55/40 55/58/40 10/15/12
f 32/56/41 57/63/45 58/64/45 31/57/41
f 33/59/42 59/1/1 60/4/3 34/60/43
f 29/52/37 61/13/11 62/16/13 30/53/38
f 57/63/45 63/29/21 64/32/21 58/64/45
s 0
f 83/65/46 76/66/46 66/67/46 80/68/46
f 79/69/47 77/70/47 69/71/47 73/72/47
f 100/73/48 99/74/48 72/75/48 75/76/48
f 101/77/46 98/78/46 70/79/46 82/80/46
f 97/81/49 100/73/49 75/76/49 71/82/49
f 78/83/49 79/69/49 73/72/49 65/84/49
f 71/82/50 75/76/50 79/69/50 78/83/50
f 75/76/51 72/75/51 77/70/51 79/69/51
f 82/80/46 70/79/46 76/66/46 83/65/46
f 89/85/50 82/80/50 83/65/50 90/86/50
f 103/87/49 101/77/49 82/80/49 89/85/49
f 90/86/49 83/65/49 80/68/49 87/88/49
f 112/89/49 86/90/49 84/91/49 110/92/49
f 113/93/49 102/94/49 85/95/49 111/96/49
f 111/97/52 85/98/52 86/90/52 112/89/52
f 86/90/53 90/86/53 87/88/53 84/91/53
f 102/99/54 103/87/54 89/85/54 85/98/54
f 85/98/55 89/85/55 90/86/55 86/90/55
f 72/75/52 92/100/52 93/101/52 77/70/52
f 99/102/49 104/103/49 92/104/49 72/105/49
f 77/70/49 93/101/49 91/106/49 69/71/49
f 96/107/56 93/101/56 133/108/56 132/109/56
f 108/110/57 107/111/57 137/112/57 139/113/57
f 93/101/49 96/107/49 94/114/49 91/106/49
f 99/74/58 100/73/58 122/115/58 121/116/58
f 102/99/58 113/117/58 129/118/58 123/119/58
f 88/120/49 81/121/49 101/77/49 103/87/49
f 67/122/49 74/123/49 100/73/49 97/81/49
f 81/121/46 68/124/46 98/78/46 101/77/46
f 88/120/59 103/87/59 124/125/59 117/126/59
f 95/127/52 107/111/52 108/110/52 96/107/52
f 105/128/49 109/129/49 107/130/49 95/131/49
f 96/107/49 108/110/49 106/132/49 94/114/49
f 113/133/46 111/97/46 136/134/46 140/135/46
f 108/110/49 112/89/49 110/92/49 106/132/49
f 114/136/49 119/137/49 126/138/49 125/139/49
f 115/140/49 114/136/49 125/139/49 121/116/49
f 118/141/60 117/126/60 124/125/60 123/119/60
f 128/142/49 118/141/49 123/119/49 129/118/49
f 116/143/61 115/140/61 121/116/61 122/115/61
f 119/137/49 120/144/49 127/145/49 126/138/49
f 120/144/49 128/142/49 129/118/49 127/145/49
f 104/146/58 99/74/58 121/116/58 125/139/58
f 100/73/62 74/123/62 116/143/62 122/115/62
f 103/87/58 102/99/58 123/119/58 124/125/58
f 109/147/58 105/148/58 126/138/58 127/145/58
f 131/149/63 130/150/63 132/109/63 133/108/63
f 134/151/49 135/152/49 130/150/49 131/149/49
f 137/112/64 136/134/64 138/153/64 139/113/64
f 141/154/49 140/135/49 136/134/49 137/112/49
f 112/89/65 108/110/65 139/113/65 138/153/65
f 107/111/57 109/155/57 141/154/57 137/112/57
f 93/101/57 92/100/57 131/149/57 133/108/57
f 95/127/46 96/107/46 132/109/46 130/150/46
f 92/100/57 104/156/57 134/151/57 131/149/57
f 111/97/46 112/89/46 138/153/46 136/134/46
f 105/157/46 95/127/46 130/150/46 135/152/46
f 156/158/46 154/159/46 143/160/46 150/161/46
f 153/162/47 148/163/47 144/164/47 151/165/47
f 172/166/48 149/167/48 147/168/48 171/169/48
f 173/170/46 155/171/46 145/172/46 170/173/46
f 169/174/49 146/175/49 149/167/49 172/166/49
f 152/176/49 142/177/49 148/163/49 153/162/49
f 146/175/66 152/176/66 153/162/66 149/167/66
f 149/167/67 153/162/67 151/165/67 147/168/67
f 155/171/46 156/158/46 150/161/46 145/172/46
f 161/178/66 162/179/66 156/158/66 155/171/66
f 175/180/49 161/178/49 155/171/49 173/170/49
f 162/179/49 160/181/49 154/159/49 156/158/49
f 184/182/49 182/183/49 157/184/49 159/185/49
f 185/186/49 183/187/49 158/188/49 174/189/49
f 183/190/68 184/182/68 159/185/68 158/191/68
f 159/185/53 157/184/53 160/181/53 162/179/53
f 174/192/54 158/191/54 161/178/54 175/180/54
f 158/191/69 159/185/69 162/179/69 161/178/69
f 147/168/68 151/165/68 165/193/68 164/194/68
f 171/195/49 147/196/49 164/197/49 176/198/49
f 151/165/49 144/164/49 163/199/49 165/193/49
f 168/200/70 196/201/70 197/202/70 165/193/70
f 180/203/57 203/204/57 201/205/57 179/206/57
f 165/193/49 163/199/49 166/207/49 168/200/49
f 171/169/71 186/208/71 187/209/71 172/166/71
f 174/192/71 188/210/71 193/211/71 185/212/71
f 88/120/49 175/180/49 173/170/49 81/121/49
f 67/122/49 169/174/49 172/166/49 74/123/49
f 81/121/46 173/170/46 170/173/46 68/124/46
f 88/120/59 117/126/59 189/213/59 175/180/59
f 167/214/68 168/200/68 180/203/68 179/206/68
f 177/215/49 167/216/49 179/217/49 181/218/49
f 168/200/49 166/207/49 178/219/49 180/203/49
f 185/220/46 204/221/46 200/222/46 183/190/46
f 180/203/49 178/219/49 182/183/49 184/182/49
f 114/136/49 190/223/49 191/224/49 119/137/49
f 115/140/49 186/208/49 190/223/49 114/136/49
f 118/141/60 188/210/60 189/213/60 117/126/60
f 128/142/49 193/211/49 188/210/49 118/141/49
f 116/143/61 187/209/61 186/208/61 115/140/61
f 119/137/49 191/224/49 192/225/49 120/144/49
f 120/144/49 192/225/49 193/211/49 128/142/49
f 176/226/71 190/223/71 186/208/71 171/169/71
f 172/166/72 187/209/72 116/143/72 74/123/72
f 175/180/71 189/213/71 188/210/71 174/192/71
f 181/227/71 192/225/71 191/224/71 177/228/71
f 195/229/73 197/202/73 196/201/73 194/230/73
f 198/231/49 195/229/49 194/230/49 199/232/49
f 201/205/74 203/204/74 202/233/74 200/222/74
f 205/234/49 201/205/49 200/222/49 204/221/49
f 184/182/75 202/233/75 203/204/75 180/203/75
f 179/206/57 201/205/57 205/234/57 181/235/57
f 165/193/57 197/202/57 195/229/57 164/194/57
f 167/214/46 194/230/46 196/201/46 168/200/46
f 164/194/57 195/229/57 198/231/57 176/236/57
f 183/190/46 200/222/46 202/233/46 184/182/46
f 177/237/46 199/232/46 194/230/46 167/214/46
f 239/238/76 240/239/76 210/240/76 208/241/76
f 272/242/77 241/243/77 212/244/77 270/245/77
f 241/243/78 242/246/78 214/247/78 212/244/78
f 242/246/79 243/248/79 216/249/79 214/247/79
f 243/248/80 244/250/80 218/251/80 216/249/80
f 244/250/81 245/252/81 220/253/81 218/251/81
f 245/252/82 246/254/82 222/255/82 220/253/82
f 246/254/83 247/256/83 224/257/83 222/255/83
f 247/256/84 248/258/84 226/259/84 224/257/84
f 248/258/85 249/260/85 228/261/85 226/259/85
f 249/260/86 250/262/86 230/263/86 228/261/86
f 250/262/87 251/264/87 232/265/87 230/263/87
f 251/264/88 252/266/88 234/267/88 232/265/88
f 252/266/89 253/268/89 236/269/89 234/267/89
f 253/268/90 238/270/90 206/271/90 236/269/90
f 207/272/71 237/273/71 235/274/71 233/275/71 231/276/71 229/277/71 227/278/71 225/279/71 223/280/71 221/281/71 219/282/71 217/283/71 215/284/71 213/285/71 271/286/71 211/287/71 209/288/71
f 206/289/58 208/290/58 210/291/58 270/292/58 212/293/58 214/294/58 216/295/58 218/296/58 220/297/58 222/298/58 224/299/58 226/300/58 228/301/58 230/302/58 232/303/58 234/304/58 236/305/58
f 238/306/91 239/238/91 208/241/91 206/307/91
f 254/308/92 255/309/92 239/238/92 238/306/92
f 269/310/93 254/311/93 238/270/93 253/268/93
f 268/312/94 269/310/94 253/268/94 252/266/94
f 267/313/95 268/312/95 252/266/95 251/264/95
f 266/314/96 267/313/96 251/264/96 250/262/96
f 265/315/97 266/314/97 250/262/97 249/260/97
f 264/316/98 265/315/98 249/260/98 248/258/98
f 263/317/99 264/316/99 248/258/99 247/256/99
f 262/318/100 263/317/100 247/256/100 246/254/100
f 261/319/101 262/318/101 246/254/101 245/252/101
f 260/320/102 261/319/102 245/252/102 244/250/102
f 259/321/103 260/320/103 244/250/103 243/248/103
f 258/322/104 259/321/104 243/248/104 242/246/104
f 257/323/105 258/322/105 242/246/105 241/243/105
f 273/324/106 257/323/106 241/243/106 272/242/106
f 255/309/107 256/325/107 240/239/107 239/238/107
f 209/326/108 211/327/108 256/325/108 255/309/108
f 271/328/109 213/329/109 257/323/109 273/324/109
f 213/329/110 215/330/110 258/322/110 257/323/110
f 215/330/111 217/331/111 259/321/111 258/322/111
f 217/331/112 219/332/112 260/320/112 259/321/112
f 219/332/113 221/333/113 261/319/113 260/320/113
f 221/333/114 223/334/114 262/318/114 261/319/114
f 223/334/115 225/335/115 263/317/115 262/318/115
f 225/335/116 227/336/116 264/316/116 263/317/116
f 227/336/117 229/337/117 265/315/117 264/316/117
f 229/337/118 231/338/118 266/314/118 265/315/118
f 231/338/119 233/339/119 267/313/119 266/314/119
f 233/339/120 235/340/120 268/312/120 267/313/120
f 235/340/121 237/341/121 269/310/121 268/312/121
f 237/341/122 207/342/122 254/311/122 269/310/122
f 207/343/123 209/326/123 255/309/123 254/308/123
f 211/327/124 271/328/124 273/324/124 256/325/124
f 256/325/106 273/324/106 272/242/106 240/239/106
f 240/239/125 272/242/125 270/245/125 210/240/125
s 1
f 309/344/126 308/345/127 307/346/128 306/347/129
f 308/345/127 311/348/130 310/349/131 307/346/128
f 311/348/130 313/350/132 312/351/133 310/349/131
f 313/350/132 315/352/134 314/353/135 312/351/133
f 315/352/134 317/354/136 316/355/137 314/353/135
f 317/354/136 319/356/138 318/357/139 316/355/137
f 319/356/138 321/358/140 320/359/141 318/357/139
f 321/358/140 323/360/142 322/361/143 320/359/141
f 323/360/142 325/362/144 324/363/145 322/361/143
f 325/362/144 327/364/146 326/365/147 324/363/145
f 327/364/146 329/366/148 328/367/149 326/365/147
f 329/366/148 331/368/150 330/369/151 328/367/149
f 331/368/150 333/370/152 332/371/153 330/369/151
f 333/370/152 335/372/154 334/373/155 332/371/153
f 335/372/154 337/374/156 336/375/157 334/373/155
f 336/375/157 337/374/156 309/344/126 306/347/129
f 276/376/158 274/377/158 306/347/129 307/346/128
f 275/378/159 277/379/159 308/345/127 309/344/126
f 278/380/158 276/376/158 307/346/128 310/349/131
f 277/379/159 279/381/159 311/348/130 308/345/127
f 280/382/158 278/380/158 310/349/131 312/351/133
f 279/381/159 281/383/159 313/350/132 311/348/130
f 282/384/158 280/382/158 312/351/133 314/353/135
f 281/383/159 283/385/159 315/352/134 313/350/132
f 284/386/158 282/384/158 314/353/135 316/355/137
f 283/385/159 285/387/159 317/354/136 315/352/134
f 286/388/158 284/386/158 316/355/137 318/357/139
f 285/387/159 287/389/159 319/356/138 317/354/136
f 288/390/158 286/388/158 318/357/139 320/359/141
f 287/389/159 289/391/159 321/358/140 319/356/138
f 290/392/158 288/390/158 320/359/141 322/361/143
f 289/391/159 291/393/159 323/360/142 321/358/140
f 292/394/158 290/392/158 322/361/143 324/363/145
f 291/393/159 293/395/159 325/362/144 323/360/142
f 294/396/158 292/394/158 324/363/145 326/365/147
f 293/395/159 295/397/159 327/364/146 325/362/144
f 296/398/158 294/396/158 326/365/147 328/367/149
f 295/397/159 297/399/159 329/366/148 327/364/146
f 298/400/158 296/398/158 328/367/149 330/369/151
f 297/399/159 299/401/159 331/368/150 329/366/148
f 300/402/158 298/400/158 330/369/151 332/371/153
f 299/401/159 301/403/159 333/370/152 331/368/150
f 302/404/158 300/402/158 332/371/153 334/373/155
f 301/403/159 303/405/159 335/372/154 333/370/152
f 304/406/158 302/404/158 334/373/155 336/375/157
f 303/405/159 305/407/159 337/374/156 335/372/154
f 274/377/158 304/406/158 336/375/157 306/347/129
f 305/407/159 275/378/159 309/344/126 337/374/156
f 373/408/160 372/409/161 371/410/162 370/411/163
f 372/409/161 375/412/164 374/413/165 371/410/162
f 375/412/164 377/414/166 376/415/167 374/413/165
f 377/414/166 379/416/168 378/417/169 376/415/167
f 379/416/168 381/418/170 380/419/171 378/417/169
f 381/418/170 383/420/172 382/421/173 380/419/171
f 383/420/172 385/422/174 384/423/175 382/421/173
f 385/422/174 387/424/176 386/425/177 384/423/175
f 387/424/176 389/426/178 388/427/179 386/425/177
f 389/426/178 391/428/180 390/429/181 388/427/179
f 391/428/180 393/430/182 392/431/183 390/429/181
f 393/430/182 395/432/184 394/433/185 392/431/183
f 395/432/184 397/434/186 396/435/187 394/433/185
f 397/434/186 399/436/188 398/437/189 396/435/187
f 399/436/188 401/438/190 400/439/191 398/437/189
f 400/439/191 401/438/190 373/408/160 370/411/163
f 340/440/192 338/441/192 370/411/163 371/410/162
f 339/442/193 341/443/193 372/409/161 373/408/160
f 342/444/192 340/440/192 371/410/162 374/413/165
f 341/443/193 343/445/193 375/412/164 372/409/161
f 344/446/192 342/444/192 374/413/165 376/415/167
f 343/445/193 345/447/193 377/414/166 375/412/164
f 346/448/192 344/446/192 376/415/167 378/417/169
f 345/447/193 347/449/193 379/416/168 377/414/166
f 348/450/192 346/448/192 378/417/169 380/419/171
f 347/449/193 349/451/193 381/418/170 379/416/168
f 350/452/192 348/450/192 380/419/171 382/421/173
f 349/451/193 351/453/193 383/420/172 381/418/170
f 352/454/192 350/452/192 382/421/173 384/423/175
f 351/453/193 353/455/193 385/422/174 383/420/172
f 354/456/192 352/454/192 384/423/175 386/425/177
f 353/455/193 355/457/193 387/424/176 385/422/174
f 356/458/192 354/456/192 386/425/177 388/427/179
f 355/457/193 357/459/193 389/426/178 387/424/176
f 358/460/192 356/458/192 388/427/179 390/429/181
f 357/459/193 359/461/193 391/428/180 389/426/178
f 360/462/192 358/460/192 390/429/181 392/431/183
f 359/461/193 361/463/193 393/430/182 391/428/180
f 362/464/192 360/462/192 392/431/183 394/433/185
f 361/463/193 363/465/193 395/432/184 393/430/182
f 364/466/192 362/464/192 394/433/185 396/435/187
f 363/465/193 365/467/193 397/434/186 395/432/184
f 366/468/192 364/466/192 396/435/187 398/437/189
f 365/467/193 367/469/193 399/436/188 397/434/186
f 368/470/192 366/468/192 398/437/189 400/439/191
f 367/469/193 369/471/193 401/438/190 399/436/188
f 338/441/192 368/470/192 400/439/191 370/411/163
f 369/471/193 339/442/193 373/408/160 401/438/190
f 437/472/194 436/473/195 435/474/196 434/475/197
f 436/473/195 439/476/198 438/477/199 435/474/196
f 439/476/198 441/478/200 440/479/201 438/477/199
f 441/478/200 443/480/202 442/481/203 440/479/201
f 443/480/202 445/482/204 444/483/205 442/481/203
f 445/482/204 447/484/206 446/485/207 444/483/205
f 447/484/206 449/486/208 448/487/209 446/485/207
f 449/486/208 451/488/210 450/489/211 448/487/209
f 451/488/210 453/490/212 452/491/213 450/489/211
f 453/490/212 455/492/214 454/493/215 452/491/213
f 455/492/214 457/494/216 456/495/217 454/493/215
f 457/494/216 459/496/218 458/497/219 456/495/217
f 459/496/218 461/498/220 460/499/221 458/497/219
f 461/498/220 463/500/222 462/501/223 460/499/221
f 463/500/222 465/502/224 464/503/225 462/501/223
f 464/503/225 465/502/224 437/472/194 434/475/197
f 404/504/226 402/505/226 434/475/197 435/474/196
f 403/506/227 405/507/228 436/473/195 437/472/194
f 406/508/226 404/504/226 435/474/196 438/477/199
f 405/507/228 407/509/227 439/476/198 436/473/195
f 408/510/226 406/508/226 438/477/199 440/479/201
f 407/509/227 409/511/227 441/478/200 439/476/198
f 410/512/226 408/510/226 440/479/201 442/481/203
f 409/511/227 411/513/227 443/480/202 441/478/200
f 412/514/226 410/512/226 442/481/203 444/483/205
f 411/513/227 413/515/227 445/482/204 443/480/202
f 414/516/226 412/514/226 444/483/205 446/485/207
f 413/515/227 415/517/227 447/484/206 445/482/204
f 416/518/226 414/516/226 446/485/207 448/487/209
f 415/517/227 417/519/227 449/486/208 447/484/206
f 418/520/226 416/518/226 448/487/209 450/489/211
f 417/519/227 419/521/227 451/488/210 449/486/208
f 420/522/226 418/520/226 450/489/211 452/491/213
f 419/521/227 421/523/227 453/490/212 451/488/210
f 422/524/226 420/522/226 452/491/213 454/493/215
f 421/523/227 423/525/227 455/492/214 453/490/212
f 424/526/226 422/524/226 454/493/215 456/495/217
f 423/525/227 425/527/227 457/494/216 455/492/214
f 426/528/226 424/526/226 456/495/217 458/497/219
f 425/527/227 427/529/227 459/496/218 457/494/216
f 428/530/226 426/528/226 458/497/219 460/499/221
f 427/529/227 429/531/227 461/498/220 459/496/218
f 430/532/226 428/530/226 460/499/221 462/501/223
f 429/531/227 431/533/227 463/500/222 461/498/220
f 432/534/226 430/532/226 462/501/223 464/503/225
f 431/533/227 433/535/227 465/502/224 463/500/222
f 402/505/226 432/534/226 464/503/225 434/475/197
f 433/535/227 403/506/227 437/472/194 465/502/224
f 501/536/229 500/537/230 499/538/231 498/539/232
f 500/537/230 503/540/233 502/541/234 499/538/231
f 503/540/233 505/542/235 504/543/236 502/541/234
f 505/542/235 507/544/237 506/545/238 504/543/236
f 507/544/237 509/546/239 508/547/240 506/545/238
f 509/546/239 511/548/241 510/549/242 508/547/240
f 511/548/241 513/550/243 512/551/244 510/549/242
f 513/550/243 515/552/245 514/553/246 512/551/244
f 515/552/245 517/554/247 516/555/248 514/553/246
f 517/554/247 519/556/249 518/557/250 516/555/248
f 519/556/249 521/558/251 520/559/252 518/557/250
f 521/558/251 523/560/253 522/561/254 520/559/252
f 523/560/253 525/562/255 524/563/256 522/561/254
f 525/562/255 527/564/257 526/565/258 524/563/256
f 527/564/257 529/566/259 528/567/260 526/565/258
f 528/567/260 529/566/259 501/536/229 498/539/232
f 468/568/71 466/569/71 498/539/232 499/538/231
f 467/570/58 469/571/58 500/537/230 501/536/229
f 470/572/71 468/568/71 499/538/231 502/541/234
f 469/571/58 471/573/58 503/540/233 500/537/230
f 472/574/71 470/572/71 502/541/234 504/543/236
f 471/573/58 473/575/58 505/542/235 503/540/233
f 474/576/71 472/574/71 504/543/236 506/545/238
f 473/575/58 475/577/58 507/544/237 505/542/235
f 476/578/71 474/576/71 506/545/238 508/547/240
f 475/577/58 477/579/58 509/546/239 507/544/237
f 478/580/71 476/578/71 508/547/240 510/549/242
f 477/579/58 479/581/58 511/548/241 509/546/239
f 480/582/71 478/580/71 510/549/242 512/551/244
f 479/581/58 481/583/58 513/550/243 511/548/241
f 482/584/71 480/582/71 512/551/244 514/553/246
f 481/583/58 483/585/58 515/552/245 513/550/243
f 484/586/71 482/584/71 514/553/246 516/555/248
f 483/585/58 485/587/58 517/554/247 515/552/245
f 486/588/71 484/586/71 516/555/248 518/557/250
f 485/587/58 487/589/58 519/556/249 517/554/247
f 488/590/71 486/588/71 518/557/250 520/559/252
f 487/589/58 489/591/58 521/558/251 519/556/249
f 490/592/71 488/590/71 520/559/252 522/561/254
f 489/591/58 491/593/58 523/560/253 521/558/251
f 492/594/71 490/592/71 522/561/254 524/563/256
f 491/593/58 493/595/58 525/562/255 523/560/253
f 494/596/71 492/594/71 524/563/256 526/565/258
f 493/595/58 495/597/58 527/564/257 525/562/255
f 496/598/71 494/596/71 526/565/258 528/567/260
f 495/597/58 497/599/58 529/566/259 527/564/257
f 466/569/71 496/598/71 528/567/260 498/539/232
f 497/599/58 467/570/58 501/536/229 529/566/259
f 565/600/261 564/601/262 563/602/263 562/603/264
f 564/601/262 567/604/265 566/605/266 563/602/263
f 567/604/265 569/606/267 568/607/268 566/605/266
f 569/606/267 571/608/269 570/609/270 568/607/268
f 571/608/269 573/610/271 572/611/272 570/609/270
f 573/610/271 575/612/273 574/613/274 572/611/272
f 575/612/273 577/614/275 576/615/276 574/613/274
f 577/614/275 579/616/277 578/617/278 576/615/276
f 579/616/277 581/618/279 580/619/280 578/617/278
f 581/618/279 583/620/281 582/621/282 580/619/280
f 583/620/281 585/622/283 584/623/284 582/621/282
f 585/622/283 587/624/285 586/625/286 584/623/284
f 587/624/285 589/626/287 588/627/288 586/625/286
f 589/626/287 591/628/289 590/629/290 588/627/288
f 591/628/289 593/630/291 592/631/292 590/629/290
f 592/631/292 593/630/291 565/600/261 562/603/264
f 532/632/293 530/633/293 562/603/264 563/602/263
f 531/634/294 533/635/294 564/601/262 565/600/261
f 534/636/293 532/632/293 563/602/263 566/605/266
f 533/635/294 535/637/294 567/604/265 564/601/262
f 536/638/293 534/636/293 566/605/266 568/607/268
f 535/637/294 537/639/294 569/606/267 567/604/265
f 538/640/293 536/638/293 568/607/268 570/609/270
f 537/639/294 539/641/294 571/608/269 569/606/267
f 540/642/293 538/640/293 570/609/270 572/611/272
f 539/641/294 541/643/294 573/610/271 571/608/269
f 542/644/293 540/642/293 572/611/272 574/613/274
f 541/643/294 543/645/294 575/612/273 573/610/271
f 544/646/293 542/644/293 574/613/274 576/615/276
f 543/645/294 545/647/294 577/614/275 575/612/273
f 546/648/293 544/646/293 576/615/276 578/617/278
f 545/647/294 547/649/294 579/616/277 577/614/275
f 548/650/293 546/648/293 578/617/278 580/619/280
f 547/649/294 549/651/294 581/618/279 579/616/277
f 550/652/293 548/650/293 580/619/280 582/621/282
f 549/651/294 551/653/294 583/620/281 581/618/279
f 552/654/293 550/652/293 582/621/282 584/623/284
f 551/653/294 553/655/294 585/622/283 583/620/281
f 554/656/293 552/654/293 584/623/284 586/625/286
f 553/655/294 555/657/294 587/624/285 585/622/283
f 556/658/293 554/656/293 586/625/286 588/627/288
f 555/657/294 557/659/294 589/626/287 587/624/285
f 558/660/293 556/658/293 588/627/288 590/629/290
f 557/659/294 559/661/294 591/628/289 589/626/287
f 560/662/293 558/660/293 590/629/290 592/631/292
f 559/661/294 561/663/294 593/630/291 591/628/289
f 530/633/293 560/662/293 592/631/292 562/603/264
f 561/663/294 531/634/294 565/600/261 593/630/291
f 629/664/229 628/665/230 627/666/231 626/667/232
f 628/665/230 631/668/233 630/669/234 627/666/231
f 631/668/233 633/670/235 632/671/236 630/669/234
f 633/670/235 635/672/237 634/673/238 632/671/236
f 635/672/237 637/674/239 636/675/240 634/673/238
f 637/674/239 639/676/241 638/677/242 636/675/240
f 639/676/241 641/678/243 640/679/244 638/677/242
f 641/678/243 643/680/245 642/681/246 640/679/244
f 643/680/245 645/682/247 644/683/248 642/681/246
f 645/682/247 647/684/249 646/685/250 644/683/248
f 647/684/249 649/686/251 648/687/252 646/685/250
f 649/686/251 651/688/253 650/689/254 648/687/252
f 651/688/253 653/690/255 652/691/256 650/689/254
f 653/690/255 655/692/257 654/693/258 652/691/256
f 655/692/257 657/694/259 656/695/260 654/693/258
f 656/695/260 657/694/259 629/664/229 626/667/232
f 596/696/71 594/697/71 626/667/232 627/666/231
f 595/698/58 597/699/58 628/665/230 629/664/229
f 598/700/71 596/696/71 627/666/231 630/669/234
f 597/699/58 599/701/58 631/668/233 628/665/230
f 600/702/71 598/700/71 630/669/234 632/671/236
f 599/701/58 601/703/58 633/670/235 631/668/233
f 602/704/71 600/702/71 632/671/236 634/673/238
f 601/703/58 603/705/58 635/672/237 633/670/235
f 604/706/71 602/704/71 634/673/238 636/675/240
f 603/705/58 605/707/58 637/674/239 635/672/237
f 606/708/71 604/706/71 636/675/240 638/677/242
f 605/707/58 607/709/58 639/676/241 637/674/239
f 608/710/71 606/708/71 638/677/242 640/679/244
f 607/709/58 609/711/58 641/678/243 639/676/241
f 610/712/71 608/710/71 640/679/244 642/681/246
f 609/711/58 611/713/58 643/680/245 641/678/243
f 612/714/71 610/712/71 642/681/246 644/683/248
f 611/713/58 613/715/58 645/682/247 643/680/245
f 614/716/71 612/714/71 644/683/248 646/685/250
f 613/715/58 615/717/58 647/684/249 645/682/247
f 616/718/71 614/716/71 646/685/250 648/687/252
f 615/717/58 617/719/58 649/686/251 647/684/249
f 618/720/71 616/718/71 648/687/252 650/689/254
f 617/719/58 619/721/58 651/688/253 649/686/251
f 620/722/71 618/720/71 650/689/254 652/691/256
f 619/721/58 621/723/58 653/690/255 651/688/253
f 622/724/71 620/722/71 652/691/256 654/693/258
f 621/723/58 623/725/58 655/692/257 653/690/255
f 624/726/71 622/724/71 654/693/258 656/695/260
f 623/725/58 625/727/58 657/694/259 655/692/257
f 594/697/71 624/726/71 656/695/260 626/667/232
f 625/727/58 595/698/58 629/664/229 657/694/259
f 693/728/295 692/729/296 691/730/297 690/731/298
f 692/729/296 695/732/299 694/733/300 691/730/297
f 695/732/299 697/734/301 696/735/302 694/733/300
f 697/734/301 699/736/303 698/737/304 696/735/302
f 699/736/303 701/738/305 700/739/306 698/737/304
f 701/738/305 703/740/307 702/741/308 700/739/306
f 703/740/307 705/742/309 704/743/310 702/741/308
f 705/742/309 707/744/311 706/745/312 704/743/310
f 707/744/311 709/746/313 708/747/314 706/745/312
f 709/746/313 711/748/315 710/749/316 708/747/314
f 711/748/315 713/750/317 712/751/318 710/749/316
f 713/750/317 715/752/319 714/753/320 712/751/318
f 715/752/319 717/754/321 716/755/322 714/753/320
f 717/754/321 719/756/323 718/757/324 716/755/322
f 719/756/323 721/758/325 720/759/326 718/757/324
f 720/759/326 721/758/325 693/728/295 690/731/298
f 660/760/327 658/761/327 690/731/298 691/730/297
f 659/762/328 661/763/328 692/729/296 693/728/295
f 662/764/327 660/760/327 691/730/297 694/733/300
f 661/763/328 663/765/328 695/732/299 692/729/296
f 664/766/327 662/764/327 694/733/300 696/735/302
f 663/765/328 665/767/328 697/734/301 695/732/299
f 666/768/327 664/766/327 696/735/302 698/737/304
f 665/767/328 667/769/328 699/736/303 697/734/301
f 668/770/327 666/768/327 698/737/304 700/739/306
f 667/769/328 669/771/328 701/738/305 699/736/303
f 670/772/327 668/770/327 700/739/306 702/741/308
f 669/771/328 671/773/328 703/740/307 701/738/305
f 672/774/327 670/772/327 702/741/308 704/743/310
f 671/773/328 673/775/328 705/742/309 703/740/307
f 674/776/327 672/774/327 704/743/310 706/745/312
f 673/775/328 675/777/328 707/744/311 705/742/309
f 676/778/327 674/776/327 706/745/312 708/747/314
f 675/777/328 677/779/328 709/746/313 707/744/311
f 678/780/327 676/778/327 708/747/314 710/749/316
f 677/779/328 679/781/328 711/748/315 709/746/313
f 680/782/327 678/780/327 710/749/316 712/751/318
f 679/781/328 681/783/328 713/750/317 711/748/315
f 682/784/327 680/782/327 712/751/318 714/753/320
f 681/783/328 683/785/328 715/752/319 713/750/317
f 684/786/327 682/784/327 714/753/320 716/755/322
f 683/785/328 685/787/328 717/754/321 715/752/319
f 686/788/327 684/786/327 716/755/322 718/757/324
f 685/787/328 687/789/328 719/756/323 717/754/321
f 688/790/327 686/788/327 718/757/324 720/759/326
f 687/789/328 689/791/328 721/758/325 719/756/323
f 658/761/327 688/790/327 720/759/326 690/731/298
f 689/791/328 659/762/328 693/728/295 721/758/325
f 757/792/229 756/793/230 755/794/231 754/795/232
f 756/793/230 759/796/233 758/797/234 755/794/231
f 759/796/233 761/798/235 760/799/236 758/797/234
f 761/798/235 763/800/237 762/801/238 760/799/236
f 763/800/237 765/802/239 764/803/240 762/801/238
f 765/802/239 767/804/241 766/805/242 764/803/240
f 767/804/241 769/806/243 768/807/244 766/805/242
f 769/806/243 771/808/245 770/809/246 768/807/244
f 771/808/245 773/810/247 772/811/248 770/809/246
f 773/810/247 775/812/249 774/813/250 772/811/248
f 775/812/249 777/814/251 776/815/252 774/813/250
f 777/814/251 779/816/253 778/817/254 776/815/252
f 779/816/253 781/818/255 780/819/256 778/817/254
f 781/818/255 783/820/257 782/821/258 780/819/256
f 783/820/257 785/822/259 784/823/260 782/821/258
f 784/823/260 785/822/259 757/792/229 754/795/232
f 724/824/71 722/825/71 754/795/232 755/794/231
f 723/826/58 725/827/58 756/793/230 757/792/229
f 726/828/71 724/824/71 755/794/231 758/797/234
f 725/827/58 727/829/58 759/796/233 756/793/230
f 728/830/71 726/828/71 758/797/234 760/799/236
f 727/829/58 729/831/58 761/798/235 759/796/233
f 730/832/71 728/830/71 760/799/236 762/801/238
f 729/831/58 731/833/58 763/800/237 761/798/235
f 732/834/71 730/832/71 762/801/238 764/803/240
f 731/833/58 733/835/58 765/802/239 763/800/237
f 734/836/71 732/834/71 764/803/240 766/805/242
f 733/835/58 735/837/58 767/804/241 765/802/239
f 736/838/71 734/836/71 766/805/242 768/807/244
f 735/837/58 737/839/58 769/806/243 767/804/241
f 738/840/71 736/838/71 768/807/244 770/809/246
f 737/839/58 739/841/58 771/808/245 769/806/243
f 740/842/71 738/840/71 770/809/246 772/811/248
f 739/841/58 741/843/58 773/810/247 771/808/245
f 742/844/71 740/842/71 772/811/248 774/813/250
f 741/843/58 743/845/58 775/812/249 773/810/247
f 744/846/71 742/844/71 774/813/250 776/815/252
f 743/845/58 745/847/58 777/814/251 775/812/249
f 746/848/71 744/846/71 776/815/252 778/817/254
f 745/847/58 747/849/58 779/816/253 777/814/251
f 748/850/71 746/848/71 778/817/254 780/819/256
f 747/849/58 749/851/58 781/818/255 779/816/253
f 750/852/71 748/850/71 780/819/256 782/821/258
f 749/851/58 751/853/58 783/820/257 781/818/255
f 752/854/71 750/852/71 782/821/258 784/823/260
f 751/853/58 753/855/58 785/822/259 783/820/257
f 722/825/71 752/854/71 784/823/260 754/795/232
f 753/855/58 723/826/58 757/792/229 785/822/259
f 821/856/329 820/857/330 819/858/331 818/859/332
f 820/857/330 823/860/333 822/861/334 819/858/331
f 823/860/333 825/862/335 824/863/336 822/861/334
f 825/862/335 827/864/337 826/865/338 824/863/336
f 827/864/337 829/866/339 828/867/340 826/865/338
f 829/866/339 831/868/341 830/869/342 828/867/340
f 831/868/341 833/870/343 832/871/344 830/869/342
f 833/870/343 835/872/345 834/873/346 832/871/344
f 835/872/345 837/874/347 836/875/348 834/873/346
f 837/874/347 839/876/349 838/877/350 836/875/348
f 839/876/349 841/878/351 840/879/352 838/877/350
f 841/878/351 843/880/353 842/881/354 840/879/352
f 843/880/353 845/882/355 844/883/356 842/881/354
f 845/882/355 847/884/357 846/885/358 844/883/356
f 847/884/357 849/886/359 848/887/360 846/885/358
f 848/887/360 849/886/359 821/856/329 818/859/332
f 788/888/361 786/889/361 818/859/332 819/858/331
f 787/890/362 789/891/362 820/857/330 821/856/329
f 790/892/361 788/888/361 819/858/331 822/861/334
f 789/891/362 791/893/362 823/860/333 820/857/330
f 792/894/361 790/892/361 822/861/334 824/863/336
f 791/893/362 793/895/362 825/862/335 823/860/333
f 794/896/361 792/894/361 824/863/336 826/865/338
f 793/895/362 795/897/362 827/864/337 825/862/335
f 796/898/361 794/896/361 826/865/338 828/867/340
f 795/897/362 797/899/362 829/866/339 827/864/337
f 798/900/361 796/898/361 828/867/340 830/869/342
f 797/899/362 799/901/362 831/868/341 829/866/339
f 800/902/361 798/900/361 830/869/342 832/871/344
f 799/901/362 801/903/362 833/870/343 831/868/341
f 802/904/361 800/902/361 832/871/344 834/873/346
f 801/903/362 803/905/362 835/872/345 833/870/343
f 804/906/361 802/904/361 834/873/346 836/875/348
f 803/905/362 805/907/362 837/874/347 835/872/345
f 806/908/361 804/906/361 836/875/348 838/877/350
f 805/907/362 807/909/362 839/876/349 837/874/347
f 808/910/361 806/908/361 838/877/350 840/879/352
f 807/909/362 809/911/362 841/878/351 839/876/349
f 810/912/361 808/910/361 840/879/352 842/881/354
f 809/911/362 811/913/362 843/880/353 841/878/351
f 812/914/361 810/912/361 842/881/354 844/883/356
f 811/913/362 813/915/362 845/882/355 843/880/353
f 814/916/361 812/914/361 844/883/356 846/885/358
f 813/915/362 815/917/362 847/884/357 845/882/355
f 816/918/361 814/916/361 846/885/358 848/887/360
f 815/917/362 817/919/362 849/886/359 847/884/357
f 786/889/361 816/918/361 848/887/360 818/859/332
f 817/919/362 787/890/362 821/856/329 849/886/359
f 885/920/363 884/921/364 883/922/365 882/923/366
f 884/921/364 887/924/367 886/925/368 883/922/365
f 887/924/367 889/926/369 888/927/370 886/925/368
f 889/926/369 891/928/371 890/929/372 888/927/370
f 891/928/371 893/930/373 892/931/374 890/929/372
f 893/930/373 895/932/375 894/933/376 892/931/374
f 895/932/375 897/934/377 896/935/378 894/933/376
f 897/934/377 899/936/379 898/937/380 896/935/378
f 899/936/379 901/938/381 900/939/382 898/937/380
f 901/938/381 903/940/383 902/941/384 900/939/382
f 903/940/383 905/942/385 904/943/386 902/941/384
f 905/942/385 907/944/387 906/945/388 904/943/386
f 907/944/387 909/946/389 908/947/390 906/945/388
f 909/946/389 911/948/391 910/949/392 908/947/390
f 911/948/391 913/950/393 912/951/394 910/949/392
f 912/951/394 913/950/393 885/920/363 882/923/366
f 852/952/395 850/953/395 882/923/366 883/922/365
f 851/954/396 853/955/396 884/921/364 885/920/363
f 854/956/395 852/952/395 883/922/365 886/925/368
f 853/955/396 855/957/396 887/924/367 884/921/364
f 856/958/395 854/956/395 886/925/368 888/927/370
f 855/957/396 857/959/396 889/926/369 887/924/367
f 858/960/395 856/958/395 888/927/370 890/929/372
f 857/959/396 859/961/396 891/928/371 889/926/369
f 860/962/395 858/960/395 890/929/372 892/931/374
f 859/961/396 861/963/396 893/930/373 891/928/371
f 862/964/395 860/962/395 892/931/374 894/933/376
f 861/963/396 863/965/396 895/932/375 893/930/373
f 864/966/395 862/964/395 894/933/376 896/935/378
f 863/965/396 865/967/396 897/934/377 895/932/375
f 866/968/395 864/966/395 896/935/378 898/937/380
f 865/967/396 867/969/396 899/936/379 897/934/377
f 868/970/395 866/968/395 898/937/380 900/939/382
f 867/969/396 869/971/396 901/938/381 899/936/379
f 870/972/395 868/970/395 900/939/382 902/941/384
f 869/971/396 871/973/396 903/940/383 901/938/381
f 872/974/395 870/972/395 902/941/384 904/943/386
f 871/973/396 873/975/396 905/942/385 903/940/383
f 874/976/395 872/974/395 904/943/386 906/945/388
f 873/975/396 875/977/396 907/944/387 905/942/385
f 876/978/395 874/976/395 906/945/388 908/947/390
f 875/977/396 877/979/396 909/946/389 907/944/387
f 878/980/395 876/978/395 908/947/390 910/949/392
f 877/979/396 879/981/396 911/948/391 909/946/389
f 880/982/395 878/980/395 910/949/392 912/951/394
f 879/981/396 881/983/396 913/950/393 911/948/391
f 850/953/395 880/982/395 912/951/394 882/923/366
f 881/983/396 851/954/396 885/920/363 913/950/393
s 0
f 87/88/397 80/68/397 918/68/397 920/88/397
f 65/84/397 73/72/397 917/72/397 914/84/397
f 91/106/397 94/114/397 922/114/397 921/106/397
f 80/68/398 66/67/398 915/67/398 918/68/398
f 84/91/399 87/88/399 920/88/399 919/91/399
f 106/132/397 110/92/397 924/92/397 923/132/397
f 110/92/397 84/91/397 919/91/397 924/92/397
f 94/114/397 106/132/397 923/132/397 922/114/397
f 69/71/397 91/106/397 921/106/397 916/71/397
f 73/72/400 69/71/400 916/71/400 917/72/400
f 169/174/401 67/122/401 926/122/401 933/174/401
f 142/177/402 152/176/402 932/176/402 930/177/402
f 152/176/403 146/175/403 931/175/403 932/176/403
f 67/122/402 97/81/402 929/81/402 926/122/402
f 146/175/402 169/174/402 933/174/402 931/175/402
f 65/84/404 914/84/404 934/84/404 925/84/404
f 97/81/402 71/82/402 927/82/402 929/81/402
f 78/83/402 65/84/402 925/84/402 928/83/402
f 71/82/405 78/83/405 928/83/405 927/82/405
f 154/159/406 160/181/406 941/181/406 939/159/406
f 163/199/406 144/164/406 937/164/406 942/199/406
f 144/164/407 148/163/407 938/163/407 937/164/407
f 160/181/408 157/184/408 940/184/408 941/181/408
f 142/177/409 930/177/409 946/177/409 935/177/409
f 157/184/406 182/183/406 945/183/406 940/184/406
f 143/160/410 154/159/410 939/159/410 936/160/410
f 178/219/406 166/207/406 943/207/406 944/219/406
f 148/163/406 142/177/406 935/177/406 938/163/406
f 182/183/406 178/219/406 944/219/406 945/183/406
f 166/207/406 163/199/406 942/199/406 943/207/406
f 76/66/411 70/79/411 949/79/411 950/66/411
f 150/161/411 143/160/411 952/160/411 954/161/411
f 70/79/411 98/78/411 951/78/411 949/79/411
f 145/172/411 150/161/411 954/161/411 953/172/411
f 66/67/411 76/66/411 950/66/411 947/67/411
f 68/124/411 170/173/411 955/173/411 948/124/411
f 915/67/412 66/67/412 947/67/412 956/67/412
f 143/160/413 936/160/413 957/160/413 952/160/413
f 98/78/411 68/124/411 948/124/411 951/78/411
f 170/173/411 145/172/411 953/172/411 955/173/411
