# Blender 5.1.0
# www.blender.org
o Walls_-_First_Floor.003
v -24.878643 0.000000 1.929360
v 4.984770 0.000000 1.647658
v -24.878643 8.062303 1.929360
v -24.976446 0.000000 -37.836540
v -24.976446 8.062303 -37.836540
v -5.172393 0.000000 -24.810169
v -4.922395 0.000000 -24.811199
v -5.090234 0.000000 -4.838075
v -4.840237 0.000000 -4.839103
v -5.172393 8.062303 -24.810169
v -4.922395 8.062303 -24.811199
v -4.840237 8.062303 -4.839103
v -5.090234 8.062303 -4.838075
v 19.807226 0.000000 -40.083248
v 20.057224 0.000000 -40.084274
v -5.121251 0.000000 -37.769337
v -5.315041 0.000000 -40.069435
v -5.065316 0.000000 -40.181171
v -5.297863 0.000000 -35.937691
v -5.047864 0.000000 -35.938721
v -5.047864 8.062303 -35.938721
v -5.297863 8.062303 -35.937691
v -5.121251 8.062303 -37.769337
v -5.065316 8.062303 -40.134007
v -5.315041 8.062303 -40.045853
v 4.993567 0.000000 1.666407
vn 1.0000 -0.0000 -0.0025
vn 1.0000 -0.0000 -0.0041
vn 0.0041 -0.0000 1.0000
vn -1.0000 -0.0000 0.0041
vn -0.0034 -0.0000 1.0000
vn -1.0000 -0.0000 0.0042
vn -0.0041 -0.0000 -1.0000
vt 0.118792 0.298950
vt 0.118792 0.460517
vt 0.006499 0.460517
vt 0.006499 0.298950
vt 0.146772 0.645718
vt 0.146772 0.799625
vt 0.010286 0.799625
vt 0.010286 0.645718
vt 0.008578 0.799625
vt 0.008578 0.645718
vt 0.342702 0.298950
vt 0.342702 0.460517
vt 0.238508 0.460517
vt 0.238508 0.298950
vt 0.462924 0.298950
vt 0.462924 0.460517
vt 0.346561 0.460517
vt 0.346561 0.298950
vt 0.251943 0.473391
vt 0.251341 0.630396
vt 0.197802 0.630396
vt 0.197802 0.473391
vt 0.776788 0.473267
vt 0.776788 0.637365
vt 0.650984 0.637365
vt 0.650984 0.473267
vt 0.465380 0.298950
vt 0.616943 0.298950
vt 0.616943 0.460517
vt 0.465380 0.460517
vt 0.148481 0.645686
vt 0.148481 0.799625
s 0
f 4/1/1 5/2/1 3/3/1 1/4/1
f 7/5/2 11/6/2 12/7/2 9/8/2
f 9/8/3 12/7/3 13/9/3 8/10/3
f 8/11/4 13/12/4 10/13/4 6/14/4
f 16/15/5 23/16/5 5/17/5 4/18/5
f 18/19/2 24/20/2 21/21/2 20/22/2
f 20/23/3 21/24/3 22/25/3 19/26/3
f 17/27/6 19/28/6 22/29/6 25/30/6
f 6/31/7 10/32/7 11/6/7 7/5/7
l 2 26
l 15 14
o First_Floor.002
v -25.824635 0.374678 -41.603409
v -25.328613 0.374678 2.671093
v -5.034108 0.374678 -41.836334
v -4.538085 0.374678 2.438169
v -25.601479 0.374678 -21.684727
v -4.810952 0.374678 -21.917650
v -25.658541 0.374678 -26.778000
v -4.868013 0.374678 -27.010925
v -4.849225 0.374678 -25.333870
v -25.639753 0.374678 -25.100946
vn -0.0000 1.0000 -0.0000
vt 0.851620 0.562787
vt 0.972402 0.562787
vt 0.972402 0.969147
vt 0.851620 0.969147
vt 0.611699 0.562787
vt 0.810125 0.562787
vt 0.810125 0.969147
vt 0.611699 0.969147
vt 0.837957 0.562787
vt 0.837957 0.969147
s 0
f 34/33/8 29/34/8 27/35/8 33/36/8
f 30/37/8 32/38/8 31/39/8 28/40/8
f 35/41/8 34/33/8 33/36/8 36/42/8
f 32/38/8 35/41/8 36/42/8 31/39/8
