# Blender 5.1.2
# www.blender.org
o Counter_Door
v 0.057892 -0.942107 0.034317
v 0.057892 0.942107 0.034317
v 1.477982 -0.942107 0.034317
v 1.477982 0.942107 0.034317
v 1.535875 1.000000 0.000000
v -0.000000 1.000000 0.000000
v -0.000000 -1.000000 0.000000
v 1.535875 -1.000000 0.000000
v 1.224994 0.403766 0.146087
v 1.224994 0.753179 0.146087
v 1.224994 0.403766 0.080336
v 1.224994 0.403766 0.066220
v 1.241888 0.403766 0.120512
v 1.323701 0.753179 0.120513
v 1.241888 0.753179 0.120513
v 1.323701 0.403766 0.120512
v 1.224994 0.753179 0.080336
v 1.224994 0.753179 0.066220
v 1.323701 0.403766 0.146087
v 1.323701 0.753179 0.146087
v 1.323701 0.403766 0.028150
v 1.323701 0.753179 0.028150
v 1.241888 0.753179 0.146087
v 1.241888 0.403766 0.146087
v 1.241888 0.753179 0.066220
v 1.241888 0.403766 0.066220
v 1.396912 0.753179 0.146087
v 1.396912 0.403766 0.146087
v 1.396912 0.753179 0.028150
v 1.396912 0.403766 0.028150
vn -0.0000 -0.0000 1.0000
vn -0.0000 0.5099 0.8602
vn -0.0000 -0.5099 0.8602
vn -0.5099 -0.0000 0.8602
vn 0.5099 -0.0000 0.8602
vn -0.0000 -0.0000 -1.0000
vn -0.0000 -1.0000 -0.0000
vn -0.0000 1.0000 -0.0000
vn -1.0000 -0.0000 -0.0000
vn 1.0000 -0.0000 -0.0000
vt 0.293166 0.917070
vt 0.404684 0.917070
vt 0.404684 0.933880
vt 0.293166 0.933880
vt 0.408111 0.916384
vt 0.408111 0.934565
vt 0.289739 0.934565
vt 0.289739 0.916384
vt 0.084283 0.102337
vt 0.063791 0.101229
vt 0.208727 0.106151
vt 0.251885 0.104093
vt 0.310913 0.114122
vt 0.302207 0.101458
vt 0.287209 0.095905
vt 0.203108 0.110978
vt 0.070880 0.109160
vt 0.082819 0.110069
vt 0.240296 0.117258
vt 0.088750 0.110577
vt 0.086165 0.100893
vt 0.260268 0.109589
vt 0.087015 0.104387
vt 0.088317 0.098483
vt 0.186841 0.113967
vt 0.185814 0.106792
vt 0.179487 0.104344
vt 0.018217 0.101501
vt 0.066965 0.106920
vt 0.045442 0.095905
s 0
f 3/1/1 4/2/1 2/3/1 1/4/1
f 2/3/2 4/2/2 5/5/2 6/6/2
f 3/1/3 1/4/3 7/7/3 8/8/3
f 1/4/4 2/3/4 6/6/4 7/7/4
f 4/2/5 3/1/5 8/8/5 5/5/5
f 15/9/6 14/10/6 16/11/6 13/12/6
f 13/12/7 11/13/7 12/14/7 26/15/7
f 19/16/1 20/17/1 23/18/1 24/19/1
f 17/20/8 10/21/8 23/18/8 15/9/8
f 13/12/7 24/19/7 9/22/7 11/13/7
f 26/15/6 12/14/6 18/23/6 25/24/6
f 28/25/7 19/16/7 21/26/7 30/27/7
f 22/28/9 21/26/9 16/11/9 14/10/9
f 28/25/1 27/29/1 20/17/1 19/16/1
f 20/17/8 27/29/8 29/30/8 22/28/8
f 16/11/7 19/16/7 24/19/7 13/12/7
f 21/26/6 22/28/6 29/30/6 30/27/6
f 25/24/8 18/23/8 17/20/8 15/9/8
f 15/9/8 23/18/8 20/17/8 14/10/8
f 30/27/10 29/30/10 27/29/10 28/25/10
f 24/19/1 23/18/1 10/21/1 9/22/1
f 15/9/10 13/12/10 26/15/10 25/24/10
f 18/23/9 12/14/9 11/13/9 17/20/9
f 10/21/9 17/20/9 11/13/9 9/22/9
f 5/5/6 8/8/6 7/7/6 6/6/6
