# Blender 5.1.2
# www.blender.org
o Drawer_Mid/Bot
v 0.502354 0.613409 -1.088247
v 0.502354 0.613409 1.091744
v 0.502354 0.027623 1.091744
v 0.502354 0.027623 -1.088247
v 0.664259 0.417646 -0.147860
v 0.664259 0.417646 0.201554
v 0.664259 0.351895 -0.147860
v 0.664259 0.337780 -0.147860
v 0.647365 0.392072 -0.147860
v 0.565552 0.392072 0.201554
v 0.647365 0.392072 0.201554
v 0.565552 0.392072 -0.147860
v 0.664259 0.351895 0.201554
v 0.664259 0.337780 0.201554
v 0.565552 0.417646 -0.147860
v 0.565552 0.417646 0.201554
v 0.565552 0.299709 -0.147860
v 0.565552 0.299709 0.201554
v 0.647365 0.417646 0.201554
v 0.647365 0.417646 -0.147860
v 0.647365 0.337780 0.201554
v 0.647365 0.337780 -0.147860
v 0.492342 0.417646 0.201554
v 0.492342 0.417646 -0.147860
v 0.492342 0.299709 0.201554
v 0.492342 0.299709 -0.147860
v 0.467234 0.027623 1.091744
v 0.467234 0.613409 1.091744
v 0.467234 0.027623 -1.088247
v 0.467234 0.613409 -1.088247
v 0.502354 0.613409 1.044500
v 0.502354 0.027623 1.044500
v 0.467234 0.613409 1.044500
v 0.467234 0.027623 1.044500
v 0.502354 0.027623 -1.044500
v 0.467234 0.027623 -1.044500
v 0.502354 0.613409 -1.044500
v 0.467234 0.613409 -1.044500
v -0.467346 0.027623 -1.088247
v -0.467346 0.613409 -1.088247
v -0.467346 0.027623 -1.044500
v -0.467346 0.613409 -1.044500
v -0.467121 0.027623 1.091744
v -0.467121 0.613409 1.091744
v -0.467121 0.613409 1.044500
v -0.467121 0.027623 1.044500
v 0.502354 0.011133 -1.044500
v 0.502354 0.011133 -1.088247
v 0.467234 0.011133 -1.044500
v 0.467234 0.011133 -1.088247
v 0.502354 0.011133 1.091744
v 0.467234 0.011133 1.091744
v 0.502354 0.011133 1.044500
v 0.467234 0.011133 1.044500
v -0.467346 0.011133 -1.044500
v -0.467346 0.011133 -1.088247
v -0.467121 0.011133 1.091744
v -0.467121 0.011133 1.044500
vn 1.0000 -0.0000 -0.0000
vn -0.0000 -1.0000 -0.0000
vn -0.0000 -0.0000 -1.0000
vn -0.0000 1.0000 -0.0000
vn -0.0000 -0.0000 1.0000
vn -1.0000 -0.0000 -0.0000
vn -1.0000 -0.0000 0.0001
vn 1.0000 -0.0000 -0.0001
vt 0.410480 0.647018
vt 0.380774 0.647018
vt 0.380774 0.646176
vt 0.410480 0.646176
vt 0.396017 0.114842
vt 0.368603 0.117761
vt 0.267576 0.114930
vt 0.240409 0.111678
vt 0.218390 0.123071
vt 0.204148 0.117956
vt 0.192933 0.105526
vt 0.271833 0.119047
vt 0.366712 0.120802
vt 0.387571 0.125379
vt 0.250666 0.122147
vt 0.427859 0.128066
vt 0.398759 0.119181
vt 0.241436 0.115439
vt 0.459715 0.118757
vt 0.431476 0.105526
vt 0.280724 0.121601
vt 0.279829 0.116768
vt 0.283999 0.116123
vt 0.357763 0.118068
vt 0.357418 0.123058
vt 0.353903 0.117398
vt 0.410480 0.675401
vt 0.380774 0.675401
vt 0.380774 0.674767
vt 0.410480 0.674767
vt 0.410480 0.674767
vt 0.380774 0.674767
s 0
f 37/1/1 35/2/1 4/3/1 1/4/1
f 11/5/2 10/6/2 12/7/2 9/8/2
f 9/8/3 7/9/3 8/10/3 22/11/3
f 15/12/4 16/13/4 19/14/4 20/15/4
f 13/16/5 6/17/5 19/14/5 11/5/5
f 9/8/3 20/15/3 5/18/3 7/9/3
f 22/11/2 8/10/2 14/19/2 21/20/2
f 24/21/3 15/12/3 17/22/3 26/23/3
f 18/24/1 17/22/1 12/7/1 10/6/1
f 24/21/4 23/25/4 16/13/4 15/12/4
f 16/13/5 23/25/5 25/26/5 18/24/5
f 12/7/3 15/12/3 20/15/3 9/8/3
f 17/22/2 18/24/2 25/26/2 26/23/2
f 21/20/5 14/19/5 13/16/5 11/5/5
f 11/5/5 19/14/5 16/13/5 10/6/5
f 26/23/6 25/26/6 23/25/6 24/21/6
f 20/15/4 19/14/4 6/17/4 5/18/4
f 11/5/1 21/20/1 22/11/1 9/8/1
f 14/19/6 13/16/6 7/9/6 8/10/6
f 6/17/1 13/16/1 7/9/1 5/18/1
f 30/4/4 40/4/4 42/1/4 38/1/4
f 2/27/5 28/27/5 27/28/5 3/28/5
f 46/29/6 58/29/6 57/28/6 43/28/6
f 4/3/3 29/3/3 30/4/3 1/4/3
f 31/30/4 33/31/4 28/27/4 2/27/4
f 37/1/4 38/1/4 33/31/4 31/30/4
f 4/3/3 48/3/3 50/3/3 29/3/3
f 33/31/4 45/31/4 44/27/4 28/27/4
f 2/27/1 3/28/1 32/32/1 31/30/1
f 1/4/4 30/4/4 38/1/4 37/1/4
f 41/2/7 55/2/7 58/29/7 46/29/7
f 33/31/6 38/1/6 36/2/6 34/29/6
f 31/30/1 32/32/1 35/2/1 37/1/1
f 42/1/6 40/4/6 39/3/6 41/2/6
f 38/1/5 42/1/5 41/2/5 36/2/5
f 32/32/1 53/32/1 47/2/1 35/2/1
f 29/3/3 39/3/3 40/4/3 30/4/3
f 44/27/6 45/31/6 46/29/6 43/28/6
f 28/27/5 44/27/5 43/28/5 27/28/5
f 3/28/1 51/28/1 53/32/1 32/32/1
f 34/29/3 46/29/3 45/31/3 33/31/3
f 46/29/8 41/2/8 42/1/8 45/31/8
f 35/2/1 47/2/1 48/3/1 4/3/1
f 47/2/2 49/2/2 50/3/2 48/3/2
f 51/28/2 52/28/2 54/29/2 53/32/2
f 53/32/2 54/29/2 49/2/2 47/2/2
f 49/2/2 55/2/2 56/3/2 50/3/2
f 52/28/2 57/28/2 58/29/2 54/29/2
f 49/2/2 54/29/2 58/29/2 55/2/2
f 29/3/3 50/3/3 56/3/3 39/3/3
f 27/28/5 52/28/5 51/28/5 3/28/5
f 43/28/5 57/28/5 52/28/5 27/28/5
f 39/3/6 56/3/6 55/2/6 41/2/6
f 36/2/4 41/2/4 46/29/4 34/29/4
