# Blender 5.1.2
# www.blender.org
o Island
v -3.000000 0.000000 1.800000
v -3.000000 2.398896 1.800000
v 3.000000 0.000000 1.800000
v 3.000000 2.398896 1.800000
v -3.000000 2.663423 -1.200000
v 3.000000 2.663423 -1.200000
v 3.000000 2.398896 2.514469
v 2.897589 2.501307 2.616880
v 2.986279 2.412617 2.565674
v 2.948794 2.450102 2.603159
v -2.897589 2.501307 2.616880
v -3.000000 2.398896 2.514469
v -2.948794 2.450102 2.603159
v -2.986279 2.412617 2.565674
v 2.897589 2.561012 2.616880
v 3.000000 2.663423 2.514469
v 2.948794 2.612217 2.603159
v 2.986279 2.649702 2.565674
v -3.000000 2.663423 2.514469
v -2.897589 2.561012 2.616880
v -2.986279 2.649702 2.565674
v -2.948794 2.612217 2.603159
v 0.000000 2.663423 -1.200000
v 3.000000 2.398896 -1.200000
v 3.000000 0.000000 -1.200000
v -3.000000 2.398896 -1.200000
v -3.000000 0.000000 -1.200000
v 0.000000 0.000000 -1.200000
v 0.000000 2.398896 -1.200000
v 0.000000 2.398896 -1.193260
v -0.000000 2.417019 -1.248301
v 2.907356 2.491541 -1.285904
v 3.000000 2.398896 -1.193260
v 2.942809 2.456087 -1.278852
v 2.972865 2.426031 -1.258769
v 2.992948 2.405948 -1.228713
v 0.000000 2.663423 -1.193260
v 3.000000 2.663423 -1.193260
v 2.907356 2.570778 -1.285904
v 2.992948 2.656370 -1.228713
v 2.972865 2.636288 -1.258769
v 2.942809 2.606232 -1.278852
v -2.907356 2.570778 -1.285904
v -3.000000 2.663423 -1.193260
v -2.942809 2.606232 -1.278852
v -2.972865 2.636288 -1.258769
v -2.992948 2.656370 -1.228713
v -2.907356 2.491541 -1.285904
v -3.000000 2.398896 -1.193260
v -2.942809 2.456087 -1.278852
v -2.972865 2.426031 -1.258769
v -2.992948 2.405948 -1.228713
v -2.954732 0.008774 1.353574
v -2.954732 0.065520 1.353574
v -2.954732 0.008774 -1.178089
v -2.954732 0.065520 -1.178089
v 2.975380 0.008774 1.353574
v 2.975380 0.065520 1.353574
v 2.975380 0.008774 -1.178089
v 2.975380 0.065520 -1.178089
v -2.954732 2.324527 1.353574
v -2.954732 2.381272 1.353574
v -2.954732 2.324527 -1.178089
v -2.954732 2.381272 -1.178089
v 2.975380 2.324527 1.353574
v 2.975380 2.381272 1.353574
v 2.975380 2.324527 -1.178089
v 2.975380 2.381272 -1.178089
v 0.080253 0.050072 1.353573
v 0.023507 0.050072 1.353573
v 0.080253 0.050072 -1.178089
v 0.023508 0.050072 -1.178089
v 0.080253 2.344949 1.353574
v 0.023507 2.344949 1.353574
v 0.080253 2.344949 -1.178088
v 0.023507 2.344949 -1.178088
v -2.954732 1.196931 1.353574
v -2.954732 1.253676 1.353574
v -2.954732 1.196931 -1.012340
v -2.954732 1.253676 -1.012340
v 2.975380 1.196931 1.353574
v 2.975380 1.253676 1.353574
v 2.975380 1.196931 -1.012340
v 2.975380 1.253676 -1.012340
v 2.977983 0.050072 1.353573
v 2.921238 0.050072 1.353573
v 2.977984 0.050072 -1.178089
v 2.921238 0.050072 -1.178089
v 2.977983 2.344949 1.353574
v 2.921237 2.344949 1.353574
v 2.977983 2.344949 -1.178088
v 2.921238 2.344949 -1.178088
v -2.911475 0.050072 1.353573
v -2.968220 0.050072 1.353573
v -2.911474 0.050072 -1.178089
v -2.968220 0.050072 -1.178089
v -2.911475 2.344949 1.353574
v -2.968220 2.344949 1.353574
v -2.911475 2.344949 -1.178088
v -2.968220 2.344949 -1.178088
v -2.927244 0.050072 1.368379
v -2.927244 0.050072 1.311633
v 2.962148 0.050072 1.368379
v 2.962148 0.050072 1.311634
v -2.927247 2.344949 1.368379
v -2.927247 2.344949 1.311633
v 2.962147 2.344949 1.368379
v 2.962147 2.344949 1.311633
vn -1.0000 -0.0000 -0.0000
vn 1.0000 -0.0000 -0.0000
vn -0.0000 -0.0000 1.0000
vn -0.0000 -0.2588 0.9659
vn -0.0000 -0.7071 0.7071
vn -0.0000 -0.9659 0.2588
vn -0.0000 0.9659 0.2588
vn -0.0000 0.7071 0.7071
vn 0.2588 -0.0000 0.9659
vn 0.7071 -0.0000 0.7071
vn 0.9659 -0.0000 0.2588
vn -0.2588 -0.0000 0.9659
vn -0.7071 -0.0000 0.7071
vn -0.9659 -0.0000 0.2588
vn -0.0000 0.2588 0.9659
vn -0.0000 -1.0000 -0.0000
vn -0.0000 -0.9634 -0.2680
vn -0.0000 -0.8122 -0.5833
vn -0.0000 -0.1951 -0.9808
vn -0.0000 -0.5556 -0.8315
vn -0.0000 0.1951 -0.9808
vn -0.0000 0.8315 -0.5556
vn -0.0000 0.5556 -0.8315
vn 0.1951 -0.0000 -0.9808
vn 0.5556 -0.0000 -0.8315
vn 0.8315 -0.0000 -0.5556
vn 0.9808 -0.0000 -0.1951
vn -0.1951 -0.0000 -0.9808
vn -0.5556 -0.0000 -0.8315
vn -0.8315 -0.0000 -0.5556
vn -0.9808 -0.0000 -0.1951
vn -0.0000 1.0000 -0.0000
vn -0.0000 0.9808 -0.1951
vn -0.0000 -0.0000 -1.0000
vt 0.201928 0.591105
vt 0.002065 0.591105
vt 0.002065 0.455648
vt 0.201928 0.455648
vt 0.201928 0.997477
vt 0.002065 0.997477
vt 0.002065 0.862020
vt 0.201928 0.862020
vt 0.958508 0.084913
vt 0.958103 0.907099
vt 0.951581 0.916785
vt 0.951958 0.075196
vt 0.944383 0.929578
vt 0.945127 0.062572
vt 0.937335 0.944797
vt 0.937335 0.046862
vt 0.986218 0.066809
vt 0.985620 0.925433
vt 0.978351 0.918203
vt 0.979150 0.073984
vt 0.971703 0.912259
vt 0.972133 0.080073
vt 0.965696 0.086089
vt 0.965423 0.906193
vt 0.625000 1.000000
vt 0.625000 0.750000
vt 0.625000 0.750000
vt 0.625000 1.000000
vt 0.972232 0.041499
vt 0.547763 0.041499
vt 0.547763 -0.000094
vt 0.641432 -0.000094
vt 0.972232 -0.000094
vt 0.640919 0.982914
vt 0.550150 0.982914
vt 0.550150 0.963820
vt 0.971312 0.963820
vt 0.971312 0.982914
vt 0.739508 0.253978
vt 0.741316 0.034419
vt 0.745194 0.028328
vt 0.746138 0.253992
vt 0.743298 0.481028
vt 0.739465 0.474937
vt 0.735821 0.470333
vt 0.737633 0.039009
vt 0.730291 0.046275
vt 0.733833 0.042928
vt 0.732090 0.466521
vt 0.728466 0.463126
vt 0.717384 0.464073
vt 0.719174 0.045110
vt 0.722630 0.047167
vt 0.720893 0.462116
vt 0.715649 0.043123
vt 0.713835 0.466048
vt 0.709956 0.468125
vt 0.711906 0.041075
vt 0.707732 0.038632
vt 0.705858 0.470553
vt 0.967083 0.513678
vt 0.706900 0.257807
vt 0.745933 0.027182
vt 0.746859 0.253994
vt 0.744021 0.482003
vt 0.706831 0.038114
vt 0.707679 0.038608
vt 0.705059 0.471079
vt 0.705785 0.257805
vt 0.706517 0.257806
vt 0.705804 0.470576
vt 0.469972 0.999955
vt 0.339147 0.999955
vt 0.208322 0.999955
vt 0.208322 0.851719
vt 0.469972 0.851719
vt 0.065877 0.875213
vt 0.085613 0.875213
vt 0.085613 0.894949
vt 0.065877 0.894949
vt 0.085613 0.914685
vt 0.065877 0.914685
vt 0.085613 0.934421
vt 0.065877 0.934421
vt 0.085613 0.954157
vt 0.065877 0.954157
vt 0.046141 0.914685
vt 0.046141 0.934421
vt 0.105349 0.914685
vt 0.105349 0.934421
vt 0.375000 0.000000
vt 0.625000 0.000000
vt 0.625000 0.250000
vt 0.375000 0.250000
vt 0.625000 0.500000
vt 0.375000 0.500000
vt 0.375000 0.750000
vt 0.375000 1.000000
vt 0.125000 0.500000
vt 0.125000 0.750000
vt 0.875000 0.500000
vt 0.875000 0.750000
vt 0.115707 0.897495
vt 0.125100 0.897495
vt 0.125100 0.906887
vt 0.115707 0.906887
vt 0.125100 0.916280
vt 0.115707 0.916280
vt 0.125100 0.925673
vt 0.115707 0.925673
vt 0.125100 0.935066
vt 0.115707 0.935066
vt 0.106315 0.916280
vt 0.106315 0.925673
vt 0.134493 0.916280
vt 0.134493 0.925673
vt 0.333963 0.831096
vt 0.353428 0.831096
vt 0.353428 0.850561
vt 0.333963 0.850561
vt 0.353428 0.870027
vt 0.333963 0.870027
vt 0.353428 0.889492
vt 0.333963 0.889492
vt 0.353428 0.908958
vt 0.333963 0.908958
vt 0.314497 0.870027
vt 0.314497 0.889492
vt 0.372894 0.870027
vt 0.372894 0.889492
vt 0.389941 0.865211
vt 0.402716 0.865211
vt 0.402716 0.877986
vt 0.389941 0.877986
vt 0.402716 0.890761
vt 0.389941 0.890761
vt 0.402716 0.903536
vt 0.389941 0.903536
vt 0.402716 0.916311
vt 0.389941 0.916311
vt 0.377166 0.890761
vt 0.377166 0.903536
vt 0.415491 0.890761
vt 0.415491 0.903536
vt 0.042417 0.933587
vt 0.050510 0.933587
vt 0.050510 0.941681
vt 0.042417 0.941681
vt 0.050510 0.949774
vt 0.042417 0.949774
vt 0.050510 0.957867
vt 0.042417 0.957867
vt 0.050510 0.965960
vt 0.042417 0.965960
vt 0.034324 0.949774
vt 0.034324 0.957867
vt 0.058603 0.949774
vt 0.058603 0.957867
s 0
f 1/1/1 2/2/1 26/3/1 27/4/1
f 25/5/2 24/6/2 4/7/2 3/8/2
f 3/8/3 4/7/3 2/2/3 1/1/3
f 8/9/4 11/10/4 13/11/4 10/12/4
f 10/12/5 13/11/5 14/13/5 9/14/5
f 9/14/6 14/13/6 12/15/6 7/16/6
f 16/17/7 19/18/7 21/19/7 18/20/7
f 18/20/8 21/19/8 22/21/8 17/22/8
f 15/23/9 8/9/9 10/12/9 17/22/9
f 17/22/10 10/12/10 9/14/10 18/20/10
f 18/20/11 9/14/11 7/16/11 16/17/11
f 11/10/12 20/24/12 22/21/12 13/11/12
f 13/11/13 22/21/13 21/19/13 14/13/13
f 14/13/14 21/19/14 19/18/14 12/15/14
f 17/22/15 22/21/15 20/24/15 15/23/15
f 2/25/16 4/26/16 7/27/16 12/28/16
f 6/29/2 16/30/2 7/31/2 4/32/2 24/33/2
f 2/34/1 12/35/1 19/36/1 5/37/1 26/38/1
f 11/10/3 8/9/3 15/23/3 20/24/3
f 31/39/17 36/40/17 33/41/17 30/42/17 49/43/17 52/44/17
f 51/45/18 35/46/18 36/40/18 31/39/18 52/44/18
f 32/47/19 34/48/19 50/49/19 48/50/19
f 50/49/20 34/48/20 35/46/20 51/45/20
f 45/51/21 42/52/21 39/53/21 43/54/21
f 41/55/22 46/56/22 47/57/22 40/58/22
f 46/56/23 41/55/23 42/52/23 45/51/23
f 32/47/24 39/53/24 42/52/24 34/48/24
f 34/48/25 42/52/25 41/55/25 35/46/25
f 35/46/26 41/55/26 40/58/26 36/40/26
f 36/40/27 40/58/27 38/59/27 33/41/27
f 43/54/28 48/50/28 50/49/28 45/51/28
f 45/51/29 50/49/29 51/45/29 46/56/29
f 46/56/30 51/45/30 52/44/30 47/57/30
f 47/57/31 52/44/31 49/43/31 44/60/31
f 5/37/32 19/36/32 16/30/32 6/29/32 23/61/32
f 40/58/33 47/57/33 44/60/33 37/62/33 38/59/33
f 32/47/34 48/50/34 43/54/34 39/53/34
f 24/63/32 29/64/32 30/42/32 33/41/32
f 29/64/32 26/65/32 49/43/32 30/42/32
f 6/66/1 24/63/1 33/41/1 38/67/1
f 5/68/16 23/69/16 37/70/16 44/71/16
f 23/69/16 6/66/16 38/67/16 37/70/16
f 26/65/2 5/68/2 44/71/2 49/43/2
f 27/72/16 28/73/16 25/74/16 3/75/16 1/76/16
f 53/77/1 54/78/1 56/79/1 55/80/1
f 55/80/34 56/79/34 60/81/34 59/82/34
f 59/82/2 60/81/2 58/83/2 57/84/2
f 57/84/3 58/83/3 54/85/3 53/86/3
f 55/87/16 59/82/16 57/84/16 53/88/16
f 60/81/32 56/89/32 54/90/32 58/83/32
f 61/91/1 62/92/1 64/93/1 63/94/1
f 63/94/34 64/93/34 68/95/34 67/96/34
f 67/96/2 68/95/2 66/26/2 65/97/2
f 65/97/3 66/26/3 62/25/3 61/98/3
f 63/99/16 67/96/16 65/97/16 61/100/16
f 68/95/32 64/101/32 62/102/32 66/26/32
f 69/103/16 70/104/16 72/105/16 71/106/16
f 71/106/34 72/105/34 76/107/34 75/108/34
f 75/108/32 76/107/32 74/109/32 73/110/32
f 73/110/3 74/109/3 70/111/3 69/112/3
f 71/113/2 75/108/2 73/110/2 69/114/2
f 76/107/1 72/115/1 70/116/1 74/109/1
f 77/117/1 78/118/1 80/119/1 79/120/1
f 79/120/34 80/119/34 84/121/34 83/122/34
f 83/122/2 84/121/2 82/123/2 81/124/2
f 81/124/3 82/123/3 78/125/3 77/126/3
f 79/127/16 83/122/16 81/124/16 77/128/16
f 84/121/32 80/129/32 78/130/32 82/123/32
f 85/131/16 86/132/16 88/133/16 87/134/16
f 87/134/34 88/133/34 92/135/34 91/136/34
f 91/136/32 92/135/32 90/137/32 89/138/32
f 89/138/3 90/137/3 86/139/3 85/140/3
f 87/141/2 91/136/2 89/138/2 85/142/2
f 92/135/1 88/143/1 86/144/1 90/137/1
f 93/91/16 94/92/16 96/93/16 95/94/16
f 95/94/34 96/93/34 100/95/34 99/96/34
f 99/96/32 100/95/32 98/26/32 97/97/32
f 97/97/3 98/26/3 94/25/3 93/98/3
f 95/99/2 99/96/2 97/97/2 93/100/2
f 100/95/1 96/101/1 94/102/1 98/26/1
f 101/145/16 102/146/16 104/147/16 103/148/16
f 103/148/2 104/147/2 108/149/2 107/150/2
f 107/150/32 108/149/32 106/151/32 105/152/32
f 105/152/1 106/151/1 102/153/1 101/154/1
f 103/155/3 107/150/3 105/152/3 101/156/3
f 108/149/34 104/157/34 102/158/34 106/151/34
