# Blender 5.1.2
# www.blender.org
o Island_Door_R
v 0.292057 -1.049025 -0.058376
v 0.292057 1.049025 -0.058376
v 2.849577 1.049025 -0.058376
v 2.849577 -1.049025 -0.058376
v 0.000000 1.199448 -0.000000
v 0.000000 -1.199448 -0.000000
v 3.000000 -1.199448 -0.000000
v 3.000000 1.199448 -0.000000
v 2.610508 0.993221 -0.176113
v 2.610508 0.643808 -0.176113
v 2.610508 0.993221 -0.110363
v 2.610508 0.993221 -0.096247
v 2.627403 0.993221 -0.150539
v 2.709215 0.643808 -0.150539
v 2.627403 0.643808 -0.150539
v 2.709215 0.993221 -0.150539
v 2.610508 0.643808 -0.110363
v 2.610508 0.643808 -0.096247
v 2.709215 0.993221 -0.176113
v 2.709215 0.643808 -0.176113
v 2.709215 0.993221 -0.058176
v 2.709215 0.643808 -0.058176
v 2.627403 0.643808 -0.176113
v 2.627403 0.993221 -0.176113
v 2.627403 0.643808 -0.096247
v 2.627403 0.993221 -0.096247
v 2.782426 0.643808 -0.176113
v 2.782426 0.993221 -0.176113
v 2.782426 0.643808 -0.058176
v 2.782426 0.993221 -0.058176
vn -0.0000 -0.0000 -1.0000
vn -0.1960 -0.0000 -0.9806
vn -0.0000 -0.3618 -0.9323
vn -0.0000 0.3618 -0.9323
vn 0.3618 -0.0000 -0.9323
vn -0.0000 -0.0000 1.0000
vn -0.0000 -1.0000 -0.0000
vn -0.0000 1.0000 -0.0000
vn -1.0000 -0.0000 -0.0000
vn 1.0000 -0.0000 -0.0000
vt 0.223659 0.457850
vt 0.399493 0.458394
vt 0.398137 0.671294
vt 0.225038 0.670476
vt 0.210023 0.432906
vt 0.413170 0.433314
vt 0.211592 0.683958
vt 0.411549 0.684732
vt 0.095621 0.114255
vt 0.074890 0.112265
vt 0.261309 0.115777
vt 0.260083 0.103547
vt 0.257961 0.090685
vt 0.259683 0.101689
vt 0.259142 0.114463
vt 0.301702 0.119980
vt 0.086000 0.138789
vt 0.095820 0.139298
vt 0.271751 0.123082
vt 0.099434 0.128391
vt 0.097251 0.111584
vt 0.264981 0.094159
vt 0.098966 0.103786
vt 0.098045 0.115853
vt 0.269640 0.139298
vt 0.249258 0.097303
vt 0.247200 0.098495
vt 0.018947 0.118131
vt 0.083603 0.134155
vt 0.055310 0.094160
s 0
f 1/1/1 2/2/1 3/3/1 4/4/1
f 2/2/2 1/1/2 6/5/2 5/6/2
f 1/1/3 4/4/3 7/7/3 6/5/3
f 3/3/4 2/2/4 5/6/4 8/8/4
f 4/4/5 3/3/5 8/8/5 7/7/5
f 15/9/6 14/10/6 16/11/6 13/12/6
f 13/12/7 26/13/7 12/14/7 11/15/7
f 19/16/1 20/17/1 23/18/1 24/19/1
f 17/20/8 15/9/8 23/18/8 10/21/8
f 13/12/7 11/15/7 9/22/7 24/19/7
f 26/13/1 25/23/1 18/24/1 12/14/1
f 28/25/8 19/16/8 21/26/8 30/27/8
f 22/28/9 21/26/9 16/11/9 14/10/9
f 28/25/1 27/29/1 20/17/1 19/16/1
f 20/17/7 27/29/7 29/30/7 22/28/7
f 16/11/8 19/16/8 24/19/8 13/12/8
f 21/26/6 22/28/6 29/30/6 30/27/6
f 25/23/8 15/9/8 17/20/8 18/24/8
f 15/9/7 23/18/7 20/17/7 14/10/7
f 30/27/10 29/30/10 27/29/10 28/25/10
f 24/19/1 23/18/1 10/21/1 9/22/1
f 15/9/9 25/23/9 26/13/9 13/12/9
f 18/24/10 17/20/10 11/15/10 12/14/10
f 10/21/9 17/20/9 11/15/9 9/22/9
f 6/5/6 7/7/6 8/8/6 5/6/6
