# Blender 5.1.2
# www.blender.org
o Island_Door_L
v -0.286039 -1.051372 -0.058376
v -0.286039 1.051371 -0.058376
v -2.851923 -1.051372 -0.058376
v -2.851923 1.051371 -0.058376
v 0.000000 1.199448 0.000000
v 0.000000 -1.199448 0.000000
v -3.000000 -1.199448 0.000000
v -3.000000 1.199448 0.000000
v -2.620715 0.643807 -0.176113
v -2.620715 0.993220 -0.176113
v -2.620715 0.643807 -0.110362
v -2.620715 0.643807 -0.096246
v -2.637609 0.643807 -0.150539
v -2.719422 0.993220 -0.150539
v -2.637609 0.993220 -0.150539
v -2.719422 0.643807 -0.150539
v -2.620715 0.993220 -0.110362
v -2.620715 0.993220 -0.096246
v -2.719422 0.643807 -0.176113
v -2.719422 0.993220 -0.176113
v -2.719422 0.643807 -0.058176
v -2.719422 0.993220 -0.058176
v -2.637609 0.993220 -0.176113
v -2.637609 0.643807 -0.176113
v -2.637609 0.993220 -0.096246
v -2.637609 0.643807 -0.096246
v -2.792633 0.993220 -0.176113
v -2.792633 0.643807 -0.176113
v -2.792633 0.993220 -0.058176
v -2.792633 0.643807 -0.058176
vn -0.0000 -0.0000 -1.0000
vn -0.0000 0.3668 -0.9303
vn 0.2000 -0.0000 -0.9798
vn -0.0000 -0.3668 -0.9303
vn -0.3668 -0.0000 -0.9303
vn -0.0000 -0.0000 1.0000
vn -0.0000 1.0000 -0.0000
vn -0.0000 -1.0000 -0.0000
vn 1.0000 -0.0000 -0.0000
vn -1.0000 -0.0000 -0.0000
vt 0.224824 0.697214
vt 0.398284 0.698035
vt 0.399713 0.911351
vt 0.223458 0.910811
vt 0.411549 0.684732
vt 0.413170 0.935803
vt 0.209965 0.935403
vt 0.211592 0.683958
vt 0.233512 0.046371
vt 0.205676 0.054335
vt 0.103094 0.046613
vt 0.075510 0.037741
vt 0.027302 0.020961
vt 0.038689 0.054866
vt 0.053151 0.068817
vt 0.107417 0.057842
vt 0.203756 0.062627
vt 0.224937 0.075114
vt 0.085923 0.066296
vt 0.265844 0.082441
vt 0.236296 0.058208
vt 0.076552 0.047999
vt 0.269517 0.020961
vt 0.298190 0.057051
vt 0.116444 0.064807
vt 0.115536 0.051624
vt 0.119769 0.049866
vt 0.194669 0.055170
vt 0.194318 0.068781
vt 0.190750 0.053343
s 0
f 3/1/1 4/2/1 2/3/1 1/4/1
f 2/3/2 4/2/2 8/5/2 5/6/2
f 1/4/3 2/3/3 5/6/3 6/7/3
f 3/1/4 1/4/4 6/7/4 7/8/4
f 4/2/5 3/1/5 7/8/5 8/5/5
f 15/9/6 14/10/6 16/11/6 13/12/6
f 13/12/7 26/13/7 12/14/7 11/15/7
f 19/16/1 20/17/1 23/18/1 24/19/1
f 17/20/8 15/9/8 23/18/8 10/21/8
f 13/12/7 11/15/7 9/22/7 24/19/7
f 26/13/1 25/23/1 18/24/1 12/14/1
f 28/25/8 19/16/8 21/26/8 30/27/8
f 22/28/9 21/26/9 16/11/9 14/10/9
f 28/25/1 27/29/1 20/17/1 19/16/1
f 20/17/7 27/29/7 29/30/7 22/28/7
f 16/11/8 19/16/8 24/19/8 13/12/8
f 21/26/6 22/28/6 29/30/6 30/27/6
f 25/23/8 15/9/8 17/20/8 18/24/8
f 15/9/7 23/18/7 20/17/7 14/10/7
f 30/27/10 29/30/10 27/29/10 28/25/10
f 24/19/1 23/18/1 10/21/1 9/22/1
f 15/9/9 25/23/9 26/13/9 13/12/9
f 18/24/10 17/20/10 11/15/10 12/14/10
f 10/21/9 17/20/9 11/15/9 9/22/9
f 8/5/6 7/8/6 6/7/6 5/6/6
