# Blender 5.1.2
# www.blender.org
o Over_Door
v -1.172222 0.102569 0.068798
v -1.172222 1.585985 0.068798
v 1.172222 0.102569 0.068798
v 1.172222 1.585985 0.068798
v -1.459003 1.778646 0.000000
v -1.459003 -0.000000 0.000000
v 1.459003 1.778646 0.000000
v 1.459003 -0.000000 0.000000
v -1.222803 1.596249 0.193687
v -1.222803 1.681535 0.193687
v -1.222803 1.596249 0.109004
v -1.222803 1.681535 0.109004
v 1.294364 1.596249 0.193687
v 1.294364 1.681535 0.193687
v 1.294364 1.596249 0.109004
v 1.294364 1.681535 0.109004
v -1.222803 1.638892 0.200727
v -1.222803 1.638892 0.109004
v 1.294364 1.638892 0.109004
v 1.294364 1.638892 0.200727
v -1.222803 1.586951 0.151345
v -1.222803 1.692740 0.151345
v 1.294364 1.586951 0.151345
v 1.294364 1.692740 0.151345
v 1.294364 1.638892 0.151345
v -1.222803 1.638892 0.151345
v 1.227071 1.596249 0.109004
v 1.227071 1.681535 0.109004
v 1.227071 1.596249 0.193687
v 1.227071 1.681535 0.193687
v 1.227071 1.638892 0.200727
v 1.227071 1.638892 0.109004
v 1.227071 1.692740 0.151345
v 1.227071 1.586951 0.151345
v -1.134431 1.596249 0.109004
v -1.134431 1.681535 0.193687
v -1.134431 1.638892 0.200727
v -1.134431 1.586951 0.151345
v -1.134431 1.681535 0.109004
v -1.134431 1.596249 0.193687
v -1.134431 1.638892 0.109004
v -1.134431 1.692740 0.151345
v -1.222803 1.638892 0.031106
v -1.222803 1.596249 0.031106
v -1.134431 1.596249 0.031106
v -1.222803 1.681535 0.031106
v -1.134431 1.681535 0.005284
v -1.134431 1.638892 0.031106
v -1.204010 1.638892 0.109004
v -1.204010 1.596249 0.109004
v -1.204010 1.681535 0.109004
v -1.204010 1.638892 0.031106
v -1.204010 1.596249 0.031106
v -1.204010 1.681535 0.005284
v 1.227071 1.681535 0.005518
v 1.294364 1.681535 0.016454
v 1.294364 1.638892 0.016454
v 1.294364 1.596249 0.016454
v 1.227071 1.638892 0.016454
v 1.227071 1.596249 0.016454
v 1.280603 1.638892 0.109004
v 1.280603 1.596249 0.109004
v 1.280603 1.681535 0.109004
v 1.280603 1.638892 0.016454
v 1.280603 1.596249 0.016454
v 1.280603 1.681535 0.005518
vn -0.0000 -0.0000 1.0000
vn -0.2333 -0.0000 0.9724
vn -0.0000 0.3363 0.9418
vn 0.2333 -0.0000 0.9724
vn -0.0000 -0.5570 0.8305
vn -1.0000 -0.0000 -0.0000
vn -0.0000 -0.0000 -1.0000
vn 1.0000 -0.0000 -0.0000
vn -0.0000 0.1629 0.9866
vn -0.0000 -0.9767 0.2145
vn -0.0000 0.9667 0.2558
vn -0.0000 -0.1629 0.9866
vn -0.0000 1.0000 -0.0000
vn -0.0000 0.9667 -0.2558
vn -0.0000 -0.9767 -0.2145
vn -0.1385 -0.2870 -0.9479
vn 0.0803 -0.1268 -0.9887
vn 0.5494 0.2421 0.7997
vn -0.0000 -1.0000 -0.0000
vn -0.3667 0.1183 0.9228
vt 0.240237 0.330778
vt 0.265912 0.330778
vt 0.265912 0.301600
vt 0.240237 0.301600
vt 0.234916 0.334347
vt 0.271233 0.334347
vt 0.234916 0.298030
vt 0.271233 0.298030
vt 0.046928 0.090748
vt 0.046928 0.062090
vt 0.082204 0.062090
vt 0.082204 0.090748
vt 0.152756 0.090748
vt 0.152756 0.119406
vt 0.188032 0.090748
vt 0.188032 0.062090
vt 0.223308 0.062090
vt 0.223308 0.090748
vt 0.291384 0.090748
vt 0.291384 0.062090
vt 0.293861 0.062090
vt 0.293861 0.090748
vt 0.188032 0.120939
vt 0.188032 0.119406
vt 0.223308 0.119406
vt 0.223308 0.120939
vt 0.188032 0.006786
vt 0.188032 0.004774
vt 0.223308 0.004774
vt 0.223308 0.006786
vt 0.291384 0.119406
vt 0.293861 0.119406
vt 0.152756 0.062090
vt 0.150870 0.062090
vt 0.046928 0.119406
vt 0.082204 0.119406
vt 0.011652 0.119406
vt 0.011652 0.090748
vt 0.152756 0.006786
vt 0.152756 0.004774
vt 0.152756 0.120939
vt 0.011652 0.062090
vt 0.152756 0.174711
vt 0.188032 0.174711
vt 0.152756 0.060558
vt 0.188032 0.060558
vt 0.084681 0.119406
vt 0.084681 0.090748
vt 0.150870 0.090748
vt 0.150870 0.119406
vt 0.225194 0.090748
vt 0.225194 0.119406
vt 0.223308 0.060558
vt 0.223308 0.174711
vt 0.225194 0.062090
vt 0.084681 0.062090
vt 0.188032 0.176723
vt 0.223308 0.176723
vt 0.152756 0.176723
s 0
f 2/1/1 1/2/1 3/3/1 4/4/1
f 2/1/2 5/5/2 6/6/2 1/2/2
f 4/4/3 7/7/3 5/5/3 2/1/3
f 3/3/4 8/8/4 7/7/4 4/4/4
f 1/2/5 6/6/5 8/8/5 3/3/5
f 26/9/6 22/10/6 12/11/6 18/12/6
f 19/13/7 15/14/7 62/14/7 61/13/7
f 25/15/8 24/16/8 14/17/8 20/18/8
f 37/19/9 36/20/9 10/21/9 17/22/9
f 34/23/10 23/24/10 13/25/10 29/26/10
f 42/27/11 22/28/11 10/29/11 36/30/11
f 40/31/12 37/19/12 17/22/12 9/32/12
f 23/24/8 25/15/8 20/18/8 13/25/8
f 66/33/13 55/34/13 28/34/13 63/33/13
f 21/35/6 26/9/6 18/12/6 11/36/6
f 9/37/6 17/38/6 26/9/6 21/35/6
f 15/14/8 19/13/8 25/15/8 23/24/8
f 39/39/14 12/40/14 22/28/14 42/27/14
f 27/41/15 15/14/15 23/24/15 34/23/15
f 19/13/8 16/33/8 24/16/8 25/15/8
f 17/38/6 10/42/6 22/10/6 26/9/6
f 35/43/15 27/41/15 34/23/15 38/44/15
f 16/33/14 28/45/14 33/46/14 24/16/14
f 35/47/7 41/48/7 32/49/7 27/50/7
f 13/25/12 20/18/12 31/51/12 29/52/12
f 24/16/11 33/46/11 30/53/11 14/17/11
f 38/44/10 34/23/10 29/26/10 40/54/10
f 20/18/9 14/17/9 30/55/9 31/51/9
f 41/48/7 39/56/7 28/34/7 32/49/7
f 60/50/7 59/49/7 57/13/7 58/14/7
f 21/57/10 38/44/10 40/54/10 9/58/10
f 39/56/8 41/48/8 48/48/8 47/56/8
f 11/59/15 35/43/15 38/44/15 21/57/15
f 28/45/14 39/39/14 42/27/14 33/46/14
f 29/52/12 31/51/12 37/19/12 40/31/12
f 33/46/11 42/27/11 36/30/11 30/53/11
f 31/51/9 30/55/9 36/20/9 37/19/9
f 43/12/16 46/11/16 47/56/16 48/48/16
f 44/36/7 43/12/7 48/48/7 45/47/7
f 39/56/13 47/56/13 54/11/13 51/11/13
f 18/12/7 12/11/7 51/11/7 49/12/7
f 41/48/8 35/47/8 45/47/8 48/48/8
f 59/49/17 55/34/17 56/33/17 57/13/17
f 49/12/6 51/11/6 54/11/6 52/12/6
f 50/36/6 49/12/6 52/12/6 53/36/6
f 46/11/18 43/12/18 52/12/18 54/11/18
f 43/12/1 44/36/1 53/36/1 52/12/1
f 45/47/19 35/47/19 50/36/19 53/36/19
f 11/36/7 18/12/7 49/12/7 50/36/7
f 27/50/6 32/49/6 59/49/6 60/50/6
f 32/49/6 28/34/6 55/34/6 59/49/6
f 61/13/8 62/14/8 65/14/8 64/13/8
f 63/33/8 61/13/8 64/13/8 66/33/8
f 57/13/20 56/33/20 66/33/20 64/13/20
f 27/50/19 60/50/19 65/14/19 62/14/19
f 16/33/7 19/13/7 61/13/7 63/33/7
f 58/14/1 57/13/1 64/13/1 65/14/1
f 5/5/7 7/7/7 8/8/7 6/6/7
