# Blender 5.1.2
# www.blender.org
o Sink_Handle
v -0.033315 0.142550 0.099695
v -0.091345 0.094996 0.066438
v -0.062330 0.136180 0.095241
v -0.083570 0.118773 0.083066
v -0.042283 0.415055 -0.418328
v -0.015421 0.437068 -0.402933
v -0.038684 0.426061 -0.410631
v -0.028852 0.434119 -0.404995
v -0.091345 0.047554 0.033258
v -0.033315 0.000000 0.000000
v -0.083570 0.023777 0.016629
v -0.062330 0.006371 0.004456
v -0.015421 0.371082 -0.449081
v -0.042283 0.393094 -0.433687
v -0.028852 0.374031 -0.447020
v -0.038684 0.382088 -0.441384
v 0.091343 0.094996 0.066438
v 0.033313 0.142550 0.099695
v 0.083569 0.118773 0.083066
v 0.062328 0.136180 0.095241
v 0.015420 0.437068 -0.402933
v 0.042282 0.415055 -0.418328
v 0.028851 0.434119 -0.404995
v 0.038683 0.426061 -0.410631
v 0.033313 0.000000 0.000000
v 0.091343 0.047554 0.033258
v 0.062328 0.006371 0.004456
v 0.083569 0.023777 0.016629
v 0.042282 0.393094 -0.433687
v 0.015420 0.371082 -0.449081
v 0.038683 0.382088 -0.441384
v 0.028851 0.374031 -0.447020
vn -0.0001 0.5731 -0.8195
vn -0.0000 0.5731 -0.8195
vn -0.0001 0.5732 -0.8194
vn 0.0001 0.5732 -0.8194
vn -0.2578 0.8376 0.4816
vn -0.7041 0.6298 0.3280
vn -0.9622 0.2618 0.0755
vn -0.2579 -0.7397 -0.6215
vn -0.7041 -0.5242 -0.4791
vn -0.9622 -0.1607 -0.2200
vn 0.9622 -0.1607 -0.2200
vn 0.7041 -0.5242 -0.4791
vn 0.2579 -0.7397 -0.6215
vn 0.2578 0.8376 0.4816
vn 0.7041 0.6298 0.3280
vn 0.9622 0.2618 0.0755
vn -0.0000 -0.5731 0.8195
vn -0.9964 0.0483 -0.0690
vn -0.0000 0.8628 0.5056
vn -0.0000 -0.7709 -0.6370
vn 0.9964 0.0483 -0.0690
vn -0.0000 -0.5732 0.8194
vn -0.0001 -0.5731 0.8195
vt 0.145384 0.029753
vt 0.150655 0.024734
vt 0.157855 0.022897
vt 0.134314 0.061493
vt 0.143455 0.036609
vt 0.186622 0.036609
vt 0.150655 0.065452
vt 0.139527 0.063779
vt 0.157855 0.066064
vt 0.172222 0.066064
vt 0.216078 0.109231
vt 0.216078 0.066064
vt 0.229789 0.066064
vt 0.229789 0.109231
vt 0.057120 0.109231
vt 0.057120 0.066064
vt 0.064320 0.066064
vt 0.064320 0.109231
vt 0.071521 0.066064
vt 0.071521 0.109231
vt 0.114000 0.066064
vt 0.114000 0.109231
vt 0.107144 0.109231
vt 0.107144 0.066064
vt 0.093087 0.109231
vt 0.093087 0.066064
vt 0.085887 0.109231
vt 0.085887 0.066064
vt 0.157855 0.109231
vt 0.150655 0.109844
vt 0.139527 0.111517
vt 0.134314 0.113802
vt 0.195763 0.061493
vt 0.195763 0.113802
vt 0.190550 0.111517
vt 0.190550 0.063779
vt 0.179422 0.109844
vt 0.179422 0.065452
vt 0.172222 0.109231
vt 0.186622 0.138687
vt 0.172222 0.152399
vt 0.143455 0.138687
vt 0.172222 0.022897
vt 0.179422 0.024734
vt 0.184693 0.029753
vt 0.157855 0.152399
vt 0.150655 0.150562
vt 0.145384 0.145543
vt 0.184693 0.145543
vt 0.179422 0.150562
s 0
f 15/1/1 16/2/1 14/3/1
f 30/4/2 13/5/2 6/6/2
f 31/7/3 32/8/3 30/4/3
f 29/9/2 31/7/2 30/4/2
f 22/10/2 29/9/2 30/4/2
f 13/5/4 15/1/4 14/3/4
f 1/11/5 6/12/5 8/13/5 3/14/5
f 3/15/6 8/16/6 7/17/6 4/18/6
f 4/18/7 7/17/7 5/19/7 2/20/7
f 13/21/8 10/22/8 12/23/8 15/24/8
f 15/24/9 12/23/9 11/25/9 16/26/9
f 16/26/10 11/25/10 9/27/10 14/28/10
f 29/9/11 26/29/11 28/30/11 31/7/11
f 31/7/12 28/30/12 27/31/12 32/8/12
f 32/8/13 27/31/13 25/32/13 30/4/13
f 21/33/14 18/34/14 20/35/14 23/36/14
f 23/36/15 20/35/15 19/37/15 24/38/15
f 24/38/16 19/37/16 17/39/16 22/10/16
f 1/40/17 2/41/17 10/42/17
f 2/20/18 5/19/18 14/28/18 9/27/18
f 18/34/19 21/33/19 6/12/19 1/11/19
f 21/33/2 22/10/2 30/4/2
f 10/22/20 13/21/20 30/4/20 25/32/20
f 26/29/21 29/9/21 22/10/21 17/39/21
f 14/3/2 5/43/2 6/6/2
f 5/43/2 7/44/2 6/6/2
f 7/44/3 8/45/3 6/6/3
f 6/6/2 21/33/2 30/4/2
f 21/33/4 23/36/4 22/10/4
f 23/36/1 24/38/1 22/10/1
f 13/5/2 14/3/2 6/6/2
f 2/41/17 9/46/17 10/42/17
f 9/46/17 11/47/17 10/42/17
f 11/47/17 12/48/17 10/42/17
f 10/42/17 25/32/17 18/34/17
f 25/32/17 27/31/17 26/29/17
f 27/31/17 28/30/17 26/29/17
f 26/29/17 17/39/17 18/34/17
f 17/39/17 19/37/17 18/34/17
f 19/37/22 20/35/22 18/34/22
f 18/34/17 1/40/17 10/42/17
f 1/40/17 3/49/17 2/41/17
f 3/49/23 4/50/23 2/41/23
f 25/32/17 26/29/17 18/34/17
