# Blender 5.1.2
# www.blender.org
o Diary_Page
v -1.034638 2.355968 1.360476
v -1.034638 2.392176 1.360476
v -1.034638 2.355968 -0.639524
v -1.034638 2.392176 -0.639524
v 1.369976 2.355968 1.360476
v 1.369976 2.392176 1.360476
v 1.369976 2.355968 -0.639524
v 1.369976 2.392176 -0.639524
vn -1.0000 -0.0000 -0.0000
vn -0.0000 -0.0000 -1.0000
vn 1.0000 -0.0000 -0.0000
vn -0.0000 -0.0000 1.0000
vn -0.0000 -1.0000 -0.0000
vn -0.0000 1.0000 -0.0000
vt 0.285972 0.884156
vt 0.364185 0.884156
vt 0.364185 0.962369
vt 0.285972 0.962369
vt 0.246983 0.845936
vt 0.363677 0.845936
vt 0.363677 0.962630
vt 0.246983 0.962630
vt 0.199518 0.806293
vt 0.357537 0.806293
vt 0.357537 0.964313
vt 0.199518 0.964313
vt 0.375000 0.750000
vt 0.625000 0.750000
vt 0.625000 1.000000
vt 0.375000 1.000000
vt 0.009595 0.611493
vt 0.009595 0.006729
vt 0.249439 0.006729
vt 0.249439 0.611493
vt 0.493572 0.006927
vt 0.493572 0.611296
vt 0.251192 0.611296
vt 0.251192 0.006927
s 0
f 1/1/1 2/2/1 4/3/1 3/4/1
f 3/5/2 4/6/2 8/7/2 7/8/2
f 7/9/3 8/10/3 6/11/3 5/12/3
f 5/13/4 6/14/4 2/15/4 1/16/4
f 3/17/5 7/18/5 5/19/5 1/20/5
f 8/21/6 4/22/6 2/23/6 6/24/6
